<svg width="204" height="177" viewBox="0 0 204 177" fill="none" xmlns="http://www.w3.org/2000/svg">
<path d="M6.16675 44.5125V145.896C6.16675 154.236 11.5783 161.056 18.367 161.271C48.5185 162.226 153.974 164.541 182.677 164.022C187.61 163.933 191.606 159.084 191.749 153.027C192.302 129.475 193.201 72.8384 189.874 46.5441C189.174 41.0069 185.368 36.8663 180.808 36.6871C155.545 35.6945 43.7545 32.5428 15.0656 33.3341C10.1176 33.4705 6.16675 38.4343 6.16675 44.5125Z" fill="url(#paint0_linear_1213_3050)"/>
<path d="M11.3467 44.0196V140.341C11.3467 145.21 14.5294 149.178 18.4939 149.251L178.548 151.679C182.478 151.751 185.7 147.868 185.715 143.04L185.982 47.5794C185.993 44.1275 183.754 41.2992 180.944 41.2151L17.0784 37.1495C13.9356 37.0555 11.3467 40.1587 11.3467 44.0196Z" fill="url(#paint1_linear_1213_3050)"/>
<path d="M16.1564 47.5794V135.365C16.1564 139.803 19.1662 143.419 22.915 143.485L174.265 145.698C177.982 145.764 181.029 142.225 181.043 137.825L181.296 50.824C181.306 47.678 179.188 45.1003 176.531 45.0237L21.5765 41.3183C18.6045 41.2327 16.1564 44.0608 16.1564 47.5794Z" fill="#91B3FA"/>
<path opacity="0.65" d="M186.919 155.652C186.918 155.652 186.916 155.652 186.915 155.652L11.3423 151.978C11.2033 151.975 11.0925 151.839 11.0949 151.675C11.0973 151.511 11.2076 151.365 11.3511 151.382L186.924 155.056C187.063 155.059 187.174 155.195 187.171 155.36C187.169 155.522 187.056 155.652 186.919 155.652Z" fill="white"/>
<path d="M198.896 161.866C198.896 164.747 196.923 167.082 194.49 167.082H4.40594C1.97266 167.082 0 164.747 0 161.866C0 158.985 1.97255 156.649 4.40594 156.649H194.49C196.923 156.65 198.896 158.985 198.896 161.866Z" fill="url(#paint2_linear_1213_3050)"/>
<path d="M72.4031 51.2427C71.7272 50.4369 70.8077 49.9365 69.8484 49.9365H23.6163C21.6279 49.9365 20.1416 51.939 20.1416 54.2931V61.7359C20.1416 62.8771 20.4654 63.9709 21.1521 64.7719C21.8387 65.5729 22.7366 66.0145 23.7006 65.998L69.8776 65.1953C71.8353 65.1612 73.4033 63.2813 73.4171 60.9633L73.4526 54.2996C73.4593 53.164 73.079 52.0486 72.4031 51.2427Z" fill="#BDD0FB"/>
<path d="M72.5228 73.1681C71.9012 72.4491 71.0503 72.0571 70.1813 72.0811L24.7215 73.335C23.8453 73.359 23.0125 73.8041 22.419 74.5675C21.8255 75.331 21.5184 76.3473 21.5705 77.3832L24.4741 135.046C24.5769 137.086 26.0164 138.669 27.7423 138.64L70.3135 137.919C72.078 137.888 73.5161 136.187 73.5161 134.097V75.9018C73.5161 74.8727 73.1446 73.8872 72.5228 73.1681Z" fill="#BDD0FB"/>
<path d="M177.201 54.0555C175.961 51.6277 164.297 52.4937 161.043 52.1585C156.526 51.6933 155.004 53.1445 155.111 57.9085C155.111 57.9202 156.677 127.371 156.677 127.379C156.803 132.817 162.346 131.613 165.76 131.188C169.518 130.72 175.772 132.286 175.93 126.435C175.931 126.424 177.79 57.8962 177.798 57.5814C177.833 56.3101 177.699 55.0312 177.201 54.0555Z" fill="#BDD0FB"/>
<path d="M92.4668 130.643C91.9847 130.643 91.5867 130.19 91.5717 129.615C91.554 128.942 91.246 113.108 100.475 111.417C102.437 111.057 104.186 111.61 105.671 113.058C110.226 117.503 110.654 129.051 110.67 129.541C110.689 130.126 110.304 130.619 109.81 130.642C109.313 130.667 108.899 130.209 108.879 129.623C108.876 129.513 108.466 118.533 104.529 114.694C103.441 113.634 102.205 113.248 100.749 113.514C93.0694 114.921 93.3593 129.403 93.3631 129.549C93.3785 130.135 92.9899 130.624 92.4951 130.643C92.4859 130.643 92.4763 130.643 92.4668 130.643Z" fill="url(#paint3_linear_1213_3050)"/>
<path d="M76.3896 170.321L82.9481 126.026L107.586 125.544L115.527 173.247H78.523C77.2067 173.247 76.1975 171.863 76.3896 170.321Z" fill="url(#paint4_linear_1213_3050)"/>
<path d="M112.371 126.026L107.586 125.544L115.527 173.247H120.278C121.241 173.247 121.96 172.199 121.764 171.083L112.371 126.026Z" fill="url(#paint5_linear_1213_3050)"/>
<path d="M87.1726 130.522C86.6905 130.522 86.2925 130.068 86.2775 129.494C86.2598 128.821 85.9518 112.987 95.1809 111.296C97.1434 110.936 98.8916 111.489 100.376 112.937C104.932 117.382 105.36 128.93 105.376 129.42C105.395 130.005 105.01 130.498 104.516 130.521C104.022 130.551 103.605 130.088 103.585 129.502C103.581 129.392 103.172 118.412 99.2351 114.574C98.1472 113.513 96.9113 113.127 95.4551 113.393C87.7751 114.8 88.0651 129.282 88.0689 129.428C88.0843 130.014 87.6957 130.503 87.2009 130.522C87.1916 130.522 87.1821 130.522 87.1726 130.522Z" fill="url(#paint6_linear_1213_3050)"/>
<path d="M151.603 27.237V48.2358C151.603 49.947 150.722 51.3341 149.635 51.3341H85.021C84.1184 51.3341 83.3315 52.3018 83.1127 53.681L81.9522 60.9921C81.7984 61.9615 80.9432 62.0419 80.7173 61.108L79.2232 54.9309C78.9326 53.7294 78.2012 52.9354 77.3849 52.9354H74.6077C73.5213 52.9354 72.6405 51.5482 72.6405 49.837V28.2514C72.6405 26.5506 73.511 25.1677 74.5908 25.1532L149.619 24.1388C150.712 24.124 151.603 25.5154 151.603 27.237Z" fill="white"/>
<path d="M82.6401 47.4991C87.0172 47.4991 90.5654 43.1876 90.5654 37.8692C90.5654 32.5507 87.0172 28.2393 82.6401 28.2393C78.2631 28.2393 74.7148 32.5507 74.7148 37.8692C74.7148 43.1876 78.2631 47.4991 82.6401 47.4991Z" fill="url(#paint7_linear_1213_3050)"/>
<path d="M85.5112 33.9648C85.5112 35.6947 84.3268 37.5622 82.8657 37.5622C81.4045 37.5622 80.22 35.6947 80.22 33.9648C80.22 32.235 81.4044 31.0078 82.8657 31.0078C84.3267 31.0077 85.5112 32.235 85.5112 33.9648Z" fill="#BDD0FB"/>
<path d="M79.5822 44.2228H86.0406C86.7204 44.2228 87.3223 43.7026 87.5294 42.9361L87.8769 41.6501C88.1315 40.7086 87.7177 39.689 86.9335 39.3496C84.3052 38.2119 81.5874 38.3578 78.8034 39.4546C78.0235 39.762 77.5907 40.7496 77.8059 41.6888L78.0735 42.8567C78.2583 43.663 78.8765 44.2228 79.5822 44.2228Z" fill="#BDD0FB"/>
<path d="M143.382 40.3816C143.382 41.3869 142.694 42.2018 141.845 42.2018H96.6019C95.7528 42.2018 95.0646 41.3869 95.0646 40.3816C95.0646 39.3764 95.7528 38.5615 96.6019 38.5615H141.844C142.694 38.5615 143.382 39.3764 143.382 40.3816Z" fill="#7D97F4"/>
<path d="M122.359 46.3858C122.359 47.3592 121.692 48.1484 120.87 48.1484H96.6567C95.8345 48.1484 95.168 47.3592 95.168 46.3858V46.3339C95.168 45.3605 95.8345 44.5713 96.6567 44.5713H120.87C121.692 44.5713 122.359 45.3603 122.359 46.3339V46.3858Z" fill="#7D97F4"/>
<path d="M143.759 46.3929C143.759 47.3623 143.095 48.1482 142.277 48.1482H124.597C123.778 48.1482 123.114 47.3623 123.114 46.3929V46.3265C123.114 45.357 123.778 44.5713 124.597 44.5713H142.277C143.095 44.5713 143.759 45.3572 143.759 46.3265V46.3929Z" fill="#7D97F4"/>
<path d="M101.452 31.2075C101.533 31.1137 101.563 30.9735 101.528 30.8458C101.492 30.7182 101.399 30.625 101.287 30.6057L98.9234 30.1991L97.8664 27.6635C97.8162 27.5431 97.7126 27.4668 97.5992 27.4668C97.4857 27.4668 97.3821 27.5431 97.3319 27.6635L96.3443 30.0327C96.3009 30.1369 96.217 30.2091 96.1199 30.2259L93.9115 30.6058C93.7993 30.6251 93.706 30.7183 93.6709 30.846C93.6359 30.9738 93.6652 31.1139 93.7463 31.2076L95.3444 33.0519C95.4147 33.1328 95.4467 33.2498 95.43 33.3642L95.0528 35.9682C95.0336 36.1005 95.0795 36.2343 95.1713 36.3133C95.2631 36.3923 95.3848 36.4025 95.4852 36.3402L97.4604 35.1108C97.5472 35.0568 97.651 35.0568 97.7378 35.1108L99.713 36.3402C99.8135 36.4027 99.9351 36.3923 100.027 36.3133C100.119 36.2343 100.165 36.1005 100.145 35.9682L99.7682 33.3642C99.7516 33.2498 99.7837 33.1328 99.8539 33.0519L101.452 31.2075Z" fill="url(#paint8_linear_1213_3050)"/>
<path d="M112.026 31.2075C112.107 31.1137 112.136 30.9735 112.101 30.8458C112.066 30.7182 111.973 30.625 111.861 30.6057L109.497 30.1991L108.44 27.6635C108.39 27.5431 108.286 27.4668 108.173 27.4668C108.059 27.4668 107.956 27.5431 107.906 27.6635L106.918 30.0327C106.875 30.1369 106.791 30.2091 106.694 30.2259L104.485 30.6058C104.373 30.6251 104.28 30.7183 104.245 30.846C104.21 30.9738 104.239 31.1139 104.32 31.2076L105.918 33.0519C105.988 33.1328 106.02 33.2498 106.004 33.3642L105.627 35.9682C105.607 36.1005 105.653 36.2343 105.745 36.3133C105.837 36.3923 105.959 36.4025 106.059 36.3402L108.034 35.1108C108.121 35.0568 108.225 35.0568 108.312 35.1108L110.287 36.3402C110.387 36.4027 110.509 36.3923 110.601 36.3133C110.692 36.2343 110.738 36.1005 110.719 35.9682L110.342 33.3642C110.325 33.2498 110.357 33.1328 110.428 33.0519L112.026 31.2075Z" fill="url(#paint9_linear_1213_3050)"/>
<path d="M122.6 31.2075C122.681 31.1137 122.71 30.9735 122.675 30.8458C122.64 30.7182 122.547 30.625 122.434 30.6057L120.071 30.1991L119.014 27.6635C118.964 27.5431 118.86 27.4668 118.747 27.4668C118.633 27.4668 118.53 27.5431 118.479 27.6635L117.492 30.0327C117.448 30.1369 117.364 30.2091 117.267 30.2259L115.059 30.6058C114.947 30.6251 114.853 30.7183 114.818 30.846C114.783 30.9738 114.813 31.1139 114.894 31.2076L116.492 33.0519C116.562 33.1328 116.594 33.2498 116.578 33.3642L116.2 35.9682C116.181 36.1005 116.227 36.2343 116.319 36.3133C116.411 36.3923 116.532 36.4025 116.633 36.3402L118.608 35.1108C118.695 35.0568 118.799 35.0568 118.886 35.1108L120.861 36.3402C120.961 36.4027 121.083 36.3923 121.175 36.3133C121.266 36.2343 121.312 36.1005 121.293 35.9682L120.916 33.3642C120.899 33.2498 120.931 33.1328 121.002 33.0519L122.6 31.2075Z" fill="url(#paint10_linear_1213_3050)"/>
<path d="M133.173 31.2075C133.255 31.1137 133.284 30.9735 133.249 30.8458C133.214 30.7182 133.12 30.625 133.008 30.6057L130.645 30.1991L129.588 27.6635C129.538 27.5431 129.434 27.4668 129.321 27.4668C129.207 27.4668 129.103 27.5431 129.053 27.6635L128.066 30.0327C128.022 30.1369 127.938 30.2091 127.841 30.2259L125.633 30.6058C125.521 30.6251 125.427 30.7183 125.392 30.846C125.357 30.9738 125.387 31.1139 125.468 31.2076L127.066 33.0519C127.136 33.1328 127.168 33.2498 127.151 33.3642L126.774 35.9682C126.755 36.1005 126.801 36.2343 126.893 36.3133C126.985 36.3923 127.106 36.4025 127.207 36.3402L129.182 35.1108C129.269 35.0568 129.372 35.0568 129.459 35.1108L131.434 36.3402C131.535 36.4027 131.657 36.3923 131.748 36.3133C131.84 36.2343 131.886 36.1005 131.867 35.9682L131.49 33.3642C131.473 33.2498 131.505 33.1328 131.575 33.0519L133.173 31.2075Z" fill="url(#paint11_linear_1213_3050)"/>
<path d="M143.747 31.2075C143.829 31.1137 143.858 30.9735 143.823 30.8458C143.788 30.7182 143.694 30.625 143.582 30.6057L141.219 30.1991L140.162 27.6635C140.111 27.5431 140.008 27.4668 139.894 27.4668C139.781 27.4668 139.677 27.5431 139.627 27.6635L138.64 30.0327C138.596 30.1369 138.512 30.2091 138.415 30.2259L136.207 30.6058C136.094 30.6251 136.001 30.7183 135.966 30.846C135.931 30.9738 135.96 31.1139 136.042 31.2076L137.64 33.0519C137.71 33.1328 137.742 33.2498 137.725 33.3642L137.348 35.9682C137.329 36.1005 137.375 36.2343 137.467 36.3133C137.558 36.3923 137.68 36.4025 137.78 36.3402L139.756 35.1108C139.843 35.0568 139.946 35.0568 140.033 35.1108L142.008 36.3402C142.109 36.4027 142.23 36.3923 142.322 36.3133C142.414 36.2343 142.46 36.1005 142.441 35.9682L142.064 33.3642C142.047 33.2498 142.079 33.1328 142.149 33.0519L143.747 31.2075Z" fill="url(#paint12_linear_1213_3050)"/>
<path d="M151.603 68.6873V89.6862C151.603 91.3973 150.722 92.7846 149.635 92.7846H85.0209C84.1183 92.7846 83.3314 93.7523 83.1125 95.1315L81.9521 102.443C81.7982 103.412 80.9431 103.492 80.7171 102.558L79.2231 96.3814C78.9325 95.1798 78.2011 94.386 77.3848 94.386H74.6076C73.5212 94.386 72.6404 92.9988 72.6404 91.2876V69.7017C72.6404 68.0009 73.5109 66.6179 74.5906 66.6034L149.618 65.589C150.711 65.5742 151.603 66.9657 151.603 68.6873Z" fill="white"/>
<path d="M74.7148 79.3195C74.7148 84.638 78.2632 88.9494 82.6401 88.9494C87.0171 88.9494 90.5654 84.638 90.5654 79.3195C90.5654 74.0009 87.0171 69.6895 82.6401 69.6895C78.2632 69.6895 74.7148 74.0009 74.7148 79.3195Z" fill="url(#paint13_linear_1213_3050)"/>
<path d="M85.5112 75.416C85.5112 77.1459 84.3268 79.0134 82.8657 79.0134C81.4045 79.0134 80.22 77.1459 80.22 75.416C80.22 73.6862 81.4044 72.459 82.8657 72.459C84.3267 72.4588 85.5112 73.6861 85.5112 75.416Z" fill="#BDD0FB"/>
<path d="M79.5822 85.6742H86.0406C86.7204 85.6742 87.3223 85.154 87.5294 84.3874L87.8769 83.1013C88.1315 82.1598 87.7177 81.1402 86.9335 80.8007C84.3052 79.663 81.5874 79.809 78.8034 80.9057C78.0235 81.2131 77.5907 82.2007 77.8059 83.1399L78.0735 84.3078C78.2583 85.1144 78.8765 85.6742 79.5822 85.6742Z" fill="#BDD0FB"/>
<path d="M95.174 81.8328C95.174 82.8381 95.8622 83.6529 96.7113 83.6529H141.954C142.803 83.6529 143.491 82.8381 143.491 81.8328C143.491 80.8276 142.803 80.0127 141.954 80.0127H96.7113C95.8622 80.0127 95.174 80.8276 95.174 81.8328Z" fill="#7D97F4"/>
<path d="M143.759 88.0652C143.759 87.0918 143.093 86.3027 142.271 86.3027H118.057C117.235 86.3027 116.568 87.0918 116.568 88.0652V88.1171C116.568 89.0905 117.235 89.8797 118.057 89.8797H142.271C143.093 89.8797 143.759 89.0907 143.759 88.1171V88.0652Z" fill="#7D97F4"/>
<path d="M115.813 88.0579C115.813 87.0885 115.149 86.3027 114.33 86.3027H96.6506C95.8318 86.3027 95.1681 87.0886 95.1681 88.0579V88.1244C95.1681 89.0938 95.8319 89.8797 96.6506 89.8797H114.33C115.149 89.8797 115.813 89.0938 115.813 88.1244V88.0579Z" fill="#7D97F4"/>
<path d="M101.452 72.6585C101.533 72.5647 101.563 72.4245 101.528 72.2969C101.492 72.1692 101.399 72.076 101.287 72.0569L98.9234 71.6503L97.8664 69.1146C97.8162 68.9942 97.7126 68.918 97.5992 68.918C97.4857 68.918 97.3821 68.9942 97.3319 69.1146L96.3443 71.4839C96.3009 71.5881 96.217 71.6602 96.1199 71.677L93.9115 72.057C93.7993 72.0763 93.706 72.1694 93.6709 72.297C93.6359 72.4248 93.6652 72.565 93.7463 72.6587L95.3444 74.503C95.4147 74.584 95.4467 74.7009 95.43 74.8153L95.0528 77.4193C95.0336 77.5516 95.0795 77.6855 95.1713 77.7644C95.2631 77.8434 95.3848 77.8538 95.4852 77.7914L97.4604 76.562C97.5472 76.508 97.651 76.508 97.7378 76.562L99.713 77.7914C99.8135 77.8538 99.9351 77.8434 100.027 77.7644C100.119 77.6855 100.165 77.5516 100.145 77.4193L99.7682 74.8153C99.7516 74.7009 99.7837 74.584 99.8539 74.503L101.452 72.6585Z" fill="url(#paint14_linear_1213_3050)"/>
<path d="M112.026 72.6585C112.107 72.5647 112.136 72.4245 112.101 72.2969C112.066 72.1692 111.973 72.076 111.861 72.0569L109.497 71.6503L108.44 69.1146C108.39 68.9942 108.286 68.918 108.173 68.918C108.059 68.918 107.956 68.9942 107.906 69.1146L106.918 71.4839C106.875 71.5881 106.791 71.6602 106.694 71.677L104.485 72.057C104.373 72.0763 104.28 72.1694 104.245 72.297C104.21 72.4248 104.239 72.565 104.32 72.6587L105.918 74.503C105.988 74.584 106.02 74.7009 106.004 74.8153L105.627 77.4193C105.607 77.5516 105.653 77.6855 105.745 77.7644C105.837 77.8434 105.959 77.8538 106.059 77.7914L108.034 76.562C108.121 76.508 108.225 76.508 108.312 76.562L110.287 77.7914C110.387 77.8538 110.509 77.8434 110.601 77.7644C110.692 77.6855 110.738 77.5516 110.719 77.4193L110.342 74.8153C110.325 74.7009 110.357 74.584 110.428 74.503L112.026 72.6585Z" fill="url(#paint15_linear_1213_3050)"/>
<path d="M122.6 72.6585C122.681 72.5647 122.71 72.4245 122.675 72.2969C122.64 72.1692 122.547 72.076 122.434 72.0569L120.071 71.6503L119.014 69.1146C118.964 68.9942 118.86 68.918 118.747 68.918C118.633 68.918 118.53 68.9942 118.479 69.1146L117.492 71.4839C117.448 71.5881 117.364 71.6602 117.267 71.677L115.059 72.057C114.947 72.0763 114.853 72.1694 114.818 72.297C114.783 72.4248 114.813 72.565 114.894 72.6587L116.492 74.503C116.562 74.584 116.594 74.7009 116.578 74.8153L116.2 77.4193C116.181 77.5516 116.227 77.6855 116.319 77.7644C116.411 77.8434 116.532 77.8538 116.633 77.7914L118.608 76.562C118.695 76.508 118.799 76.508 118.886 76.562L120.861 77.7914C120.961 77.8538 121.083 77.8434 121.175 77.7644C121.266 77.6855 121.312 77.5516 121.293 77.4193L120.916 74.8153C120.899 74.7009 120.931 74.584 121.002 74.503L122.6 72.6585Z" fill="url(#paint16_linear_1213_3050)"/>
<path d="M133.173 72.6585C133.255 72.5647 133.284 72.4245 133.249 72.2969C133.214 72.1692 133.12 72.076 133.008 72.0569L130.645 71.6503L129.588 69.1146C129.538 68.9942 129.434 68.918 129.321 68.918C129.207 68.918 129.103 68.9942 129.053 69.1146L128.066 71.4839C128.022 71.5881 127.938 71.6602 127.841 71.677L125.633 72.057C125.521 72.0763 125.427 72.1694 125.392 72.297C125.357 72.4248 125.387 72.565 125.468 72.6587L127.066 74.503C127.136 74.584 127.168 74.7009 127.151 74.8153L126.774 77.4193C126.755 77.5516 126.801 77.6855 126.893 77.7644C126.985 77.8434 127.106 77.8538 127.207 77.7914L129.182 76.562C129.269 76.508 129.372 76.508 129.459 76.562L131.434 77.7914C131.535 77.8538 131.657 77.8434 131.748 77.7644C131.84 77.6855 131.886 77.5516 131.867 77.4193L131.49 74.8153C131.473 74.7009 131.505 74.584 131.575 74.503L133.173 72.6585Z" fill="url(#paint17_linear_1213_3050)"/>
<path d="M143.747 72.6585C143.829 72.5647 143.858 72.4245 143.823 72.2969C143.788 72.1692 143.694 72.076 143.582 72.0569L141.219 71.6503L140.162 69.1146C140.111 68.9942 140.008 68.918 139.894 68.918C139.781 68.918 139.677 68.9942 139.627 69.1146L138.64 71.4839C138.596 71.5881 138.512 71.6602 138.415 71.677L136.207 72.057C136.094 72.0763 136.001 72.1694 135.966 72.297C135.931 72.4248 135.96 72.565 136.042 72.6587L137.64 74.503C137.71 74.584 137.742 74.7009 137.725 74.8153L137.348 77.4193C137.329 77.5516 137.375 77.6855 137.467 77.7644C137.558 77.8434 137.68 77.8538 137.78 77.7914L139.756 76.562C139.843 76.508 139.946 76.508 140.033 76.562L142.008 77.7914C142.109 77.8538 142.23 77.8434 142.322 77.7644C142.414 77.6855 142.46 77.5516 142.441 77.4193L142.064 74.8153C142.047 74.7009 142.079 74.584 142.149 74.503L143.747 72.6585Z" fill="url(#paint18_linear_1213_3050)"/>
<path d="M151.603 110.026V131.025C151.603 132.736 150.722 134.123 149.635 134.123H85.021C84.1184 134.123 83.3315 135.091 83.1127 136.47L81.9522 143.781C81.7984 144.751 80.9432 144.831 80.7173 143.897L79.2232 137.72C78.9326 136.519 78.2012 135.725 77.3849 135.725H74.6077C73.5213 135.725 72.6405 134.338 72.6405 132.626V111.04C72.6405 109.34 73.511 107.957 74.5908 107.942L149.619 106.928C150.712 106.913 151.603 108.305 151.603 110.026Z" fill="white"/>
<path d="M82.6401 130.288C87.0172 130.288 90.5654 125.977 90.5654 120.658C90.5654 115.34 87.0172 111.028 82.6401 111.028C78.2631 111.028 74.7148 115.34 74.7148 120.658C74.7148 125.977 78.2631 130.288 82.6401 130.288Z" fill="url(#paint19_linear_1213_3050)"/>
<path d="M85.5112 116.755C85.5112 118.485 84.3268 120.352 82.8657 120.352C81.4045 120.352 80.22 118.485 80.22 116.755C80.22 115.025 81.4044 113.798 82.8657 113.798C84.3267 113.798 85.5112 115.025 85.5112 116.755Z" fill="#BDD0FB"/>
<path d="M79.5822 127.013H86.0406C86.7204 127.013 87.3223 126.493 87.5294 125.726L87.8769 124.44C88.1315 123.499 87.7177 122.479 86.9335 122.14C84.3052 121.002 81.5874 121.148 78.8034 122.245C78.0235 122.552 77.5907 123.54 77.8059 124.479L78.0735 125.647C78.2583 126.453 78.8765 127.013 79.5822 127.013Z" fill="#BDD0FB"/>
<path d="M143.382 123.171C143.382 124.176 142.694 124.991 141.844 124.991H96.6018C95.7527 124.991 95.0645 124.176 95.0645 123.171C95.0645 122.165 95.7527 121.351 96.6018 121.351H141.844C142.693 121.351 143.382 122.165 143.382 123.171Z" fill="#7D97F4"/>
<path d="M122.359 129.251C122.359 130.224 121.692 131.013 120.87 131.013H96.6567C95.8345 131.013 95.168 130.224 95.168 129.251V129.199C95.168 128.226 95.8345 127.437 96.6567 127.437H120.87C121.692 127.437 122.359 128.226 122.359 129.199V129.251Z" fill="#7D97F4"/>
<path d="M143.759 129.258C143.759 130.228 143.095 131.013 142.277 131.013H124.597C123.778 131.013 123.114 130.227 123.114 129.258V129.192C123.114 128.222 123.778 127.437 124.597 127.437H142.277C143.095 127.437 143.759 128.222 143.759 129.192V129.258Z" fill="#7D97F4"/>
<path d="M101.452 113.996C101.533 113.903 101.563 113.762 101.528 113.635C101.492 113.507 101.399 113.414 101.287 113.395L98.9234 112.988L97.8664 110.452C97.8162 110.332 97.7126 110.256 97.5992 110.256C97.4857 110.256 97.3821 110.332 97.3319 110.452L96.3443 112.822C96.3009 112.926 96.217 112.998 96.1199 113.015L93.9115 113.395C93.7993 113.414 93.706 113.507 93.6709 113.635C93.6359 113.763 93.6652 113.903 93.7463 113.997L95.3444 115.841C95.4147 115.922 95.4467 116.039 95.43 116.153L95.0528 118.757C95.0336 118.889 95.0795 119.023 95.1713 119.102C95.2631 119.181 95.3848 119.191 95.4852 119.129L97.4604 117.9C97.5472 117.846 97.651 117.846 97.7378 117.9L99.713 119.129C99.8135 119.191 99.9351 119.181 100.027 119.102C100.119 119.023 100.165 118.889 100.145 118.757L99.7682 116.153C99.7516 116.039 99.7837 115.922 99.8539 115.841L101.452 113.996Z" fill="url(#paint20_linear_1213_3050)"/>
<path d="M112.026 113.996C112.107 113.903 112.136 113.762 112.101 113.635C112.066 113.507 111.973 113.414 111.861 113.395L109.497 112.988L108.44 110.452C108.39 110.332 108.286 110.256 108.173 110.256C108.059 110.256 107.956 110.332 107.906 110.452L106.918 112.822C106.875 112.926 106.791 112.998 106.694 113.015L104.485 113.395C104.373 113.414 104.28 113.507 104.245 113.635C104.21 113.763 104.239 113.903 104.32 113.997L105.918 115.841C105.988 115.922 106.02 116.039 106.004 116.153L105.627 118.757C105.607 118.889 105.653 119.023 105.745 119.102C105.837 119.181 105.959 119.191 106.059 119.129L108.034 117.9C108.121 117.846 108.225 117.846 108.312 117.9L110.287 119.129C110.387 119.191 110.509 119.181 110.601 119.102C110.692 119.023 110.738 118.889 110.719 118.757L110.342 116.153C110.325 116.039 110.357 115.922 110.428 115.841L112.026 113.996Z" fill="url(#paint21_linear_1213_3050)"/>
<path d="M122.6 113.996C122.681 113.903 122.71 113.762 122.675 113.635C122.64 113.507 122.547 113.414 122.434 113.395L120.071 112.988L119.014 110.452C118.964 110.332 118.86 110.256 118.747 110.256C118.633 110.256 118.53 110.332 118.479 110.452L117.492 112.822C117.448 112.926 117.364 112.998 117.267 113.015L115.059 113.395C114.947 113.414 114.853 113.507 114.818 113.635C114.783 113.763 114.813 113.903 114.894 113.997L116.492 115.841C116.562 115.922 116.594 116.039 116.578 116.153L116.2 118.757C116.181 118.889 116.227 119.023 116.319 119.102C116.411 119.181 116.532 119.191 116.633 119.129L118.608 117.9C118.695 117.846 118.799 117.846 118.886 117.9L120.861 119.129C120.961 119.191 121.083 119.181 121.175 119.102C121.266 119.023 121.312 118.889 121.293 118.757L120.916 116.153C120.899 116.039 120.931 115.922 121.002 115.841L122.6 113.996Z" fill="url(#paint22_linear_1213_3050)"/>
<path d="M133.173 113.996C133.255 113.903 133.284 113.762 133.249 113.635C133.214 113.507 133.12 113.414 133.008 113.395L130.645 112.988L129.588 110.452C129.538 110.332 129.434 110.256 129.321 110.256C129.207 110.256 129.103 110.332 129.053 110.452L128.066 112.822C128.022 112.926 127.938 112.998 127.841 113.015L125.633 113.395C125.521 113.414 125.427 113.507 125.392 113.635C125.357 113.763 125.387 113.903 125.468 113.997L127.066 115.841C127.136 115.922 127.168 116.039 127.151 116.153L126.774 118.757C126.755 118.889 126.801 119.023 126.893 119.102C126.985 119.181 127.106 119.191 127.207 119.129L129.182 117.9C129.269 117.846 129.372 117.846 129.459 117.9L131.434 119.129C131.535 119.191 131.657 119.181 131.748 119.102C131.84 119.023 131.886 118.889 131.867 118.757L131.49 116.153C131.473 116.039 131.505 115.922 131.575 115.841L133.173 113.996Z" fill="url(#paint23_linear_1213_3050)"/>
<path d="M143.747 113.996C143.829 113.903 143.858 113.762 143.823 113.635C143.788 113.507 143.694 113.414 143.582 113.395L141.219 112.988L140.162 110.452C140.111 110.332 140.008 110.256 139.894 110.256C139.781 110.256 139.677 110.332 139.627 110.452L138.64 112.822C138.596 112.926 138.512 112.998 138.415 113.015L136.207 113.395C136.094 113.414 136.001 113.507 135.966 113.635C135.931 113.763 135.96 113.903 136.042 113.997L137.64 115.841C137.71 115.922 137.742 116.039 137.725 116.153L137.348 118.757C137.329 118.889 137.375 119.023 137.467 119.102C137.558 119.181 137.68 119.191 137.78 119.129L139.756 117.9C139.843 117.846 139.946 117.846 140.033 117.9L142.008 119.129C142.109 119.191 142.23 119.181 142.322 119.102C142.414 119.023 142.46 118.889 142.441 118.757L142.064 116.153C142.047 116.039 142.079 115.922 142.149 115.841L143.747 113.996Z" fill="url(#paint24_linear_1213_3050)"/>
<path d="M172.349 105.395C172.076 105.395 171.835 105.162 171.788 104.832C171.748 104.543 171.704 104.256 171.657 103.969C171.598 103.604 171.799 103.25 172.108 103.18C172.417 103.109 172.715 103.348 172.775 103.713C172.824 104.011 172.869 104.31 172.911 104.611C172.963 104.978 172.754 105.325 172.443 105.386C172.412 105.392 172.38 105.395 172.349 105.395ZM171.83 102.478C171.576 102.478 171.345 102.275 171.279 101.971C171.218 101.686 171.153 101.403 171.086 101.122C171 100.764 171.176 100.391 171.479 100.29C171.781 100.188 172.096 100.397 172.181 100.755C172.251 101.048 172.318 101.341 172.382 101.636C172.46 101.997 172.276 102.364 171.971 102.457C171.924 102.471 171.877 102.478 171.83 102.478ZM171.104 99.6219C170.868 99.6219 170.648 99.4474 170.566 99.169C170.485 98.8923 170.401 98.6171 170.314 98.3432C170.203 97.9946 170.353 97.6059 170.647 97.4751C170.942 97.3441 171.269 97.5209 171.38 97.8693C171.47 98.1537 171.557 98.4394 171.642 98.7265C171.745 99.0782 171.588 99.4623 171.291 99.5846C171.229 99.6097 171.166 99.6219 171.104 99.6219ZM170.181 96.8489C169.963 96.8489 169.754 96.699 169.66 96.4471C169.56 96.1792 169.458 95.9129 169.353 95.648C169.219 95.3111 169.341 94.9097 169.626 94.7513C169.91 94.5929 170.249 94.7375 170.383 95.0746C170.492 95.349 170.599 95.625 170.702 95.9024C170.829 96.243 170.699 96.6409 170.411 96.7912C170.336 96.8304 170.258 96.8489 170.181 96.8489ZM169.076 94.1732C168.873 94.1732 168.677 94.0447 168.574 93.8184C168.457 93.5609 168.337 93.305 168.215 93.0504C168.06 92.7267 168.156 92.3152 168.429 92.1312C168.702 91.9476 169.05 92.0604 169.205 92.3841C169.332 92.6477 169.456 92.9129 169.577 93.1797C169.726 93.5074 169.622 93.9161 169.345 94.0925C169.259 94.1474 169.167 94.1732 169.076 94.1732ZM167.801 91.6061C167.614 91.6061 167.43 91.4961 167.321 91.2948C167.188 91.0482 167.053 90.8034 166.915 90.5602C166.74 90.2509 166.81 89.8321 167.071 89.625C167.333 89.4174 167.686 89.5004 167.861 89.8097C168.003 90.0612 168.143 90.3143 168.281 90.5692C168.45 90.8829 168.372 91.2997 168.107 91.5001C168.013 91.5718 167.906 91.6061 167.801 91.6061ZM166.373 89.1562C166.199 89.1562 166.027 89.0625 165.915 88.8847C165.768 88.6498 165.618 88.4167 165.466 88.1852C165.273 87.8912 165.318 87.4676 165.566 87.2392C165.814 87.0108 166.172 87.0641 166.365 87.3581C166.522 87.5969 166.676 87.8374 166.829 88.0798C167.016 88.3784 166.964 88.8006 166.712 89.0228C166.61 89.1129 166.491 89.1562 166.373 89.1562ZM47.0357 87.7224C46.7216 87.7224 46.4669 87.4213 46.4663 87.0494C46.4659 86.6771 46.7204 86.3749 47.0347 86.3743C47.2838 86.3739 47.533 86.3713 47.7823 86.3668C47.7852 86.3668 47.7882 86.3668 47.7911 86.3668C48.1015 86.3668 48.3555 86.6619 48.3602 87.0306C48.365 87.4028 48.1139 87.7092 47.7995 87.7148C47.5451 87.7194 47.2907 87.7219 47.0365 87.7224C47.0365 87.7224 47.036 87.7224 47.0357 87.7224ZM45.2736 87.6924C45.2676 87.6924 45.2616 87.6923 45.2554 87.6922C45.0005 87.6827 44.7461 87.6711 44.4919 87.6573C44.1778 87.6404 43.9348 87.3253 43.949 86.9534C43.9633 86.5814 44.2342 86.2914 44.5435 86.3106C44.7923 86.324 45.0414 86.3354 45.2909 86.3445C45.6052 86.3561 45.852 86.6672 45.8422 87.0393C45.8327 87.4043 45.5797 87.6924 45.2736 87.6924ZM49.5522 87.6518C49.2494 87.6518 48.9975 87.3696 48.9839 87.0081C48.9698 86.6362 49.2129 86.3212 49.527 86.3045C49.7761 86.2911 50.0254 86.2761 50.2746 86.2592C50.584 86.2364 50.8575 86.5221 50.8755 86.8937C50.8934 87.2654 50.6535 87.5839 50.3396 87.6052C50.0859 87.6224 49.832 87.6376 49.5782 87.651C49.5694 87.6517 49.5607 87.6518 49.5522 87.6518ZM42.7591 87.5247C42.7434 87.5247 42.7275 87.524 42.7117 87.5224C42.457 87.4975 42.2031 87.4703 41.9493 87.4407C41.6365 87.4039 41.4079 87.0737 41.4391 86.7033C41.4699 86.3328 41.7478 86.062 42.0618 86.0991C42.3093 86.1282 42.5572 86.1548 42.8053 86.1792C43.1187 86.2098 43.3518 86.5353 43.3258 86.9063C43.3013 87.2583 43.0524 87.5247 42.7591 87.5247ZM52.0643 87.4594C51.7713 87.4594 51.5225 87.1936 51.4976 86.8416C51.4714 86.4707 51.7041 86.1449 52.0173 86.1137C52.2664 86.089 52.5151 86.0626 52.7635 86.0347C53.0786 85.9992 53.3544 86.2718 53.384 86.6422C53.4137 87.0129 53.1839 87.3417 52.8709 87.3768C52.6183 87.4053 52.3654 87.4321 52.1122 87.4572C52.0963 87.4587 52.0801 87.4594 52.0643 87.4594ZM40.2559 87.1962C40.2296 87.1962 40.2029 87.194 40.1761 87.1895C39.9227 87.1474 39.67 87.1027 39.418 87.0551C39.1075 86.9966 38.8958 86.6512 38.9454 86.2836C38.9947 85.9159 39.2894 85.6653 39.5971 85.724C39.8422 85.7701 40.0881 85.8137 40.3343 85.8546C40.6456 85.9062 40.8627 86.2469 40.819 86.6156C40.7792 86.9525 40.5353 87.1962 40.2559 87.1962ZM54.5688 87.1573C54.2847 87.1573 54.0389 86.9059 54.0043 86.5633C53.9668 86.1938 54.1896 85.8581 54.5019 85.814C54.7502 85.7787 54.9983 85.7421 55.246 85.7041C55.557 85.6568 55.8433 85.9167 55.8838 86.286C55.9241 86.6553 55.7042 86.9932 55.3924 87.0412C55.1409 87.0797 54.8894 87.1167 54.6375 87.1526C54.6143 87.1558 54.5914 87.1573 54.5688 87.1573ZM164.803 86.8303C164.643 86.8303 164.483 86.7502 164.37 86.5945C164.209 86.372 164.047 86.1511 163.882 85.9318C163.673 85.6538 163.694 85.2276 163.929 84.9802C164.163 84.7324 164.523 84.7575 164.732 85.0356C164.902 85.2614 165.07 85.4888 165.235 85.718C165.44 86.0009 165.412 86.4264 165.173 86.6684C165.066 86.7772 164.934 86.8303 164.803 86.8303ZM57.0634 86.7558C56.7868 86.7558 56.5441 86.5166 56.5012 86.1827C56.454 85.8148 56.6678 85.471 56.9786 85.4151C57.2262 85.3707 57.4731 85.3249 57.7196 85.2778C58.0292 85.2196 58.3223 85.4683 58.3724 85.8358C58.4225 86.2033 58.2114 86.5493 57.901 86.6087C57.6511 86.6564 57.4007 86.7029 57.1496 86.7481C57.1206 86.7532 57.0919 86.7558 57.0634 86.7558ZM37.7739 86.6898C37.7359 86.6898 37.6973 86.6853 37.6587 86.6758C37.4078 86.6149 37.1576 86.5508 36.9084 86.4839C36.6017 86.4017 36.4095 86.0406 36.4791 85.6774C36.5486 85.3145 36.8535 85.0859 37.1602 85.1693C37.402 85.2342 37.6446 85.2962 37.8879 85.3554C38.1959 85.4302 38.3942 85.7866 38.3309 86.1513C38.2756 86.4701 38.0385 86.6898 37.7739 86.6898ZM59.5465 86.2642C59.2769 86.2642 59.0373 86.0363 58.9871 85.711C58.9307 85.3449 59.1356 84.9938 59.4449 84.9268L60.1837 84.7641C60.4925 84.6954 60.7904 84.9353 60.8488 85.301C60.9074 85.6668 60.7043 86.0194 60.3954 86.0885L59.6495 86.2528C59.6149 86.2605 59.5804 86.2642 59.5465 86.2642ZM35.3262 85.989C35.2753 85.989 35.2237 85.981 35.1723 85.964C34.9256 85.8823 34.6799 85.7973 34.435 85.7091C34.134 85.601 33.9642 85.2246 34.0555 84.8684C34.1469 84.5123 34.4661 84.3112 34.7657 84.4193C35.0027 84.5045 35.2407 84.5865 35.4795 84.6657C35.7823 84.7662 35.9589 85.1382 35.8742 85.4966C35.8037 85.7943 35.575 85.989 35.3262 85.989ZM62.0178 85.6983C61.7528 85.6983 61.5156 85.4781 61.4605 85.1589C61.3978 84.7941 61.5967 84.4382 61.9048 84.3637C62.1503 84.3045 62.3956 84.2444 62.6406 84.1834C62.9486 84.1067 63.2502 84.3402 63.3149 84.7043C63.3795 85.0685 63.1826 85.4261 62.8749 85.5026C62.6274 85.5641 62.3799 85.6248 62.1322 85.6847C62.0939 85.6938 62.0555 85.6983 62.0178 85.6983ZM32.9287 85.078C32.864 85.078 32.798 85.0648 32.7336 85.0371C32.4928 84.9331 32.2529 84.8257 32.0145 84.7149C31.7218 84.5791 31.5775 84.1879 31.6922 83.8413C31.8071 83.4947 32.1378 83.3248 32.4301 83.4597C32.6602 83.5666 32.8914 83.6702 33.1239 83.7705C33.4193 83.898 33.5714 84.285 33.4637 84.6347C33.3794 84.9082 33.1611 85.078 32.9287 85.078ZM64.4795 85.0751C64.2186 85.0751 63.9834 84.8616 63.9243 84.5478C63.8559 84.1844 64.0491 83.8241 64.3561 83.743C64.6007 83.6784 64.8452 83.6129 65.0895 83.5468C65.3965 83.4633 65.7013 83.6904 65.7715 84.0533C65.8417 84.4163 65.6502 84.7778 65.3437 84.8608C65.0972 84.9276 64.8506 84.9936 64.6038 85.0588C64.5621 85.0698 64.5204 85.0751 64.4795 85.0751ZM163.107 84.6328C162.959 84.6328 162.811 84.5649 162.699 84.4292C162.526 84.2194 162.352 84.0113 162.176 83.8052C161.952 83.5438 161.949 83.1169 162.17 82.8521C162.391 82.5872 162.752 82.5843 162.975 82.8458C163.157 83.058 163.337 83.2722 163.515 83.4884C163.734 83.7549 163.729 84.1816 163.504 84.4415C163.393 84.5691 163.25 84.6328 163.107 84.6328ZM66.9316 84.4009C66.6746 84.4009 66.4414 84.1935 66.3786 83.8846C66.3048 83.5229 66.4929 83.1586 66.7987 83.0716C67.0426 83.002 67.2863 82.9317 67.53 82.8608C67.8357 82.7724 68.1437 82.9928 68.2188 83.3543C68.294 83.7158 68.1072 84.081 67.802 84.1699C67.5566 84.2414 67.3111 84.312 67.0655 84.3821C67.0207 84.3947 66.9759 84.4009 66.9316 84.4009ZM30.6013 83.9434C30.5214 83.9434 30.4403 83.9235 30.363 83.8812C30.1301 83.7538 29.8985 83.6229 29.6683 83.4883C29.3864 83.3233 29.2707 82.9192 29.4101 82.5854C29.5493 82.2514 29.8909 82.1147 30.1725 82.2797C30.3938 82.409 30.6163 82.535 30.8403 82.6573C31.1257 82.8134 31.2502 83.2138 31.1184 83.5517C31.0223 83.7984 30.8164 83.9434 30.6013 83.9434ZM69.375 83.6813C69.1211 83.6813 68.8897 83.4788 68.8239 83.1743C68.7458 82.8136 68.9295 82.4464 69.234 82.3541C69.4772 82.2803 69.7203 82.2061 69.9632 82.1312C70.2676 82.0373 70.5785 82.2535 70.6577 82.6137C70.7369 82.974 70.5543 83.342 70.2502 83.4359C70.0058 83.5111 69.7613 83.586 69.5166 83.6601C69.4693 83.6744 69.4217 83.6813 69.375 83.6813ZM71.81 82.9231C71.559 82.9231 71.3292 82.7251 71.2607 82.4244C71.1789 82.0651 71.3586 81.6951 71.6621 81.5983L72.3895 81.3647C72.6927 81.2674 73.0059 81.4786 73.0886 81.8376C73.1714 82.1968 72.9925 82.5674 72.6892 82.6654L71.9585 82.8999C71.909 82.9156 71.8592 82.9231 71.81 82.9231ZM28.366 82.5772C28.2697 82.5772 28.1724 82.5484 28.0831 82.4875C27.8608 82.3365 27.6401 82.1818 27.4208 82.0231C27.1525 81.829 27.068 81.4142 27.2318 81.0965C27.3956 80.7788 27.7462 80.6788 28.0145 80.8727C28.2249 81.025 28.4368 81.1735 28.6499 81.3186C28.9225 81.504 29.0168 81.9158 28.8601 82.2387C28.7549 82.4557 28.5632 82.5772 28.366 82.5772ZM161.296 82.5668C161.16 82.5668 161.023 82.5093 160.914 82.3924C160.73 82.1953 160.545 82.0003 160.358 81.807C160.121 81.5621 160.097 81.1364 160.304 80.8559C160.511 80.5756 160.87 80.5469 161.107 80.7918C161.299 80.9903 161.489 81.1909 161.678 81.3932C161.911 81.643 161.929 82.0694 161.718 82.3454C161.606 82.4922 161.451 82.5668 161.296 82.5668ZM74.2376 82.1325C73.9888 82.1325 73.7603 81.9378 73.6898 81.6403C73.6049 81.2819 73.7815 80.9099 74.0843 80.8094L74.8096 80.5672C75.1127 80.4658 75.427 80.6736 75.5127 81.0317C75.5984 81.3899 75.4228 81.7625 75.1204 81.864L74.3917 82.1074C74.3403 82.1243 74.2885 82.1325 74.2376 82.1325ZM76.659 81.3147C76.412 81.3147 76.1845 81.1228 76.1123 80.8279C76.025 80.4702 76.199 80.0965 76.501 79.9931L77.2249 79.7439C77.5266 79.6407 77.8429 79.8448 77.9309 80.202C78.0191 80.5593 77.8459 80.9337 77.5441 81.0381L76.8174 81.2882C76.7646 81.3061 76.7114 81.3147 76.659 81.3147ZM26.2457 80.9775C26.1323 80.9775 26.0179 80.9375 25.9183 80.8544C25.7087 80.6796 25.5009 80.501 25.2946 80.3184C25.0428 80.0953 24.9914 79.673 25.1796 79.3747C25.3682 79.0768 25.7247 79.016 25.9766 79.2386C26.1741 79.4136 26.3733 79.5847 26.574 79.7523C26.8311 79.9668 26.8926 80.3872 26.7116 80.6916C26.6007 80.8778 26.4245 80.9775 26.2457 80.9775ZM159.382 80.6352C159.257 80.6352 159.131 80.5867 159.026 80.487C158.832 80.3033 158.637 80.1214 158.441 79.9414C158.192 79.7137 158.147 79.2903 158.339 78.9959C158.531 78.7016 158.889 78.6476 159.138 78.8755C159.339 79.0601 159.539 79.2467 159.738 79.4354C159.983 79.6683 160.023 80.0926 159.826 80.3829C159.714 80.5489 159.548 80.6352 159.382 80.6352ZM79.0753 80.4762C78.8298 80.4762 78.6033 80.2867 78.5297 79.9939C78.4404 79.637 78.612 79.2619 78.9136 79.1558L79.6371 78.9013C79.9389 78.7947 80.2556 78.9979 80.3453 79.3547C80.4351 79.7115 80.2637 80.0868 79.9624 80.1932L79.2376 80.4483C79.1835 80.4672 79.1289 80.4762 79.0753 80.4762ZM81.4879 79.623C81.2433 79.623 81.0173 79.4349 80.9431 79.1432C80.8523 78.7868 81.0228 78.4108 81.3239 78.3035L82.0469 78.0454C82.3479 77.9377 82.6656 78.1393 82.7564 78.4959C82.8474 78.8522 82.677 79.2284 82.3759 79.3361L81.6524 79.5943C81.5977 79.6137 81.5424 79.623 81.4879 79.623ZM24.2627 79.144C24.1305 79.144 23.9977 79.0899 23.89 78.9793C23.6948 78.7787 23.5025 78.5752 23.3131 78.3683C23.0821 78.116 23.0676 77.6895 23.2809 77.4158C23.4943 77.1421 23.8543 77.1251 24.0854 77.3776C24.2661 77.5751 24.4495 77.7696 24.636 77.9608C24.8734 78.2048 24.8991 78.6305 24.6931 78.9117C24.5806 79.0653 24.4221 79.144 24.2627 79.144ZM157.374 78.8399C157.26 78.8399 157.145 78.7996 157.045 78.7154C156.842 78.5453 156.639 78.3769 156.434 78.2107C156.174 78.0002 156.108 77.5807 156.286 77.2736C156.464 76.9664 156.818 76.8881 157.077 77.0984C157.288 77.269 157.497 77.4417 157.704 77.6165C157.961 77.8321 158.021 78.2529 157.839 78.5563C157.727 78.7413 157.552 78.8399 157.374 78.8399ZM83.8979 78.7604C83.6537 78.7604 83.4279 78.5729 83.3535 78.282C83.2622 77.9258 83.4318 77.5496 83.7328 77.4413L84.4557 77.1815C84.7563 77.0738 85.0746 77.2745 85.1658 77.6306C85.2571 77.9868 85.0874 78.3632 84.7864 78.4713L84.0636 78.7311C84.0084 78.751 83.9526 78.7604 83.8979 78.7604ZM86.3072 77.8944C86.063 77.8944 85.8372 77.7069 85.7627 77.416C85.6714 77.0599 85.8411 76.6835 86.1421 76.5754L86.8652 76.3157C87.1657 76.2072 87.4838 76.409 87.5752 76.7652C87.6664 77.1214 87.4963 77.4978 87.1955 77.6058L86.4728 77.8652C86.4177 77.885 86.362 77.8944 86.3072 77.8944ZM155.282 77.1836C155.179 77.1836 155.074 77.1501 154.98 77.08C154.769 76.9233 154.558 76.7689 154.345 76.6165C154.076 76.4238 153.99 76.0092 154.153 75.6908C154.316 75.3722 154.666 75.2701 154.935 75.4631C155.153 75.6196 155.37 75.778 155.586 75.9387C155.852 76.1369 155.932 76.5531 155.765 76.8681C155.656 77.0719 155.471 77.1836 155.282 77.1836ZM22.4489 77.0776C22.2971 77.0776 22.1457 77.0062 22.0336 76.8647C21.8572 76.6421 21.6838 76.4164 21.5134 76.1879C21.3053 75.9086 21.3278 75.4829 21.5635 75.2365C21.7992 74.99 22.1589 75.0166 22.3671 75.2957C22.5299 75.5139 22.6955 75.7296 22.8641 75.9424C23.0792 76.214 23.0676 76.6404 22.8382 76.8952C22.7284 77.0172 22.5885 77.0776 22.4489 77.0776ZM88.7171 77.0314C88.4725 77.0314 88.2466 76.8434 88.1723 76.5517C88.0816 76.1954 88.2521 75.8193 88.5532 75.712L89.2769 75.4542C89.5777 75.3465 89.8955 75.5491 89.9858 75.9059C90.0763 76.2624 89.9056 76.6384 89.6044 76.7452L88.8817 77.0027C88.827 77.0221 88.7717 77.0314 88.7171 77.0314ZM91.1289 76.1768C90.8834 76.1768 90.6569 75.9875 90.5835 75.6946C90.4939 75.3378 90.6658 74.9624 90.9671 74.8565L91.6921 74.6022C91.9938 74.4964 92.3103 74.7007 92.3995 75.0577C92.4885 75.4147 92.3162 75.7896 92.0147 75.8953L91.2912 76.1489C91.2372 76.1678 91.1826 76.1768 91.1289 76.1768ZM153.114 75.6685C153.021 75.6685 152.926 75.6413 152.839 75.584C152.621 75.4415 152.403 75.3011 152.183 75.1628C151.906 74.988 151.8 74.5799 151.948 74.2513C152.096 73.9225 152.441 73.7984 152.718 73.9726C152.943 74.1144 153.167 74.2583 153.39 74.4047C153.665 74.5848 153.765 74.995 153.613 75.3208C153.509 75.5429 153.315 75.6685 153.114 75.6685ZM93.5445 75.3365C93.2978 75.3365 93.0705 75.1453 92.998 74.8506C92.9103 74.4932 93.0837 74.1192 93.3857 74.015L94.1126 73.766C94.4145 73.6629 94.7302 73.8693 94.8173 74.227C94.9043 74.5847 94.73 74.9582 94.4279 75.0613L93.7039 75.3095C93.6507 75.3278 93.5972 75.3365 93.5445 75.3365ZM20.8218 74.8043C20.6507 74.8043 20.4813 74.7133 20.3693 74.5398C20.2128 74.2979 20.0594 74.0534 19.9091 73.8062C19.7253 73.5041 19.7832 73.0829 20.0383 72.8654C20.2935 72.6476 20.6492 72.7163 20.8331 73.0184C20.9771 73.255 21.1239 73.4891 21.2736 73.7207C21.4647 74.0164 21.4172 74.4394 21.1674 74.6656C21.0642 74.7591 20.9425 74.8043 20.8218 74.8043ZM95.9648 74.5159C95.7161 74.5159 95.4876 74.3217 95.417 74.0244C95.3318 73.6661 95.5081 73.2938 95.8108 73.1929L96.5394 72.9511C96.8429 72.8511 97.1564 73.0611 97.2407 73.4195C97.3252 73.778 97.148 74.1498 96.8452 74.2497L96.1193 74.4905C96.0677 74.5077 96.0157 74.5159 95.9648 74.5159ZM150.878 74.2974C150.795 74.2974 150.711 74.2758 150.631 74.2301C150.407 74.1019 150.182 73.9759 149.956 73.8521C149.67 73.6956 149.546 73.2951 149.678 72.9573C149.81 72.6194 150.149 72.4725 150.434 72.6286C150.666 72.7555 150.896 72.8847 151.126 73.0162C151.409 73.1781 151.528 73.5812 151.391 73.9163C151.293 74.1571 151.09 74.2974 150.878 74.2974ZM98.3912 73.7214C98.1405 73.7214 97.9106 73.5238 97.8421 73.2234C97.76 72.8641 97.9393 72.4939 98.2429 72.3968L98.9737 72.1639C99.2778 72.0681 99.5896 72.2813 99.6709 72.6409C99.7522 73.0005 99.5717 73.37 99.268 73.4663L98.5404 73.6979C98.4905 73.7139 98.4405 73.7214 98.3912 73.7214ZM148.581 73.0747C148.508 73.0747 148.434 73.058 148.362 73.0227C148.132 72.9093 147.901 72.7982 147.67 72.6891C147.378 72.5513 147.235 72.1595 147.351 71.8136C147.468 71.4676 147.799 71.299 148.091 71.4365C148.328 71.5481 148.564 71.662 148.8 71.7782C149.09 71.9214 149.227 72.316 149.106 72.6596C149.015 72.9187 148.804 73.0747 148.581 73.0747ZM100.825 72.9593C100.571 72.9593 100.34 72.7575 100.274 72.4532C100.195 72.0928 100.379 71.7253 100.683 71.6323L101.417 71.4101C101.723 71.3188 102.031 71.5368 102.109 71.8975C102.186 72.2584 102.002 72.625 101.697 72.7167L100.967 72.9377C100.92 72.9524 100.872 72.9593 100.825 72.9593ZM19.3908 72.354C19.2008 72.354 19.015 72.2414 18.9071 72.0362C18.7713 71.778 18.6386 71.5177 18.5088 71.2551C18.3499 70.9338 18.4413 70.521 18.7126 70.333C18.9837 70.1452 19.3325 70.2529 19.4914 70.5742C19.616 70.8259 19.7432 71.0759 19.8735 71.3233C20.0398 71.6393 19.9582 72.0549 19.6914 72.2519C19.5976 72.3209 19.4935 72.354 19.3908 72.354ZM103.267 72.2359C103.01 72.2359 102.777 72.0286 102.714 71.7201C102.64 71.3582 102.828 70.9939 103.134 70.9065C103.38 70.8363 103.625 70.7666 103.872 70.6976C104.176 70.6127 104.484 70.8359 104.557 71.1984C104.629 71.5606 104.44 71.9237 104.134 72.0096C103.889 72.0779 103.645 72.1471 103.401 72.2169C103.356 72.2297 103.311 72.2359 103.267 72.2359ZM146.228 72.0042C146.166 72.0042 146.102 71.9918 146.039 71.9657C145.804 71.8676 145.569 71.772 145.333 71.6787C145.034 71.5609 144.873 71.1791 144.973 70.8261C145.072 70.4728 145.395 70.2827 145.693 70.3999C145.935 70.4956 146.177 70.5937 146.418 70.6945C146.714 70.8183 146.87 71.2033 146.765 71.5543C146.683 71.8312 146.463 72.0042 146.228 72.0042ZM105.72 71.5592C105.459 71.5592 105.224 71.3459 105.165 71.0322C105.096 70.6689 105.289 70.3085 105.596 70.2272C105.843 70.162 106.09 70.0972 106.337 70.0334C106.645 69.9549 106.947 70.1845 107.014 70.5481C107.081 70.9118 106.887 71.271 106.58 71.3505C106.334 71.4138 106.089 71.478 105.845 71.5428C105.803 71.554 105.761 71.5592 105.72 71.5592ZM143.83 71.0926C143.778 71.0926 143.725 71.084 143.672 71.066L143.558 71.0271C143.357 70.9588 143.155 70.8917 142.952 70.8258C142.649 70.7273 142.47 70.3565 142.554 69.9974C142.637 69.6385 142.95 69.4264 143.253 69.5259C143.46 69.5931 143.667 69.6616 143.873 69.7319L143.988 69.771C144.29 69.8743 144.464 70.248 144.377 70.6056C144.305 70.9007 144.077 71.0926 143.83 71.0926ZM108.182 70.9345C107.917 70.9345 107.68 70.7144 107.625 70.3953C107.562 70.0305 107.76 69.6746 108.068 69.6C108.316 69.54 108.564 69.4808 108.812 69.4226C109.12 69.35 109.42 69.5873 109.481 69.9523C109.543 70.3174 109.342 70.6722 109.034 70.7446C108.788 70.8026 108.542 70.8612 108.296 70.9207C108.258 70.93 108.219 70.9345 108.182 70.9345ZM110.653 70.366C110.384 70.366 110.144 70.1387 110.094 69.8137C110.037 69.4476 110.242 69.0962 110.551 69.0289C110.8 68.9748 111.049 68.9218 111.298 68.8696C111.608 68.8053 111.903 69.049 111.958 69.4159C112.013 69.7823 111.806 70.132 111.496 70.197C111.25 70.2486 111.003 70.3013 110.757 70.3548C110.722 70.3625 110.687 70.366 110.653 70.366ZM141.396 70.3327C141.352 70.3327 141.308 70.3267 141.263 70.3142C141.021 70.2458 140.778 70.1795 140.535 70.115C140.228 70.0338 140.035 69.6734 140.104 69.3101C140.172 68.9467 140.477 68.7169 140.784 68.7995C141.032 68.8651 141.28 68.933 141.527 69.0028C141.833 69.0891 142.022 69.4528 141.949 69.8148C141.887 70.1244 141.653 70.3327 141.396 70.3327ZM113.134 69.8601C112.86 69.8601 112.618 69.6244 112.573 69.2931C112.523 68.9256 112.734 68.5797 113.044 68.5204C113.294 68.4727 113.544 68.4261 113.795 68.3807C114.104 68.3236 114.396 68.5765 114.444 68.9445C114.492 69.3124 114.278 69.6564 113.968 69.713C113.72 69.7581 113.473 69.804 113.226 69.8513C113.195 69.8572 113.164 69.8601 113.134 69.8601ZM18.1602 69.7555C17.9517 69.7555 17.7508 69.6194 17.6508 69.3837C17.5357 69.1123 17.4235 68.8388 17.3147 68.5636C17.1812 68.2265 17.3038 67.8251 17.5886 67.6671C17.8734 67.5091 18.2122 67.6543 18.3457 67.9914C18.4504 68.2558 18.558 68.5182 18.6686 68.7788C18.8095 69.1114 18.6963 69.5166 18.4152 69.6836C18.3332 69.7324 18.2461 69.7555 18.1602 69.7555ZM138.934 69.7085C138.899 69.7085 138.863 69.7045 138.827 69.6965C138.582 69.6412 138.337 69.5881 138.092 69.5368C137.782 69.472 137.576 69.1223 137.63 68.7559C137.685 68.3892 137.98 68.1438 138.29 68.2092C138.54 68.2615 138.79 68.316 139.04 68.3723C139.349 68.4419 139.552 68.7947 139.493 69.1606C139.441 69.4835 139.202 69.7085 138.934 69.7085ZM115.625 69.4213C115.344 69.4213 115.1 69.1763 115.061 68.8383C115.019 68.4694 115.237 68.1296 115.548 68.0792C115.799 68.0387 116.05 67.9994 116.301 67.9611C116.612 67.9133 116.898 68.1744 116.939 68.5436C116.979 68.9129 116.758 69.2506 116.447 69.2982C116.198 69.336 115.95 69.3749 115.702 69.4149C115.676 69.4191 115.65 69.4213 115.625 69.4213ZM136.451 69.216C136.424 69.216 136.397 69.2137 136.369 69.2089C136.122 69.1666 135.875 69.126 135.628 69.0873C135.316 69.0384 135.097 68.6995 135.138 68.3307C135.18 67.9615 135.467 67.703 135.777 67.751C136.029 67.7907 136.281 67.8318 136.533 67.875C136.844 67.9284 137.059 68.2702 137.014 68.6389C136.973 68.9743 136.73 69.216 136.451 69.216ZM118.123 69.0564C117.836 69.0564 117.59 68.801 117.558 68.4559C117.523 68.0859 117.749 67.7529 118.062 67.7123C118.313 67.6794 118.565 67.6478 118.817 67.6175C119.13 67.5768 119.409 67.8492 119.441 68.2195C119.473 68.5899 119.245 68.9208 118.933 68.9585C118.684 68.9888 118.435 69.0201 118.186 69.0523C118.165 69.0549 118.144 69.0564 118.123 69.0564ZM133.953 68.8498C133.934 68.8498 133.914 68.8487 133.894 68.8463C133.646 68.8161 133.398 68.7877 133.149 68.7611C132.836 68.7274 132.605 68.3997 132.634 68.029C132.662 67.6581 132.941 67.3854 133.252 67.4186C133.505 67.4458 133.758 67.4747 134.011 67.5054C134.323 67.5434 134.551 67.8744 134.519 68.2448C134.489 68.5914 134.241 68.8498 133.953 68.8498ZM120.629 68.7706C120.335 68.7706 120.086 68.5038 120.062 68.1516C120.036 67.7805 120.27 67.4551 120.583 67.4248C120.836 67.4003 121.088 67.3771 121.341 67.3552C121.652 67.3296 121.927 67.607 121.95 67.9785C121.973 68.3498 121.737 68.6728 121.424 68.6998C121.174 68.7213 120.925 68.7444 120.676 68.7686C120.66 68.7699 120.645 68.7706 120.629 68.7706ZM131.444 68.6046C131.432 68.6046 131.42 68.6041 131.408 68.6032C131.159 68.5847 130.91 68.5678 130.66 68.5528C130.346 68.5336 130.105 68.2168 130.121 67.8452C130.137 67.4733 130.407 67.1879 130.719 67.2065C130.972 67.2219 131.226 67.2392 131.479 67.2579C131.793 67.2811 132.031 67.6012 132.012 67.9728C131.993 68.3298 131.742 68.6046 131.444 68.6046ZM123.141 68.5709C122.84 68.5709 122.588 68.2916 122.572 67.9318C122.556 67.5599 122.798 67.2431 123.112 67.2237C123.365 67.2081 123.618 67.1941 123.871 67.1812C124.189 67.1665 124.451 67.4543 124.464 67.8259C124.477 68.1979 124.234 68.5122 123.919 68.528C123.67 68.5406 123.42 68.5547 123.171 68.57C123.16 68.5707 123.15 68.5709 123.141 68.5709ZM128.929 68.4738C128.924 68.4738 128.919 68.4738 128.914 68.4736C128.664 68.4661 128.415 68.4601 128.165 68.4559C127.851 68.4504 127.6 68.1442 127.604 67.7719C127.609 67.3995 127.867 67.0992 128.182 67.1078C128.436 67.1123 128.689 67.1183 128.943 67.1259C129.257 67.1353 129.506 67.4447 129.498 67.8169C129.49 68.1831 129.236 68.4738 128.929 68.4738ZM125.656 68.4638C125.347 68.4638 125.093 68.1706 125.087 67.8028C125.081 67.4306 125.331 67.1231 125.645 67.1159C125.899 67.1099 126.152 67.1055 126.406 67.1026C126.715 67.1082 126.978 67.398 126.981 67.7701C126.984 68.1423 126.731 68.4471 126.417 68.4507C126.167 68.4535 125.917 68.4579 125.667 68.4636C125.664 68.4638 125.66 68.4638 125.656 68.4638ZM17.1314 67.0369C16.9047 67.0369 16.6906 66.8757 16.6021 66.6111C16.5075 66.329 16.4161 66.0454 16.3276 65.7602C16.2194 65.4106 16.3709 65.0234 16.6661 64.8952C16.9612 64.7673 17.2883 64.9463 17.3967 65.2959C17.4817 65.5702 17.5697 65.843 17.6605 66.1143C17.7764 66.4603 17.6335 66.8521 17.3412 66.9893C17.2722 67.0216 17.2013 67.0369 17.1314 67.0369ZM16.3035 64.2236C16.059 64.2236 15.833 64.0356 15.7588 63.7441C15.6846 63.4539 15.6136 63.1624 15.5458 62.8696C15.4623 62.5107 15.6405 62.1398 15.9437 62.0411C16.2466 61.9428 16.5601 62.1532 16.6435 62.5122C16.7091 62.7942 16.7775 63.0749 16.8486 63.3547C16.9396 63.711 16.7692 64.0873 16.4681 64.1948C16.4134 64.2141 16.358 64.2236 16.3035 64.2236ZM15.6749 61.3386C15.4124 61.3386 15.1763 61.1222 15.1189 60.8061C15.0652 60.5098 15.0142 60.2125 14.9662 59.9147C14.9074 59.5491 15.1101 59.1962 15.419 59.1266C15.7271 59.0561 16.026 59.2969 16.0846 59.6627C16.1309 59.9501 16.18 60.2369 16.2321 60.5228C16.2981 60.8866 16.1025 61.2451 15.795 61.3234C15.7549 61.3337 15.7147 61.3386 15.6749 61.3386ZM15.2431 58.4036C14.9623 58.4036 14.7179 58.1576 14.6796 57.8191C14.6455 57.5185 14.6146 57.2175 14.5866 56.9158C14.5522 56.5458 14.7776 56.2128 15.0902 56.1721C15.4008 56.1313 15.6838 56.3983 15.7183 56.7683C15.7454 57.0594 15.7754 57.3498 15.8082 57.6397C15.8499 58.0086 15.6313 58.348 15.3196 58.3975C15.2939 58.4016 15.2684 58.4036 15.2431 58.4036ZM15.006 55.4371C14.7059 55.4371 14.455 55.1595 14.438 54.8006C14.4238 54.498 14.4124 54.1951 14.4038 53.8924C14.3934 53.5203 14.6397 53.2086 14.9539 53.1963C15.274 53.19 15.5313 53.4754 15.5418 53.8475C15.55 54.1402 15.5611 54.4331 15.5749 54.7254C15.5923 55.0972 15.3522 55.4152 15.0382 55.436C15.0274 55.4368 15.0167 55.4371 15.006 55.4371ZM14.9625 52.4577C14.9585 52.4577 14.9546 52.4577 14.9507 52.4575C14.6363 52.45 14.3866 52.142 14.3932 51.7698C14.3985 51.4668 14.4067 51.1636 14.4178 50.8608C14.4314 50.4887 14.7017 50.1994 15.0113 50.2166C15.3255 50.2327 15.5691 50.5474 15.5553 50.9193C15.5445 51.2119 15.5365 51.5046 15.5314 51.7975C15.5251 52.1651 15.2715 52.4577 14.9625 52.4577ZM15.1109 49.4829C15.0924 49.4829 15.0738 49.4818 15.055 49.4797C14.7421 49.4436 14.5131 49.1139 14.5437 48.7434C14.5685 48.4416 14.5964 48.1404 14.627 47.8394C14.6647 47.4698 14.9492 47.2066 15.2603 47.2509C15.5724 47.2954 15.795 47.6311 15.7574 48.0007C15.7277 48.2915 15.7009 48.5828 15.6768 48.8743C15.6483 49.2226 15.4004 49.4829 15.1109 49.4829ZM15.4514 46.5305C15.4187 46.5305 15.3854 46.527 15.3521 46.5201C15.0424 46.4556 14.8356 46.1059 14.8901 45.7394C14.9345 45.4406 14.9819 45.1424 15.0323 44.8448C15.0943 44.4798 15.394 44.2422 15.7025 44.3166C16.0109 44.3898 16.2106 44.7451 16.1487 45.11C16.1 45.397 16.0543 45.6847 16.0115 45.9731C15.9627 46.3002 15.7225 46.5305 15.4514 46.5305ZM15.9847 43.6179C15.9375 43.6179 15.8895 43.6109 15.8416 43.5963C15.5372 43.503 15.3544 43.1352 15.433 42.7749C15.4973 42.481 15.5644 42.1883 15.6345 41.8963C15.7204 41.5382 16.0349 41.3298 16.3378 41.4325C16.6403 41.5341 16.8156 41.9071 16.7296 42.2651C16.6622 42.5464 16.5972 42.829 16.5353 43.1125C16.4692 43.4163 16.2379 43.6179 15.9847 43.6179ZM16.7121 40.7651C16.6502 40.7651 16.5873 40.7532 16.5256 40.7276C16.2285 40.6057 16.0713 40.2216 16.1742 39.87C16.2582 39.583 16.3452 39.2973 16.4354 39.013C16.5457 38.6645 16.8739 38.4878 17.1683 38.6186C17.4628 38.7492 17.6118 39.1378 17.5015 39.4863C17.4148 39.7601 17.3309 40.0354 17.2499 40.3116C17.1684 40.5903 16.9478 40.7651 16.7121 40.7651ZM17.6348 37.9927C17.5577 37.9927 17.4793 37.9741 17.4041 37.9346C17.1167 37.7836 16.9872 37.3853 17.1147 37.045C17.2189 36.7674 17.3258 36.4914 17.4358 36.2169C17.5705 35.8805 17.9098 35.7373 18.1941 35.8968C18.4782 36.0563 18.5992 36.4583 18.4645 36.7946C18.3586 37.059 18.2556 37.3245 18.1554 37.5919C18.0612 37.8433 17.853 37.9927 17.6348 37.9927ZM18.7533 35.3236C18.6603 35.3236 18.5659 35.2965 18.4788 35.2397C18.2036 35.0599 18.1035 34.6499 18.2553 34.3239C18.3794 34.0576 18.5065 33.7932 18.6365 33.5311C18.7958 33.21 19.1449 33.1029 19.4157 33.2914C19.6868 33.48 19.7775 33.893 19.6182 34.2139C19.4933 34.4655 19.3714 34.7192 19.2522 34.9751C19.1486 35.1977 18.9539 35.3236 18.7533 35.3236ZM20.0639 32.777C19.9555 32.777 19.8458 32.7404 19.7489 32.664C19.4872 32.4576 19.4163 32.0391 19.5905 31.7293C19.7329 31.476 19.8778 31.225 20.0252 30.9763C20.206 30.6717 20.5609 30.5976 20.8182 30.8116C21.0756 31.0253 21.138 31.4458 20.9573 31.7503C20.8153 31.9902 20.6756 32.2323 20.5384 32.4765C20.4287 32.6715 20.248 32.777 20.0639 32.777ZM21.5408 30.3608C21.4178 30.3608 21.2942 30.3139 21.1899 30.2172C20.9424 29.9876 20.899 29.5639 21.0931 29.2709C21.2512 29.0321 21.4117 28.7953 21.5742 28.561C21.7739 28.2733 22.1325 28.2315 22.3755 28.4678C22.6185 28.704 22.6537 29.1288 22.4541 29.4165C22.297 29.6429 22.142 29.8717 21.9892 30.1026C21.8769 30.2721 21.7096 30.3608 21.5408 30.3608ZM23.1674 28.0856C23.0303 28.0856 22.8929 28.0274 22.7837 27.9095C22.5516 27.6585 22.5351 27.2322 22.7471 26.9573C22.9197 26.7334 23.0943 26.5117 23.271 26.2925C23.4878 26.0229 23.8483 26.013 24.076 26.27C24.3034 26.5271 24.3118 26.9537 24.0949 27.2231C23.9239 27.4352 23.755 27.6495 23.5881 27.8661C23.4757 28.0116 23.3218 28.0856 23.1674 28.0856ZM24.931 25.9594C24.7802 25.9594 24.6296 25.8887 24.5176 25.7489C24.3014 25.4788 24.3111 25.052 24.5395 24.796C24.7251 24.5877 24.9128 24.3817 25.1024 24.1784C25.3349 23.9284 25.695 23.9487 25.9065 24.2251C26.1177 24.5009 26.1 24.9272 25.867 25.1772C25.6836 25.374 25.5021 25.5731 25.3226 25.7747C25.2125 25.898 25.0716 25.9594 24.931 25.9594ZM26.8183 23.9882C26.6538 23.9882 26.4907 23.9045 26.3782 23.7422C26.1784 23.4547 26.2135 23.0299 26.4564 22.7936C26.6535 22.6014 26.8526 22.4118 27.0535 22.2244C27.3004 21.9937 27.6584 22.0443 27.853 22.3367C28.0476 22.6289 28.0051 23.0527 27.7582 23.2831C27.5636 23.4649 27.3708 23.6487 27.1795 23.8348C27.0735 23.938 26.9455 23.9882 26.8183 23.9882ZM28.8152 22.1763C28.6375 22.1763 28.4626 22.0782 28.3515 21.8941C28.1687 21.5912 28.2279 21.1703 28.4838 20.9539C28.6914 20.7783 28.9007 20.6051 29.1114 20.4341C29.371 20.2241 29.7252 20.3026 29.9029 20.6096C30.0804 20.9169 30.014 21.3363 29.7547 21.5467C29.5502 21.7123 29.3471 21.8803 29.1457 22.0507C29.0453 22.1355 28.9297 22.1763 28.8152 22.1763ZM30.9096 20.5264C30.719 20.5264 30.5328 20.4129 30.4251 20.2071C30.2596 19.8907 30.342 19.4753 30.6094 19.2792C30.8263 19.1201 31.0445 18.9635 31.2638 18.8093C31.5343 18.6195 31.8839 18.7249 32.044 19.0451C32.2044 19.3653 32.1151 19.7788 31.8448 19.9687C31.6315 20.1185 31.4194 20.2708 31.2088 20.4251C31.1155 20.4937 31.012 20.5264 30.9096 20.5264ZM33.0894 19.0395C32.8861 19.0395 32.6894 18.9102 32.5869 18.6832C32.4387 18.3549 32.5433 17.9464 32.8204 17.7709C33.0451 17.6287 33.2712 17.4888 33.4984 17.3513C33.7784 17.1812 34.1212 17.3131 34.2645 17.6446C34.4076 17.976 34.2966 18.3821 34.0166 18.5517C33.7956 18.6855 33.5759 18.8214 33.3573 18.9598C33.2719 19.0139 33.18 19.0395 33.0894 19.0395ZM35.3435 17.7167C35.1276 17.7167 34.9214 17.5708 34.8255 17.3234C34.6946 16.9848 34.8201 16.5849 35.1059 16.4299C35.3378 16.3042 35.5707 16.1809 35.8047 16.0601C36.0927 15.9119 36.4283 16.0672 36.5542 16.4088C36.6796 16.75 36.5479 17.1472 36.2597 17.2959C36.0322 17.4133 35.8057 17.5332 35.5803 17.6554C35.5035 17.6972 35.4228 17.7167 35.3435 17.7167ZM37.6616 16.5587C37.4331 16.5587 37.2178 16.3949 37.1306 16.1277C37.0171 15.7805 37.1629 15.3901 37.4561 15.2559C37.6939 15.147 37.9323 15.0405 38.172 14.9366C38.4673 14.8087 38.7944 14.9879 38.9025 15.3375C39.0108 15.687 38.8591 16.0743 38.5639 16.2024C38.3307 16.3036 38.0983 16.4072 37.867 16.5133C37.7994 16.5441 37.7298 16.5587 37.6616 16.5587ZM40.0339 15.566C39.7931 15.566 39.5694 15.3838 39.4919 15.0976C39.3959 14.7432 39.5607 14.3637 39.8602 14.25C40.1028 14.1578 40.3464 14.0682 40.5906 13.981C40.8912 13.8736 41.2092 14.0753 41.3 14.4317C41.3907 14.7882 41.2203 15.1643 40.9192 15.2717C40.6815 15.3566 40.4443 15.444 40.2079 15.5338C40.1502 15.5558 40.0914 15.566 40.0339 15.566ZM42.4517 14.7394C42.1982 14.7394 41.967 14.5375 41.9007 14.2334C41.8223 13.8729 42.0055 13.5053 42.31 13.4124C42.557 13.3371 42.8045 13.2643 43.0527 13.1941C43.3576 13.1069 43.6655 13.3311 43.7387 13.693C43.8117 14.0549 43.6231 14.4188 43.3172 14.5051C43.0757 14.5736 42.8346 14.6444 42.5942 14.7179C42.5464 14.7324 42.4986 14.7394 42.4517 14.7394ZM44.9059 14.0792C44.6395 14.0792 44.4014 13.8567 44.3478 13.5356C44.2871 13.1702 44.4879 12.8158 44.7963 12.7438C45.0466 12.6854 45.2972 12.6295 45.5486 12.5762C45.859 12.5108 46.1539 12.7547 46.2093 13.121C46.2646 13.4874 46.0587 13.8376 45.7492 13.9033C45.5046 13.9551 45.2603 14.0095 45.0166 14.0665C44.9794 14.0752 44.9424 14.0792 44.9059 14.0792ZM47.3889 13.5875C47.109 13.5875 46.8649 13.343 46.8257 13.0055C46.7827 12.6368 47.0003 12.2966 47.3119 12.2456C47.5647 12.2045 47.8179 12.1657 48.0713 12.1297C48.386 12.0847 48.667 12.3491 48.7044 12.7186C48.7419 13.0884 48.5191 13.4238 48.2069 13.4682C47.9602 13.5033 47.7138 13.5409 47.4675 13.5811C47.441 13.5853 47.4148 13.5875 47.3889 13.5875ZM49.8923 13.2658C49.5982 13.2658 49.349 12.998 49.3253 12.645C49.3005 12.2738 49.5345 11.9492 49.8479 11.9198C50.1023 11.8959 50.3569 11.8747 50.6115 11.8559C50.9272 11.8338 51.1955 12.1155 51.215 12.4868C51.2345 12.8585 50.9959 13.1783 50.6821 13.2014C50.4339 13.2197 50.186 13.2403 49.938 13.2637C49.9226 13.2652 49.9074 13.2658 49.8923 13.2658ZM55.6804 13.1855C55.6695 13.1855 55.6587 13.1853 55.6477 13.1844C55.3998 13.1678 55.1517 13.1538 54.9034 13.1425C54.5892 13.1281 54.3444 12.8149 54.3564 12.4428C54.3687 12.0709 54.6294 11.7821 54.9473 11.7953C55.2025 11.8069 55.4572 11.8214 55.7121 11.8383C56.0261 11.8594 56.266 12.1778 56.2484 12.5494C56.2311 12.9083 55.9801 13.1855 55.6804 13.1855ZM52.4077 13.1166C52.0989 13.1166 51.8453 12.8242 51.8388 12.4568C51.8321 12.0846 52.0817 11.7767 52.3961 11.7687C52.6512 11.7623 52.9062 11.7589 53.1613 11.7578C53.1622 11.7578 53.1627 11.7578 53.1633 11.7578C53.4768 11.7578 53.7315 12.0581 53.7325 12.4294C53.7337 12.8017 53.4795 13.1045 53.1653 13.1058C52.9168 13.1068 52.6683 13.1104 52.4199 13.1165C52.4159 13.1166 52.4118 13.1166 52.4077 13.1166Z" fill="white"/>
<path d="M59.4659 6.5625L59.3362 11.6002L62.2737 9.53848L59.4659 6.5625Z" fill="#7D97F4"/>
<path d="M78.6746 4.36108L66.8761 15.8798C66.6502 16.1004 66.3583 16.2025 66.0675 16.1629C65.7766 16.1233 65.5119 15.9452 65.3343 15.6696L56.0123 1.20919C55.9055 1.04368 55.8943 0.817893 55.9839 0.638711C56.0735 0.459392 56.2459 0.362489 56.4199 0.393378L78.6746 4.36108Z" fill="#91B3FA"/>
<path d="M59.467 6.56206L78.6746 4.36035L60.9654 8.90127L60.8792 10.2965L59.467 6.56206Z" fill="#7D97F4"/>
<path d="M61.8629 10.2813L59.3362 11.6002L60.9655 8.90234L61.8629 10.2813Z" fill="#7D97F4"/>
<path d="M40.6288 80.2977C39.138 80.4684 37.5664 81.2333 36.4037 82.339C34.246 84.391 34.1521 87.5801 33.3683 90.4779C32.9377 92.07 32.1298 94.0286 31.0052 95.11C28.7966 97.2338 26.0901 97.433 24.4233 100.413C20.1749 108.009 22.746 120.996 31.3949 121.651C36.7397 122.056 43.5443 119.049 43.8354 111.678C44.2401 101.423 43.4454 79.309 40.6288 80.2977Z" fill="url(#paint25_linear_1213_3050)"/>
<path d="M59.4142 128.34C59.4702 128.34 59.5157 128.287 59.5157 128.22C59.5152 126.513 59.7382 122.053 60.7595 121.922C61.9483 121.777 63.3411 126.87 63.3944 127.202C63.3944 127.268 63.4393 127.313 63.4954 127.313C63.5514 127.313 63.5964 127.251 63.5964 127.185C63.5964 127.057 62.6016 123.232 61.4833 122.045C61.2277 121.774 60.9773 121.651 60.7376 121.683C60.1307 121.761 59.7074 122.898 59.4798 125.061C59.3142 126.633 59.3129 128.205 59.3129 128.22C59.3128 128.287 59.3582 128.34 59.4142 128.34Z" fill="url(#paint26_linear_1213_3050)"/>
<path d="M48.1388 103.862C48.1388 103.862 52.6678 116.096 59.1063 117.991C60.3524 118.278 61.8163 118.152 62.4708 118.633C63.2146 119.181 62.3101 120.656 61.9482 121.775C61.5864 122.893 61.4458 122.369 61.285 122.012C61.1242 121.655 61.8009 120.529 60.9165 120.085C60.0321 119.641 60.3001 120.323 60.7155 120.91C61.131 121.497 61.1175 122.401 61.0907 122.449C61.0639 122.496 60.3939 122.1 59.7641 121.751C59.2238 121.451 58.9209 120.628 58.8456 120.4C57.5706 120.224 49.5914 118.738 46.1994 108.804C46.1994 108.804 45.8728 98.941 48.1388 103.862Z" fill="url(#paint27_linear_1213_3050)"/>
<path d="M28.6558 170.989L28.5674 173.411C28.5505 173.871 28.2716 174.258 27.8902 174.346C27.2464 174.494 26.2097 174.68 25.1814 174.646C24.73 174.632 24.404 174.122 24.5069 173.601C24.6946 172.652 25.0579 171.22 25.6598 170.341L27.9078 170.133C28.3236 170.095 28.6739 170.496 28.6558 170.989Z" fill="url(#paint28_linear_1213_3050)"/>
<path d="M44.4122 141.259L44.9656 143.866C44.9656 143.866 44.6985 159.221 44.874 165.337C44.9014 166.296 45.1725 167.221 45.6497 167.997L48.1389 172.041L42.2653 168.636L42.1001 167.835L42.9208 166.254L40.5926 149.295C40.4559 148.299 40.5644 147.277 40.9053 146.351L41.8966 143.661L44.4122 141.259Z" fill="url(#paint29_linear_1213_3050)"/>
<path d="M48.5491 172.622L46.7572 172.787C46.4219 172.818 46.0936 172.665 45.8682 172.369C45.253 171.561 43.9852 169.992 43.4289 169.999C42.6801 170.009 42.9818 173.136 42.9818 173.136L42.5643 173.174L41.7787 169.327C41.5811 168.358 41.929 167.349 42.6423 166.821C42.6423 166.821 42.9108 168.297 43.8777 168.871C44.8445 169.445 47.8343 171.546 47.8343 171.546C47.8343 171.546 48.1776 171.455 48.5641 171.501C49.1374 171.57 49.1237 172.569 48.5491 172.622Z" fill="url(#paint30_linear_1213_3050)"/>
<path d="M36.8039 143.224C36.8039 143.224 30.4612 160.628 29.5292 164.554C28.5974 168.48 28.3925 171.702 28.3965 172.005C28.4027 172.479 27.9375 172.976 26.5731 173.102C25.869 173.167 25.5022 172.865 25.312 172.557C25.1497 172.295 25.1196 171.95 25.2219 171.648C25.5845 170.576 26.7338 167.153 27.1414 165.611C27.628 163.77 28.3949 155.559 28.9223 152.68C29.4499 149.8 30.0546 146.675 32.9736 143.577C32.9736 143.577 34.9417 140.909 36.8039 143.224Z" fill="url(#paint31_linear_1213_3050)"/>
<path d="M39.7021 115.397C40.9879 105.587 35.7648 100.588 35.7648 100.588C37.3253 98.5151 39.6855 96.9462 41.4952 95.9533C43.1299 95.0565 45.0607 95.3764 46.4242 96.7709C47.9242 98.3053 49.5561 100.478 49.3375 102.513C49.106 104.666 46.4226 115.551 46.4226 115.551C46.4226 115.551 43.4125 117.59 39.7021 115.397Z" fill="url(#paint32_linear_1213_3050)"/>
<path d="M35.7589 120.56C36.3569 117.7 39.702 115.397 39.702 115.397C43.4124 117.591 46.4223 115.551 46.4223 115.551C46.4223 115.551 47.3321 118.658 47.0425 121.65C46.7528 124.642 44.9655 143.866 44.9655 143.866C40.2588 145.455 32.7524 143.832 32.7524 143.832C35.3768 137.148 35.161 123.419 35.7589 120.56Z" fill="url(#paint33_linear_1213_3050)"/>
<path d="M41.7714 89.8907L40.9033 96.8553C40.802 97.6004 41.191 97.6716 41.8263 97.7344C42.8323 97.8341 44.1209 97.7988 44.4996 96.816C44.5381 96.7159 44.5534 96.6055 44.5589 96.4957L44.8504 90.6769C44.8735 90.2152 44.6358 89.7912 44.2675 89.6372L42.9285 89.0772C42.4128 88.8618 41.8583 89.2518 41.7714 89.8907Z" fill="url(#paint34_linear_1213_3050)"/>
<path d="M38.3221 104.409C38.0599 104.82 34.0865 110.417 32.9488 116.662C31.811 122.907 32.1935 127.076 32.1935 127.076C32.1935 127.076 33.3496 128.097 32.934 128.821C32.5184 129.545 32.6279 130.038 32.0968 130.178C31.5655 130.319 30.9067 130.517 30.9872 129.275C31.0675 128.034 29.8157 127.784 30.0236 127.033C30.2306 126.286 28.8139 106.131 35.6671 100.664C35.6994 100.638 35.7319 100.613 35.7646 100.588C38.662 101.827 38.7437 103.747 38.3221 104.409Z" fill="url(#paint35_linear_1213_3050)"/>
<path d="M23.6017 146.361C23.6122 146.361 23.6231 146.358 23.633 146.352L24.5821 145.815C24.6185 145.795 24.6339 145.743 24.6165 145.7C24.5988 145.658 24.5547 145.639 24.5194 145.66L23.5704 146.197C23.534 146.217 23.5186 146.269 23.5359 146.312C23.5486 146.343 23.5747 146.361 23.6017 146.361Z" fill="#DCE5FE"/>
<path d="M42.8941 83.1908C42.8941 83.1908 45.0646 83.8892 46.8613 87.179C48.658 90.4688 47.8003 92.2575 46.516 92.6895C45.2317 93.1215 43.2693 93.4006 40.9389 91.4623C38.6085 89.5241 40.086 82.4005 42.8941 83.1908Z" fill="url(#paint36_linear_1213_3050)"/>
<path d="M41.7512 90.007C41.7512 90.007 40.6661 87.4846 39.7414 88.706C38.8167 89.9273 40.8695 91.0158 41.6624 91.3479L41.7512 90.007Z" fill="url(#paint37_linear_1213_3050)"/>
<path d="M42.1176 89.3656C42.1176 89.3656 39.9824 84.4736 43.8243 83.7977L44.8153 84.4024C44.8153 84.4024 45.9026 81.327 43.4297 80.3372C40.9567 79.3474 37.6364 81.1112 37.0715 84.966C36.5066 88.8207 37.3562 91.1158 39.1989 92.6223C41.0415 94.1289 41.4891 92.0152 41.4891 92.0152C41.4891 92.0152 40.4068 90.5036 40.6697 89.5604C40.9326 88.617 41.8934 89.5512 41.8934 89.5512L42.1176 89.3656Z" fill="url(#paint38_linear_1213_3050)"/>
<g opacity="0.7">
<path d="M24.3914 109.409C24.3973 109.409 24.4034 109.408 24.4094 109.406C24.4455 109.394 24.4667 109.35 24.4567 109.308C23.3839 104.711 26.3755 102.037 29.0148 99.6773C29.0446 99.6505 29.0505 99.6003 29.0281 99.5649C29.0054 99.5295 28.9633 99.523 28.9332 99.5492C26.2596 101.94 23.229 104.649 24.3262 109.35C24.3344 109.386 24.3616 109.409 24.3914 109.409Z" fill="url(#paint39_linear_1213_3050)"/>
<path d="M33.3387 94.8616C33.3615 94.8616 33.3837 94.848 33.3964 94.8235C34.0513 93.5613 34.3624 92.0931 34.6632 90.6731C34.9607 89.2693 35.2682 87.8175 35.9076 86.5441C36.4535 85.4563 37.1237 84.6077 37.8332 83.7092C37.9697 83.5365 38.1071 83.3624 38.245 83.185C38.2703 83.1525 38.2686 83.1018 38.2411 83.0717C38.2132 83.042 38.1707 83.0442 38.1454 83.0763C38.0077 83.2536 37.8705 83.4273 37.7344 83.5998C37.0198 84.5049 36.3447 85.3596 35.7913 86.4621C35.1419 87.7558 34.8318 89.219 34.532 90.6341C34.2336 92.0421 33.9251 93.4983 33.2811 94.7396C33.2616 94.7773 33.2714 94.8265 33.3033 94.8497C33.3145 94.8579 33.3266 94.8616 33.3387 94.8616Z" fill="url(#paint40_linear_1213_3050)"/>
</g>
<path d="M184.903 170.955C184.903 170.955 185.202 172.959 185.349 174.943C185.406 175.718 184.901 176.391 184.245 176.423C182.013 176.533 177.241 176.747 175.528 176.657C175.271 176.643 175.102 176.331 175.198 176.048C175.278 175.81 175.432 175.618 175.628 175.511L183.511 171.221L184.903 170.955Z" fill="url(#paint41_linear_1213_3050)"/>
<path d="M185.148 169.777L184.908 172.174C184.908 172.174 183.527 172.936 182.584 172.078L183.156 169.407L185.148 169.777Z" fill="url(#paint42_linear_1213_3050)"/>
<path d="M184.968 124.715C185.071 125.341 185.525 155.951 182.761 169.668C182.716 169.892 182.812 170.122 182.992 170.209C183.415 170.414 184.246 170.711 185.242 170.751C185.551 170.763 185.827 170.526 185.914 170.176C186.704 166.993 190.49 151.047 190.983 135.815C191.535 118.794 190.983 135.235 190.983 135.235L190.66 124.714L184.968 124.715Z" fill="url(#paint43_linear_1213_3050)"/>
<path d="M193.972 172C193.972 172 194.448 173.012 194.908 175.7C194.992 176.185 194.705 176.65 194.289 176.698C193.552 176.784 192.418 176.894 191.509 176.887C191.09 176.884 190.764 176.452 190.814 175.96C190.915 174.978 191.228 173.369 192.197 172.114L193.972 172Z" fill="url(#paint44_linear_1213_3050)"/>
<path d="M194.39 168.918L193.829 172.543C193.829 172.543 193.274 173.032 192.176 172.677L192.444 168.777L194.39 168.918Z" fill="url(#paint45_linear_1213_3050)"/>
<path d="M195.906 125.655C198.166 141.805 195.416 165.571 194.488 170.223C194.431 170.507 194.237 170.726 193.993 170.773C193.579 170.855 192.898 170.921 192.226 170.69C191.994 170.61 191.831 170.363 191.822 170.078C191.697 166.317 191.921 143.23 189.815 134.106C189.709 133.644 189.47 133.241 189.14 132.963L185.053 129.522L184.739 123.961L195.906 125.655Z" fill="url(#paint46_linear_1213_3050)"/>
<path d="M181.504 95.053C188.277 94.9206 195.751 97.1587 195.751 97.1587C197.77 111.107 196.104 127.195 196.104 127.195C190.86 128.823 184.945 126.2 184.945 126.2C184.073 120.37 180.007 103.962 180.007 103.962C176.697 103.476 173.971 102.345 171.726 100.851C173.438 98.5006 174.246 95.51 174.596 93.7422C176.991 94.6232 179.414 95.094 181.504 95.053Z" fill="url(#paint47_linear_1213_3050)"/>
<path d="M161.496 83.2415C162.161 82.29 163.003 82.7402 163.003 82.7402C164 87.7252 169.227 91.7672 174.596 93.7429C174.246 95.5106 173.438 98.5013 171.726 100.852C162.814 94.9195 161.496 83.2415 161.496 83.2415Z" fill="url(#paint48_linear_1213_3050)"/>
<path d="M161.657 83.4829C161.587 83.745 162.394 84.144 162.868 83.0722C162.885 82.5585 163.149 80.3579 162.89 79.9394C161.509 77.7108 158.832 74.917 158.832 74.917C158.38 75.4457 158.752 75.9647 158.752 75.9647L160.051 77.5664C159.779 78.1476 159.448 78.6381 159.293 79.341C159.175 79.8734 159.247 80.4422 159.474 80.9268C159.702 81.4129 160.013 82.045 160.307 82.5397C160.863 83.4758 161.657 83.4829 161.657 83.4829Z" fill="url(#paint49_linear_1213_3050)"/>
<path d="M160.619 78.6055L161.803 79.7932L162.174 80.9757L161.119 82.3616C161.119 82.3616 160.764 80.0151 160.5 79.5074C160.237 78.9995 160.374 78.754 160.619 78.6055Z" fill="url(#paint50_linear_1213_3050)"/>
<path d="M193.153 104.925L195.751 97.1602C195.751 97.1602 202.078 102.25 203.118 108.703C201.923 108.807 199.919 109.199 197.789 110.472C196.829 107.912 193.153 104.925 193.153 104.925Z" fill="url(#paint51_linear_1213_3050)"/>
<path d="M188.365 88.5439L190.52 95.9232C190.556 96.0455 190.513 96.1808 190.418 96.2433C189.83 96.6279 187.713 97.7395 185.163 95.8248C184.897 95.6254 184.716 95.3001 184.676 94.9307L183.978 88.5439H188.365Z" fill="url(#paint52_linear_1213_3050)"/>
<path d="M183.675 81.71C183.675 81.71 181.308 86.9844 181.612 89.1151C181.915 91.2457 184.848 91.0928 187.41 89.3623L189.199 83.667L183.675 81.71Z" fill="url(#paint53_linear_1213_3050)"/>
<path d="M187.297 86.5643C187.192 86.5098 187.154 86.3589 187.216 86.2461C187.406 85.9032 187.761 85.2036 187.875 84.591C187.875 84.591 188.3 84.2685 186.792 83.8411C185.284 83.4135 183.034 82.7501 182.561 81.2301C182.101 79.7482 183.312 76.0213 185.244 78.9909C185.317 79.1037 185.461 79.1062 185.535 78.9932C185.852 78.5051 186.684 77.4919 187.84 78.1061C188.923 78.6809 189.044 79.6196 189.029 80.0927C189.025 80.2319 189.13 80.3401 189.246 80.314C189.793 80.1905 191.106 80.0844 191.718 81.6787C192.223 82.9919 191.895 83.7354 191.596 84.099C191.499 84.2168 191.542 84.4107 191.675 84.4588C192.034 84.5891 192.498 84.9501 192.452 85.9472C192.388 87.3259 191.086 87.2045 190.715 87.1416C190.654 87.1314 190.593 87.1561 190.552 87.21C190.234 87.6264 188.802 89.3946 187.252 89.6077C187.118 89.6261 187.014 89.4692 187.058 89.3179L187.729 87.0096C187.76 86.9025 187.717 86.7848 187.629 86.7389L187.297 86.5643Z" fill="url(#paint54_linear_1213_3050)"/>
<path d="M187.027 86.8917C187.027 86.8917 188.712 85.5229 188.835 86.6755C188.958 87.8284 187.318 88.3453 186.505 87.9154L187.027 86.8917Z" fill="url(#paint55_linear_1213_3050)"/>
<path d="M203.075 108.764C203.075 108.764 207.399 120.426 196.829 122.132L195.387 120.71C195.387 120.71 200.672 117.297 197.79 110.471C197.79 110.471 200.913 107.342 203.075 108.764Z" fill="url(#paint56_linear_1213_3050)"/>
<path d="M195.387 120.71H191.543C191.543 120.71 189.141 124.407 189.381 125.261C189.621 126.114 191.996 125.436 191.996 125.436L193.225 122.985C193.225 122.985 196.828 123.27 196.828 122.132C196.829 120.994 195.387 120.71 195.387 120.71Z" fill="url(#paint57_linear_1213_3050)"/>
<path d="M183.643 81.4969C183.63 81.4969 183.617 81.492 183.605 81.482C183.261 81.1757 183.066 80.7983 183.028 80.3595C182.947 79.4435 183.569 78.5923 183.596 78.5565C183.619 78.5259 183.659 78.5225 183.685 78.5498C183.711 78.5769 183.713 78.6237 183.691 78.6549C183.684 78.6631 183.078 79.4938 183.153 80.3448C183.188 80.7403 183.366 81.0827 183.681 81.3627C183.709 81.3875 183.714 81.4341 183.694 81.4673C183.681 81.4867 183.662 81.4969 183.643 81.4969Z" fill="url(#paint58_linear_1213_3050)"/>
<defs>
<linearGradient id="paint0_linear_1213_3050" x1="93.8063" y1="165.165" x2="109.774" y2="18.0333" gradientUnits="userSpaceOnUse">
<stop stop-color="#09005D"/>
<stop offset="1" stop-color="#1A0F91"/>
</linearGradient>
<linearGradient id="paint1_linear_1213_3050" x1="11.3466" y1="94.4137" x2="185.982" y2="94.4137" gradientUnits="userSpaceOnUse">
<stop stop-color="#4042E2"/>
<stop offset="1" stop-color="#4F52FF"/>
</linearGradient>
<linearGradient id="paint2_linear_1213_3050" x1="111.523" y1="84.9859" x2="89.9648" y2="182.908" gradientUnits="userSpaceOnUse">
<stop stop-color="#09005D"/>
<stop offset="1" stop-color="#1A0F91"/>
</linearGradient>
<linearGradient id="paint3_linear_1213_3050" x1="111.545" y1="96.7266" x2="89.6567" y2="141.497" gradientUnits="userSpaceOnUse">
<stop stop-color="#2B3582"/>
<stop offset="1" stop-color="#150E42"/>
</linearGradient>
<linearGradient id="paint4_linear_1213_3050" x1="59.8666" y1="183.182" x2="123.103" y2="144.743" gradientUnits="userSpaceOnUse">
<stop stop-color="#FE7062"/>
<stop offset="1" stop-color="#FF928E"/>
</linearGradient>
<linearGradient id="paint5_linear_1213_3050" x1="107.62" y1="153.219" x2="57.9251" y2="174.103" gradientUnits="userSpaceOnUse">
<stop stop-color="#FE7062"/>
<stop offset="1" stop-color="#FF928E"/>
</linearGradient>
<linearGradient id="paint6_linear_1213_3050" x1="103.056" y1="103.333" x2="83.866" y2="147.681" gradientUnits="userSpaceOnUse">
<stop stop-color="#2B3582"/>
<stop offset="1" stop-color="#150E42"/>
</linearGradient>
<linearGradient id="paint7_linear_1213_3050" x1="74.6514" y1="23.8681" x2="96.6356" y2="51.3555" gradientUnits="userSpaceOnUse">
<stop stop-color="#4042E2"/>
<stop offset="1" stop-color="#4F52FF"/>
</linearGradient>
<linearGradient id="paint8_linear_1213_3050" x1="96.2158" y1="35.5043" x2="100.024" y2="27.5475" gradientUnits="userSpaceOnUse">
<stop stop-color="#FE7062"/>
<stop offset="1" stop-color="#FF928E"/>
</linearGradient>
<linearGradient id="paint9_linear_1213_3050" x1="106.79" y1="35.5043" x2="110.598" y2="27.5475" gradientUnits="userSpaceOnUse">
<stop stop-color="#FE7062"/>
<stop offset="1" stop-color="#FF928E"/>
</linearGradient>
<linearGradient id="paint10_linear_1213_3050" x1="117.363" y1="35.5043" x2="121.171" y2="27.5475" gradientUnits="userSpaceOnUse">
<stop stop-color="#FE7062"/>
<stop offset="1" stop-color="#FF928E"/>
</linearGradient>
<linearGradient id="paint11_linear_1213_3050" x1="127.937" y1="35.5043" x2="131.745" y2="27.5475" gradientUnits="userSpaceOnUse">
<stop stop-color="#4042E2"/>
<stop offset="1" stop-color="#4F52FF"/>
</linearGradient>
<linearGradient id="paint12_linear_1213_3050" x1="138.511" y1="35.5043" x2="142.319" y2="27.5475" gradientUnits="userSpaceOnUse">
<stop stop-color="#4042E2"/>
<stop offset="1" stop-color="#4F52FF"/>
</linearGradient>
<linearGradient id="paint13_linear_1213_3050" x1="74.6514" y1="65.3184" x2="96.6356" y2="92.8059" gradientUnits="userSpaceOnUse">
<stop stop-color="#4042E2"/>
<stop offset="1" stop-color="#4F52FF"/>
</linearGradient>
<linearGradient id="paint14_linear_1213_3050" x1="96.2158" y1="76.9554" x2="100.024" y2="68.9986" gradientUnits="userSpaceOnUse">
<stop stop-color="#FE7062"/>
<stop offset="1" stop-color="#FF928E"/>
</linearGradient>
<linearGradient id="paint15_linear_1213_3050" x1="106.79" y1="76.9554" x2="110.598" y2="68.9986" gradientUnits="userSpaceOnUse">
<stop stop-color="#FE7062"/>
<stop offset="1" stop-color="#FF928E"/>
</linearGradient>
<linearGradient id="paint16_linear_1213_3050" x1="117.363" y1="76.9554" x2="121.171" y2="68.9986" gradientUnits="userSpaceOnUse">
<stop stop-color="#FE7062"/>
<stop offset="1" stop-color="#FF928E"/>
</linearGradient>
<linearGradient id="paint17_linear_1213_3050" x1="127.937" y1="76.9554" x2="131.745" y2="68.9986" gradientUnits="userSpaceOnUse">
<stop stop-color="#FE7062"/>
<stop offset="1" stop-color="#FF928E"/>
</linearGradient>
<linearGradient id="paint18_linear_1213_3050" x1="138.511" y1="76.9554" x2="142.319" y2="68.9986" gradientUnits="userSpaceOnUse">
<stop stop-color="#FE7062"/>
<stop offset="1" stop-color="#FF928E"/>
</linearGradient>
<linearGradient id="paint19_linear_1213_3050" x1="74.6514" y1="106.657" x2="96.6356" y2="134.145" gradientUnits="userSpaceOnUse">
<stop stop-color="#4042E2"/>
<stop offset="1" stop-color="#4F52FF"/>
</linearGradient>
<linearGradient id="paint20_linear_1213_3050" x1="96.2158" y1="118.293" x2="100.024" y2="110.337" gradientUnits="userSpaceOnUse">
<stop stop-color="#FE7062"/>
<stop offset="1" stop-color="#FF928E"/>
</linearGradient>
<linearGradient id="paint21_linear_1213_3050" x1="106.79" y1="118.293" x2="110.598" y2="110.337" gradientUnits="userSpaceOnUse">
<stop stop-color="#4042E2"/>
<stop offset="1" stop-color="#4F52FF"/>
</linearGradient>
<linearGradient id="paint22_linear_1213_3050" x1="117.363" y1="118.293" x2="121.171" y2="110.337" gradientUnits="userSpaceOnUse">
<stop stop-color="#4042E2"/>
<stop offset="1" stop-color="#4F52FF"/>
</linearGradient>
<linearGradient id="paint23_linear_1213_3050" x1="127.937" y1="118.293" x2="131.745" y2="110.337" gradientUnits="userSpaceOnUse">
<stop stop-color="#4042E2"/>
<stop offset="1" stop-color="#4F52FF"/>
</linearGradient>
<linearGradient id="paint24_linear_1213_3050" x1="138.511" y1="118.293" x2="142.319" y2="110.337" gradientUnits="userSpaceOnUse">
<stop stop-color="#4042E2"/>
<stop offset="1" stop-color="#4F52FF"/>
</linearGradient>
<linearGradient id="paint25_linear_1213_3050" x1="59.7515" y1="74.7501" x2="19.2862" y2="109.867" gradientUnits="userSpaceOnUse">
<stop stop-color="#09005D"/>
<stop offset="1" stop-color="#1A0F91"/>
</linearGradient>
<linearGradient id="paint26_linear_1213_3050" x1="59.3128" y1="125.009" x2="63.5964" y2="125.009" gradientUnits="userSpaceOnUse">
<stop stop-color="#FF928E"/>
<stop offset="1" stop-color="#FEB3B1"/>
</linearGradient>
<linearGradient id="paint27_linear_1213_3050" x1="67.4281" y1="-35.6382" x2="63.5611" y2="-4.06362" gradientUnits="userSpaceOnUse">
<stop stop-color="#FF928E"/>
<stop offset="1" stop-color="#FEB3B1"/>
</linearGradient>
<linearGradient id="paint28_linear_1213_3050" x1="28.742" y1="172.219" x2="24.4008" y2="172.505" gradientUnits="userSpaceOnUse">
<stop stop-color="#E1473D"/>
<stop offset="1" stop-color="#E9605A"/>
</linearGradient>
<linearGradient id="paint29_linear_1213_3050" x1="48.3865" y1="190.763" x2="31.8567" y2="105.937" gradientUnits="userSpaceOnUse">
<stop stop-color="#FF928E"/>
<stop offset="1" stop-color="#FEB3B1"/>
</linearGradient>
<linearGradient id="paint30_linear_1213_3050" x1="48.8154" y1="169.425" x2="41.7906" y2="169.887" gradientUnits="userSpaceOnUse">
<stop stop-color="#E1473D"/>
<stop offset="1" stop-color="#E9605A"/>
</linearGradient>
<linearGradient id="paint31_linear_1213_3050" x1="35.9255" y1="193.206" x2="19.391" y2="108.356" gradientUnits="userSpaceOnUse">
<stop stop-color="#FF928E"/>
<stop offset="1" stop-color="#FEB3B1"/>
</linearGradient>
<linearGradient id="paint32_linear_1213_3050" x1="46.5646" y1="100.152" x2="14.6259" y2="133.124" gradientUnits="userSpaceOnUse">
<stop stop-color="#FE7062"/>
<stop offset="1" stop-color="#FF928E"/>
</linearGradient>
<linearGradient id="paint33_linear_1213_3050" x1="53.9021" y1="120.972" x2="15.2841" y2="141.591" gradientUnits="userSpaceOnUse">
<stop stop-color="#E1473D"/>
<stop offset="1" stop-color="#E9605A"/>
</linearGradient>
<linearGradient id="paint34_linear_1213_3050" x1="43.9944" y1="88.4053" x2="38.898" y2="109.525" gradientUnits="userSpaceOnUse">
<stop stop-color="#FF928E"/>
<stop offset="1" stop-color="#FEB3B1"/>
</linearGradient>
<linearGradient id="paint35_linear_1213_3050" x1="36.1194" y1="26.4349" x2="35.1647" y2="58.2953" gradientUnits="userSpaceOnUse">
<stop stop-color="#FF928E"/>
<stop offset="1" stop-color="#FEB3B1"/>
</linearGradient>
<linearGradient id="paint36_linear_1213_3050" x1="247.511" y1="-494.673" x2="241.233" y2="-481.841" gradientUnits="userSpaceOnUse">
<stop stop-color="#FF928E"/>
<stop offset="1" stop-color="#FEB3B1"/>
</linearGradient>
<linearGradient id="paint37_linear_1213_3050" x1="245.151" y1="-495.827" x2="238.873" y2="-482.995" gradientUnits="userSpaceOnUse">
<stop stop-color="#FF928E"/>
<stop offset="1" stop-color="#FEB3B1"/>
</linearGradient>
<linearGradient id="paint38_linear_1213_3050" x1="54.793" y1="69.0376" x2="14.3276" y2="104.154" gradientUnits="userSpaceOnUse">
<stop stop-color="#09005D"/>
<stop offset="1" stop-color="#1A0F91"/>
</linearGradient>
<linearGradient id="paint39_linear_1213_3050" x1="24.0955" y1="104.471" x2="29.0416" y2="104.471" gradientUnits="userSpaceOnUse">
<stop stop-color="#DAE3FE"/>
<stop offset="1" stop-color="#E9EFFD"/>
</linearGradient>
<linearGradient id="paint40_linear_1213_3050" x1="33.2711" y1="88.9562" x2="38.263" y2="88.9562" gradientUnits="userSpaceOnUse">
<stop stop-color="#DAE3FE"/>
<stop offset="1" stop-color="#E9EFFD"/>
</linearGradient>
<linearGradient id="paint41_linear_1213_3050" x1="175.778" y1="168.186" x2="209.955" y2="199.585" gradientUnits="userSpaceOnUse">
<stop stop-color="#09005D"/>
<stop offset="1" stop-color="#1A0F91"/>
</linearGradient>
<linearGradient id="paint42_linear_1213_3050" x1="185.148" y1="170.947" x2="182.584" y2="170.947" gradientUnits="userSpaceOnUse">
<stop stop-color="#FF928E"/>
<stop offset="1" stop-color="#FEB3B1"/>
</linearGradient>
<linearGradient id="paint43_linear_1213_3050" x1="189.794" y1="168.247" x2="181.942" y2="129.72" gradientUnits="userSpaceOnUse">
<stop stop-color="#E1473D"/>
<stop offset="1" stop-color="#E9605A"/>
</linearGradient>
<linearGradient id="paint44_linear_1213_3050" x1="182.254" y1="161.136" x2="216.431" y2="192.535" gradientUnits="userSpaceOnUse">
<stop stop-color="#09005D"/>
<stop offset="1" stop-color="#1A0F91"/>
</linearGradient>
<linearGradient id="paint45_linear_1213_3050" x1="194.39" y1="170.792" x2="192.176" y2="170.792" gradientUnits="userSpaceOnUse">
<stop stop-color="#FF928E"/>
<stop offset="1" stop-color="#FEB3B1"/>
</linearGradient>
<linearGradient id="paint46_linear_1213_3050" x1="196.201" y1="166.942" x2="188.349" y2="128.415" gradientUnits="userSpaceOnUse">
<stop stop-color="#E1473D"/>
<stop offset="1" stop-color="#E9605A"/>
</linearGradient>
<linearGradient id="paint47_linear_1213_3050" x1="330.569" y1="229.012" x2="296.621" y2="208.746" gradientUnits="userSpaceOnUse">
<stop stop-color="#09005D"/>
<stop offset="1" stop-color="#1A0F91"/>
</linearGradient>
<linearGradient id="paint48_linear_1213_3050" x1="283.241" y1="-66.6241" x2="257.953" y2="-42.0802" gradientUnits="userSpaceOnUse">
<stop stop-color="#FF928E"/>
<stop offset="1" stop-color="#FEB3B1"/>
</linearGradient>
<linearGradient id="paint49_linear_1213_3050" x1="-212.229" y1="-427.37" x2="-186.941" y2="-402.826" gradientUnits="userSpaceOnUse">
<stop stop-color="#FF928E"/>
<stop offset="1" stop-color="#FEB3B1"/>
</linearGradient>
<linearGradient id="paint50_linear_1213_3050" x1="154.928" y1="75.4987" x2="165.737" y2="81.969" gradientUnits="userSpaceOnUse">
<stop stop-color="#FF928E"/>
<stop offset="1" stop-color="#FEB3B1"/>
</linearGradient>
<linearGradient id="paint51_linear_1213_3050" x1="335.84" y1="220.184" x2="301.891" y2="199.919" gradientUnits="userSpaceOnUse">
<stop stop-color="#09005D"/>
<stop offset="1" stop-color="#1A0F91"/>
</linearGradient>
<linearGradient id="paint52_linear_1213_3050" x1="187.214" y1="85.0868" x2="187.322" y2="98.6631" gradientUnits="userSpaceOnUse">
<stop stop-color="#FF928E"/>
<stop offset="1" stop-color="#FEB3B1"/>
</linearGradient>
<linearGradient id="paint53_linear_1213_3050" x1="188.111" y1="80.8879" x2="181.371" y2="89.5897" gradientUnits="userSpaceOnUse">
<stop stop-color="#FF928E"/>
<stop offset="1" stop-color="#FEB3B1"/>
</linearGradient>
<linearGradient id="paint54_linear_1213_3050" x1="193.769" y1="-713.209" x2="194.171" y2="-749.396" gradientUnits="userSpaceOnUse">
<stop stop-color="#E1473D"/>
<stop offset="1" stop-color="#E9605A"/>
</linearGradient>
<linearGradient id="paint55_linear_1213_3050" x1="190.344" y1="82.6165" x2="183.604" y2="91.3184" gradientUnits="userSpaceOnUse">
<stop stop-color="#FF928E"/>
<stop offset="1" stop-color="#FEB3B1"/>
</linearGradient>
<linearGradient id="paint56_linear_1213_3050" x1="273.736" y1="226.248" x2="258.881" y2="210.386" gradientUnits="userSpaceOnUse">
<stop stop-color="#FF928E"/>
<stop offset="1" stop-color="#FEB3B1"/>
</linearGradient>
<linearGradient id="paint57_linear_1213_3050" x1="266.353" y1="233.163" x2="251.498" y2="217.301" gradientUnits="userSpaceOnUse">
<stop stop-color="#FF928E"/>
<stop offset="1" stop-color="#FEB3B1"/>
</linearGradient>
<linearGradient id="paint58_linear_1213_3050" x1="183.021" y1="80.0141" x2="183.706" y2="80.0141" gradientUnits="userSpaceOnUse">
<stop stop-color="#FF928E"/>
<stop offset="1" stop-color="#FEB3B1"/>
</linearGradient>
</defs>
</svg>
