<svg width="238" height="177" viewBox="0 0 238 177" fill="none" xmlns="http://www.w3.org/2000/svg">
<path d="M46.9669 175.842C37.7271 175.842 -1.40356 143.003 12.7047 111.591C24.9914 84.2355 51.5664 124.11 43.4405 68.2571C40.0302 44.8163 65.3071 18.9235 90.2997 34.1613C104.412 42.7652 128.948 49.447 136.997 32.6739C154.444 -3.68113 205.158 -1.58792 220.103 36.0189C236.108 76.2916 200.705 73.2109 214.069 94.12C221.706 106.068 226.802 105.317 234.707 124.653C243.96 147.288 232.558 176.153 210.969 176.153L46.9669 175.842Z" fill="#FFDCC7" fill-opacity="0.52"/>
<path d="M92.968 96.5439L91.3965 95.9573C90.612 95.6643 90.0788 94.874 90.1202 94.002C90.1756 92.8452 90.1092 91.6968 89.9303 90.5752C89.7903 89.7 90.2401 88.8369 91.0045 88.4564L92.6527 87.6355C93.6113 87.158 94.0191 85.956 93.5639 84.9505L92.5852 82.7897C92.1299 81.7842 90.9838 81.3565 90.0252 81.834L88.2809 82.7035C87.5207 83.082 86.601 82.9256 86.0277 82.2796C85.245 81.3987 84.3624 80.6039 83.3886 79.9183C82.6728 79.414 82.3959 78.4475 82.685 77.5953L83.1792 76.1392C83.5353 75.091 83.0131 73.9381 82.0137 73.5653L79.8646 72.7628C78.8652 72.3894 77.766 72.9371 77.4105 73.9853L76.7739 75.8608C76.4958 76.6805 75.7483 77.2008 74.9188 77.1995C73.9742 77.1976 73.0387 77.2888 72.1227 77.4676C71.3162 77.6246 70.4988 77.264 70.0801 76.5241L68.777 74.2241C68.2347 73.2671 67.0563 72.9524 66.144 73.5206L64.183 74.7424C63.2706 75.3112 62.9705 76.5471 63.5128 77.504L64.5262 79.2933C64.9754 80.0868 64.8592 81.1044 64.2286 81.7485C63.6352 82.3537 63.0862 83.0137 62.5883 83.7236C62.0947 84.4277 61.2055 84.6875 60.4209 84.3945L58.8488 83.8079C57.8494 83.4344 56.7502 83.9821 56.3948 85.0303L55.6297 87.2844C55.2737 88.3326 55.7959 89.4855 56.7959 89.8583L58.3571 90.4411C59.1465 90.7361 59.6845 91.5302 59.6437 92.4079C59.6127 93.0699 59.6218 93.7294 59.6687 94.3824C59.7362 95.3151 59.1647 96.1673 58.3114 96.4386L57.0205 96.8491C56.0053 97.1721 55.4313 98.2969 55.7393 99.3623L56.4009 101.652C56.7082 102.717 57.7813 103.319 58.7971 102.996L60.791 102.362C61.564 102.116 62.3875 102.415 62.8853 103.082C63.5822 104.015 64.3808 104.871 65.2718 105.63C65.9151 106.178 66.1823 107.075 65.9042 107.894L65.2669 109.772C64.9109 110.82 65.4331 111.973 66.4325 112.345L68.5816 113.148C69.581 113.521 70.6802 112.974 71.0356 111.925L71.5299 110.469C71.819 109.616 72.6163 109.051 73.4751 109.134C74.637 109.247 75.7934 109.217 76.9249 109.055C77.7556 108.937 78.5597 109.423 78.9194 110.218L79.7623 112.079C80.2176 113.084 81.3637 113.512 82.3223 113.034L84.3825 112.008C85.3411 111.53 85.7489 110.328 85.2937 109.323L84.5036 107.578C84.1403 106.776 84.3119 105.808 84.9492 105.223C85.7696 104.469 86.5182 103.617 87.1768 102.678C87.6698 101.974 88.5602 101.715 89.3448 102.008L90.9151 102.594C91.9151 102.968 93.0136 102.42 93.3691 101.372L94.1342 99.1178C94.4896 98.0696 93.968 96.9167 92.968 96.5439ZM82.7702 96.0096C81.2237 100.568 76.4471 102.947 72.1014 101.325C67.7557 99.7032 65.4873 94.6933 67.0338 90.136C68.5804 85.578 73.357 83.1982 77.7021 84.8203C82.0478 86.4424 84.3168 91.4517 82.7702 96.0096Z" fill="#FFB181"/>
<path d="M215.552 11.6951C217.533 9.61822 217.533 6.25092 215.553 4.17404C213.572 2.09715 210.362 2.09717 208.382 4.17405C206.402 6.25093 206.402 9.61822 208.382 11.6951C210.362 13.772 213.572 13.772 215.552 11.6951Z" fill="#012049"/>
<path d="M182.249 21.8839C182.89 19.0248 181.2 16.1621 178.474 15.4898C175.748 14.8175 173.018 16.5902 172.377 19.4492C171.736 22.3083 173.426 25.171 176.152 25.8433C178.878 26.5156 181.608 24.7429 182.249 21.8839Z" fill="#012049"/>
<path d="M211.969 8.41016L178.249 19.8695L139.57 45.5816" stroke="#FE8032" stroke-width="5" stroke-miterlimit="10"/>
<path d="M219.279 176.153H205.439C202.619 176.153 200.334 173.756 200.334 170.798V28.4953C200.334 25.5377 202.619 23.1406 205.439 23.1406H219.279C222.098 23.1406 224.384 25.5383 224.384 28.4953V170.798C224.384 173.755 222.098 176.153 219.279 176.153Z" fill="#FFB181"/>
<path d="M186.307 176.911H172.467C169.648 176.911 167.362 174.513 167.362 171.556V51.5021C167.362 48.5445 169.648 46.1475 172.467 46.1475H186.307C189.126 46.1475 191.412 48.5452 191.412 51.5021V171.555C191.413 174.513 189.126 176.911 186.307 176.911Z" fill="#FFB181"/>
<path d="M154.22 176.48H140.381C137.561 176.48 135.276 174.083 135.276 171.126V72.3263C135.276 69.3687 137.562 66.9717 140.381 66.9717H154.22C157.04 66.9717 159.326 69.3694 159.326 72.3263V171.125C159.326 174.083 157.04 176.48 154.22 176.48Z" fill="#FFB181"/>
<path d="M114.393 79.877C91.2547 80.726 70.3746 90.8435 54.9846 106.781C53.9675 107.834 53.9949 109.567 55.0424 110.588L92.1494 146.747C93.0781 147.652 94.517 147.702 95.475 146.831C100.844 141.945 107.76 138.997 115.278 138.267C116.564 138.143 117.558 137.036 117.558 135.682V83.0976C117.558 81.2808 116.124 79.8132 114.393 79.877Z" fill="#FE8032"/>
<path d="M28.7229 176.254H79.8767C81.2133 176.254 82.3027 175.154 82.3831 173.755C82.8688 165.313 84.9582 158.836 89.6989 152.834C90.5401 151.769 90.4184 150.192 89.4512 149.252L52.7021 113.516C51.6741 112.517 50.0637 112.593 49.1239 113.685C35.4052 129.626 26.8355 150.536 26.2086 173.542C26.1684 175.026 27.3072 176.254 28.7229 176.254Z" fill="#FFDCC7"/>
<path d="M120.737 82.4946V135.658C120.737 137.027 121.739 138.149 123.038 138.282C130.691 139.062 137.275 142.026 142.834 146.922C143.8 147.773 145.226 147.71 146.15 146.81L183.287 110.622C184.333 109.602 184.361 107.87 183.345 106.816C167.824 90.7264 146.712 80.5591 123.328 79.8575C121.911 79.8154 120.737 81.0085 120.737 82.4946Z" fill="#FFDCC7"/>
<path d="M211.734 173.523C211.108 150.536 202.552 129.642 188.853 113.706C187.913 112.613 186.301 112.537 185.273 113.539L148.539 149.334C147.59 150.258 147.465 151.794 148.259 152.867C153.096 159.404 154.74 164.69 155.63 173.872C155.76 175.213 156.841 176.235 158.127 176.235H209.22C210.636 176.236 211.775 175.007 211.734 173.523Z" fill="#FE8032"/>
<path d="M118.87 141.099C101.276 141.099 86.848 155.318 85.4616 173.397C85.3435 174.934 86.4975 176.254 87.968 176.254H149.773C151.243 176.254 152.397 174.934 152.279 173.397C150.893 155.317 136.464 141.099 118.87 141.099Z" fill="#BAD4EF"/>
<path d="M122.59 157.673C121.436 155.674 119.359 154.623 117.279 154.752L100.426 123.614C100.344 123.463 100.249 123.322 100.141 123.191L86.59 106.761C86.3569 106.478 85.9254 106.754 86.0587 107.101L93.7397 127.132C93.7981 127.283 93.8693 127.429 93.9527 127.567L112.48 158.028C111.583 159.848 111.577 162.097 112.663 163.979C114.323 166.854 117.891 167.773 120.632 166.032C123.373 164.291 124.25 160.548 122.59 157.673Z" fill="#315782"/>
<path d="M204.854 167.816L204.987 172.344L209.581 171.546L209.563 167.791L204.854 167.816Z" fill="#E1B39D"/>
<path d="M209.581 171.546C204.832 171.47 203.277 171.463 197.32 174.601C196.517 175.067 196.846 176.355 197.764 176.35L208.712 176.293C210.3 176.389 209.581 171.546 209.581 171.546Z" fill="#2F526E"/>
<path d="M226.112 167.508L226.223 172.053L230.832 172.421L230.809 167.769L226.112 167.508Z" fill="#E1B39D"/>
<path d="M228.322 171.527C227.722 171.529 225.813 171.661 224.825 172.69C223.549 174.019 223.719 176.32 224.238 176.322L232.359 176.351C232.751 176.383 232.622 174.367 231.714 173.084C230.896 171.928 230.216 171.517 228.322 171.527Z" fill="#315780"/>
<path d="M226.943 111.609C227.432 115.106 229.551 131.049 229.315 143.528C229.314 143.566 229.316 143.603 229.32 143.64L232.087 168.513C232.145 169.035 231.756 169.493 231.255 169.493H225.862C225.472 169.493 225.134 169.211 225.046 168.814C224.111 164.588 219.12 141.978 218.747 138.979C218.335 135.668 217.923 131.206 217.923 131.206L214.499 145.858C214.495 145.878 214.491 145.898 214.487 145.918L210.683 169.085C210.613 169.512 210.258 169.82 209.845 169.814L204.188 169.72C203.708 169.713 203.332 169.283 203.366 168.78L205.158 142.467C205.16 142.445 205.162 142.422 205.165 142.399L209.713 110.558C209.777 110.106 210.16 109.782 210.594 109.811L226.17 110.865C226.564 110.893 226.886 111.199 226.943 111.609Z" fill="#315782"/>
<path d="M217.932 131.207L215.801 113.447" stroke="#264154" stroke-width="0.5" stroke-miterlimit="10" stroke-linecap="round"/>
<path d="M216.554 129.803L211.961 145.6L208.846 167.791" stroke="#264154" stroke-width="0.5" stroke-miterlimit="10" stroke-linecap="round"/>
<path d="M225.922 118.592L227.446 143.416L230.571 167.791" stroke="#264154" stroke-width="0.5" stroke-miterlimit="10" stroke-linecap="round"/>
<path d="M213.482 114.747C213.482 114.747 214.297 120.755 216.554 120.671" stroke="#264154" stroke-width="0.5" stroke-miterlimit="10" stroke-linecap="round"/>
<path d="M221.697 113.447C221.697 113.447 222.558 117.337 225.218 120.673" stroke="#264154" stroke-width="0.5" stroke-miterlimit="10" stroke-linecap="round"/>
<path d="M226.539 98.9115C226.526 98.6012 226.344 95.9188 226.639 95.9009L231.356 96.5885C231.544 93.9565 230.712 81.4049 224.658 80.7589C220.339 80.2986 218.194 80.6127 214.807 80.755C212.355 80.8585 210.081 82.1397 208.658 84.2367C206.886 86.8476 204.652 90.5508 203.95 93.5256C202.905 97.9495 207.483 99.9176 208.833 100.395C209.053 100.473 209.199 100.687 209.2 100.931L209.238 110.832C209.24 111.319 209.619 111.711 210.083 111.706L226.524 111.536C226.819 111.517 227.045 111.254 227.033 110.944L226.539 98.9115Z" fill="#F0C66C"/>
<path d="M215.173 79.175L215.16 81.184C215.16 81.184 215.613 84.0094 218.633 84.0917C221.652 84.1741 221.904 80.7167 221.904 80.7167L221.009 77.634L221.011 74.2238L222.19 69.0039L209.835 64.5449C209.835 64.5449 209.07 72.2041 209.836 74.8839C210.602 77.5631 212.53 80.2519 215.173 79.175Z" fill="#E1B39D"/>
<path d="M209.531 66.5644C209.531 66.5644 214.134 65.2187 215.404 68.438C216.674 71.6573 216.625 70.9251 217.154 70.309C217.683 69.6936 219.528 69.8717 219.319 71.5641C219.052 73.7154 218.598 75.5149 221.009 77.633C221.009 77.633 220.951 74.4616 222.738 71.7185C224.525 68.9755 224.274 62.7961 218.319 61.7709C212.364 60.7456 215.548 59.2876 210.852 60.0524C206.156 60.8178 206.453 66.2899 209.531 66.5644Z" fill="#315782"/>
<path d="M211.786 87.8779L210.52 93.7343" stroke="#E69724" stroke-width="0.5" stroke-miterlimit="10" stroke-linecap="round"/>
<path d="M197.383 88.7296L209.687 87.8793C209.964 87.8601 210.215 88.0472 210.29 88.3268L215.691 108.543C215.792 108.921 215.535 109.3 215.162 109.323L202.837 110.101C202.561 110.119 202.311 109.932 202.237 109.653L196.856 89.509C196.756 89.133 197.011 88.7558 197.383 88.7296Z" fill="#315782"/>
<path d="M226.021 93.8359L226.235 97.3246L214.27 97.5851C214.27 97.5851 213.922 95.7319 212.945 94.8592C211.968 93.9866 211.534 94.0562 211.473 94.3983C211.413 94.7405 212.424 95.933 212.194 96.5381C212.095 98.0504 207.397 94.1251 207.204 95.1159C206.781 95.4682 207.615 96.3926 207.615 96.3926C207.108 96.4341 206.626 97.3367 207.262 97.6866C206.736 97.8583 206.761 98.9895 207.307 99.121C206.014 100.395 210.533 103.407 213.94 101.043C213.94 101.043 228.404 103.228 229.55 102.184C230.695 101.139 230.737 95.3259 230.737 95.3259L226.021 93.8359Z" fill="#E1B39D"/>
<path d="M224.666 85.1934L225.362 95.6868L231.355 96.5895C231.569 96.6138 230.818 94.7708 230.756 94.5544L229.84 92.4356L224.666 85.1934Z" fill="#F0C66C"/>
<path d="M198.073 99.2001C197.851 98.459 197.823 97.3667 198.511 96.9473C199.862 96.1232 200.182 95.7759 200.657 96.0549C201.129 96.3319 200.646 97.0571 200.646 97.0571C201.154 97.0341 201.736 97.8704 201.144 98.2975C201.686 98.4015 201.791 99.5282 201.265 99.7268C202.028 100.315 201.202 101.66 199.537 101.787C198.423 101.871 198.258 99.8206 198.073 99.2001Z" fill="#E1B39D"/>
<path d="M226.235 97.1902L224.666 88.0781" stroke="#E69724" stroke-width="0.5" stroke-miterlimit="10" stroke-linecap="round"/>
<path d="M211.342 110.102L225.218 109.811" stroke="#E69724" stroke-width="0.5" stroke-miterlimit="10" stroke-linecap="round"/>
<path d="M45.6541 156.096L43.7381 155.381C42.7819 155.024 42.1313 154.061 42.1824 152.997C42.25 151.587 42.169 150.187 41.9505 148.82C41.7801 147.752 42.3285 146.701 43.2603 146.237L45.27 145.236C46.4386 144.654 46.9359 143.189 46.3808 141.963L45.1879 139.328C44.6328 138.103 43.2354 137.581 42.0674 138.163L39.9408 139.223C39.0138 139.685 37.8933 139.494 37.194 138.707C36.2402 137.633 35.1642 136.664 33.9767 135.828C33.1039 135.213 32.7661 134.035 33.1191 132.996L33.7217 131.221C34.1557 129.943 33.519 128.538 32.3005 128.083L29.6809 127.105C28.4624 126.65 27.1228 127.317 26.6889 128.595L25.9128 130.882C25.5738 131.881 24.6621 132.516 23.6511 132.514C22.4996 132.511 21.359 132.623 20.2427 132.841C19.2592 133.032 18.2634 132.592 17.7522 131.69L16.1636 128.887C15.5027 127.72 14.0657 127.336 12.9537 128.029L10.5629 129.519C9.45094 130.212 9.08515 131.72 9.74552 132.886L10.9811 135.067C11.5288 136.034 11.387 137.275 10.6183 138.06C9.89525 138.798 9.22575 139.602 8.61893 140.467C8.01759 141.326 6.93299 141.642 5.97682 141.286L4.06082 140.571C2.84232 140.115 1.50271 140.783 1.06875 142.061L0.136308 144.809C-0.297653 146.087 0.338987 147.492 1.55748 147.947L3.4607 148.657C4.42296 149.017 5.07908 149.985 5.02917 151.055C4.99143 151.862 5.00239 152.666 5.0596 153.462C5.14177 154.599 4.44548 155.638 3.40471 155.969L1.83076 156.469C0.592788 156.862 -0.106538 158.234 0.268384 159.533L1.07544 162.324C1.45036 163.622 2.75833 164.356 3.99631 163.962L6.42721 163.189C7.36939 162.89 8.37304 163.254 8.98046 164.067C9.82951 165.205 10.8033 166.248 11.8904 167.173C12.6749 167.841 12.9999 168.935 12.6615 169.934L11.8849 172.223C11.4509 173.501 12.0876 174.906 13.3061 175.361L15.9257 176.339C17.1442 176.794 18.4838 176.126 18.9177 174.848L19.5203 173.073C19.8727 172.034 20.8447 171.345 21.8916 171.447C23.3079 171.584 24.7181 171.547 26.0973 171.35C27.11 171.205 28.0899 171.798 28.5288 172.767L29.5562 175.035C30.1112 176.261 31.5081 176.783 32.6767 176.2L35.1885 174.949C36.3571 174.367 36.8544 172.902 36.2993 171.676L35.3364 169.55C34.8933 168.572 35.1027 167.392 35.8793 166.678C36.8799 165.759 37.7923 164.721 38.5951 163.575C39.1964 162.717 40.2816 162.402 41.2378 162.759L43.1526 163.474C44.3711 163.929 45.7107 163.261 46.1447 161.983L47.0771 159.235C47.5092 157.956 46.8732 156.551 45.6541 156.096ZM33.222 155.445C31.3364 161.002 25.5136 163.903 20.216 161.925C14.9184 159.948 12.1527 153.84 14.0377 148.284C15.9226 142.728 21.7461 139.826 27.0431 141.804C32.3413 143.782 35.1076 149.889 33.222 155.445Z" fill="#315782"/>
<path d="M74.8974 165.999L73.8238 165.446C73.2882 165.171 72.9692 164.562 73.0672 163.945C73.1962 163.126 73.2389 162.302 73.1981 161.489C73.1664 160.853 73.5541 160.278 74.1275 160.071L75.3648 159.628C76.0842 159.37 76.4683 158.548 76.2224 157.794L75.6935 156.171C75.4476 155.416 74.6643 155.014 73.9449 155.271L72.6351 155.741C72.0642 155.946 71.4215 155.756 71.0636 155.247C70.5748 154.553 70.0082 153.912 69.3679 153.34C68.8974 152.92 68.7751 152.208 69.0471 151.626L69.5122 150.631C69.8469 149.915 69.5651 149.05 68.8822 148.698L67.4142 147.943C66.7313 147.592 65.9066 147.887 65.5712 148.604L64.9723 149.885C64.7106 150.445 64.1379 150.751 63.5475 150.68C62.8749 150.597 62.2018 150.583 61.5353 150.631C60.9486 150.674 60.3947 150.347 60.1537 149.785L59.4045 148.036C59.0928 147.308 58.2779 146.983 57.584 147.31L56.0922 148.013C55.3984 148.339 55.0886 149.194 55.4002 149.922L55.9827 151.283C56.2407 151.886 56.0789 152.601 55.5804 153.006C55.1111 153.386 54.6686 153.809 54.259 154.272C53.8531 154.731 53.1994 154.84 52.6632 154.564L51.5895 154.012C50.9066 153.661 50.0819 153.956 49.7466 154.673L49.0265 156.212C48.6918 156.929 48.9736 157.794 49.6565 158.145L50.7228 158.694C51.2621 158.971 51.5834 159.583 51.486 160.204C51.4124 160.673 51.368 161.143 51.3503 161.612C51.326 162.283 50.8525 162.841 50.2237 162.961L49.2724 163.143C48.5244 163.286 48.0284 164.038 48.1647 164.823L48.4581 166.51C48.5944 167.295 49.3114 167.815 50.06 167.672L51.5293 167.391C52.0989 167.282 52.6619 167.565 52.965 168.083C53.3887 168.807 53.8908 169.485 54.4666 170.101C54.8823 170.546 55.0028 171.208 54.7411 171.768L54.1415 173.051C53.8068 173.767 54.0886 174.632 54.7715 174.984L56.2395 175.739C56.9224 176.09 57.7477 175.794 58.0825 175.078L58.5475 174.084C58.8196 173.501 59.4312 173.167 60.0368 173.3C60.8555 173.48 61.6814 173.557 62.4994 173.538C63.1001 173.525 63.6351 173.94 63.8293 174.537L64.2851 175.934C64.531 176.689 65.3144 177.092 66.0338 176.834L67.5809 176.279C68.3003 176.021 68.6844 175.199 68.4385 174.445L68.0112 173.135C67.8147 172.532 68.0118 171.858 68.5115 171.496C69.1549 171.028 69.7538 170.486 70.2955 169.874C70.7014 169.415 71.3551 169.307 71.8913 169.582L72.9644 170.134C73.6473 170.485 74.472 170.19 74.8073 169.473L75.5273 167.933C75.8621 167.215 75.5803 166.35 74.8974 165.999ZM67.6765 164.747C66.2212 167.86 62.6345 169.146 59.6662 167.62C56.6978 166.093 55.4714 162.332 56.9267 159.219C58.3819 156.105 61.9687 154.819 64.937 156.345C67.9053 157.872 69.1317 161.633 67.6765 164.747Z" fill="#315782"/>
<path d="M81.1268 60.4063C89.5686 56.8088 93.6316 46.7148 90.2016 37.8607C86.7717 29.0066 77.1477 24.7452 68.7059 28.3427C60.2641 31.9401 56.2012 42.0341 59.6311 50.8883C63.0611 59.7424 72.685 64.0037 81.1268 60.4063Z" fill="#FE8032"/>
<path d="M82.451 61.8323C91.6455 57.4704 95.7278 46.1167 91.569 36.4731C87.4103 26.8295 76.5852 22.5478 67.3907 26.9097C58.1962 31.2716 54.1139 42.6253 58.2727 52.2689C62.4315 61.9125 73.2565 66.1942 82.451 61.8323Z" stroke="#FE8032" stroke-width="0.5" stroke-miterlimit="10"/>
<path d="M70.8427 45.616L67.8415 53.6371C67.7478 53.8873 68.0046 54.1229 68.2286 53.992L70.5092 52.6629C70.6601 52.5748 70.8506 52.6546 70.9023 52.8276L71.6826 55.4264C71.7599 55.6837 72.1026 55.6964 72.1975 55.4456L74.9066 48.2505C74.9541 48.1235 74.9102 47.9792 74.8013 47.9052L71.2462 45.48C71.1008 45.381 70.9054 45.4468 70.8427 45.616Z" stroke="white" stroke-miterlimit="10"/>
<path d="M79.0076 45.974L82.0088 53.995C82.1025 54.2453 81.8457 54.4808 81.6217 54.35L79.3411 53.0209C79.1902 52.9328 78.9997 53.0126 78.9479 53.1856L78.1677 55.7844C78.0904 56.0416 77.7477 56.0544 77.6527 55.8035L74.9437 48.6085C74.8962 48.4815 74.94 48.3372 75.049 48.2631L78.604 45.838C78.7495 45.7397 78.9443 45.8054 79.0076 45.974Z" stroke="white" stroke-miterlimit="10"/>
<path d="M74.9248 49.7702C79.4016 49.7702 83.0307 45.9638 83.0307 41.2684C83.0307 36.573 79.4016 32.7666 74.9248 32.7666C70.4481 32.7666 66.819 36.573 66.819 41.2684C66.819 45.9638 70.4481 49.7702 74.9248 49.7702Z" fill="#FE8032" stroke="white" stroke-miterlimit="10"/>
<path d="M78.752 41.2689C78.752 43.4853 77.0387 45.2823 74.9248 45.2823C72.811 45.2823 71.0977 43.4853 71.0977 41.2689C71.0977 39.0519 72.811 37.2549 74.9248 37.2549C77.0387 37.2549 78.752 39.0525 78.752 41.2689Z" fill="white" stroke="#FE8032" stroke-miterlimit="10"/>
<path d="M74.2139 42.7568C74.0642 42.9024 73.8238 42.859 73.7289 42.67L73.1269 41.4763C73.0484 41.3205 73.105 41.1271 73.2535 41.0447C73.4032 40.9624 73.5864 41.0218 73.665 41.1775L74.0855 42.0119L76.248 39.9116C76.371 39.791 76.5639 39.7993 76.6783 39.9289C76.7927 40.0585 76.7854 40.2602 76.6619 40.3796L74.2139 42.7568Z" fill="#FE8032"/>
<path d="M32.9393 94.503C41.3811 90.9055 45.444 80.8115 42.0141 71.9574C38.5841 63.1032 28.9602 58.8419 20.5184 62.4393C12.0765 66.0368 8.01361 76.1308 11.4436 84.9849C14.8735 93.8391 24.4975 98.1004 32.9393 94.503Z" fill="#FE8032"/>
<path d="M32.3785 96.6978C41.9767 93.4292 47.2313 82.6187 44.115 72.5517C40.9987 62.4847 30.6916 56.9735 21.0934 60.242C11.4952 63.5105 6.24056 74.3211 9.35687 84.388C12.4732 94.455 22.7803 99.9663 32.3785 96.6978Z" stroke="#FE8032" stroke-width="0.5" stroke-miterlimit="10"/>
<path d="M17.541 79.8277C17.8715 83.9892 21.0431 87.3043 25.0163 87.6292C25.362 87.6573 25.6596 87.3719 25.6596 87.0081V79.7702C25.6596 79.4274 25.3949 79.1504 25.068 79.1504H18.1326C17.785 79.1498 17.5117 79.4638 17.541 79.8277Z" stroke="white" stroke-miterlimit="10"/>
<path d="M26.7369 79.7702V87.0081C26.7369 87.3719 27.0346 87.6573 27.3803 87.6292C31.3535 87.3036 34.5251 83.9886 34.8556 79.8277C34.8848 79.4638 34.6115 79.1504 34.264 79.1504H27.3285C27.0017 79.1498 26.7369 79.4274 26.7369 79.7702Z" stroke="white" stroke-miterlimit="10"/>
<path d="M35.858 75.9997C35.5275 71.8382 32.3559 68.5231 28.3827 68.1982C28.037 68.1701 27.7394 68.4555 27.7394 68.8193V76.0571C27.7394 76.3999 28.0041 76.6776 28.331 76.6776H35.2664C35.614 76.677 35.8866 76.3629 35.858 75.9997Z" fill="white"/>
<path d="M25.6596 77.4751V70.2373C25.6596 69.8734 25.362 69.5881 25.0163 69.6162C21.0431 69.9417 17.8715 73.2568 17.541 77.4177C17.5117 77.7815 17.785 78.095 18.1332 78.095H25.0686C25.3949 78.0956 25.6596 77.8179 25.6596 77.4751Z" stroke="white" stroke-miterlimit="10"/>
<path d="M140.842 55.8584C149.284 52.261 153.347 42.167 149.917 33.3128C146.487 24.4587 136.863 20.1973 128.421 23.7948C119.98 27.3923 115.917 37.4863 119.347 46.3404C122.777 55.1945 132.401 59.4559 140.842 55.8584Z" fill="#FE8032"/>
<path d="M141.511 57.579C150.862 53.6014 155.369 42.4253 151.577 32.6165C147.784 22.8078 137.129 18.0808 127.777 22.0585C118.425 26.0362 113.918 37.2123 117.71 47.021C121.503 56.8297 132.159 61.5567 141.511 57.579Z" stroke="#FE8032" stroke-width="0.5" stroke-miterlimit="10"/>
<path d="M123.527 40.4727H131.066C131.12 40.4727 131.164 40.5154 131.164 40.5722C131.169 41.1883 131.018 44.451 127.289 44.451C123.622 44.451 123.418 41.2381 123.415 40.5869C123.414 40.5218 123.465 40.4727 123.527 40.4727Z" fill="white"/>
<path d="M123.68 40.2198L127.212 33.1199C127.234 33.0746 127.292 33.0746 127.315 33.1199L130.848 40.2237C130.903 40.3354 130.832 40.4726 130.717 40.4726H123.813C123.697 40.4726 123.623 40.3335 123.68 40.2198Z" stroke="white" stroke-miterlimit="10"/>
<path d="M139.298 49.5184H129.931C129.718 49.5184 129.583 49.279 129.684 49.083L130.556 47.399C130.684 47.1532 130.929 47 131.195 47H137.936C138.193 47 138.431 47.1424 138.562 47.3741L139.531 49.0887C139.639 49.2777 139.509 49.5184 139.298 49.5184Z" fill="white"/>
<path d="M135.276 30.9355H133.945V46.9994H135.276V30.9355Z" fill="white"/>
<path d="M136.17 31.7706C136.17 32.6745 135.472 33.4073 134.61 33.4073C133.748 33.4073 133.049 32.6745 133.049 31.7706C133.049 30.8666 133.748 30.1338 134.61 30.1338C135.472 30.1338 136.17 30.8666 136.17 31.7706Z" fill="white"/>
<path d="M127.328 33.1204C127.328 33.1204 131.912 33.2149 133.473 31.5781" stroke="white" stroke-miterlimit="10"/>
<path d="M145.733 40.4727H138.259C138.183 40.4727 138.121 40.5333 138.122 40.6125C138.125 41.3185 138.344 44.451 141.997 44.451C145.617 44.451 145.862 41.3223 145.871 40.6137C145.872 40.5346 145.81 40.4727 145.733 40.4727Z" fill="white"/>
<path d="M145.567 40.224L142.146 33.3009C142.086 33.1783 141.926 33.1783 141.865 33.3009L138.445 40.224C138.39 40.3364 138.463 40.473 138.579 40.473H145.433C145.549 40.473 145.623 40.3364 145.567 40.224Z" stroke="white" stroke-miterlimit="10"/>
<path d="M141.996 33.2091C141.996 33.2091 137.334 33.2149 135.774 31.5781" stroke="white" stroke-miterlimit="10"/>
<path d="M1.77173 176.48H237.095" stroke="#315782" stroke-miterlimit="10" stroke-linecap="round"/>
</svg>
