<svg width="226" height="166" viewBox="0 0 226 166" fill="none" xmlns="http://www.w3.org/2000/svg">
<path d="M29.4867 74.6123H18.0181V83.183V84.9882L19.7687 83.183H29.4867V74.6123Z" fill="#78C2FF"/>
<path d="M12.4004 77.9868C12.4004 77.9868 15.2059 79.4017 14.5119 83.2512C13.8186 87.1001 13.5116 87.6196 14.2873 89.1232C15.063 90.6274 15.9786 97.0433 15.2804 98.2603C14.5822 99.476 6.63728 92.9153 5.53517 87.4111C4.43366 81.9068 6.23337 79.4585 6.86981 78.5469C7.50625 77.6346 9.92424 76.6905 12.4004 77.9868Z" fill="#0E2D3D"/>
<path d="M13.1779 91.8828C13.1779 91.8828 14.6052 92.1819 15.4076 93.3995C15.9653 94.2456 16.0107 96.127 16.0912 96.481C16.1718 96.835 17.237 100.844 17.237 100.844L14.2625 102.899L13.1779 91.8828Z" fill="#285173"/>
<path d="M24.1675 160.434C24.1675 160.434 26.109 163.129 25.8425 163.556C25.5767 163.984 23.5353 164.043 22.2927 163.556C21.0501 163.068 21.0205 159.91 20.4585 158.553C20.2229 157.985 20.7268 156.308 21.4347 156.186C22.1432 156.065 22.9128 156.422 22.9128 156.422C22.9128 156.422 22.1783 158.333 24.1675 160.434Z" fill="#1D3B54"/>
<path d="M22.9256 156.399C22.9256 156.399 23.3337 157.546 23.4833 158.642C23.6068 159.551 24.8664 161.481 24.807 161.724C24.7477 161.969 23.1502 162.189 22.4992 161.561C21.8483 160.931 21.4298 159.102 21.2863 158.008C21.1525 156.988 20.9847 156.485 20.9847 156.485C20.9847 156.485 22.3043 155.727 22.9256 156.399Z" fill="#EEA886"/>
<path d="M7.2719 160.478C7.2719 160.478 9.14307 163.128 8.87663 163.555C8.61079 163.983 6.56885 164.043 5.32685 163.555C4.08425 163.068 4.05458 159.909 3.49262 158.553C3.25706 157.984 3.76089 156.307 4.46878 156.186C5.17668 156.064 6.0075 156.447 6.0075 156.447C6.0075 156.447 5.28204 158.378 7.2719 160.478Z" fill="#1D3B54"/>
<path d="M6.00689 156.446C6.00689 156.446 6.15465 157.698 6.39142 158.582C6.62819 159.467 7.89986 161.481 7.84112 161.724C7.78178 161.969 6.18432 162.189 5.53335 161.56C4.88237 160.931 4.37976 159.109 4.32042 158.007C4.26107 156.904 4.46878 156.185 4.46878 156.185C4.46878 156.185 5.38559 155.776 6.00689 156.446Z" fill="#EEA886"/>
<path d="M15.3573 112.578C15.3573 112.578 17.0232 120.568 17.4053 122.58C17.788 124.592 18.8593 134.335 18.9737 135.991C19.0882 137.648 20.7123 143.891 20.6354 144.483C20.5591 145.074 23.0424 156.961 23.0424 156.961C23.0424 156.961 22.1941 157.664 21.3003 157.024C20.8406 156.695 15.8515 145.897 15.8515 142.937C15.8515 138.848 12.9187 133.51 12.5403 132.595C9.02502 124.096 9.71717 121.497 9.25816 120.945C8.79915 120.393 8.75918 121.286 8.49153 122.509C8.22387 123.732 7.65041 134.304 7.30585 135.645C6.96189 136.986 7.22894 141.522 7.03758 143.81C6.84623 146.098 6.00632 156.447 6.00632 156.447C6.00632 156.447 5.35595 157.498 4.44338 156.474C4.24718 156.254 2.86772 144.946 2.82957 142.224C2.79142 139.503 2.75085 135.749 2.67697 134.571C1.96847 123.293 0.226284 121.682 2.97006 113.699C8.107 98.7532 15.3573 112.578 15.3573 112.578Z" fill="#EEA886"/>
<path d="M4.17086 110.344C4.17086 110.344 -0.574284 117.193 1.46886 131.761C1.46886 131.761 12.7243 133.339 18.7545 129.934C18.7545 129.934 16.2608 114.914 15.3573 112.577C14.4538 110.24 4.17086 110.344 4.17086 110.344Z" fill="#1D3B54"/>
<path d="M20.4058 158.314V161.136H20.7613V158.955L20.4058 158.314Z" fill="#1D3B54"/>
<path d="M3.43994 158.314V161.136H3.7954V158.955L3.43994 158.314Z" fill="#1D3B54"/>
<path d="M10.5396 90.884C10.5396 90.884 12.2878 91.7357 12.8952 91.8606C13.5019 91.9855 15.8576 95.1407 16.2705 96.2927C16.6835 97.4447 16.2705 99.1719 15.4203 101.199C14.5707 103.227 15.3719 103.904 14.9831 105.932C14.5944 107.96 14.2546 112.254 14.3273 113.381C14.4 114.508 4.50579 114.721 2.24767 112.667C2.24767 112.667 4.51729 109.162 4.80857 108.661C5.09984 108.16 4.85762 105.431 4.58996 104.73C4.32291 104.029 2.5456 98.0673 2.5456 98.0673C2.5456 98.0673 1.09105 93.4885 2.40511 92.4363C3.54658 91.5216 6.65672 91.1969 7.21505 90.9958C7.77398 90.7966 9.39808 90.7092 10.5396 90.884Z" fill="#EDDAD3"/>
<path d="M11.0984 94.9022L12.1605 93.619L11.2383 90.2422C11.2383 90.2422 10.9282 92.1229 11.0984 94.9022Z" fill="#D6C5BE"/>
<path d="M11.3745 88.8041C11.3745 88.8041 11.3267 89.2562 11.2704 89.8812C11.2462 90.1579 11.2189 90.4694 11.1941 90.7904C11.1226 91.7008 11.0651 92.6867 11.099 93.1881C11.099 93.1881 9.28235 95.0658 7.21619 90.9971C7.21619 90.9971 8.08516 89.3199 7.43116 87.0352C6.77534 84.7504 11.3745 88.8041 11.3745 88.8041Z" fill="#EEA886"/>
<path d="M11.0984 93.1875V94.9028L9.00745 93.2918L11.0984 93.1875Z" fill="#EEA886"/>
<path d="M11.0984 94.9021L10.23 93.7944L7.30581 90.7891L6.35992 91.7288L11.0984 94.9021Z" fill="#D6C5BE"/>
<path d="M6.90014 91.0762C6.90014 91.0762 9.35385 94.9163 9.47133 96.606C9.58881 98.2957 8.55936 110.939 7.7352 115.003C6.91104 119.066 0.955994 114.544 0.955994 114.544C0.955994 114.544 4.95751 107.865 3.42182 102.517C1.88552 97.1698 1.3278 95.0312 1.3278 95.0312C1.3278 95.0312 1.85646 92.0528 3.72944 91.635C5.37111 91.2672 6.90014 91.0762 6.90014 91.0762Z" fill="#285173"/>
<path d="M16.4316 96.805C16.4316 96.805 16.8742 98.4198 15.1502 101.99C15.1502 101.99 15.1775 106.558 15.2259 107.985C15.2744 109.412 16.2529 114.545 16.2529 114.545L13.8967 115.838C13.5534 116.046 13.1277 115.757 13.1761 115.351C13.6587 111.243 15.2301 95.6649 11.8366 91.4775L13.1985 91.8915C13.1985 91.8915 15.6177 93.9321 16.4316 96.805Z" fill="#285173"/>
<path d="M12.1606 93.6197L13.4989 94.0012L11.2383 90.2422L12.1606 93.6197Z" fill="#FAE6DE"/>
<path d="M10.23 93.7944L9.0074 95.4466L6.49677 91.1319L7.30579 90.7891L10.23 93.7944Z" fill="#FAE6DE"/>
<path d="M12.359 100.197L12.0117 100.48L15.258 104.716L15.6053 104.433L12.359 100.197Z" fill="#EB4747"/>
<path d="M11.799 104.232C11.799 104.232 12.109 104.237 12.3131 104.079C12.6656 103.805 12.7921 103.13 13.414 103.18C14.0353 103.229 14.3242 105.24 14.1685 105.621C14.0129 106.001 13.1494 106.191 11.8735 105.929C10.5976 105.667 11.799 104.232 11.799 104.232Z" fill="#EEA886"/>
<path d="M13.2009 103.193C13.2009 103.193 14.0947 102.879 15.1266 102.649C16.0319 102.447 17.1134 102.381 17.2188 102.543C17.3357 102.723 16.3371 102.879 15.45 103.139C14.6337 103.378 14.8281 103.464 14.8281 103.464C14.8281 103.464 14.7742 103.437 15.7067 103.347C16.7089 103.251 17.7414 103.253 17.8431 103.46C17.8928 103.56 17.8577 103.628 17.4967 103.722C17.7135 103.712 17.7444 103.77 17.7523 103.86C17.7953 104.326 16.3335 104.696 15.7527 104.843C16.1996 104.733 16.5363 104.7 16.3759 105.012C16.1918 105.368 14.1056 105.8 13.3699 106.025C12.5675 106.271 13.2009 103.193 13.2009 103.193Z" fill="#EEA886"/>
<path d="M4.07458 91.7028C3.45933 91.4979 1.65477 92.158 1.34957 94.0655C1.04437 95.9738 0.922657 98.0918 0.63744 99.1196C0.352828 100.147 -0.372628 104.699 0.237167 105.077C0.847569 105.454 2.00297 105.8 3.62344 105.8C5.2972 105.8 11.7857 106.099 11.7857 106.099L12.1927 103.722C12.1927 103.722 9.72806 103.591 8.45094 103.392C7.31431 103.214 5.73865 102.715 3.88383 102.505C3.88383 102.505 4.27684 99.6846 4.56205 98.8885C4.84788 98.0924 6.84076 92.6256 4.07458 91.7028Z" fill="#285173"/>
<path d="M15.9435 103.906L16.2475 104.671L15.5959 104.19L15.9435 103.906Z" fill="#EEA886"/>
<path d="M12.3683 107.893L18.9047 106.556L23.7527 95.8604L16.7761 96.6159L12.3683 107.893Z" fill="#E8734D"/>
<path d="M19.7198 104.742C19.7198 104.742 20.0782 104.399 20.3974 103.918C20.7165 103.438 21.7611 101.604 21.6654 101.489C21.5697 101.374 20.0195 101.335 19.7379 101.596C19.4569 101.857 20.0147 101.96 20.0147 101.96C20.0147 101.96 19.1669 102.049 19.2274 102.296C19.288 102.543 19.7985 102.475 19.7985 102.475C19.7985 102.475 19.116 102.61 19.219 102.826C19.3225 103.044 19.6507 103.04 19.6507 103.04C19.6507 103.04 19.0464 103.119 19.1209 103.356C19.196 103.592 20.1521 103.815 20.0244 104.013C19.8966 104.209 19.7198 104.742 19.7198 104.742Z" fill="#EEA886"/>
<path d="M11.994 78.4138C11.994 78.4138 16.0676 79.7338 13.8561 86.9827C11.6446 94.2315 6.08198 86.1422 6.66392 81.7257C7.24526 77.3092 11.994 78.4138 11.994 78.4138Z" fill="#EEA987"/>
<path d="M14.2721 82.6431C14.2721 82.6431 12.2484 84.6912 8.86088 84.9472C8.86088 84.9472 7.55954 86.5214 7.45902 87.1389C7.45902 87.1389 4.43668 81.827 8.15177 78.6431C11.8669 75.4586 15.6377 81.3312 14.2721 82.6431Z" fill="#0E2D3D"/>
<path d="M8.90149 85.0914C8.87545 84.5638 8.56057 83.3631 7.79999 83.699C7.03941 84.0356 7.84661 86.4801 8.35104 86.3297C8.35104 86.3297 8.96387 86.3396 8.90149 85.0914Z" fill="#EEA987"/>
<path d="M11.2697 89.8801C11.2455 90.1567 11.2183 90.4683 11.1934 90.7892C8.83842 89.5903 8.47691 87.8613 8.46661 87.8076C10.144 90.0436 11.2697 89.8801 11.2697 89.8801Z" fill="#A77860"/>
<path d="M79.16 101.825C79.16 101.825 78.6319 106.022 81.5731 109.245C84.5137 112.467 91.1445 111.318 91.1445 111.318C91.1445 111.318 90.0479 107.509 87.6438 105.94C85.2404 104.37 80.5176 103.83 79.16 101.825Z" fill="#869135"/>
<path d="M82.5814 93.8672C82.5814 93.8672 80.1573 98.5728 82.2398 103.714C84.3223 108.855 92.6318 110.528 92.6318 110.528C92.6318 110.528 92.9745 105.538 90.8151 102.591C88.6545 99.6436 83.3201 96.8506 82.5814 93.8672Z" fill="#48753A"/>
<path d="M191.345 33.3711C191.345 33.3711 195.466 39.8175 191.989 43.2412C188.513 46.6649 188.103 42.8416 188.103 42.8416C188.103 42.8416 186.244 42.9677 189.94 38.6056C191.683 36.55 191.345 33.3711 191.345 33.3711Z" fill="#BBD070"/>
<path d="M202.377 30.0811C202.377 30.0811 205.317 35.9356 198.399 41.4223C191.482 46.909 191.515 50.6886 191.515 50.6886C191.515 50.6886 186.645 37.1188 202.377 30.0811Z" fill="#97A43C"/>
<path d="M190.628 48.1926C187.999 48.117 191.85 41.2328 196.132 39.836C200.413 38.4386 203.833 39.0193 206.439 37.3115C206.439 37.3115 203.575 48.5647 190.628 48.1926Z" fill="#48753A"/>
<path d="M86.1638 26.2598H85.611V94.4946H86.1638V26.2598Z" fill="#78C2FF"/>
<path d="M90.7437 75.3564H45.0593V75.9272H90.7437V75.3564Z" fill="#78C2FF"/>
<path d="M199.577 129.271H109.887C105.723 129.271 102.336 125.622 102.336 121.137V56.0207C102.336 51.5361 105.723 47.8877 109.887 47.8877H199.577C203.741 47.8877 207.128 51.5361 207.128 56.0207V121.137C207.128 125.622 203.741 129.271 199.577 129.271ZM109.887 48.572C106.089 48.572 103 51.9139 103 56.0207V121.137C103 125.244 106.089 128.586 109.887 128.586H199.577C203.375 128.586 206.464 125.244 206.464 121.137V56.0207C206.464 51.9133 203.375 48.572 199.577 48.572H109.887Z" fill="#4DA8F2"/>
<path d="M169.054 100.287C168.827 100.287 168.604 100.285 168.381 100.284L168.385 99.5999C169.362 99.6055 170.38 99.5986 171.368 99.5793L171.381 100.264C170.612 100.279 169.828 100.287 169.054 100.287ZM165.385 100.231C164.384 100.2 163.377 100.157 162.392 100.101L162.428 99.4176C163.407 99.4725 164.409 99.5162 165.406 99.5468L165.385 100.231ZM174.38 100.166L174.35 99.4819C175.348 99.4357 176.35 99.3757 177.327 99.3039L177.375 99.987C176.391 100.059 175.384 100.119 174.38 100.166ZM159.401 99.8921C157.523 99.7335 156.421 99.5849 156.41 99.583L156.497 98.9043C156.508 98.9055 157.597 99.0529 159.456 99.2096L159.401 99.8921ZM180.365 99.7229L180.299 99.0417C181.294 98.9386 182.291 98.8206 183.261 98.6895L183.347 99.3682C182.37 99.5006 181.367 99.6193 180.365 99.7229ZM186.316 98.9168L186.208 98.2418C187.197 98.0732 188.183 97.8884 189.138 97.6898L189.269 98.3604C188.306 98.5609 187.312 98.7482 186.316 98.9168ZM192.196 97.6923L192.039 97.0273C193.014 96.7838 193.981 96.5197 194.913 96.243L195.097 96.9005C194.156 97.1803 193.18 97.4469 192.196 97.6923ZM197.965 95.9727L197.751 95.3252C198.701 94.9911 199.64 94.6339 200.54 94.2618L200.787 94.8974C199.876 95.2733 198.926 95.6355 197.965 95.9727ZM203.549 93.6611L203.267 93.0417C204.174 92.6015 205.064 92.1338 205.912 91.6511L206.232 92.2499C205.372 92.7401 204.469 93.2146 203.549 93.6611ZM208.818 90.6527L208.455 90.0788C209.292 89.5175 210.106 88.9243 210.872 88.3155L211.276 88.8581C210.496 89.4775 209.669 90.0813 208.818 90.6527ZM213.581 86.8606L213.133 86.3561C213.862 85.6661 214.562 84.9393 215.213 84.1974L215.706 84.657C215.04 85.4151 214.326 86.1562 213.581 86.8606ZM217.617 82.2562L217.084 81.8484C217.669 81.0367 218.219 80.1868 218.721 79.322L219.291 79.6736C218.778 80.5577 218.215 81.4269 217.617 82.2562ZM220.709 76.933L220.109 76.6408C220.524 75.7348 220.903 74.79 221.236 73.8328L221.861 74.0645C221.52 75.0423 221.132 76.0076 220.709 76.933ZM222.749 71.1004L222.107 70.9274C222.35 69.9633 222.561 68.9624 222.73 67.9527L223.384 68.0688C223.21 69.0978 222.998 70.1175 222.749 71.1004ZM223.782 64.9979L223.121 64.9324C223.213 63.9414 223.273 62.9161 223.299 61.8852L223.964 61.9033C223.936 62.9505 223.875 63.9914 223.782 64.9979ZM223.285 58.8269C223.25 57.8309 223.187 56.8031 223.097 55.7716L223.758 55.7098C223.85 56.7532 223.914 57.7941 223.947 58.8025L223.285 58.8269ZM222.754 52.7294C222.62 51.741 222.458 50.7232 222.274 49.7048L222.926 49.5793C223.112 50.6071 223.276 51.6348 223.412 52.6339L222.754 52.7294ZM221.671 46.702C221.589 46.3329 221.505 45.9589 221.417 45.5893C221.271 44.9642 221.11 44.3429 220.939 43.7429L221.576 43.5499C221.75 44.1606 221.914 44.7925 222.063 45.4275C222.151 45.8003 222.237 46.1781 222.318 46.5496L221.671 46.702ZM219.995 40.8631C219.639 39.9102 219.243 38.9742 218.816 38.0813L219.412 37.7791C219.847 38.6907 220.252 39.6455 220.614 40.617L219.995 40.8631ZM16.018 36.6483L15.4142 36.3641C15.8321 35.4188 16.2651 34.4797 16.7004 33.5736L17.2951 33.8777C16.8633 34.7769 16.4334 35.7091 16.018 36.6483ZM217.392 35.4263C216.877 34.5671 216.316 33.7266 215.724 32.9292L216.251 32.5134C216.856 33.3289 217.43 34.1881 217.957 35.0666L217.392 35.4263ZM18.6606 31.1528L18.0763 30.8281C18.5547 29.9127 19.0494 29.0067 19.5472 28.1344L20.1194 28.4815C19.6259 29.3464 19.1354 30.2449 18.6606 31.1528ZM213.821 30.6158C213.159 29.8871 212.448 29.1771 211.708 28.5071L212.147 27.9932C212.903 28.6782 213.629 29.4032 214.306 30.1481L213.821 30.6158ZM209.407 26.6064C208.629 26.0207 207.802 25.4519 206.95 24.9168L207.295 24.3323C208.163 24.878 209.004 25.4569 209.798 26.0532L209.407 26.6064ZM21.6775 25.8721L21.1198 25.5012C21.6654 24.6276 22.231 23.7653 22.7984 22.938L23.3404 23.3339C22.7778 24.1531 22.2183 25.0073 21.6775 25.8721ZM204.368 23.4294C203.512 22.9779 202.611 22.5408 201.688 22.13L201.95 21.5018C202.886 21.9183 203.802 22.3623 204.67 22.8206L204.368 23.4294ZM198.931 21.001C198.027 20.6607 197.08 20.3323 196.117 20.0245L196.313 19.3707C197.286 19.6817 198.245 20.0138 199.159 20.3579L198.931 21.001ZM25.1128 20.8774L24.5896 20.4559C25.2097 19.6379 25.8516 18.8337 26.4965 18.0657L26.9985 18.514C26.3597 19.2733 25.7257 20.0682 25.1128 20.8774ZM193.258 19.1821C192.327 18.9299 191.354 18.6863 190.366 18.4578L190.511 17.7897C191.508 18.0195 192.488 18.2649 193.427 18.5196L193.258 19.1821ZM187.45 17.8371C186.503 17.6511 185.515 17.4719 184.515 17.3051L184.621 16.6295C185.627 16.7981 186.621 16.9779 187.573 17.1646L187.45 17.8371ZM181.566 16.8499C180.613 16.7144 179.618 16.5833 178.608 16.4603L178.685 15.7803C179.699 15.9033 180.699 16.0351 181.656 16.1712L181.566 16.8499ZM28.9999 16.2555L28.5221 15.7803C29.2209 15.0341 29.9428 14.3054 30.6688 13.6136L31.1194 14.1169C30.403 14.7994 29.6896 15.5193 28.9999 16.2555ZM175.641 16.1269C174.687 16.0276 173.687 15.9314 172.669 15.8403L172.728 15.1584C173.748 15.2496 174.751 15.3463 175.708 15.4456L175.641 16.1269ZM169.693 15.593C168.746 15.5199 167.744 15.4469 166.714 15.3769L166.757 14.6938C167.789 14.7638 168.793 14.8368 169.743 14.9105L169.693 15.593ZM163.733 15.1852C162.743 15.1247 161.751 15.0672 160.757 15.0123L160.793 14.3285C161.788 14.3841 162.781 14.4416 163.771 14.5021L163.733 15.1852ZM157.776 14.8512C156.829 14.8012 155.88 14.7519 154.932 14.7026L154.79 14.6951L154.824 14.0113L154.965 14.0188C155.914 14.0682 156.863 14.1175 157.81 14.1674L157.776 14.8512ZM151.799 14.5396C150.8 14.4865 149.801 14.4328 148.804 14.3772L148.84 13.6935C149.837 13.7491 150.834 13.8028 151.833 13.8559L151.799 14.5396ZM145.817 14.2037C144.764 14.1393 143.787 14.0769 142.831 14.012L142.874 13.3289C143.829 13.3938 144.805 13.4569 145.855 13.5206L145.817 14.2037ZM139.846 13.7953C138.821 13.7154 137.817 13.6323 136.862 13.5474L136.919 12.8655C137.872 12.9505 138.873 13.0335 139.895 13.1128L139.846 13.7953ZM133.881 13.2608C132.864 13.1553 131.863 13.0435 130.904 12.928L130.981 12.248C131.937 12.3635 132.935 12.4753 133.947 12.5796L133.881 13.2608ZM127.932 12.5396C126.921 12.3972 125.923 12.2442 124.969 12.0863L125.073 11.4107C126.024 11.568 127.016 11.7191 128.022 11.8615L127.932 12.5396ZM33.3557 12.11L32.9354 11.5805C33.7105 10.9261 34.5123 10.2911 35.3183 9.69289L35.7064 10.2486C34.9107 10.8374 34.1205 11.4644 33.3557 12.11ZM122.015 11.5586C121.014 11.3651 120.025 11.1578 119.076 10.943L119.218 10.2742C120.16 10.4878 121.142 10.6932 122.136 10.8855L122.015 11.5586ZM116.158 10.2274C115.724 10.1125 115.289 9.99261 114.863 9.87147L113.272 9.41877L113.448 8.75876L115.039 9.21146C115.461 9.33135 115.893 9.44999 116.324 9.56426L116.158 10.2274ZM110.392 8.60391C109.433 8.33416 108.472 8.06504 107.51 7.79841L107.682 7.13716C108.646 7.40441 109.607 7.67353 110.567 7.94328L110.392 8.60391ZM38.1644 8.54271L37.812 7.96263C38.6579 7.41564 39.5317 6.89051 40.4086 6.40159L40.7241 7.00353C39.86 7.48558 38.9989 8.00322 38.1644 8.54271ZM104.624 7.00665C103.63 6.73691 102.657 6.47777 101.735 6.23488L101.898 5.57175C102.823 5.81465 103.797 6.07503 104.793 6.34478L104.624 7.00665ZM43.3752 5.63731L43.0979 5.01539C44.0001 4.58642 44.9315 4.18118 45.8665 3.8084L46.1057 4.44718C45.1834 4.81433 44.2654 5.21458 43.3752 5.63731ZM98.8388 5.4887C97.8517 5.23956 96.8749 4.99853 95.9369 4.77312L96.0877 4.10625C97.0287 4.33229 98.0073 4.57393 98.9968 4.8237L98.8388 5.4887ZM93.0266 4.09313C92.0389 3.86959 91.0574 3.65479 90.109 3.4556L90.2417 2.78498C91.193 2.9848 92.1782 3.20022 93.1695 3.42439L93.0266 4.09313ZM48.9009 3.435L48.7005 2.78249C49.6427 2.47403 50.6152 2.18804 51.5896 1.93266L51.7531 2.59641C50.7909 2.84805 49.8311 3.13029 48.9009 3.435ZM87.1824 2.86678C86.1911 2.67634 85.2028 2.49713 84.246 2.33353L84.355 1.65791C85.3161 1.82276 86.308 2.00259 87.3035 2.19366L87.1824 2.86678ZM54.6495 1.92454L54.5217 1.25267C55.4888 1.05723 56.4861 0.883017 57.4853 0.735655L57.5792 1.41314C56.5909 1.55926 55.6056 1.73097 54.6495 1.92454ZM81.3006 1.8621C80.3039 1.71474 79.3096 1.57987 78.3467 1.46185L78.4248 0.78186C79.3937 0.900499 80.3929 1.036 81.3951 1.18461L81.3006 1.8621ZM75.3849 1.1409C74.3846 1.04724 73.3854 0.968562 72.4159 0.907994L72.4559 0.224883C73.432 0.286076 74.4378 0.365376 75.4449 0.459663L75.3849 1.1409ZM60.5312 1.05348L60.4689 0.372245C61.4462 0.277334 62.4533 0.202402 63.4621 0.150575L63.4954 0.834311C62.4969 0.885513 61.4995 0.959197 60.5312 1.05348ZM69.4426 0.77187C68.6941 0.75064 67.9432 0.740023 67.2123 0.740023C66.9641 0.740023 66.7158 0.741275 66.4681 0.743773L66.4621 0.0594133C66.7115 0.0569156 66.9622 0.0556641 67.2123 0.0556641C67.9499 0.0556641 68.7062 0.0662807 69.4608 0.0875108L69.4426 0.77187Z" fill="#C2BEBC"/>
<path d="M217.408 32.9931C216.952 31.1735 216.253 29.4551 215.35 27.876L217.445 24.6259L214.538 21.6281L211.631 18.6303L208.479 20.7908C206.947 19.8591 205.281 19.1386 203.517 18.6684L202.77 14.8457H198.659H194.548L193.802 18.6684C192.038 19.1386 190.37 19.8598 188.839 20.7908L185.688 18.6303L182.78 21.6281L179.873 24.6259L181.968 27.876C181.065 29.4558 180.366 31.1742 179.91 32.9931L176.203 33.7624V38.0021V42.2419L179.91 43.0112C180.366 44.8307 181.065 46.5491 181.968 48.1283L179.873 51.3784L182.78 54.3762L185.688 57.374L188.839 55.2129C190.37 56.1439 192.038 56.8651 193.802 57.3353L194.548 61.1579H198.659H202.77L203.517 57.3353C205.281 56.8657 206.947 56.1439 208.479 55.2129L211.631 57.374L214.538 54.3762L217.445 51.3784L215.35 48.1283C216.253 46.5491 216.953 44.8307 217.408 43.0112L221.115 42.2419V38.0021V33.7624L217.408 32.9931ZM198.658 52.8576C190.702 52.8576 184.252 46.2069 184.252 38.0021C184.252 29.7973 190.702 23.1467 198.658 23.1467C206.616 23.1467 213.065 29.7973 213.065 38.0021C213.066 46.2069 206.616 52.8576 198.658 52.8576Z" fill="#73C0FF"/>
<path d="M198.658 47.6293V112.745C198.658 117.048 195.275 120.537 191.102 120.537H97.211C93.0375 120.537 89.6542 117.047 89.6542 112.745V47.6293C89.6542 43.3259 93.0375 39.8379 97.211 39.8379H191.102C195.275 39.8385 198.658 43.3259 198.658 47.6293Z" fill="#DAE8F5"/>
<path d="M140.208 60.2175C136.86 50.5653 127.914 44.6365 118.485 44.9293C116.202 44.9999 113.892 45.4357 111.624 46.2712C104.756 48.8044 99.8312 54.4454 97.8081 61.1092C96.4056 65.7273 96.3965 70.8376 98.0993 75.7461C98.2683 76.2337 98.453 76.7145 98.6498 77.1835C99.5454 79.3096 100.72 81.2328 102.116 82.9231C107.967 90.0165 117.676 93.0143 126.683 89.693C138.312 85.4039 144.367 72.2075 140.208 60.2175ZM124.8 84.2581C118.047 86.7489 110.768 84.501 106.38 79.1835C105.334 77.9159 104.452 76.4741 103.782 74.8794C103.634 74.5272 103.495 74.1675 103.368 73.8016C102.092 70.122 102.099 66.2906 103.15 62.8288C104.667 57.8316 108.359 53.6024 113.508 51.7042C115.208 51.0773 116.941 50.7514 118.652 50.697C125.721 50.4766 132.429 54.9225 134.939 62.1594C138.057 71.1498 133.517 81.043 124.8 84.2581Z" fill="#78C2FF"/>
<path d="M103.15 62.8298L97.808 61.1095C99.8312 54.4458 104.756 48.8042 111.624 46.2716C113.892 45.4355 116.202 45.0002 118.485 44.9297L118.652 50.698C116.941 50.7517 115.208 51.0783 113.508 51.7052C108.359 53.6028 104.667 57.8326 103.15 62.8298Z" fill="#1A598C"/>
<path d="M103.782 74.8799L98.6497 77.1827C98.4523 76.7138 98.2682 76.2336 98.0993 75.7453C96.3964 70.8368 96.4055 65.7272 97.808 61.1084L103.15 62.8287C102.099 66.2904 102.092 70.1218 103.368 73.8015C103.496 74.168 103.634 74.5277 103.782 74.8799Z" fill="#2273B5"/>
<path d="M102.117 82.9224C100.721 81.2321 99.546 79.3089 98.6504 77.1827L103.782 74.8799C104.453 76.474 105.335 77.9164 106.38 79.184L102.117 82.9224Z" fill="#4DA8F2"/>
<path d="M103.508 116.078C108.062 118.299 113.328 117.119 116.605 113.53C117.398 112.66 118.075 111.651 118.598 110.514C120.178 107.068 119.983 103.227 118.392 100.092C117.289 97.9192 115.517 96.084 113.201 94.9545C112.971 94.8414 112.737 94.7372 112.504 94.6422C111.445 94.2114 110.355 93.9566 109.268 93.8667C104.706 93.4871 100.185 95.9997 98.1114 100.518C95.4343 106.352 97.8504 113.318 103.508 116.078ZM100.675 101.769C102.229 98.3812 105.619 96.4974 109.039 96.7821C109.854 96.8496 110.671 97.04 111.465 97.3647C111.641 97.4353 111.815 97.5133 111.988 97.5976C113.724 98.4449 115.053 99.8205 115.879 101.45C117.072 103.801 117.219 106.68 116.033 109.263C115.642 110.116 115.135 110.873 114.54 111.525C112.083 114.216 108.135 115.102 104.72 113.436C100.48 111.366 98.6679 106.143 100.675 101.769Z" fill="#6EB2EB"/>
<path d="M115.88 101.451L118.392 100.093C119.983 103.228 120.178 107.07 118.598 110.515C118.076 111.652 117.399 112.662 116.605 113.531L114.541 111.526C115.135 110.874 115.643 110.116 116.034 109.264C117.22 106.682 117.073 103.801 115.88 101.451Z" fill="#1A598C"/>
<path d="M111.465 97.3654L112.504 94.6436C112.737 94.7385 112.97 94.8427 113.2 94.9558C115.516 96.0853 117.288 97.9199 118.391 100.093L115.879 101.451C115.052 99.8218 113.724 98.4456 111.988 97.5989C111.815 97.514 111.641 97.4359 111.465 97.3654Z" fill="#2273B5"/>
<path d="M109.267 93.8682C110.355 93.9587 111.444 94.2135 112.504 94.6437L111.465 97.3655C110.671 97.0408 109.854 96.851 109.039 96.7829L109.267 93.8682Z" fill="#4DA8F2"/>
<path d="M198.658 47.6297V112.745C198.658 117.048 195.275 120.537 191.102 120.537H149.533V39.8389H191.102C195.275 39.8389 198.658 43.3262 198.658 47.6297Z" fill="#4DA8F2"/>
<path d="M191.361 52.3131H156.832C156.288 52.3131 155.846 51.8579 155.846 51.2965V49.2285C155.846 48.6671 156.287 48.2119 156.832 48.2119H191.361C191.905 48.2119 192.346 48.6671 192.346 49.2285V51.2965C192.346 51.8585 191.905 52.3131 191.361 52.3131Z" fill="#E3F2FF"/>
<path d="M191.361 61.109H156.832C156.288 61.109 155.846 60.6538 155.846 60.0924V58.0244C155.846 57.463 156.287 57.0078 156.832 57.0078H191.361C191.905 57.0078 192.346 57.463 192.346 58.0244V60.0924C192.346 60.6538 191.905 61.109 191.361 61.109Z" fill="#73C0FF"/>
<path d="M189.032 113.465H159.161C157.33 113.465 155.846 111.936 155.846 110.047V70.5138C155.846 68.6261 157.329 67.0957 159.161 67.0957H189.032C190.862 67.0957 192.346 68.6261 192.346 70.5138V110.047C192.346 111.936 190.862 113.465 189.032 113.465Z" fill="#73C0FF"/>
<g opacity="0.58">
<path d="M162.357 99.4896H157.546C155.295 99.4896 153.471 97.6082 153.471 95.2885V69.3247C153.471 67.0044 155.295 65.123 157.546 65.123H162.357C164.608 65.123 166.432 67.0038 166.432 69.3247V95.2885C166.432 97.6082 164.608 99.4896 162.357 99.4896Z" fill="#E0F1FF"/>
</g>
<path d="M152.365 36.1113H69.0648V36.682H152.365V36.1113Z" fill="#78C2FF"/>
<path d="M77.4075 31.3938C74.9453 31.3938 72.9421 29.3282 72.9421 26.79C72.9421 24.2511 74.9453 22.1855 77.4075 22.1855C79.8691 22.1855 81.8723 24.2511 81.8723 26.79C81.8723 29.3282 79.8691 31.3938 77.4075 31.3938ZM77.4075 22.8705C75.3111 22.8705 73.6064 24.6283 73.6064 26.79C73.6064 28.9511 75.3117 30.7094 77.4075 30.7094C79.5033 30.7094 81.2086 28.9511 81.2086 26.79C81.208 24.6283 79.5033 22.8705 77.4075 22.8705Z" fill="#4DA8F2"/>
<path d="M65.441 83.8556C65.441 83.8556 69.6115 84.6236 69.6485 88.2658C69.6854 91.908 66.4541 97.1824 64.3535 96.7922C62.2534 96.4019 59.8645 94.4793 59.9456 92.2639C60.0268 90.0485 60.622 87.1375 61.5903 85.5402C62.5586 83.943 64.2754 83.7769 65.441 83.8556Z" fill="#EEA886"/>
<path d="M60.091 90.5787C60.091 90.5787 60.0989 91.3218 61.5335 91.9106C62.968 92.4994 65.6034 91.6752 66.2647 91.8119C66.9265 91.9487 67.1221 91.619 67.1221 91.619L67.1688 92.3458L67.7295 92.7386C67.7295 92.7386 68.1225 90.8035 69.3009 90.6355C70.4787 90.4669 71.4609 84.9128 66.3797 83.8619C66.3797 83.8619 62.6186 82.8079 61.6479 84.7767C60.6778 86.7448 59.9093 89.1925 60.091 90.5787Z" fill="#E8734D"/>
<g opacity="0.82">
<path d="M91.17 153.9H58.4911C55.7976 153.9 53.6133 151.648 53.6133 148.871V115.174C53.6133 112.397 55.797 110.145 58.4911 110.145H91.17C93.8635 110.145 96.0471 112.396 96.0471 115.174V148.871C96.0471 151.648 93.8635 153.9 91.17 153.9Z" fill="#87C9FF"/>
</g>
<path d="M92.7595 44.2223V68.6881C92.7595 71.1089 90.8562 73.0715 88.5085 73.0715H54.5755C52.2278 73.0715 50.3245 71.1089 50.3245 68.6881V44.2223C50.3245 41.8008 52.2278 39.8389 54.5755 39.8389H88.5085C90.8562 39.8389 92.7595 41.8008 92.7595 44.2223Z" fill="#E3F2FF"/>
<path d="M91.8101 121.284H77.3209C76.7705 121.284 76.3242 120.823 76.3242 120.255V117.605C76.3242 117.037 76.7705 116.576 77.3209 116.576H91.8101C92.3605 116.576 92.8068 117.036 92.8068 117.605V120.255C92.8074 120.823 92.3605 121.284 91.8101 121.284Z" fill="#E3F2FF"/>
<path d="M90.5117 148.621H78.6192C77.3518 148.621 76.3242 147.562 76.3242 146.255V126.042C76.3242 124.735 77.3518 123.676 78.6192 123.676H90.5117C91.7792 123.676 92.8068 124.735 92.8068 126.042V146.255C92.8074 147.561 91.7792 148.621 90.5117 148.621Z" fill="#E3F2FF"/>
<path d="M63.1479 129.847C63.8806 130.103 64.6654 130.246 65.4823 130.257C67.956 130.29 70.1681 129.098 71.576 127.227C72.5515 125.93 73.1408 124.308 73.1619 122.54C73.1644 122.364 73.1607 122.188 73.1523 122.016C73.1117 121.23 72.9585 120.476 72.709 119.768C71.6632 116.8 68.9218 114.664 65.6785 114.62C63.9302 114.597 62.314 115.184 61.0187 116.192C59.2093 117.599 58.0285 119.822 57.9976 122.338C57.954 125.814 60.1177 128.79 63.1479 129.847ZM59.8942 122.364C59.9172 120.491 60.791 118.834 62.1311 117.779C63.1073 117.009 64.3299 116.56 65.653 116.577C68.085 116.609 70.1402 118.211 70.925 120.437L70.9262 120.441C71.1127 120.97 71.2272 121.535 71.2575 122.122C71.2641 122.251 71.2659 122.383 71.2647 122.515C71.2484 123.84 70.8057 125.056 70.0754 126.028C69.0199 127.432 67.3619 128.326 65.5071 128.301C64.8943 128.293 64.3063 128.185 63.7558 127.994C61.485 127.202 59.8621 124.971 59.8942 122.364Z" fill="#E3F2FF"/>
<path d="M70.0748 126.027L71.5754 127.226C70.168 129.097 67.9559 130.289 65.4822 130.257C64.6653 130.245 63.8812 130.102 63.1478 129.846L63.7564 127.992C64.3063 128.184 64.8943 128.291 65.5071 128.299C67.3613 128.325 69.0199 127.43 70.0748 126.027Z" fill="#1A598C"/>
<path d="M71.2569 122.12L73.1523 122.014C73.1614 122.187 73.1644 122.362 73.1626 122.538C73.1402 124.305 72.5516 125.929 71.576 127.226L70.0754 126.027C70.807 125.055 71.2484 123.838 71.2647 122.513C71.266 122.381 71.2635 122.25 71.2569 122.12Z" fill="#2273B5"/>
<path d="M71.2575 122.121C71.2266 121.533 71.1122 120.968 70.9263 120.439L70.925 120.436L72.709 119.768C72.9585 120.476 73.1117 121.23 73.1523 122.015L71.2575 122.121Z" fill="#2273B5"/>
<path d="M61.0187 116.192C62.314 115.184 63.9303 114.596 65.6785 114.62C68.9219 114.664 71.6632 116.8 72.709 119.768L70.9263 120.44L70.925 120.437C70.1408 118.211 68.0856 116.608 65.6531 116.576C64.3299 116.559 63.1073 117.009 62.1311 117.778L61.0187 116.192Z" fill="#4DA8F2"/>
<path d="M9.70685 54.6461L18.8477 39.9199L14.2049 42.0904L9.70685 54.6461Z" fill="#D6D6D6"/>
<path d="M9.70685 54.6457L10.2652 45.7703L13.5854 43.8184L9.70685 54.6457Z" fill="#E8E8E8"/>
<path d="M16.7452 43.3066L17.8867 44.8577L9.70685 54.646L16.7452 43.3066Z" fill="#C2C2C2"/>
<path d="M73.2122 112.39C73.2122 112.39 73.6209 112.335 73.8589 112.085C74.2695 111.654 74.3076 110.742 75.1342 110.68C75.9608 110.618 76.7238 113.203 76.5918 113.735C76.4598 114.266 75.3613 114.692 73.6337 114.607C71.9066 114.52 73.2122 112.39 73.2122 112.39Z" fill="#EEA886"/>
<path d="M74.8569 110.742C74.8569 110.742 75.9717 110.148 77.284 109.636C78.4351 109.187 79.8588 108.868 80.0132 109.072C80.3566 109.526 79.014 109.845 77.898 110.366C76.8704 110.846 77.0472 110.77 77.0472 110.77C77.0472 110.77 76.9715 110.743 78.1796 110.437C79.4791 110.107 80.8362 109.9 81.0093 110.15C81.0935 110.272 81.2455 110.698 80.6999 110.68C80.9833 110.623 80.9391 110.579 80.967 110.695C81.1123 111.298 79.2611 112.082 78.5259 112.393C79.0921 112.158 79.5287 112.045 79.3768 112.487C79.203 112.994 76.5434 113.985 75.6187 114.431C74.611 114.916 74.8569 110.742 74.8569 110.742Z" fill="#EEA886"/>
<path d="M55.1055 94.5807C55.1055 94.5807 52.4991 94.3859 50.6601 94.5807C48.821 94.7743 46.2795 96.3266 44.7413 96.7749C43.2032 97.2233 39.4918 99.7952 39.5917 100.147C39.6922 100.498 41.1298 104.684 43.7882 108.084C46.0639 110.994 55.1055 94.5807 55.1055 94.5807Z" fill="#D4D8E8"/>
<path d="M49.4822 96.2686C49.4822 96.2686 46.6724 98.4134 45.6944 100.379C44.7165 102.344 44.3828 104.686 44.3828 104.686L49.4822 96.2686Z" fill="#A9ADBA"/>
<path d="M51.6114 160.14C51.6114 160.14 52.4144 161.019 52.8782 161.252C53.3421 161.485 58.8847 162.468 59.2608 162.932C59.6368 163.398 59.6368 165.234 58.2071 165.234C56.778 165.234 52.0129 165.208 51.2099 165.234C50.4075 165.259 47.0176 165.958 46.6682 165.234C46.3194 164.51 46.3515 161.131 46.9716 160.321C47.5917 159.511 51.6114 160.14 51.6114 160.14Z" fill="#1C4154"/>
<path d="M51.4406 159.114L51.6113 160.141C51.6113 160.141 50.132 160.839 46.9716 160.322V159.262L51.4406 159.114Z" fill="#2A617D"/>
<path d="M17.7819 157.296C17.7819 157.296 17.1613 158.039 16.8542 159.002C16.658 159.619 15.7255 162.494 16.127 163.192C16.5284 163.89 19.6882 163.993 21.2681 163.735C22.848 163.476 26.284 164.019 26.6352 163.321C26.9864 162.623 27.1868 161.604 26.1586 161.208C25.1304 160.813 22.7729 159.778 22.3466 158.692C21.9197 157.606 17.7819 157.296 17.7819 157.296Z" fill="#1C4154"/>
<path d="M22.7845 157.529L22.3461 158.692C22.3461 158.692 17.8189 158.342 17.7814 157.296L19.2111 155.149L22.7845 157.529Z" fill="#2A617D"/>
<path d="M59.9523 92.5996C59.9523 92.5996 57.4289 94.8094 56.7107 94.6289C55.9925 94.4485 59.185 99.3033 59.185 99.3033C59.185 99.3033 62.2249 96.2181 62.9098 96.1244C63.5947 96.0308 59.9523 92.5996 59.9523 92.5996Z" fill="#EEA886"/>
<path d="M60.1237 101.325C59.2644 101.86 59.1202 102.033 59.2208 104.567C59.3207 107.101 60.341 109.144 60.4161 109.842C60.4912 110.54 61.8562 117.466 62.2328 117.854C62.6089 118.241 67.1051 117.338 68.0147 117.048C69.376 116.612 75.1372 114.6 75.1372 114.6L73.8698 111.875C73.8698 111.875 66.597 113.548 66.3627 112.962C66.129 112.376 65.5591 107.453 65.3587 106.384C65.1583 105.315 65.5077 103.636 64.2693 101.1C63.1599 98.8302 60.1237 101.325 60.1237 101.325Z" fill="#D4D8E8"/>
<path d="M51.5956 120.394C51.5956 120.394 53.1367 122.085 53.5685 122.635C56.5212 126.397 60.5403 133.307 61.0417 134.513C61.5437 135.719 58.5571 144.254 57.3302 147.235C56.6865 148.8 52.4313 159.571 52.5651 159.812C52.6989 160.054 48.0634 160.213 45.9906 159.11C45.9906 159.11 48.9711 150.003 49.5991 148.218C50.5474 145.522 53.8356 138.054 53.9361 137.33C54.036 136.605 48.6205 130.634 46.8147 129.496C45.009 128.359 40.5951 124.324 40.0937 123.807C39.5923 123.29 36.7498 121.911 37.0174 119.29C37.2851 116.67 39.1744 114.602 39.1744 114.602L51.5956 120.394Z" fill="#326EA0"/>
<path d="M43.4927 126.877C43.4927 126.877 43.2105 127.642 42.8145 128.715C41.9637 131.018 40.5897 134.736 40.3608 135.324C40.0265 136.186 38.3545 139.91 37.5516 140.634C36.7492 141.358 23.5414 157.702 23.5075 157.84C23.4748 157.978 18.5589 155.356 18.2579 154.357C18.2579 154.357 25.4132 144.737 26.5171 143.324C27.6204 141.909 29.9276 139.807 30.6973 136.462C31.4669 133.117 36.9817 120.257 36.9993 119.773C36.9993 119.773 37.8871 115.808 39.1739 114.602C40.4607 113.394 45.1428 114.809 45.878 117.325C46.6143 119.843 43.4927 126.877 43.4927 126.877Z" fill="#326EA0"/>
<path d="M56.4824 94.6052L57.5482 94.1719C57.5482 94.1719 60.2399 94.8094 61.795 97.0336L61.6611 97.6986C61.6611 97.6986 57.5567 96.7801 56.4824 94.6052Z" fill="#D4D8E8"/>
<path d="M60.5924 110.796C60.3762 111.107 60.2012 111.328 60.0898 111.43C60.0135 111.498 59.9214 111.578 59.8149 111.667C59.8143 111.668 59.813 111.668 59.813 111.668L59.7119 107.497C59.7119 107.497 60.2194 109.104 60.2945 109.342C60.3708 109.581 60.5924 110.796 60.5924 110.796Z" fill="#A9ADBA"/>
<path d="M43.4927 126.877C43.4927 126.877 43.2105 127.642 42.8145 128.715C41.9158 127.648 39.8642 123.616 39.8642 123.616C39.998 123.715 40.4274 124.13 40.5267 124.223C40.6248 124.316 43.4927 126.877 43.4927 126.877Z" fill="#215B8A"/>
<path d="M66.4633 91.4839C66.5584 91.1679 66.3289 89.9603 65.5816 90.6478C64.8343 91.3353 64.8374 92.8757 65.2588 93.0018C65.6815 93.1273 66.2235 92.285 66.4633 91.4839Z" fill="#EEA886"/>
<path d="M63.6686 84.7036C63.6686 84.7036 60.0492 82.0498 60.0298 91.0976L63.6686 84.7036Z" fill="#E8734D"/>
<path d="M60.5924 110.796C60.3762 111.106 60.2012 111.328 60.0898 111.429C60.0135 111.497 59.9215 111.577 59.8149 111.666C59.8143 111.667 59.8131 111.667 59.8131 111.667C58.7915 112.51 56.5007 114.147 55.4422 114.739C54.2716 115.396 52.0523 120.916 52.0523 120.916C52.0523 120.916 41.5816 120.187 39.1739 114.603C39.1739 114.603 40.8791 110.672 42.4342 108.344C43.9887 106.017 47.3998 97.6379 49.2055 96.4484C51.0113 95.2589 52.5664 94.4828 56.1277 94.5864C59.6889 94.6901 61.6618 97.6036 61.6618 97.6036C61.6618 97.6036 64.3705 100.604 64.6375 102.19C64.8683 103.553 61.9277 108.877 60.5924 110.796Z" fill="#D4D8E8"/>
<path d="M92.7595 44.2223L92.6857 46.6556H50.2513L50.3252 44.2223C50.3252 41.8008 52.2284 39.8389 54.5762 39.8389H88.5091C90.8563 39.8389 92.7595 41.8008 92.7595 44.2223Z" fill="#4DA8F2"/>
<path d="M63.6353 70.2723H55.0976C53.9942 70.2723 53.0968 69.3469 53.0968 68.2092V50.6588C53.0968 49.5211 53.9942 48.5957 55.0976 48.5957H63.6353C64.7386 48.5957 65.6361 49.5211 65.6361 50.6588V68.2092C65.6367 69.3469 64.7386 70.2723 63.6353 70.2723ZM55.0976 49.2801C54.36 49.2801 53.7605 49.8982 53.7605 50.6588V68.2092C53.7605 68.9691 54.36 69.5879 55.0976 69.5879H63.6353C64.3723 69.5879 64.9724 68.9697 64.9724 68.2092V50.6588C64.9724 49.8989 64.3723 49.2801 63.6353 49.2801H55.0976Z" fill="#78C2FF"/>
<path d="M88.907 50.7633H68.5658C68.1982 50.7633 67.9009 50.4567 67.9009 50.0777V49.6231C67.9009 49.2447 68.1982 48.9375 68.5658 48.9375H88.907C89.274 48.9375 89.5719 49.2447 89.5719 49.6231V50.0777C89.5719 50.4567 89.2746 50.7633 88.907 50.7633Z" fill="#78C2FF"/>
<path d="M88.907 54.4693H68.5658C68.1982 54.4693 67.9009 54.1628 67.9009 53.7837V53.3292C67.9009 52.9508 68.1982 52.6436 68.5658 52.6436H88.907C89.274 52.6436 89.5719 52.9508 89.5719 53.3292V53.7837C89.5719 54.1628 89.2746 54.4693 88.907 54.4693Z" fill="#78C2FF"/>
<path d="M138.3 100.703H124.866C124.298 100.703 123.839 100.228 123.839 99.6432V97.504C123.839 96.9183 124.298 96.4443 124.866 96.4443H138.3C138.868 96.4443 139.328 96.9189 139.328 97.504V99.6432C139.328 100.229 138.867 100.703 138.3 100.703Z" fill="#6EB2EB"/>
<path d="M138.3 107.646H124.866C124.298 107.646 123.839 107.172 123.839 106.587V104.447C123.839 103.862 124.298 103.388 124.866 103.388H138.3C138.868 103.388 139.328 103.862 139.328 104.447V106.587C139.328 107.172 138.867 107.646 138.3 107.646Z" fill="#4DA8F2"/>
<path d="M138.3 114.59H124.866C124.298 114.59 123.839 114.115 123.839 113.53V111.391C123.839 110.805 124.298 110.331 124.866 110.331H138.3C138.868 110.331 139.328 110.806 139.328 111.391V113.53C139.328 114.115 138.867 114.59 138.3 114.59Z" fill="#2273B5"/>
<path d="M57.1171 43.5371C57.1171 44.5874 56.2911 45.4384 55.2732 45.4384C54.2546 45.4384 53.4293 44.5874 53.4293 43.5371C53.4293 42.4868 54.2546 41.6357 55.2732 41.6357C56.2911 41.6357 57.1171 42.4868 57.1171 43.5371Z" fill="#E3F2FF"/>
<path d="M195.828 109.269C195.828 109.269 203.325 111.764 205.055 111.325C205.97 111.092 207.4 109.754 208.73 108.312C208.949 108.073 209.166 107.831 209.378 107.591C210.844 105.929 212.041 104.344 212.041 104.344C212.041 104.344 215.672 99.9566 212.759 98.001C212.759 98.001 211.473 98.1259 210.502 99.1992C209.53 100.273 208.619 101.983 208.365 102.556C208.11 103.129 204.544 108.432 204.359 108.552C204.174 108.67 202.616 108.249 201.367 108.141C199.33 107.967 196.281 106.896 196.281 106.896L195.828 109.269Z" fill="#2273B5"/>
<path d="M206.133 156.892C206.133 156.892 205.179 158.651 204.612 159.008C203.906 159.452 202.535 160.877 202.056 160.944C201.578 161.01 199.858 161.324 200.19 162.326C200.462 163.147 204.567 163.029 205.029 162.617C205.492 162.207 206.875 160.73 207.434 160.763C207.993 160.796 207.786 162.892 207.786 162.892H208.392C208.392 162.892 208.604 160.852 208.629 160.501C208.705 159.464 207.987 158.699 207.956 158.107C207.923 157.515 207.891 157.073 207.891 157.073L206.133 156.892Z" fill="#16202E"/>
<path d="M202.195 160.896C202.195 160.896 203.547 161.377 204.588 160.76C205.629 160.144 207.627 159.207 208.334 159.2C208.334 159.2 207.949 157.985 207.941 157.849C207.933 157.713 207.891 157.073 207.891 157.073L206.144 156.784C206.144 156.784 205.011 158.499 204.511 158.904C204.012 159.307 202.733 160.315 202.195 160.896Z" fill="#EEA886"/>
<path d="M222.627 158.547C222.627 158.547 222.458 159.765 222.274 160.097C222.09 160.429 221.584 162.122 221.354 162.438C221.124 162.754 220.617 165.127 221.354 165.411C222.09 165.696 223.823 166.17 224.406 165.221C224.989 164.271 225.065 163.323 224.974 162.596C224.882 161.869 224.182 158.529 224.191 158.199C224.201 157.869 222.627 158.547 222.627 158.547Z" fill="#EEA886"/>
<path d="M221.647 161.781C221.647 161.781 221.568 163.624 222.918 163.624C224.268 163.624 224.866 161.947 224.866 161.947C224.866 161.947 225.326 162.77 224.866 164.525C224.406 166.281 222.489 165.917 222.059 165.854C221.63 165.791 219.595 165.236 221.647 161.781Z" fill="#16202E"/>
<path d="M220.4 116.559C220.4 116.559 222.145 118.851 222.76 120.367C223.376 121.884 224.402 125.209 224.265 127.784C224.128 130.359 223.307 135.192 223.547 136.285C223.786 137.378 224.025 139.636 224.283 140.412C224.54 141.188 225.565 143.445 225.668 145.773C225.771 148.101 224.938 158.314 225.006 159.266C225.074 160.218 222.017 159.636 222.017 159.636C222.017 159.636 221.939 150.43 221.597 148.843C221.255 147.255 220.844 141.857 220.536 141.47C220.229 141.082 219.365 136.989 219.309 136.322C219.256 135.676 215.596 124.488 215.391 122.584C215.185 120.678 210.603 116.558 210.603 116.558C210.603 116.558 215.098 114.786 220.4 116.559Z" fill="#1A598C"/>
<path d="M209.033 157.396C209.683 157.29 211.424 146.973 211.219 145.138C211.013 143.303 210.809 139.393 211.391 137.804C211.772 136.76 214.156 131.452 215.761 127.725C215.987 127.199 216.198 126.705 216.385 126.258C216.894 125.046 217.231 124.186 217.24 124.008C217.275 123.303 219.504 111.15 210.692 116.557C210.692 116.557 210.603 117.518 210.501 117.87C210.397 118.222 208.038 127.218 207.798 130.675C207.559 134.131 206.943 137.063 206.84 137.802C206.737 138.541 206.943 141.011 207.148 141.645C207.353 142.28 205.813 156.615 205.711 156.968C205.609 157.323 208.384 157.501 209.033 157.396Z" fill="#1A598C"/>
<path d="M214.15 97.3571C214.15 97.3571 212.482 98.1688 211.903 98.2881C211.325 98.4067 209.078 101.416 208.684 102.513C208.29 103.612 208.683 105.259 209.493 107.193C210.304 109.128 209.539 109.773 209.909 111.707C210.279 113.641 210.603 117.735 210.533 118.81C210.463 119.885 219.899 120.09 222.052 118.133C222.052 118.133 219.889 114.789 219.611 114.312C219.333 113.833 219.566 111.231 219.821 110.563C220.075 109.894 221.881 104.371 221.881 104.371C221.881 104.371 223.16 99.8422 221.907 98.8388C220.818 97.9671 217.852 97.6555 217.32 97.4651C216.787 97.274 215.238 97.1903 214.15 97.3571Z" fill="#EDDAD3"/>
<path d="M213.616 101.19L212.603 99.9668L213.484 96.7461C213.484 96.7461 213.779 98.5394 213.616 101.19Z" fill="#D6C5BE"/>
<path d="M213.354 95.3726C213.354 95.3726 213.686 98.5272 213.617 99.5537C213.617 99.5537 215.348 101.345 217.32 97.465C217.32 97.465 216.492 95.8659 217.115 93.6861C217.74 91.5081 213.354 95.3726 213.354 95.3726Z" fill="#EEA886"/>
<path d="M213.617 99.5547L213.616 101.19L215.611 99.6546L213.617 99.5547Z" fill="#EEA886"/>
<path d="M213.616 101.19L214.444 100.133L217.233 97.2676L218.136 98.1642L213.616 101.19Z" fill="#D6C5BE"/>
<path d="M216.819 120.362C217.604 124.237 223.284 119.926 223.284 119.926C223.284 119.926 219.602 113.544 221.067 108.444C221.079 108.403 221.09 108.363 221.102 108.323C221.196 108.001 221.29 107.695 221.383 107.403C221.399 107.351 221.416 107.298 221.432 107.246C221.752 106.244 222.014 105.414 222.226 104.732V104.732C222.88 102.633 223.07 101.941 223.07 101.941C223.07 101.941 222.79 98.6743 221.225 98.3153C219.654 97.9556 217.994 97.6172 217.994 97.6172C217.994 97.6172 215.281 101.204 215.169 102.817C215.055 104.428 216.034 116.485 216.819 120.362Z" fill="#2273B5"/>
<path d="M208.451 103.257C208.451 103.257 208.275 105.479 209.754 108.397C209.754 108.397 209.723 112.304 209.676 113.666C209.63 115.027 209.315 120.173 209.315 120.173L210.942 121.155C211.269 121.353 211.675 121.079 211.629 120.69C211.17 116.774 209.675 101.916 212.912 97.9229L211.47 98.4361C211.47 98.4361 208.451 101.702 208.451 103.257Z" fill="#2273B5"/>
<path d="M212.603 99.9668L211.326 100.33L213.484 96.7461L212.603 99.9668Z" fill="#FAE6DE"/>
<path d="M214.444 100.133L215.61 101.71L217.993 97.616L217.233 97.2676L214.444 100.133Z" fill="#FAE6DE"/>
<path d="M214.561 85.1938C213.341 85.0726 210.6 85.574 210.028 88.8953C210.028 88.8953 210.084 89.8013 210.264 90.5194C210.443 91.2375 209.732 93.2943 209.888 93.4055C210.043 93.516 210.701 93.6802 210.701 93.6802C210.701 93.6802 211.309 95.9949 212.086 96.013C212.863 96.0318 215.831 95.5503 217.346 92.781C218.861 90.013 219.489 85.6821 214.561 85.1938Z" fill="#EEA886"/>
<path d="M210.028 88.8957C210.028 88.8957 211.949 90.3887 213.905 90.7671C215.863 91.1455 216.921 94.6566 216.921 94.6566C216.921 94.6566 220.204 89.5695 217.93 86.3119C215.657 83.0543 209.779 84.9794 210.028 88.8957Z" fill="#344052"/>
<path d="M214.73 90.7138C214.759 90.3211 215.21 89.7516 215.81 90.3198C216.411 90.8874 215.484 92.7163 214.98 92.5084C214.476 92.2998 214.7 91.1203 214.73 90.7138Z" fill="#EEA886"/>
<path d="M213.35 95.8297C213.394 96.0751 213.439 96.3617 213.477 96.6652C215.119 95.6992 215.98 94.4697 215.98 94.4697C215.03 95.2746 213.35 95.8297 213.35 95.8297Z" fill="#A77860"/>
<g opacity="0.86">
<path d="M178.426 117.144L202.772 117.268C204.105 117.275 205.191 116.166 205.198 114.791L205.279 98.0407C205.285 96.6658 204.209 95.5456 202.876 95.5387L178.531 95.4151C177.198 95.4082 176.111 96.5172 176.105 97.8921L176.024 114.643C176.018 116.017 177.093 117.137 178.426 117.144Z" fill="#E0F1FF"/>
</g>
<path d="M189.266 115.461L201.674 115.525C202.548 115.529 203.26 114.802 203.265 113.901L203.333 99.6706C203.337 98.7702 202.632 98.0358 201.759 98.0309L189.35 97.9678C188.477 97.9628 187.764 98.6896 187.76 99.5919L187.692 113.821C187.687 114.723 188.392 115.457 189.266 115.461Z" fill="#A1D4FF"/>
<path d="M179.15 115.456L186.322 115.493C186.567 115.495 186.767 115.29 186.769 115.038L186.777 113.285C186.778 113.031 186.58 112.825 186.335 112.824L179.163 112.787C178.918 112.786 178.718 112.99 178.716 113.244L178.707 114.996C178.706 115.249 178.904 115.455 179.15 115.456Z" fill="#A1D4FF"/>
<path d="M178.952 111.981L186.529 112.019C186.663 112.02 186.772 111.909 186.772 111.772L186.773 111.481C186.774 111.342 186.666 111.23 186.533 111.23L178.956 111.191C178.822 111.19 178.713 111.302 178.713 111.439L178.712 111.731C178.71 111.868 178.818 111.981 178.952 111.981Z" fill="#A1D4FF"/>
<path d="M206.177 110.237C206.177 110.237 205.889 110.306 205.669 110.2C205.289 110.017 205.042 109.416 204.473 109.588C203.904 109.761 204.02 111.689 204.238 112.011C204.456 112.334 205.295 112.335 206.431 111.831C207.568 111.327 206.177 110.237 206.177 110.237Z" fill="#EEA886"/>
<path d="M204.674 109.557C204.674 109.557 203.782 109.447 202.78 109.442C201.899 109.439 200.88 109.597 200.814 109.769C200.739 109.961 201.698 109.902 202.572 109.963C203.377 110.02 203.214 110.141 203.214 110.141C203.214 110.141 203.258 110.104 202.374 110.21C201.423 110.324 200.464 110.535 200.409 110.748C200.382 110.852 200.426 110.908 200.781 110.922C200.577 110.957 200.56 111.017 200.569 111.102C200.618 111.544 202.048 111.591 202.616 111.61C202.179 111.599 201.86 111.635 202.069 111.893C202.309 112.187 204.331 112.164 205.059 112.224C205.852 112.29 204.674 109.557 204.674 109.557Z" fill="#EEA886"/>
<path d="M216.562 90.0094C215.962 91.4174 216.325 92.9435 217.372 93.418C218.419 93.8932 219.756 93.1364 220.355 91.7284C220.955 90.3203 220.593 88.7936 219.545 88.3191C218.497 87.8451 217.161 88.6019 216.562 90.0094Z" fill="#344052"/>
<path d="M221.543 98.4365C221.543 98.4365 219.99 98.7319 219.221 99.9676C218.453 101.203 217.667 102.962 217.516 103.572C217.366 104.182 214.452 109.784 214.291 109.935C214.129 110.087 212.522 109.96 211.275 110.086C209.24 110.291 206.055 109.803 206.055 109.803L206.023 112.223C206.023 112.223 213.833 113.288 215.459 112.534C217.446 111.613 222.256 104.688 222.256 104.688C222.256 104.688 224.751 99.8196 221.543 98.4365Z" fill="#2273B5"/>
<path d="M218.388 109.759L221.432 107.245C221.752 106.243 222.013 105.413 222.225 104.731C222.225 104.731 219.139 108.899 218.388 109.759Z" fill="#1A598C"/>
<path d="M208.73 108.311C208.949 108.072 209.166 107.829 209.378 107.59C209.378 107.59 208.553 105.329 208.499 104.372C208.499 104.372 208.306 106.51 208.73 108.311Z" fill="#1A598C"/>
<path d="M185.629 100.027C185.095 98.4888 183.671 97.5447 182.169 97.5915C181.805 97.6027 181.437 97.6721 181.076 97.8057C179.981 98.2084 179.197 99.1076 178.875 100.168C178.652 100.905 178.65 101.718 178.921 102.5C178.948 102.577 178.977 102.654 179.01 102.729C179.152 103.067 179.34 103.374 179.562 103.643C180.493 104.772 182.04 105.25 183.475 104.721C185.327 104.039 186.291 101.936 185.629 100.027ZM183.175 103.856C182.099 104.253 180.94 103.894 180.241 103.047C180.074 102.845 179.933 102.616 179.826 102.362C179.803 102.305 179.781 102.248 179.761 102.19C179.558 101.604 179.559 100.994 179.726 100.443C179.968 99.6464 180.556 98.9727 181.376 98.6705C181.646 98.5706 181.922 98.5188 182.195 98.51C183.321 98.475 184.389 99.1831 184.79 100.336C185.286 101.768 184.563 103.344 183.175 103.856Z" fill="#73C0FF"/>
<path d="M179.727 100.443L178.876 100.168C179.198 99.1069 179.982 98.2077 181.076 97.805C181.438 97.6714 181.806 97.6027 182.169 97.5908L182.196 98.5099C181.924 98.5187 181.647 98.5705 181.377 98.6704C180.556 98.9733 179.968 99.647 179.727 100.443Z" fill="#73C0FF"/>
<path d="M179.827 102.363L179.01 102.729C178.977 102.655 178.948 102.578 178.921 102.501C178.65 101.719 178.652 100.905 178.875 100.169L179.726 100.444C179.559 100.995 179.558 101.605 179.761 102.191C179.782 102.248 179.803 102.306 179.827 102.363Z" fill="#73C0FF"/>
<path d="M179.562 103.643C179.34 103.374 179.152 103.067 179.01 102.729L179.827 102.362C179.934 102.616 180.074 102.845 180.241 103.047L179.562 103.643Z" fill="#73C0FF"/>
<path d="M181.618 106.474C181.4 105.842 180.814 105.454 180.197 105.473C180.048 105.478 179.896 105.506 179.748 105.561C179.299 105.727 178.977 106.095 178.845 106.532C178.753 106.834 178.752 107.169 178.864 107.49C178.875 107.521 178.886 107.553 178.899 107.583C178.959 107.723 179.036 107.849 179.126 107.959C179.509 108.423 180.145 108.619 180.734 108.402C181.494 108.121 181.89 107.257 181.618 106.474ZM180.61 108.046C180.169 108.209 179.692 108.062 179.406 107.714C179.337 107.631 179.28 107.537 179.235 107.433C179.226 107.41 179.217 107.386 179.209 107.362C179.125 107.121 179.125 106.871 179.195 106.644C179.294 106.318 179.536 106.04 179.872 105.916C179.983 105.876 180.097 105.854 180.209 105.851C180.671 105.837 181.11 106.127 181.274 106.6C181.478 107.189 181.181 107.836 180.61 108.046Z" fill="#73C0FF"/>
<path d="M179.194 106.644L178.845 106.532C178.977 106.095 179.299 105.727 179.748 105.561C179.896 105.506 180.047 105.477 180.197 105.473L180.208 105.85C180.096 105.854 179.983 105.875 179.871 105.915C179.535 106.04 179.293 106.317 179.194 106.644Z" fill="#73C0FF"/>
<path d="M179.235 107.432L178.899 107.582C178.886 107.552 178.874 107.52 178.863 107.488C178.752 107.168 178.752 106.833 178.844 106.531L179.194 106.644C179.125 106.87 179.124 107.121 179.208 107.362C179.217 107.385 179.226 107.409 179.235 107.432Z" fill="#73C0FF"/>
<path d="M179.126 107.958C179.036 107.848 178.959 107.721 178.899 107.582L179.235 107.432C179.28 107.536 179.337 107.63 179.406 107.713L179.126 107.958Z" fill="#73C0FF"/>
<path d="M70.991 60.126H68.4065V69.9293H70.991V60.126Z" fill="#78C2FF"/>
<path d="M74.6692 59.1367H72.084V69.9291H74.6692V59.1367Z" fill="#78C2FF"/>
<path d="M78.3963 61.1904H75.8118V69.9291H78.3963V61.1904Z" fill="#78C2FF"/>
<path d="M82.1241 57.1416H79.5396V69.9302H82.1241V57.1416Z" fill="#78C2FF"/>
<path d="M86.0355 58.4141H83.451V69.9289H86.0355V58.4141Z" fill="#78C2FF"/>
</svg>
