<svg width="226" height="154" viewBox="0 0 226 154" fill="none" xmlns="http://www.w3.org/2000/svg">
<path d="M136.801 44.7988C130.914 43.9361 125.528 48.667 124.77 55.3656C124.011 62.0638 128.169 68.1934 134.056 69.0557C139.943 69.9184 145.33 65.1875 146.088 58.4889L135.429 56.9272C135.429 56.9272 136.294 49.2812 136.801 44.7988Z" fill="#F2F2F2"/>
<path d="M138.752 43.085C138.245 47.5674 137.38 55.2134 137.38 55.2134L148.039 56.7751C148.797 50.0769 144.639 43.9477 138.752 43.085Z" fill="#EBEBEB"/>
<path fill-rule="evenodd" clip-rule="evenodd" d="M36.3503 103.618C35.7551 102.677 35.1495 101.743 34.5663 100.791C33.8432 99.6106 33.8716 98.8349 34.749 97.8331C35.89 96.5306 37.0504 95.2479 38.2505 94.0165C38.9686 93.2796 39.1704 92.6145 39.0715 91.3945C38.8357 88.4866 37.4693 87.2568 35.1385 86.795C34.0717 86.5837 33.0616 86.0254 32.0061 85.7073C31.0676 85.4241 30.8555 84.7704 31.0041 83.7773C31.3972 81.1515 31.778 78.5234 32.1337 75.8911C32.2603 74.9546 32.7089 74.5385 33.5099 74.5518C35.356 74.5822 37.2044 74.5807 39.0488 74.6673C39.9039 74.7083 40.3064 74.2561 40.8628 73.5442C42.572 71.3604 42.435 69.3313 41.0001 67.111C40.448 66.2581 40.1093 65.2293 39.6574 64.2898C39.0278 62.9812 39.158 62.1523 40.1891 61.2987C41.8979 59.8826 43.6288 58.5003 45.3303 57.0721C46.1673 56.3705 46.9322 56.4066 47.65 57.2286C48.974 58.7447 50.3011 60.2585 51.5773 61.8262C52.0252 62.3758 52.4334 62.6289 53.047 62.2724C53.1445 62.2154 53.2658 62.1873 53.3763 62.1869C55.9379 62.1808 57.0475 60.501 57.4373 57.8208C57.614 56.6065 58.0762 55.4477 58.3835 54.2551C58.6237 53.3239 59.1564 52.8789 59.9851 53.0241C62.3356 53.436 64.6844 53.864 67.0261 54.3345C67.9026 54.5101 68.251 55.2159 68.2272 56.2154C68.1791 58.273 68.1354 60.3318 68.1458 62.3891C68.1484 62.863 68.2486 63.5346 68.5289 63.7721C69.4905 64.5874 70.5142 65.3437 71.5981 65.9168C71.9448 66.1004 72.5865 65.7218 73.0347 65.468C74.5164 64.6288 75.9697 63.7258 77.4367 62.8513C78.3733 62.2922 79.1609 62.4366 79.7992 63.4605C81.0454 65.4569 82.3236 67.4268 83.5628 69.4289C84.2622 70.5577 84.1671 71.2164 83.2589 72.2376C81.9225 73.7396 80.5874 75.2427 79.2534 76.7462C79.1214 76.896 78.8723 77.0845 78.8926 77.2072C79.1355 78.6313 79.3052 80.0953 79.7497 81.4388C79.9204 81.955 80.708 82.3057 81.2758 82.5338C82.8384 83.162 84.4283 83.7066 86.0178 84.2418C86.9076 84.5409 87.2333 85.2022 87.0984 86.1835C86.743 88.7725 86.3592 91.3565 85.9971 93.9439C85.8575 94.9442 85.4016 95.4558 84.472 95.4258C82.6269 95.3665 80.7795 95.3775 78.9351 95.2985C78.1308 95.2639 77.5178 95.4414 77.2583 96.4063C77.2266 96.5264 77.1658 96.6511 77.088 96.7385C75.1109 98.9524 76.0869 101.056 77.2316 103.193C77.7386 104.14 78.1284 105.168 78.581 106.154C79.0209 107.113 78.8158 107.917 78.0873 108.527C76.293 110.028 74.4863 111.511 72.664 112.969C71.8409 113.626 71.0039 113.512 70.3108 112.701C69.0262 111.197 67.8087 109.619 66.4947 108.152C66.1964 107.819 65.6039 107.653 65.1677 107.694C64.4255 107.766 63.706 108.19 62.9659 108.234C61.8342 108.302 61.4551 109.031 61.1949 110.131C60.753 111.994 60.1855 113.816 59.7169 115.671C59.4624 116.678 58.92 117.096 58.0395 116.938C55.7268 116.524 53.4174 116.091 51.1074 115.659C50.2359 115.496 49.8181 114.97 49.8608 113.893C49.945 111.794 49.9263 109.689 49.9904 107.589C50.0151 106.774 49.8395 106.166 49.1374 105.829C48.8608 105.697 48.5568 105.553 48.3568 105.315C46.7959 103.464 45.2722 104.15 43.6836 105.288C42.7006 105.993 41.6424 106.565 40.6013 107.157C39.5979 107.727 38.8367 107.496 38.1403 106.438C37.53 105.51 36.9465 104.559 36.3503 103.618ZM63.501 81.218C61.6285 78.2771 58.3381 77.6892 55.7391 79.8308C53.2133 81.9116 52.6321 85.8452 54.4265 88.7181C56.2408 91.6221 59.778 92.2717 62.3469 90.1715C64.9345 88.0568 65.4269 84.2418 63.501 81.218Z" fill="#F2F2F2"/>
<path fill-rule="evenodd" clip-rule="evenodd" d="M93.8566 70.7791C93.4297 70.4431 92.9995 70.1125 92.577 69.7689C92.0529 69.3428 91.9504 68.9651 92.2213 68.314C92.5733 67.4676 92.9381 66.6265 93.3296 65.8026C93.564 65.3096 93.5614 64.9512 93.3309 64.3853C92.7821 63.0354 91.9414 62.7104 90.754 62.9411C90.2102 63.0468 89.6417 62.9746 89.0872 63.027C88.5949 63.0734 88.3952 62.8005 88.3173 62.2954C88.1126 60.9583 87.9012 59.6232 87.6774 58.2911C87.5975 57.8171 87.7508 57.5302 88.137 57.3812C89.0281 57.0373 89.9149 56.6777 90.8131 56.3615C91.2293 56.2152 91.3545 55.9199 91.5149 55.4707C92.0079 54.091 91.6381 53.1439 90.6167 52.3564C90.2239 52.0547 89.9072 51.6267 89.5495 51.2634C89.0512 50.7575 88.9894 50.3349 89.3561 49.7245C89.9637 48.7136 90.5873 47.7148 91.1899 46.6989C91.4861 46.1995 91.8586 46.0684 92.3268 46.3234C93.1896 46.7943 94.0534 47.2633 94.9007 47.768C95.198 47.9447 95.4318 47.9869 95.673 47.6969C95.7111 47.6509 95.7655 47.6137 95.8183 47.592C97.0468 47.0926 97.3277 46.0714 97.1126 44.7089C97.0157 44.0917 97.0638 43.4456 97.0324 42.8143C97.008 42.3202 97.1971 42.0036 97.6166 41.9128C98.8064 41.654 99.9981 41.4035 101.192 41.1747C101.639 41.0896 101.912 41.3602 102.05 41.8448C102.336 42.8413 102.623 43.8378 102.937 44.8233C103.009 45.0498 103.158 45.3535 103.328 45.4124C103.912 45.6176 104.517 45.7818 105.123 45.846C105.316 45.8665 105.568 45.5606 105.745 45.3519C106.33 44.6618 106.892 43.9461 107.465 43.2419C107.831 42.7923 108.23 42.7083 108.69 43.0758C109.587 43.7922 110.496 44.4896 111.391 45.2102C111.896 45.6161 111.949 45.9509 111.666 46.6168C111.25 47.597 110.835 48.5775 110.419 49.5581C110.379 49.6554 110.287 49.7945 110.315 49.8492C110.646 50.4854 110.946 51.1555 111.361 51.7141C111.521 51.9289 111.951 51.9441 112.258 51.9429C113.101 51.9414 113.947 51.8943 114.79 51.8422C115.261 51.813 115.516 52.0676 115.599 52.5647C115.816 53.8759 116.02 55.1906 116.234 56.5029C116.317 57.0099 116.174 57.344 115.724 57.5101C114.83 57.8396 113.945 58.204 113.047 58.5237C112.656 58.6628 112.388 58.8669 112.409 59.3803C112.411 59.4438 112.401 59.516 112.377 59.573C111.76 61.0195 112.544 61.8393 113.413 62.6424C113.799 62.9985 114.14 63.4166 114.505 63.8023C114.859 64.1767 114.882 64.6024 114.623 65.0364C113.987 66.1051 113.342 67.1674 112.686 68.2209C112.39 68.696 111.971 68.8035 111.517 68.5489C110.675 68.0765 109.854 67.5554 109.004 67.1066C108.811 67.0047 108.501 67.0397 108.298 67.1438C107.953 67.3228 107.671 67.6656 107.322 67.831C106.789 68.0829 106.716 68.5063 106.756 69.0848C106.824 70.0642 106.824 71.0489 106.878 72.0306C106.907 72.5631 106.709 72.8687 106.263 72.964C105.091 73.2141 103.917 73.4547 102.744 73.6957C102.301 73.7857 102.023 73.6143 101.882 73.0898C101.607 72.066 101.282 71.0596 100.999 70.0391C100.888 69.6435 100.713 69.385 100.325 69.3603C100.173 69.3504 100.005 69.3402 99.8735 69.2649C98.8468 68.6793 98.2188 69.3044 97.627 70.1592C97.2609 70.6879 96.8384 71.1679 96.4282 71.654C96.0317 72.1226 95.6319 72.1591 95.1382 71.7866C94.7067 71.4586 94.2835 71.1154 93.8566 70.7791ZM103.529 54.7603C102.19 53.7125 100.522 54.069 99.5963 55.601C98.6955 57.0905 99.0064 59.0907 100.298 60.1214C101.604 61.1632 103.399 60.7885 104.317 59.2819C105.242 57.7639 104.907 55.8378 103.529 54.7603Z" fill="#F2F2F2"/>
<path d="M79.0129 12.0596H44.6459V31.7311H79.0129V12.0596Z" stroke="#222222" stroke-width="0.5" stroke-miterlimit="10" stroke-linecap="round" stroke-linejoin="round"/>
<path d="M61.8292 13.7285H47.5618V30.062H61.8292V13.7285Z" fill="#EBEBEB"/>
<path d="M47.5618 13.7285L61.8292 30.0616" stroke="#222222" stroke-width="0.5" stroke-miterlimit="10" stroke-linecap="round" stroke-linejoin="round"/>
<path d="M61.8292 13.7285L47.5618 30.0616" stroke="#222222" stroke-width="0.5" stroke-miterlimit="10" stroke-linecap="round" stroke-linejoin="round"/>
<path d="M75.4501 14.9199H64.7627V16.7081H75.4501V14.9199Z" fill="#EBEBEB"/>
<path d="M75.4501 17.6631H64.7627V18.0804H75.4501V17.6631Z" fill="#222222"/>
<path d="M75.4501 19.5703H64.7627V19.9876H75.4501V19.5703Z" fill="#222222"/>
<path d="M73.6425 20.9424H64.7627V22.0453H73.6425V20.9424Z" fill="#EBEBEB"/>
<path d="M170.382 24.4307H142.537V27.5624H170.382V24.4307Z" fill="#EBEBEB"/>
<path d="M163.712 28.8145H147.005V41.4511H163.712V28.8145Z" fill="#EBEBEB"/>
<path d="M158.377 31.5225H148.348V32.812H158.377V31.5225Z" fill="#222222"/>
<path d="M156.945 33.4199H148.348V34.7095H156.945V33.4199Z" fill="#222222"/>
<path d="M162.692 30.1045H161.446V31.5229H162.692V30.1045Z" fill="white"/>
<path d="M169.524 25.9969C169.524 26.4549 169.198 26.8258 168.795 26.8258C168.393 26.8258 168.067 26.4549 168.067 25.9969C168.067 25.5389 168.393 25.168 168.795 25.168C169.198 25.168 169.524 25.5393 169.524 25.9969Z" fill="white"/>
<path d="M170.382 24.4307H142.537V51.2511H170.382V24.4307Z" stroke="#222222" stroke-width="0.5" stroke-miterlimit="10" stroke-linecap="round" stroke-linejoin="round"/>
<path d="M97.1446 111.888H75.6815V153.008H97.1446V111.888Z" fill="#FE8032"/>
<path d="M103.277 111.888H97.145V153.008H103.277V111.888Z" fill="#733108"/>
<path d="M134.138 97.5645H112.675V153.008H134.138V97.5645Z" fill="#FE8032"/>
<path d="M140.27 97.5645H134.138V153.008H140.27V97.5645Z" fill="#733108"/>
<path d="M171.131 79.875H149.668V153.008H171.131V79.875Z" fill="#FE8032"/>
<path d="M177.264 79.875H171.131V153.008H177.264V79.875Z" fill="#733108"/>
<path d="M207.122 64.4258H185.659V153.009H207.122V64.4258Z" fill="#FE8032"/>
<path d="M213.255 64.4258H207.123V153.009H213.255V64.4258Z" fill="#733108"/>
<path d="M1 152.943H225" stroke="#222222" stroke-width="0.5" stroke-miterlimit="10" stroke-linecap="round" stroke-linejoin="round"/>
<path d="M75.6814 137.541V146.318C75.6814 146.318 162.447 140.341 180.294 72.0206L183.325 72.9258L180.484 65.8252L175.292 70.3802L177.859 71.3304C177.859 71.33 159.612 127.234 75.6814 137.541Z" fill="#EBEBEB"/>
<path d="M51.8391 78.5909C54.2801 77.0406 53.6752 76.428 53.6752 76.428C53.6752 76.428 51.0572 78.0459 50.9516 78.1112C50.1984 78.5787 49.7786 78.6312 51.5194 77.5001C53.5042 76.2102 53.1678 75.3345 53.1678 75.3345L49.8985 77.1983C52.5873 75.1396 52.0275 74.3764 52.0275 74.3764L48.2558 76.8673C48.506 73.9891 47.4909 73.5597 47.5393 74.46C47.5564 74.7758 47.4999 75.2042 47.4194 75.6276C47.2705 76.4124 46.9441 77.1341 46.5149 77.7719C45.9888 78.5533 45.8599 79.4449 45.8599 79.4449L39.2181 82.1171C39.2181 82.1171 38.3463 72.3203 37.5724 67.8895C37.5724 67.8895 36.3432 63.7245 32.8157 64.1999C32.8157 64.1999 33.8628 79.3666 34.4477 83.488C34.614 84.6601 34.6334 88.1999 37.5527 87.8837C40.34 87.5823 47.1759 81.5972 47.1759 81.5972C47.5246 81.536 49.671 81.127 51.6774 80.0397C53.8686 78.8524 53.5583 78.2507 53.5583 78.2507C53.5583 78.2507 49.4168 80.129 51.8391 78.5909Z" fill="#C1584F"/>
<path d="M33.189 63.9238C33.1729 63.9261 33.1595 63.9283 33.1434 63.9306C33.1722 63.9265 33.189 63.9238 33.189 63.9238Z" fill="#F97869"/>
<path d="M47.4475 79.5833C47.4475 79.5833 48.9452 78.589 49.8227 79.6665" stroke="#222222" stroke-width="0.5" stroke-miterlimit="10" stroke-linecap="round" stroke-linejoin="round"/>
<path d="M49.3203 76.958C49.4202 76.9641 50.3601 78.316 50.8805 79.5363" stroke="#222222" stroke-width="0.5" stroke-miterlimit="10" stroke-linecap="round" stroke-linejoin="round"/>
<path d="M48.7223 77.7207L48.656 79.1691" stroke="#222222" stroke-width="0.5" stroke-miterlimit="10" stroke-linecap="round" stroke-linejoin="round"/>
<path d="M32.0562 63.1924C32.0562 63.1924 32.1417 63.203 32.2926 63.2315C35.41 63.8195 37.8246 66.6578 38.2895 70.214L39.7558 81.4257L44.9117 79.6676L46.1722 82.4489C46.1722 82.4489 41.1841 88.531 36.1131 88.531L32.0562 63.1924Z" fill="#FE8032"/>
<path d="M16.9115 143.499C16.6603 144.053 15.4642 144.686 15.4642 144.686C15.4642 144.686 15.0948 143.313 15.3459 142.759C15.5968 142.206 16.1509 141.923 16.5831 142.127C17.0157 142.331 17.1626 142.946 16.9115 143.499Z" stroke="#020B31" stroke-width="0.5" stroke-miterlimit="10" stroke-linecap="round" stroke-linejoin="round"/>
<path d="M16.7008 145.707C16.2075 145.712 15.47 144.699 15.47 144.699C15.47 144.699 16.5027 143.576 16.9961 143.57C17.4894 143.565 17.8231 144.04 17.7416 144.63C17.6601 145.22 17.1941 145.702 16.7008 145.707Z" stroke="#020B31" stroke-width="0.5" stroke-miterlimit="10" stroke-linecap="round" stroke-linejoin="round"/>
<path d="M15.3198 142.307L15.291 142.236L18.9021 134.614L14.7843 129.463L10.4702 140.019L11.2471 142.504L15.3198 142.307Z" fill="#F2F2F2"/>
<path d="M17.3318 151.018L21.0607 151.89L19.1154 149.9C18.3218 149.088 17.6812 148.101 17.2322 146.999L15.3197 142.307L13.5628 142.393C12.186 142.459 10.9317 141.497 10.4698 140.02L7.74658 142.414L13.4275 148.673C14.5067 149.861 15.8608 150.675 17.3318 151.018Z" fill="#FE8032"/>
<path d="M7.74685 142.414C7.23313 142.825 7.18136 143.671 7.6403 144.159L13.0804 149.949C14.1432 151.08 15.4599 151.855 16.8855 152.188L20.0302 152.922C20.5897 153.053 21.1037 152.538 21.0603 151.89L17.3314 151.019C15.8604 150.675 14.5063 149.861 13.4274 148.673L7.74685 142.414Z" fill="#222222"/>
<path d="M37.5537 146.681C37.6903 147.284 37.1683 148.662 37.1683 148.662C37.1683 148.662 36.0894 147.918 35.9528 147.315C35.8158 146.712 36.0633 146.081 36.5056 145.906C36.9475 145.731 37.4168 146.078 37.5537 146.681Z" stroke="#020B31" stroke-width="0.5" stroke-miterlimit="10" stroke-linecap="round" stroke-linejoin="round"/>
<path d="M38.6886 148.488C38.3235 148.865 37.1802 148.668 37.1802 148.668C37.1802 148.668 37.2931 147.047 37.6578 146.67C38.0229 146.292 38.5493 146.393 38.8339 146.895C39.1185 147.397 39.0533 148.11 38.6886 148.488Z" stroke="#020B31" stroke-width="0.5" stroke-miterlimit="10" stroke-linecap="round" stroke-linejoin="round"/>
<path d="M46.1139 151.583L35.5721 147.07C35.043 147.268 34.554 147.51 34.1238 147.755C32.8529 148.481 31.3542 148.473 30.1107 147.688L30.1063 147.685L29.4136 151.584H46.1139V151.583Z" fill="#FE8032"/>
<path d="M34.124 147.755C34.5542 147.509 35.0429 147.268 35.5723 147.07L35.9447 134.879H30.7261L30.1068 147.685L30.1112 147.688C31.3544 148.472 32.8531 148.481 34.124 147.755Z" fill="#F2F2F2"/>
<path d="M29.4139 151.583V151.881C29.4139 152.504 29.8575 153.008 30.4043 153.008H45.2539C45.7288 153.008 46.1136 152.57 46.1136 152.03V151.583H29.4139Z" fill="#222222"/>
<path d="M35.8071 89.1162L36.5907 144.929C36.5907 144.929 34.751 147.07 29.4151 145.942L29.2958 118.58L28.5664 97.0032L28.1856 96.8299L26.6177 114.595C26.4701 116.269 26.0893 117.906 25.4898 119.444L17.0342 141.2C17.0342 141.2 12.2765 141.973 10.1138 137.932L17.8646 118.902C18.6224 117.129 19.083 115.211 19.2237 113.246L20.7848 89.1166L35.8071 89.1162Z" fill="#222222"/>
<path d="M28.5664 97.0029L30.5214 98.21L29.2237 107.846L28.5664 97.0029Z" fill="#222222"/>
<path d="M20.1893 98.9044C20.1893 98.9044 23.6106 99.734 24.3952 91.7471" stroke="white" stroke-width="0.5" stroke-miterlimit="10" stroke-linecap="round" stroke-linejoin="round"/>
<path d="M20.6505 91.2436C20.6505 91.2436 30.6502 93.058 35.8311 90.8457" stroke="white" stroke-width="0.5" stroke-miterlimit="10" stroke-linecap="round" stroke-linejoin="round"/>
<path d="M33.2608 91.6055C33.2608 91.6055 33.1643 98.4025 35.807 98.3679" stroke="white" stroke-width="0.5" stroke-miterlimit="10" stroke-linecap="round" stroke-linejoin="round"/>
<path d="M30.3914 62.8926H26.1514C26.1514 62.8926 21.5834 63.9586 21.5834 68.7991C21.5834 73.6395 20.2921 89.8897 20.2921 89.8897C20.2921 89.8897 27.6608 92.0074 36.1307 90.106L35.9156 70.4991L35.785 68.5737C35.5669 65.3675 33.2171 62.8926 30.3914 62.8926Z" fill="#FE8032"/>
<path d="M36.1306 90.1056L35.9155 70.4987L35.7849 68.5733C35.5671 65.3675 33.2174 62.8926 30.3916 62.8926" stroke="#222222" stroke-width="0.5" stroke-miterlimit="10"/>
<path d="M34.6499 51.8243C34.1957 50.7776 33.1185 51.1364 33.1185 51.1364C33.1185 51.1364 33.2708 47.8686 30.9948 46.2157C29.0295 44.7882 26.8507 44.6537 25.023 46.1557C23.6415 47.2913 23.4528 49.1779 23.536 50.5575C22.6615 50.5769 21.899 50.9646 21.5753 52.0249C20.9039 54.2251 22.4387 55.1361 22.4387 55.1361C22.4387 55.1361 21.6308 57.1527 23.5861 57.8273C25.5414 58.5019 26.9934 61.0483 26.9934 61.0483C26.9934 61.0483 30.7256 57.8543 32.4618 57.7076C35.3905 57.4598 34.1342 53.8846 34.1342 53.8846C34.1342 53.8846 35.2301 53.1609 34.6499 51.8243Z" fill="#222222"/>
<path d="M30.714 63.2765L30.4852 60.6925C30.3526 60.7385 30.2731 60.7556 30.2731 60.7556C30.2731 60.7556 28.3609 61.0699 26.9317 59.5303L26.6508 63.2096L30.2788 65.314L30.714 63.2765Z" fill="#C1584F"/>
<path d="M30.2731 60.7556C30.2731 60.7556 28.3608 61.0699 26.9316 59.5303L26.9309 59.5763C27.0161 59.756 27.1049 59.9164 27.1971 60.0483C27.316 60.2189 27.4423 60.3668 27.5712 60.5055C28.6297 61.6457 29.9514 61.7688 30.5666 61.7559L30.4855 60.6921C30.3525 60.7385 30.2731 60.7556 30.2731 60.7556Z" fill="#F47365"/>
<path d="M29.9604 48.9365C29.9604 48.9365 32.9041 50.9862 33.2013 55.5271C33.4518 59.3559 31.1982 60.4455 30.4851 60.6933C30.3525 60.7393 30.273 60.7564 30.273 60.7564C30.273 60.7564 28.3608 61.0707 26.9316 59.5311C26.803 59.3923 26.6767 59.2441 26.5575 59.0739C25.9152 58.1549 25.4125 55.9885 25.5461 53.8925C25.5461 53.8925 29.439 52.1735 29.9604 48.9365Z" fill="#C1584F"/>
<path d="M28.2376 54.4777C28.2573 54.6985 28.4303 54.8596 28.6247 54.8376C28.8188 54.8152 28.9604 54.6183 28.941 54.3971C28.9213 54.1763 28.7483 54.0151 28.5539 54.0372C28.3599 54.0592 28.2182 54.2565 28.2376 54.4777Z" fill="#222222"/>
<path d="M28.6423 52.3682C28.3541 52.4594 28.0087 52.6582 27.6833 53.0739" stroke="#222222" stroke-width="0.5" stroke-miterlimit="10" stroke-linecap="round" stroke-linejoin="round"/>
<path d="M31.7606 54.0739C31.7803 54.2947 31.6387 54.4919 31.4443 54.5143C31.2499 54.5368 31.0769 54.3756 31.0572 54.1544C31.0378 53.9332 31.1791 53.7364 31.3735 53.7139C31.5676 53.6919 31.7409 53.8527 31.7606 54.0739Z" fill="#222222"/>
<path d="M31.8996 53.3688C31.6124 53.273 31.2697 53.0686 30.9497 52.6475" stroke="#222222" stroke-width="0.5" stroke-miterlimit="10" stroke-linecap="round" stroke-linejoin="round"/>
<path d="M29.9213 53.4766C29.9213 53.4766 29.9366 54.2812 30.5983 54.9071C31.4053 55.6703 31.1625 56.0203 30.5135 56.3844" stroke="#222222" stroke-width="0.5" stroke-miterlimit="10" stroke-linecap="round" stroke-linejoin="round"/>
<path opacity="0.5" d="M27.6562 55.7347C27.8756 55.3953 28.1615 55.8077 28.1615 55.8077C28.1615 55.8077 28.3589 55.2737 28.6419 55.5367C28.887 55.7647 28.5463 56.5636 28.3209 56.6142C28.0957 56.6647 27.4688 56.0247 27.6562 55.7347Z" fill="#F43D4F"/>
<path opacity="0.5" d="M32.5826 56.239C32.4199 55.8605 32.0739 56.2082 32.0739 56.2082C32.0739 56.2082 31.9637 55.6427 31.6437 55.8442C31.3665 56.0186 31.5769 56.8737 31.7903 56.9695C32.0044 57.0649 32.7219 56.5625 32.5826 56.239Z" fill="#F43D4F"/>
<path d="M30.5506 57.5372C30.5506 57.5372 29.5382 57.8907 28.9543 56.7969" stroke="#222222" stroke-width="0.5" stroke-miterlimit="10" stroke-linecap="round" stroke-linejoin="round"/>
<path d="M25.4179 57.0781C25.4179 57.0781 23.997 57.1381 23.8377 55.4659C23.6771 53.7807 25.1307 53.9821 25.1307 53.9821C25.1307 53.9821 24.9727 55.2097 25.4179 57.0781Z" fill="#C1584F"/>
<path d="M24.7932 54.6007C24.7932 54.6007 24.226 54.5745 24.1041 55.2939" stroke="#222222" stroke-width="0.5" stroke-miterlimit="10" stroke-linecap="round" stroke-linejoin="round"/>
<path d="M24.4668 54.7676C24.4668 54.7676 24.3773 55.4707 24.8573 55.9986" stroke="#222222" stroke-width="0.5" stroke-miterlimit="10" stroke-linecap="round" stroke-linejoin="round"/>
<path d="M21.4415 72.9996C21.4415 72.9996 22.2922 72.8061 23.8256 70.083L20.6505 84.7879L21.4415 72.9996Z" fill="#FE8032"/>
<path d="M25.3036 63.1924C25.3036 63.1924 25.7872 66.5532 29.9217 67.1317L30.2787 65.3146L31.7624 66.4708C31.7624 66.4708 32.9612 66.3378 32.6005 63.4295" stroke="#222222" stroke-width="0.5" stroke-miterlimit="10"/>
<path d="M30.2787 65.3154L29.9587 66.9432L30.915 67.7934L31.6669 66.3971L30.2787 65.3154Z" fill="#222222"/>
<path d="M29.9551 82.0681L30.3683 66.6209L31.0931 66.4746C32.1248 71.3158 32.6202 81.9753 32.6202 81.9753L31.4147 83.6586L29.9551 82.0681Z" fill="#222222"/>
<path d="M21.0607 98.9287C21.0607 98.9287 20.6896 115.428 20.1892 116.708C19.6889 117.989 10.8679 139.046 10.8679 139.046" stroke="white" stroke-width="0.5" stroke-miterlimit="10" stroke-linecap="round" stroke-linejoin="round"/>
<path d="M28.5664 97.0029C28.5664 97.0029 30.8738 113.86 30.9746 119.135C31.0755 124.409 31.0194 146.27 31.0194 146.27" stroke="white" stroke-width="0.5" stroke-miterlimit="10" stroke-linecap="round" stroke-linejoin="round"/>
<path d="M17.124 59.7335L16.4673 47.0228L16.4753 47.0209C16.4753 47.0209 17.0973 46.1943 17.133 44.8021C17.1687 43.41 17.61 41.0509 17.61 41.0509C17.61 41.0509 17.1277 40.7564 16.7806 42.3211C16.4336 43.8858 16.1907 43.481 16.1907 43.481L14.8453 38.1997C14.8453 38.1997 14.0835 38.0827 14.9509 41.6727L13.6392 38.0146C13.6392 38.0146 13.2498 38.0283 13.2574 38.5076L13.1462 38.172C13.1462 38.172 12.4936 38.3168 13.1696 40.8845C13.6168 42.5833 13.4679 42.7323 13.0163 41.6332C12.5647 40.5341 12.1976 39.8158 11.8542 39.9837L13.7104 46.4098C14.0033 47.2873 14.5003 47.4626 14.5003 47.4626L14.5016 47.4622L12.526 56.5156C12.1164 58.3927 12.5724 60.3781 13.7371 61.787L21.5229 71.2056L24.9489 63.4159L17.124 59.7335Z" fill="#C1584F"/>
<path d="M16.1909 43.4814C16.1909 43.4814 15.1969 43.8254 15.2136 45.5931" stroke="#222222" stroke-width="0.5" stroke-miterlimit="10" stroke-linecap="round" stroke-linejoin="round"/>
<path d="M15.3224 41.675C15.3224 41.675 14.1891 41.5564 13.2849 42.7783" stroke="#222222" stroke-width="0.5" stroke-miterlimit="10" stroke-linecap="round" stroke-linejoin="round"/>
<path d="M13.2576 38.5078L14.2162 41.9489" stroke="#222222" stroke-width="0.5" stroke-miterlimit="10" stroke-linecap="round" stroke-linejoin="round"/>
<path d="M13.4387 62.2127C16.4518 66.8597 21.442 73 21.442 73L26.0507 62.9352L18.9839 60.2775L17.4532 59.5299L16.7754 48.127L14.3041 48.3717L12.4854 56.6581C12.0635 58.579 12.4055 60.6195 13.4387 62.2127Z" fill="#FE8032"/>
<path d="M17.4527 59.5303L14.7418 59.943" stroke="#222222" stroke-width="0.5" stroke-miterlimit="10" stroke-linecap="round" stroke-linejoin="round"/>
<path d="M14.3037 48.3723L14.5021 47.4635L16.4675 47.0234L16.5259 48.1518L14.3037 48.3723Z" fill="#F2F2F2"/>
<path d="M14.0518 49.7793H16.8732" stroke="#222222" stroke-width="0.5" stroke-miterlimit="10" stroke-linecap="round" stroke-linejoin="round"/>
<path d="M38.5932 83.9333C38.8457 81.881 39.7321 81.4922 39.7321 81.4922L37.9158 82.1934" stroke="#222222" stroke-width="0.5" stroke-miterlimit="10" stroke-linecap="round" stroke-linejoin="round"/>
<path d="M44.9731 79.8032L45.86 79.4463L47.1756 81.5986L46.1726 82.4488L44.9731 79.8032Z" fill="#F2F2F2"/>
<path d="M43.7787 80.0537L45.0606 83.6586" stroke="#222222" stroke-width="0.5" stroke-miterlimit="10" stroke-linecap="round" stroke-linejoin="round"/>
<path d="M34.7848 78.8619H59.1969V77.1592H36.2812C35.4548 77.1592 34.7848 77.9212 34.7848 78.8619Z" fill="#676768"/>
<path d="M59.1965 78.862H43.3044L47.9636 65.46H63.8556L59.1965 78.862Z" fill="#7C7C7C"/>
<path d="M55.148 72.0488C55.148 72.5414 54.7973 72.9405 54.3644 72.9405C53.9315 72.9405 53.5804 72.5414 53.5804 72.0488C53.5804 71.5563 53.9315 71.1572 54.3644 71.1572C54.7973 71.1572 55.148 71.5563 55.148 72.0488Z" fill="white"/>
<path d="M14.0518 43.3633L15.4145 44.3693" stroke="#222222" stroke-width="0.5" stroke-miterlimit="10" stroke-linecap="round" stroke-linejoin="round"/>
<path d="M72.3434 44.8407L66.8606 57.1455L81.7375 65.728L87.2203 53.4232L72.3434 44.8407Z" fill="#FE8032"/>
<path d="M71.3337 44.2539L64.5378 55.8016L66.8596 57.141L72.3421 44.8358L71.3337 44.2539Z" fill="#222222"/>
<path d="M69.771 50.6055L84.6483 59.1876" stroke="white" stroke-width="0.5" stroke-miterlimit="10" stroke-linecap="round" stroke-linejoin="round"/>
<path d="M77.0465 47.5498C77.8421 45.7643 79.7587 45.0509 81.3279 45.9559C82.8971 46.8612 83.524 49.0419 82.7287 50.8275" stroke="#020B31" stroke-miterlimit="10"/>
<path d="M74.0887 54.1876C73.8779 54.066 73.7934 53.773 73.9003 53.5328L74.2874 52.6636C74.3943 52.4234 74.6518 52.3276 74.8629 52.4492C75.0737 52.5709 75.1582 52.8639 75.0513 53.1041L74.6642 53.9733C74.5573 54.2135 74.2994 54.3092 74.0887 54.1876Z" fill="#020B31"/>
<path d="M79.7709 57.466C79.5598 57.3443 79.4756 57.0513 79.5825 56.8111L79.9696 55.9419C80.0765 55.7017 80.334 55.6059 80.5451 55.7276C80.7559 55.8492 80.8404 56.1422 80.7335 56.3824L80.3464 57.2516C80.2392 57.4918 79.9816 57.5876 79.7709 57.466Z" fill="#020B31"/>
<path d="M123.993 93.5896C124.003 93.5562 124.012 93.5212 124.023 93.4889C124.453 92.1944 124.664 88.2961 124.658 86.0146L129.122 86.8002L128.977 91.4548C128.952 92.2358 129.143 93.3483 129.797 93.5862C130.679 93.9073 132 94.3129 133.197 94.7431C132.768 95.1345 132.112 95.5374 131.214 95.5595C129.777 95.5944 126.163 93.7869 123.993 93.5896Z" fill="#F2F2F2"/>
<path d="M86.2126 98.077C86.24 98.0599 86.2674 98.0413 86.2945 98.0253C87.3743 97.3884 89.8183 94.6466 91.1537 92.9443L94.0149 96.9205L91.1751 100.275C90.6985 100.838 90.1877 101.811 90.5351 102.485C91.0031 103.394 91.7479 104.699 92.3869 105.929C91.8378 105.895 91.1133 105.696 90.4316 105.03C89.342 103.965 87.7127 99.8732 86.2126 98.077Z" fill="#F2F2F2"/>
<path d="M136.135 94.9171L128.996 90.0938L127.806 91.0671C127.806 91.0671 127.62 92.8017 126.541 92.9286C125.463 93.0555 124.31 91.3631 124.31 91.3631C123.081 92.6029 123.081 94.7476 123.255 96.1865H139.315C138.147 95.4032 136.135 94.9171 136.135 94.9171Z" fill="#FE8032"/>
<path d="M92.607 107.061L92.1337 99.6454L90.7518 99.0905C90.7518 99.0905 89.3944 99.908 88.6866 98.9738C87.9789 98.0393 88.5407 95.9961 88.5407 95.9961C86.9441 95.5571 85.3976 96.7828 84.4594 97.7675L90.0481 108.043L93.9216 110.367C93.8188 108.827 92.607 107.061 92.607 107.061Z" fill="#FE8032"/>
<path d="M132.216 92.2695L130.697 93.1935" stroke="#222222" stroke-width="0.5" stroke-miterlimit="10" stroke-linecap="round" stroke-linejoin="round"/>
<path d="M133.557 93.1943L132.038 94.1179" stroke="#222222" stroke-width="0.5" stroke-miterlimit="10" stroke-linecap="round" stroke-linejoin="round"/>
<path d="M140.114 97.6692V97.1192C140.036 96.7772 139.728 96.4644 139.315 96.1885H123.255C123.361 97.0573 123.529 97.6692 123.529 97.6692H140.114Z" fill="#222222"/>
<path d="M92.4047 103.894L90.8706 103.004" stroke="#222222" stroke-width="0.5" stroke-miterlimit="10" stroke-linecap="round" stroke-linejoin="round"/>
<path d="M92.505 105.674L90.9706 104.783" stroke="#222222" stroke-width="0.5" stroke-miterlimit="10" stroke-linecap="round" stroke-linejoin="round"/>
<path d="M93.922 110.366C93.922 110.366 94.412 111.193 94.1318 111.798L88.9673 108.7L83.451 97.9812C83.451 97.9812 83.6685 97.4571 84.4598 97.7669L90.0485 108.042L93.922 110.366Z" fill="#222222"/>
<path d="M109.395 37.2666C111.952 39.3136 115.109 40.149 118.198 39.5952L126.948 38.0271C126.948 38.0271 130.082 37.8823 130.748 37.8572C131.514 37.8283 131.463 37.3339 131.463 37.3339L129.547 37.0142C129.547 37.0142 132.019 37.2168 132.225 36.1834L129.414 36.0101C129.414 36.0101 132.497 35.4955 132.24 34.6107L129.299 34.7472C129.299 34.7472 131.756 34.0175 131.471 33.208L127.498 33.8936L128.329 31.6349C128.329 31.6349 127.523 31.1134 126.175 33.7837C125.838 34.4511 122.506 34.824 118.322 34.9581C116.13 35.0284 113.959 34.4272 112.047 33.2034L111.679 32.9678L109.395 37.2666Z" fill="#FB7869"/>
<path d="M107.557 38.3447L104.751 37.062L103.372 30.5394C103.372 30.5394 105.532 29.2312 108.137 30.5394C110.743 31.8476 115.418 34.3765 115.418 34.3765C117.799 34.6878 125.101 34.3115 125.101 34.3115C125.101 34.3115 125.577 36.8362 125.101 38.8741L121.475 39.738C116.817 40.8478 111.974 40.3632 107.557 38.3447Z" fill="#FE8032"/>
<path d="M102.474 62.6631L102.757 75.4331C102.757 75.4331 102.749 77.3319 100.756 79.6863C98.7633 82.0408 89.3368 93.3776 89.3368 93.3776C89.3368 93.3776 90.2563 99.5692 92.5557 101.052L108.573 82.7386C108.573 82.7386 111.332 80.733 111.256 75.4133C111.214 72.542 111.218 68.4529 111.23 65.2954C108.278 65.2741 106.024 65.0244 104.562 64.1928C103.74 63.725 103.054 63.207 102.474 62.6631Z" fill="#222222"/>
<path d="M125.817 54.6006H99.6065C99.6065 54.6006 98.7728 59.1868 102.474 62.6632C103.054 63.2075 103.74 63.7251 104.563 64.193C106.024 65.0245 108.278 65.2738 111.231 65.2955C111.374 65.2966 111.518 65.2978 111.665 65.2978C114.833 65.2978 124.949 65.2978 124.949 65.2978L123.467 87.8547C126.482 90.0058 130.876 89.7151 130.876 89.7151L133.073 61.6352C132.459 54.194 125.817 54.6006 125.817 54.6006Z" fill="#222222"/>
<path d="M102.008 54.6006C102.008 54.6006 101.685 63.0505 109.434 63.0505C117.182 63.0505 127.044 63.0505 127.044 63.0505L124.863 88.6505" stroke="white" stroke-width="0.5" stroke-miterlimit="10" stroke-linecap="round" stroke-linejoin="round"/>
<path d="M103.372 59.9143L107.309 54.5977" stroke="white" stroke-width="0.5" stroke-miterlimit="10" stroke-linecap="round" stroke-linejoin="round"/>
<path d="M124.948 65.2975C124.948 65.2975 125.855 63.9023 127.733 62.376" stroke="white" stroke-width="0.5" stroke-miterlimit="10" stroke-linecap="round" stroke-linejoin="round"/>
<path d="M124.926 65.6458C124.929 65.5926 126.354 64.731 128.232 64.4258" stroke="white" stroke-width="0.5" stroke-miterlimit="10" stroke-linecap="round" stroke-linejoin="round"/>
<path d="M107.133 65.0137C107.067 65.339 106.894 71.4143 106.799 74.9089C106.756 76.4717 106.21 77.96 105.265 79.0949L90.2339 97.1363" stroke="white" stroke-width="0.5" stroke-miterlimit="10" stroke-linecap="round" stroke-linejoin="round"/>
<path d="M102.757 75.4336C102.757 75.4336 104.107 75.5841 105.073 76.7509" stroke="white" stroke-width="0.5" stroke-miterlimit="10" stroke-linecap="round" stroke-linejoin="round"/>
<path d="M102.757 75.9072C102.757 75.9072 104.014 76.6145 104.639 77.8547" stroke="white" stroke-width="0.5" stroke-miterlimit="10" stroke-linecap="round" stroke-linejoin="round"/>
<path d="M128.857 34.3105C128.857 34.3105 129.649 35.4731 129.496 37.3917" stroke="#222222" stroke-width="0.5" stroke-miterlimit="10" stroke-linecap="round" stroke-linejoin="round"/>
<path d="M128.02 34.7324C128.02 34.7324 127.867 35.7354 126.641 36.2367" stroke="#222222" stroke-width="0.5" stroke-miterlimit="10" stroke-linecap="round" stroke-linejoin="round"/>
<path d="M127.41 35.7559L128.653 37.2609" stroke="#222222" stroke-width="0.5" stroke-miterlimit="10" stroke-linecap="round" stroke-linejoin="round"/>
<path d="M80.9763 42.8335C82.7566 40.8766 91.7199 31.1649 94.5206 30.8867L95.209 35.8484L94.7938 35.9381C92.6615 36.3987 90.6738 37.5017 89.0535 39.1447C85.904 42.3372 83.614 45.0812 83.6618 45.8531C83.7597 47.4303 83.0292 48.0008 83.0292 48.0008L82.5856 46.9705C82.3591 47.1126 82.0956 47.154 81.8441 47.0852C81.3985 46.9632 80.7104 46.6277 80.2081 45.7033C79.9242 45.18 80.1443 43.7479 80.9763 42.8335Z" fill="#FB7869"/>
<path d="M84.2035 44.6351C81.6082 43.2935 81.5281 42.0469 81.5281 42.0469C83.9767 37.2315 88.6416 33.4499 91.4884 31.4588C95.6722 28.5327 100.809 27.7904 105.421 29.7109C105.583 29.7785 105.744 29.8488 105.905 29.9226L105.999 29.9655L109.002 40.3579L111.257 54.6014H99.6066L95.6756 36.3958C95.6756 36.3958 92.281 36.8883 89.3824 39.3705C86.4832 41.8523 84.2035 44.6351 84.2035 44.6351Z" fill="#FE8032"/>
<path d="M101.177 25.6807V28.78L104.779 30.8863L105.905 29.9214L105.327 25.6807H101.177Z" fill="#FB7869"/>
<path d="M101.177 25.6807L101.184 25.8772C102.013 27.0732 103.555 28.1389 105.627 27.8823L105.327 25.681L101.177 25.6807Z" fill="#FB7869"/>
<path d="M106.074 15.769C106.684 16.5439 106.984 17.6822 107.262 18.673C107.856 20.7854 108.917 25.6851 105.896 26.6611C102.127 27.8792 100.625 25.2306 99.7332 23.4903C98.8414 21.7511 98.5114 17.1049 101.489 15.3213C103.693 14.001 105.187 14.6425 106.074 15.769Z" fill="#FB7869"/>
<path d="M104.779 20.0264C104.779 20.0264 104.946 20.715 105.697 21.2764C106.576 21.9339 106.448 22.2402 105.875 22.7468" stroke="#222222" stroke-width="0.5" stroke-miterlimit="10" stroke-linecap="round" stroke-linejoin="round"/>
<path opacity="0.5" d="M102.798 22.1952C102.953 21.8113 103.307 22.1507 103.307 22.1507C103.307 22.1507 103.406 21.581 103.73 21.7745C104.012 21.9421 103.818 22.8048 103.606 22.9063C103.394 23.0077 102.665 22.5232 102.798 22.1952Z" fill="#F43D4F"/>
<path opacity="0.5" d="M107.716 21.711C107.489 21.3765 107.211 21.7973 107.211 21.7973C107.211 21.7973 107.002 21.2671 106.724 21.5381C106.483 21.7729 106.84 22.5646 107.067 22.6098C107.294 22.6547 107.91 21.9968 107.716 21.711Z" fill="#F43D4F"/>
<path d="M106.116 23.8702C106.116 23.8702 105.184 24.4494 104.417 23.5088" stroke="#222222" stroke-width="0.5" stroke-miterlimit="10" stroke-linecap="round" stroke-linejoin="round"/>
<path d="M105.987 18.3755C106.286 18.3466 106.671 18.396 107.104 18.6575" stroke="#222222" stroke-width="0.5" stroke-miterlimit="10" stroke-linecap="round" stroke-linejoin="round"/>
<path d="M103.617 18.7061C103.32 18.76 102.957 18.9139 102.591 19.2864" stroke="#222222" stroke-width="0.5" stroke-miterlimit="10" stroke-linecap="round" stroke-linejoin="round"/>
<path d="M104.085 20.4359C104.085 20.6579 103.927 20.8376 103.732 20.8376C103.537 20.8376 103.379 20.6579 103.379 20.4359C103.379 20.2139 103.537 20.0342 103.732 20.0342C103.926 20.0338 104.085 20.2139 104.085 20.4359Z" fill="#222222"/>
<path d="M106.603 19.974C106.603 20.1959 106.445 20.3757 106.25 20.3757C106.055 20.3757 105.897 20.1959 105.897 19.974C105.897 19.752 106.055 19.5723 106.25 19.5723C106.445 19.5723 106.603 19.752 106.603 19.974Z" fill="#222222"/>
<path d="M109.311 15.401C108.855 14.4478 107.707 15.7488 108.162 14.9073C108.819 13.6885 107.985 12.4883 106.456 13.6463C104.927 14.8043 102.368 11.3629 99.9512 13.3187C97.5346 15.2745 98.7231 17.3952 98.7231 17.3952C98.7231 17.3952 97.223 17.4412 97.0727 19.3365C96.8215 22.5036 101.187 22.5036 101.187 22.5036C101.111 21.3003 100.226 18.2184 100.226 18.2184C101.588 15.2589 104.989 17.4431 106.494 17.6658L107.387 18.9424L107.148 17.6529C108.435 17.4629 109.794 16.4135 109.311 15.401Z" fill="#222222"/>
<path d="M100.22 20.5596C99.8039 20.4406 99.1609 20.449 98.6926 21.3383C97.7805 23.0703 100.162 24.7706 101.311 24.0675C101.099 23.6191 101.004 23.3025 101.004 23.3025C100.615 22.3094 100.361 21.3953 100.22 20.5596Z" fill="#FB7869"/>
<path d="M99.3269 22.5197C99.3269 22.5197 99.2237 21.6479 99.8253 21.3252" stroke="#222222" stroke-width="0.5" stroke-miterlimit="10" stroke-linecap="round" stroke-linejoin="round"/>
<path d="M99.5037 21.6309C99.5037 21.6309 99.5812 22.6281 100.671 23.2248" stroke="#222222" stroke-width="0.5" stroke-miterlimit="10" stroke-linecap="round" stroke-linejoin="round"/>
<path d="M111.257 54.6003L109.398 42.8606C109.134 41.1937 108.769 39.5496 108.303 37.9404L105.999 29.9648" stroke="#222222" stroke-width="0.5" stroke-miterlimit="10" stroke-linecap="round" stroke-linejoin="round"/>
<path d="M95.6755 36.3946L98.2464 48.1339L97.554 36.2852L95.6755 36.3946Z" fill="#FE8032"/>
<path d="M99.8253 28.6514C99.8601 31.1951 103.732 32.6351 103.732 32.6351L104.779 30.8869L105.999 32.1532L106.431 31.4615" stroke="#222222" stroke-width="0.5" stroke-miterlimit="10"/>
<path d="M105.732 31.8768L104.778 30.8867L104.056 32.093L104.761 33.004C104.158 34.4585 102.325 35.4573 99.5037 33.2549C96.2828 30.7404 92.5649 32.3047 91.1854 33.7505L93.2186 35.376C93.2186 35.376 96.196 33.3373 99.3203 35.8161C102.206 38.1052 106.426 37.3306 105.359 32.8349L105.732 31.8768Z" fill="#222222"/>
<path d="M82.3986 40.5156C82.3986 40.5156 83.4968 42.5326 85.3382 43.333" stroke="#222222" stroke-width="0.5" stroke-miterlimit="10" stroke-linecap="round" stroke-linejoin="round"/>
<path d="M82.3687 41.8694C82.2565 42.0511 82.1012 42.1465 82.0214 42.0826C81.9415 42.0188 81.9676 41.82 82.0798 41.6383C82.192 41.4567 82.3474 41.3613 82.4272 41.4251C82.507 41.489 82.4806 41.6877 82.3687 41.8694Z" fill="#222222"/>
<path d="M123.209 34.3926C123.209 34.3926 124.044 36.0086 123.366 39.2858" stroke="#222222" stroke-width="0.5" stroke-miterlimit="10" stroke-linecap="round" stroke-linejoin="round"/>
<path d="M181.296 38.007C180.28 32.9557 184.765 34.002 183.746 28.9343C182.727 23.8669 189.168 22.3798 186.579 19.9979C183.99 17.6161 184.062 12.1113 186.369 9.84311C188.675 7.57492 190.918 10.2806 190.918 10.2806C193.005 12.0277 188.887 15.151 188.148 12.9615C187.41 10.7724 188.204 6.30172 192.641 6.74449C195.31 7.01091 196.047 9.41402 196.245 10.9384C196.326 11.5682 196.739 12.0847 197.288 12.2109C197.874 12.3454 198.735 12.0463 199.513 13.0523C201.068 15.064 198.775 16.6055 199.757 18.2204C200.74 19.8353 205.327 19.7592 204.563 24.5434C203.799 29.3276 212.063 27.8249 210.602 34.6842L181.296 38.007Z" fill="#222222"/>
<path d="M188.665 25.7158C188.665 25.7158 185.446 26.7842 184.139 33.9958C183.086 39.8084 182.969 41.0448 182.498 43.3749C182.279 44.4634 181.601 46.5313 184.139 47.4332C186.677 48.3351 187.218 44.2205 187.479 43.3749C187.717 42.6007 188.345 39.9882 188.951 37.4072C189.853 33.5606 189.755 29.4989 188.665 25.7158Z" fill="#FE8032"/>
<path d="M178.826 25.6147C178.826 25.6147 178.183 25.3292 178.262 24.5615C178.262 24.5615 180.574 24.9393 181.914 25.1582C182.25 25.2129 182.612 25.4265 182.749 25.5413C183.438 26.1205 183.181 27.689 183.336 29.0611C183.492 30.4331 183.723 32.4299 183.723 32.4299L185.405 44.5831C185.405 44.5831 185.878 46.7756 183.641 47.0223C182.6 47.1371 182.103 45.9524 181.889 44.9643C181.585 43.5607 181.461 42.891 181.275 41.7281C180.925 39.5461 178.826 25.6147 178.826 25.6147Z" fill="#F47365"/>
<path d="M169.868 22.7957C170.424 25.6203 172.008 27.6209 173.406 27.2644C174.805 26.9079 175.487 24.3292 174.931 21.505C174.375 18.6804 172.791 16.6797 171.393 17.0362C169.994 17.3927 169.312 19.9714 169.868 22.7957Z" fill="#7C7C7C"/>
<path d="M172.201 19.7474L180.14 18.8535L180.698 23.1501L173.115 24.3868L172.201 19.7474Z" fill="#A6A6A6"/>
<path d="M171.51 22.3597C171.762 23.6408 172.481 24.5484 173.115 24.3869C173.749 24.2254 174.059 23.0555 173.807 21.7744C173.554 20.4932 172.836 19.5856 172.201 19.7471C171.567 19.9087 171.257 21.0785 171.51 22.3597Z" fill="#F4F4F4"/>
<path d="M181.432 23.9834L182.499 32.5347L179.483 32.4359L178.443 24.1001L181.432 23.9834Z" fill="#FE8032"/>
<path d="M179.645 21.2785C179.98 22.98 180.934 24.1852 181.777 23.9705C182.619 23.7557 183.03 22.2024 182.695 20.5009C182.36 18.7994 181.406 17.5942 180.563 17.809C179.721 18.0237 179.31 19.577 179.645 21.2785Z" fill="#FE8032"/>
<path d="M174.931 21.5062C174.523 19.433 173.561 17.8082 172.525 17.229L172.524 17.2256L177.638 18.4558L180.563 17.8097L181.432 23.9842L178.444 24.1001L174.169 26.7841L174.168 26.7803C175.031 25.8396 175.374 23.7527 174.931 21.5062Z" fill="#FE8032"/>
<path d="M182.019 27.9887C180.382 28.1795 179.79 26.2598 179.79 26.2598C179.79 26.2598 179.09 25.8539 178.825 25.6156C178.825 25.6156 178.1 25.2025 178.261 24.5625L181.914 25.1592" fill="#F47365"/>
<path d="M178.777 26.1428C178.777 26.1428 178.977 26.6616 179.674 27.039C180.371 27.4164 180.245 28.1207 180.245 28.1207C180.245 28.1207 179.003 27.9382 178.128 27.6669C177.252 27.3959 177.013 27.1884 176.953 26.38C176.881 25.4131 178.556 25.0137 178.556 25.0137L178.673 25.9452L178.777 26.1428Z" fill="#F47365"/>
<path d="M178.392 26.3096C178.392 26.3096 176.933 26.6969 177.011 27.5991C177.081 28.4067 177.31 28.615 178.186 28.886C179.061 29.157 180.303 29.3398 180.303 29.3398C180.303 29.3398 180.429 28.6355 179.732 28.2581C179.035 27.8807 178.939 27.216 178.939 27.216" fill="#F47365"/>
<path d="M178.373 27.3516C178.373 27.3516 176.914 27.7388 176.992 28.6411C177.061 29.4487 177.291 29.657 178.166 29.928C179.042 30.199 180.284 30.3818 180.284 30.3818C180.284 30.3818 180.41 29.6771 179.713 29.3001C179.015 28.9227 178.92 28.258 178.92 28.258" fill="#F47365"/>
<path d="M178.383 28.3525C178.383 28.3525 177.002 28.7193 177.075 29.5737C177.141 30.3384 177.358 30.5356 178.188 30.7925C179.017 31.0494 180.193 31.2224 180.193 31.2224C180.193 31.2224 180.312 30.5554 179.652 30.1981C178.992 29.8409 178.901 29.2111 178.901 29.2111" fill="#F47365"/>
<path d="M178.304 25.0986C178.304 25.0986 176.875 25.4783 176.953 26.3806C177.022 27.1882 177.252 27.3965 178.127 27.6675C179.003 27.9384 180.245 28.1212 180.245 28.1212C180.245 28.1212 180.371 27.417 179.674 27.0396C178.976 26.6622 178.673 25.9458 178.673 25.9458" stroke="#020B31" stroke-width="0.5" stroke-miterlimit="10" stroke-linecap="round" stroke-linejoin="round"/>
<path d="M177.139 27.0947C177.046 27.2407 176.994 27.4083 177.01 27.5991C177.08 28.4067 177.31 28.615 178.185 28.8859C179.061 29.1569 180.303 29.3397 180.303 29.3397C180.303 29.3397 180.428 28.6355 179.731 28.2581C179.57 28.1707 179.441 28.0681 179.338 27.962" stroke="#020B31" stroke-width="0.5" stroke-miterlimit="10" stroke-linecap="round" stroke-linejoin="round"/>
<path d="M177.11 28.1533C177.024 28.2951 176.976 28.4574 176.992 28.6406C177.062 29.4482 177.291 29.6565 178.167 29.9274C179.042 30.1984 180.284 30.3812 180.284 30.3812C180.284 30.3812 180.41 29.6766 179.713 29.2996C179.663 29.2726 179.616 29.2437 179.572 29.2141" stroke="#020B31" stroke-width="0.5" stroke-miterlimit="10" stroke-linecap="round" stroke-linejoin="round"/>
<path d="M182.019 27.9872C180.382 28.178 179.79 26.2583 179.79 26.2583C179.79 26.2583 179.143 25.8315 178.825 25.6141C178.825 25.6141 178.132 25.2192 178.252 24.6035" stroke="#020B31" stroke-width="0.5" stroke-miterlimit="10" stroke-linecap="round" stroke-linejoin="round"/>
<path d="M177.111 29.2754C177.08 29.3677 177.066 29.4677 177.075 29.5753C177.141 30.3399 177.358 30.5372 178.188 30.7941C179.017 31.051 180.193 31.224 180.193 31.224C180.193 31.224 180.291 30.6733 179.814 30.3046" stroke="#020B31" stroke-width="0.5" stroke-miterlimit="10" stroke-linecap="round" stroke-linejoin="round"/>
<path d="M191.816 67.9456L191.878 67.6088L192.49 64.2544C192.124 64.026 191.854 63.7451 191.908 63.4248C191.946 63.1967 192.068 63.0686 192.227 63.0044C192.871 62.7445 193.386 62.2036 193.633 61.4785C193.971 60.4907 194.623 59.9453 194.623 59.9453L195.243 60.2547L195.757 60.5108C196.805 60.6097 197.808 61.0368 198.655 61.7453L198.687 61.7719L197.308 64.4213L196.101 66.7408L193.695 71.3642C192.581 72.4356 191.118 71.7674 191.118 71.7674L191.816 67.9456Z" fill="#7F8284"/>
<path d="M191.604 62.7289L180.209 55.3949L183.205 51.6201C183.205 51.6201 191.494 58.0253 193.53 59.75C192.62 62.044 191.604 62.7289 191.604 62.7289Z" fill="#F47365"/>
<path d="M191.933 63.3267L191.604 62.7289C191.604 62.7289 192.62 62.044 193.53 59.75C194.124 60.2536 194.438 59.9408 194.741 60.211L194.234 61.6598C193.863 62.7217 192.935 63.3936 191.933 63.3267Z" fill="white"/>
<path d="M191.119 71.7671C191.119 71.7671 192.581 72.4356 193.696 71.3638L196.102 66.7404L197.309 64.4209L198.687 61.7715L199.284 62.0083L197.844 64.7759L196.583 67.1991L194.318 71.5519C193.294 73.5195 190.922 72.3542 190.922 72.3542L191.119 71.7671Z" fill="#222222"/>
<path d="M192.801 62.0946C192.5 62.4739 192.158 62.8384 191.792 63.1641L191.688 63.0121C192.718 62.0946 193.547 60.8723 193.8 59.8975L193.962 59.9526C193.791 60.6131 193.368 61.3801 192.801 62.0946Z" fill="#020B31"/>
<path d="M182.139 48.6694C185.798 48.3319 201.224 52.8326 201.224 52.8326L203.365 64.3887C198.915 63.545 195.573 61.9309 193.166 60.3019L192.028 63.9718C192.028 63.9718 183.622 61.609 180.063 57.1083C176.503 52.6076 178.48 49.0069 182.139 48.6694Z" fill="#111111"/>
<path d="M195.733 55.3434C192.029 54.1454 183.025 49.3943 181.85 52.3819C180.878 54.855 183.386 56.4243 192.754 61.6292" stroke="white" stroke-width="0.5" stroke-miterlimit="10"/>
<path d="M193.166 60.3022C193.166 60.3022 188.715 57.2773 187.479 54.9707" stroke="white" stroke-width="0.5" stroke-miterlimit="10" stroke-linecap="round" stroke-linejoin="round"/>
<path d="M194.698 23.5764C194.698 23.5764 200.631 22.1136 203.301 30.4399C205.971 38.7663 205.971 41.1291 209.531 46.6426C213.09 52.1562 213.09 57.7818 213.09 57.7818C213.09 57.7818 201.817 53.7311 193.511 52.3808C193.511 52.3808 191.039 43.6044 189.556 41.6916C189.556 41.6916 186.391 42.0291 186.937 38.523C186.937 38.523 188.171 31.2274 188.666 25.7143C188.666 25.7143 191.138 23.9139 194.698 23.5764Z" fill="#FE8032"/>
<path d="M203.3 30.4448C202.759 32.8654 203.093 35.4305 204.28 37.5318C205.22 39.1965 206.383 41.2283 207.545 43.1901C205.827 39.7073 205.349 36.8287 203.301 30.4414C203.301 30.4414 203.3 30.4425 203.3 30.4448Z" fill="#FE8032"/>
<path d="M193.511 52.3823C193.511 52.3823 191.039 43.606 189.555 41.6931C189.555 41.6931 186.391 42.0306 186.937 38.5246C186.937 38.5246 188.171 31.229 188.665 25.7158" stroke="#222222" stroke-width="0.5" stroke-miterlimit="10" stroke-linecap="round" stroke-linejoin="round"/>
<path d="M195.589 39.4412C195.589 39.4412 198.292 40.2613 199.848 38.0479" stroke="#222222" stroke-width="0.5" stroke-miterlimit="10" stroke-linecap="round" stroke-linejoin="round"/>
<path d="M191.474 28.0834C191.49 28.2438 191.389 28.3886 191.248 28.4072C191.107 28.4255 190.979 28.3103 190.963 28.1499C190.947 27.9895 191.049 27.8444 191.189 27.8261C191.33 27.8079 191.458 27.923 191.474 28.0834Z" fill="#222222"/>
<path d="M191.692 29.7775C191.708 29.9379 191.607 30.0827 191.466 30.1013C191.325 30.1196 191.197 30.0044 191.181 29.844C191.165 29.6836 191.266 29.5388 191.407 29.5206C191.549 29.5016 191.676 29.6171 191.692 29.7775Z" fill="#222222"/>
<path d="M180.969 60.1108L181.255 59.9998L184.105 58.8942C184.092 58.4192 184.167 58.0121 184.437 57.9019C184.629 57.8236 184.787 57.8772 184.917 58.0007C185.441 58.5001 186.112 58.7289 186.787 58.6031C187.706 58.4317 188.45 58.7935 188.45 58.7935L188.532 59.5582L188.599 60.1914C189.057 61.2681 189.244 62.4683 189.138 63.6587L189.134 63.7031L186.428 63.6993L184.059 63.6963L179.337 63.6898C177.96 63.1426 177.722 61.3696 177.722 61.3696L180.969 60.1108Z" fill="#7F8284"/>
<path d="M184.81 57.2498L184.567 42.3564L188.947 43.3723C188.947 43.3723 188.314 54.7509 188.044 57.6227C185.845 57.8967 184.81 57.2498 184.81 57.2498Z" fill="#F47365"/>
<path d="M184.525 57.876L184.81 57.25C184.81 57.25 185.845 57.8969 188.044 57.6225C187.965 58.4613 188.361 58.6099 188.311 59.0435L186.957 59.2833C185.964 59.4597 184.984 58.8922 184.525 57.876Z" fill="white"/>
<path d="M177.722 61.3711C177.722 61.3711 177.96 63.1441 179.338 63.6914L184.06 63.6978L186.429 63.7009L189.135 63.7047L189.259 64.4093L186.432 64.4055L183.957 64.4021L179.512 64.396C177.502 64.3933 177.178 61.4768 177.178 61.4768L177.722 61.3711Z" fill="#222222"/>
<path d="M185.898 58.0996C185.458 57.9974 185.009 57.8484 184.576 57.6554L184.638 57.4756C185.856 58.0179 187.203 58.2091 188.069 57.9613L188.11 58.1487C187.523 58.3163 186.727 58.292 185.898 58.0996Z" fill="#020B31"/>
<path d="M184.348 58.0707C184.48 54.695 183.82 49.8192 184.348 41.2679C184.875 32.7165 190.778 28.8654 196.18 38.0058C199.316 43.3115 205.048 53.6445 205.048 53.6445L213.09 57.6576C213.09 57.6576 212.431 64.3713 205.707 64.4462C198.983 64.5211 195.537 61.7143 194.5 57.6576C194.178 56.3958 191.855 49.4262 190.311 44.7656C190.203 46.1228 190.126 47.5457 190.149 48.6935C190.215 51.919 188.501 58.0699 188.501 58.0699C188.501 58.0699 186.295 59.3287 184.348 58.0707Z" fill="#222222"/>
<path d="M210.471 56.3512C209.019 59.9124 207.897 60.7842 206.081 60.7842C203.685 60.7842 202.474 58.9231 199.982 53.2184C193.511 38.4044 192.599 37.8438 190.193 38.1977C187.77 38.5538 188.184 40.6301 188.315 44.2707C188.53 50.2475 187.246 58.5229 187.246 58.5229" stroke="white" stroke-width="0.5" stroke-miterlimit="10"/>
<path d="M186.056 18.343C186.056 18.343 184.729 18.1382 184.818 16.5575C184.908 14.9647 186.228 15.4181 186.228 15.4181C186.228 15.4181 185.907 16.5278 186.056 18.343Z" fill="#FB7869"/>
<path d="M185.827 15.9303C185.827 15.9303 185.305 15.8019 185.09 16.4468" stroke="#222222" stroke-width="0.5" stroke-miterlimit="10" stroke-linecap="round" stroke-linejoin="round"/>
<path d="M185.501 16.0244C185.501 16.0244 185.318 16.6603 185.689 17.2379" stroke="#222222" stroke-width="0.5" stroke-miterlimit="10" stroke-linecap="round" stroke-linejoin="round"/>
<path d="M186.226 18.1765C186.255 18.5106 186.04 18.8082 185.747 18.8416C185.453 18.8751 185.192 18.6311 185.162 18.297C185.133 17.9629 185.347 17.6654 185.641 17.6319C185.935 17.5988 186.196 17.8425 186.226 18.1765Z" fill="#FE8032"/>
<path d="M194.906 14.5723C195.415 16.8978 194.981 19.4564 194.36 20.5935C194.245 20.8045 194.12 20.9911 193.99 21.1674C192.549 23.1255 190.346 23.0563 190.346 23.0563C190.346 23.0563 190.254 23.0491 190.099 23.0168C189.262 22.8431 186.583 21.9466 186.424 17.5721C186.36 15.8424 186.663 14.3826 187.094 13.2044C187.377 12.4283 187.814 11.7967 188.339 11.3262L188.941 12.0221C190.504 13.8273 192.685 14.76 194.906 14.5723Z" fill="#FB7869"/>
<path d="M195.4 18.1289C195.4 18.1289 197.036 17.9708 197.012 16.0291C196.988 14.0721 195.347 14.5351 195.347 14.5351C195.347 14.5351 195.68 15.9162 195.4 18.1289Z" fill="#FB7869"/>
<path d="M195.81 15.191C195.81 15.191 196.457 15.0705 196.685 15.8755" stroke="#222222" stroke-width="0.5" stroke-miterlimit="10" stroke-linecap="round" stroke-linejoin="round"/>
<path d="M196.205 15.3301C196.205 15.3301 196.394 16.1214 195.909 16.8032" stroke="#222222" stroke-width="0.5" stroke-miterlimit="10" stroke-linecap="round" stroke-linejoin="round"/>
<path d="M196.662 17.5906C196.698 17.9239 196.49 18.2268 196.197 18.2679C195.904 18.3085 195.638 18.0718 195.602 17.7385C195.566 17.4051 195.774 17.1022 196.067 17.0612C196.36 17.0205 196.626 17.2573 196.662 17.5906Z" fill="#FE8032"/>
<path d="M189.873 25.3444L189.918 24.4437L189.939 22.9926C190.083 23.0238 190.168 23.0314 190.168 23.0314C190.168 23.0314 191.885 23.2499 193.614 21.5811L194.042 24.0514L194.074 24.3091C194.074 24.3091 194.01 26.7457 191.462 27.1178C189.654 27.3815 189.873 25.3444 189.873 25.3444Z" fill="#FB7869"/>
<path d="M193.534 22.4552C193.597 22.3693 193.659 22.2811 193.72 22.1891L193.614 21.5811C191.885 23.2499 190.168 23.0314 190.168 23.0314C190.168 23.0314 190.083 23.0238 189.939 22.9926L189.924 24.2802C190.403 24.2624 192.269 24.175 193.534 22.4552Z" fill="#F27364"/>
<path d="M213.656 25.2424C213.656 25.2424 204.002 30.9448 201.726 30.8711C199.45 30.7974 195.429 24.9844 196.879 23.582L210.38 21.5205C210.38 21.5205 213.022 21.6174 213.517 24.4633L213.656 25.2424Z" fill="#FE8032"/>
<path d="M213.88 12.2638C214.952 16.5117 215.685 23.9742 213.656 25.242L213.576 25.2002C212.097 24.4245 210.717 23.3364 210.463 21.5064L210.737 10.6542C210.675 9.73789 210.407 9.6748 210.073 8.89948C209.738 8.12416 209.059 4.10959 209.059 4.10959C209.059 4.10959 209.92 3.67214 210.281 6.2117C210.281 6.2117 210.621 6.74492 210.824 6.12162C211.027 5.49832 211.657 1.58827 211.657 1.58827C211.657 1.58827 211.75 0.661685 212.235 0.768862L212.101 4.14075L213.243 0C213.243 0 213.776 0.298727 213.515 1.38722L213.734 0.520303C213.734 0.520303 214.292 0.642302 213.969 2.35713C213.647 4.07196 213.522 5.29879 213.522 5.29879L214.393 3.78768C214.393 3.78768 214.519 2.05156 215 2.13251C215 2.13251 215.11 3.7223 215.048 4.16127C214.987 4.60024 213.331 9.51099 213.331 9.51099C213.331 9.51099 213.311 9.9074 213.341 10.3224C213.37 10.7382 213.88 12.2638 213.88 12.2638Z" fill="#FB7869"/>
<path d="M213.515 1.3877L212.708 5.02905" stroke="#222222" stroke-width="0.5" stroke-miterlimit="10" stroke-linecap="round" stroke-linejoin="round"/>
<path d="M211.503 4.80336C211.503 4.80336 212.753 4.63461 213.881 5.90211" stroke="#222222" stroke-width="0.5" stroke-miterlimit="10" stroke-linecap="round" stroke-linejoin="round"/>
<path d="M210.602 6.41992C210.602 6.41992 211.884 6.85775 211.875 8.62807" stroke="#222222" stroke-width="0.5" stroke-miterlimit="10" stroke-linecap="round" stroke-linejoin="round"/>
<path d="M191.534 14.6758C191.852 14.8852 192.209 15.2425 192.483 15.8509" stroke="#222222" stroke-width="0.5" stroke-miterlimit="10" stroke-linecap="round" stroke-linejoin="round"/>
<path d="M187.952 15.48C188.064 15.1676 188.276 14.8039 188.673 14.4873" stroke="#222222" stroke-width="0.5" stroke-miterlimit="10" stroke-linecap="round" stroke-linejoin="round"/>
<path d="M189.995 15.9424C189.995 15.9424 189.953 16.739 189.277 17.33C188.451 18.051 188.68 18.4082 189.311 18.7974" stroke="#222222" stroke-width="0.5" stroke-miterlimit="10" stroke-linecap="round" stroke-linejoin="round"/>
<path d="M190.435 19.2927C190.098 19.1267 190.034 19.642 190.034 19.642C190.034 19.642 189.631 19.2965 189.504 19.6823C189.393 20.0168 190.036 20.5078 190.251 20.4234C190.466 20.339 190.723 19.4349 190.435 19.2927Z" fill="#F43D4F"/>
<path opacity="0.5" d="M192.163 18.2762C191.957 17.9303 191.66 18.3264 191.66 18.3264C191.66 18.3264 191.483 17.789 191.193 18.0371C190.943 18.2523 191.254 19.0584 191.475 19.1184C191.696 19.1785 192.339 18.5719 192.163 18.2762Z" fill="#F43D4F"/>
<path opacity="0.5" d="M187.266 18.5613C187.44 18.1934 187.771 18.5529 187.771 18.5529C187.771 18.5529 187.899 17.9976 188.209 18.2109C188.478 18.3956 188.241 19.2336 188.026 19.3195C187.811 19.4046 187.118 18.876 187.266 18.5613Z" fill="#F43D4F"/>
<path d="M189.236 19.9358C189.236 19.9358 190.226 20.33 190.842 19.2715" stroke="#222222" stroke-width="0.5" stroke-miterlimit="10" stroke-linecap="round" stroke-linejoin="round"/>
<path d="M191.616 16.979C191.596 17.2215 191.407 17.3993 191.194 17.3769C190.981 17.3541 190.825 17.1394 190.844 16.8969C190.864 16.6544 191.053 16.4766 191.266 16.499C191.479 16.5218 191.636 16.7369 191.616 16.979Z" fill="#222222"/>
<path d="M192.384 17.0366C192.096 17.105 191.716 17.1088 191.268 16.9131" stroke="#222222" stroke-width="0.5" stroke-miterlimit="10" stroke-linecap="round" stroke-linejoin="round"/>
<path d="M192.374 16.5605C192.122 16.732 191.764 16.8768 191.284 16.8581" stroke="#222222" stroke-width="0.5" stroke-miterlimit="10" stroke-linecap="round" stroke-linejoin="round"/>
<path d="M187.526 15.9873C187.751 16.202 188.084 16.4099 188.56 16.4787" stroke="#222222" stroke-width="0.5" stroke-miterlimit="10" stroke-linecap="round" stroke-linejoin="round"/>
<path d="M187.732 15.5703C187.883 15.8573 188.138 16.1773 188.569 16.419" stroke="#222222" stroke-width="0.5" stroke-miterlimit="10" stroke-linecap="round" stroke-linejoin="round"/>
<path d="M188.935 16.5235C188.915 16.766 188.727 16.9439 188.514 16.9215C188.301 16.8987 188.144 16.6839 188.164 16.4418C188.184 16.1993 188.373 16.0215 188.586 16.0439C188.799 16.0663 188.955 16.2811 188.935 16.5235Z" fill="#222222"/>
<path d="M190.311 44.8906C190.311 44.8906 190.149 42.0861 189.259 40.0049" stroke="white" stroke-width="0.5" stroke-miterlimit="10" stroke-linecap="round" stroke-linejoin="round"/>
</svg>
