<svg width="494" height="390" viewBox="0 0 494 390" fill="none" xmlns="http://www.w3.org/2000/svg">
<path d="M144.131 143.998C142.319 140.318 139.358 137.16 135.793 135.104C128.692 131.01 123.436 131.706 122.86 131.799C120.776 132.135 119.344 134.194 119.662 136.399C119.979 138.602 121.927 140.117 124.011 139.781C124.042 139.776 127.39 139.455 132.139 142.194C134.387 143.49 136.242 145.456 137.361 147.728C138.33 149.697 138.681 151.769 138.323 153.415C137.776 155.932 136.546 159.028 133.812 160.264L134.98 162.397L137.367 167.439C139.22 166.504 140.838 165.134 142.198 163.345C143.87 161.148 145.069 158.416 145.763 155.225C146.532 151.684 145.953 147.697 144.131 143.998Z" fill="#EDCB4D"/>
<path d="M341.707 383.197L354.481 383.384L354.672 370.012L341.948 368.256L341.707 383.197Z" fill="#EBB2BB"/>
<path d="M328.927 385.701H354.51V380.182C354.51 380.182 352.649 377.533 349.816 378.885C349.816 378.885 345.531 382.1 341.753 378.209L332.372 382.61C332.372 382.61 328.927 383.825 328.927 385.701Z" fill="#D87830"/>
<path d="M354.603 380.182H354.416V384.87H354.603V380.182Z" fill="black"/>
<path d="M345.975 380.234C345.615 380.234 345.399 380.202 345.392 380.2L345.42 380.004C345.442 380.007 347.656 380.335 349.762 378.803L349.869 378.967C348.36 380.065 346.795 380.234 345.975 380.234Z" fill="black"/>
<path d="M353.316 383.08L352.116 383.934L352.221 384.099L353.421 383.245L353.316 383.08Z" fill="black"/>
<path d="M352.49 382.787L351.291 383.643L351.397 383.808L352.595 382.952L352.49 382.787Z" fill="black"/>
<path d="M354.662 387.633H328.919C328.31 387.633 327.816 387.11 327.816 386.465V386.14C327.816 385.495 328.31 384.973 328.919 384.973H354.662C354.908 384.973 355.107 385.183 355.107 385.443V387.163C355.106 387.422 354.908 387.633 354.662 387.633Z" fill="#FF9D00"/>
<path d="M329.158 385.016L328.988 384.93C329.009 384.883 329.523 383.768 331.444 382.902C333.331 382.051 341.63 378.157 341.714 378.118L341.79 378.3C341.706 378.339 333.406 382.233 331.518 383.085C329.67 383.918 329.163 385.004 329.158 385.016Z" fill="black"/>
<path d="M328.199 387.392C327.896 387.12 327.722 386.723 327.722 386.303C327.722 385.514 328.328 384.873 329.073 384.873H354.477C354.876 384.873 355.201 385.217 355.201 385.639V386.966H355.013V385.639C355.013 385.327 354.772 385.072 354.477 385.072H329.073C328.432 385.072 327.91 385.624 327.91 386.303C327.91 386.664 328.06 387.007 328.321 387.241L328.199 387.392Z" fill="black"/>
<path d="M113.749 196.031C112.905 198.416 110.392 199.626 108.137 198.733C105.882 197.84 104.738 195.183 105.582 192.798C106.427 190.413 108.939 189.203 111.194 190.096C113.449 190.988 114.593 193.646 113.749 196.031Z" fill="#EDCB4D"/>
<path d="M114.021 80.8062C114.021 80.8062 122.118 80.2155 125.127 69.8662C125.127 69.8662 113.077 71.3791 114.021 80.8062Z" fill="#EDCB4D"/>
<path d="M109.39 86.0885C109.39 86.0885 122.342 91.6471 134.392 78.0369C134.392 78.0369 114.664 70.746 109.39 86.0885Z" fill="#E69148"/>
<path d="M365.738 383.004L378.512 383.191L378.702 369.819L365.979 368.062L365.738 383.004Z" fill="#EBB2BB"/>
<path d="M183.296 227.421C183.296 227.421 189.201 240.957 191.844 243.616C194.487 246.274 225.379 248.367 225.379 248.367L226.196 238.298L201.339 232.283L194.821 219.245L183.296 227.421Z" fill="#EBB2BB"/>
<path d="M196.67 236.326C196.733 236.319 196.795 236.296 196.849 236.254L201.572 232.651C201.736 232.525 201.774 232.283 201.655 232.109C201.536 231.934 201.306 231.895 201.142 232.021L196.419 235.624C196.255 235.749 196.217 235.993 196.336 236.167C196.415 236.283 196.544 236.339 196.67 236.326Z" fill="#C84D71"/>
<path d="M181.244 182.674C181.244 182.674 182.672 177.857 177.307 174.608C171.943 171.359 171.831 177.978 169.975 178.814C168.12 179.65 164.571 179.334 163.695 183.285C162.82 187.235 163.847 189.932 161.89 190.772C159.933 191.612 153.895 197.856 156.395 204.764C158.896 211.671 165.406 210.469 165.406 210.469C165.406 210.469 191.259 208.418 192.208 201.125C193.156 193.832 190.328 191.08 186.797 189.098C184.628 187.88 180.46 187.164 181.244 182.674Z" fill="#D87830"/>
<path d="M178.826 185.22C178.826 185.22 182.073 194.629 180.948 197.115C180.948 197.115 180.415 198.424 178.617 198.85L179.793 204.923L171.691 206.679L167.831 186.754L178.826 185.22Z" fill="#EBB2BB"/>
<path d="M177.655 193.413C177.621 193.421 177.585 193.402 177.571 193.367C177.554 193.327 177.571 193.28 177.61 193.262C178.064 193.051 178.244 192.367 178.291 192.147C177.542 191.912 177.034 191.505 176.781 190.937C176.368 190.012 176.781 189.005 176.799 188.962C176.815 188.922 176.86 188.904 176.898 188.922C176.936 188.939 176.953 188.987 176.936 189.027C176.932 189.036 176.534 190.012 176.918 190.87C177.159 191.411 177.658 191.795 178.399 192.014L178.464 192.033L178.453 192.104C178.447 192.145 178.286 193.123 177.67 193.409C177.665 193.411 177.66 193.412 177.655 193.413Z" fill="#C84D71"/>
<path d="M178.643 201.565L178.285 199.1C178.285 199.1 174.31 199.494 171.659 198.276C171.659 198.276 175.423 201.079 178.643 201.565Z" fill="#C84D71"/>
<path d="M172.334 190.28C172.297 190.288 172.257 190.281 172.223 190.258C172.153 190.211 172.132 190.113 172.176 190.038C172.191 190.014 173.687 187.557 175.702 188.656C175.777 188.696 175.806 188.792 175.767 188.87C175.729 188.948 175.638 188.979 175.564 188.939C173.795 187.975 172.486 190.117 172.431 190.209C172.408 190.247 172.372 190.271 172.334 190.28Z" fill="#D87830"/>
<path d="M177.281 187.971C177.24 187.98 177.195 187.97 177.159 187.941C177.093 187.887 177.081 187.788 177.132 187.717C177.177 187.655 178.261 186.18 179.241 186.756C179.314 186.799 179.34 186.896 179.3 186.973C179.259 187.05 179.168 187.078 179.095 187.035C178.342 186.593 177.38 187.898 177.371 187.912C177.348 187.943 177.316 187.963 177.281 187.971Z" fill="#D87830"/>
<path d="M179.323 189.67C179.37 189.91 179.223 190.145 178.996 190.194C178.769 190.244 178.547 190.089 178.501 189.848C178.454 189.608 178.601 189.374 178.828 189.324C179.055 189.275 179.277 189.43 179.323 189.67Z" fill="black"/>
<path d="M175.112 190.583C175.158 190.824 175.012 191.058 174.785 191.107C174.558 191.156 174.336 191.002 174.289 190.762C174.243 190.521 174.389 190.287 174.616 190.238C174.843 190.189 175.065 190.343 175.112 190.583Z" fill="black"/>
<path d="M170.811 193.453C171.072 194.8 170.252 196.115 168.978 196.392C167.705 196.667 166.461 195.799 166.2 194.452C165.939 193.106 166.76 191.79 168.033 191.514C169.307 191.238 170.55 192.106 170.811 193.453Z" fill="#EBB2BB"/>
<path d="M168.627 195.495C168.143 195.6 167.745 195.285 167.564 194.924C167.351 194.497 167.409 194.023 167.714 193.718C168.148 193.284 168.638 193.377 168.915 193.487C168.766 193.249 168.578 193.092 168.355 193.018C167.852 192.854 167.332 193.167 167.327 193.17C167.29 193.192 167.244 193.178 167.224 193.141C167.203 193.102 167.215 193.054 167.251 193.031C167.275 193.017 167.834 192.681 168.399 192.866C168.725 192.973 168.983 193.231 169.165 193.632L169.282 193.89L169.056 193.734C169.028 193.715 168.377 193.274 167.817 193.834C167.508 194.143 167.559 194.574 167.697 194.849C167.842 195.137 168.166 195.437 168.608 195.335C168.648 195.326 168.689 195.353 168.698 195.396C168.706 195.439 168.681 195.482 168.64 195.491C168.636 195.493 168.631 195.494 168.627 195.495Z" fill="#C84D71"/>
<path d="M178.826 185.221C178.826 185.221 177.397 181.619 172.569 182.235C167.74 182.851 167.831 186.754 167.831 186.754L173.474 186.743L178.471 185.27L178.826 185.221Z" fill="#EBB2BB"/>
<path d="M178.21 182.041C178.21 182.041 175.849 185.739 171.883 185.877C171.883 185.877 171.563 191.105 168.746 191.477C165.928 191.85 166.109 184.664 166.109 184.664C166.109 184.664 170.861 181.307 171.189 181.236C171.517 181.165 176.949 179.626 176.949 179.626L178.21 182.041Z" fill="#D87830"/>
<path d="M176.095 191.816C175.978 191.842 175.94 191.648 176.057 191.622C176.175 191.597 176.212 191.79 176.095 191.816Z" fill="#EA5942"/>
<path d="M175.606 192.284C175.489 192.31 175.451 192.116 175.569 192.09C175.686 192.065 175.724 192.259 175.606 192.284Z" fill="#EA5942"/>
<path d="M174.463 191.806C174.346 191.832 174.308 191.638 174.426 191.613C174.543 191.587 174.58 191.781 174.463 191.806Z" fill="#EA5942"/>
<path d="M173.733 192.691C173.616 192.717 173.578 192.523 173.696 192.497C173.813 192.472 173.851 192.665 173.733 192.691Z" fill="#EA5942"/>
<path d="M172.646 191.951C172.529 191.977 172.491 191.783 172.609 191.757C172.726 191.732 172.764 191.926 172.646 191.951Z" fill="#EA5942"/>
<path d="M172.587 193.415C172.469 193.441 172.432 193.246 172.549 193.221C172.667 193.195 172.704 193.389 172.587 193.415Z" fill="#EA5942"/>
<path d="M177.817 190.852C177.7 190.878 177.662 190.684 177.78 190.659C177.897 190.633 177.935 190.827 177.817 190.852Z" fill="#EA5942"/>
<path d="M178.648 191.489C178.531 191.515 178.493 191.321 178.611 191.295C178.728 191.27 178.766 191.463 178.648 191.489Z" fill="#EA5942"/>
<path d="M179.404 190.962C179.287 190.987 179.249 190.794 179.367 190.768C179.484 190.742 179.522 190.936 179.404 190.962Z" fill="#EA5942"/>
<path d="M179.732 192.32C179.614 192.346 179.577 192.152 179.694 192.126C179.811 192.101 179.849 192.294 179.732 192.32Z" fill="#EA5942"/>
<path d="M180.193 191.38C180.076 191.405 180.038 191.211 180.156 191.186C180.273 191.161 180.31 191.354 180.193 191.38Z" fill="#EA5942"/>
<path d="M179.817 190.215C179.7 190.24 179.662 190.046 179.78 190.021C179.897 189.995 179.934 190.189 179.817 190.215Z" fill="#EA5942"/>
<path d="M175.066 193.037C174.949 193.063 174.911 192.868 175.028 192.843C175.146 192.818 175.183 193.011 175.066 193.037Z" fill="#EA5942"/>
<path d="M174.427 290.992L176.996 380.267L189.778 381.182L199.164 287.537L174.427 290.992Z" fill="#EBB2BB"/>
<path d="M176.07 290.992L153.981 379.845L140.893 381.182L152.093 287.537L176.07 290.992Z" fill="#EBB2BB"/>
<path d="M141.133 301.57C141.716 296.774 147.58 275.678 149.81 268.941C152.039 262.205 157.199 251.186 157.199 251.186L161.203 243.127L157.43 232.459L156.428 234.788C147.458 231.823 141.118 225.524 141.118 225.524L142.563 223.369L146.745 217.389L151.128 211.611L155.087 207.229L159.634 204.907L161.806 204.476C161.916 204.433 162.029 204.401 162.145 204.385C162.257 204.37 162.37 204.356 162.484 204.342L165.24 203.795L165.59 204.035C168.624 203.796 171.604 203.709 172.559 203.685C174.073 203.526 182.817 203.677 182.817 203.677L182.847 203.699C184.118 203.857 191.86 204.716 193.35 206.321C193.751 206.753 195.837 211.023 197.998 219.869L198.994 224.787L197.977 225.559L196.661 226.768L194.403 227.649L193.861 228.462L192.981 242.678V243.527L194.164 245.773L196.806 251.902L198.367 256.272L200.279 262.824L201.248 267.202L202.3 272.546L203.172 277.143L203.781 281.023L204.252 285.342C204.252 285.342 204.671 287.941 204.671 288.014C204.671 288.088 204.986 292.189 204.986 292.189L205.178 295.796L205.498 301.476L205.331 305.927L205.498 309.646L204.623 315.478C176.118 328.484 139.11 312.662 139.11 312.662L141.133 301.57Z" fill="#2F2158"/>
<path d="M139.111 312.662L141.133 301.57C141.171 301.258 141.232 300.874 141.313 300.43C143.082 299.777 145.007 299.717 146.889 299.675C148.12 299.648 149.514 299.69 150.343 300.652C151.167 301.608 151.086 303.056 151.188 304.345C151.29 305.634 151.903 307.16 153.123 307.248C153.805 307.298 154.42 306.86 155.05 306.58C156.354 306 157.91 306.095 159.141 306.831C160.478 307.63 161.433 309.118 162.9 309.598C164.793 310.218 166.717 308.954 168.458 307.952C170.13 306.989 171.945 306.215 173.846 306.105C175.748 305.995 177.752 306.625 179.038 308.11C180.09 309.325 180.86 311.187 182.414 311.299C184.052 311.418 185.043 309.503 186.302 308.389C188.105 306.793 191.049 306.91 192.733 308.644C193.432 309.363 193.931 310.312 194.756 310.859C195.772 311.532 197.197 311.418 198.105 310.592C198.857 309.907 199.221 308.854 199.91 308.099C201.131 306.759 203.138 306.607 204.849 307.035C205.032 307.081 205.212 307.135 205.389 307.193L205.499 309.646L204.624 315.478C176.119 328.484 139.111 312.662 139.111 312.662Z" fill="#FF9D00"/>
<path d="M157.828 209.594C157.87 209.594 157.912 209.573 157.939 209.535C159.276 207.65 161.461 206.883 161.482 206.876C161.555 206.851 161.595 206.768 161.571 206.691C161.548 206.615 161.469 206.572 161.397 206.597C161.305 206.629 159.109 207.398 157.718 209.359C157.672 209.424 157.684 209.516 157.745 209.564C157.77 209.584 157.8 209.594 157.828 209.594Z" fill="#21111D"/>
<path d="M158.09 210.949C158.132 210.949 158.173 210.928 158.2 210.89C159.537 209.005 161.722 208.239 161.743 208.231C161.816 208.206 161.856 208.124 161.832 208.047C161.809 207.97 161.73 207.927 161.658 207.953C161.566 207.984 159.37 208.753 157.979 210.714C157.933 210.779 157.945 210.871 158.006 210.92C158.031 210.939 158.061 210.949 158.09 210.949Z" fill="#21111D"/>
<path d="M141.063 302.12C141.053 302.12 141.042 302.119 141.031 302.116C140.941 302.098 140.883 302.006 140.901 301.911C147.562 266.305 160.168 244.548 161.02 243.107L157.393 232.853L156.521 235.002L156.378 234.954C146.363 231.598 140.997 225.787 140.944 225.729L140.85 225.626L140.928 225.508C141.349 224.867 151.293 209.766 155.581 206.678C159.884 203.58 167.11 203.503 167.183 203.503H167.184C167.275 203.503 167.349 203.581 167.349 203.677C167.35 203.774 167.276 203.852 167.185 203.853C167.113 203.853 159.986 203.93 155.767 206.968C151.728 209.876 142.247 224.125 141.279 225.588C142.034 226.37 147.222 231.483 156.336 234.573L157.415 231.913L161.388 243.148L161.343 243.222C161.212 243.439 148.075 265.37 141.226 301.979C141.21 302.062 141.141 302.12 141.063 302.12Z" fill="black"/>
<path d="M156.428 234.963C156.408 234.963 156.389 234.959 156.369 234.952C156.284 234.918 156.241 234.816 156.273 234.726L160.467 222.999C160.5 222.908 160.596 222.863 160.681 222.897C160.766 222.931 160.81 223.032 160.777 223.122L156.583 234.849C156.558 234.92 156.495 234.963 156.428 234.963Z" fill="black"/>
<path d="M164.781 243.703C164.776 243.703 164.77 243.702 164.764 243.702L161.186 243.301C161.095 243.29 161.03 243.204 161.039 243.108C161.049 243.012 161.129 242.941 161.221 242.952L164.799 243.354C164.89 243.364 164.956 243.45 164.946 243.546C164.937 243.636 164.865 243.703 164.781 243.703Z" fill="black"/>
<path d="M205 315.446C204.997 315.446 204.993 315.446 204.99 315.445C204.899 315.439 204.829 315.356 204.835 315.259C206.263 290.958 202.926 272.774 199.876 261.799C196.57 249.908 192.88 243.684 192.843 243.622L192.813 243.573L192.817 243.515L193.887 228.196L193.911 228.158C198.553 220.694 193.005 214.629 192.948 214.569C192.884 214.5 192.884 214.389 192.949 214.321C193.014 214.253 193.119 214.254 193.183 214.322C193.242 214.385 198.961 220.624 194.211 228.312L193.151 243.485C193.508 244.099 197.026 250.314 200.188 261.683C203.248 272.688 206.596 290.92 205.165 315.281C205.16 315.375 205.087 315.446 205 315.446Z" fill="black"/>
<path d="M189.857 228.243H176.07C175.979 228.243 175.905 228.165 175.905 228.068C175.905 227.971 175.979 227.893 176.07 227.893H189.857C189.949 227.893 190.023 227.971 190.023 228.068C190.023 228.165 189.949 228.243 189.857 228.243Z" fill="black"/>
<path d="M187.864 230.789H178.728C178.636 230.789 178.562 230.711 178.562 230.614C178.562 230.517 178.636 230.438 178.728 230.438H187.864C187.955 230.438 188.029 230.517 188.029 230.614C188.029 230.711 187.955 230.789 187.864 230.789Z" fill="black"/>
<path d="M194.404 227.824C194.323 227.824 194.253 227.762 194.241 227.676C194.227 227.58 194.288 227.491 194.379 227.476C196.784 227.085 198.506 224.997 198.814 224.6C198.713 224.185 198.577 223.581 198.409 222.83C197.34 218.052 194.835 206.863 192.143 205.861C188.973 204.681 183.66 203.982 183.606 203.975C183.516 203.963 183.451 203.876 183.462 203.78C183.474 203.684 183.555 203.616 183.647 203.627C183.7 203.634 189.049 204.338 192.253 205.531C195.115 206.596 197.558 217.506 198.731 222.749C198.911 223.551 199.053 224.185 199.155 224.596L199.176 224.679L199.127 224.747C199.05 224.854 197.21 227.37 194.429 227.822C194.421 227.823 194.412 227.824 194.404 227.824Z" fill="black"/>
<path d="M229.222 240.241C229.155 239.668 229.229 238.974 229.486 238.755L234.486 235.44C234.881 235.105 235.458 235.172 235.775 235.589C236.092 236.007 236.029 236.617 235.634 236.952L233.913 239.083C235.042 239.219 242.281 239.466 242.281 239.466C242.808 239.454 243.24 239.914 243.217 240.479C243.196 240.995 242.777 241.394 242.289 241.405L237.547 241.513C237.476 241.514 237.416 241.553 237.376 241.609C237.353 241.642 237.335 241.679 237.33 241.722L237.304 241.973C237.298 242.037 237.316 242.098 237.351 242.145C237.241 243.308 237.069 244.782 237 246.026C236.951 246.909 237.184 247.676 236.502 248.131C236.107 248.395 234.039 248.392 233.303 248.334L227.979 248.281C228.116 246.739 228.226 245.864 229.222 240.241Z" fill="#EBB2BB"/>
<path d="M238.504 242.982C238.369 243.622 237.857 244.019 237.719 243.987L233.12 242.915C232.603 242.795 232.238 242.277 232.318 241.724C232.406 241.117 232.957 240.725 233.514 240.855L238.231 241.954C238.231 241.954 238.639 242.342 238.504 242.982Z" fill="#EBB2BB"/>
<path d="M238.068 245.004C237.944 245.647 237.439 246.055 237.301 246.025L232.683 245.047C232.164 244.937 231.79 244.427 231.86 243.872C231.937 243.264 232.481 242.86 233.04 242.979L237.776 243.982C237.776 243.982 238.191 244.362 238.068 245.004Z" fill="#EBB2BB"/>
<path d="M237.495 246.841C237.386 247.441 236.92 247.826 236.791 247.801L232.48 246.943C231.995 246.846 231.641 246.375 231.701 245.858C231.766 245.291 232.268 244.908 232.791 245.012L237.212 245.892C237.212 245.892 237.603 246.241 237.495 246.841Z" fill="#EBB2BB"/>
<path d="M237.719 244.167C237.805 244.167 237.883 244.103 237.902 244.011C237.924 243.904 237.859 243.799 237.759 243.776L233.159 242.722C232.727 242.621 232.438 242.196 232.503 241.753C232.537 241.517 232.658 241.312 232.844 241.177C233.03 241.042 233.253 240.996 233.474 241.048L237.678 242.028C237.779 242.05 237.879 241.984 237.901 241.878C237.923 241.771 237.86 241.666 237.759 241.642L233.554 240.662C233.237 240.588 232.901 240.657 232.633 240.851C232.361 241.048 232.183 241.348 232.133 241.694C232.039 242.341 232.455 242.963 233.08 243.108L237.679 244.162C237.693 244.165 237.706 244.167 237.719 244.167Z" fill="#C84D71"/>
<path d="M237.173 246.084C237.261 246.084 237.34 246.017 237.356 245.922C237.375 245.815 237.308 245.712 237.207 245.692L232.694 244.804C232.257 244.712 231.989 244.339 232.045 243.898C232.075 243.661 232.193 243.453 232.376 243.315C232.559 243.176 232.781 243.126 233.003 243.173L237.739 244.176C237.84 244.198 237.939 244.128 237.959 244.021C237.979 243.914 237.913 243.81 237.812 243.789L233.077 242.785C232.758 242.717 232.424 242.793 232.158 242.994C231.89 243.196 231.718 243.499 231.674 243.846C231.592 244.492 231.992 245.058 232.623 245.192L237.138 246.081C237.15 246.082 237.162 246.084 237.173 246.084Z" fill="#C84D71"/>
<path d="M236.791 248C236.88 248 236.958 247.934 236.975 247.839C236.994 247.732 236.927 247.629 236.826 247.608L232.514 246.75C232.115 246.671 231.84 246.29 231.886 245.884C231.912 245.666 232.017 245.475 232.184 245.346C232.35 245.217 232.554 245.168 232.757 245.209L237.178 246.088C237.278 246.109 237.377 246.038 237.396 245.931C237.415 245.824 237.348 245.72 237.247 245.7L232.826 244.82C232.525 244.76 232.211 244.835 231.963 245.027C231.712 245.221 231.553 245.508 231.515 245.836C231.445 246.448 231.853 247.021 232.445 247.138L236.757 247.997C236.768 247.999 236.78 248 236.791 248Z" fill="#C84D71"/>
<path d="M153.172 264.924C153.172 264.924 154.76 264.413 156.179 263.583C157.598 262.753 157.657 264.072 157.407 264.588C157.157 265.103 155.594 266.827 155.594 266.827L153.172 264.924Z" fill="#C84D71"/>
<path d="M152.128 264.639C152.152 264.684 152.176 264.738 152.199 264.779C154.502 265.123 157.18 265.522 157.838 265.615C159.047 265.787 162.924 267.792 164.012 269.084C165.986 271.428 164.577 271.344 164.577 271.344C166.412 273.982 164.143 273.552 164.143 273.552C165.983 275.763 163.772 275.795 163.772 275.795C164.644 277.09 164.344 277.598 163.942 277.797C163.649 277.943 163.304 277.917 163.019 277.753C162.491 277.45 161.336 276.783 160.133 276.06L160.134 276.06C160.134 276.06 156.235 274.709 149.138 273.187L146.382 272.291L152.128 264.639Z" fill="#EBB2BB"/>
<path d="M161.437 273.76C161.376 273.747 161.312 273.775 161.28 273.835C161.24 273.909 161.264 274.004 161.335 274.047C162.321 274.641 163.661 275.898 163.674 275.911C163.735 275.967 163.828 275.962 163.881 275.898C163.935 275.834 163.93 275.736 163.87 275.679C163.814 275.626 162.493 274.388 161.48 273.777C161.466 273.769 161.452 273.763 161.437 273.76Z" fill="#C84D71"/>
<path d="M161.815 271.838C161.748 271.823 161.677 271.861 161.65 271.931C161.619 272.011 161.655 272.101 161.73 272.134C163.008 272.688 164.034 273.659 164.045 273.668C164.105 273.726 164.198 273.72 164.252 273.657C164.306 273.593 164.301 273.495 164.241 273.438C164.198 273.396 163.168 272.422 161.841 271.847C161.833 271.843 161.824 271.84 161.815 271.838Z" fill="#C84D71"/>
<path d="M162.565 269.715C162.499 269.701 162.43 269.736 162.401 269.804C162.369 269.882 162.402 269.974 162.476 270.009C163.566 270.521 164.465 271.447 164.474 271.456C164.532 271.516 164.625 271.515 164.682 271.454C164.738 271.393 164.738 271.294 164.68 271.234C164.641 271.195 163.734 270.26 162.595 269.725C162.585 269.721 162.575 269.717 162.565 269.715Z" fill="#C84D71"/>
<path d="M133.552 244.816C133.518 242.346 139.468 231.503 141.858 226.764C145.574 230.19 150.942 232.968 153.377 233.921C151.009 237.916 148.297 243.132 147.173 244.992C146.007 246.92 150.594 262.203 152.217 265.133L146.382 272.291C142.338 268.362 133.67 253.356 133.552 244.816Z" fill="#EBB2BB"/>
<path d="M231.337 237.527C231.337 237.527 228.934 238.652 228.269 238.608C227.605 238.564 224.868 237.975 224.868 237.975L223.532 248.232C223.532 248.232 225.571 248.488 229.1 248.292C232.63 248.095 231.337 237.527 231.337 237.527Z" fill="#EBB2BB"/>
<path d="M269.128 128.113C265.421 125.927 261.461 124.437 257.406 123.644L255.088 113.124L248.112 113.47L241.136 113.816L239.758 124.519C235.791 125.71 231.979 127.585 228.482 130.128L219.809 124.422L215.107 129.884L210.406 135.345L216.588 143.946C214.521 147.866 213.113 152.055 212.363 156.344L202.416 158.796L202.743 166.174L203.07 173.552L213.19 175.009C214.316 179.205 216.089 183.237 218.493 186.935L213.098 196.109L218.262 201.082L223.426 206.054L231.557 199.516C235.263 201.702 239.224 203.191 243.279 203.985L245.597 214.505L252.573 214.159L259.549 213.813L260.927 203.11C264.893 201.919 268.705 200.044 272.202 197.501L280.875 203.207L285.577 197.745L290.278 192.284L284.096 183.684C286.163 179.763 287.571 175.574 288.321 171.286L298.268 168.834L297.941 161.455L297.614 154.077L287.494 152.62C286.368 148.424 284.595 144.392 282.191 140.694L287.585 131.52L282.422 126.547L277.258 121.575L269.128 128.113ZM269.715 182.47C259.974 193.786 243.404 194.607 232.705 184.305C222.006 174.002 221.229 156.475 230.97 145.159C240.712 133.843 257.282 133.022 267.981 143.324C278.68 153.627 279.456 171.154 269.715 182.47Z" fill="#FF9D00"/>
<path d="M305.748 269.466C304.423 268.519 302.982 267.825 301.484 267.389L300.934 263.361L298.305 263.253L295.676 263.145L294.833 267.115C293.308 267.427 291.82 268.001 290.43 268.837L287.348 266.399L285.416 268.289L283.485 270.179L285.544 273.618C284.649 275.019 283.992 276.544 283.58 278.128L279.772 278.71L279.669 281.49L279.567 284.271L283.322 285.163C283.616 286.776 284.159 288.35 284.949 289.82L282.644 293.08L284.431 295.122L286.218 297.165L289.47 294.987C290.794 295.934 292.236 296.628 293.734 297.064L294.283 301.092L296.912 301.201L299.541 301.309L300.385 297.338C301.91 297.026 303.398 296.452 304.788 295.617L307.87 298.054L309.801 296.164L311.732 294.274L309.674 290.835C310.569 289.434 311.225 287.909 311.638 286.325L315.446 285.744L315.548 282.963L315.65 280.182L311.896 279.29C311.601 277.677 311.059 276.103 310.269 274.632L312.573 271.373L310.786 269.33L308.999 267.288L305.748 269.466ZM304.312 289.89C300.311 293.806 294.066 293.549 290.363 289.317C286.661 285.085 286.904 278.48 290.905 274.564C294.906 270.648 301.152 270.904 304.854 275.136C308.556 279.369 308.314 285.974 304.312 289.89Z" fill="#EDCB4D"/>
<path d="M66.7595 383.274L54.2242 383.456L54.0449 370.953L66.5306 369.303L66.7595 383.274Z" fill="#EBB2BB"/>
<path d="M45.1772 383.274L32.642 383.456L32.4622 370.953L44.948 369.303L45.1772 383.274Z" fill="#EBB2BB"/>
<path d="M46.5128 275.046C46.9278 287.959 48.733 338.469 52.5287 371.516C52.7788 373.694 54.5242 375.337 56.5988 375.331C58.8954 375.325 62.0901 375.035 65.63 373.892C67.341 373.34 68.5289 371.694 68.5579 369.802L70.1012 269.249C70.105 269.004 70.0892 268.76 70.0542 268.519L69.982 268.022C69.5844 265.285 66.8977 263.636 64.4535 264.629L49.1433 270.85C47.5096 271.514 46.4532 273.197 46.5128 275.046Z" fill="#D87830"/>
<path d="M29.6772 272.441C29.6772 272.441 28.635 334.552 31.3523 372.864C31.4809 374.678 32.842 376.11 34.5561 376.248C36.9826 376.444 40.6787 376.415 44.8446 375.245C46.2573 374.848 47.2862 373.558 47.412 372.017L54.6802 282.944L59.1555 258.213L29.6772 272.441Z" fill="#E69148"/>
<path d="M25.0016 252.676C25.2576 255.157 26.6628 291.967 30.5673 295.004C34.4718 298.041 71.8334 295.122 72.7034 291.534C73.5734 287.946 68.5025 249.479 68.5025 249.479L25.0016 252.676Z" fill="#C84D71"/>
<path d="M67.1874 235.331C67.692 235.34 87.6726 245.296 87.6726 245.296L83.3194 253.419L72.0247 250.366L67.1874 235.331Z" fill="#C84D71"/>
<path d="M30.6469 197.178C35.5709 196.637 48.5176 196.608 48.5176 196.608C48.5176 196.608 50.2154 197.145 49.6783 196.858C63.8723 200.04 65.0898 211.297 65.0898 211.297L71.0172 243.91L78.7596 244.633C81.108 249.755 78.8268 263.258 78.8268 263.258L41.1116 266.381C41.1116 266.381 32.9451 267.504 26.3769 257.94C22.0319 251.613 21.096 232.635 21.5438 218.808C21.5438 218.809 22.9956 198.019 30.6469 197.178Z" fill="#C84D71"/>
<path d="M67.9286 239.398C68.0336 239.444 68.1577 239.405 68.2205 239.3L69.9063 236.471L69.8886 236.373L65.3242 211.258C65.2983 211.033 64.9265 208.112 62.7021 204.825C60.6168 201.745 56.4364 197.772 48.3654 196.338C48.2361 196.315 48.1138 196.408 48.092 196.545C48.0703 196.681 48.1576 196.811 48.2869 196.834C56.1835 198.236 60.2661 202.1 62.3007 205.095C64.5052 208.34 64.8502 211.296 64.8533 211.326L64.8562 211.344L69.4049 236.371L67.8188 239.032C67.7488 239.15 67.7822 239.305 67.8932 239.378C67.9046 239.386 67.9166 239.393 67.9286 239.398Z" fill="#21111D"/>
<path d="M76.3262 239.793C76.4454 239.846 76.5829 239.788 76.635 239.662C76.6876 239.535 76.6331 239.387 76.5129 239.331L69.7508 236.192C69.626 236.141 69.4907 236.194 69.438 236.321C69.3854 236.448 69.4399 236.596 69.5601 236.652L76.3222 239.791C76.3234 239.792 76.3247 239.792 76.3262 239.793Z" fill="#21111D"/>
<path d="M32.7991 206.414L37.3929 198.265L45.4652 200.844L48.7396 197.16C48.7396 197.16 49.4362 200.562 49.4157 200.844C49.3952 201.126 45.7278 205.157 45.2564 205.113C44.785 205.07 32.7991 206.414 32.7991 206.414Z" fill="#C84D71"/>
<path d="M33.4539 296.164C33.5977 296.164 33.7191 296.046 33.7295 295.892C33.7403 295.731 33.6258 295.591 33.4735 295.58C29.5977 295.287 29.0654 291.801 28.1837 286.026C28.0251 284.988 27.8614 283.915 27.664 282.761C26.3516 275.091 25.7739 256.51 25.7686 256.323C25.7635 256.165 25.6408 256.04 25.492 256.04C25.4892 256.04 25.4863 256.04 25.4829 256.04C25.3302 256.045 25.2107 256.18 25.2151 256.342C25.2208 256.529 25.8001 275.153 27.1191 282.866C27.3159 284.014 27.4793 285.084 27.6376 286.12C28.5309 291.971 29.1215 295.837 33.4334 296.164C33.4407 296.164 33.447 296.164 33.4539 296.164Z" fill="#21111D"/>
<path d="M90.3322 222.992L95.8717 224.905L96.2356 225.031L101.775 226.944L85.6037 295.033C85.149 296.948 83.2551 298.054 81.4804 297.441L67.3823 292.572C65.6079 291.959 64.696 289.884 65.3973 288.054L90.3322 222.992Z" fill="#2F2158"/>
<path d="M89.6533 224.315L101.686 228.471C102.897 228.889 104.199 228.19 104.594 226.91L106.492 220.76L90.0758 215.091L88.1772 221.24C87.7818 222.521 88.4427 223.898 89.6533 224.315Z" fill="#FF9D00"/>
<path d="M92.2648 225.536L101.201 228.622C102.778 229.167 104.481 228.252 104.996 226.584L106.765 220.854L106.219 220.665L104.45 226.396C104.034 227.746 102.656 228.486 101.38 228.045L92.4437 224.959L92.2648 225.536Z" fill="#21111D"/>
<path d="M135.892 163.934C135.795 163.626 134.032 162.023 131.783 160.072C130.849 160.414 129.746 160.762 128.606 161.122C123.277 162.803 116.646 164.896 112.535 170.315C109.168 174.754 107.706 180.732 107.55 181.399C107.048 183.551 108.164 185.728 110.08 186.487C110.228 186.546 110.381 186.596 110.538 186.636C112.73 187.208 114.944 185.797 115.485 183.479C115.796 182.168 117.019 178.22 118.911 175.726C121.426 172.41 126.702 170.745 130.942 169.408C133.214 168.691 135.36 168.014 137.068 167.116C137.655 166.808 138.214 166.464 138.745 166.088C137.198 165.094 135.987 164.236 135.892 163.934Z" fill="#EDCB4D"/>
<path opacity="0.5" d="M130.644 209.414C142.969 196.378 142.969 175.242 130.644 162.205C118.318 149.169 98.335 149.169 86.0096 162.205C73.6842 175.242 73.6843 196.378 86.0096 209.414C98.335 222.45 118.318 222.45 130.644 209.414Z" fill="#EBB2BB"/>
<path opacity="0.5" d="M102.359 172.226C108.197 169.091 111.782 164.159 110.367 161.21C108.951 158.261 103.071 158.412 97.2329 161.546C91.3948 164.681 87.8095 169.613 89.225 172.562C90.6405 175.511 96.5208 175.361 102.359 172.226Z" fill="#F3FFFE"/>
<path d="M101.022 228.294L85.0936 295.896L85.6505 296.043L101.578 228.441L101.022 228.294Z" fill="#21111D"/>
<path d="M132.765 172.858L133.306 172.654C133.281 172.583 130.82 165.437 124.858 161.764L124.57 162.288C130.345 165.848 132.741 172.788 132.765 172.858Z" fill="#F3FFFE"/>
<path d="M129.96 175.818L130.501 175.614C130.477 175.543 128.015 168.397 122.054 164.724L121.765 165.248C127.541 168.808 129.937 175.748 129.96 175.818Z" fill="#F3FFFE"/>
<path d="M98.5372 217.54C81.9673 211.817 72.9209 192.971 78.3315 175.445C83.742 157.92 101.561 148.351 118.13 154.074C134.7 159.797 143.747 178.643 138.336 196.169C132.926 213.694 115.107 223.263 98.5372 217.54ZM143.108 197.816C149.379 177.504 138.893 155.66 119.688 149.027C100.483 142.394 79.8312 153.484 73.5601 173.797C67.289 194.11 77.7743 215.953 96.9792 222.586C116.184 229.219 136.837 218.129 143.108 197.816Z" fill="#FF9D00"/>
<path d="M96.8903 222.875C116.215 229.549 137.07 218.35 143.381 197.911C149.691 177.471 139.102 155.413 119.778 148.739C110.718 145.61 100.998 146.285 92.4069 150.639L92.655 151.187C101.112 146.9 110.682 146.236 119.6 149.316C138.623 155.886 149.047 177.601 142.835 197.722C136.623 217.844 116.093 228.868 97.0688 222.298C88.2387 219.248 80.9264 212.821 76.4789 204.201L75.975 204.492C80.4925 213.249 87.9205 219.777 96.8903 222.875Z" fill="#21111D"/>
<path d="M93.5787 256.29C93.6014 255.643 93.0732 255.077 92.4627 255.034L88.6837 254.767C88.5648 254.759 88.4645 254.671 88.4336 254.55C88.3882 254.371 88.509 254.192 88.684 254.18L94.2781 253.788C94.9189 253.743 95.307 253.17 95.1405 252.514C94.974 251.858 94.3131 251.357 93.6723 251.402L87.9678 251.802C87.8354 251.811 87.7153 251.72 87.6809 251.585L87.6567 251.489C87.6169 251.332 87.7049 251.17 87.8531 251.128L93.9687 249.391C94.56 249.223 94.9737 248.56 94.8327 247.93C94.6832 247.262 94.0431 246.861 93.4206 247.038L87.2587 248.788C87.1102 248.83 86.9576 248.737 86.9178 248.581L86.8405 248.276C86.8043 248.133 86.8737 247.984 87.0027 247.928L92.4712 245.532C93.0366 245.284 93.3655 244.57 93.1483 243.964C92.9181 243.323 92.2341 243.013 91.6387 243.274C91.6387 243.274 87.0313 245.099 85.6586 245.482L84.385 245.555C86.2468 247.401 84.145 244.882 82.6134 244.555C80.9163 244.193 76.4332 248.584 76.4332 248.584C76.2273 248.962 76.4388 249.805 76.7627 250.441C78.0136 257.467 78.2609 258.538 78.7632 260.4L85.6735 258.17C87.6674 257.527 89.7555 257.272 91.8355 257.42L92.358 257.457C93.0006 257.5 93.555 256.976 93.5787 256.29Z" fill="#EBB2BB"/>
<path d="M78.7559 244.633C78.7559 244.633 81.0358 250.911 78.8231 263.257L72.9147 263.747V248.61L78.7559 244.633Z" fill="#C84D71"/>
<path d="M39.0467 195.833C39.0467 195.833 30.4346 195.203 26.2387 197.521C19.9777 200.98 21.4862 222.139 21.4862 222.139C21.4862 222.139 26.8031 219.316 27.1519 218.323C27.5007 217.331 39.0467 195.833 39.0467 195.833Z" fill="#C84D71"/>
<path d="M41.8013 243.418C41.8435 243.436 41.8908 243.442 41.9391 243.432C42.0677 243.405 42.151 243.272 42.1255 243.136C42.0917 242.958 38.7343 225.162 37.4216 213.992C37.4052 213.855 37.2863 213.757 37.1567 213.774C37.0264 213.791 36.934 213.917 36.9504 214.055C38.2654 225.243 41.6259 243.056 41.66 243.235C41.6758 243.32 41.7309 243.386 41.8013 243.418Z" fill="#21111D"/>
<path d="M65.076 243.836C65.0375 243.872 64.9876 243.895 64.9325 243.899C64.8016 243.907 64.6894 243.801 64.6818 243.663C64.6707 243.457 63.5501 222.981 62.4174 216.202C62.3947 216.065 62.481 215.935 62.6097 215.911C62.739 215.887 62.862 215.978 62.885 216.115C64.0227 222.923 65.1447 243.428 65.156 243.634C65.1601 243.714 65.1286 243.787 65.076 243.836Z" fill="#21111D"/>
<path d="M35.4804 241.516C35.4905 241.52 35.5005 241.524 35.5113 241.527L41.8058 243.291C41.9325 243.326 42.0624 243.247 42.0961 243.112C42.1296 242.979 42.0545 242.842 41.9275 242.806L35.6334 241.042C35.5066 241.006 35.3766 241.086 35.3429 241.22C35.312 241.342 35.3726 241.468 35.4804 241.516Z" fill="#21111D"/>
<path d="M33.5995 243.344C33.6273 243.357 33.6579 243.364 33.6901 243.364C34.0297 243.365 67.6329 243.51 78.5851 244.864C78.8308 245.636 79.9427 249.621 79.3634 256.817C79.3524 256.955 79.4482 257.077 79.5797 257.089C79.7105 257.1 79.8254 256.998 79.8364 256.86C80.4926 248.706 79.042 244.707 78.9799 244.541L78.9279 244.402L78.7872 244.384C67.9639 243.009 34.0328 242.863 33.6913 242.861C33.5601 242.861 33.4536 242.973 33.4529 243.111C33.4533 243.217 33.5134 243.306 33.5995 243.344Z" fill="#21111D"/>
<path d="M47.3032 265.538C61.0248 265.538 77.8205 263.666 78.8558 263.549C79.0075 263.532 79.1175 263.387 79.1014 263.227C79.085 263.066 78.9551 262.949 78.7968 262.967C78.4225 263.009 41.2529 267.154 31.9164 263.283C22.689 259.457 22.0451 237.955 22.0398 237.738C22.0357 237.577 21.908 237.446 21.756 237.453C21.6033 237.457 21.4826 237.592 21.4867 237.753C21.5094 238.654 22.147 259.86 31.7149 263.827C34.7916 265.103 40.6903 265.538 47.3032 265.538Z" fill="#21111D"/>
<path d="M48.1279 176.319L49.5532 186.405C49.5532 186.405 50.1685 189.793 47.4257 190.663L48.5918 195.129C49.0254 196.789 48.3042 198.558 46.8508 199.313C46.1404 199.682 45.2757 200.007 44.2657 200.167C41.0625 200.673 38.9658 198.39 38.518 197.154C38.0703 195.918 38.0078 189.682 38.0078 189.682L37.486 186.696L36.2069 175.008L48.1279 176.319Z" fill="#EBB2BB"/>
<path d="M36.2246 173.835C36.2246 173.835 33.2484 176.105 35.8335 182.733L36.959 181.875L36.0306 178.284L36.2246 173.835Z" fill="#FF9D00"/>
<path d="M41.2939 181.357C41.2608 181.362 41.2254 181.354 41.1958 181.332C41.1349 181.286 41.1204 181.196 41.1636 181.131C41.1791 181.108 42.7325 178.819 44.6135 179.993C44.6778 180.033 44.6995 180.121 44.662 180.189C44.6244 180.258 44.5418 180.281 44.4772 180.241C42.8106 179.201 41.4414 181.212 41.384 181.298C41.3616 181.331 41.3289 181.351 41.2939 181.357Z" fill="#21111D"/>
<path d="M46.4874 180.861C46.4499 180.867 46.4104 180.856 46.3795 180.828C46.3231 180.776 46.3162 180.685 46.3647 180.625C46.4114 180.567 47.5211 179.207 48.4299 179.814C48.493 179.856 48.5122 179.945 48.4728 180.012C48.4334 180.079 48.3501 180.099 48.2867 180.057C47.5747 179.581 46.5801 180.8 46.5703 180.812C46.5479 180.84 46.5183 180.856 46.4874 180.861Z" fill="#21111D"/>
<path d="M43.8861 182.73C43.9192 182.965 43.7673 183.185 43.5459 183.22C43.3249 183.255 43.1186 183.092 43.0852 182.857C43.0517 182.621 43.2041 182.402 43.4254 182.367C43.6465 182.332 43.8527 182.494 43.8861 182.73Z" fill="black"/>
<path d="M48.0836 181.633C48.1167 181.869 47.9647 182.088 47.7433 182.123C47.5222 182.158 47.316 181.995 47.2826 181.76C47.2495 181.525 47.4014 181.305 47.6228 181.27C47.8439 181.235 48.0501 181.398 48.0836 181.633Z" fill="black"/>
<path d="M39.236 183.618C39.4356 185.03 38.5218 186.345 37.1949 186.555C35.8679 186.765 34.6306 185.79 34.431 184.378C34.2314 182.965 35.1452 181.65 36.4721 181.441C37.7991 181.231 39.0364 182.206 39.236 183.618Z" fill="#EBB2BB"/>
<path d="M36.8778 185.59C36.3786 185.669 35.9889 185.323 35.8227 184.941C35.6263 184.489 35.7101 184.007 36.0365 183.713C36.519 183.277 37.033 183.426 37.3045 183.56C37.1597 183.286 36.9674 183.101 36.7306 183.007C36.2182 182.805 35.6594 183.1 35.6537 183.103C35.6206 183.121 35.5799 183.106 35.5629 183.071C35.5462 183.036 35.5591 182.993 35.5925 182.975C35.6174 182.961 36.2077 182.649 36.7763 182.872C37.1045 183.002 37.3549 183.282 37.5208 183.707L37.6138 183.945L37.4186 183.792C37.3909 183.771 36.736 183.27 36.1239 183.822C35.7849 184.129 35.8155 184.584 35.9447 184.881C36.0791 185.19 36.3979 185.521 36.8567 185.449C36.8611 185.448 36.8655 185.447 36.8706 185.446C36.9068 185.441 36.9412 185.467 36.9472 185.506C36.9532 185.545 36.9283 185.582 36.8914 185.588C36.8873 185.589 36.8825 185.59 36.8778 185.59Z" fill="#C84D71"/>
<path d="M49.7916 184.725C49.7916 184.725 51.6298 191.418 47.4027 192.334C41.3539 193.646 40.2398 190.035 39.4492 187.061L38.5038 180.816L38.443 178.97C38.9472 179.42 39.3026 180.03 39.4581 180.71C39.7964 182.191 40.6797 186.182 41.0568 186.305C41.5894 186.479 48.7494 184.217 49.7916 184.725Z" fill="#FF9D00"/>
<path d="M45.7058 185.381C45.6777 185.385 45.6491 185.371 45.6355 185.342C45.6188 185.307 45.6321 185.264 45.6652 185.246L46.9363 184.564L46.0401 181.279C46.0297 181.241 46.0502 181.201 46.0861 181.191C46.1221 181.179 46.1593 181.202 46.1697 181.24L47.0971 184.638L45.726 185.374C45.7197 185.378 45.7128 185.38 45.7058 185.381Z" fill="#C84D71"/>
<path d="M38.4473 179.088L37.0768 178.116L36.2771 181.487C36.2771 181.487 37.8582 181.513 38.125 183.205C38.3918 184.898 37.9001 187.685 41.2172 191.054C44.5342 194.422 40.1901 185.405 40.1166 185.079C40.0432 184.753 38.4473 179.088 38.4473 179.088Z" fill="#FF9D00"/>
<path d="M36.2244 173.833C37.3202 172.279 41.6743 170.803 45.1459 172.33L45.1455 172.326C49.0367 173.629 48.4373 177.628 48.3329 177.761L48.2806 177.73C48.3112 177.815 48.3405 177.901 48.3651 177.987C48.3651 177.987 48.1765 177.754 47.8003 177.449L46.2114 176.52C45.3454 176.17 44.2153 175.929 42.8152 176.053C41.4249 176.176 40.2342 176.447 39.2926 176.923C39.1541 177.831 39.1844 179.582 39.9686 182.914C41.165 187.998 38.1507 182.078 37.0376 179.805C36.9345 180.279 36.885 180.801 36.9058 181.388C36.9058 181.387 34.028 176.947 36.2244 173.833Z" fill="#FF9D00"/>
<path d="M48.5285 179.15C48.5285 179.15 48.3311 177.065 48.1728 176.626C48.0148 176.187 43.4733 175.574 41.1364 176.298C38.7994 177.021 43.817 179.069 43.8706 179.061C43.9242 179.052 48.5285 179.15 48.5285 179.15Z" fill="#EBB2BB"/>
<path d="M39.777 177.055L37.1505 175.151L39.7911 178.126L39.777 177.055Z" fill="#EBB2BB"/>
<path d="M47.3488 186.275L45.5632 186.828L45.6254 187.052L47.4109 186.499L47.3488 186.275Z" fill="#C84D71"/>
<path d="M48.2331 193.752L48.5882 196.379C48.5882 196.379 46.4543 198.299 45.087 199.312C42.3764 197.324 38.3171 195.794 38.3171 195.794L38.0579 191.913C33.026 191.307 27.8003 194.885 29.1114 196.608C30.4226 198.331 37.238 198.861 39.0467 199.488C40.8312 200.108 45.39 201.571 45.39 201.571C46.5889 200.63 49.8076 196.63 49.8076 196.63L53.0647 197.586C53.128 194.09 48.2331 193.752 48.2331 193.752Z" fill="#FD7583"/>
<path d="M45.3902 201.768C45.4378 201.768 45.4857 201.748 45.5217 201.709L51.2072 195.6C51.2785 195.524 51.2778 195.4 51.205 195.325C51.1324 195.249 51.0158 195.25 50.9442 195.327L45.2587 201.436C45.1874 201.512 45.1881 201.636 45.2609 201.712C45.2969 201.749 45.3432 201.768 45.3902 201.768Z" fill="black"/>
<path d="M83.1983 241.607L81.1713 247.03L85.6595 245.482L83.1983 241.607Z" fill="#2F2158"/>
<path d="M108.199 66.9481C106.131 65.1287 103.827 63.7116 101.387 62.7173L101.102 55.875L96.7169 55.23L92.3315 54.585L90.2925 61.0854C87.6891 61.3382 85.1068 62.0366 82.6472 63.1903L77.8708 58.5646L74.3387 61.3886L70.8067 64.2122L73.7112 70.3344C71.991 72.5227 70.6512 74.9598 69.7108 77.5399L63.2417 77.8411L62.6319 82.4794L62.022 87.1178L68.1679 89.2744C68.4069 92.028 69.0672 94.7592 70.1577 97.3607L65.7843 102.413L68.4543 106.148L71.1242 109.884L76.9125 106.812C78.9814 108.632 81.2852 110.048 83.7247 111.043L84.0098 117.885L88.3951 118.53L92.7805 119.175L94.8195 112.675C97.4229 112.422 100.005 111.724 102.465 110.57L107.241 115.196L110.773 112.372L114.305 109.548L111.401 103.426C113.121 101.237 114.461 98.8002 115.401 96.2204L121.87 95.9192L122.48 91.2809L123.09 86.6425L116.944 84.4859C116.705 81.7323 116.044 79.0011 114.954 76.3996L119.327 71.3476L116.657 67.6118L113.988 63.876L108.199 66.9481ZM102.572 100.896C95.2537 106.746 84.8366 105.215 79.3046 97.4741C73.773 89.7336 75.2214 78.7156 82.54 72.8645C89.8583 67.0138 100.275 68.5457 105.807 76.2862C111.339 84.0267 109.891 95.0447 102.572 100.896Z" fill="#2F2158"/>
<path d="M110.901 112.602C110.791 112.67 110.65 112.642 110.572 112.533C110.488 112.415 110.51 112.248 110.621 112.159L113.985 109.469L111.101 103.389L111.207 103.255C112.889 101.115 114.222 98.7158 115.166 96.1243L115.225 95.9612L121.649 95.662L122.811 86.8259L116.707 84.684L116.692 84.5099C116.452 81.7443 115.79 79.0517 114.723 76.5076C114.667 76.3725 114.724 76.2174 114.852 76.155C114.979 76.0953 115.129 76.156 115.185 76.2911C116.251 78.8352 116.922 81.5245 117.18 84.2871L123.369 86.459L122.092 96.1763L115.577 96.4798C114.637 99.0089 113.334 101.356 111.701 103.462L114.626 109.627L110.926 112.585C110.918 112.591 110.909 112.597 110.901 112.602ZM92.9541 119.47L88.3603 118.795C88.2222 118.775 88.126 118.64 88.1452 118.493C88.1645 118.348 88.2915 118.245 88.4303 118.266L92.6073 118.88L94.632 112.425L94.7966 112.409C97.4117 112.155 99.9571 111.454 102.362 110.326C102.49 110.266 102.639 110.327 102.696 110.462C102.752 110.597 102.697 110.753 102.567 110.814C100.162 111.942 97.6198 112.652 95.0079 112.925L92.9541 119.47ZM83.8525 111.273C83.7885 111.313 83.7085 111.322 83.634 111.292C81.1839 110.293 78.9119 108.893 76.8786 107.129L71.0496 110.222L65.4565 102.396L69.8605 97.3079C68.8325 94.8111 68.1845 92.177 67.9322 89.4727L61.743 87.3011L63.0208 77.5838L69.5354 77.28C70.4757 74.7502 71.779 72.4029 73.4115 70.298L70.4864 64.1331L74.1863 61.175C74.2966 61.0846 74.4558 61.1097 74.54 61.2271C74.6242 61.3448 74.6021 61.5122 74.4908 61.6013L71.1265 64.2908L74.0106 70.3703L73.905 70.5048C72.223 72.6443 70.891 75.0431 69.9462 77.6352L69.8867 77.7983L63.4626 78.0975L62.3009 86.9339L68.4039 89.0755L68.4194 89.2496C68.6593 92.0152 69.3221 94.7074 70.3886 97.2519L70.4555 97.4117L66.1124 102.429L71.1984 109.546L76.9467 106.495L77.0741 106.607C79.0973 108.386 81.3655 109.795 83.8157 110.794C83.9459 110.847 84.0105 111.001 83.9604 111.139C83.9389 111.198 83.9001 111.244 83.8525 111.273ZM79.4319 97.7045C79.3228 97.7719 79.1812 97.7439 79.1033 97.6348C73.4966 89.7889 74.9701 78.5814 82.3878 72.651C85.9814 69.778 90.4172 68.5576 94.8786 69.2137C99.34 69.8697 103.293 72.3241 106.009 76.1247C106.093 76.2424 106.071 76.4102 105.96 76.4989C105.848 76.5886 105.69 76.5646 105.606 76.4469C102.971 72.7601 99.1369 70.379 94.8092 69.7427C90.4812 69.1063 86.1772 70.2896 82.6927 73.0769C75.4971 78.8296 74.0677 89.7015 79.5066 97.3123C79.5908 97.43 79.5687 97.5974 79.4574 97.6865C79.4489 97.6935 79.4404 97.6992 79.4319 97.7045ZM116.785 67.8426C116.676 67.9099 116.534 67.8819 116.456 67.7729L113.913 64.2145L108.165 67.2652L108.038 67.1535C106.015 65.3741 103.747 63.9653 101.297 62.9664L101.142 62.9034L100.86 56.1088L92.5054 54.8804L90.4806 61.3355L90.316 61.3518C87.7009 61.6059 85.1556 62.3067 82.7502 63.4347C82.6228 63.4944 82.4733 63.4337 82.4168 63.2986C82.3604 63.1638 82.4181 63.0067 82.5455 62.946C84.9505 61.8184 87.4931 61.1087 90.1054 60.8362L92.1585 54.29L101.346 55.6412L101.633 62.5315C104.024 63.5257 106.244 64.9042 108.234 66.6312L114.063 63.5377L116.86 67.4507C116.944 67.5684 116.922 67.7362 116.811 67.8249C116.802 67.8312 116.793 67.8372 116.785 67.8426Z" fill="#EDF8FF"/>
<path d="M232.825 295.8C224.064 295.031 217.043 287.408 216.742 277.89C216.649 274.939 216.091 248.415 225.111 225.903C236.122 198.417 261.23 181.571 281.404 168.035C288.697 163.142 295.585 158.521 299.424 154.84C311.41 143.345 309.951 125.782 306.616 113.073C304.651 105.584 298.935 98.0131 290.935 92.3008C281.696 85.7046 270.119 82.0559 258.34 82.0269C233.449 81.9655 220.574 91.0294 220.46 91.1211C212.727 97.314 201.711 95.7038 195.857 87.526C190.002 79.3476 191.524 67.6972 199.256 61.5043C201.393 59.7927 221.209 44.7857 258.422 44.8774C277.103 44.9234 295.627 50.8298 310.586 61.51C325.624 72.2469 336.233 87.0301 340.46 103.137C344.269 117.653 345.084 131.485 342.879 144.249C340.261 159.409 333.578 172.232 323.016 182.361C316.944 188.184 308.82 193.634 300.218 199.405C284.166 210.176 264.187 223.579 257.45 240.397C252.381 253.049 251.687 270.883 251.847 276.687C252.171 286.94 244.575 295.51 234.882 295.853C234.188 295.877 233.501 295.859 232.825 295.8Z" fill="#FE8032"/>
<path d="M244.846 345.118C252.161 337.381 252.161 324.836 244.846 317.099C237.53 309.361 225.67 309.361 218.354 317.099C211.039 324.836 211.039 337.381 218.354 345.118C225.67 352.856 237.53 352.856 244.846 345.118Z" fill="#C84D71"/>
<path d="M234.285 296.329C233.783 296.329 233.282 296.307 232.788 296.264C223.694 295.466 216.607 287.573 216.301 277.904C216.207 274.944 215.646 248.329 224.704 225.72C235.77 198.099 260.942 181.21 281.168 167.64C281.374 167.502 281.647 167.566 281.777 167.784C281.908 168.001 281.847 168.29 281.641 168.428C261.518 181.929 236.475 198.731 225.517 226.084C216.533 248.509 217.09 274.934 217.184 277.873C217.474 287.069 224.214 294.575 232.862 295.333C233.522 295.391 234.197 295.408 234.867 295.385C239.439 295.223 243.676 293.192 246.799 289.666C249.923 286.138 251.559 281.534 251.406 276.701C251.398 276.444 251.589 276.228 251.833 276.219C252.076 276.212 252.28 276.412 252.288 276.67C252.449 281.752 250.728 286.594 247.443 290.304C244.159 294.012 239.703 296.148 234.896 296.318C234.693 296.325 234.489 296.329 234.285 296.329Z" fill="#EDF8FF"/>
<path d="M300.223 199.867C300.076 199.867 299.933 199.792 299.849 199.653C299.719 199.435 299.776 199.149 299.981 199.011C308.572 193.248 316.677 187.809 322.719 182.015C333.208 171.957 339.845 159.222 342.445 144.165C344.637 131.471 343.825 117.709 340.034 103.262C335.835 87.2619 325.289 72.5714 310.339 61.8966C310.137 61.7525 310.084 61.4623 310.22 61.2485C310.356 61.0351 310.63 60.9787 310.832 61.1228C325.957 71.9217 336.63 86.7983 340.884 103.012C344.712 117.597 345.529 131.499 343.313 144.332C340.678 159.596 333.948 172.507 323.312 182.706C317.214 188.554 309.077 194.013 300.462 199.794C300.389 199.844 300.305 199.867 300.223 199.867Z" fill="#EDF8FF"/>
<path d="M306.615 113.539C306.422 113.539 306.245 113.404 306.191 113.197C304.253 105.814 298.603 98.3378 290.688 92.6869C281.52 86.1417 270.032 82.5217 258.339 82.493C258.256 82.4926 258.173 82.4926 258.091 82.4926C233.605 82.4926 220.839 91.4095 220.717 91.4999C216.892 94.563 212.157 95.8704 207.394 95.1743C202.63 94.4782 198.408 91.8617 195.505 87.8074C189.513 79.4369 191.076 67.4703 198.99 61.1319C199.183 60.9759 199.46 61.0169 199.608 61.2223C199.755 61.4278 199.716 61.7206 199.522 61.8761C191.997 67.9035 190.51 79.2838 196.209 87.2437C198.969 91.0996 202.984 93.5874 207.514 94.2498C212.044 94.9122 216.547 93.6684 220.193 90.7484C220.308 90.6563 233.212 81.5591 258.09 81.5591C258.173 81.5591 258.257 81.5591 258.341 81.5594C270.207 81.5888 281.87 85.2656 291.182 91.9131C299.268 97.6867 305.048 105.353 307.041 112.948C307.106 113.196 306.969 113.453 306.734 113.522C306.694 113.534 306.654 113.539 306.615 113.539Z" fill="#EDF8FF"/>
<path d="M231.619 351.376C226.367 351.376 221.136 349.114 217.355 344.669C217.192 344.478 217.206 344.183 217.388 344.01C217.569 343.838 217.848 343.854 218.011 344.045C221.617 348.284 226.609 350.443 231.619 350.443C235.979 350.444 240.353 348.809 243.843 345.488C247.475 342.032 249.617 337.287 249.875 332.126C250.133 326.966 248.476 322.008 245.208 318.167C245.045 317.975 245.06 317.68 245.241 317.507C245.422 317.335 245.701 317.351 245.864 317.542C249.289 321.57 251.027 326.766 250.756 332.176C250.486 337.585 248.24 342.559 244.433 346.182C240.775 349.662 236.189 351.376 231.619 351.376Z" fill="#EDF8FF"/>
<path d="M33.6268 151.977C32.6682 152.341 31.5822 151.893 31.1186 150.904C30.9751 150.598 29.7135 147.829 29.6435 144.998C29.558 141.541 31.4415 138.491 32.9551 136.04C33.5022 135.154 34.0191 134.318 34.2569 133.735C34.9995 131.915 34.0491 130.136 33.121 128.965C32.5742 128.275 31.6282 127.767 30.5255 127.571C29.2522 127.344 27.866 127.546 26.6226 128.141C23.9952 129.397 23.0486 131.006 23.0407 131.022C22.5062 132.067 21.2716 132.456 20.2834 131.891C19.2951 131.325 18.9271 130.02 19.4616 128.974C19.6095 128.686 21.0184 126.098 24.9462 124.219C26.9184 123.277 29.1396 122.959 31.2013 123.327C33.274 123.696 35.0629 124.717 36.2391 126.201C37.2992 127.538 38.0122 128.955 38.3587 130.413C38.7702 132.145 38.647 133.836 37.9927 135.44C37.6165 136.362 37.0069 137.349 36.3617 138.394C35.1574 140.344 33.6586 142.771 33.711 144.886C33.7504 146.477 34.4858 148.393 34.7659 148.997C35.265 150.062 34.8526 151.351 33.846 151.879C33.7741 151.916 33.7009 151.949 33.6268 151.977Z" fill="#C84D71"/>
<path d="M37.1428 154.986C37.5471 156.18 36.9602 157.494 35.832 157.921C34.7037 158.349 33.4612 157.728 33.057 156.535C32.6527 155.342 33.2396 154.027 34.3678 153.6C35.4961 153.173 36.7382 153.793 37.1428 154.986Z" fill="#C84D71"/>
<path d="M157.497 81.3701C156.909 81.1684 156.544 80.5266 156.668 79.8696C156.707 79.6658 157.072 77.8401 158.033 76.452C159.205 74.757 161.181 74.0309 162.769 73.4476C163.342 73.2368 163.885 73.0373 164.203 72.8505C165.199 72.2675 165.367 71.0398 165.332 70.1126C165.311 69.5663 165.035 68.9506 164.574 68.423C164.042 67.814 163.304 67.367 162.498 67.1646C160.794 66.7367 159.775 67.1379 159.765 67.1422C159.142 67.4347 158.412 67.1369 158.135 66.4772C157.859 65.8175 158.14 65.0454 158.764 64.7532C158.937 64.6725 160.522 63.9821 163.069 64.6218C164.348 64.943 165.527 65.6631 166.388 66.649C167.255 67.6402 167.756 68.8332 167.801 70.0082C167.841 71.0672 167.686 72.0284 167.341 72.8649C166.93 73.8585 166.278 74.6229 165.4 75.1369C164.896 75.4324 164.256 75.6672 163.579 75.916C162.316 76.3803 160.744 76.9579 160.026 77.9952C159.487 78.7753 159.168 79.9847 159.09 80.3849C158.956 81.0927 158.306 81.5502 157.637 81.4085C157.589 81.3985 157.542 81.3855 157.497 81.3701Z" fill="#FEC786"/>
<path d="M158.13 84.1974C157.905 84.9295 157.162 85.3307 156.47 85.0933C155.777 84.8558 155.398 84.0697 155.623 83.3373C155.847 82.6052 156.59 82.2039 157.283 82.4414C157.975 82.6792 158.354 83.4653 158.13 84.1974Z" fill="#FEC786"/>
<path d="M179.061 194.196L177.275 194.749L177.337 194.973L179.123 194.42L179.061 194.196Z" fill="#C84D71"/>
<path d="M286.077 185.741C286.394 185.281 287.007 185.186 287.461 185.491L290.284 187.387C290.373 187.447 290.487 187.44 290.569 187.371C290.689 187.268 290.691 187.075 290.573 186.97L286.792 183.609C286.359 183.223 286.366 182.602 286.807 182.228C287.249 181.854 287.965 181.862 288.398 182.247L292.253 185.675C292.343 185.754 292.473 185.756 292.564 185.678L292.629 185.624C292.735 185.534 292.752 185.371 292.667 185.259L289.173 180.648C288.837 180.205 288.86 179.549 289.257 179.166C289.692 178.745 290.364 178.806 290.726 179.285L294.241 183.924C294.326 184.036 294.48 184.054 294.586 183.964L294.791 183.79C294.887 183.709 294.911 183.565 294.847 183.453L292.138 178.73C291.86 178.244 291.963 177.597 292.404 177.272C292.886 176.915 293.545 177.068 293.846 177.592C293.846 177.592 298.342 184.559 299.128 185.588L299.983 182.637C300.044 182.051 300.543 181.629 301.097 181.693C301.651 181.758 302.05 182.285 301.989 182.871L302.032 189.744C301.992 190.126 301.426 190.609 300.883 190.881C296.533 195.183 295.83 195.808 294.556 196.854L290.746 191.461C289.646 189.905 288.288 188.574 286.738 187.532L286.348 187.271C285.86 186.944 285.73 186.244 286.077 185.741Z" fill="#EBB2BB"/>
<path d="M363.799 264.83C363.799 264.83 361.175 334.646 355.426 374.931C355.426 374.931 346.93 376.37 337.301 372.379L336.2 261.368L337.293 254.769L363.799 264.83Z" fill="#2D1F51" fill-opacity="0.97"/>
<path d="M351.557 375.404C344.239 375.404 337.332 372.513 337.251 372.478C337.183 372.449 337.15 372.367 337.177 372.295C337.204 372.223 337.283 372.188 337.35 372.217C337.446 372.257 346.911 376.219 355.378 374.826C355.61 372.9 358.892 345.536 359.194 339.302C359.198 339.224 359.268 339.164 359.334 339.168C359.408 339.172 359.464 339.238 359.461 339.316C359.149 345.757 355.665 374.675 355.63 374.967L355.617 375.072L355.519 375.088C354.21 375.31 352.877 375.404 351.557 375.404Z" fill="#21111D"/>
<path d="M383.268 265.42C383.268 265.42 384.07 335.285 380.303 375.831C380.303 375.831 371.89 377.734 362.078 374.277L354.038 276.452L349 250L383.268 265.42Z" fill="#2F2158"/>
<path d="M375.303 376.566C368.851 376.566 362.172 374.493 362.087 374.466C362.016 374.444 361.976 374.366 361.997 374.291C362.018 374.216 362.092 374.173 362.163 374.196C362.27 374.229 372.888 377.524 380.223 375.772C380.393 372.513 384.21 298.884 383.229 271.834C383.226 271.756 383.284 271.691 383.357 271.688C383.359 271.688 383.361 271.688 383.362 271.688C383.433 271.688 383.493 271.747 383.495 271.823C384.494 299.363 380.524 375.131 380.483 375.894L380.478 376L380.38 376.024C378.797 376.413 377.058 376.566 375.303 376.566Z" fill="#21111D"/>
<path d="M374.085 376.547C374.084 376.547 374.083 376.547 374.081 376.547C374.008 376.544 373.95 376.479 373.952 376.401C373.971 375.694 375.867 305.578 375.035 296.869C375.027 296.792 375.081 296.723 375.154 296.715C375.226 296.706 375.293 296.763 375.3 296.841C376.134 305.568 374.238 375.702 374.219 376.41C374.217 376.486 374.157 376.547 374.085 376.547Z" fill="#21111D"/>
<path d="M349.999 375.262C349.997 375.262 349.995 375.262 349.993 375.262C349.92 375.259 349.863 375.193 349.866 375.115L353.053 299.107C353.056 299.029 353.119 298.964 353.192 298.973C353.266 298.976 353.322 299.042 353.319 299.12L350.133 375.128C350.129 375.203 350.07 375.262 349.999 375.262Z" fill="#21111D"/>
<path d="M305.142 188.465L304.191 187.202C304.191 187.202 295.752 189.712 292.697 197.03L294.034 198.936C294.034 198.936 300.206 190.79 305.142 188.465Z" fill="#E2F2F1"/>
<path d="M335.27 265.447L335.115 265.233L335.924 217.205C335.924 217.205 320.99 227.8 316.514 228.003C312.038 228.206 293.532 199.152 293.532 199.152C297.432 189.684 305.644 188.372 305.644 188.372L320.926 206.091L338.829 188.913C341.216 187.38 359.567 187.048 359.567 187.048C359.567 187.048 380.455 186.546 382.842 188.079C385.229 189.612 394.01 214.86 395.374 226.312C396.738 237.764 395.374 245.181 387.104 246.533L384.096 246.601L383.865 265.447C383.865 265.447 367.197 269.414 335.27 265.447Z" fill="#D87830"/>
<path d="M341.407 249.957H361.482C362.094 249.957 362.59 249.433 362.59 248.786V221.304C362.59 220.657 362.094 220.133 361.482 220.133H341.407C340.795 220.133 340.299 220.657 340.299 221.304V248.786C340.299 249.433 340.795 249.957 341.407 249.957Z" fill="#FF9D00"/>
<path d="M345.304 219.007H356.651C356.974 219.007 357.235 219.283 357.235 219.624V220.134H344.721V219.624C344.721 219.283 344.982 219.007 345.304 219.007Z" fill="#E2F2F1"/>
<path d="M339.765 235.49C337.357 233.246 339.88 232.868 339.88 232.868C338.705 231.523 338.978 230.896 339.41 230.607C339.726 230.395 340.123 230.371 340.472 230.515C341.579 230.97 344.955 232.371 347.018 233.378C348.484 233.269 348.016 230.654 347.361 229.314C347.022 228.624 346.999 227.484 348.591 228.632C349.891 229.571 351.845 232.66 351.845 232.66L360.017 231.829L358.8 243.741C358.8 243.741 349.471 243.603 348.065 243.592C346.659 243.582 341.952 241.887 340.53 240.578C337.951 238.202 339.573 238.081 339.573 238.081C337.111 235.348 339.765 235.49 339.765 235.49Z" fill="#EBB2BB"/>
<path d="M342.831 234.835C342.902 234.841 342.972 234.799 343 234.725C343.036 234.633 342.995 234.529 342.908 234.491C341.699 233.963 339.994 232.733 339.977 232.721C339.9 232.665 339.795 232.686 339.742 232.767C339.689 232.848 339.709 232.96 339.786 233.015C339.857 233.067 341.537 234.279 342.779 234.822C342.797 234.829 342.814 234.834 342.831 234.835Z" fill="#C84D71"/>
<path d="M342.663 237.092C342.743 237.099 342.818 237.045 342.839 236.96C342.863 236.865 342.81 236.767 342.719 236.741C341.182 236.304 339.875 235.353 339.862 235.343C339.785 235.287 339.68 235.307 339.627 235.388C339.574 235.47 339.593 235.581 339.669 235.637C339.724 235.677 341.035 236.633 342.632 237.086C342.642 237.089 342.653 237.091 342.663 237.092Z" fill="#C84D71"/>
<path d="M342.098 239.635C342.175 239.642 342.249 239.59 342.273 239.508C342.299 239.414 342.249 239.314 342.159 239.286C340.842 238.868 339.687 237.949 339.676 237.939C339.602 237.879 339.495 237.895 339.439 237.973C339.383 238.052 339.397 238.164 339.471 238.224C339.52 238.263 340.687 239.192 342.062 239.628C342.074 239.632 342.086 239.634 342.098 239.635Z" fill="#C84D71"/>
<path d="M379.517 229.589L379.857 229.163L376.53 226.189L375.26 209.876L374.735 209.922L376.023 226.465L379.517 229.589Z" fill="#21111D"/>
<path d="M384.101 246.878L387.145 246.807C391.203 246.143 393.805 244.016 395.099 240.305C396.221 237.084 396.392 232.626 395.635 226.275L395.112 226.345C396.654 239.29 394.327 245.059 387.081 246.253L384.09 246.32L384.101 246.878Z" fill="#21111D"/>
<path d="M354.857 228.985H353.215C353.215 228.985 351.467 240.873 353.855 246.328H355.896C355.896 246.328 353.515 235.177 354.857 228.985Z" fill="#E2F2F1"/>
<path d="M363.442 227.197L355.219 227.754C355.219 227.754 353.557 233.3 355.555 244.544C355.749 245.636 356.157 247.502 356.157 247.502C356.157 247.502 364.507 248.206 365.817 245.337C366.64 243.536 364.841 235.755 364.841 235.755L363.442 227.197Z" fill="#D87830"/>
<path d="M355.954 247.787L384.104 246.878L384.088 246.321L356.362 247.216C355.966 245.481 353.427 233.804 355.406 228.02L376.294 226.605L376.26 226.049L355.034 227.487L354.973 227.653C352.667 233.975 355.768 247.018 355.902 247.57L355.954 247.787Z" fill="#21111D"/>
<path d="M320.74 210.828L321.178 206.223L338.514 189.589C339.785 188.37 342.255 188.354 342.279 188.354V187.796C342.167 187.796 339.582 187.812 338.16 189.176L320.673 205.954L320.215 210.772L320.74 210.828Z" fill="#21111D"/>
<path d="M320.73 206.278L321.12 205.902L305.742 188.071L305.601 188.096C305.519 188.11 297.39 189.613 293.292 199.035L293.771 199.268C297.457 190.793 304.479 188.915 305.549 188.675L320.73 206.278Z" fill="#21111D"/>
<path d="M349.657 187.431C354.702 187.137 359.567 187.049 359.567 187.049C359.567 187.049 363.611 186.951 368.343 186.973C368.343 187.002 368.345 187.031 368.345 187.061C368.345 192.521 364.16 196.948 358.997 196.948C353.951 196.948 349.841 192.72 349.657 187.431Z" fill="#E2F2F1"/>
<path d="M355.228 267.381C355.384 267.381 355.539 267.38 355.69 267.378L355.684 266.821C349.102 266.895 337.342 265.43 335.536 265.2L336.189 212.587L335.662 212.58L335.003 265.693L335.237 265.723C335.366 265.74 347.997 267.381 355.228 267.381Z" fill="#21111D"/>
<path d="M364.572 197.466C367.227 195.716 369.154 193.007 369.998 189.837L369.491 189.686C368.682 192.722 366.836 195.317 364.293 196.993L364.572 197.466Z" fill="#21111D"/>
<path d="M366.33 166.968C366.33 166.968 362.721 164.504 359.058 165.13C356.937 165.493 355.278 167.263 354.913 169.503L354.555 171.693L365.999 168.825C365.999 168.825 367.548 169.976 367.454 169.695C367.361 169.414 366.33 166.968 366.33 166.968Z" fill="#EBB2BB"/>
<path d="M79.403 385.536H53.82V380.017C53.82 380.017 55.6808 377.368 58.5141 378.72C58.5141 378.72 62.7995 381.935 66.5773 378.044L75.9585 382.445C75.9585 382.445 79.403 383.66 79.403 385.536Z" fill="#EDCB4D"/>
<path d="M53.9126 380.016H53.7253V384.704H53.9126V380.016Z" fill="black"/>
<path d="M62.3543 380.068C62.7135 380.068 62.9299 380.036 62.9368 380.034L62.9087 379.838C62.8869 379.841 60.6723 380.169 58.5665 378.637L58.46 378.801C59.9692 379.898 61.5338 380.068 62.3543 380.068Z" fill="black"/>
<path d="M55.0567 382.905L54.9515 383.07L56.1511 383.924L56.2564 383.759L55.0567 382.905Z" fill="black"/>
<path d="M53.6673 387.466H79.4104C80.0199 387.466 80.514 386.943 80.514 386.298V385.973C80.514 385.328 80.0199 384.806 79.4104 384.806H53.6673C53.4219 384.806 53.2229 385.016 53.2229 385.276V386.996C53.2229 387.255 53.4219 387.466 53.6673 387.466Z" fill="#C84D71"/>
<path d="M79.1711 384.851L79.3411 384.766C79.3203 384.718 78.8056 383.603 76.8852 382.737C74.9982 381.886 66.6986 377.992 66.6151 377.953L66.5387 378.135C66.6226 378.174 74.9235 382.068 76.8115 382.92C78.659 383.754 79.1664 384.84 79.1711 384.851Z" fill="black"/>
<path d="M69.8399 379.681C68.7829 381.427 67.4693 383.598 66.7576 384.774H68.502C69.2588 383.523 70.3262 381.76 71.1997 380.316C70.7349 380.099 70.277 379.885 69.8399 379.681Z" fill="#D7E4F7"/>
<path d="M67.66 378.659C66.5721 380.456 64.8368 383.324 63.9598 384.774H65.7046C66.6626 383.19 68.0993 380.816 69.0198 379.296C68.5064 379.056 68.0435 378.839 67.66 378.659Z" fill="#D7E4F7"/>
<path d="M80.1295 387.227C80.4329 386.955 80.6069 386.558 80.6069 386.138C80.6069 385.349 80.0006 384.708 79.2554 384.708H53.8522C53.4527 384.708 53.1279 385.052 53.1279 385.474V386.801H53.3159V385.474C53.3159 385.162 53.5564 384.907 53.8522 384.907H79.2554C79.8968 384.907 80.4187 385.459 80.4187 386.137C80.4187 386.499 80.2689 386.841 80.0078 387.076L80.1295 387.227Z" fill="black"/>
<path d="M354.954 169.257L353.447 178.493C353.447 178.493 352.778 181.769 355.44 182.68L354.212 186.989C353.756 188.591 354.425 190.327 355.83 191.096C356.517 191.472 357.355 191.808 358.339 191.987C361.459 192.557 363.553 190.391 364.015 189.201C364.477 188.011 364.662 181.956 364.662 181.956L365.231 179.069L366.713 167.747L354.954 169.257Z" fill="#EBB2BB"/>
<path d="M361.84 174.049C361.872 174.05 361.906 174.037 361.932 174.012C361.985 173.959 361.988 173.871 361.939 173.814C361.921 173.794 360.139 171.798 358.458 173.181C358.401 173.228 358.39 173.315 358.435 173.377C358.48 173.438 358.562 173.449 358.62 173.401C360.109 172.176 361.679 173.929 361.745 174.004C361.771 174.033 361.805 174.048 361.84 174.049Z" fill="#FF9D00"/>
<path d="M356.115 172.315C356.152 172.323 356.191 172.315 356.222 172.289C356.28 172.242 356.291 172.155 356.247 172.093C356.204 172.034 355.187 170.652 354.27 171.191C354.207 171.228 354.184 171.313 354.219 171.38C354.254 171.448 354.335 171.472 354.399 171.435C355.116 171.013 356.028 172.251 356.037 172.264C356.058 172.291 356.086 172.309 356.115 172.315Z" fill="#FF9D00"/>
<path d="M359.057 175.064C359.019 175.292 359.164 175.509 359.379 175.548C359.595 175.587 359.799 175.434 359.836 175.207C359.874 174.979 359.729 174.762 359.514 174.723C359.298 174.683 359.094 174.836 359.057 175.064Z" fill="black"/>
<path d="M354.978 173.893C354.941 174.121 355.086 174.338 355.301 174.377C355.516 174.416 355.721 174.264 355.758 174.036C355.795 173.808 355.651 173.592 355.436 173.552C355.221 173.512 355.016 173.665 354.978 173.893Z" fill="black"/>
<path d="M366.354 166.823C366.354 166.823 369.684 167.258 370.023 170.467C370.362 173.675 368.67 175.03 368.493 175.935C368.315 176.841 367.897 183.089 363.895 181.886L364.45 171.541L366.528 167.762L366.354 166.823Z" fill="#FF9D00"/>
<path d="M362.3 175.507C362.077 176.874 362.944 178.173 364.236 178.409C365.528 178.645 366.757 177.728 366.98 176.361C367.203 174.994 366.336 173.695 365.044 173.459C363.752 173.223 362.523 174.14 362.3 175.507Z" fill="#EBB2BB"/>
<path d="M364.566 177.483C365.052 177.571 365.44 177.244 365.61 176.878C365.811 176.444 365.738 175.974 365.425 175.679C364.963 175.244 364.457 175.377 364.189 175.501C364.336 175.238 364.528 175.063 364.761 174.978C365.266 174.793 365.806 175.093 365.811 175.096C365.843 175.115 365.883 175.102 365.9 175.068C365.917 175.034 365.905 174.992 365.873 174.973C365.849 174.96 365.279 174.642 364.719 174.845C364.396 174.963 364.145 175.229 363.975 175.638L363.879 175.867L364.073 175.723C364.101 175.703 364.75 175.232 365.338 175.784C365.663 176.09 365.624 176.531 365.491 176.817C365.354 177.113 365.036 177.427 364.589 177.346C364.585 177.345 364.581 177.344 364.576 177.343C364.54 177.337 364.506 177.361 364.5 177.399C364.493 177.437 364.516 177.473 364.552 177.48C364.557 177.481 364.561 177.482 364.566 177.483Z" fill="#C84D71"/>
<path d="M362.227 181.031C362.227 181.031 361.142 186.521 354.534 185.858L355.44 182.679C355.44 182.679 359.523 184.35 362.227 181.031Z" fill="#C84D71"/>
<path d="M357.227 177.594C357.254 177.599 357.283 177.585 357.296 177.558C357.313 177.524 357.301 177.482 357.269 177.464L356.04 176.77L356.981 173.602C356.993 173.565 356.973 173.526 356.938 173.514C356.903 173.502 356.866 173.523 356.856 173.56L355.882 176.839L357.207 177.587C357.213 177.59 357.22 177.593 357.227 177.594Z" fill="#C84D71"/>
<path d="M364.633 182.742L364.94 178.004L363.826 177.933L363.065 182.594L364.633 182.742Z" fill="#EBB2BB"/>
<path d="M364.426 171.686C364.426 171.686 354.591 169.249 354.38 166.675C354.17 164.101 356.517 164.463 356.517 164.463C356.517 164.463 356.65 160.883 359.483 162.468C362.316 164.053 367.899 164.933 368.982 168.161C370.066 171.389 364.426 171.686 364.426 171.686Z" fill="#FF9D00"/>
<path d="M364.724 171.064L364.354 173.333C364.354 173.333 363.305 174.516 363.304 176.262C363.304 176.262 362.657 176.387 362.638 175.837C362.619 175.286 363.856 171.711 362.749 170.819C361.643 169.925 365.22 169.859 365.316 169.934C365.413 170.009 367.238 171.456 366.981 171.361C366.723 171.265 364.724 171.064 364.724 171.064Z" fill="#FF9D00"/>
<path d="M356.906 178.408L356.859 178.18C356.897 178.171 357.787 177.968 358.44 178.182L358.374 178.405C357.777 178.21 356.915 178.406 356.906 178.408Z" fill="#C84D71"/>
<path d="M176.294 48.6119L175.685 48.5455L175.716 48.2234C175.831 47.0417 175.979 45.843 176.155 44.6606L176.203 44.3408L176.807 44.4415L176.76 44.7613C176.585 45.9324 176.439 47.1197 176.325 48.2901L176.294 48.6119ZM177.307 41.5802L176.709 41.4454L176.773 41.1289C177.01 39.9489 177.28 38.7746 177.575 37.6382L177.656 37.3261L178.246 37.4972L178.165 37.8093C177.874 38.934 177.606 40.0963 177.371 41.264L177.307 41.5802ZM218.47 36.7441C218.469 36.7441 218.468 36.7441 218.468 36.7441C217.967 36.7581 217.449 36.7217 216.928 36.6357L216.626 36.5856L216.72 35.9459L217.023 35.9959C217.507 36.076 217.987 36.1097 218.451 36.0967C218.452 36.0967 218.453 36.0967 218.453 36.0967C219.063 36.0793 219.661 35.9806 220.23 35.8025L220.523 35.7108L220.697 36.3318L220.404 36.4235C219.783 36.6173 219.132 36.7254 218.47 36.7441ZM213.893 35.6111L213.635 35.4373C212.668 34.7856 211.958 33.7863 211.525 32.4673L211.425 32.1614L212.003 31.9489L212.103 32.2548C212.49 33.4328 213.116 34.3197 213.964 34.8913L214.222 35.0651L213.893 35.6111ZM223.199 34.8119L222.787 34.333L223.014 34.1152C223.778 33.3808 224.445 32.4609 224.996 31.3813L225.142 31.0964L225.681 31.4046L225.535 31.6895C224.951 32.8335 224.241 33.811 223.426 34.5948L223.199 34.8119ZM179.053 34.7196L178.475 34.5094L178.574 34.2032C178.947 33.0516 179.356 31.9216 179.787 30.8443L179.906 30.5461L180.47 30.7986L180.351 31.0968C179.924 32.1601 179.522 33.2757 179.153 34.413L179.053 34.7196ZM211.67 29.1743L211.058 29.152L211.069 28.8285C211.106 27.6918 211.281 26.4828 211.592 25.2344L211.669 24.9212L212.261 25.0856L212.183 25.3988C211.885 26.6005 211.716 27.7619 211.68 28.8508L211.67 29.1743ZM226.692 28.6L226.098 28.4426L226.173 28.1284C226.437 27.0134 226.589 25.8481 226.626 24.6644L226.636 24.3409L227.248 24.3622L227.238 24.6858C227.199 25.9151 227.041 27.1261 226.766 28.2858L226.692 28.6ZM181.633 28.1731L181.089 27.8753L181.23 27.5878C181.76 26.5068 182.33 25.4562 182.924 24.4656L183.088 24.1921L183.605 24.5387L183.441 24.8118C182.856 25.7867 182.295 26.8206 181.774 27.8853L181.633 28.1731ZM213.172 22.3821L212.613 22.1179L212.738 21.8224C213.19 20.7518 213.73 19.6792 214.344 18.6336L214.506 18.3584L215.025 18.7L214.864 18.9751C214.265 19.996 213.738 21.0426 213.297 22.0866L213.172 22.3821ZM226.448 21.4936L226.394 21.1747C226.318 20.7214 226.223 20.2708 226.114 19.8356C225.941 19.1472 225.714 18.4775 225.441 17.8455L225.313 17.5513L225.87 17.2821L225.997 17.5763C226.285 18.2413 226.524 18.9458 226.706 19.6692C226.819 20.1218 226.918 20.5904 226.997 21.0616L227.05 21.3805L226.448 21.4936ZM185.177 22.173L184.694 21.7751L184.882 21.5196C185.587 20.563 186.337 19.6468 187.113 18.7967L187.325 18.5639L187.766 19.0135L187.553 19.2463C186.793 20.0801 186.056 20.9789 185.365 21.9175L185.177 22.173ZM216.604 16.3476L216.126 15.9427L216.318 15.6902C217.019 14.7657 217.786 13.8635 218.598 13.009L218.815 12.7809L219.247 13.2398L219.03 13.4683C218.234 14.3058 217.483 15.1896 216.795 16.0954L216.604 16.3476ZM189.769 17.0537L189.38 16.554L189.616 16.3482C190.493 15.5835 191.42 14.8684 192.37 14.223L192.627 14.0479L192.958 14.5926L192.7 14.7677C191.771 15.3994 190.864 16.0995 190.005 16.8479L189.769 17.0537ZM223.867 15.1776L223.666 14.9331C222.965 14.0793 222.136 13.3055 221.201 12.6338L220.948 12.4517L221.292 11.916L221.545 12.0978C222.524 12.8012 223.393 13.6123 224.128 14.5082L224.329 14.7527L223.867 15.1776ZM195.336 13.1794L195.066 12.5981L195.341 12.4553C196.356 11.9284 197.408 11.4478 198.468 11.0279L198.754 10.9141L198.97 11.5205L198.683 11.6342C197.642 12.0468 196.608 12.5187 195.611 13.0367L195.336 13.1794ZM221.282 11.3127L220.898 10.8084L221.137 10.6053C222.01 9.8615 222.938 9.14976 223.893 8.49005L224.15 8.31294L224.484 8.85525L224.228 9.03203C223.289 9.68007 222.379 10.3791 221.521 11.1096L221.282 11.3127ZM218.562 11.1212L218.279 11.0002C217.29 10.5776 216.221 10.2337 215.102 9.97791L214.803 9.9092L214.932 9.27649L215.231 9.34487C216.385 9.60869 217.487 9.96357 218.508 10.3998L218.792 10.5212L218.562 11.1212ZM201.574 10.639L201.416 10.0136L201.712 9.93021C202.815 9.61936 203.936 9.36722 205.045 9.17978L205.347 9.12874L205.443 9.76811L205.141 9.81914C204.053 10.0029 202.953 10.2507 201.869 10.5559L201.574 10.639ZM212.109 9.50797L211.804 9.48462C210.722 9.40191 209.599 9.39024 208.466 9.44961L208.16 9.46561L208.13 8.81891L208.436 8.80289C209.591 8.74152 210.741 8.75419 211.848 8.83858L212.153 8.86193L212.109 9.50797ZM226.842 7.40075L226.567 6.82274L226.84 6.67701C227.835 6.14637 228.892 5.67009 229.979 5.26052L230.268 5.15212L230.473 5.76213L230.184 5.87086C229.121 6.27142 228.088 6.73704 227.116 7.25567L226.842 7.40075ZM256.957 5.89488L256.66 5.8165C255.578 5.53034 254.474 5.26985 253.379 5.04205L253.079 4.97968L253.197 4.34432L253.497 4.40669C254.602 4.63649 255.716 4.8993 256.809 5.18813L257.106 5.26652L256.957 5.89488ZM250.368 4.49307L250.065 4.44736C248.943 4.27827 247.82 4.14287 246.727 4.04481L246.422 4.01745L246.473 3.37242L246.779 3.39976C247.883 3.49882 249.018 3.63556 250.151 3.80633L250.454 3.85203L250.368 4.49307ZM233.093 4.94999L232.953 4.31997L233.251 4.24593C234.326 3.97811 235.453 3.75865 236.6 3.59388L236.904 3.55052L236.986 4.19189L236.683 4.23559C235.555 4.39769 234.447 4.61346 233.391 4.87628L233.093 4.94999ZM243.68 3.8627L243.374 3.85604C242.24 3.83136 241.129 3.84804 240.019 3.90807L239.714 3.92474L239.682 3.27837L239.988 3.26168C241.111 3.19998 242.238 3.1833 243.387 3.20865L243.693 3.21533L243.68 3.8627Z" fill="#EDF8FF"/>
<path d="M267.615 16.5631L271.033 13.2059C271.033 13.2059 286.342 13.1505 286.565 13.0611C286.788 12.9717 294.979 9.70585 294.979 9.70585L285.26 8.01953L269.034 8.67659L267.615 16.5631Z" fill="#F7AB48"/>
<path d="M266.234 0L294.979 9.70595L269.034 8.67669L266.234 0Z" fill="#FEC786"/>
<path d="M271.033 13.2061L273.957 22.4384L294.979 9.70605L271.033 13.2061Z" fill="#FEC786"/>
<path d="M387.652 387.845H0V389.919H387.652V387.845Z" fill="#EDF8FF"/>
<path d="M57.8872 385.536H32.3043V380.017C32.3043 380.017 34.1651 377.368 36.9984 378.72C36.9984 378.72 41.2838 381.935 45.0615 378.044L54.4428 382.445C54.4428 382.445 57.8872 383.66 57.8872 385.536Z" fill="#F4D36C"/>
<path d="M32.3973 380.016H32.21V384.704H32.3973V380.016Z" fill="black"/>
<path d="M40.8388 380.068C41.198 380.068 41.4144 380.036 41.4213 380.034L41.3935 379.838C41.3717 379.841 39.1571 380.169 37.0513 378.637L36.9448 378.801C38.4536 379.898 40.0186 380.068 40.8388 380.068Z" fill="black"/>
<path d="M33.5405 382.905L33.4353 383.07L34.635 383.924L34.7402 383.759L33.5405 382.905Z" fill="black"/>
<path d="M34.3402 382.695L34.235 382.86L35.4337 383.716L35.5389 383.551L34.3402 382.695Z" fill="black"/>
<path d="M32.1518 387.466H57.8949C58.5045 387.466 58.9986 386.943 58.9986 386.298V385.973C58.9986 385.328 58.5045 384.806 57.8949 384.806H32.1518C31.9065 384.806 31.7075 385.016 31.7075 385.276V386.996C31.7075 387.255 31.9065 387.466 32.1518 387.466Z" fill="#C84D71"/>
<path d="M57.6558 384.851L57.8261 384.766C57.8052 384.718 57.2903 383.603 55.3702 382.737C53.4832 381.886 45.1836 377.992 45.1001 377.953L45.0237 378.135C45.1076 378.174 53.4085 382.068 55.2964 382.92C57.1437 383.754 57.651 384.84 57.6558 384.851Z" fill="black"/>
<path d="M48.3246 379.681C47.2676 381.427 45.9536 383.598 45.2422 384.774H46.9866C47.7434 383.523 48.8108 381.76 49.6843 380.316C49.2195 380.099 48.7616 379.885 48.3246 379.681Z" fill="#D7E4F7"/>
<path d="M46.1447 378.659C45.0568 380.456 43.3215 383.324 42.4445 384.774H44.189C45.1469 383.19 46.5837 380.816 47.5041 379.296C46.9911 379.056 46.5282 378.839 46.1447 378.659Z" fill="#D7E4F7"/>
<path d="M58.6152 387.227C58.9185 386.955 59.0926 386.558 59.0926 386.138C59.0926 385.349 58.4862 384.708 57.7411 384.708H32.3379C31.9383 384.708 31.6135 385.052 31.6135 385.474V386.801H31.8015V385.474C31.8015 385.162 32.0421 384.907 32.3379 384.907H57.7411C58.3828 384.907 58.9043 385.459 58.9043 386.137C58.9043 386.499 58.7545 386.841 58.4934 387.076L58.6152 387.227Z" fill="black"/>
<path d="M128.358 385.5H153.941V379.981C153.941 379.981 152.081 377.331 149.247 378.684C149.247 378.684 144.962 381.899 141.184 378.008L131.803 382.409C131.803 382.409 128.358 383.623 128.358 385.5Z" fill="#C84D71"/>
<path d="M154.035 379.979H153.847V384.668H154.035V379.979Z" fill="black"/>
<path d="M145.407 380.032C145.047 380.032 144.831 379.999 144.824 379.998L144.852 379.802C144.874 379.805 147.088 380.133 149.194 378.601L149.301 378.765C147.792 379.863 146.227 380.032 145.407 380.032Z" fill="black"/>
<path d="M152.721 382.874L151.522 383.728L151.627 383.893L152.827 383.039L152.721 382.874Z" fill="black"/>
<path d="M151.92 382.591L150.721 383.446L150.826 383.611L152.025 382.756L151.92 382.591Z" fill="black"/>
<path d="M154.094 387.432H128.351C127.742 387.432 127.248 386.91 127.248 386.265V385.94C127.248 385.295 127.742 384.772 128.351 384.772H154.094C154.34 384.772 154.539 384.983 154.539 385.242V386.962C154.539 387.222 154.34 387.432 154.094 387.432Z" fill="#FF9D00"/>
<path d="M128.59 384.812L128.42 384.727C128.44 384.68 128.955 383.565 130.876 382.699C132.763 381.848 141.062 377.954 141.146 377.915L141.222 378.097C141.138 378.136 132.837 382.03 130.949 382.882C129.102 383.715 128.595 384.801 128.59 384.812Z" fill="black"/>
<path d="M127.63 387.189C127.327 386.917 127.153 386.52 127.153 386.099C127.153 385.311 127.759 384.67 128.504 384.67H153.908C154.307 384.67 154.632 385.014 154.632 385.436V386.762H154.444V385.436C154.444 385.124 154.203 384.869 153.908 384.869H128.504C127.863 384.869 127.341 385.421 127.341 386.099C127.341 386.461 127.491 386.803 127.752 387.038L127.63 387.189Z" fill="black"/>
<path d="M202.516 385.499H176.933V379.98C176.933 379.98 178.794 377.33 181.627 378.683C181.627 378.683 185.913 381.898 189.69 378.007L199.072 382.408C199.072 382.408 202.516 383.622 202.516 385.499Z" fill="#C84D71"/>
<path d="M177.026 379.979H176.838V384.668H177.026V379.979Z" fill="black"/>
<path d="M185.467 380.032C185.826 380.032 186.043 379.999 186.05 379.998L186.021 379.802C186 379.805 183.785 380.133 181.679 378.601L181.573 378.765C183.082 379.863 184.647 380.032 185.467 380.032Z" fill="black"/>
<path d="M178.088 382.861L177.983 383.026L179.182 383.88L179.287 383.715L178.088 382.861Z" fill="black"/>
<path d="M179.017 382.632L178.912 382.797L180.11 383.652L180.215 383.487L179.017 382.632Z" fill="black"/>
<path d="M176.78 387.432H202.523C203.133 387.432 203.627 386.91 203.627 386.265V385.94C203.627 385.295 203.133 384.772 202.523 384.772H176.78C176.535 384.772 176.336 384.983 176.336 385.242V386.962C176.336 387.222 176.534 387.432 176.78 387.432Z" fill="#FF9D00"/>
<path d="M202.284 384.812L202.454 384.727C202.433 384.68 201.918 383.565 199.998 382.699C198.111 381.848 189.811 377.954 189.728 377.915L189.651 378.097C189.735 378.136 198.036 382.03 199.924 382.882C201.772 383.715 202.279 384.801 202.284 384.812Z" fill="black"/>
<path d="M203.243 387.189C203.546 386.917 203.72 386.52 203.72 386.099C203.72 385.311 203.114 384.67 202.369 384.67H176.966C176.566 384.67 176.241 385.014 176.241 385.436V386.762H176.429V385.436C176.429 385.124 176.67 384.869 176.966 384.869H202.369C203.011 384.869 203.532 385.421 203.532 386.099C203.532 386.461 203.382 386.803 203.121 387.038L203.243 387.189Z" fill="black"/>
<path d="M352.957 385.508H378.54V379.988C378.54 379.988 376.679 377.339 373.846 378.691C373.846 378.691 369.56 381.907 365.782 378.016L356.401 382.417C356.401 382.417 352.957 383.631 352.957 385.508Z" fill="#E69148"/>
<path d="M378.634 379.987H378.446V384.675H378.634V379.987Z" fill="black"/>
<path d="M370.005 380.041C369.646 380.041 369.43 380.008 369.423 380.007L369.451 379.81C369.473 379.813 371.687 380.142 373.793 378.609L373.9 378.773C372.391 379.871 370.826 380.041 370.005 380.041Z" fill="black"/>
<path d="M377.405 382.836L376.206 383.689L376.311 383.855L377.51 383.001L377.405 382.836Z" fill="black"/>
<path d="M376.457 382.586L375.258 383.441L375.363 383.606L376.562 382.751L376.457 382.586Z" fill="black"/>
<path d="M378.693 387.439H352.95C352.34 387.439 351.846 386.917 351.846 386.272V385.947C351.846 385.302 352.34 384.779 352.95 384.779H378.693C378.938 384.779 379.137 384.99 379.137 385.249V386.969C379.137 387.229 378.938 387.439 378.693 387.439Z" fill="#2F2158"/>
<path d="M353.189 384.821L353.019 384.736C353.039 384.689 353.554 383.573 355.474 382.708C357.361 381.856 365.661 377.963 365.745 377.924L365.821 378.106C365.737 378.145 357.436 382.039 355.548 382.891C353.7 383.724 353.193 384.81 353.189 384.821Z" fill="black"/>
<path d="M352.229 387.199C351.926 386.927 351.752 386.53 351.752 386.109C351.752 385.321 352.358 384.68 353.103 384.68H378.507C378.906 384.68 379.231 385.024 379.231 385.446V386.772H379.043V385.446C379.043 385.133 378.802 384.879 378.507 384.879H353.103C352.462 384.879 351.94 385.431 351.94 386.11C351.94 386.471 352.09 386.814 352.351 387.048L352.229 387.199Z" fill="black"/>
</svg>
