<svg width="225" height="160" viewBox="0 0 225 160" fill="none" xmlns="http://www.w3.org/2000/svg">
<path opacity="0.5" d="M193.298 106.826C193.298 63.2136 157.008 27.8594 112.241 27.8594C67.4737 27.8594 31.1836 63.2136 31.1836 106.826C31.1836 123.448 36.4558 138.869 45.4591 151.592H179.022C188.026 138.869 193.298 123.448 193.298 106.826Z" fill="#808080"/>
<g opacity="0.7">
<path d="M39.3118 159.493H37.5003C37.3218 159.493 37.1538 159.409 37.0527 159.265C36.7085 158.778 36.3702 158.288 36.0354 157.796C35.8698 157.552 35.9391 157.224 36.1893 157.063C36.4372 156.904 36.7767 156.968 36.9423 157.213C37.2207 157.622 37.5027 158.031 37.787 158.436H39.3129C39.6125 158.436 39.8557 158.672 39.8557 158.965C39.8545 159.257 39.6113 159.493 39.3118 159.493Z" fill="white"/>
<path d="M181.614 159.494H178.057C177.757 159.494 177.514 159.257 177.514 158.965C177.514 158.673 177.757 158.437 178.057 158.437H181.614C181.915 158.437 182.157 158.673 182.157 158.965C182.156 159.257 181.914 159.494 181.614 159.494ZM174.499 159.494H170.942C170.641 159.494 170.399 159.257 170.399 158.965C170.399 158.673 170.641 158.437 170.942 158.437H174.499C174.798 158.437 175.041 158.673 175.041 158.965C175.041 159.257 174.798 159.494 174.499 159.494ZM167.382 159.494H163.825C163.524 159.494 163.282 159.257 163.282 158.965C163.282 158.673 163.524 158.437 163.825 158.437H167.382C167.682 158.437 167.925 158.673 167.925 158.965C167.925 159.257 167.682 159.494 167.382 159.494ZM160.268 159.494H156.711C156.41 159.494 156.168 159.257 156.168 158.965C156.168 158.673 156.41 158.437 156.711 158.437H160.268C160.567 158.437 160.811 158.673 160.811 158.965C160.811 159.257 160.566 159.494 160.268 159.494ZM153.152 159.494H149.595C149.296 159.494 149.053 159.257 149.053 158.965C149.053 158.673 149.296 158.437 149.595 158.437H153.152C153.453 158.437 153.695 158.673 153.695 158.965C153.695 159.257 153.453 159.494 153.152 159.494ZM146.037 159.494H142.48C142.179 159.494 141.937 159.257 141.937 158.965C141.937 158.673 142.179 158.437 142.48 158.437H146.037C146.337 158.437 146.58 158.673 146.58 158.965C146.58 159.257 146.337 159.494 146.037 159.494ZM138.923 159.494H135.366C135.065 159.494 134.823 159.257 134.823 158.965C134.823 158.673 135.065 158.437 135.366 158.437H138.923C139.224 158.437 139.466 158.673 139.466 158.965C139.466 159.257 139.224 159.494 138.923 159.494ZM131.807 159.494H128.25C127.951 159.494 127.708 159.257 127.708 158.965C127.708 158.673 127.951 158.437 128.25 158.437H131.807C132.108 158.437 132.35 158.673 132.35 158.965C132.35 159.257 132.108 159.494 131.807 159.494ZM124.692 159.494H121.135C120.834 159.494 120.592 159.257 120.592 158.965C120.592 158.673 120.834 158.437 121.135 158.437H124.692C124.992 158.437 125.235 158.673 125.235 158.965C125.235 159.257 124.992 159.494 124.692 159.494ZM117.578 159.494H114.021C113.721 159.494 113.478 159.257 113.478 158.965C113.478 158.673 113.721 158.437 114.021 158.437H117.578C117.879 158.437 118.121 158.673 118.121 158.965C118.121 159.257 117.879 159.494 117.578 159.494ZM110.462 159.494H106.905C106.606 159.494 106.363 159.257 106.363 158.965C106.363 158.673 106.606 158.437 106.905 158.437H110.462C110.763 158.437 111.005 158.673 111.005 158.965C111.005 159.257 110.763 159.494 110.462 159.494ZM103.347 159.494H99.7898C99.4891 159.494 99.2471 159.257 99.2471 158.965C99.2471 158.673 99.4891 158.437 99.7898 158.437H103.347C103.647 158.437 103.89 158.673 103.89 158.965C103.89 159.257 103.647 159.494 103.347 159.494ZM96.2327 159.494H92.6756C92.376 159.494 92.1329 159.257 92.1329 158.965C92.1329 158.673 92.376 158.437 92.6756 158.437H96.2327C96.5334 158.437 96.7754 158.673 96.7754 158.965C96.7754 159.257 96.5334 159.494 96.2327 159.494ZM89.1173 159.494H85.5602C85.2606 159.494 85.0175 159.257 85.0175 158.965C85.0175 158.673 85.2606 158.437 85.5602 158.437H89.1173C89.4169 158.437 89.66 158.673 89.66 158.965C89.66 159.257 89.4169 159.494 89.1173 159.494ZM82.0019 159.494H78.4448C78.1452 159.494 77.902 159.257 77.902 158.965C77.902 158.673 78.1452 158.437 78.4448 158.437H82.0019C82.3026 158.437 82.5446 158.673 82.5446 158.965C82.5446 159.257 82.3015 159.494 82.0019 159.494ZM74.8865 159.494H71.3294C71.0286 159.494 70.7866 159.257 70.7866 158.965C70.7866 158.673 71.0286 158.437 71.3294 158.437H74.8865C75.186 158.437 75.4292 158.673 75.4292 158.965C75.4292 159.257 75.186 159.494 74.8865 159.494ZM67.7711 159.494H64.214C63.9144 159.494 63.6712 159.257 63.6712 158.965C63.6712 158.673 63.9144 158.437 64.214 158.437H67.7711C68.0718 158.437 68.3138 158.673 68.3138 158.965C68.3138 159.257 68.0718 159.494 67.7711 159.494ZM60.6568 159.494H57.0997C56.8002 159.494 56.557 159.257 56.557 158.965C56.557 158.673 56.8002 158.437 57.0997 158.437H60.6568C60.9564 158.437 61.1996 158.673 61.1996 158.965C61.1996 159.257 60.9564 159.494 60.6568 159.494ZM53.5414 159.494H49.9843C49.6836 159.494 49.4416 159.257 49.4416 158.965C49.4416 158.673 49.6836 158.437 49.9843 158.437H53.5414C53.841 158.437 54.0842 158.673 54.0842 158.965C54.0842 159.257 53.841 159.494 53.5414 159.494ZM46.426 159.494H42.8689C42.5693 159.494 42.3262 159.257 42.3262 158.965C42.3262 158.673 42.5693 158.437 42.8689 158.437H46.426C46.7268 158.437 46.9688 158.673 46.9688 158.965C46.9688 159.257 46.7268 159.494 46.426 159.494Z" fill="white"/>
<path d="M186.981 159.493H185.17C184.87 159.493 184.627 159.257 184.627 158.965C184.627 158.672 184.87 158.436 185.17 158.436H186.696C186.98 158.031 187.262 157.622 187.541 157.213C187.707 156.968 188.047 156.904 188.294 157.063C188.544 157.224 188.612 157.552 188.447 157.796C188.113 158.29 187.774 158.778 187.43 159.265C187.328 159.409 187.16 159.493 186.981 159.493Z" fill="white"/>
<path d="M189.942 155.028C189.845 155.028 189.749 155.004 189.661 154.951C189.404 154.8 189.323 154.475 189.478 154.225C190.101 153.218 190.706 152.197 191.291 151.161C191.438 150.906 191.767 150.812 192.03 150.953C192.293 151.095 192.389 151.415 192.244 151.673C191.652 152.719 191.041 153.751 190.408 154.772C190.305 154.938 190.126 155.028 189.942 155.028ZM34.4799 154.933C34.2966 154.933 34.1157 154.842 34.0147 154.676C33.3827 153.654 32.7718 152.619 32.1821 151.573C32.0376 151.317 32.1339 150.995 32.3971 150.854C32.6579 150.712 32.9903 150.807 33.1348 151.064C33.7175 152.098 34.3213 153.12 34.9463 154.131C35.1013 154.38 35.0179 154.705 34.7606 154.858C34.6737 154.909 34.5762 154.933 34.4799 154.933ZM193.462 148.799C193.381 148.799 193.297 148.781 193.22 148.743C192.951 148.612 192.843 148.294 192.976 148.033C193.516 146.979 194.033 145.914 194.531 144.838C194.655 144.572 194.978 144.455 195.25 144.574C195.523 144.694 195.645 145.007 195.522 145.274C195.017 146.361 194.493 147.44 193.948 148.505C193.852 148.691 193.66 148.799 193.462 148.799ZM30.9662 148.698C30.7665 148.698 30.575 148.589 30.4799 148.404C29.9336 147.336 29.4109 146.257 28.9104 145.166C28.7883 144.901 28.9104 144.587 29.1841 144.468C29.4532 144.35 29.7797 144.468 29.9007 144.735C30.3965 145.812 30.9122 146.878 31.4514 147.933C31.5841 148.195 31.4761 148.512 31.2071 148.642C31.1307 148.681 31.0485 148.698 30.9662 148.698ZM196.454 142.312C196.386 142.312 196.318 142.3 196.251 142.273C195.974 142.165 195.838 141.857 195.95 141.585C196.4 140.495 196.828 139.393 197.236 138.279C197.337 138.004 197.646 137.861 197.93 137.959C198.212 138.057 198.36 138.36 198.259 138.635C197.846 139.761 197.414 140.877 196.958 141.981C196.874 142.186 196.669 142.312 196.454 142.312ZM27.9836 142.206C27.7674 142.206 27.5654 142.08 27.4784 141.873C27.0238 140.766 26.5927 139.65 26.1827 138.523C26.0817 138.248 26.2297 137.945 26.5128 137.848C26.7936 137.746 27.1049 137.895 27.2059 138.169C27.6112 139.283 28.0376 140.385 28.4875 141.479C28.5991 141.75 28.4629 142.058 28.1844 142.168C28.1187 142.193 28.0517 142.206 27.9836 142.206ZM198.898 135.611C198.845 135.611 198.79 135.603 198.737 135.587C198.45 135.502 198.289 135.204 198.379 134.926C198.737 133.803 199.072 132.67 199.383 131.528C199.461 131.247 199.754 131.083 200.048 131.153C200.338 131.228 200.51 131.518 200.433 131.8C200.116 132.956 199.777 134.102 199.415 135.238C199.344 135.465 199.13 135.611 198.898 135.611ZM25.5471 135.498C25.3157 135.498 25.1007 135.352 25.0291 135.125C24.6673 133.987 24.3289 132.84 24.0153 131.684C23.9389 131.401 24.1116 131.111 24.4018 131.037C24.6919 130.97 24.9903 131.132 25.0655 131.414C25.3756 132.556 25.7093 133.688 26.0664 134.813C26.1557 135.092 25.9947 135.388 25.7081 135.474C25.6541 135.49 25.6 135.498 25.5471 135.498ZM200.776 128.741C200.738 128.741 200.699 128.737 200.658 128.728C200.365 128.664 200.181 128.381 200.245 128.096C200.507 126.949 200.747 125.793 200.963 124.63C201.018 124.343 201.306 124.157 201.595 124.205C201.89 124.257 202.086 124.532 202.032 124.82C201.812 125.997 201.57 127.167 201.305 128.327C201.25 128.573 201.025 128.741 200.776 128.741ZM23.6781 128.62C23.4291 128.62 23.2047 128.453 23.1483 128.206C22.8817 127.045 22.6408 125.875 22.4247 124.697C22.3718 124.408 22.568 124.134 22.8629 124.082C23.1612 124.03 23.4408 124.221 23.4937 124.509C23.7087 125.674 23.9472 126.829 24.2079 127.976C24.2737 128.261 24.0881 128.543 23.7956 128.607C23.7568 128.615 23.7169 128.62 23.6781 128.62ZM202.078 121.744C202.053 121.744 202.027 121.742 202.003 121.738C201.706 121.698 201.498 121.431 201.539 121.142C201.706 119.978 201.849 118.809 201.97 117.631C201.999 117.34 202.279 117.118 202.564 117.157C202.863 117.186 203.08 117.446 203.051 117.736C202.93 118.928 202.783 120.111 202.615 121.288C202.577 121.552 202.345 121.744 202.078 121.744ZM22.3847 121.619C22.1181 121.619 21.8855 121.427 21.8479 121.163C21.6787 119.984 21.5354 118.8 21.4168 117.607C21.3874 117.316 21.6059 117.058 21.9043 117.029C22.178 116.992 22.4693 117.212 22.4975 117.504C22.6173 118.681 22.7583 119.852 22.924 121.017C22.9651 121.307 22.7571 121.574 22.4599 121.614C22.4353 121.617 22.4094 121.619 22.3847 121.619ZM202.798 114.669C202.787 114.669 202.777 114.668 202.766 114.668C202.467 114.65 202.239 114.4 202.255 114.108C202.327 112.938 202.374 111.759 202.397 110.576C202.402 110.283 202.646 110.077 202.951 110.057C203.251 110.063 203.49 110.304 203.483 110.596C203.459 111.796 203.411 112.987 203.341 114.171C203.323 114.451 203.083 114.669 202.798 114.669ZM21.6752 114.538C21.3886 114.538 21.1501 114.321 21.1325 114.039C21.0632 112.853 21.0173 111.66 20.9962 110.461C20.9903 110.169 21.2288 109.928 21.5295 109.923C21.5319 109.923 21.5354 109.923 21.5389 109.923C21.835 109.923 22.077 110.153 22.0817 110.443C22.104 111.626 22.1498 112.806 22.2179 113.978C22.2356 114.27 22.0053 114.52 21.7057 114.536C21.6963 114.538 21.6858 114.538 21.6752 114.538ZM202.938 107.558C202.643 107.558 202.401 107.329 202.395 107.04C202.37 105.857 202.321 104.678 202.248 103.507C202.231 103.216 202.46 102.965 202.759 102.948C203.062 102.944 203.317 103.154 203.334 103.446C203.407 104.63 203.456 105.822 203.481 107.019C203.488 107.312 203.249 107.553 202.95 107.559C202.945 107.558 202.941 107.558 202.938 107.558ZM21.546 107.422C21.5425 107.422 21.5378 107.422 21.5331 107.422C21.2335 107.415 20.9962 107.173 21.0032 106.88C21.0303 105.682 21.0808 104.491 21.156 103.306C21.1748 103.015 21.3933 102.813 21.7316 102.809C22.0312 102.828 22.259 103.078 22.2414 103.37C22.1674 104.541 22.1169 105.72 22.0887 106.904C22.0828 107.193 21.8408 107.422 21.546 107.422ZM202.498 100.462C202.224 100.462 201.986 100.257 201.959 99.9849C201.838 98.8095 201.693 97.6388 201.523 96.476C201.481 96.1865 201.688 95.9187 201.985 95.8775C202.28 95.8363 202.557 96.0377 202.599 96.3273C202.771 97.506 202.918 98.6894 203.04 99.8807C203.069 100.171 202.852 100.43 202.554 100.46C202.535 100.461 202.516 100.462 202.498 100.462ZM21.9959 100.326C21.9759 100.326 21.9583 100.325 21.9395 100.323C21.64 100.293 21.4226 100.033 21.4544 99.7422C21.5801 98.5497 21.7281 97.3664 21.9008 96.191C21.9442 95.9015 22.2297 95.7058 22.5151 95.7413C22.8124 95.7825 23.0191 96.0514 22.9768 96.3398C22.8065 97.5026 22.6585 98.6722 22.5351 99.8487C22.5069 100.122 22.2708 100.326 21.9959 100.326ZM201.479 93.4204C201.222 93.4204 200.994 93.2418 200.945 92.9855C200.728 91.8216 200.486 90.6691 200.222 89.5224C200.156 89.2374 200.34 88.9536 200.633 88.8895C200.931 88.8242 201.216 89.0051 201.283 89.29C201.55 90.4505 201.796 91.619 202.016 92.7966C202.07 93.0839 201.874 93.3597 201.579 93.4123C201.543 93.418 201.512 93.4204 201.479 93.4204ZM23.0273 93.2841C22.9944 93.2841 22.9604 93.2807 22.9275 93.275C22.6326 93.2212 22.4376 92.9454 22.4916 92.6581C22.716 91.4817 22.9615 90.3132 23.2306 89.155C23.2975 88.8701 23.583 88.6904 23.8802 88.7545C24.1727 88.8197 24.356 89.1023 24.2914 89.3873C24.0247 90.5329 23.7815 91.6876 23.5618 92.8504C23.5125 93.1056 23.2834 93.2841 23.0273 93.2841ZM199.879 86.4827C199.639 86.4827 199.418 86.3259 199.355 86.089C199.04 84.9492 198.704 83.8173 198.345 82.6935C198.255 82.4154 198.415 82.1178 198.702 82.0308C198.988 81.9427 199.293 82.0995 199.382 82.3787C199.747 83.5152 200.087 84.6608 200.404 85.8167C200.481 86.0982 200.31 86.3889 200.02 86.4633C199.972 86.4759 199.925 86.4827 199.879 86.4827ZM24.6379 86.35C24.5909 86.35 24.5439 86.3431 24.4969 86.3305C24.2068 86.255 24.0353 85.9643 24.114 85.6827C24.4323 84.528 24.7753 83.3836 25.1407 82.2483C25.23 81.9691 25.5354 81.8134 25.8209 81.9004C26.1075 81.9873 26.2673 82.2849 26.178 82.563C25.8173 83.6846 25.479 84.8164 25.163 85.9574C25.096 86.1932 24.8775 86.35 24.6379 86.35ZM197.703 79.6836C197.48 79.6836 197.271 79.5485 197.191 79.3311C196.782 78.2153 196.351 77.1109 195.899 76.0168C195.786 75.7456 195.92 75.4377 196.199 75.3278C196.478 75.2168 196.795 75.3496 196.907 75.6208C197.366 76.7286 197.802 77.8456 198.214 78.9752C198.315 79.2498 198.167 79.5531 197.885 79.6515C197.824 79.6733 197.764 79.6836 197.703 79.6836ZM26.8206 79.5646C26.7595 79.5646 26.6984 79.5543 26.6373 79.5337C26.3554 79.4341 26.2085 79.1308 26.3096 78.8561C26.7254 77.7312 27.1624 76.6165 27.6194 75.5132C27.7333 75.2431 28.0447 75.115 28.3266 75.2214C28.6038 75.3313 28.7389 75.6391 28.6261 75.9103C28.1727 76.9998 27.7416 78.1008 27.3316 79.2132C27.2517 79.4295 27.0426 79.5646 26.8206 79.5646ZM194.966 73.0733C194.759 73.0733 194.562 72.9566 194.47 72.762C193.971 71.6851 193.451 70.6184 192.908 69.5633C192.774 69.3023 192.882 68.9842 193.15 68.8537C193.417 68.7255 193.743 68.8274 193.878 69.0895C194.428 70.1561 194.955 71.2353 195.462 72.3259C195.585 72.5915 195.463 72.9062 195.19 73.0263C195.118 73.0572 195.04 73.0733 194.966 73.0733ZM29.5565 72.9806C29.4814 72.9806 29.405 72.9645 29.3322 72.9325C29.0585 72.8123 28.9386 72.4988 29.0632 72.2321C29.5683 71.1472 30.0946 70.0725 30.642 69.0128C30.7771 68.7507 31.106 68.6477 31.3703 68.777C31.6394 68.9075 31.7463 69.2268 31.6123 69.4866C31.072 70.536 30.5527 71.5969 30.0523 72.6704C29.9607 72.865 29.7633 72.9806 29.5565 72.9806ZM191.691 66.7044C191.501 66.7044 191.315 66.6049 191.215 66.4309C190.63 65.3975 190.022 64.3755 189.393 63.3672C189.238 63.1166 189.319 62.7916 189.575 62.6394C189.832 62.4906 190.166 62.5673 190.322 62.8168C190.958 63.8388 191.572 64.871 192.167 65.9182C192.311 66.1746 192.216 66.4961 191.953 66.6381C191.869 66.6827 191.78 66.7044 191.691 66.7044ZM32.8258 66.6404C32.7366 66.6404 32.6461 66.6174 32.5627 66.5728C32.2996 66.432 32.2044 66.1105 32.3501 65.8541C32.9433 64.8092 33.5565 63.7793 34.1897 62.763C34.346 62.5135 34.6808 62.4357 34.9369 62.5856C35.193 62.7378 35.274 63.0628 35.1189 63.3134C34.4928 64.3171 33.8855 65.3357 33.2993 66.3668C33.2029 66.5408 33.0162 66.6404 32.8258 66.6404ZM187.9 60.616C187.725 60.616 187.551 60.5325 187.446 60.3791C186.778 59.3949 186.089 58.4244 185.378 57.4688C185.203 57.233 185.257 56.9023 185.5 56.7295C185.738 56.5612 186.08 56.6116 186.259 56.8496C186.975 57.8167 187.674 58.7975 188.352 59.7931C188.518 60.0369 188.45 60.3654 188.2 60.5279C188.108 60.5874 188.003 60.616 187.9 60.616ZM36.6097 60.5714C36.5063 60.5714 36.4018 60.5427 36.309 60.4821C36.0587 60.3207 35.9906 59.9923 36.1574 59.7485C36.8341 58.7551 37.5319 57.7755 38.2473 56.8107C38.4247 56.5727 38.7653 56.5234 39.0062 56.6917C39.2482 56.8633 39.3034 57.1952 39.1283 57.4321C38.4188 58.3843 37.7316 59.3525 37.0608 60.3345C36.9574 60.4878 36.7847 60.5714 36.6097 60.5714ZM183.62 54.8468C183.459 54.8468 183.301 54.7759 183.194 54.6443C182.446 53.715 181.679 52.804 180.894 51.9056C180.7 51.6836 180.727 51.3494 180.956 51.1606C181.183 50.9718 181.527 50.9969 181.722 51.2201C182.516 52.1288 183.29 53.0524 184.048 53.9897C184.234 54.2197 184.192 54.5527 183.958 54.7324C183.858 54.8091 183.739 54.8468 183.62 54.8468ZM40.8857 54.816C40.7671 54.816 40.6496 54.7782 40.5498 54.7015C40.3148 54.5218 40.2737 54.1888 40.4593 53.9587C41.217 53.0203 41.9924 52.0979 42.7853 51.1926C42.9791 50.9695 43.3222 50.9431 43.5501 51.1331C43.778 51.3231 43.8062 51.6573 43.6112 51.8782C42.8264 52.7743 42.0605 53.6852 41.3122 54.6134C41.2053 54.7461 41.0455 54.816 40.8857 54.816ZM178.884 49.4325C178.738 49.4325 178.592 49.3752 178.484 49.2631C177.664 48.3979 176.826 47.5487 175.968 46.7144C175.755 46.5073 175.755 46.172 175.968 45.966C176.18 45.76 176.524 45.76 176.736 45.966C177.602 46.8083 178.45 47.6689 179.282 48.5455C179.485 48.7607 179.471 49.0937 179.251 49.2928C179.148 49.3867 179.017 49.4325 178.884 49.4325ZM45.6211 49.4073C45.4896 49.4073 45.3568 49.3615 45.2534 49.2677C45.0326 49.0697 45.0197 48.7344 45.2229 48.5204C46.0546 47.6426 46.9039 46.7831 47.7709 45.9419C47.9824 45.7359 48.3277 45.7348 48.538 45.9431C48.7506 46.1502 48.7506 46.4855 48.5368 46.6904C47.6805 47.5236 46.8417 48.3716 46.0205 49.2379C45.9136 49.3501 45.7668 49.4073 45.6211 49.4073ZM173.721 44.4072C173.589 44.4072 173.457 44.3614 173.352 44.2676C172.464 43.4688 171.558 42.6871 170.637 41.9238C170.409 41.7338 170.381 41.3996 170.575 41.1776C170.769 40.9544 171.113 40.9293 171.341 41.117C172.274 41.8917 173.19 42.6814 174.089 43.4894C174.309 43.6874 174.322 44.0227 174.119 44.2367C174.013 44.3511 173.866 44.4072 173.721 44.4072ZM50.7865 44.3832C50.6408 44.3832 50.494 44.326 50.3871 44.2138C50.1838 43.9987 50.1979 43.6645 50.4176 43.4665C51.3186 42.6574 52.2361 41.8665 53.17 41.094C53.3967 40.9041 53.7386 40.9293 53.9348 41.1559C54.1286 41.3779 54.1016 41.7121 53.8713 41.9009C52.9492 42.6642 52.0423 43.4448 51.1542 44.2447C51.0508 44.3374 50.9192 44.3832 50.7865 44.3832ZM168.163 39.802C168.044 39.802 167.927 39.7653 167.828 39.6887C166.877 38.9608 165.911 38.2536 164.93 37.5646C164.687 37.3929 164.632 37.0622 164.808 36.8253C164.983 36.5872 165.323 36.5357 165.566 36.7063C166.558 37.4044 167.536 38.1208 168.498 38.8555C168.734 39.0363 168.775 39.3682 168.591 39.5983C168.484 39.731 168.324 39.802 168.163 39.802ZM56.3524 39.7757C56.1915 39.7757 56.0329 39.7058 55.9248 39.5719C55.7404 39.3419 55.7815 39.0089 56.0176 38.8292C56.9809 38.0933 57.9606 37.378 58.9556 36.6788C59.2 36.5105 59.5395 36.562 59.7145 36.7978C59.8895 37.0347 59.8355 37.3654 59.5923 37.5371C58.6091 38.2272 57.6411 38.9368 56.6884 39.6624C56.5873 39.739 56.4687 39.7757 56.3524 39.7757ZM162.248 35.6465C162.145 35.6465 162.04 35.6179 161.949 35.5584C160.942 34.9095 159.92 34.2801 158.886 33.6689C158.63 33.5167 158.549 33.1917 158.704 32.941C158.859 32.6915 159.195 32.6149 159.451 32.7636C160.498 33.3816 161.531 34.0202 162.549 34.676C162.799 34.8374 162.867 35.1658 162.703 35.4096C162.597 35.563 162.424 35.6465 162.248 35.6465ZM62.279 35.6168C62.1039 35.6168 61.9301 35.5332 61.8255 35.3787C61.6599 35.1349 61.7292 34.8065 61.9794 34.6451C63.0003 33.9882 64.0376 33.3485 65.0878 32.7305C65.3439 32.5783 65.6787 32.6584 65.8337 32.909C65.9888 33.1596 65.9077 33.4846 65.6505 33.6357C64.612 34.2468 63.5888 34.8786 62.5797 35.5275C62.4857 35.587 62.3812 35.6168 62.279 35.6168ZM156.014 31.9682C155.925 31.9682 155.835 31.9477 155.751 31.9019C154.696 31.3342 153.626 30.7849 152.545 30.2585C152.276 30.128 152.169 29.8098 152.303 29.5489C152.438 29.2868 152.767 29.1838 153.031 29.3132C154.126 29.8465 155.206 30.4004 156.276 30.9749C156.539 31.1168 156.634 31.4384 156.49 31.6947C156.39 31.8687 156.204 31.9682 156.014 31.9682ZM68.5333 31.9328C68.343 31.9328 68.1574 31.8332 68.0575 31.6593C67.913 31.4029 68.0082 31.0813 68.2713 30.9394C69.345 30.3626 70.4317 29.8076 71.5301 29.2731C71.7955 29.1426 72.1245 29.249 72.2584 29.5111C72.3911 29.7732 72.2831 30.0902 72.014 30.2207C70.9286 30.7483 69.8561 31.2965 68.7964 31.8664C68.7119 31.911 68.6226 31.9328 68.5333 31.9328ZM149.501 28.7924C149.426 28.7924 149.351 28.7764 149.278 28.7455C148.18 28.2626 147.071 27.8014 145.95 27.3596C145.672 27.2497 145.536 26.9418 145.649 26.6706C145.762 26.3994 146.078 26.2666 146.356 26.3777C147.491 26.824 148.614 27.292 149.726 27.7796C149.998 27.8997 150.12 28.2133 149.998 28.48C149.905 28.6757 149.707 28.7924 149.501 28.7924ZM75.0743 28.7501C74.8675 28.7501 74.669 28.6333 74.5785 28.4376C74.4563 28.1721 74.5773 27.8586 74.8511 27.7384C75.9694 27.2486 77.0972 26.7805 78.2378 26.3341C78.5151 26.2197 78.8323 26.357 78.945 26.6271C79.0578 26.8984 78.9215 27.2074 78.6443 27.3161C77.5177 27.7578 76.4017 28.2191 75.2963 28.7043C75.2246 28.7341 75.1494 28.7501 75.0743 28.7501ZM142.741 26.1373C142.679 26.1373 142.617 26.127 142.558 26.1064C141.421 25.7104 140.275 25.3374 139.115 24.986C138.829 24.899 138.669 24.6026 138.758 24.3234C138.847 24.0441 139.153 23.8862 139.438 23.9755C140.611 24.3314 141.771 24.7102 142.923 25.1096C143.205 25.208 143.353 25.5113 143.252 25.786C143.173 26.0011 142.963 26.1373 142.741 26.1373ZM81.8631 26.0927C81.6399 26.0927 81.4308 25.9565 81.3509 25.739C81.2499 25.4644 81.3979 25.1611 81.681 25.0638C82.8358 24.6644 84.0023 24.2867 85.177 23.932C85.4613 23.8415 85.7667 24.0029 85.856 24.281C85.9453 24.5591 85.7844 24.8567 85.4977 24.9425C84.3371 25.2939 83.1847 25.667 82.044 26.0618C81.9853 26.0835 81.9242 26.0927 81.8631 26.0927ZM135.771 24.019C135.725 24.019 135.677 24.0121 135.63 23.9995C134.466 23.6951 133.291 23.4135 132.107 23.1549C131.814 23.0908 131.631 22.807 131.696 22.522C131.761 22.237 132.052 22.0574 132.345 22.1214C133.543 22.3835 134.731 22.6697 135.912 22.9775C136.201 23.0519 136.373 23.3426 136.295 23.6253C136.231 23.8622 136.01 24.019 135.771 24.019ZM88.8457 23.9846C88.6049 23.9846 88.3853 23.8278 88.3206 23.5909C88.2443 23.3083 88.417 23.0187 88.706 22.9432C89.8866 22.6376 91.0766 22.3538 92.2736 22.094C92.5638 22.0276 92.8563 22.2096 92.9221 22.4957C92.9879 22.7807 92.8023 23.0634 92.5098 23.1274C91.3256 23.3861 90.1521 23.6653 88.9855 23.9674C88.9386 23.9777 88.8916 23.9846 88.8457 23.9846ZM128.652 22.4591C128.619 22.4591 128.586 22.4556 128.553 22.4499C127.367 22.2393 126.173 22.0493 124.971 21.8845C124.674 21.8433 124.467 21.5756 124.509 21.286C124.551 20.9953 124.83 20.7916 125.122 20.8362C126.339 21.0045 127.546 21.1945 128.747 21.4085C129.042 21.4611 129.238 21.7369 129.184 22.0242C129.137 22.2794 128.908 22.4591 128.652 22.4591ZM95.9694 22.435C95.7121 22.435 95.4842 22.2554 95.4361 22.0001C95.382 21.7117 95.5782 21.4371 95.873 21.3844C97.0748 21.1716 98.2836 20.9827 99.5007 20.8179C99.7955 20.7848 100.072 20.9804 100.113 21.27C100.154 21.5595 99.9459 21.8262 99.6487 21.8662C98.4481 22.0299 97.2534 22.2165 96.0669 22.4259C96.0352 22.4316 96.0034 22.435 95.9694 22.435ZM121.424 21.4634C121.405 21.4634 121.387 21.4623 121.367 21.46C120.169 21.3421 118.964 21.2471 117.751 21.1773C117.452 21.159 117.224 20.9095 117.24 20.6176C117.259 20.3258 117.52 20.1221 117.815 20.1198C119.044 20.1919 120.263 20.2881 121.477 20.4071C121.775 20.4357 121.991 20.6955 121.962 20.9873C121.935 21.2608 121.7 21.4634 121.424 21.4634ZM103.199 21.4508C102.924 21.4508 102.687 21.246 102.66 20.9736C102.63 20.6829 102.847 20.4243 103.146 20.3945C104.359 20.2766 105.58 20.1839 106.806 20.113C107.131 20.1256 107.363 20.3201 107.381 20.6108C107.398 20.9026 107.169 21.1532 106.87 21.1704C105.657 21.2391 104.452 21.3318 103.253 21.4474C103.235 21.4497 103.216 21.4508 103.199 21.4508ZM114.137 21.0342C114.133 21.0342 114.13 21.0342 114.126 21.0342C112.919 21.0102 111.703 21.009 110.495 21.0319C110.161 21.0377 109.948 20.8065 109.942 20.5135C109.935 20.2217 110.173 19.9802 110.474 19.9745C111.696 19.9516 112.924 19.9527 114.146 19.9768C114.447 19.9825 114.685 20.224 114.678 20.5158C114.674 20.8053 114.432 21.0342 114.137 21.0342Z" fill="white"/>
</g>
<path d="M224.912 91.0307H224.787V93.0048H224.079V92.5207H222.535V91.0307H222.411V92.5207H222.401V93.0048H220.159V91.0307H220.034V93.0048H217.782V91.0307H217.658V93.0048H215.407V91.0307H215.282V93.0048H213.031V91.0307H212.907V93.0048H210.656V91.0307H210.532V93.0048H208.281V91.0307H208.156V93.0048H206.029V91.0307H205.904H205.78H205.655V105.824H224.9V105.702V105.642H224.909V91.0307H224.912ZM224.787 93.1261V95.1014H224.079V93.1261H224.787ZM206.03 103.607H208.157V105.461H206.03V103.607ZM221.243 99.4137H222.402V101.389H221.243V99.4137ZM219.565 101.389H218.406V99.4137H219.565V101.389ZM216.728 101.389H215.569V99.4137H216.728V101.389ZM213.893 101.389H213.033V99.4137H213.893V101.389ZM212.908 101.389H212.733V99.4137H212.908V101.389ZM211.056 101.389H210.657V99.4137H211.056V101.389ZM210.533 101.389H209.896V99.4137H210.533V101.389ZM209.896 101.51H210.533V103.486H209.896V101.51ZM210.657 101.51H211.056V103.486H210.657V101.51ZM212.733 101.51H212.908V103.486H212.733V101.51ZM213.033 101.51H213.893V103.486H213.033V101.51ZM215.569 101.51H216.728V103.486H215.569V101.51ZM218.406 101.51H219.565V103.486H218.406V101.51ZM221.243 101.51H222.402V103.486H221.243V101.51ZM222.402 99.2935H221.243V97.6879H220.16V97.3183H222.402V99.2935ZM220.035 97.6868H219.565V99.2924H218.406V97.3171H220.035V97.6868ZM216.728 99.2935H215.569H215.408V97.3183H216.728V99.2935ZM215.283 99.2935H213.891H213.031V97.3183H215.282V99.2935H215.283ZM212.908 99.2935H212.733V97.3183H212.908V99.2935ZM211.056 99.2935H210.657V97.3183H211.056V99.2935ZM210.533 99.2935H209.896V97.3183H210.533V99.2935ZM208.157 99.2935H206.03V97.3183H208.157V99.2935ZM208.157 99.4137V101.389H206.03V99.4137H208.157ZM208.157 101.51V103.486H206.03V101.51H208.157ZM209.896 103.607H210.533V105.461H209.896V103.607ZM210.657 103.607H211.056V105.461H210.657V103.607ZM212.733 103.607H212.908V105.461H212.733V103.607ZM213.033 103.607H213.893V105.461H213.033V103.607ZM215.569 103.607H216.728V105.461H215.569V103.607ZM218.406 103.607H219.565V105.461H218.406V103.607ZM221.243 103.607H222.402V105.461H221.243V103.607ZM222.402 97.1969H220.16V95.2216H222.402V97.1969ZM220.035 97.1969H218.406V96.2745H217.784V95.2216H220.036L220.035 97.1969ZM217.66 96.2745H216.73V97.1969H215.409V95.2216H217.66V96.2745ZM215.283 97.1969H213.033V95.2216H215.283V97.1969ZM212.908 97.1969H212.733V95.2216H212.908V97.1969ZM211.056 97.1969H210.657V95.2216H211.056V97.1969ZM210.533 97.1969H208.282V95.2216H210.533V97.1969ZM208.157 97.1969H206.03V95.2216H208.157V97.1969ZM224.079 105.461V103.607H224.787V105.461H224.079ZM224.079 103.486V101.51H224.787V103.486H224.079ZM224.079 101.389V99.4137H224.787V101.389H224.079ZM224.079 99.2935V97.3183H224.787V99.2935H224.079ZM224.079 97.1969V95.2216H224.787V97.1969H224.079ZM222.402 93.1261V95.1014H220.16V93.1261H222.402ZM220.035 93.1261V95.1014H217.783V93.1261H220.035ZM217.66 93.1261V95.1014H215.409V93.1261H217.66ZM215.283 93.1261V95.1014H213.033V93.1261H215.283ZM212.908 93.1261V95.1014H212.733V94.1504H211.056V95.1014H210.657V93.1261H212.908ZM210.533 93.1261V95.1014H208.282V93.1261H210.533ZM208.157 93.1261V95.1014H206.03V93.1261H208.157ZM224.902 91.0295H205.843V90.9082H224.902V91.0295Z" fill="#002856"/>
<path d="M173.565 8.45947H173.432V10.5629H171.032V8.74328L171.17 8.68492L171.069 8.45716H173.554V8.32787H171.011L170.959 8.20996L170.681 8.32787H153.239V8.45716H170.374L168.498 9.24914V8.45832H168.365V9.3052L165.965 10.318V8.45832H165.833V10.373L165.728 10.4176L165.619 10.5618H163.433V8.45832H163.3V10.5618H160.9V8.45832H160.767V10.5618H158.367V8.45832H158.234V10.5618H155.834V8.45832H155.702V10.5618H153.434V8.45832H153.302H153.169H153.036V23.8477L153.001 23.9117L153.036 23.9301V24.2265H173.55V24.0972V24.0331H173.559V8.45947H173.565ZM173.432 10.6923V12.7969H171.032V10.6923H173.432ZM170.899 15.032H168.499V13.2101L168.516 13.1883L170.899 14.3087V15.032ZM171.032 14.3705L172.437 15.032H171.032V14.3705ZM163.303 15.1613V17.2671H161.215L162.805 15.1613H163.303ZM162.903 15.032L163.302 14.5021V15.032H162.903ZM165.835 17.3953V19.4999H163.746L165.337 17.3953H165.835ZM165.436 17.266L165.836 16.7361V17.266H165.436ZM158.371 18.6233L160.771 17.6379V19.3065H160.759L160.452 19.4999H158.371V18.6233ZM158.238 19.4999H156.234L158.238 18.6771V19.4999ZM160.248 19.6293L158.371 20.816V19.6293H160.248ZM163.435 19.0422V17.3953H164.679L163.435 19.0422ZM163.303 19.2172L163.235 19.3065H160.903V17.583L161.007 17.5406L161.117 17.3953H163.303V19.2172ZM158.371 18.0625V17.3953H159.998L158.371 18.0625ZM158.238 18.1174L155.838 19.1028V17.3953H158.238V18.1174ZM155.706 21.8632V22.4995L153.679 23.7813L154.73 21.8621H155.706V21.8632ZM154.8 21.735L155.706 20.0801V21.735H154.8ZM155.839 21.8632H156.714L155.839 22.416V21.8632ZM155.839 21.735V19.8375L155.953 19.6293H158.239V20.8996L156.919 21.735H155.839ZM158.238 21.5153V21.735H157.89L158.238 21.5153ZM158.371 21.4317L160.771 19.9154V21.735H158.371V21.4317ZM160.903 19.8307L160.915 19.8226H163.303V21.7339H160.903V19.8307ZM163.435 19.8226H163.503L163.65 19.6293H165.836V21.735H163.436L163.435 19.8226ZM165.968 19.6293H168.368V21.735H165.968V19.6293ZM165.968 19.4999V17.3953H168.368V19.4999H165.968ZM165.968 17.266V16.561L167.026 15.1602H168.368V17.266H165.968ZM167.124 15.032L168.368 13.3851V15.032H167.124ZM166.466 15.032H165.968V12.9262H168.056L166.466 15.032ZM166.368 15.1613L165.968 15.6912V15.1613H166.368ZM165.835 15.8663L164.777 17.2671H163.435V15.1613H165.835V15.8663ZM160.903 16.8071V15.1602H162.148L160.903 16.8071ZM160.771 16.9833L160.667 17.1206L160.313 17.266H158.372V15.1602H160.772V16.9833H160.771ZM158.238 17.266H155.838V15.1602H158.238V17.266ZM155.706 17.266H153.439V15.1602H155.706V17.266ZM155.706 17.3953V19.1577L155.583 19.2081L155.422 19.5011H153.438V17.3964H155.706V17.3953ZM155.352 19.6293L154.199 21.735H153.439V19.6293H155.352ZM154.129 21.8632L153.439 23.1221V21.8632H154.129ZM155.706 23.1164V23.8408H154.561L155.706 23.1164ZM155.839 23.0317L157.687 21.8632H158.238V23.8397H155.838V23.0317H155.839ZM158.371 21.8632H160.771V23.8397H158.371V21.8632ZM160.903 21.8632H163.303V23.8397H160.903V21.8632ZM163.435 21.8632H165.835V23.8397H163.435V21.8632ZM165.968 21.8632H168.368V23.8397H165.968V21.8632ZM168.501 21.8632H170.901V23.8397H168.501V21.8632ZM168.501 21.735V19.6293H170.901V21.735H168.501ZM168.501 19.4999V17.3953H170.901V19.4999H168.501ZM168.501 17.266V15.1602H170.901V17.266H168.501ZM169.181 12.9262H170.901V13.7353L169.181 12.9262ZM168.906 12.7969L168.499 12.6058V10.6911H170.899V12.7958H168.906V12.7969ZM168.368 12.544L168.351 12.536L168.154 12.7969H165.968V10.975L166.072 10.8365L166.415 10.6923H168.368V12.544ZM165.835 12.7969H164.591L165.835 11.15V12.7969ZM165.835 12.9262V15.032H163.435V14.327L164.493 12.9262H165.835ZM163.435 13.4561V12.9262H163.834L163.435 13.4561ZM163.303 13.6312L162.245 15.032H160.903V12.9262H163.303V13.6312ZM160.771 15.032H158.371V12.9262H160.771V15.032ZM158.238 15.032H155.838V12.9262H158.238V15.032ZM155.706 15.032H153.439V12.9262H155.706V15.032ZM171.032 23.8397V21.8632H173.432V23.8397H171.032ZM171.032 21.735V19.6293H173.432V21.735H171.032ZM171.032 19.4999V17.3953H173.432V19.4999H171.032ZM171.032 17.266V15.1602H172.712L173.069 15.3284L173.152 15.1602H173.432V17.266H171.032ZM173.217 15.032L173.301 14.8638L171.033 13.7972V12.9262H173.433V15.032H173.217ZM170.899 8.79937V10.5629H168.499V9.81221L170.899 8.79937ZM168.368 10.5629H166.721L168.368 9.86827V10.5629ZM165.524 10.6923L163.933 12.7969H163.435V10.6923H165.524ZM163.303 10.6923V12.7969H160.903V10.6923H163.303ZM160.771 10.6923V12.7969H158.371V10.6923H160.771ZM158.238 10.6923V12.7969H155.838V10.6923H158.238ZM155.706 10.6923V12.7969H153.439V10.6923H155.706Z" fill="#002856"/>
<path d="M63.5688 16.9448C63.2504 16.9448 62.9932 17.1954 62.9932 17.5055C62.9932 17.5524 63.0002 17.5971 63.012 17.6406L61.0701 20.6218V11.0303H60.7095V21.4859H77.2158V21.1345H61.4037L63.4161 18.0446C63.4654 18.0572 63.5148 18.0663 63.5676 18.0663C63.7074 18.0663 63.8355 18.0159 63.9353 17.9335L66.1109 19.2107C66.1403 19.4934 66.3823 19.7154 66.6807 19.7154C66.999 19.7154 67.2563 19.4648 67.2563 19.1547C67.2563 19.0929 67.2434 19.0345 67.2246 18.9784L69.291 15.6092C69.325 15.6149 69.3591 15.6195 69.3943 15.6195C69.52 15.6195 69.6352 15.5794 69.7303 15.5119L71.5394 16.1837C71.6346 16.3634 71.826 16.4881 72.0493 16.4881C72.3676 16.4881 72.6249 16.2375 72.6249 15.9273C72.6249 15.9056 72.6214 15.8862 72.6178 15.8656L74.6771 13.8593L75.2727 14.4396L75.8542 12.3235L73.6821 12.89L74.2777 13.4702L72.2819 15.4146C72.2102 15.3837 72.1315 15.3654 72.0481 15.3654C71.8519 15.3654 71.6792 15.4616 71.5747 15.6081L69.9641 15.0095C69.9394 14.7222 69.6951 14.4956 69.3932 14.4956C69.0748 14.4956 68.8175 14.7463 68.8175 15.0564C68.8175 15.124 68.8316 15.1869 68.854 15.2464L66.7946 18.6031C66.757 18.5962 66.7183 18.5916 66.6795 18.5916C66.5515 18.5916 66.4352 18.634 66.34 18.7015L64.1327 17.406C64.0869 17.145 63.8519 16.9448 63.5688 16.9448Z" fill="#002856"/>
<path d="M66.8017 10.4775H71.1236C71.3151 10.4775 71.4725 10.3241 71.4725 10.1376V9.11671C71.4725 8.92902 71.3151 8.77681 71.1236 8.77681H70.4129C70.4129 8.64864 70.4129 8.45864 70.4129 8.24692C70.4129 7.86239 70.064 7.54883 69.6352 7.54883H68.289C67.8614 7.54883 67.5113 7.86353 67.5113 8.24692C67.5113 8.45864 67.5113 8.64864 67.5113 8.77681H66.8017C66.6091 8.77681 66.4517 8.93017 66.4517 9.11671V10.1376C66.4528 10.3241 66.6103 10.4775 66.8017 10.4775ZM68.9633 7.83033C69.1994 7.83033 69.3897 8.01688 69.3897 8.24577C69.3897 8.4758 69.1994 8.66121 68.9633 8.66121C68.7271 8.66121 68.5368 8.4758 68.5368 8.24577C68.5368 8.01574 68.7271 7.83033 68.9633 7.83033Z" fill="#002856"/>
<path d="M78.4305 9.21094H71.7556V9.48559H78.4305C78.723 9.48559 78.9603 9.72591 78.9603 10.0212V22.4933C78.9603 22.7886 78.723 23.0289 78.4305 23.0289H59.4949C59.2023 23.0289 58.965 22.7886 58.965 22.4933V10.0212C58.965 9.72591 59.2023 9.48559 59.4949 9.48559H66.1709V9.21094H59.4949C59.0473 9.21094 58.6831 9.57484 58.6831 10.0212V22.4933C58.6831 22.9397 59.0473 23.3036 59.4949 23.3036H78.4305C78.8781 23.3036 79.2423 22.9397 79.2423 22.4933V10.0212C79.2423 9.57484 78.8781 9.21094 78.4305 9.21094Z" fill="#002856"/>
<path d="M20.194 103.314L19.1098 102.348C18.9406 102.197 18.7256 102.056 18.4895 101.928C18.3321 102.062 18.1288 102.145 17.9033 102.145H2.65515C2.4296 102.145 2.22637 102.062 2.06895 101.928C1.83283 102.056 1.61785 102.197 1.44869 102.348L0.364403 103.314C-0.247637 103.858 -0.0702523 104.304 0.75794 104.304H19.7993C20.6287 104.304 20.8061 103.858 20.194 103.314Z" fill="#002856"/>
<path d="M17.9035 91.8018H2.65535C2.24067 91.8018 1.90234 92.1313 1.90234 92.5353V101.136C1.90234 101.539 2.24067 101.869 2.65535 101.869H17.9035C18.3182 101.869 18.6565 101.539 18.6565 101.136V92.5353C18.6565 92.1313 18.317 91.8018 17.9035 91.8018ZM18.0515 100.773C18.0515 101.015 17.8471 101.213 17.5992 101.213H2.95961C2.71057 101.213 2.50733 101.015 2.50733 100.773V92.8981C2.50733 92.6567 2.71057 92.4575 2.95961 92.4575H17.6004C17.8483 92.4575 18.0527 92.6567 18.0527 92.8981L18.0515 100.773Z" fill="#002856"/>
<path d="M7.7041 95.9973C7.70762 95.9973 7.71819 95.9984 7.72172 95.9984C7.72642 95.9996 7.76871 96.0018 7.84154 96.0018C8.19631 96.0018 9.40395 95.924 10.3061 94.949L10.0583 94.7899C10.0348 94.775 10.0207 94.7475 10.0219 94.7201C10.023 94.6926 10.0407 94.6675 10.0665 94.6549L10.9476 94.2234C10.9734 94.2108 11.0039 94.2119 11.0274 94.228C11.0521 94.244 11.065 94.2703 11.0639 94.2978L11.0075 95.258C11.0051 95.2854 10.9887 95.3106 10.9628 95.3232C10.937 95.3358 10.9064 95.3335 10.8829 95.3186L10.6092 95.1447C9.606 96.2651 8.23626 96.3532 7.83684 96.3532C7.74874 96.3532 7.69705 96.3498 7.69 96.3486C7.59015 96.3395 7.51731 96.2548 7.52554 96.1587C7.53376 96.0648 7.61129 95.9973 7.7041 95.9973Z" fill="#002856"/>
<path d="M14.8302 99.8119C14.8302 99.8554 14.7937 99.8897 14.7491 99.8897H5.47217C5.42753 99.8897 5.39111 99.8542 5.39111 99.8119V93.9901C5.39111 93.9466 5.42753 93.9111 5.47217 93.9111H5.51681C5.56145 93.9111 5.59787 93.9466 5.59787 93.9901V99.6883H5.81284V97.9945H7.23311V99.6883H7.57613V97.2289H8.9964V99.6883H9.33942V96.4587H10.7597V99.6883H11.1027V95.5626H12.523V99.6883H12.866V94.9366H14.2863V99.6883H14.7479C14.7926 99.6883 14.829 99.7226 14.829 99.7673L14.8302 99.8119Z" fill="#002856"/>
<path opacity="0.7" d="M216.499 128.73H172.446V156.87H216.499V128.73Z" fill="#808080"/>
<path d="M215.324 128.158H171.271V156.298H215.324V128.158Z" fill="#FFCC00"/>
<path d="M171.271 156.298H215.324V128.158L171.271 156.298Z" fill="#FF9E1F"/>
<path d="M209.977 153.694H174.891V131.651H175.395V153.143H209.977V153.694Z" fill="#E1FFFF"/>
<path d="M190.006 148.016L184.53 144.87L178.173 147.043L177.895 146.439L184.618 144.139L189.955 147.205L195.553 143.144L200.923 144.496L208.057 137.407L208.627 137.833L201.175 145.236L195.73 143.866L190.006 148.016Z" fill="#3683C9"/>
<path d="M185.338 144.455C185.338 144.904 184.966 145.266 184.506 145.266C184.047 145.266 183.673 144.902 183.673 144.455C183.673 144.009 184.047 143.644 184.506 143.644C184.964 143.644 185.338 144.007 185.338 144.455Z" fill="#3ACCC8"/>
<path d="M190.914 147.475C190.914 147.923 190.541 148.286 190.083 148.286C189.621 148.286 189.249 147.923 189.249 147.475C189.249 147.028 189.621 146.664 190.083 146.664C190.541 146.664 190.914 147.029 190.914 147.475Z" fill="#3ACCC8"/>
<path d="M196.426 143.468C196.426 143.916 196.053 144.281 195.595 144.281C195.134 144.281 194.76 143.916 194.76 143.468C194.76 143.022 195.134 142.658 195.595 142.658C196.053 142.658 196.426 143.022 196.426 143.468Z" fill="#3ACCC8"/>
<path d="M201.898 144.777C201.898 145.226 201.525 145.588 201.065 145.588C200.605 145.588 200.231 145.226 200.231 144.777C200.231 144.328 200.605 143.963 201.065 143.963C201.525 143.964 201.898 144.329 201.898 144.777Z" fill="#3ACCC8"/>
<path d="M184.963 144.568C184.963 144.815 184.759 145.016 184.505 145.016C184.251 145.016 184.047 144.815 184.047 144.568C184.047 144.322 184.251 144.123 184.505 144.123C184.759 144.124 184.963 144.322 184.963 144.568Z" fill="#FFFFCC"/>
<path d="M190.54 147.592C190.54 147.837 190.333 148.036 190.083 148.036C189.829 148.036 189.623 147.837 189.623 147.592C189.623 147.346 189.83 147.145 190.083 147.145C190.333 147.145 190.54 147.346 190.54 147.592Z" fill="#FFFFCC"/>
<path d="M196.052 143.585C196.052 143.832 195.847 144.031 195.595 144.031C195.34 144.031 195.136 143.832 195.136 143.585C195.136 143.339 195.34 143.139 195.595 143.139C195.846 143.139 196.052 143.339 196.052 143.585Z" fill="#FFFFCC"/>
<path d="M201.522 144.893C201.522 145.14 201.317 145.339 201.064 145.339C200.81 145.339 200.605 145.14 200.605 144.893C200.605 144.645 200.81 144.446 201.064 144.446C201.317 144.446 201.522 144.645 201.522 144.893Z" fill="#FFFFCC"/>
<path opacity="0.7" d="M56.3334 44.8264C52.7728 38.3672 45.7784 33.9736 37.7255 33.9736C26.0662 33.9736 16.6143 43.1818 16.6143 54.5404C16.6143 58.0184 17.5082 61.2892 19.0718 64.1606C21.7725 69.1184 26.4927 72.855 32.1655 74.3634C33.9393 74.8349 35.7978 75.1072 37.7255 75.1072C38.3176 75.1072 38.8991 75.0683 39.4783 75.0214C49.453 74.2214 57.4483 66.6761 58.663 57.0731C58.7675 56.2411 58.8392 55.3999 58.8392 54.5404C58.8392 51.0258 57.9287 47.7196 56.3334 44.8264Z" fill="#808080"/>
<path d="M17.8984 63.5899C20.5992 68.5477 25.3193 72.2843 30.9921 73.7927L36.5522 53.9697L17.8984 63.5899Z" fill="#FFEB33"/>
<path d="M36.5522 33.4014C24.8929 33.4014 15.4409 42.6095 15.4409 53.9682C15.4409 57.4461 16.3349 60.7169 17.8985 63.5884L36.5522 53.9682V33.4014Z" fill="#66CCFF"/>
<path d="M55.1587 44.2541C51.598 37.7949 44.6036 33.4014 36.5508 33.4014V53.9682L55.1587 44.2541Z" fill="#DD2A59"/>
<path d="M30.9912 73.7927C32.7651 74.2642 34.6235 74.5365 36.5513 74.5365C37.1433 74.5365 37.7248 74.4976 38.304 74.4507L36.5513 53.9697L30.9912 73.7927Z" fill="#4D6ABD"/>
<path d="M38.3038 74.4507C48.2785 73.6507 56.2738 66.1054 57.4885 56.5024L36.5522 53.9697L38.3038 74.4507Z" fill="#66CC33"/>
<path d="M55.1587 44.2539L36.5508 53.9691L57.487 56.5017C57.5916 55.6697 57.6632 54.8286 57.6632 53.9691C57.6644 50.4533 56.754 47.1471 55.1587 44.2539Z" fill="#FFC914"/>
<path opacity="0.7" d="M138.57 2.4812H139.366C139.907 2.4812 140.345 2.0543 140.345 1.52671C140.345 1.00027 139.907 0.572266 139.366 0.572266H97.2722C96.7307 0.572266 96.2925 0.999126 96.2925 1.52671C96.2925 2.0543 96.7307 2.4812 97.2722 2.4812H97.9735V29.711H96.2925V31.6382H97.9735H117.638V32.1395C117.004 32.3855 116.556 32.9875 116.556 33.6925C116.556 34.3975 117.004 34.9994 117.638 35.2455V35.6014H116.48C115.945 35.6014 115.51 36.0249 115.51 36.5467C115.51 36.6944 115.546 36.834 115.609 36.9587L110.687 43.529C110.56 43.6995 110.712 43.9124 111.031 44.0062C111.348 44.1001 111.709 44.0371 111.835 43.8666L116.611 37.4909H117.638V43.7487C117.638 43.9364 117.922 44.0886 118.272 44.0886C118.622 44.0886 118.906 43.9364 118.906 43.7487V37.4909H119.905L124.68 43.8666C124.807 44.0371 125.168 44.0989 125.485 44.0062C125.802 43.9135 125.956 43.6995 125.828 43.529L120.923 36.9805C120.993 36.85 121.033 36.7024 121.033 36.5456C121.033 36.0237 120.598 35.6003 120.062 35.6003H118.905V35.2443C119.538 34.9983 119.987 34.3963 119.987 33.6913C119.987 32.9864 119.538 32.3844 118.905 32.1383V31.637H138.569H140.344V29.7098H138.569V2.4812H138.57Z" fill="#808080"/>
<path d="M124.654 42.9557L119.75 36.4071C119.819 36.2767 119.859 36.1291 119.859 35.9723C119.859 35.4504 119.424 35.0269 118.889 35.0269H117.732V34.671C118.365 34.425 118.813 33.823 118.813 33.118C118.813 32.413 118.365 31.8111 117.732 31.565V30.5693C117.732 30.0692 117.447 29.6641 117.097 29.6641C116.747 29.6641 116.463 30.0692 116.463 30.5693V31.565C115.83 31.8111 115.381 32.413 115.381 33.118C115.381 33.823 115.83 34.425 116.463 34.671V35.0269H115.306C114.77 35.0269 114.335 35.4504 114.335 35.9723C114.335 36.1199 114.372 36.2595 114.434 36.3843L109.512 42.9545C109.385 43.125 109.538 43.3379 109.856 43.4317C110.173 43.5256 110.534 43.4627 110.661 43.2921L115.436 36.9164H116.463V43.1743C116.463 43.3619 116.747 43.5142 117.097 43.5142C117.447 43.5142 117.732 43.3619 117.732 43.1743V36.9164H118.73L123.505 43.2921C123.632 43.4627 123.993 43.5244 124.31 43.4317C124.627 43.3402 124.781 43.1262 124.654 42.9557Z" fill="#F7F7EE"/>
<path d="M137.395 1.90893H138.191C138.732 1.90893 139.17 1.48204 139.17 0.954449C139.17 0.42686 138.732 0 138.191 0H96.0974C95.5559 0 95.1177 0.42686 95.1177 0.954449C95.1177 1.48089 95.5559 1.90893 96.0974 1.90893H96.7987V29.1387H95.1177V31.0659H96.7987H137.395H139.17V29.1387H137.395V1.90893Z" fill="#F7F7EE"/>
<path opacity="0.7" d="M136.652 3.05176H98.1404V29.3866H136.652V3.05176Z" fill="#808080"/>
<path d="M136.353 2.80371H97.8418V29.1385H136.353V2.80371Z" fill="#4D6ABD"/>
<path d="M112.868 29.137C113.178 28.8177 113.291 28.3771 113.182 27.972C113.339 27.9525 113.492 27.8884 113.618 27.7763C113.87 27.552 113.938 27.2041 113.816 26.9122C114.029 26.7955 114.192 26.6066 114.271 26.3778C114.352 26.3984 114.436 26.411 114.523 26.411C115.072 26.411 115.517 25.9772 115.517 25.4428C115.517 25.3684 115.508 25.2974 115.491 25.2276C115.845 25.1498 116.109 24.8419 116.109 24.4734C116.109 24.2891 116.042 24.1198 115.932 23.987C116.08 23.9779 116.225 23.9275 116.351 23.8325C116.584 23.6563 116.684 23.3759 116.635 23.1115C116.731 23.107 116.825 23.076 116.906 23.0154C117.114 22.8586 117.151 22.5668 116.99 22.3642C116.829 22.1616 116.53 22.125 116.322 22.2818C116.231 22.3505 116.173 22.4443 116.149 22.545C115.909 22.458 115.63 22.4901 115.413 22.6537C115.242 22.7819 115.144 22.9662 115.121 23.1596C114.743 22.8403 114.174 22.814 113.763 23.1241C113.363 23.4274 113.244 23.9515 113.446 24.3819C113.279 24.3727 113.11 24.4185 112.968 24.5261C112.803 24.6508 112.711 24.8316 112.695 25.0193C112.568 25.017 112.442 25.0365 112.321 25.08C112.168 25.0972 112.019 25.1532 111.888 25.2516C111.699 25.3947 111.588 25.5984 111.559 25.8124C111.062 25.4702 110.376 25.4657 109.87 25.8479C109.34 26.2485 109.183 26.9431 109.451 27.5131C109.231 27.5005 109.006 27.5611 108.818 27.703C108.608 27.861 108.487 28.0864 108.459 28.3233C108.443 28.3371 108.426 28.3508 108.411 28.3645C108.379 28.392 108.35 28.4206 108.322 28.4504C108.006 28.3874 107.664 28.4549 107.389 28.6621C107.259 28.7605 107.156 28.8818 107.082 29.0157C106.597 28.6827 105.952 28.5923 105.365 28.8315C105.182 28.9058 105.025 29.0134 104.885 29.1336H112.868V29.137Z" fill="#F7EEDC"/>
<path d="M109.74 29.1373H114.707C114.705 28.8065 114.594 28.4826 114.36 28.2332C114.574 28.1805 114.766 28.0489 114.89 27.8498C114.974 27.7124 115.013 27.5614 115.012 27.4126C115.043 27.2902 115.047 27.1654 115.03 27.0452C115.218 27.0075 115.39 26.8976 115.497 26.7236C115.589 26.5737 115.616 26.4043 115.585 26.2464C116.046 26.3895 116.564 26.2121 116.823 25.7909C117.089 25.3583 116.995 24.8136 116.625 24.4874C116.818 24.4428 116.994 24.326 117.103 24.1464C117.244 23.9175 117.242 23.6451 117.125 23.4242C117.225 23.3899 117.313 23.3223 117.372 23.2262C117.507 23.0076 117.433 22.7238 117.209 22.5922C116.984 22.4606 116.693 22.5327 116.558 22.7513C116.505 22.836 116.485 22.9309 116.492 23.0236C116.218 23.0088 115.946 23.1381 115.794 23.383C115.713 23.5158 115.679 23.6623 115.687 23.8053C115.539 23.7149 115.36 23.6714 115.173 23.6932C114.799 23.7378 114.519 24.0285 114.482 24.3787C114.411 24.3718 114.337 24.3707 114.261 24.3798C113.719 24.4439 113.332 24.9246 113.398 25.4533C113.408 25.538 113.431 25.6181 113.461 25.6936C113.239 25.7978 113.067 25.9775 112.974 26.1961C112.664 26.1125 112.319 26.2201 112.121 26.4913C112.022 26.6264 111.975 26.7809 111.975 26.9354C111.523 26.8747 111.051 27.0544 110.768 27.4424C110.455 27.8693 110.462 28.4231 110.739 28.8363C110.384 28.8271 110.038 28.9404 109.74 29.1373Z" fill="#AFCED8"/>
<path d="M117.851 23.113C117.803 23.3773 117.903 23.6577 118.136 23.834C118.261 23.929 118.408 23.9793 118.555 23.9885C118.445 24.1212 118.378 24.2906 118.378 24.4749C118.378 24.8434 118.642 25.1501 118.995 25.229C118.979 25.2989 118.97 25.3698 118.97 25.4442C118.97 25.9787 119.415 26.4124 119.965 26.4124C120.052 26.4124 120.136 26.3998 120.217 26.3792C120.296 26.607 120.46 26.797 120.672 26.9137C120.55 27.2055 120.618 27.5523 120.87 27.7777C120.996 27.8899 121.15 27.954 121.306 27.9734C121.197 28.3774 121.31 28.818 121.62 29.1385H129.607C129.465 29.016 129.304 28.9107 129.119 28.8363C128.531 28.5972 127.887 28.6876 127.402 29.0206C127.328 28.8867 127.226 28.7654 127.095 28.667C126.82 28.4587 126.48 28.3923 126.164 28.4552C126.134 28.4255 126.105 28.3969 126.074 28.3694C126.058 28.3545 126.042 28.3419 126.025 28.3282C125.997 28.0913 125.876 27.8647 125.667 27.7079C125.479 27.566 125.253 27.5042 125.034 27.5179C125.301 26.948 125.144 26.2533 124.614 25.8528C124.109 25.4705 123.422 25.474 122.925 25.8173C122.897 25.6033 122.785 25.3996 122.597 25.2565C122.467 25.1581 122.318 25.102 122.165 25.0849C122.044 25.0414 121.917 25.0208 121.79 25.0242C121.775 24.8365 121.682 24.6557 121.518 24.5309C121.375 24.4234 121.205 24.3776 121.04 24.3867C121.242 23.9564 121.123 23.4311 120.722 23.129C120.311 22.8189 119.743 22.8452 119.364 23.1645C119.342 22.9711 119.243 22.7868 119.073 22.6586C118.856 22.495 118.576 22.4629 118.336 22.5499C118.313 22.4492 118.254 22.3542 118.164 22.2867C117.956 22.1299 117.656 22.1665 117.495 22.3691C117.334 22.5717 117.372 22.8635 117.58 23.0203C117.661 23.0775 117.756 23.1095 117.851 23.113Z" fill="#F7EEDC"/>
<path d="M117.151 23.4226C117.034 23.6435 117.033 23.9159 117.174 24.1447C117.284 24.3233 117.459 24.4412 117.652 24.4858C117.283 24.812 117.188 25.3567 117.453 25.7893C117.713 26.2116 118.231 26.3878 118.691 26.2448C118.662 26.4039 118.688 26.5733 118.779 26.722C118.886 26.896 119.059 27.0058 119.247 27.0436C119.229 27.1649 119.234 27.2897 119.265 27.411C119.263 27.5598 119.302 27.7108 119.387 27.8482C119.509 28.0473 119.703 28.1789 119.917 28.2316C119.683 28.4822 119.568 28.8049 119.566 29.1357H124.553C124.25 28.9354 123.898 28.8244 123.537 28.8324C123.814 28.4181 123.821 27.8653 123.509 27.4384C123.225 27.0505 122.754 26.8708 122.301 26.9315C122.301 26.7781 122.253 26.6225 122.156 26.4874C121.958 26.2173 121.614 26.1098 121.303 26.1922C121.21 25.9736 121.037 25.7939 120.815 25.6897C120.846 25.6142 120.868 25.5341 120.879 25.4494C120.944 24.9207 120.558 24.44 120.015 24.3759C119.94 24.3668 119.866 24.3679 119.794 24.3748C119.757 24.0246 119.477 23.7339 119.104 23.6892C118.917 23.6675 118.737 23.711 118.589 23.8014C118.597 23.6584 118.564 23.5107 118.482 23.3791C118.332 23.1342 118.058 23.0049 117.784 23.0198C117.791 22.9271 117.771 22.8332 117.719 22.7474C117.584 22.5288 117.293 22.4567 117.068 22.5883C116.843 22.7199 116.769 23.0026 116.905 23.2223C116.963 23.3207 117.051 23.3882 117.151 23.4226Z" fill="#AFCED8"/>
<path d="M116.895 25.3529C117.004 25.6974 117.343 25.9114 117.697 25.8862C117.648 25.9949 117.636 26.1197 117.675 26.2421C117.72 26.384 117.823 26.4916 117.951 26.55C117.917 26.6336 117.898 26.7228 117.898 26.8155C117.871 26.9219 117.873 27.0364 117.908 27.1474C117.959 27.3099 118.073 27.4369 118.217 27.5102C117.849 27.7528 117.67 28.2094 117.809 28.6455C117.875 28.8503 118.003 29.0174 118.164 29.1399H121.521C121.333 28.8355 121.033 28.6237 120.691 28.5505C120.962 28.3021 121.064 27.9085 120.917 27.5514C120.784 27.2275 120.48 27.0192 120.147 26.986C120.174 26.8762 120.168 26.7583 120.121 26.645C120.028 26.4184 119.801 26.2845 119.565 26.2913C119.538 26.1197 119.447 25.9629 119.307 25.8519C119.342 25.8027 119.373 25.75 119.395 25.6917C119.536 25.3255 119.346 24.918 118.97 24.7807C118.918 24.7612 118.865 24.7498 118.812 24.7429C118.848 24.4877 118.7 24.2325 118.441 24.1386C118.312 24.0917 118.176 24.0929 118.055 24.1318C118.086 24.0311 118.089 23.9201 118.053 23.8125C117.99 23.6122 117.818 23.4737 117.62 23.4382C117.641 23.3741 117.643 23.3032 117.621 23.2334C117.564 23.0549 117.369 22.9553 117.185 23.0102C117.002 23.0663 116.9 23.2563 116.956 23.4348C116.981 23.5126 117.033 23.5756 117.097 23.6168C116.975 23.7541 116.926 23.9487 116.984 24.1352C117.031 24.2817 117.135 24.395 117.265 24.4591C116.947 24.6273 116.782 24.9993 116.895 25.3529Z" fill="white"/>
<path d="M112.75 29.1377H116.104C116.266 29.0164 116.395 28.8493 116.46 28.6433C116.599 28.2084 116.42 27.7518 116.053 27.508C116.196 27.4348 116.31 27.3077 116.362 27.1452C116.397 27.0331 116.398 26.9186 116.371 26.8133C116.371 26.7218 116.352 26.6314 116.318 26.5478C116.446 26.4895 116.55 26.3819 116.594 26.2399C116.633 26.1175 116.622 25.9928 116.573 25.8841C116.927 25.9081 117.265 25.6952 117.375 25.3507C117.488 24.9971 117.324 24.6251 117.002 24.4546C117.132 24.3905 117.236 24.2772 117.283 24.1308C117.343 23.9442 117.293 23.7496 117.17 23.6123C117.234 23.5711 117.286 23.5082 117.311 23.4304C117.368 23.2518 117.265 23.0618 117.082 23.0058C116.898 22.9497 116.703 23.0504 116.646 23.2289C116.624 23.2987 116.626 23.3697 116.647 23.4338C116.449 23.4693 116.277 23.6077 116.214 23.808C116.18 23.9167 116.181 24.0266 116.212 24.1273C116.09 24.0873 115.955 24.0873 115.826 24.1342C115.568 24.228 115.42 24.4832 115.455 24.7385C115.402 24.7453 115.349 24.7579 115.297 24.7762C114.921 24.9135 114.731 25.321 114.872 25.6872C114.894 25.7456 114.925 25.7994 114.96 25.8474C114.82 25.9584 114.729 26.1164 114.702 26.2869C114.466 26.28 114.239 26.4151 114.146 26.6405C114.1 26.7527 114.093 26.8717 114.12 26.9816C113.787 27.0147 113.482 27.2219 113.35 27.5469C113.203 27.904 113.306 28.2977 113.576 28.546C113.236 28.6216 112.938 28.8344 112.75 29.1377Z" fill="white"/>
<path d="M115.548 28.5982C115.438 28.6737 115.355 28.787 115.321 28.9244C115.303 28.9965 115.302 29.0686 115.314 29.1384H118.957C118.967 29.0686 118.967 28.9965 118.95 28.9244C118.916 28.787 118.832 28.6737 118.723 28.5982C119.073 28.4265 119.27 28.0374 119.174 27.6495C119.082 27.2798 118.755 27.0269 118.383 27.0051C118.454 26.893 118.481 26.7545 118.447 26.616C118.423 26.521 118.374 26.4386 118.308 26.3734C118.267 26.307 118.215 26.2509 118.154 26.2052C118.22 26.1102 118.247 25.99 118.218 25.8698C118.192 25.7657 118.13 25.681 118.046 25.6238C118.268 25.5151 118.109 24.7346 117.871 24.4919L117.608 17.3506H116.662L116.399 24.4919C116.162 24.7346 116.002 25.5151 116.224 25.6238C116.142 25.681 116.079 25.7657 116.053 25.8698C116.023 25.99 116.05 26.1102 116.116 26.2052C116.055 26.2509 116.002 26.307 115.962 26.3734C115.896 26.4386 115.847 26.521 115.824 26.616C115.79 26.7545 115.817 26.893 115.887 27.0051C115.517 27.0269 115.188 27.2798 115.096 27.6495C115 28.0374 115.196 28.4265 115.548 28.5982Z" fill="#FFFF65"/>
<path d="M116.107 17.5995L115.613 15.623C111.376 16.2559 115.187 19.5771 115.187 19.5771C115.187 19.5771 115.317 19.7179 115.462 19.7304C115.68 19.7488 115.854 19.5451 115.613 19.2498C114.47 17.8501 116.107 17.5995 116.107 17.5995Z" fill="#FEBA28"/>
<path d="M118.675 15.623L118.181 17.5995C118.181 17.5995 119.818 17.8501 118.675 19.2486C118.434 19.5439 118.608 19.7465 118.826 19.7293C118.971 19.7178 119.101 19.5759 119.101 19.5759C119.101 19.5759 122.912 16.2559 118.675 15.623Z" fill="#FEBA28"/>
<path d="M117.138 7.80273C117.138 7.80273 116.17 8.23077 115.3 9.24932C115.794 9.51483 116.438 9.67618 117.143 9.67618C117.844 9.67618 118.485 9.51711 118.979 9.25274C118.107 8.2319 117.138 7.80273 117.138 7.80273Z" fill="#F95F23"/>
<path d="M117.143 9.67491C116.438 9.67491 115.794 9.51356 115.3 9.24805C114.314 10.3994 113.453 12.3071 114.256 15.2049H120.019C120.821 12.3106 119.962 10.4039 118.979 9.25147C118.486 9.51584 117.844 9.67491 117.143 9.67491Z" fill="white"/>
<path d="M114.382 15.6228H119.894C119.94 15.4809 119.981 15.3424 120.019 15.2051H114.257C114.295 15.3424 114.336 15.4821 114.382 15.6228Z" fill="#F95F23"/>
<path d="M114.382 15.6228H119.894C119.94 15.4809 119.981 15.3424 120.019 15.2051H114.257C114.295 15.3424 114.336 15.4821 114.382 15.6228Z" fill="url(#paint0_linear_1358_9750)"/>
<path d="M114.571 16.1639H119.704C119.759 16.0174 119.81 15.8743 119.857 15.7324H114.419C114.466 15.8743 114.516 16.0174 114.571 16.1639Z" fill="#66CCFF"/>
<path d="M114.89 16.1053C114.98 16.1053 115.053 16.0341 115.053 15.9462C115.053 15.8583 114.98 15.7871 114.89 15.7871C114.8 15.7871 114.728 15.8583 114.728 15.9462C114.728 16.0341 114.8 16.1053 114.89 16.1053Z" fill="#FFF12A"/>
<path d="M115.459 15.7861C115.369 15.7861 115.295 15.8571 115.295 15.9452C115.295 16.0333 115.369 16.1043 115.459 16.1043C115.549 16.1043 115.622 16.0333 115.622 15.9452C115.622 15.8571 115.549 15.7861 115.459 15.7861Z" fill="#FFF12A"/>
<path d="M116.028 16.1053C116.118 16.1053 116.191 16.0341 116.191 15.9462C116.191 15.8583 116.118 15.7871 116.028 15.7871C115.938 15.7871 115.865 15.8583 115.865 15.9462C115.865 16.0341 115.938 16.1053 116.028 16.1053Z" fill="#FFF12A"/>
<path d="M116.596 15.7861C116.506 15.7861 116.433 15.8571 116.433 15.9452C116.433 16.0333 116.506 16.1043 116.596 16.1043C116.687 16.1043 116.759 16.0333 116.759 15.9452C116.759 15.8571 116.687 15.7861 116.596 15.7861Z" fill="#FFF12A"/>
<path d="M117.696 16.1053C117.786 16.1053 117.859 16.0341 117.859 15.9462C117.859 15.8583 117.786 15.7871 117.696 15.7871C117.606 15.7871 117.533 15.8583 117.533 15.9462C117.533 16.0341 117.606 16.1053 117.696 16.1053Z" fill="#FFF12A"/>
<path d="M118.264 15.7861C118.174 15.7861 118.1 15.8571 118.1 15.9452C118.1 16.0333 118.173 16.1043 118.264 16.1043C118.355 16.1043 118.427 16.0333 118.427 15.9452C118.427 15.8571 118.355 15.7861 118.264 15.7861Z" fill="#FFF12A"/>
<path d="M118.832 16.1053C118.922 16.1053 118.995 16.0341 118.995 15.9462C118.995 15.8583 118.922 15.7871 118.832 15.7871C118.742 15.7871 118.669 15.8583 118.669 15.9462C118.669 16.0341 118.742 16.1053 118.832 16.1053Z" fill="#FFF12A"/>
<path d="M119.4 16.1053C119.49 16.1053 119.563 16.0341 119.563 15.9462C119.563 15.8583 119.49 15.7871 119.4 15.7871C119.31 15.7871 119.237 15.8583 119.237 15.9462C119.237 16.0341 119.31 16.1053 119.4 16.1053Z" fill="#FFF12A"/>
<path d="M114.419 15.7329H119.857C119.868 15.6963 119.882 15.6597 119.894 15.623H114.382C114.394 15.6597 114.407 15.6963 114.419 15.7329Z" fill="white"/>
<path d="M115.389 17.9379H117.138L117.139 16.1641H114.571C114.783 16.7226 115.052 17.3131 115.389 17.9379Z" fill="#F95F23"/>
<path d="M117.139 17.9379H118.887C119.224 17.3131 119.495 16.7226 119.705 16.1641H117.139V17.9379Z" fill="#F95F23"/>
<path d="M117.138 10.9453C116.14 10.9453 115.33 11.7338 115.33 12.7066C115.33 13.6794 116.14 14.4679 117.138 14.4679C118.137 14.4679 118.946 13.6794 118.946 12.7066C118.946 11.7338 118.137 10.9453 117.138 10.9453Z" fill="#1D6F82"/>
<path d="M117.138 10.5C115.887 10.5 114.873 11.4877 114.873 12.7065C114.873 13.9242 115.887 14.9118 117.138 14.9118C118.389 14.9118 119.403 13.9242 119.403 12.7065C119.402 11.4877 118.388 10.5 117.138 10.5ZM117.138 14.4678C116.14 14.4678 115.33 13.6793 115.33 12.7065C115.33 11.7337 116.14 10.9452 117.138 10.9452C118.137 10.9452 118.946 11.7337 118.946 12.7065C118.946 13.6793 118.137 14.4678 117.138 14.4678Z" fill="#FEBA28"/>
<path d="M117.139 15.8232C116.926 15.8232 116.796 16.0189 116.796 16.154C116.796 16.154 117 19.7304 117.139 19.7304C117.279 19.7304 117.482 16.154 117.482 16.154C117.482 16.0189 117.347 15.8232 117.139 15.8232Z" fill="#FEBA28"/>
<path d="M107.526 7.20573L106.685 7.18858L106.193 7.85349L105.951 7.0684L105.149 6.81777L105.841 6.35082L105.837 5.53027L106.508 6.02695L107.307 5.7706L107.029 6.54424L107.526 7.20573Z" fill="url(#paint1_linear_1358_9750)"/>
<path d="M102.839 15.1191L102.184 14.9669L101.682 15.4075L101.629 14.7517L101.044 14.4233L101.667 14.1715L101.807 13.5283L102.246 14.0273L102.917 13.9586L102.564 14.5194L102.839 15.1191Z" fill="url(#paint2_linear_1358_9750)"/>
<path d="M102.839 26.125L102.184 25.9728L101.682 26.4134L101.629 25.7576L101.044 25.4292L101.667 25.1774L101.807 24.5342L102.246 25.0332L102.917 24.9645L102.564 25.5253L102.839 26.125Z" fill="url(#paint3_linear_1358_9750)"/>
<path d="M122.392 6.69191L122.128 6.08651L121.468 5.95491L121.977 5.52459L121.902 4.87109L122.48 5.20987L123.094 4.93749L122.941 5.57837L123.397 6.06363L122.725 6.12084L122.392 6.69191Z" fill="url(#paint4_linear_1358_9750)"/>
<path d="M125.093 16.8787L125.185 16.2275L124.687 15.7846L125.351 15.6679L125.629 15.0693L125.948 15.6484L126.617 15.7217L126.151 16.1955L126.287 16.8398L125.68 16.5537L125.093 16.8787Z" fill="url(#paint5_linear_1358_9750)"/>
<path d="M130.95 23.9808L129.935 23.7553L129.17 24.4432L129.076 23.4326L128.168 22.9359L129.125 22.5365L129.33 21.542L130.016 22.3053L131.05 22.1886L130.516 23.0595L130.95 23.9808Z" fill="url(#paint6_linear_1358_9750)"/>
<path d="M108.036 21.1775L107.375 20.3947L106.338 20.4817L106.898 19.6268L106.493 18.6929L107.499 18.947L108.287 18.2832L108.349 19.2949L109.24 19.8179L108.272 20.1887L108.036 21.1775Z" fill="url(#paint7_linear_1358_9750)"/>
<path d="M132.095 10.5663L131.687 10.0844L131.05 10.1382L131.394 9.61178L131.144 9.03613L131.765 9.19292L132.249 8.7832L132.288 9.40694L132.838 9.72965L132.241 9.95856L132.095 10.5663Z" fill="url(#paint8_linear_1358_9750)"/>
<path opacity="0.7" d="M201.734 34.3057H189.553H180.443C175.168 34.3057 170.893 38.3707 170.893 43.3846V67.2703C170.893 72.2841 175.168 76.3491 180.443 76.3491H189.553H201.734C207.008 76.3491 211.283 72.2841 211.283 67.2703V43.3846C211.283 38.3707 207.008 34.3057 201.734 34.3057Z" fill="#808080"/>
<path d="M200.559 33.7334H188.378H179.268C173.993 33.7334 169.719 37.7985 169.719 42.8123V66.698C169.719 71.7118 173.993 75.7769 179.268 75.7769H188.378H200.559C205.834 75.7769 210.108 71.7118 210.108 66.698V42.8123C210.108 37.7985 205.834 33.7334 200.559 33.7334Z" fill="#FFC914"/>
<path d="M177.588 61.2949H173.318V70.0808H177.588V61.2949Z" fill="#66CC33"/>
<path d="M182.884 59.2744H178.614V70.0802H182.884V59.2744Z" fill="#DD2A59"/>
<path d="M189.377 55.2676H185.105V70.0801H189.377V55.2676Z" fill="#66CC33"/>
<path d="M194.672 58.2637H190.402V70.08H194.672V58.2637Z" fill="#DD2A59"/>
<path d="M201.165 55.9336H196.895V70.0801H201.165V55.9336Z" fill="#66CC33"/>
<path d="M206.463 48.9414H202.193V70.0804H206.463V48.9414Z" fill="#DD2A59"/>
<path d="M205.673 39.7021L204.503 40.16L204.793 40.3705L195.427 51.1317L183.712 47.3001L173.162 55.0698L173.472 55.4657L183.806 47.8552L195.594 51.7131L205.204 40.6681L205.502 40.8855L205.673 39.7021Z" fill="#66CC33"/>
<path opacity="0.7" d="M53.5884 124.555H36.1587C35.9155 124.094 35.3963 123.771 34.7937 123.771H32.1693C31.5667 123.771 31.0474 124.094 30.8031 124.555H13.3734C12.3197 124.555 11.4551 125.397 11.4551 126.424V155.001C11.4551 156.03 12.3197 156.87 13.3734 156.87H53.5895C54.6444 156.87 55.5079 156.029 55.5079 155.001V126.424C55.5067 125.395 54.6444 124.555 53.5884 124.555ZM33.4803 124.323C33.707 124.323 33.9126 124.412 34.063 124.555H32.8976C33.048 124.411 33.2536 124.323 33.4803 124.323Z" fill="#808080"/>
<path d="M54.3319 154.429C54.3319 155.458 53.4685 156.298 52.4135 156.298H12.1986C11.1449 156.298 10.2803 155.457 10.2803 154.429V125.852C10.2803 124.825 11.1449 123.983 12.1986 123.983H52.4147C53.4696 123.983 54.3331 124.825 54.3331 125.852L54.3319 154.429Z" fill="#37354D"/>
<path opacity="0.4" d="M52.6908 153.352C52.6908 153.96 52.1798 154.458 51.556 154.458H13.0562C12.4324 154.458 11.9214 153.96 11.9214 153.352V128.889C11.9214 128.28 12.4324 127.783 13.0562 127.783H51.556C52.1798 127.783 52.6908 128.28 52.6908 128.889V153.352Z" fill="#37354D"/>
<path d="M52.6908 152.822C52.6908 153.429 52.1798 153.928 51.556 153.928H13.0562C12.4324 153.928 11.9214 153.429 11.9214 152.822V128.358C11.9214 127.75 12.4324 127.253 13.0562 127.253H51.556C52.1798 127.253 52.6908 127.75 52.6908 128.358V152.822Z" fill="white"/>
<path opacity="0.5" d="M49.8528 131.566V131.458H13.4546V131.646H16.3268V134.426H13.4546V134.613H16.3268V137.392H13.4546V137.58H16.3268V140.359H13.4546V140.547H16.3268V143.328H13.4546V143.515H16.3268V146.293H13.4546V146.482H16.3268V149.262H13.4546V149.449H16.3268V152.204H16.5207V149.449H19.3741V152.204H19.5668V149.449H22.4202V152.204H22.6129V149.449H25.4651V152.204H25.659V149.449H28.5124V152.204H28.7039V149.449H31.5574V152.204H31.7512V149.449H34.6035V152.204H34.7949V149.449H37.6507V152.204H37.8422V149.449H40.6945V152.204H40.8872V149.449H43.7394V152.204H43.9321V149.449H46.7855V152.204H46.9782V149.449H49.7553V152.204H49.9479V131.564H49.8528V131.566ZM28.7051 137.58H31.5585V140.359H28.7051V137.58ZM28.5124 140.359H25.659V137.58H28.5124V140.359ZM31.7512 137.58H34.6035V140.359H31.7512V137.58ZM34.7949 137.58H37.6507V140.359H34.7949V137.58ZM37.8422 137.58H40.6945V140.359H37.8422V137.58ZM40.8883 137.58H43.7406V140.359H40.8883V137.58ZM40.8883 137.392V134.613H43.7406V137.392H40.8883ZM40.6957 137.392H37.8434V134.613H40.6957V137.392ZM37.6507 137.392H34.7949V134.613H37.6507V137.392ZM34.6035 137.392H31.7512V134.613H34.6035V137.392ZM31.5585 137.392H28.7051V134.613H31.5585V137.392ZM28.5124 137.392H25.659V134.613H28.5124V137.392ZM25.4651 137.392H22.6129V134.613H25.4651V137.392ZM25.4651 137.58V140.359H22.6129V137.58H25.4651ZM25.4651 140.547V143.328H22.6129V140.547H25.4651ZM25.659 140.547H28.5124V143.328H25.659V140.547ZM28.7051 140.547H31.5585V143.328H28.7051V140.547ZM31.7512 140.547H34.6035V143.328H31.7512V140.547ZM34.7949 140.547H37.6507V143.328H34.7949V140.547ZM37.8422 140.547H40.6945V143.328H37.8422V140.547ZM40.8883 140.547H43.7406V143.328H40.8883V140.547ZM43.9344 140.547H46.7879V143.328H43.9344V140.547ZM43.9344 140.359V137.58H46.7879V140.359H43.9344ZM43.9344 137.392V134.613H46.7879V137.392H43.9344ZM43.9344 134.426V131.646H46.7879V134.426H43.9344ZM43.7418 134.426H40.8895V131.646H43.7418V134.426ZM40.6957 134.426H37.8434V131.646H40.6957V134.426ZM37.6507 134.426H34.7949V131.646H37.6507V134.426ZM34.6035 134.426H31.7512V131.646H34.6035V134.426ZM31.5585 134.426H28.7051V131.646H31.5585V134.426ZM28.5124 134.426H25.659V131.646H28.5124V134.426ZM25.4651 134.426H22.6129V131.646H25.4651V134.426ZM22.4202 134.426H19.5668V131.646H22.4202V134.426ZM22.4202 134.613V137.392H19.5668V134.613H22.4202ZM22.4202 137.58V140.359H19.5668V137.58H22.4202ZM22.4202 140.547V143.328H19.5668V140.547H22.4202ZM22.4202 143.515V146.293H19.5668V143.515H22.4202ZM22.6129 143.515H25.4651V146.293H22.6129V143.515ZM25.659 143.515H28.5124V146.293H25.659V143.515ZM28.7051 143.515H31.5585V146.293H28.7051V143.515ZM31.7512 143.515H34.6035V146.293H31.7512V143.515ZM34.7949 143.515H37.6507V146.293H34.7949V143.515ZM37.8422 143.515H40.6945V146.293H37.8422V143.515ZM40.8883 143.515H43.7406V146.293H40.8883V143.515ZM43.9344 143.515H46.7879V146.293H43.9344V143.515ZM46.9805 143.515H49.7576V146.293H46.9805V143.515ZM46.9805 143.328V140.547H49.7576V143.328H46.9805ZM46.9805 140.359V137.58H49.7576V140.359H46.9805ZM46.9805 137.392V134.613H49.7576V137.392H46.9805ZM46.9805 134.426V131.646H49.7576V134.426H46.9805ZM16.5207 131.646H19.3741V134.426H16.5207V131.646ZM16.5207 134.613H19.3741V137.392H16.5207V134.613ZM16.5207 137.58H19.3741V140.359H16.5207V137.58ZM16.5207 140.547H19.3741V143.328H16.5207V140.547ZM16.5207 143.515H19.3741V146.293H16.5207V143.515ZM16.5207 149.263V146.483H19.3741V149.263H16.5207ZM19.5668 149.263V146.483H22.4202V149.263H19.5668ZM22.6129 149.263V146.483H25.4651V149.263H22.6129ZM25.659 149.263V146.483H28.5124V149.263H25.659ZM28.7051 149.263V146.483H31.5585V149.263H28.7051ZM31.7512 149.263V146.483H34.6035V149.263H31.7512ZM34.7949 149.263V146.483H37.6507V149.263H34.7949ZM37.8422 149.263V146.483H40.6945V149.263H37.8422ZM40.8883 149.263V146.483H43.7406V149.263H40.8883ZM43.9344 149.263V146.483H46.7879V149.263H43.9344ZM46.9805 149.263V146.483H49.7576V149.263H46.9805Z" fill="#BEC3C7"/>
<path opacity="0.5" d="M27.5606 126.26C27.4737 126.372 27.4126 126.504 27.4126 126.653V128.642C27.4126 129.008 27.7192 129.306 28.0939 129.306H36.518C36.8916 129.306 37.1982 129.008 37.1982 128.642V126.653C37.1982 126.504 37.1371 126.372 37.0502 126.26H27.5606Z" fill="#BEC3C7"/>
<path d="M36.5195 125.595H35.1333C35.1333 125.344 35.1333 124.973 35.1333 124.56C35.1333 123.811 34.4519 123.199 33.619 123.199H30.9947C30.1618 123.199 29.4793 123.811 29.4793 124.56C29.4793 124.973 29.4793 125.344 29.4793 125.595H28.0954C27.7207 125.595 27.4141 125.893 27.4141 126.257V128.246C27.4141 128.611 27.7207 128.91 28.0954 128.91H36.5195C36.8931 128.91 37.1997 128.611 37.1997 128.246V126.257C37.1985 125.892 36.8931 125.595 36.5195 125.595ZM32.3057 123.751C32.765 123.751 33.1374 124.114 33.1374 124.56C33.1374 125.009 32.765 125.37 32.3057 125.37C31.8464 125.37 31.474 125.009 31.474 124.56C31.474 124.112 31.8464 123.751 32.3057 123.751Z" fill="#FBB040"/>
<path d="M14.0255 152.367L13.3594 152L17.384 145.573L24.9071 142.948L32.6686 133.871L40.409 131.087L40.6886 131.761L33.142 134.476L25.3782 143.555L17.9127 146.16L14.0255 152.367Z" fill="#F84C3C"/>
<path d="M13.4688 152.249L25.5639 144.908H29.4734L37.5486 134.648L45.3606 138.176L44.9976 138.881L37.8106 135.635L29.8963 145.691H25.8118L14.8138 152.364L13.4688 152.249Z" fill="#61E5FF"/>
<path d="M13.5517 152.178V131.458H13.3579V152.178V152.272V152.365H49.9417V152.178H13.5517Z" fill="#ED1C24"/>
<g opacity="0.7">
<path d="M101.718 134.69L101.699 134.684L96.7169 132.685L95.4023 131.259H95.3236V130.303C95.7242 129.958 96.0543 129.489 96.2153 129.142C96.2317 129.106 96.2481 129.065 96.2646 129.021C96.2658 129.028 96.2693 129.044 96.2693 129.044L96.3292 129.09C96.3433 129.103 96.3656 129.108 96.3962 129.112C96.6558 129.112 97.1398 128.383 97.1973 127.608C97.2573 126.727 97.2385 126.226 97.141 126.125C97.1304 126.113 97.1257 126.113 97.1198 126.113C97.0705 126.113 97.0059 126.148 96.9377 126.207C96.9483 126.028 96.9366 125.858 96.9366 125.709C96.9366 123.491 95.2672 121.692 93.2173 121.692C91.1674 121.692 89.4981 123.491 89.4981 125.709C89.4981 125.856 89.4863 126.021 89.4957 126.193C89.4323 126.142 89.3736 126.112 89.3289 126.112C89.3219 126.112 89.3148 126.112 89.3066 126.124C89.2067 126.224 89.1903 126.726 89.2526 127.607C89.3101 128.382 89.7906 129.111 90.0596 129.111C90.0843 129.107 90.1043 129.101 90.1195 129.089L90.1771 129.043C90.1771 129.043 90.1818 129.025 90.1853 129.011C90.1947 129.034 90.2053 129.058 90.2147 129.077C90.3827 129.423 90.7316 129.892 91.1521 130.244V131.258H91.1004L89.8975 132.684L84.9013 134.689L84.193 139.264C83.6056 140.038 83.2532 140.987 83.2532 142.014C83.2532 140.99 82.9031 140.044 82.3181 139.271L81.6109 134.69L81.5921 134.684L76.61 132.685L75.2955 131.259H75.2144V130.304C75.615 129.959 75.9451 129.491 76.106 129.142C76.1225 129.106 76.1389 129.065 76.1565 129.02C76.1589 129.028 76.1624 129.045 76.1624 129.045L76.2212 129.091C76.2364 129.104 76.2599 129.11 76.2893 129.113C76.5489 129.113 77.0329 128.384 77.0893 127.609C77.1504 126.728 77.1304 126.227 77.0341 126.126C77.0235 126.115 77.0188 126.114 77.0129 126.114C76.9636 126.114 76.899 126.15 76.8297 126.209C76.8402 126.03 76.8285 125.859 76.8285 125.711C76.8285 123.493 75.1592 121.694 73.1093 121.694C71.0617 121.694 69.3924 123.493 69.3924 125.711C69.3924 125.858 69.3806 126.022 69.3889 126.196C69.3254 126.143 69.2667 126.114 69.2197 126.114C69.2126 126.114 69.2056 126.115 69.1986 126.126C69.0987 126.227 69.0823 126.728 69.1433 127.609C69.2009 128.384 69.6837 129.113 69.9516 129.113C69.9774 129.11 69.9962 129.104 70.0115 129.091L70.0702 129.045C70.0702 129.045 70.0749 129.027 70.0784 129.016C70.0878 129.037 70.0972 129.06 70.1066 129.08C70.2758 129.425 70.6247 129.895 71.0452 130.245V131.259H70.9936L69.7906 132.685L64.7933 134.69L64.0849 139.268C63.4987 140.041 63.1475 140.989 63.1475 142.014V147.481C63.1475 150.059 65.3348 152.164 68.0074 152.164H78.3909C81.0658 152.164 83.2543 150.059 83.2543 147.481C83.2543 150.059 85.4429 152.164 88.1142 152.164H98.5001C101.174 152.164 103.364 150.059 103.364 147.481V142.014C103.364 140.99 103.012 140.042 102.426 139.269L101.718 134.69Z" fill="#808080"/>
<path d="M121.827 134.69L121.807 134.684L116.826 132.684L115.51 131.258H115.432V130.303C115.832 129.958 116.161 129.49 116.322 129.142C116.339 129.107 116.355 129.066 116.371 129.022C116.373 129.03 116.377 129.046 116.377 129.046L116.438 129.092C116.452 129.105 116.475 129.11 116.504 129.114C116.765 129.114 117.249 128.385 117.305 127.61C117.365 126.729 117.346 126.227 117.25 126.127C117.24 126.115 117.235 126.115 117.229 126.115C117.18 126.115 117.115 126.151 117.046 126.21C117.057 126.031 117.045 125.86 117.045 125.711C117.045 123.493 115.375 121.694 113.325 121.694C111.277 121.694 109.607 123.493 109.607 125.711C109.607 125.859 109.595 126.023 109.605 126.197C109.541 126.144 109.483 126.115 109.437 126.115C109.43 126.115 109.422 126.115 109.415 126.127C109.315 126.227 109.299 126.729 109.361 127.61C109.417 128.385 109.9 129.114 110.169 129.114C110.193 129.11 110.212 129.105 110.229 129.092L110.286 129.046C110.286 129.046 110.291 129.028 110.294 129.015C110.304 129.037 110.313 129.061 110.323 129.081C110.492 129.426 110.841 129.895 111.261 130.247V131.261H111.208L110.005 132.687L105.008 134.692L104.3 139.27C103.714 140.043 103.362 140.991 103.362 142.016V147.483C103.362 150.061 105.55 152.166 108.221 152.166H118.606C121.281 152.166 123.468 150.061 123.468 147.483V142.016C123.468 140.993 123.118 140.047 122.533 139.274L121.827 134.69Z" fill="#808080"/>
<path d="M162.75 139.271L162.043 134.69L162.024 134.684L157.042 132.684L155.728 131.258H155.648V130.303C156.048 129.957 156.379 129.489 156.538 129.141C156.555 129.105 156.572 129.063 156.589 129.019C156.591 129.028 156.595 129.045 156.595 129.045L156.653 129.091C156.669 129.103 156.691 129.109 156.72 129.113C156.981 129.113 157.465 128.384 157.52 127.609C157.583 126.728 157.564 126.226 157.466 126.126C157.456 126.114 157.45 126.114 157.445 126.114C157.396 126.114 157.332 126.15 157.263 126.209C157.275 126.03 157.263 125.86 157.263 125.711C157.263 123.493 155.594 121.694 153.543 121.694C151.494 121.694 149.825 123.493 149.825 125.711C149.825 125.858 149.813 126.023 149.821 126.197C149.758 126.144 149.699 126.115 149.653 126.115C149.646 126.115 149.639 126.115 149.632 126.127C149.531 126.227 149.516 126.729 149.576 127.61C149.634 128.385 150.116 129.114 150.385 129.114C150.41 129.11 150.428 129.105 150.444 129.092L150.502 129.046C150.502 129.046 150.507 129.028 150.511 129.017C150.52 129.038 150.529 129.061 150.539 129.081C150.708 129.427 151.057 129.895 151.479 130.247V131.26H151.426L150.223 132.686L145.226 134.691L144.518 139.264C143.931 140.035 143.579 140.982 143.576 142.006C143.574 140.985 143.225 140.042 142.641 139.272L141.934 134.691L141.915 134.685L136.934 132.686L135.619 131.26H135.539V130.304C135.939 129.958 136.269 129.49 136.43 129.142C136.447 129.107 136.463 129.066 136.481 129.021C136.483 129.029 136.487 129.046 136.487 129.046L136.547 129.092C136.562 129.105 136.583 129.11 136.612 129.114C136.873 129.114 137.357 128.385 137.414 127.61C137.475 126.729 137.456 126.227 137.359 126.127C137.349 126.115 137.344 126.115 137.338 126.115C137.288 126.115 137.223 126.151 137.154 126.21C137.166 126.031 137.154 125.861 137.154 125.711C137.154 123.493 135.485 121.694 133.435 121.694C131.386 121.694 129.717 123.493 129.717 125.711C129.717 125.859 129.705 126.023 129.714 126.197C129.651 126.144 129.591 126.115 129.545 126.115C129.538 126.115 129.531 126.115 129.524 126.127C129.424 126.227 129.409 126.729 129.469 127.61C129.526 128.385 130.009 129.114 130.277 129.114C130.302 129.11 130.32 129.105 130.337 129.092L130.396 129.046C130.396 129.046 130.4 129.028 130.404 129.017C130.413 129.038 130.423 129.061 130.432 129.081C130.601 129.427 130.95 129.897 131.372 130.247V131.26H131.318L130.116 132.686L125.119 134.691L124.41 139.266C123.823 140.04 123.472 140.989 123.472 142.016V147.483C123.472 150.061 125.657 152.166 128.329 152.166H128.333H138.719H138.722C139.974 152.166 141.116 151.699 141.98 150.943C142.957 150.087 143.576 148.858 143.58 147.492C143.586 150.065 145.771 152.166 148.442 152.166H158.827C161.502 152.166 163.691 150.061 163.691 147.483V142.016C163.685 140.99 163.335 140.043 162.75 139.271Z" fill="#808080"/>
</g>
<path d="M142.401 146.91C142.401 149.487 144.59 151.593 147.264 151.593H157.647C160.322 151.593 162.508 149.487 162.508 146.91V141.442C162.508 138.867 160.322 136.762 157.647 136.762H147.264C144.59 136.762 142.401 138.867 142.401 141.442V146.91Z" fill="#A6624E"/>
<path d="M122.294 146.91C122.294 149.487 124.479 151.593 127.152 151.593H137.544C140.215 151.593 142.401 149.487 142.401 146.91V141.442C142.401 138.867 140.216 136.762 137.544 136.762H127.152C124.481 136.762 122.294 138.867 122.294 141.442V146.91Z" fill="#A6624E"/>
<path d="M82.0771 146.91C82.0771 149.487 84.2657 151.593 86.9371 151.593H97.3241C99.9978 151.593 102.186 149.487 102.186 146.91V141.442C102.186 138.867 99.9978 136.762 97.3241 136.762H86.9371C84.2657 136.762 82.0771 138.867 82.0771 141.442V146.91Z" fill="#A6624E"/>
<path d="M74.0395 129.485H69.8691V131.315H74.0395V129.485Z" fill="#CD967F"/>
<path d="M68.5609 126.042C68.5574 126.033 68.5539 126.029 68.5503 126.019L68.5574 126.042L68.407 125.835C68.2731 125.65 68.1368 125.541 68.0452 125.541C68.0382 125.541 68.0311 125.541 68.0241 125.552C67.9242 125.653 67.9078 126.154 67.9688 127.036C68.0264 127.81 68.5092 128.539 68.7771 128.539C68.8029 128.536 68.8217 128.53 68.837 128.518L68.8957 128.472C68.8957 128.473 69.1859 127.368 68.5609 126.042Z" fill="#EFBB9A"/>
<path d="M74.9877 128.473L75.0464 128.519C75.0617 128.531 75.0852 128.537 75.1145 128.54C75.3742 128.54 75.8582 127.811 75.9145 127.037C75.9756 126.155 75.9557 125.654 75.8593 125.553C75.8488 125.542 75.8441 125.542 75.8382 125.542C75.7466 125.542 75.6091 125.652 75.4764 125.836L75.3225 126.043C74.6975 127.367 74.9877 128.473 74.9877 128.473Z" fill="#EFBB9A"/>
<path d="M80.435 134.117L80.4162 134.112L75.4353 132.112H68.6147L63.6174 134.117L62.3745 142.147H81.6743L80.435 134.117Z" fill="#BAD3CB"/>
<path d="M74.9314 128.569C75.2134 127.958 75.6057 125.951 75.6057 125.951C75.6915 125.653 75.6539 125.371 75.6539 125.136C75.6539 122.918 73.9846 121.119 71.9347 121.119C69.8871 121.119 68.2178 122.918 68.2178 125.136C68.2178 125.373 68.1778 125.653 68.2636 125.951C68.2636 125.951 68.636 127.901 68.9309 128.507C69.1752 129.008 69.7943 129.772 70.4698 130.052C71.2286 130.366 72.7499 130.413 73.5029 130.085C74.1361 129.809 74.7024 129.065 74.9314 128.569Z" fill="#E4AD3E"/>
<path d="M74.1208 130.687H69.8177L68.6147 132.113H75.4353L74.1208 130.687Z" fill="#D6F1E5"/>
<path d="M61.9702 146.91C61.9702 149.487 64.1576 151.593 66.8301 151.593H77.2137C79.8886 151.593 82.0771 149.487 82.0771 146.91V141.442C82.0771 138.867 79.8886 136.762 77.2137 136.762H66.8301C64.1576 136.762 61.9702 138.867 61.9702 141.442V146.91Z" fill="#A6624E"/>
<path d="M94.1474 129.485H89.9771V131.315H94.1474V129.485Z" fill="#CD967F"/>
<path d="M88.6686 126.042C88.665 126.033 88.6615 126.029 88.658 126.019L88.665 126.042L88.5147 125.835C88.3819 125.65 88.2445 125.541 88.154 125.541C88.147 125.541 88.1399 125.541 88.1317 125.552C88.0319 125.653 88.0154 126.154 88.0777 127.036C88.1352 127.81 88.6157 128.539 88.8847 128.539C88.9094 128.536 88.9294 128.53 88.9446 128.518L89.0022 128.472C89.0022 128.473 89.2935 127.368 88.6686 126.042Z" fill="#EFBB9A"/>
<path d="M95.0941 128.473L95.154 128.519C95.1692 128.531 95.1904 128.537 95.2209 128.54C95.4805 128.54 95.9645 127.811 96.0221 127.037C96.082 126.155 96.0632 125.654 95.9657 125.553C95.9551 125.542 95.9504 125.542 95.9446 125.542C95.8529 125.542 95.7167 125.652 95.5816 125.836L95.43 126.043C94.8051 127.367 95.0941 128.473 95.0941 128.473Z" fill="#EFBB9A"/>
<path d="M100.543 134.117L100.524 134.112L95.543 132.112H88.7224L83.7263 134.117L82.4834 142.147H101.782L100.543 134.117Z" fill="#BAD3CB"/>
<path d="M95.04 128.569C95.322 127.958 95.7143 125.951 95.7143 125.951C95.8001 125.653 95.7625 125.371 95.7625 125.136C95.7625 122.918 94.0932 121.119 92.0433 121.119C89.9934 121.119 88.324 122.918 88.324 125.136C88.324 125.373 88.2853 125.653 88.3722 125.951C88.3722 125.951 88.7446 127.901 89.0395 128.507C89.2826 129.008 89.9005 129.772 90.576 130.052C91.3361 130.366 92.8562 130.413 93.6104 130.085C94.2436 129.809 94.8098 129.065 95.04 128.569Z" fill="#F7F7EE"/>
<path d="M94.2275 130.687H89.9256L88.7227 132.113H95.5432L94.2275 130.687Z" fill="#D6F1E5"/>
<path d="M82.0796 146.91C82.0796 149.487 84.2658 151.593 86.9371 151.593H97.323C99.9979 151.593 102.185 149.487 102.185 146.91V141.442C102.185 138.867 99.9979 136.762 97.323 136.762H86.9371C84.2658 136.762 82.0796 138.867 82.0796 141.442V146.91Z" fill="#A6624E"/>
<path d="M114.257 129.485H110.086V131.315H114.257V129.485Z" fill="#CD967F"/>
<path d="M108.778 126.042C108.774 126.033 108.771 126.029 108.767 126.019L108.774 126.042L108.624 125.835C108.49 125.65 108.352 125.541 108.262 125.541C108.255 125.541 108.247 125.541 108.24 125.552C108.14 125.653 108.124 126.154 108.186 127.036C108.242 127.81 108.725 128.539 108.994 128.539C109.018 128.536 109.037 128.53 109.054 128.518L109.111 128.472C109.111 128.473 109.401 127.368 108.778 126.042Z" fill="#EFBB9A"/>
<path d="M115.203 128.473L115.264 128.519C115.278 128.531 115.3 128.537 115.329 128.54C115.59 128.54 116.074 127.811 116.131 127.037C116.19 126.155 116.172 125.654 116.075 125.553C116.065 125.542 116.06 125.542 116.054 125.542C115.963 125.542 115.825 125.652 115.691 125.836L115.538 126.043C114.915 127.367 115.203 128.473 115.203 128.473Z" fill="#EFBB9A"/>
<path d="M120.652 134.117L120.632 134.112L115.651 132.112H108.831L103.833 134.117L102.592 142.147H121.891L120.652 134.117Z" fill="#BAD3CB"/>
<path d="M115.148 128.569C115.429 127.958 115.821 125.951 115.821 125.951C115.908 125.653 115.871 125.371 115.871 125.136C115.871 122.918 114.202 121.119 112.152 121.119C110.103 121.119 108.434 122.918 108.434 125.136C108.434 125.373 108.395 125.653 108.481 125.951C108.481 125.951 108.852 127.901 109.148 128.507C109.392 129.008 110.01 129.772 110.686 130.052C111.446 130.366 112.966 130.413 113.72 130.085C114.352 129.809 114.919 129.065 115.148 128.569Z" fill="#EB8D2F"/>
<path d="M114.335 130.687H110.033L108.831 132.113H115.651L114.335 130.687Z" fill="#D6F1E5"/>
<path d="M102.188 146.91C102.188 149.487 104.375 151.593 107.046 151.593H117.431C120.106 151.593 122.293 149.487 122.293 146.91V141.442C122.293 138.867 120.106 136.762 117.431 136.762H107.046C104.375 136.762 102.188 138.867 102.188 141.442V146.91Z" fill="#A6624E"/>
<path d="M134.365 129.485H130.196V131.315H134.365V129.485Z" fill="#CD967F"/>
<path d="M128.887 126.042C128.882 126.033 128.879 126.029 128.875 126.019L128.882 126.042L128.732 125.835C128.599 125.65 128.461 125.541 128.37 125.541C128.363 125.541 128.356 125.541 128.349 125.552C128.249 125.653 128.234 126.154 128.294 127.036C128.351 127.81 128.834 128.539 129.102 128.539C129.127 128.536 129.145 128.53 129.162 128.518L129.221 128.472C129.221 128.473 129.511 127.368 128.887 126.042Z" fill="#EFBB9A"/>
<path d="M135.312 128.473L135.372 128.519C135.387 128.531 135.408 128.537 135.437 128.54C135.698 128.54 136.182 127.811 136.239 127.037C136.3 126.155 136.281 125.654 136.185 125.553C136.174 125.542 136.169 125.542 136.163 125.542C136.071 125.542 135.933 125.652 135.8 125.836L135.647 126.043C135.023 127.367 135.312 128.473 135.312 128.473Z" fill="#EFBB9A"/>
<path d="M140.759 134.117L140.74 134.112L135.759 132.112H128.94L123.943 134.117L122.7 142.147H142L140.759 134.117Z" fill="#BAD3CB"/>
<path d="M135.256 128.569C135.538 127.958 135.931 125.951 135.931 125.951C136.016 125.653 135.98 125.371 135.98 125.136C135.98 122.918 134.311 121.119 132.261 121.119C130.212 121.119 128.543 122.918 128.543 125.136C128.543 125.373 128.504 125.653 128.589 125.951C128.589 125.951 128.961 127.901 129.256 128.507C129.501 129.008 130.118 129.772 130.794 130.052C131.555 130.366 133.074 130.413 133.828 130.085C134.46 129.809 135.027 129.065 135.256 128.569Z" fill="#917D5E"/>
<path d="M134.444 130.687H130.142L128.94 132.113H135.759L134.444 130.687Z" fill="#D6F1E5"/>
<path d="M122.296 146.91C122.296 149.487 124.483 151.593 127.154 151.593H137.54C140.215 151.593 142.401 149.487 142.401 146.91V141.442C142.401 138.867 140.215 136.762 137.54 136.762H127.154C124.483 136.762 122.296 138.867 122.296 141.442V146.91Z" fill="#A6624E"/>
<path d="M154.474 129.485H150.304V131.315H154.474V129.485Z" fill="#CD967F"/>
<path d="M148.994 126.042C148.99 126.033 148.987 126.029 148.983 126.019L148.99 126.042L148.841 125.835C148.706 125.65 148.57 125.541 148.479 125.541C148.472 125.541 148.465 125.541 148.458 125.552C148.357 125.653 148.342 126.154 148.402 127.036C148.46 127.81 148.942 128.539 149.211 128.539C149.236 128.536 149.254 128.53 149.27 128.518L149.328 128.472V128.475L149.33 128.472C149.33 128.472 149.619 127.368 148.994 126.042Z" fill="#EFBB9A"/>
<path d="M155.421 128.473L155.48 128.519C155.495 128.531 155.517 128.537 155.547 128.54C155.807 128.54 156.291 127.811 156.347 127.037C156.409 126.155 156.39 125.654 156.293 125.553C156.282 125.542 156.276 125.542 156.271 125.542C156.18 125.542 156.044 125.652 155.91 125.836L155.757 126.043C155.131 127.367 155.421 128.473 155.421 128.473Z" fill="#EFBB9A"/>
<path d="M160.868 134.117L160.849 134.112L155.867 132.112H149.048L144.05 134.117L142.808 142.147H162.109L160.868 134.117Z" fill="#BAD3CB"/>
<path d="M155.364 128.569C155.646 127.958 156.039 125.951 156.039 125.951C156.126 125.653 156.089 125.371 156.089 125.136C156.089 122.918 154.42 121.119 152.369 121.119C150.32 121.119 148.651 122.918 148.651 125.136C148.651 125.373 148.612 125.653 148.697 125.951C148.697 125.951 149.069 127.901 149.364 128.507C149.609 129.008 150.227 129.772 150.903 130.052C151.662 130.366 153.183 130.413 153.937 130.085C154.569 129.809 155.136 129.065 155.364 128.569Z" fill="#FBCC24"/>
<path d="M154.553 130.687H150.251L149.048 132.113H155.867L154.553 130.687Z" fill="#D6F1E5"/>
<path d="M142.404 146.91C142.404 149.487 144.591 151.593 147.263 151.593H157.647C160.322 151.593 162.51 149.487 162.51 146.91V141.442C162.51 138.867 160.323 136.762 157.647 136.762H147.263C144.591 136.762 142.404 138.867 142.404 141.442V146.91Z" fill="#A6624E"/>
<path d="M162.105 112.521H61.9702V117.022H162.105V112.521Z" fill="#A6624E"/>
<path opacity="0.7" d="M156.664 75.1228L156.662 75.1194C156.494 74.8859 156.273 74.6948 156.02 74.5506L153.781 72.565L152.805 71.6002L152.05 70.5061V69.0698C152.192 68.9245 152.329 68.7677 152.465 68.6052C153.126 68.2149 155.563 65.7212 154.151 62.907C152.671 59.9543 149.342 60.5334 148.481 60.6868C146.929 60.9672 145.715 63.2217 146.117 63.3053C146.049 63.4495 145.989 63.5983 145.947 63.755C145.806 64.2586 145.726 65.4213 145.724 65.4889C145.792 67.8739 146.509 69.9362 148.424 70.4088L148.457 70.418C148.495 70.4271 148.532 70.4306 148.569 70.4386V70.8437L147.818 71.599L146.985 72.1255L146.035 72.7263L140.947 76.6861L134.386 75.9331L134.351 76.2283L134.164 76.2066C134.145 76.1894 134.136 76.1688 134.114 76.1539C133.476 75.7088 132.736 75.4009 131.997 75.1526C131.374 74.942 131.109 75.9022 131.725 76.1082C131.813 76.1379 131.899 76.1711 131.986 76.2032C130.889 76.4366 129.704 77.0157 129.57 77.8191C129.385 78.9647 130.168 79.3195 131.324 79.4499L133.881 79.7223L134.164 77.7676L133.881 80.1057L140.825 80.9022C141.195 80.9423 141.57 80.8874 141.92 80.7409L144.441 79.2371L144.102 80.6161V93.5152L145.476 94.1069V112.421H145.93C145.411 112.881 144.825 113.511 145.146 114.163C145.438 114.756 146.176 114.604 146.709 114.543C147.18 114.488 147.652 114.434 148.125 114.381C147.716 114.8 147.386 115.31 147.645 115.835C147.936 116.432 148.673 116.276 149.204 116.215C150.464 116.07 151.722 115.927 152.981 115.78C154.168 115.644 154.058 113.234 153.153 112.587L154.388 112.363V96.889L154.446 96.8947C154.623 96.9451 154.808 96.9794 155.002 96.9794C155.063 96.9794 155.121 96.9668 155.181 96.9622L155.375 96.9794L155.378 96.9428C156.314 96.7711 157.025 95.9723 157.025 95.0087V93.9386V76.2489C157.028 75.8289 156.893 75.4421 156.664 75.1228Z" fill="#808080"/>
<path d="M151.414 111.855C152.809 111.697 153.213 115.047 151.811 115.207C150.552 115.354 149.293 115.495 148.034 115.642C147.503 115.703 146.765 115.858 146.475 115.262C146.08 114.463 147.05 113.694 147.585 113.235C148.771 112.217 149.9 112.031 151.414 111.855Z" fill="#2E0F11"/>
<path d="M148.917 110.182C150.313 110.021 150.718 113.373 149.313 113.534C148.055 113.676 146.796 113.823 145.539 113.968C145.004 114.029 144.268 114.181 143.975 113.588C143.583 112.789 144.553 112.019 145.09 111.561C146.273 110.544 147.401 110.356 148.917 110.182Z" fill="#2E0F11"/>
<path d="M150.875 68.0107H147.396V72.5279H150.875V68.0107Z" fill="#CD967F"/>
<path d="M149.766 71.026L151.807 71.2846L148.764 74.5497L146.286 74.1354L146.647 71.026L148.394 70.8623L149.766 71.026Z" fill="#FFFFFC"/>
<path d="M132.942 75.5802C132.304 75.135 131.564 74.8272 130.825 74.5788C130.203 74.3682 129.937 75.3285 130.554 75.5345C131.214 75.7553 131.859 76.038 132.428 76.4351C132.963 76.8105 133.47 75.9499 132.942 75.5802Z" fill="#EFBB9A"/>
<path d="M132.099 75.5313C130.943 75.4008 128.591 76.0944 128.398 77.2468C128.214 78.3924 128.996 78.7472 130.152 78.8777L132.71 79.1501L133.215 75.6606L132.099 75.5313Z" fill="#EFBB9A"/>
<path d="M144.863 72.1533L139.776 76.1131L133.215 75.3601L132.709 79.5316L139.653 80.3281C140.023 80.3682 140.398 80.3132 140.748 80.1668L146.01 77.0275C146.367 76.8788 146.664 76.6476 146.892 76.3649C147.361 75.7858 145.958 71.6921 144.863 72.1533Z" fill="#216973"/>
<path d="M144.304 111.849V86.7928C144.304 85.392 145.527 84.2578 147.035 84.2578C148.545 84.2578 149.766 85.392 149.766 86.7928V111.849H144.304Z" fill="#216973"/>
<path d="M147.757 112.78V89.7506C147.757 88.3498 148.979 87.2168 150.486 87.2168C151.996 87.2168 153.218 88.351 153.218 88.7584V111.788L147.757 112.78Z" fill="#219DAF"/>
<path d="M142.931 80.0415L144.864 72.1528L146.647 71.0256C146.77 70.9855 147.201 77.2445 147.201 77.2445L150.727 72.0224C150.757 72.0338 151.688 71.2453 151.807 71.2854L155.489 74.5505L154.204 96.4059L150.101 96.0305L142.93 92.9428L142.931 80.0415Z" fill="#219DAF"/>
<path d="M155.853 75.674C155.853 74.5857 154.947 73.7021 153.83 73.7021C152.713 73.7021 151.806 74.5845 151.806 75.674V93.3637H155.852L155.853 75.674Z" fill="#216973"/>
<path d="M151.807 93.3633V94.4333C151.807 95.5228 152.713 96.4052 153.831 96.4052C154.947 96.4052 155.854 95.5228 155.854 94.4333V93.3633H151.807Z" fill="#EFBB9A"/>
<path d="M147.285 69.8443L147.252 69.8363C145.337 69.3636 144.618 67.3013 144.551 64.9163C144.553 64.8488 144.633 63.6861 144.774 63.1825C145.273 61.3697 147.486 60.3454 149.709 60.8959L149.748 60.905C151.967 61.4544 153.372 63.3725 152.878 65.1841C152.738 65.6843 152.212 66.7451 152.18 66.8012C150.897 68.8521 149.199 70.3181 147.285 69.8443Z" fill="#EFBB9A"/>
<path d="M145.245 62.6059C145.245 62.6059 145.439 62.353 145.735 62.6014C146.036 62.852 145.937 62.9516 146.65 63.0969C147.366 63.2423 149.697 63.0614 150.288 63.3556C150.882 63.6508 150.507 64.1212 150.744 65.0173C150.981 65.9146 151.119 65.7864 151.705 65.1375C152.297 64.4897 152.779 66.3369 151.41 67.5317C151.054 67.8418 150.707 68.2653 151.202 68.0799C151.697 67.8922 154.457 65.2862 152.976 62.3347C151.496 59.3821 148.167 59.9612 147.306 60.1145C145.515 60.4373 144.174 63.3945 145.245 62.6059Z" fill="#E4AD3E"/>
<path d="M149.391 71.5329L148.394 70.8623L147.396 71.026L147.757 72.5286L146.647 74.5497L147.201 77.2449L149.137 75.1345L148.219 72.6076L149.391 71.5329Z" fill="#FB2C33"/>
<path d="M148.394 70.8617L150.875 69.9336L151.807 71.284L149.137 72.528L148.394 70.8617Z" fill="#FFFFFC"/>
<path d="M147.396 70.2705L148.394 70.8622L147.201 72.1531L146.647 71.0258L147.396 70.2705Z" fill="#FFFFFC"/>
<path d="M151.628 71.0254C151.628 71.0254 150.34 71.9878 148.733 73.9517C146.942 76.141 147.2 77.2443 147.2 77.2443L149.502 75.5162L149.21 74.9897L150.1 75.0058L152.613 72.0004L151.628 71.0254Z" fill="#216973"/>
<path d="M146.647 71.0254L147.201 77.2443L145.969 74.8249L146.385 74.5491L145.969 74.3088L145.814 71.5518L146.647 71.0254Z" fill="#216973"/>
<path opacity="0.7" d="M119.097 58.5752H71.0558C67.4823 58.5752 64.5771 61.3745 64.5771 64.8135V93.2862C64.5771 96.7264 67.4823 99.5245 71.0558 99.5245H119.096C122.668 99.5245 125.574 96.7264 125.574 93.2862V64.8135C125.576 61.3745 122.668 58.5752 119.097 58.5752Z" fill="#808080"/>
<path d="M65.02 92.7138C65.02 95.2876 67.2109 97.3911 69.8834 97.3911H117.92C120.595 97.3911 122.781 95.2876 122.781 92.7138V64.2411C122.781 61.6673 120.595 59.5615 117.92 59.5615H69.8834C67.2109 59.5615 65.02 61.6673 65.02 64.2411V92.7138Z" fill="#FFFFFC"/>
<path d="M69.881 98.9534H117.921C121.493 98.9534 124.4 96.1553 124.4 92.7151V64.2424C124.4 60.8034 121.492 58.0029 117.921 58.0029H69.881C66.3075 58.0029 63.4023 60.8022 63.4023 64.2424V92.7139C63.4023 96.1541 66.3075 98.9534 69.881 98.9534ZM117.922 61.1227C119.707 61.1227 121.162 62.5212 121.162 64.2413V92.7139C121.162 94.434 119.707 95.8314 117.922 95.8314H69.881C68.0919 95.8314 66.6435 94.434 66.6435 92.7139V64.2413C66.6435 62.5212 68.0931 61.1227 69.881 61.1227H117.922Z" fill="#9C806C"/>
<path opacity="0.5" d="M116.516 85.0625H71.3984V85.2754H116.516V85.0625Z" fill="#BEC3C7"/>
<path opacity="0.5" d="M116.513 88.7402H71.3984V88.9542H116.513V88.7402Z" fill="#BEC3C7"/>
<path opacity="0.5" d="M116.516 81.3838H71.3984V81.5978H116.516V81.3838Z" fill="#BEC3C7"/>
<path opacity="0.5" d="M116.516 77.7061H71.3984V77.9201H116.516V77.7061Z" fill="#BEC3C7"/>
<path opacity="0.5" d="M116.516 74.0273H71.3984V74.2414H116.516V74.0273Z" fill="#BEC3C7"/>
<path opacity="0.5" d="M116.516 70.3506H71.3984V70.5634H116.516V70.3506Z" fill="#BEC3C7"/>
<path opacity="0.5" d="M116.516 66.6709H71.3984V66.8838H116.516V66.6709Z" fill="#BEC3C7"/>
<path d="M71.508 92.4182V64.3232H71.2896V92.4182V92.5258V92.6322H116.405V92.4182H71.508Z" fill="#FF4566"/>
<path d="M79.8536 83.7979H72.9473V92.57H79.8536V83.7979Z" fill="#FF4566"/>
<path d="M88.4291 80.0781H81.5239V92.5697H88.4291V80.0781Z" fill="#FF4566"/>
<path d="M97.0069 76.332H90.1006V92.5259H97.0069V76.332Z" fill="#FF4566"/>
<path d="M105.585 71.9697H98.6775V92.5262H105.585V71.9697Z" fill="#FF4566"/>
<path d="M114.16 68.9287H107.254V92.526H114.16V68.9287Z" fill="#FF4566"/>
<path d="M95.9063 67.5869L92.005 69.5004L93.4464 70.4205C88.5513 76.026 81.5064 75.4893 81.4335 75.4824C81.1915 75.463 80.9801 75.6358 80.9578 75.8693C80.9366 76.1039 81.114 76.311 81.3537 76.3328C81.3677 76.3339 81.591 76.3511 81.9786 76.3511C83.9017 76.3511 89.8588 75.9173 94.183 70.8932L95.6561 71.8339L95.9063 67.5869Z" fill="#FF4566"/>
<defs>
<linearGradient id="paint0_linear_1358_9750" x1="114.257" y1="15.4142" x2="120.019" y2="15.4142" gradientUnits="userSpaceOnUse">
<stop offset="0.1828" stop-color="#D6D6D6"/>
<stop offset="0.6672" stop-color="#888888"/>
<stop offset="0.8978" stop-color="#626262"/>
</linearGradient>
<linearGradient id="paint1_linear_1358_9750" x1="105.511" y1="5.93964" x2="107.525" y2="7.43334" gradientUnits="userSpaceOnUse">
<stop offset="0.0108" stop-color="#F4E72D"/>
<stop offset="0.8545" stop-color="#F4E72D"/>
</linearGradient>
<linearGradient id="paint2_linear_1358_9750" x1="101.48" y1="13.7954" x2="102.798" y2="15.2985" gradientUnits="userSpaceOnUse">
<stop offset="0.0108" stop-color="#F4E72D"/>
<stop offset="0.8545" stop-color="#F4E72D"/>
</linearGradient>
<linearGradient id="paint3_linear_1358_9750" x1="101.48" y1="24.8012" x2="102.798" y2="26.3044" gradientUnits="userSpaceOnUse">
<stop offset="0.0108" stop-color="#F4E72D"/>
<stop offset="0.8545" stop-color="#F4E72D"/>
</linearGradient>
<linearGradient id="paint4_linear_1358_9750" x1="122.679" y1="4.83982" x2="122.291" y2="6.77976" gradientUnits="userSpaceOnUse">
<stop offset="0.0108" stop-color="#F4E72D"/>
<stop offset="0.8545" stop-color="#F4E72D"/>
</linearGradient>
<linearGradient id="paint5_linear_1358_9750" x1="126.313" y1="15.4305" x2="124.984" y2="16.9244" gradientUnits="userSpaceOnUse">
<stop offset="0.0108" stop-color="#F4E72D"/>
<stop offset="0.8545" stop-color="#F4E72D"/>
</linearGradient>
<linearGradient id="paint6_linear_1358_9750" x1="128.83" y1="21.9595" x2="130.889" y2="24.258" gradientUnits="userSpaceOnUse">
<stop offset="0.0108" stop-color="#F4E72D"/>
<stop offset="0.8545" stop-color="#F4E72D"/>
</linearGradient>
<linearGradient id="paint7_linear_1358_9750" x1="107.629" y1="18.3146" x2="107.881" y2="21.3541" gradientUnits="userSpaceOnUse">
<stop offset="0.0108" stop-color="#F4E72D"/>
<stop offset="0.8545" stop-color="#F4E72D"/>
</linearGradient>
<linearGradient id="paint8_linear_1358_9750" x1="131.844" y1="8.80322" x2="132" y2="10.6756" gradientUnits="userSpaceOnUse">
<stop offset="0.0108" stop-color="#F4E72D"/>
<stop offset="0.8545" stop-color="#F4E72D"/>
</linearGradient>
</defs>
</svg>
