<svg width="292" height="285" viewBox="0 0 292 285" fill="none" xmlns="http://www.w3.org/2000/svg">
<path d="M93.2615 247.21V247.199C93.0926 247.207 92.8906 247.212 92.6655 247.212C92.8927 247.217 93.0953 247.217 93.2615 247.21Z" fill="#728BC2"/>
<path d="M89.3198 271.974C90.7193 274.826 92.668 276.605 93.2623 278.088V271.506C91.8739 271.52 90.4962 271.536 89.1274 271.555C89.1914 271.695 89.2533 271.838 89.3198 271.974Z" fill="#8494CF"/>
<path d="M168.125 278.279V272.917C152.884 272.065 133.896 271.529 113.162 271.445C115.675 273.668 118.004 274.695 117.571 276.461C117.054 278.58 110.684 279.778 107.874 278.403C106.082 277.529 102.464 274.394 99.8703 271.454C98.8074 271.46 97.7506 271.467 96.6975 271.476L96.4301 280.954H93.2617V279.657C93.2455 279.688 93.2377 279.72 93.2193 279.753C92.1348 281.661 85.6647 281.178 83.3364 279.13C82.043 277.996 79.8878 274.852 78.2377 271.748C78.1353 271.749 78.0342 271.752 77.932 271.755V277.259H75.0573L74.7285 271.83C69.799 271.953 65.0543 272.103 60.53 272.278V278.688H57.5478L57.3554 272.407C50.1875 272.709 43.627 273.074 37.8247 273.491L37.5961 277.259H34.7226V273.725C32.6918 273.884 30.7682 274.051 28.9589 274.225L28.7674 277.259H25.8952V274.536C16.0632 275.595 10.3511 276.86 10.3511 278.217C10.3511 281.962 53.8474 285 107.503 285C161.159 285 204.656 281.962 204.656 278.217C204.656 276.175 191.724 274.343 171.268 273.099L171.109 278.279H168.125Z" fill="#8494CF"/>
<path d="M85.0693 44.6413C86.725 36.5878 94.8356 31.3532 103.185 32.9502C105.353 33.3657 107.318 34.2071 109.02 35.3571H127.868L130.421 31.9895L126.828 26.8093L119.117 28.6289C116.843 26.506 114.171 24.7512 111.183 23.4838L109.971 15.9614L103.633 14.7483L99.5381 21.2556C96.2744 21.3275 93.1103 21.9674 90.1685 23.0911L83.7603 18.5735L78.3899 22.0393L80.2985 29.5651C78.1851 31.7371 76.439 34.272 75.1762 37.0944L67.1416 38.297L65.8848 44.4099L72.9574 48.5506C73.0737 51.5097 73.7088 54.3777 74.7925 57.0581L69.8502 63.5777L73.4432 68.7579L81.6698 66.8173C83.8005 68.7246 86.2645 70.3111 88.9934 71.4944L90.2992 79.6075L92.3137 79.9932V60.296C86.8644 57.1685 83.7656 50.982 85.0693 44.6413Z" fill="#BFC9E6"/>
<path d="M90.4487 109.252C90.5852 109.386 90.6907 109.619 90.7087 109.878L91.1981 109.225L90.7111 108.531C90.7203 108.73 90.6795 108.937 90.5467 109.116C90.521 109.151 90.4865 109.199 90.4487 109.252Z" fill="#BFC9E6"/>
<path d="M87.4646 86.2503C86.468 83.7802 85.0453 81.5457 83.2946 79.6118L85.1812 73.1843L80.6668 70.0377L75.0005 73.7379C72.5028 72.6813 69.7974 72.0352 66.9882 71.8762L63.6702 66.1468L58.1707 67.001L56.8851 73.4444C54.27 74.4475 51.9115 75.8799 49.8839 77.6403L43.2998 75.8423L40.0375 80.1957L43.9206 85.7271C42.8883 88.0946 42.2651 90.6471 42.1224 93.2935L36.0034 96.5904L36.8892 101.895L43.8929 103.194C44.9072 105.552 46.3122 107.686 48.0217 109.538L46.0549 116.239L48.4521 117.908C48.8816 116.853 49.3959 115.83 49.7927 114.761C50.5611 112.695 50.847 110.463 50.6417 108.276C50.5884 107.708 50.3972 107.094 50.3004 106.493C50.2349 106.493 50.1824 106.491 50.1508 106.485C49.6768 106.406 48.2807 103.976 48.3605 103.632C48.3665 103.606 48.4179 103.573 48.4899 103.538C48.1356 102.524 47.9287 101.249 48.0734 99.6141C48.3178 96.8621 50.0655 94.6247 52.3828 93.1331C53.001 87.5251 57.4195 82.7815 63.4692 81.8405C70.7134 80.716 77.5319 85.4684 78.6985 92.4552C79.8653 99.4421 74.9385 106.018 67.6941 107.144C67.6569 107.15 67.6201 107.15 67.5829 107.156C67.3856 110.329 66.9529 113.416 65.9224 114.753C66.1256 115.769 66.2984 116.788 66.3624 117.821C66.4249 118.824 66.3708 119.853 66.1542 120.838L66.7901 121.935L69.9206 122.582C69.9206 122.582 70.244 122.587 70.7506 122.78L73.0658 122.422L74.4524 115.471C76.8414 114.535 79.0155 113.241 80.9123 111.661L83.2126 112.29C83.224 112.234 83.2358 112.186 83.2492 112.158C83.5381 111.577 88.5368 106.974 88.884 106.627C89.117 106.394 89.4582 106.771 89.52 107.233C89.5858 107.172 89.6411 107.118 89.6884 107.074L87.1513 103.46C88.1713 101.184 88.811 98.7324 89.0066 96.1871L92.3145 94.405V87.1508L87.4646 86.2503Z" fill="#BFC9E6"/>
<path d="M37.3319 39.7997C42.4738 36.9501 49.0376 38.6602 51.9922 43.6206C54.947 48.5793 53.174 54.9097 48.0323 57.7594C42.8906 60.6107 36.3268 58.9006 33.3723 53.9402C30.4174 48.9815 32.1901 42.6511 37.3319 39.7997ZM19.1328 45.0244L23.7086 48.1332C23.6308 50.2069 23.917 52.3092 24.5942 54.3492L20.9475 58.5303L23.1905 62.2939L28.8699 61.3446C30.3363 62.846 32.0311 64.0714 33.873 65.0005L34.3739 70.6072L38.7202 71.7383L42.118 67.0859C44.1418 67.1448 46.1895 66.8907 48.1834 66.3066L52.7217 69.9878L56.6251 67.8249L55.6115 62.1895C57.1387 60.8211 58.3981 59.244 59.3636 57.5271L65.2425 57.0373L66.4164 52.8461L61.6464 49.606C61.742 47.603 61.498 45.5731 60.8909 43.5953L64.6017 39.3419L62.3587 35.5766L56.7771 36.5108C55.2913 34.9185 53.5529 33.6224 51.6556 32.6428L51.1748 27.265L46.829 26.1322L43.6443 30.4934C41.4423 30.384 39.2062 30.6432 37.0355 31.2963L32.8274 27.8827L28.9241 30.0456L29.864 35.272C28.1847 36.7515 26.8274 38.4852 25.8172 40.3754L20.3067 40.8332L19.1328 45.0244Z" fill="#BFC9E6"/>
<path d="M216.468 23.7133C221.812 17.3218 231.513 16.3189 238.14 21.4716C242.586 24.93 244.503 30.2781 243.677 35.3552H252.515C252.526 35.3552 252.538 35.357 252.549 35.357C252.832 35.3588 253.113 35.3754 253.39 35.4012C253.461 35.4086 253.534 35.4215 253.606 35.4289C253.836 35.4584 254.063 35.4934 254.287 35.5395C254.338 35.5506 254.392 35.5616 254.445 35.5745C254.711 35.6335 254.975 35.7036 255.231 35.7865C255.237 35.7884 255.239 35.7884 255.242 35.7902C255.527 35.8824 255.81 35.9856 256.081 36.1055L263.098 32.7797L262.41 26.5837L254.283 24.6387C253.331 21.9122 251.911 19.3183 250.032 16.9771L252.704 9.42415L247.674 5.51219L240.709 9.56056C237.863 8.17607 234.839 7.3133 231.773 6.95566L228.232 4.79696e-05L221.808 0.663717L219.896 8.09681C216.892 9.0536 214.038 10.521 211.489 12.4844L204.019 10.027L199.961 14.8773L204.036 21.3978C202.588 24.2203 201.705 27.2197 201.372 30.2541L194.247 33.6296L194.438 35.3552H213.258C212.607 31.3529 213.623 27.1146 216.468 23.7133Z" fill="#AEB8DF"/>
<path d="M290.23 90.0825L292 84.9871L286.262 80.5759C286.511 78.1008 286.333 75.6417 285.763 73.2901L290.785 68.1786L288.301 63.3698L281.13 64.1506C279.512 62.2235 277.557 60.5382 275.31 59.1896L275.123 52.3121L269.84 50.6053L265.471 55.8923C263.998 55.7329 262.531 55.7168 261.085 55.8243V65.7267C263.048 65.4688 265.096 65.6139 267.099 66.2622C274.057 68.5099 277.808 75.7725 275.477 82.4833C273.415 88.4187 267.289 91.9255 261.085 91.1052V100.995C263.623 101.183 266.137 100.979 268.54 100.4L273.78 105.191L278.766 102.795L277.947 95.7976C279.871 94.2502 281.548 92.3911 282.896 90.2706L290.23 90.0825Z" fill="#AEB8DF"/>
<path d="M34.7224 231.759V246.672H30.6983L31.6397 231.759H34.7224ZM28.7672 277.259L28.9587 274.225L30.6297 247.759H34.7224V273.725V277.259H37.5959L37.8244 273.491L39.3841 247.759H56.6L56.5667 246.672H39.45L40.3538 231.759H56.1098L55.7929 221.409H55.781H25.895V231.759V246.672H3.79883V247.759H25.895V274.536V277.259H28.7672Z" fill="#728BC2"/>
<path d="M86.6592 262.166C86.6592 262.166 86.7731 263.09 87.029 264.442V261.403L86.6592 262.166Z" fill="#8DA1CB"/>
<path d="M82.4903 231.758H81.2842L81.8122 240.124C81.9494 237.991 82.1674 234.977 82.4903 231.758Z" fill="#8DA1CB"/>
<path d="M75.9512 265.408C76.0031 263.479 77.1043 261.59 77.9323 260.433V247.759H80.8203L81.0069 246.672H77.9323V231.759H81.2849H82.491C82.8429 228.251 83.32 224.509 83.951 221.416L60.5303 221.41V231.759H72.3015L73.2048 246.672H60.5303V247.759H73.2707L74.7288 271.83L75.0575 277.259H77.9323V271.755V271.156C76.7654 268.873 75.9171 266.68 75.9512 265.408Z" fill="#728BC2"/>
<path d="M85.0299 217.336C85.4067 216.291 85.7777 215.35 86.1384 214.49L85.3759 214.994L76.4119 214.883C70.9332 215.176 65.1322 215.359 60.5303 215.197V221.41L83.951 221.416C84.27 219.852 84.6279 218.45 85.0299 217.336Z" fill="#E97448"/>
<path d="M55.5945 214.912C54.5833 214.827 53.5731 214.722 52.572 214.587C52.0752 214.578 30.156 214.127 25.8956 201.176C23.9525 195.271 24.8334 175.697 24.8026 162.158C24.7651 144.489 20.6095 131.82 34.452 129.846C35.5747 129.685 36.7427 129.633 37.9376 129.667C38.2281 128.918 38.5575 128.241 38.9105 127.632C35.7177 127.529 33.086 127.78 31.6403 128.288C18.0774 133.046 19.6378 141.74 20.2486 162.158C20.8183 181.221 16.1878 189.548 16.2298 200.399C16.2954 217.199 25.8956 221.402 25.8956 221.402L55.7816 221.409H55.7935L55.5945 214.912Z" fill="#E97448"/>
<path d="M76.4116 214.883L85.3757 214.994L86.1381 214.49C86.1736 214.404 86.2094 214.318 86.2448 214.235C83.3863 214.455 79.9697 214.692 76.4116 214.883Z" fill="#F7A048"/>
<path d="M24.8022 162.158C24.8331 175.697 23.9521 195.271 25.8952 201.175C30.1556 214.127 52.0749 214.578 52.5716 214.587C44.504 213.509 37.0377 210.56 34.7226 201.369C32.1881 191.304 34.7226 181.195 34.7226 181.195C34.7226 174.048 37.5651 169.616 38.4738 161.177C39.1341 155.034 37.651 148.446 37.317 141.767C37.1172 141.012 36.9782 140.398 36.9301 140.002C36.3993 135.636 36.9407 132.235 37.9372 129.666C36.7423 129.633 35.5744 129.685 34.4517 129.846C20.6091 131.82 24.7648 144.489 24.8022 162.158Z" fill="#F7A048"/>
<path d="M100.904 193.355C101.133 193.451 101.357 193.547 101.573 193.643C101.573 193.643 108.201 197.022 109.005 201.311C110.287 208.151 102.474 227.697 97.6155 238.93L97.4639 244.307C99.3076 244.768 102.823 245.573 104.957 245.567C106.34 245.564 107.348 245.407 108.048 245.241C108.819 245.034 109.254 244.84 109.254 244.84C109.254 244.84 115.591 205.79 111.103 196.8C110.058 194.705 107.492 193.292 105.321 192.424C105.32 192.424 105.32 192.424 105.32 192.423C105.318 192.423 105.317 192.423 105.315 192.422C105.046 192.315 104.786 192.215 104.533 192.124C103.854 191.871 103.103 191.601 102.3 191.32H101.821H98.958L98.9225 192.581C99.6246 192.838 100.287 193.097 100.904 193.355Z" fill="#4E62B7"/>
<path d="M108.048 245.239C107.348 245.406 106.34 245.563 104.957 245.566C102.823 245.572 99.3076 244.767 97.4638 244.306L97.2227 252.852L98.059 260.44C98.059 260.44 97.2362 262.037 96.9086 263.991L96.8398 266.433C96.8698 266.649 96.9086 266.865 96.963 267.076C97.2453 268.168 98.3935 269.78 99.8704 271.454C102.465 274.394 106.082 277.529 107.875 278.403C110.684 279.778 117.054 278.579 117.572 276.46C118.004 274.694 115.675 273.668 113.162 271.445C112.663 271.003 112.157 270.519 111.663 269.966C108.683 266.636 106.388 261.198 106.388 261.198L108.742 247.759L108.933 246.672L109.254 244.839C109.254 244.839 108.861 245.046 108.048 245.239Z" fill="#2C2B68"/>
<path d="M89.3886 107.864L89.4204 108.003C88.631 109.196 87.8413 110.388 87.0516 111.579C87.0529 111.58 87.0546 111.582 87.0559 111.583C87.1184 111.66 87.1767 111.76 87.2296 111.88C87.2453 111.916 87.2552 111.965 87.2699 112.005C88.1312 110.877 88.9923 109.749 89.8539 108.622L90.0508 108.593L90.051 108.594L90.0807 108.784C89.7107 109.268 89.3405 109.752 88.9706 110.236C88.9273 110.294 88.8838 110.35 88.8403 110.407C88.3496 111.05 87.8585 111.693 87.3675 112.335C87.3845 112.42 87.3895 112.514 87.3974 112.607C87.4027 112.669 87.4177 112.727 87.4178 112.792L87.4177 112.881C87.4177 112.899 87.4175 112.919 87.4175 112.938C87.4172 112.997 87.4166 113.061 87.4162 113.123C87.44 113.089 87.4638 113.058 87.4878 113.024C88.2922 111.927 89.0964 110.83 89.901 109.732L90.0974 109.7L90.131 109.889C89.3067 111.014 88.4823 112.138 87.658 113.264C87.5901 113.355 87.5223 113.449 87.4545 113.54L87.4072 113.549C87.395 113.9 87.3667 114.276 87.305 114.681C87.3361 114.924 87.3541 115.179 87.3394 115.46C87.2209 117.72 86.5848 120.02 86.3882 120.686L87.6236 120.774C87.6236 120.774 88.64 117.787 88.4764 115.917C88.4124 115.185 88.2643 114.619 88.0965 114.163C88.8835 112.962 90.2215 110.927 90.5474 110.489C90.6859 110.303 90.7238 110.086 90.7094 109.879C90.6914 109.621 90.5859 109.388 90.4494 109.253C90.4872 109.2 90.5217 109.152 90.5474 109.118C90.6802 108.938 90.721 108.732 90.7118 108.532C90.6998 108.268 90.5936 108.026 90.455 107.886C90.5816 107.298 90.1219 106.647 89.832 106.937C89.8076 106.961 89.7553 107.01 89.6883 107.074C89.641 107.119 89.5857 107.172 89.5199 107.233C89.5481 107.444 89.5169 107.668 89.3886 107.864Z" fill="#E97448"/>
<path d="M51.4505 120.395C52.6813 117.906 53.8302 113.873 52.6981 108.79H52.698C52.5899 108.836 52.4745 108.865 52.349 108.869C51.5116 108.89 50.7457 107.631 50.3832 106.589C50.3718 106.555 50.3636 106.525 50.353 106.493C50.3374 106.493 50.3174 106.493 50.3032 106.493C50.3022 106.493 50.3007 106.493 50.2998 106.493C50.3966 107.094 50.5878 107.709 50.6411 108.277C50.8464 110.464 50.5605 112.695 49.7921 114.762C49.3953 115.83 48.881 116.854 48.4515 117.909C48.3685 118.112 48.2832 118.316 48.2084 118.521C47.802 119.649 47.5455 120.862 47.7082 122.035L49.5577 121.473C50.1382 121.354 51.1238 121.054 51.4505 120.395Z" fill="#2C2B68"/>
<path d="M65.4261 115.23C63.8185 116.266 61.6527 116.027 61.6527 116.027L61.3381 118.138C61.2667 118.746 61.2114 119.391 61.2114 119.931C61.2114 120.865 62.6668 121.083 62.6668 121.083L65.8979 121.751C66.0004 121.452 66.0855 121.147 66.1535 120.838C66.37 119.853 66.4241 118.824 66.3616 117.821C66.2977 116.788 66.1249 115.769 65.9217 114.753C65.7694 114.951 65.6055 115.114 65.4261 115.23Z" fill="#2C2B68"/>
<path d="M72.678 132.082L72.6783 132.08C72.6536 131.954 72.6267 131.832 72.6029 131.705C72.4024 130.63 72.2323 129.501 72.1184 128.3C72.1113 128.225 72.1685 128.16 72.246 128.153C72.3233 128.145 72.3919 128.2 72.399 128.275C72.4967 129.316 72.6348 130.305 72.8006 131.25C72.804 131.222 72.8075 131.199 72.8111 131.17C72.8777 130.64 72.9443 129.958 72.9441 129.365C72.9444 129.017 72.9209 128.699 72.8652 128.466C72.8476 128.394 72.8951 128.32 72.9709 128.304C73.0466 128.287 73.1223 128.332 73.1398 128.405C73.2032 128.673 73.2258 129.005 73.226 129.365C73.2257 130.507 72.9937 131.903 72.9623 132.09C73.2068 133.325 73.4929 134.485 73.7983 135.576C74.9506 139.695 76.3254 142.891 76.424 145.87C76.4274 145.977 76.4376 146.084 76.4377 146.189H76.4379C76.4379 146.264 76.3747 146.325 76.297 146.325C76.2766 146.325 76.2623 146.311 76.2449 146.303C76.1954 146.283 76.1559 146.244 76.1559 146.189C76.1625 142.428 73.8882 138.225 72.6831 132.103C72.6831 132.095 72.6768 132.09 72.678 132.082ZM37.8626 143.112C37.9371 143.089 38.0159 143.129 38.0391 143.2C39.1991 146.789 40.054 149.1 42.5601 153.949H42.5603C42.5951 154.017 42.5666 154.098 42.4969 154.133C42.4272 154.166 42.3426 154.139 42.3079 154.071C39.7976 149.214 38.9309 146.874 37.7702 143.281C37.7469 143.21 37.7884 143.134 37.8626 143.112ZM76.0779 146.639L77.8633 145.834C78.2401 143.885 78.7114 141.567 79.22 139.126C77.7575 134.991 75.7958 129.578 74.7858 127.356C73.3607 124.225 71.7163 123.153 70.7502 122.782C70.2435 122.588 69.9201 122.584 69.9201 122.584L66.7896 121.936L65.8982 121.752L62.6671 121.085C62.6671 121.085 65.4264 126.934 59.8467 127.356C54.2624 127.783 49.5579 121.474 49.5579 121.474L47.7084 122.036L43.9454 123.179C43.9449 123.179 43.9445 123.179 43.9442 123.179C42.8565 123.322 40.6107 124.691 38.9102 127.632C38.5572 128.242 38.2278 128.919 37.9372 129.667C36.9407 132.236 36.3993 135.637 36.9301 140.003C36.9782 140.399 37.1173 141.013 37.317 141.768C37.651 148.447 39.1341 155.035 38.4739 161.177C37.5652 169.617 34.7227 174.048 34.7227 181.196L54.6131 182.89L54.5777 181.739H50.9894C49.4314 181.739 48.1656 180.519 48.1656 179.015C48.1656 177.51 49.4314 176.289 50.9894 176.289H73.902C73.7875 175.537 73.661 174.799 73.5284 174.066C66.9937 173.473 58.7441 172.22 53.09 169.566C50.6185 168.407 47.9527 163.503 46.4943 160.471C45.429 158.626 44.2371 156.405 43.0915 153.991C46.2103 153.124 52.7707 151.125 55.1193 149.087C55.0974 149.063 55.0816 149.034 55.0815 148.999C55.0715 142.816 50.9171 134.268 48.1585 128.631C48.1271 128.566 48.1556 128.492 48.218 128.457C48.2215 128.456 48.2221 128.452 48.2257 128.449C48.296 128.417 48.38 128.446 48.4133 128.514C48.7239 129.15 49.0541 129.828 49.3927 130.53C49.5803 130.919 49.7702 131.316 49.9626 131.723C49.9535 131.662 49.9437 131.601 49.9341 131.54C49.7735 130.508 49.5802 129.482 49.3223 128.469C49.3037 128.395 49.3499 128.322 49.4255 128.304C49.5009 128.285 49.5772 128.33 49.5958 128.404C49.9247 129.693 50.1689 131.004 50.3405 132.322C50.3509 132.4 50.3675 132.478 50.3772 132.558C50.3786 132.57 50.3699 132.577 50.3687 132.588C52.7771 137.751 55.2994 143.971 55.3575 148.864C55.3583 148.909 55.3632 148.956 55.3634 148.999H55.3635C55.3635 149.068 55.3075 149.12 55.2382 149.129C56.8473 153.198 58.344 156.888 58.9252 158.316C62.06 159.674 67.2494 162.075 72.2744 164.432C72.2699 164.276 72.2614 164.126 72.2587 163.967C72.1842 159.528 72.7806 154.004 73.0887 151.482C73.1936 150.623 73.2651 150.112 73.2651 150.112C73.2651 150.112 75.1005 148.507 76.0779 146.639Z" fill="#E1ECF4"/>
<path d="M65.376 110.843C65.0484 110.843 64.7003 110.825 64.3579 110.825H64.3182C64.0439 110.825 63.7699 110.83 63.5105 110.83C63.1488 110.83 62.8161 110.821 62.5419 110.776C62.2714 110.728 62.0398 110.652 61.9172 110.452L61.9699 110.267L62.1622 110.318C62.1999 110.392 62.3447 110.47 62.59 110.509C62.8317 110.549 63.1542 110.558 63.5105 110.558C63.7666 110.558 64.0407 110.553 64.3182 110.553H64.359C64.7096 110.553 65.0583 110.571 65.376 110.571C65.9308 110.574 66.3776 110.51 66.5741 110.293L66.7732 110.286L66.7813 110.478C66.4596 110.804 65.9416 110.84 65.376 110.843ZM65.0194 111.593C64.7405 111.652 64.4552 111.681 64.1702 111.681C63.907 111.681 63.6442 111.656 63.3863 111.606C63.31 111.591 63.2606 111.52 63.2759 111.447C63.2912 111.373 63.3655 111.325 63.4417 111.34C63.6812 111.386 63.9256 111.409 64.1702 111.409C64.4351 111.409 64.7002 111.382 64.9593 111.328C65.0354 111.312 65.1105 111.359 65.127 111.431C65.1435 111.505 65.0954 111.577 65.0194 111.593ZM67.1053 106.514C66.6005 106.463 66.0836 106.434 65.5624 106.417C65.6763 106.556 65.7823 106.709 65.8349 106.898L65.8445 106.973C65.8416 107.095 65.7853 107.199 65.7124 107.309C65.6383 107.417 65.541 107.527 65.4354 107.628C65.2179 107.83 64.9966 108.002 64.7934 108.044C64.7168 108.057 64.6437 108.008 64.6301 107.935C64.6167 107.861 64.6678 107.79 64.7446 107.777C64.7873 107.774 64.9464 107.687 65.0903 107.566C65.2377 107.445 65.388 107.29 65.4772 107.158C65.538 107.073 65.5653 106.994 65.5626 106.973L65.5623 106.968C65.5116 106.774 65.3579 106.596 65.192 106.41C62.3219 106.35 59.2761 106.728 56.5356 107.15C55.9049 107.245 55.3242 106.716 55.2079 105.949L55.2141 106.006C55.2141 106.006 54.9112 106.044 54.4563 106.097C54.4865 106.599 54.3216 106.927 53.8689 106.927C53.8689 106.927 53.7373 106.618 53.5154 106.204C53.2044 106.239 52.8776 106.275 52.55 106.308C52.6669 106.631 52.7355 106.969 52.736 107.31C52.736 107.349 52.7276 107.39 52.7258 107.429C52.7271 107.443 52.7355 107.455 52.736 107.471C52.7366 107.488 52.7238 107.501 52.7182 107.517C52.7113 107.605 52.7105 107.695 52.6949 107.784C52.6817 107.858 52.6091 107.908 52.5322 107.895C52.4553 107.882 52.4038 107.812 52.417 107.738C52.4346 107.638 52.4382 107.536 52.4433 107.434C52.4261 107.281 52.3576 107.147 52.2559 107.037C52.1447 106.917 52.0014 106.83 51.9028 106.793L51.7263 106.762C51.5754 106.762 51.448 106.826 51.4038 106.923C51.3711 106.991 51.2874 107.021 51.2166 106.989C51.1461 106.957 51.1152 106.876 51.1479 106.809C51.258 106.585 51.5015 106.489 51.7263 106.491C51.8212 106.491 51.9163 106.506 52.0052 106.54C52.1279 106.586 52.2673 106.677 52.3964 106.797C52.3651 106.641 52.3216 106.488 52.2635 106.339C51.4606 106.421 50.719 106.486 50.3534 106.492C50.364 106.524 50.3722 106.554 50.3836 106.587C50.7461 107.63 51.512 108.888 52.3494 108.868C52.4749 108.864 52.5903 108.835 52.6984 108.789H52.6985C53.8306 113.872 52.6817 117.905 51.4509 120.393C51.1242 121.053 50.1386 121.353 49.5581 121.472C49.5581 121.472 54.2627 127.781 59.847 127.354C65.4267 126.932 62.6673 121.083 62.6673 121.083C62.6673 121.083 61.212 120.865 61.212 119.931C61.212 119.39 61.2673 118.746 61.3386 118.137C60.077 118.201 56.3805 116.195 55.3692 112.779C58.6767 115.657 61.6533 116.027 61.6533 116.027C61.6533 116.027 63.8191 116.266 65.4267 115.229C65.606 115.114 65.77 114.95 65.9222 114.752C66.9528 113.415 67.3854 110.328 67.5827 107.155C67.5967 106.93 67.6098 106.703 67.6215 106.478C67.4533 106.498 67.2812 106.514 67.1053 106.514Z" fill="#F68776"/>
<path d="M66.6966 100.176L66.7164 100.16C66.9721 100.182 67.2261 100.216 67.4808 100.245C67.4846 100.245 67.4886 100.245 67.4925 100.245L67.2731 98.5121C67.2692 98.5006 67.2631 98.489 67.259 98.4774L64.3083 95.8946C64.3083 95.8946 63.0984 97.8256 60.6855 99.9763C61.0023 99.9777 61.3193 99.9777 61.6359 99.9864C63.3265 99.9575 65.0152 100.028 66.6966 100.176Z" fill="#F68776"/>
<path d="M54.8382 102.377C54.82 102.198 54.8019 102.018 54.7836 101.841C54.6982 101.028 55.2318 100.278 55.967 100.203C57.5391 100.041 59.1134 99.9703 60.6859 99.976C63.0988 97.8253 64.3087 95.8944 64.3087 95.8944L67.2594 98.4772L67.2704 98.4873L67.2735 98.5119L67.4929 100.245C67.489 100.245 67.4849 100.245 67.4812 100.245C67.7851 100.278 68.0894 100.308 68.3933 100.346L61.7989 105.499C61.3117 105.549 60.8242 105.591 60.339 105.659C61.0845 105.555 61.8327 105.476 62.5826 105.413L68.983 100.411L69.1326 100.428C68.6367 100.36 68.138 100.314 67.6399 100.262C67.8687 99.5742 68.3818 97.8673 68.2558 96.6835C67.8967 93.31 64.6733 91.4614 59.8477 91.1247C57.3802 90.9512 54.6167 91.6956 52.3824 93.1323C50.0651 94.6239 48.3174 96.8613 48.073 99.6133C47.9283 101.248 48.1352 102.523 48.4895 103.537C49.3724 103.108 54.8062 102.067 54.8062 102.067L54.8382 102.377Z" fill="#2C2B68"/>
<path d="M54.456 106.098C54.1868 106.128 53.8623 106.166 53.5151 106.205C53.7371 106.618 53.8686 106.928 53.8686 106.928C54.3213 106.928 54.4863 106.6 54.456 106.098Z" fill="#2C2B68"/>
<path d="M55.3687 112.78C56.38 116.196 60.0765 118.202 61.3381 118.138L61.6528 116.028C61.6528 116.028 58.6762 115.658 55.3687 112.78Z" fill="#AE2549"/>
<path d="M55.238 149.128C55.2322 149.128 55.2286 149.134 55.2225 149.134C55.1801 149.134 55.145 149.115 55.1191 149.086C52.7705 151.124 46.2101 153.123 43.0913 153.991C44.2369 156.404 45.4288 158.626 46.4941 160.47C47.9525 163.502 50.6183 168.407 53.0898 169.566C58.7439 172.219 66.9935 173.473 73.5282 174.065C73.8748 174.097 74.2148 174.126 74.5511 174.153C74.5088 174.067 74.4869 174.012 74.4869 174.012L84.2722 174.009L96.4439 174.007C95.3542 172.702 94.0908 171.312 93.4839 171.089C92.3004 170.656 86.3313 171.089 86.3313 171.089C86.3313 171.089 79.4713 167.805 72.2742 164.432C67.2492 162.074 62.0598 159.674 58.925 158.315C58.3438 156.887 56.8471 153.197 55.238 149.128Z" fill="#F68776"/>
<path d="M34.7227 201.369C37.0377 210.56 44.504 213.509 52.5717 214.587C53.5728 214.721 54.583 214.827 55.5941 214.912L54.6131 182.889L34.7227 181.195C34.7227 181.195 32.1881 191.304 34.7227 201.369Z" fill="#5670C0"/>
<path d="M76.4119 214.883C79.9699 214.692 83.3865 214.455 86.2451 214.236C86.2097 214.318 86.1739 214.405 86.1384 214.49C85.7777 215.35 85.4067 216.291 85.0299 217.336C84.6279 218.45 84.27 219.852 83.951 221.416C83.32 224.509 82.8429 228.251 82.491 231.759C82.1681 234.978 81.95 237.992 81.8129 240.125C81.7242 241.507 81.6688 242.521 81.6415 242.972C81.6415 242.972 86.718 245.97 89.6014 246.733C90.9321 247.084 91.9454 247.193 92.666 247.213C92.8911 247.213 93.0931 247.209 93.262 247.2V203.557V191.319H60.5303V215.197C65.1322 215.359 70.9332 215.177 76.4119 214.883Z" fill="#5670C0"/>
<path d="M66.5739 110.295C66.3774 110.511 65.9306 110.575 65.3758 110.572C65.0582 110.572 64.7095 110.555 64.3588 110.555H64.318C64.0405 110.555 63.7664 110.559 63.5104 110.559C63.154 110.559 62.8315 110.55 62.5898 110.51C62.3445 110.471 62.1998 110.393 62.162 110.319L61.9697 110.269L61.917 110.454C62.0396 110.653 62.2712 110.73 62.5417 110.777C62.8159 110.822 63.1486 110.831 63.5104 110.831C63.7697 110.831 64.0437 110.826 64.318 110.826H64.3578C64.7002 110.826 65.0483 110.844 65.3758 110.844C65.9414 110.841 66.4594 110.805 66.7811 110.48L66.773 110.287L66.5739 110.295Z" fill="#2C2B68"/>
<path d="M65.5623 106.968L65.5626 106.974C65.5653 106.994 65.538 107.074 65.4771 107.159C65.388 107.29 65.2377 107.445 65.0902 107.566C64.9464 107.688 64.7872 107.775 64.7445 107.777C64.6678 107.79 64.6167 107.861 64.63 107.935C64.6437 108.009 64.7168 108.058 64.7934 108.045C64.9966 108.003 65.2179 107.831 65.4353 107.629C65.541 107.527 65.6382 107.417 65.7124 107.309C65.7852 107.199 65.8416 107.095 65.8444 106.974L65.8348 106.899C65.7822 106.709 65.6763 106.556 65.5624 106.417C65.4397 106.413 65.3156 106.413 65.192 106.41C65.3579 106.597 65.5116 106.774 65.5623 106.968Z" fill="#2C2B68"/>
<path d="M64.9587 111.33C64.6996 111.383 64.4345 111.411 64.1695 111.411C63.925 111.411 63.6806 111.388 63.4411 111.342C63.3648 111.327 63.2905 111.375 63.2752 111.448C63.2599 111.522 63.3094 111.593 63.3857 111.607C63.6436 111.658 63.9064 111.683 64.1695 111.683C64.4546 111.683 64.7399 111.654 65.0187 111.594C65.0947 111.579 65.1428 111.506 65.1263 111.433C65.1099 111.36 65.0348 111.314 64.9587 111.33Z" fill="#2C2B68"/>
<path d="M52.0051 106.541C51.9162 106.507 51.8211 106.492 51.7262 106.492C51.5014 106.49 51.2579 106.585 51.1478 106.809C51.1151 106.877 51.146 106.958 51.2166 106.99C51.2873 107.022 51.3711 106.992 51.4037 106.924C51.448 106.827 51.5753 106.763 51.7262 106.763L51.9027 106.794C52.0013 106.831 52.1446 106.918 52.2558 107.038C52.3575 107.148 52.426 107.282 52.4433 107.435C52.4382 107.536 52.4346 107.639 52.4169 107.739C52.4037 107.813 52.4552 107.883 52.5321 107.896C52.609 107.909 52.6817 107.859 52.6949 107.785C52.7104 107.695 52.7112 107.606 52.7181 107.518C52.7238 107.502 52.7365 107.489 52.7359 107.471C52.7355 107.456 52.7271 107.444 52.7257 107.43C52.7275 107.391 52.7359 107.35 52.7359 107.311C52.7355 106.97 52.6668 106.632 52.5499 106.309C52.4536 106.32 52.3587 106.33 52.2634 106.34C52.3216 106.489 52.365 106.642 52.3964 106.798C52.2672 106.678 52.1278 106.587 52.0051 106.541Z" fill="#2C2B68"/>
<path d="M76.2447 146.303C76.2621 146.31 76.2765 146.324 76.2969 146.324C76.3745 146.324 76.4377 146.264 76.4377 146.188H76.4376C76.4374 146.083 76.4272 145.976 76.4238 145.869C76.3252 142.89 74.9505 139.694 73.7981 135.575C73.4927 134.484 73.2067 133.325 72.9621 132.089C72.9936 131.902 73.2255 130.506 73.2258 129.364C73.2257 129.004 73.2031 128.672 73.1397 128.405C73.1221 128.331 73.0465 128.286 72.9708 128.303C72.895 128.319 72.8475 128.393 72.865 128.465C72.9207 128.698 72.9443 129.016 72.944 129.364C72.9441 129.957 72.8776 130.639 72.8109 131.17C72.8073 131.199 72.8039 131.222 72.8004 131.249C72.6347 130.304 72.4965 129.315 72.3988 128.275C72.3918 128.199 72.3231 128.145 72.2458 128.152C72.1683 128.159 72.1111 128.224 72.1183 128.299C72.2322 129.5 72.4023 130.629 72.6028 131.704C72.6266 131.832 72.6534 131.953 72.6781 132.079L72.6778 132.082C72.6766 132.089 72.6829 132.095 72.6829 132.102C73.888 138.224 76.1623 142.428 76.1557 146.188C76.1557 146.243 76.1953 146.282 76.2447 146.303Z" fill="#7E96C8"/>
<path d="M55.2386 149.128C55.3078 149.119 55.3639 149.067 55.3639 148.998H55.3637C55.3636 148.955 55.3586 148.908 55.3579 148.864C55.2997 143.97 52.7774 137.75 50.369 132.587C50.3702 132.576 50.3789 132.569 50.3776 132.557C50.3678 132.478 50.3512 132.399 50.3409 132.321C50.1693 131.003 49.925 129.692 49.5961 128.403C49.5775 128.329 49.5013 128.285 49.4259 128.303C49.3502 128.321 49.3041 128.394 49.3226 128.468C49.5805 129.481 49.7738 130.507 49.9345 131.539C49.9441 131.6 49.9538 131.661 49.963 131.722C49.7705 131.315 49.5807 130.918 49.3931 130.529C49.0544 129.827 48.7243 129.149 48.4136 128.513C48.3804 128.445 48.2963 128.416 48.226 128.448C48.2224 128.451 48.2218 128.455 48.2184 128.457C48.1559 128.491 48.1274 128.565 48.1589 128.63C50.9175 134.267 55.0718 142.815 55.0818 148.998C55.082 149.033 55.0977 149.062 55.1196 149.086C55.1455 149.115 55.1806 149.134 55.223 149.134C55.2291 149.134 55.2327 149.128 55.2386 149.128Z" fill="#7E96C8"/>
<path d="M42.4969 154.13C42.5665 154.096 42.595 154.015 42.5602 153.947H42.5601C40.054 149.098 39.1991 146.787 38.0391 143.198C38.0159 143.127 37.9371 143.086 37.8626 143.11C37.7884 143.131 37.7469 143.208 37.7701 143.279C38.9309 146.872 39.7976 149.212 42.3079 154.068C42.3425 154.136 42.4272 154.164 42.4969 154.13Z" fill="#7E96C8"/>
<path d="M87.3392 115.46C87.3539 115.18 87.3359 114.924 87.3047 114.681C87.2109 115.292 87.0403 115.963 86.7214 116.7C86.6914 116.77 86.609 116.803 86.5371 116.774C86.4651 116.745 86.4313 116.665 86.4612 116.596C86.4639 116.59 86.4656 116.585 86.4683 116.579C87.1078 115.086 87.1353 113.886 87.1356 112.882L87.1357 112.792C87.1353 112.52 87.0777 112.263 87.002 112.065C86.9394 111.893 86.854 111.769 86.8075 111.725L86.7852 111.73L86.7819 111.715C86.7316 111.725 86.685 111.753 86.6351 111.811C86.5777 111.878 86.5266 111.977 86.4852 112.074C85.8873 113.457 85.5269 114.291 84.9287 115.675C84.9262 115.683 84.9181 115.684 84.9145 115.69C84.8787 115.746 84.8096 115.775 84.7445 115.749C84.6726 115.72 84.6386 115.641 84.6686 115.571C85.2666 114.187 85.6272 113.353 86.2252 111.968C86.2715 111.863 86.3297 111.743 86.4163 111.638C86.5012 111.537 86.627 111.445 86.7912 111.435H86.8045C86.8075 111.435 86.8087 111.436 86.8119 111.436C87.602 110.244 88.3925 109.05 89.1828 107.857L89.3773 107.816L89.3884 107.865C89.5167 107.668 89.5478 107.444 89.5197 107.233C89.4579 106.772 89.1167 106.395 88.8837 106.627C88.5365 106.974 83.5378 111.578 83.2489 112.159C83.2355 112.186 83.2237 112.234 83.2123 112.29C82.9863 113.451 83.2489 120.465 83.2489 120.465C83.2489 120.465 81.0142 130.513 79.2202 139.125C78.7116 141.566 78.2403 143.884 77.8634 145.833L76.0781 146.638C75.1006 148.507 73.2652 150.111 73.2652 150.111C73.2652 150.111 73.1938 150.623 73.0889 151.481C75.1561 154.08 77.0003 155.537 77.8367 155.521C79.7875 156.086 87.06 153.661 88.092 149.884C90.0346 142.779 87.6233 120.775 87.6233 120.775L86.388 120.686C86.5846 120.02 87.2207 117.721 87.3392 115.46Z" fill="#F68776"/>
<path d="M89.1828 107.856C88.3925 109.049 87.6021 110.243 86.8119 111.435C86.8088 111.435 86.8076 111.434 86.8046 111.434H86.7912C86.627 111.444 86.5013 111.536 86.4163 111.637C86.3297 111.741 86.2716 111.861 86.2253 111.967C85.6272 113.352 85.2667 114.186 84.6686 115.57C84.6386 115.64 84.6727 115.719 84.7446 115.748C84.8096 115.774 84.8787 115.745 84.9145 115.689C84.9181 115.683 84.9262 115.682 84.9287 115.674C85.527 114.29 85.8873 113.456 86.4852 112.072C86.5266 111.976 86.5777 111.877 86.6351 111.809C86.685 111.752 86.7316 111.724 86.7819 111.714L86.7852 111.728L86.8076 111.724C86.854 111.767 86.9394 111.892 87.0021 112.064C87.0778 112.262 87.1353 112.519 87.1357 112.791L87.1356 112.88C87.1353 113.885 87.1079 115.085 86.4683 116.578C86.4656 116.583 86.464 116.589 86.4613 116.595C86.4313 116.664 86.4652 116.744 86.5371 116.773C86.609 116.802 86.6914 116.768 86.7214 116.699C87.0403 115.962 87.211 115.291 87.3048 114.68C87.3665 114.275 87.3948 113.899 87.407 113.548L87.4543 113.54C87.5221 113.448 87.5899 113.354 87.6578 113.263C88.4821 112.137 89.3065 111.013 90.1308 109.889L90.0972 109.699L89.9008 109.731C89.0962 110.829 88.292 111.926 87.4876 113.024C87.4636 113.057 87.4398 113.089 87.416 113.122C87.4164 113.06 87.417 112.996 87.4173 112.937C87.4173 112.918 87.4175 112.898 87.4175 112.88L87.4176 112.791C87.4175 112.726 87.4025 112.668 87.3972 112.606C87.3893 112.513 87.3843 112.419 87.3673 112.334C87.8583 111.692 88.3494 111.049 88.8401 110.406C88.8836 110.35 88.9271 110.293 88.9704 110.235C89.3403 109.751 89.7105 109.267 90.0805 108.783L90.0508 108.593L90.0506 108.592L89.8537 108.621C88.9921 109.748 88.1311 110.876 87.2697 112.005C87.255 111.964 87.2451 111.915 87.2294 111.879C87.1765 111.759 87.1182 111.659 87.0557 111.582C87.0544 111.581 87.0527 111.58 87.0514 111.578C87.8411 110.387 88.6308 109.195 89.4202 108.002L89.3884 107.864L89.3774 107.814L89.1828 107.856Z" fill="#2C2B68"/>
<path d="M109.005 201.309C108.201 197.021 101.573 193.641 101.573 193.641C101.357 193.546 101.133 193.449 100.904 193.354C100.288 193.095 99.6248 192.836 98.9227 192.579L98.7994 196.95L97.6157 238.929C102.474 227.695 110.287 208.15 109.005 201.309Z" fill="#5670C0"/>
<path d="M89.319 271.974C89.2525 271.838 89.1906 271.695 89.1266 271.554C88.0637 269.223 87.3967 266.387 87.0288 264.442C86.7729 263.089 86.659 262.165 86.659 262.165L87.0288 261.402L93.2614 248.541V247.21C93.0952 247.217 92.8927 247.217 92.6655 247.212C91.9448 247.191 90.9316 247.083 89.6009 246.732C86.7175 245.969 81.641 242.971 81.641 242.971L81.0064 246.671L80.8198 247.758L78.8412 259.293C78.8412 259.293 78.4373 259.727 77.9317 260.432C77.1038 261.589 76.0026 263.478 75.9507 265.407C75.9165 266.679 76.7648 268.872 77.9317 271.155C78.0327 271.352 78.1321 271.549 78.2374 271.747C79.8876 274.851 82.0427 277.995 83.3361 279.129C85.6645 281.178 92.1346 281.66 93.219 279.752C93.2375 279.719 93.2452 279.687 93.2614 279.656V278.087C92.6671 276.604 90.7185 274.825 89.319 271.974Z" fill="#2C2B68"/>
<path d="M55.2389 101.854C55.3612 101.688 56.1129 101.522 56.2534 101.688C56.3938 101.854 56.6176 105.232 56.5348 105.469C56.452 105.708 55.6883 105.823 55.5752 105.667C55.4621 105.512 55.1173 102.02 55.2389 101.854ZM56.5351 107.15C59.2756 106.728 62.3215 106.351 65.1916 106.41C65.3152 106.413 65.4393 106.413 65.562 106.417C66.0832 106.435 66.6 106.463 67.1049 106.514C67.2808 106.514 67.4528 106.498 67.6211 106.478C68.4084 106.378 69.0596 106.099 69.0596 106.099C69.0596 106.099 69.0576 106.092 69.0571 106.091C68.9156 106.138 68.7685 106.166 68.6137 106.148C65.2205 105.843 61.8159 105.932 58.4562 106.388C57.8137 106.475 57.2048 105.975 57.1145 105.246C56.9791 104.05 56.8438 102.843 56.7087 101.646C56.6185 100.918 57.1599 100.244 57.8923 100.179C58.4108 100.134 58.9295 100.092 59.4481 100.069C60.1771 100.023 60.9067 99.9998 61.6361 99.9868C61.3194 99.9782 61.0025 99.9782 60.6857 99.9767C59.1132 99.9709 57.5388 100.042 55.9668 100.204C55.2316 100.279 54.698 101.029 54.7834 101.841C54.8017 102.019 54.8198 102.198 54.8379 102.377L55.2075 105.949C55.3238 106.716 55.9044 107.245 56.5351 107.15Z" fill="#E1ECF4"/>
<path d="M57.4217 105.073L57.0219 101.55L57.7677 101.344L58.1504 105.073H57.4217ZM59.1099 104.615C58.986 103.507 58.8619 102.408 58.738 101.31C58.6701 100.776 58.9747 100.266 59.448 100.07C58.9293 100.093 58.4107 100.135 57.8922 100.179C57.1598 100.244 56.6184 100.918 56.7086 101.646C56.8437 102.843 56.979 104.05 57.1143 105.247C57.2047 105.975 57.8136 106.475 58.4561 106.389C61.8158 105.932 65.2204 105.844 68.6136 106.149C68.7684 106.166 68.9155 106.139 69.057 106.091C69.3697 105.988 69.6389 105.753 69.7862 105.432L69.6396 105.442C67.5412 105.251 65.4333 105.237 63.3354 105.371C63.0845 105.387 62.8329 105.394 62.5819 105.414H62.5822C61.8324 105.477 61.0842 105.556 60.3387 105.66C59.7414 105.747 59.1887 105.279 59.1099 104.615Z" fill="#1E1F42"/>
<path d="M69.9718 100.91L64.3305 105.319C64.1549 105.326 63.9795 105.337 63.8038 105.346L69.7413 100.706C69.823 100.77 69.9073 100.831 69.9718 100.91ZM63.3454 105.371C63.3424 105.371 63.3391 105.371 63.3359 105.371C65.4338 105.236 67.5418 105.251 69.6401 105.441L69.7867 105.431C69.8433 105.3 69.8881 105.158 69.9108 105.006C70.0236 103.963 70.1475 102.929 70.2604 101.886C70.3393 101.179 69.8433 100.526 69.1328 100.429C69.2681 100.448 69.3864 100.503 69.5038 100.558L63.3454 105.371Z" fill="#2C2B68"/>
<path d="M66.6972 100.177C65.0157 100.029 63.327 99.9586 61.6364 99.9875C60.9071 100.001 60.1775 100.024 59.4484 100.07C58.9752 100.266 58.6706 100.777 58.7384 101.31C58.8624 102.409 58.9864 103.507 59.1104 104.616C59.1892 105.279 59.7418 105.747 60.3391 105.661C60.1472 105.688 59.9674 105.642 59.7988 105.568L66.6972 100.177Z" fill="#2C2B68"/>
<path d="M66.6972 100.177L59.7988 105.568C59.9674 105.642 60.1472 105.688 60.3392 105.661C60.8244 105.593 61.3119 105.551 61.799 105.501L68.3935 100.348C68.0896 100.31 67.7853 100.28 67.4814 100.247C67.2266 100.218 66.9726 100.183 66.717 100.161L66.6972 100.177Z" fill="#383686"/>
<path d="M63.336 105.372C63.3391 105.372 63.3424 105.372 63.3454 105.372L69.5038 100.559C69.3865 100.504 69.2681 100.449 69.1328 100.43L68.9832 100.413L62.5828 105.415H62.5825C62.8335 105.395 63.0851 105.388 63.336 105.372Z" fill="#383686"/>
<path d="M64.3304 105.318L69.9717 100.91C69.9073 100.83 69.8229 100.77 69.7412 100.706L63.8037 105.346C63.9795 105.337 64.1548 105.325 64.3304 105.318Z" fill="#383686"/>
<path d="M57.0225 101.549L57.4223 105.073H58.151L57.7683 101.344L57.0225 101.549Z" fill="#0F0F19"/>
<path d="M56.5354 105.47C56.6181 105.233 56.3944 101.855 56.254 101.689C56.1134 101.523 55.3618 101.689 55.2395 101.855C55.1178 102.021 55.4626 105.513 55.5758 105.668C55.6889 105.824 56.4525 105.708 56.5354 105.47Z" fill="#ACB3D2"/>
<path d="M54.2873 102.371L54.7253 105.83L54.4683 105.861L54.0306 102.402L54.2873 102.371ZM50.3532 106.492C50.7189 106.486 51.4605 106.421 52.2634 106.339C52.3587 106.329 52.4535 106.319 52.5499 106.309C52.8775 106.275 53.2043 106.239 53.5152 106.205C53.8624 106.166 54.1869 106.128 54.4561 106.098C54.9111 106.044 55.2139 106.007 55.2139 106.007L55.2078 105.949L54.8383 102.377L54.8063 102.068C54.8063 102.068 49.3725 103.109 48.4895 103.538C48.4176 103.573 48.3662 103.606 48.3602 103.632C48.2804 103.976 49.6765 106.405 50.1505 106.485C50.1821 106.491 50.2346 106.492 50.3 106.492C50.3009 106.492 50.3024 106.492 50.3035 106.492C50.3177 106.492 50.3377 106.492 50.3532 106.492Z" fill="#0F0F19"/>
<path d="M54.725 105.831L54.287 102.372L54.0303 102.403L54.468 105.861L54.725 105.831Z" fill="#24253C"/>
<path d="M168.126 246.671H133.058V191.318H168.126V246.671ZM171.109 181.737H103.568H99.2281L98.958 191.318H101.821H102.3H127.353L128.801 246.671H108.933L108.742 247.758H128.829L129.365 268.213H133.058V247.758H168.126V272.916V278.278H171.109L171.268 273.098L172.049 247.758H287.23V246.671H172.082L174.08 181.737H173.879H171.109Z" fill="#728BC2"/>
<path d="M74.4873 174.011C74.4873 174.011 74.5092 174.066 74.5514 174.152C74.784 174.631 75.7249 176.182 78.0818 176.287H103.568H153.29C156.009 176.284 157.543 173.998 157.543 173.998L96.4443 174.006L84.2725 174.008L74.4873 174.011Z" fill="#E1ECF4"/>
<path d="M55.7931 221.408L56.11 231.758L56.5669 246.672L56.6002 247.759L57.3554 272.406L57.5478 278.688H60.53V272.278V247.759V246.672V231.758V221.41V215.196V191.319H93.2617V203.557V247.199V247.211V248.542V271.506V278.088V279.656V280.954H96.4301L96.6975 271.475L96.8397 266.433L96.9085 263.991L97.2225 252.852L97.4637 244.306L97.6153 238.929L98.799 196.95L98.9223 192.579L98.9578 191.319L99.228 181.738L99.2299 181.673H93.2617V181.738H57.5863H54.5776L54.613 182.888L55.5941 214.911L55.7931 221.408Z" fill="#ACB3D2"/>
<path d="M93.2617 181.737V181.672H99.2299L99.228 181.737H103.568C102.548 181.737 101.718 180.517 101.718 179.013C101.718 177.508 102.548 176.287 103.568 176.287H78.0815H73.9019H50.9893C49.4313 176.287 48.1655 177.508 48.1655 179.013C48.1655 180.517 49.4313 181.737 50.9893 181.737H54.5776H57.5863H93.2617Z" fill="#E97448"/>
<path d="M101.719 179.013C101.719 180.517 102.548 181.737 103.568 181.737H171.109H173.879H174.081H174.851C175.875 181.737 176.7 180.517 176.7 179.013C176.7 177.508 175.875 176.287 174.851 176.287H173.879H153.291H103.568C102.548 176.287 101.719 177.508 101.719 179.013Z" fill="#F7A048"/>
<path d="M251.532 95.1775H246.232V93.6675H251.532V95.1775ZM251.532 98.6236H246.232V97.1136H251.532V98.6236ZM251.532 102.168H246.232V100.658H251.532V102.168ZM251.532 118.282H246.232V116.772H251.532V118.282ZM251.532 121.728H246.232V120.218H251.532V121.728ZM251.532 125.273H246.232V123.763H251.532V125.273ZM245.24 82.6506C245.173 82.7085 245.108 82.768 245.041 82.8243C244.746 83.0751 244.445 83.3147 244.131 83.5447C244.069 83.5897 244.008 83.6347 243.944 83.6782C243.619 83.9113 243.283 84.1332 242.937 84.3407C242.887 84.3712 242.836 84.4002 242.787 84.4291C242.422 84.6446 242.05 84.8456 241.669 85.0305C241.639 85.0466 241.607 85.0595 241.575 85.074C241.172 85.2669 240.76 85.4454 240.338 85.6062C240.337 85.6062 240.337 85.6062 240.337 85.6062C238.551 86.2816 236.612 86.666 234.578 86.666C225.85 86.666 218.775 79.8413 218.775 71.423C218.775 63.0047 225.85 56.1801 234.578 56.1801C235.745 56.1801 236.88 56.3119 237.976 56.5435C237.979 56.5435 237.981 56.5435 237.984 56.5451C238.326 56.6175 238.664 56.7027 238.998 56.796C239.218 56.8587 239.435 56.9262 239.65 56.997C239.855 57.0629 240.055 57.1369 240.257 57.2108C240.572 57.3282 240.882 57.4553 241.189 57.5903C241.385 57.6788 241.584 57.7688 241.779 57.8653C241.977 57.965 242.176 58.0647 242.371 58.1725C242.612 58.3043 242.846 58.4426 243.077 58.5874C243.316 58.7337 243.548 58.8865 243.778 59.0457C243.946 59.163 244.114 59.2837 244.28 59.4075C244.458 59.5409 244.635 59.6744 244.806 59.8159C245.06 60.0234 245.307 60.2405 245.545 60.464C245.703 60.6103 245.855 60.7599 246.005 60.9126C246.157 61.067 246.304 61.223 246.447 61.3822C246.66 61.6154 246.864 61.855 247.062 62.0994C247.199 62.2698 247.334 62.4419 247.464 62.6188C247.591 62.7909 247.716 62.9661 247.836 63.143C247.992 63.3762 248.141 63.6142 248.284 63.8554C248.419 64.0821 248.546 64.3137 248.669 64.5469C248.766 64.7318 248.859 64.9167 248.948 65.1049C249.038 65.2946 249.128 65.4828 249.209 65.6757C249.231 65.7272 249.246 65.7819 249.268 65.8317C249.413 66.1855 249.543 66.5441 249.661 66.9091C249.693 67.004 249.721 67.0989 249.75 67.1938C249.875 67.6038 249.986 68.0203 250.075 68.4449C250.09 68.5204 250.096 68.5992 250.111 68.6764C250.188 69.08 250.258 69.4869 250.301 69.9034C250.355 70.4035 250.381 70.91 250.381 71.423C250.381 71.9231 250.355 72.4168 250.303 72.9056C250.263 73.3157 250.196 73.7193 250.12 74.1181C250.105 74.1905 250.1 74.2661 250.085 74.3401C250.038 74.5684 249.978 74.7919 249.921 75.0154C249.871 75.2148 249.821 75.4126 249.765 75.6072C249.693 75.8436 249.618 76.0768 249.536 76.3099C249.478 76.4772 249.411 76.6428 249.348 76.8085C249.161 77.2828 248.951 77.7444 248.719 78.1946C248.714 78.2059 248.709 78.2155 248.704 78.2252C248.661 78.3104 248.623 78.3988 248.576 78.4825C248.379 78.8459 248.162 79.1981 247.936 79.5422C247.904 79.592 247.874 79.6435 247.841 79.6917C247.627 80.0133 247.396 80.3205 247.157 80.6228C247.104 80.6903 247.054 80.7595 246.999 80.8254C246.762 81.1165 246.512 81.3963 246.253 81.6697C246.19 81.7372 246.127 81.8064 246.063 81.8723C245.798 82.1424 245.523 82.3997 245.24 82.6506ZM241.657 91.7314H218.775V90.2214H241.657V91.7314ZM241.657 95.1775H218.775V93.6675H241.657V95.1775ZM241.657 102.168H218.775V100.658H241.657V102.168ZM241.657 105.614H218.775V104.106H241.657V105.614ZM241.657 114.836H218.775V113.326H241.657V114.836ZM241.657 118.282H218.775V116.772H241.657V118.282ZM241.657 125.273H218.775V123.763H241.657V125.273ZM241.657 128.719H218.775V127.21H241.657V128.719ZM230.217 132.165H218.775V130.656H230.217V132.165ZM207.959 73.3752H203.18V70.7315L193.533 67.2983V68.2422H188.75V67.1954L177.273 70.82V73.3752H172.493V70.7798L161.9 67.242V68.2422H157.121V63.6319H161.9V66.2289L172.493 69.7651V68.7649H177.273V69.8117L188.75 66.1871V63.6319H193.533V66.2772L203.18 69.7088V68.7649H207.959V73.3752ZM199.875 106.487V96.3273H204.655V106.487H199.875ZM192.511 106.487V90.4482H197.291V106.487H192.511ZM207.959 115.664H190.319V114.799H207.959V115.664ZM207.959 118.252H190.319V117.385H207.959V118.252ZM207.959 120.839H190.319V119.972H207.959V120.839ZM207.959 126.139H190.319V125.273H207.959V126.139ZM207.959 128.727H190.319V127.86H207.959V128.727ZM207.959 131.314H190.319V130.447H207.959V131.314ZM189.925 106.487H185.145V86.1675H189.925V106.487ZM187.75 121.73H180.559V113.883H187.75V121.73ZM177.781 106.487V78.6529H182.561V106.487H177.781ZM187.75 132.203H180.559V124.356H187.75V132.203ZM175.197 106.487H170.416V93.1674H175.197V106.487ZM163.052 106.487V86.1675H167.831V106.487H163.052ZM174.073 115.664H156.431V114.799H174.073V115.664ZM174.073 118.252H156.431V117.385H174.073V118.252ZM174.073 120.839H156.431V119.972H174.073V120.839ZM174.073 126.139H156.431V125.273H174.073V126.139ZM174.073 128.727H156.431V127.86H174.073V128.727ZM174.073 131.314H156.431V130.447H174.073V131.314ZM153.862 121.73H146.672V113.883H153.862V121.73ZM153.862 132.203H146.672V124.356H153.862V132.203ZM145.358 66.1469H138.424V64.341H145.358V66.1469ZM145.358 69.9146H138.424V68.1088H145.358V69.9146ZM145.358 73.7885H138.424V71.9826H145.358V73.7885ZM145.358 92.0305H138.424V90.2262H145.358V92.0305ZM145.358 95.7982H138.424V93.9924H145.358V95.7982ZM145.358 99.6737H138.424V97.8678H145.358V99.6737ZM132.735 132.916C130.792 132.916 110.121 132.916 107.407 132.916C104.693 132.916 102.493 130.793 102.493 128.175C102.493 125.559 104.693 123.436 107.407 123.436C107.615 123.436 107.814 123.472 108.016 123.496C107.942 123.283 107.892 123.058 107.892 122.822C107.892 121.643 108.884 120.686 110.106 120.686C110.334 120.686 110.55 120.73 110.757 120.791C110.896 116.972 114.142 113.915 118.136 113.915C121.816 113.915 124.859 116.51 125.426 119.905C126.037 119.641 126.711 119.487 127.424 119.487C130.138 119.487 132.338 121.609 132.338 124.226C132.338 124.953 132.155 125.634 131.851 126.249C132.135 126.178 132.428 126.128 132.735 126.128C134.678 126.128 136.253 127.648 136.253 129.521C136.253 131.395 134.678 132.916 132.735 132.916ZM102.493 105.403H117.464V107.209H102.493V105.403ZM102.493 101.636H132.436V103.441H102.493V101.636ZM102.493 97.8678H132.436V99.6737H102.493V97.8678ZM102.493 93.9924H117.464V95.7982H102.493V93.9924ZM102.493 90.2262H132.436V92.0305H102.493V90.2262ZM102.493 86.4585H132.436V88.2628H102.493V86.4585ZM102.493 79.5181H117.464V81.3239H102.493V79.5181ZM102.493 75.7503H132.436V77.5562H102.493V75.7503ZM102.493 71.9826H132.436V73.7885H102.493V71.9826ZM102.493 68.1088H117.464V69.9146H102.493V68.1088ZM102.493 64.341H132.436V66.1469H102.493V64.341ZM102.493 60.5733H132.436V62.3792H102.493V60.5733ZM218.775 120.218H230.217V121.728H218.775V120.218ZM218.775 107.552H230.217V109.06H218.775V107.552ZM218.775 97.1136H230.217V98.6236H218.775V97.1136ZM261.087 65.7272V55.8231V49.3329H92.3135V60.2951V79.9924V87.15V94.4056V134.603C92.3135 139.168 96.1517 142.871 100.886 142.871H252.514C257.249 142.871 261.087 139.168 261.087 134.603V100.994V91.1042V65.7272Z" fill="#E1ECF4"/>
<path d="M251.839 45.786C249.764 45.786 248.081 44.1626 248.081 42.1619C248.081 40.1612 249.764 38.5394 251.839 38.5394C253.913 38.5394 255.594 40.1612 255.594 42.1619C255.594 44.1626 253.913 45.786 251.839 45.786ZM242.133 45.786C240.059 45.786 238.377 44.1626 238.377 42.1619C238.377 40.1612 240.059 38.5394 242.133 38.5394C244.209 38.5394 245.89 40.1612 245.89 42.1619C245.89 44.1626 244.209 45.786 242.133 45.786ZM232.428 45.786C230.353 45.786 228.67 44.1626 228.67 42.1619C228.67 40.1612 230.353 38.5394 232.428 38.5394C234.504 38.5394 236.185 40.1612 236.185 42.1619C236.185 44.1626 234.504 45.786 232.428 45.786ZM255.23 35.7872C254.974 35.7042 254.711 35.6343 254.444 35.5741C254.392 35.5627 254.338 35.5513 254.286 35.5399C254.061 35.4944 253.834 35.4586 253.604 35.4309C253.533 35.4212 253.461 35.4098 253.388 35.4017C253.112 35.3756 252.832 35.3577 252.549 35.3577C252.537 35.3577 252.525 35.3561 252.513 35.3561H100.886C97.0023 35.3561 93.7216 37.8465 92.6681 41.2624C92.5978 41.4901 92.5374 41.7227 92.4875 41.9586C92.3732 42.4954 92.3135 43.0533 92.3135 43.6242V49.332H261.087V43.6242C261.087 43.0533 261.026 42.4954 260.913 41.9586C260.849 41.6642 260.767 41.3795 260.674 41.0981C260.647 41.0216 260.62 40.9468 260.593 40.872C260.51 40.6459 260.417 40.423 260.313 40.2067C260.289 40.1546 260.267 40.101 260.242 40.0489C260.107 39.7789 259.957 39.5154 259.793 39.2616C259.78 39.2405 259.765 39.221 259.751 39.1998C259.594 38.9623 259.424 38.7346 259.245 38.5134C259.218 38.4825 259.193 38.4499 259.166 38.4174C258.338 37.4366 257.286 36.6379 256.08 36.106C255.808 35.9856 255.527 35.8831 255.24 35.7904C255.238 35.7888 255.235 35.7888 255.23 35.7872Z" fill="#7E96C8"/>
<path d="M232.428 38.5372C230.354 38.5372 228.671 40.1603 228.671 42.1612C228.671 44.162 230.354 45.7852 232.428 45.7852C234.504 45.7852 236.187 44.162 236.187 42.1612C236.187 40.1603 234.504 38.5372 232.428 38.5372Z" fill="#E1ECF4"/>
<path d="M242.134 38.5372C240.059 38.5372 238.378 40.1603 238.378 42.1612C238.378 44.162 240.059 45.7852 242.134 45.7852C244.21 45.7852 245.891 44.162 245.891 42.1612C245.891 40.1603 244.21 38.5372 242.134 38.5372Z" fill="#E1ECF4"/>
<path d="M251.839 38.5372C249.764 38.5372 248.082 40.1603 248.082 42.1612C248.082 44.162 249.764 45.7852 251.839 45.7852C253.913 45.7852 255.594 44.162 255.594 42.1612C255.594 40.1603 253.913 38.5372 251.839 38.5372Z" fill="#E1ECF4"/>
<path d="M132.436 60.5729H102.494V62.3789H132.436V60.5729Z" fill="#434E89"/>
<path d="M132.436 64.3413H102.494V66.1465H132.436V64.3413Z" fill="#434E89"/>
<path d="M117.465 68.1078H102.494V69.9131H117.465V68.1078Z" fill="#434E89"/>
<path d="M132.436 71.9828H102.494V73.7881H132.436V71.9828Z" fill="#434E89"/>
<path d="M132.436 75.7524H102.494V77.5576H132.436V75.7524Z" fill="#434E89"/>
<path d="M117.465 79.518H102.494V81.3232H117.465V79.518Z" fill="#434E89"/>
<path d="M138.425 66.1465H145.359V64.3413H138.425V66.1465Z" fill="#434E89"/>
<path d="M138.424 73.7881H145.358V71.9828H138.424V73.7881Z" fill="#434E89"/>
<path d="M138.424 69.9131H145.358V68.1078H138.424V69.9131Z" fill="#434E89"/>
<path d="M132.436 86.4584H102.494V88.2637H132.436V86.4584Z" fill="#434E89"/>
<path d="M132.436 90.226H102.494V92.0312H132.436V90.226Z" fill="#434E89"/>
<path d="M117.465 93.9926H102.494V95.7979H117.465V93.9926Z" fill="#434E89"/>
<path d="M132.436 97.8662H102.494V99.6729H132.436V97.8662Z" fill="#434E89"/>
<path d="M132.436 101.635H102.494V103.44H132.436V101.635Z" fill="#434E89"/>
<path d="M117.465 105.403H102.494V107.208H117.465V105.403Z" fill="#434E89"/>
<path d="M138.424 92.0312H145.358V90.226H138.424V92.0312Z" fill="#434E89"/>
<path d="M138.424 99.6729H145.358V97.8662H138.424V99.6729Z" fill="#434E89"/>
<path d="M138.424 95.7979H145.358V93.9926H138.424V95.7979Z" fill="#434E89"/>
<path d="M218.774 91.7305H241.657V90.221H218.774V91.7305Z" fill="#434E89"/>
<path d="M218.774 95.1768H241.657V93.6672H218.774V95.1768Z" fill="#434E89"/>
<path d="M230.216 97.1136H218.775V98.624H230.216V97.1136Z" fill="#434E89"/>
<path d="M218.774 102.168H241.657V100.658H218.774V102.168Z" fill="#434E89"/>
<path d="M218.774 105.614H241.657V104.105H218.774V105.614Z" fill="#434E89"/>
<path d="M230.216 107.55H218.775V109.061H230.216V107.55Z" fill="#434E89"/>
<path d="M246.232 95.1768H251.532V93.6671H246.232V95.1768Z" fill="#434E89"/>
<path d="M246.232 102.168H251.532V100.658H246.232V102.168Z" fill="#434E89"/>
<path d="M246.232 98.624H251.532V97.1144H246.232V98.624Z" fill="#434E89"/>
<path d="M218.774 114.835H241.657V113.327H218.774V114.835Z" fill="#434E89"/>
<path d="M218.774 118.282H241.657V116.773H218.774V118.282Z" fill="#434E89"/>
<path d="M230.216 120.219H218.775V121.728H230.216V120.219Z" fill="#434E89"/>
<path d="M218.774 125.273H241.657V123.764H218.774V125.273Z" fill="#434E89"/>
<path d="M218.774 128.72H241.657V127.21H218.774V128.72Z" fill="#434E89"/>
<path d="M218.775 132.166H230.216V130.657H218.775V132.166Z" fill="#434E89"/>
<path d="M246.232 118.281H251.532V116.772H246.232V118.281Z" fill="#434E89"/>
<path d="M246.232 125.272H251.532V123.764H246.232V125.272Z" fill="#434E89"/>
<path d="M246.232 121.728H251.532V120.218H246.232V121.728Z" fill="#434E89"/>
<path d="M193.532 66.2773V67.2977L203.18 70.7305V69.7101L193.532 66.2773Z" fill="#434E89"/>
<path d="M161.9 66.2279V67.2425L172.493 70.7793V69.7661L161.9 66.2279Z" fill="#434E89"/>
<path d="M177.274 69.8129V70.8203L188.751 67.1968V66.1879L177.274 69.8129Z" fill="#434E89"/>
<path d="M161.901 63.6314H157.123V68.2422H161.901V67.241V66.2281V63.6314Z" fill="#E97448"/>
<path d="M193.534 63.6314H188.752V66.1874V67.1945V68.2422H193.534V67.2976V66.2761V63.6314Z" fill="#5670C0"/>
<path d="M177.273 68.7643H172.493V73.375H177.273V70.8196V69.8122V68.7643Z" fill="#C42F58"/>
<path d="M203.18 69.7096V73.375H207.96V68.7643H203.18V69.7096Z" fill="#2C2B68"/>
<path d="M163.051 86.166V106.486H167.832V86.166H163.051Z" fill="#E97448"/>
<path d="M170.417 106.486H175.197V93.1674H170.417V106.486Z" fill="#7E96C8"/>
<path d="M199.875 96.3269V106.486H204.656V96.3269H199.875Z" fill="#ACB3D2"/>
<path d="M185.146 106.486H189.926V86.166H185.146V106.486Z" fill="#F7A048"/>
<path d="M192.511 90.4486V106.486H197.291V90.4486H192.511Z" fill="#ACB3D2"/>
<path d="M182.562 78.6531H177.782V106.486H182.562V78.6531Z" fill="#434E89"/>
<path d="M237.977 56.5424C236.882 56.3115 235.746 56.1796 234.579 56.1796C225.852 56.1796 218.776 63.004 218.776 71.4231C218.776 79.8407 225.852 86.665 234.579 86.665C236.613 86.665 238.551 86.2813 240.338 85.6053L234.579 71.4231L237.977 56.5424Z" fill="#ACB3D2"/>
<path d="M249.267 65.8324C249.411 66.1852 249.545 66.5441 249.662 66.9092C249.543 66.5441 249.412 66.1852 249.267 65.8324Z" fill="#ACB3D2"/>
<path d="M250.304 72.9059C250.263 73.3151 250.194 73.7182 250.12 74.1182C250.198 73.7197 250.264 73.3167 250.304 72.9059Z" fill="#ACB3D2"/>
<path d="M249.209 65.6742C249.128 65.482 249.037 65.2928 248.948 65.1037C248.859 64.9161 248.766 64.73 248.669 64.5455C248.546 64.3117 248.42 64.081 248.285 63.855C248.141 63.6135 247.993 63.3752 247.835 63.143C247.715 62.9646 247.591 62.7908 247.464 62.6171C247.333 62.4418 247.199 62.2695 247.062 62.0988C246.864 61.8528 246.66 61.6144 246.448 61.3807C246.304 61.2223 246.156 61.0654 246.006 60.9117C245.855 60.7594 245.703 60.6087 245.546 60.4626C245.306 60.2396 245.059 60.0228 244.807 59.8137C244.635 59.6737 244.458 59.54 244.28 59.4062C244.114 59.2831 243.946 59.1617 243.777 59.0433C243.548 58.8849 243.315 58.7326 243.078 58.585C242.845 58.442 242.612 58.302 242.37 58.1713C242.175 58.0637 241.977 57.9637 241.778 57.8638C241.584 57.7684 241.386 57.6777 241.188 57.59C240.882 57.4532 240.571 57.3271 240.256 57.2102C240.055 57.1349 239.854 57.0626 239.65 56.9949C239.434 56.9257 239.218 56.8565 238.999 56.795C238.664 56.7012 238.326 56.6166 237.984 56.5428C237.98 56.5428 237.979 56.5428 237.977 56.5413V56.5428L234.578 71.4209L249.209 65.6742Z" fill="#5670C0"/>
<path d="M234.578 71.4224L250.086 74.3389C250.1 74.2663 250.105 74.1906 250.119 74.118C250.193 73.7179 250.262 73.3147 250.304 72.9054C250.355 72.4172 250.382 71.9229 250.382 71.4224C250.382 70.9096 250.355 70.4029 250.302 69.9024C250.259 69.4869 250.188 69.0806 250.113 68.6759C250.097 68.5987 250.091 68.5199 250.076 68.4442C249.988 68.0209 249.874 67.6054 249.751 67.1945C249.722 67.0987 249.693 67.003 249.663 66.9087C249.546 66.5442 249.413 66.1858 249.269 65.8321C249.248 65.7811 249.232 65.727 249.21 65.676L234.578 71.4224Z" fill="#7E96C8"/>
<path d="M234.578 71.4228L248.575 78.4834C248.622 78.3985 248.66 78.3106 248.703 78.2257C248.708 78.2165 248.715 78.2057 248.719 78.1964C248.95 77.7443 249.161 77.283 249.347 76.8093C249.411 76.6442 249.478 76.4791 249.535 76.3094C249.618 76.0779 249.694 75.8449 249.764 75.6073C249.82 75.4129 249.871 75.2154 249.921 75.0164C249.977 74.7926 250.038 74.5689 250.084 74.3405L234.578 71.4228Z" fill="#2C2B68"/>
<path d="M247.001 80.8254C247.055 80.7594 247.106 80.6904 247.158 80.6229C247.397 80.3192 247.629 80.0123 247.842 79.6917C247.875 79.6426 247.906 79.5905 247.937 79.5414C248.163 79.1962 248.381 78.8449 248.577 78.4829L234.579 71.4217L240.338 85.6055C240.338 85.6055 240.338 85.6055 240.34 85.6055C240.761 85.4459 241.173 85.2664 241.577 85.0732C241.609 85.0593 241.641 85.0455 241.669 85.0302C242.053 84.8446 242.423 84.6436 242.787 84.4289C242.837 84.3997 242.888 84.3706 242.939 84.3414C243.284 84.1328 243.619 83.9104 243.947 83.6787C244.009 83.6342 244.071 83.5897 244.131 83.5437C244.445 83.3151 244.748 83.0758 245.041 82.8242C245.109 82.766 245.175 82.7077 245.241 82.6494C245.525 82.3993 245.8 82.1416 246.064 81.8716C246.127 81.8056 246.191 81.7366 246.255 81.6691C246.514 81.3961 246.764 81.1169 247.001 80.8254Z" fill="#C42F58"/>
<path d="M132.736 126.128C132.428 126.128 132.136 126.177 131.851 126.249C132.155 125.633 132.338 124.953 132.338 124.226C132.338 121.608 130.138 119.486 127.424 119.486C126.711 119.486 126.038 119.641 125.426 119.905C124.859 116.51 121.816 113.914 118.136 113.914C114.142 113.914 110.897 116.971 110.757 120.791C110.55 120.729 110.334 120.686 110.106 120.686C108.884 120.686 107.892 121.643 107.892 122.822C107.892 123.059 107.942 123.282 108.016 123.496C107.814 123.471 107.616 123.436 107.407 123.436C104.694 123.436 102.494 125.558 102.494 128.176C102.494 130.793 104.694 132.915 107.407 132.915C110.121 132.915 130.792 132.915 132.736 132.915C134.678 132.915 136.253 131.395 136.253 129.521C136.253 127.647 134.678 126.128 132.736 126.128Z" fill="#7E96C8"/>
<path d="M146.673 121.729H153.863V113.88H146.673V121.729Z" fill="#5670C0"/>
<path d="M156.431 115.665H174.073V114.799H156.431V115.665Z" fill="#7E96C8"/>
<path d="M156.431 118.253H174.073V117.386H156.431V118.253Z" fill="#7E96C8"/>
<path d="M156.431 120.839H174.073V119.973H156.431V120.839Z" fill="#7E96C8"/>
<path d="M146.673 132.203H153.863V124.356H146.673V132.203Z" fill="#434E89"/>
<path d="M156.431 126.139H174.073V125.271H156.431V126.139Z" fill="#7E96C8"/>
<path d="M156.431 128.727H174.073V127.861H156.431V128.727Z" fill="#7E96C8"/>
<path d="M156.431 131.313H174.073V130.446H156.431V131.313Z" fill="#7E96C8"/>
<path d="M180.56 121.729H187.749V113.88H180.56V121.729Z" fill="#5670C0"/>
<path d="M190.318 115.665H207.96V114.799H190.318V115.665Z" fill="#7E96C8"/>
<path d="M190.318 118.253H207.96V117.386H190.318V118.253Z" fill="#7E96C8"/>
<path d="M190.318 120.839H207.96V119.973H190.318V120.839Z" fill="#7E96C8"/>
<path d="M180.56 132.203H187.749V124.356H180.56V132.203Z" fill="#434E89"/>
<path d="M190.318 126.139H207.96V125.271H190.318V126.139Z" fill="#7E96C8"/>
<path d="M190.318 128.727H207.96V127.861H190.318V128.727Z" fill="#7E96C8"/>
<path d="M190.318 131.313H207.96V130.446H190.318V131.313Z" fill="#7E96C8"/>
<path d="M275.764 17.4238H276.575V14.1493H279.97V13.3689H276.575V10.0944H275.764V13.3689H272.371V14.1493H275.764V17.4238Z" fill="white"/>
<path d="M149.863 17.4238H150.673V14.1493H154.067V13.3689H150.673V10.0944H149.863V13.3689H146.468V14.1493H149.863V17.4238Z" fill="white"/>
<path d="M20.9276 13.7598H21.738V10.4854H25.1315V9.7042H21.738V6.42979H20.9276V9.7042H17.5337V10.4854H20.9276V13.7598Z" fill="white"/>
<path d="M25.5369 91.0264V87.7526H28.9309V86.9707H25.5369V83.697H24.7265V86.9707H21.333V87.7526H24.7265V91.0264H25.5369Z" fill="white"/>
<path d="M4.20395 149.852V146.578H7.59829V145.796H4.20395V142.522H3.39353V145.796H0V146.578H3.39353V149.852H4.20395Z" fill="white"/>
<path d="M221.999 174.561V171.287H225.393V170.505H221.999V167.231H221.188V170.505H217.794V171.287H221.188V174.561H221.999Z" fill="white"/>
<path d="M276.574 138.768V135.494H279.968V134.712H276.574V131.438H275.764V134.712H272.369V135.494H275.764V138.768H276.574Z" fill="white"/>
</svg>
