<svg width="402" height="49" viewBox="0 0 402 49" fill="none" xmlns="http://www.w3.org/2000/svg">
<path d="M3.2376 33.3296C4.62521 33.3296 5.7501 32.2502 5.7501 30.9187C5.7501 29.5872 4.62521 28.5078 3.2376 28.5078C1.84998 28.5078 0.725098 29.5872 0.725098 30.9187C0.725098 32.2502 1.84998 33.3296 3.2376 33.3296Z" fill="#002857"/>
<path d="M3.2376 5.60447C4.62521 5.60447 5.7501 4.52508 5.7501 3.19359C5.7501 1.8621 4.62521 0.782715 3.2376 0.782715C1.84998 0.782715 0.725098 1.8621 0.725098 3.19359C0.725098 4.52508 1.84998 5.60447 3.2376 5.60447Z" fill="#002857"/>
<path d="M34.6438 33.3296C36.0315 33.3296 37.1563 32.2502 37.1563 30.9187C37.1563 29.5872 36.0315 28.5078 34.6438 28.5078C33.2562 28.5078 32.1313 29.5872 32.1313 30.9187C32.1313 32.2502 33.2562 33.3296 34.6438 33.3296Z" fill="#002857"/>
<path d="M34.6438 5.60447C36.0315 5.60447 37.1563 4.52508 37.1563 3.19359C37.1563 1.8621 36.0315 0.782715 34.6438 0.782715C33.2562 0.782715 32.1313 1.8621 32.1313 3.19359C32.1313 4.52508 33.2562 5.60447 34.6438 5.60447Z" fill="#002857"/>
<path d="M66.0501 33.3296C67.4377 33.3296 68.5626 32.2502 68.5626 30.9187C68.5626 29.5872 67.4377 28.5078 66.0501 28.5078C64.6625 28.5078 63.5376 29.5872 63.5376 30.9187C63.5376 32.2502 64.6625 33.3296 66.0501 33.3296Z" fill="#002857"/>
<path d="M66.0501 5.60447C67.4377 5.60447 68.5626 4.52508 68.5626 3.19359C68.5626 1.8621 67.4377 0.782715 66.0501 0.782715C64.6625 0.782715 63.5376 1.8621 63.5376 3.19359C63.5376 4.52508 64.6625 5.60447 66.0501 5.60447Z" fill="#002857"/>
<path d="M97.4563 33.3296C98.844 33.3296 99.9688 32.2502 99.9688 30.9187C99.9688 29.5872 98.844 28.5078 97.4563 28.5078C96.0687 28.5078 94.9438 29.5872 94.9438 30.9187C94.9438 32.2502 96.0687 33.3296 97.4563 33.3296Z" fill="#002857"/>
<path d="M97.4563 5.60447C98.844 5.60447 99.9688 4.52508 99.9688 3.19359C99.9688 1.8621 98.844 0.782715 97.4563 0.782715C96.0687 0.782715 94.9438 1.8621 94.9438 3.19359C94.9438 4.52508 96.0687 5.60447 97.4563 5.60447Z" fill="#002857"/>
<path d="M128.863 33.3296C130.25 33.3296 131.375 32.2502 131.375 30.9187C131.375 29.5872 130.25 28.5078 128.863 28.5078C127.475 28.5078 126.35 29.5872 126.35 30.9187C126.35 32.2502 127.475 33.3296 128.863 33.3296Z" fill="#002857"/>
<path d="M128.863 5.60447C130.25 5.60447 131.375 4.52508 131.375 3.19359C131.375 1.8621 130.25 0.782715 128.863 0.782715C127.475 0.782715 126.35 1.8621 126.35 3.19359C126.35 4.52508 127.475 5.60447 128.863 5.60447Z" fill="#002857"/>
<path d="M160.269 33.3296C161.656 33.3296 162.781 32.2502 162.781 30.9187C162.781 29.5872 161.656 28.5078 160.269 28.5078C158.881 28.5078 157.756 29.5872 157.756 30.9187C157.756 32.2502 158.881 33.3296 160.269 33.3296Z" fill="#002857"/>
<path d="M160.269 5.60447C161.656 5.60447 162.781 4.52508 162.781 3.19359C162.781 1.8621 161.656 0.782715 160.269 0.782715C158.881 0.782715 157.756 1.8621 157.756 3.19359C157.756 4.52508 158.881 5.60447 160.269 5.60447Z" fill="#002857"/>
<path d="M191.675 33.3296C193.063 33.3296 194.188 32.2502 194.188 30.9187C194.188 29.5872 193.063 28.5078 191.675 28.5078C190.287 28.5078 189.163 29.5872 189.163 30.9187C189.163 32.2502 190.287 33.3296 191.675 33.3296Z" fill="#002857"/>
<path d="M191.675 5.60447C193.063 5.60447 194.188 4.52508 194.188 3.19359C194.188 1.8621 193.063 0.782715 191.675 0.782715C190.287 0.782715 189.163 1.8621 189.163 3.19359C189.163 4.52508 190.287 5.60447 191.675 5.60447Z" fill="#002857"/>
<path d="M223.081 33.3296C224.469 33.3296 225.594 32.2502 225.594 30.9187C225.594 29.5872 224.469 28.5078 223.081 28.5078C221.694 28.5078 220.569 29.5872 220.569 30.9187C220.569 32.2502 221.694 33.3296 223.081 33.3296Z" fill="#002857"/>
<path d="M223.081 5.60447C224.469 5.60447 225.594 4.52508 225.594 3.19359C225.594 1.8621 224.469 0.782715 223.081 0.782715C221.694 0.782715 220.569 1.8621 220.569 3.19359C220.569 4.52508 221.694 5.60447 223.081 5.60447Z" fill="#002857"/>
<path d="M254.488 33.3296C255.875 33.3296 257 32.2502 257 30.9187C257 29.5872 255.875 28.5078 254.488 28.5078C253.1 28.5078 251.975 29.5872 251.975 30.9187C251.975 32.2502 253.1 33.3296 254.488 33.3296Z" fill="#002857"/>
<path d="M254.488 5.60447C255.875 5.60447 257 4.52508 257 3.19359C257 1.8621 255.875 0.782715 254.488 0.782715C253.1 0.782715 251.975 1.8621 251.975 3.19359C251.975 4.52508 253.1 5.60447 254.488 5.60447Z" fill="#002857"/>
<path d="M285.894 33.3296C287.281 33.3296 288.406 32.2502 288.406 30.9187C288.406 29.5872 287.281 28.5078 285.894 28.5078C284.506 28.5078 283.381 29.5872 283.381 30.9187C283.381 32.2502 284.506 33.3296 285.894 33.3296Z" fill="#002857"/>
<path d="M285.894 5.60447C287.281 5.60447 288.406 4.52508 288.406 3.19359C288.406 1.8621 287.281 0.782715 285.894 0.782715C284.506 0.782715 283.381 1.8621 283.381 3.19359C283.381 4.52508 284.506 5.60447 285.894 5.60447Z" fill="#002857"/>
<path d="M317.3 33.3296C318.688 33.3296 319.813 32.2502 319.813 30.9187C319.813 29.5872 318.688 28.5078 317.3 28.5078C315.912 28.5078 314.788 29.5872 314.788 30.9187C314.788 32.2502 315.912 33.3296 317.3 33.3296Z" fill="#002857"/>
<path d="M317.3 5.60447C318.688 5.60447 319.813 4.52508 319.813 3.19359C319.813 1.8621 318.688 0.782715 317.3 0.782715C315.912 0.782715 314.788 1.8621 314.788 3.19359C314.788 4.52508 315.912 5.60447 317.3 5.60447Z" fill="#002857"/>
<path d="M348.706 33.3296C350.094 33.3296 351.219 32.2502 351.219 30.9187C351.219 29.5872 350.094 28.5078 348.706 28.5078C347.319 28.5078 346.194 29.5872 346.194 30.9187C346.194 32.2502 347.319 33.3296 348.706 33.3296Z" fill="#002857"/>
<path d="M348.706 5.60447C350.094 5.60447 351.219 4.52508 351.219 3.19359C351.219 1.8621 350.094 0.782715 348.706 0.782715C347.319 0.782715 346.194 1.8621 346.194 3.19359C346.194 4.52508 347.319 5.60447 348.706 5.60447Z" fill="#002857"/>
<path d="M380.113 33.3296C381.5 33.3296 382.625 32.2502 382.625 30.9187C382.625 29.5872 381.5 28.5078 380.113 28.5078C378.725 28.5078 377.6 29.5872 377.6 30.9187C377.6 32.2502 378.725 33.3296 380.113 33.3296Z" fill="#002857"/>
<path d="M380.113 5.60447C381.5 5.60447 382.625 4.52508 382.625 3.19359C382.625 1.8621 381.5 0.782715 380.113 0.782715C378.725 0.782715 377.6 1.8621 377.6 3.19359C377.6 4.52508 378.725 5.60447 380.113 5.60447Z" fill="#002857"/>
</svg>
