<svg width="341" height="56" viewBox="0 0 341 56" fill="none" xmlns="http://www.w3.org/2000/svg">
<path d="M23.6751 55.4502C25.0627 55.4502 26.1876 54.3708 26.1876 53.0393C26.1876 51.7078 25.0627 50.6284 23.6751 50.6284C22.2875 50.6284 21.1626 51.7078 21.1626 53.0393C21.1626 54.3708 22.2875 55.4502 23.6751 55.4502Z" fill="#002857"/>
<path d="M23.6751 27.7251C25.0627 27.7251 26.1876 26.6457 26.1876 25.3142C26.1876 23.9827 25.0627 22.9033 23.6751 22.9033C22.2875 22.9033 21.1626 23.9827 21.1626 25.3142C21.1626 26.6457 22.2875 27.7251 23.6751 27.7251Z" fill="#002857"/>
<path d="M55.0813 55.4502C56.469 55.4502 57.5938 54.3708 57.5938 53.0393C57.5938 51.7078 56.469 50.6284 55.0813 50.6284C53.6937 50.6284 52.5688 51.7078 52.5688 53.0393C52.5688 54.3708 53.6937 55.4502 55.0813 55.4502Z" fill="#002857"/>
<path d="M55.0813 27.7251C56.469 27.7251 57.5938 26.6457 57.5938 25.3142C57.5938 23.9827 56.469 22.9033 55.0813 22.9033C53.6937 22.9033 52.5688 23.9827 52.5688 25.3142C52.5688 26.6457 53.6937 27.7251 55.0813 27.7251Z" fill="#002857"/>
<path d="M86.4876 55.4502C87.8752 55.4502 89.0001 54.3708 89.0001 53.0393C89.0001 51.7078 87.8752 50.6284 86.4876 50.6284C85.1 50.6284 83.9751 51.7078 83.9751 53.0393C83.9751 54.3708 85.1 55.4502 86.4876 55.4502Z" fill="#002857"/>
<path d="M86.4876 27.7251C87.8752 27.7251 89.0001 26.6457 89.0001 25.3142C89.0001 23.9827 87.8752 22.9033 86.4876 22.9033C85.1 22.9033 83.9751 23.9827 83.9751 25.3142C83.9751 26.6457 85.1 27.7251 86.4876 27.7251Z" fill="#002857"/>
<path d="M117.894 55.4502C119.281 55.4502 120.406 54.3708 120.406 53.0393C120.406 51.7078 119.281 50.6284 117.894 50.6284C116.506 50.6284 115.381 51.7078 115.381 53.0393C115.381 54.3708 116.506 55.4502 117.894 55.4502Z" fill="#002857"/>
<path d="M117.894 27.7251C119.281 27.7251 120.406 26.6457 120.406 25.3142C120.406 23.9827 119.281 22.9033 117.894 22.9033C116.506 22.9033 115.381 23.9827 115.381 25.3142C115.381 26.6457 116.506 27.7251 117.894 27.7251Z" fill="#002857"/>
<path d="M149.3 55.4502C150.688 55.4502 151.813 54.3708 151.813 53.0393C151.813 51.7078 150.688 50.6284 149.3 50.6284C147.912 50.6284 146.788 51.7078 146.788 53.0393C146.788 54.3708 147.912 55.4502 149.3 55.4502Z" fill="#002857"/>
<path d="M149.3 27.7251C150.688 27.7251 151.813 26.6457 151.813 25.3142C151.813 23.9827 150.688 22.9033 149.3 22.9033C147.912 22.9033 146.788 23.9827 146.788 25.3142C146.788 26.6457 147.912 27.7251 149.3 27.7251Z" fill="#002857"/>
<path d="M180.706 55.4502C182.094 55.4502 183.219 54.3708 183.219 53.0393C183.219 51.7078 182.094 50.6284 180.706 50.6284C179.319 50.6284 178.194 51.7078 178.194 53.0393C178.194 54.3708 179.319 55.4502 180.706 55.4502Z" fill="#002857"/>
<path d="M180.706 27.7251C182.094 27.7251 183.219 26.6457 183.219 25.3142C183.219 23.9827 182.094 22.9033 180.706 22.9033C179.319 22.9033 178.194 23.9827 178.194 25.3142C178.194 26.6457 179.319 27.7251 180.706 27.7251Z" fill="#002857"/>
<path d="M212.113 55.4502C213.5 55.4502 214.625 54.3708 214.625 53.0393C214.625 51.7078 213.5 50.6284 212.113 50.6284C210.725 50.6284 209.6 51.7078 209.6 53.0393C209.6 54.3708 210.725 55.4502 212.113 55.4502Z" fill="#002857"/>
<path d="M212.113 27.7251C213.5 27.7251 214.625 26.6457 214.625 25.3142C214.625 23.9827 213.5 22.9033 212.113 22.9033C210.725 22.9033 209.6 23.9827 209.6 25.3142C209.6 26.6457 210.725 27.7251 212.113 27.7251Z" fill="#002857"/>
<path d="M243.519 55.4502C244.906 55.4502 246.031 54.3708 246.031 53.0393C246.031 51.7078 244.906 50.6284 243.519 50.6284C242.131 50.6284 241.006 51.7078 241.006 53.0393C241.006 54.3708 242.131 55.4502 243.519 55.4502Z" fill="#002857"/>
<path d="M243.519 27.7251C244.906 27.7251 246.031 26.6457 246.031 25.3142C246.031 23.9827 244.906 22.9033 243.519 22.9033C242.131 22.9033 241.006 23.9827 241.006 25.3142C241.006 26.6457 242.131 27.7251 243.519 27.7251Z" fill="#002857"/>
<path d="M274.925 55.4502C276.313 55.4502 277.438 54.3708 277.438 53.0393C277.438 51.7078 276.313 50.6284 274.925 50.6284C273.537 50.6284 272.413 51.7078 272.413 53.0393C272.413 54.3708 273.537 55.4502 274.925 55.4502Z" fill="#002857"/>
<path d="M274.925 27.7251C276.313 27.7251 277.438 26.6457 277.438 25.3142C277.438 23.9827 276.313 22.9033 274.925 22.9033C273.537 22.9033 272.413 23.9827 272.413 25.3142C272.413 26.6457 273.537 27.7251 274.925 27.7251Z" fill="#002857"/>
<path d="M306.331 55.4502C307.719 55.4502 308.844 54.3708 308.844 53.0393C308.844 51.7078 307.719 50.6284 306.331 50.6284C304.944 50.6284 303.819 51.7078 303.819 53.0393C303.819 54.3708 304.944 55.4502 306.331 55.4502Z" fill="#002857"/>
<path d="M306.331 27.7251C307.719 27.7251 308.844 26.6457 308.844 25.3142C308.844 23.9827 307.719 22.9033 306.331 22.9033C304.944 22.9033 303.819 23.9827 303.819 25.3142C303.819 26.6457 304.944 27.7251 306.331 27.7251Z" fill="#002857"/>
<path d="M337.738 55.4502C339.125 55.4502 340.25 54.3708 340.25 53.0393C340.25 51.7078 339.125 50.6284 337.738 50.6284C336.35 50.6284 335.225 51.7078 335.225 53.0393C335.225 54.3708 336.35 55.4502 337.738 55.4502Z" fill="#002857"/>
<path d="M337.738 27.7251C339.125 27.7251 340.25 26.6457 340.25 25.3142C340.25 23.9827 339.125 22.9033 337.738 22.9033C336.35 22.9033 335.225 23.9827 335.225 25.3142C335.225 26.6457 336.35 27.7251 337.738 27.7251Z" fill="#002857"/>
</svg>
