<svg width="89" height="42" viewBox="0 0 89 42" fill="none" xmlns="http://www.w3.org/2000/svg">
<path d="M34.627 28.9878L36.085 39.4358C36.371 41.4878 37.99 42.1038 39.297 40.6588L47.5269 31.5608" fill="#323232"/>
<path d="M77.3339 34H6.32692C2.24892 34 -0.763082 30.197 0.170918 26.228L5.1949 4.87601C5.8669 2.01901 8.41591 0 11.3509 0H82.3579C86.4359 0 89.4479 3.803 88.5139 7.772L83.4899 29.124C82.8169 31.981 80.2679 34 77.3339 34Z" fill="#323232"/>
<path d="M69.2168 30.625H74.0438C76.9908 30.625 79.5628 28.624 80.2858 25.767L81.8828 19.459" fill="#323232"/>
<path d="M69.2168 30.625H74.0438C76.9908 30.625 79.5628 28.624 80.2858 25.767L81.8828 19.459" stroke="#DBE2EF" stroke-width="0.6645" stroke-miterlimit="10" stroke-linecap="round" stroke-linejoin="round"/>
<path d="M82.6602 16.3389C82.8272 15.5889 82.9942 14.8389 83.1612 14.0889L82.6602 16.3389Z" fill="#323232"/>
<path d="M82.6602 16.3389C82.8272 15.5889 82.9942 14.8389 83.1612 14.0889" stroke="#DBE2EF" stroke-width="0.6645" stroke-miterlimit="10" stroke-linecap="round" stroke-linejoin="round"/>
<path d="M16.5088 6.83301H77.6088" stroke="#DBE2EF" stroke-width="0.6645" stroke-miterlimit="10" stroke-linecap="round" stroke-linejoin="round"/>
<path d="M14.0088 14.833H54.0208" stroke="#DBE2EF" stroke-width="0.6645" stroke-miterlimit="10" stroke-linecap="round" stroke-linejoin="round"/>
<path d="M12.0088 21.833H64.0518" stroke="#DBE2EF" stroke-width="0.6645" stroke-miterlimit="10" stroke-linecap="round" stroke-linejoin="round"/>
</svg>
