<svg width="52" height="27" viewBox="0 0 52 27" fill="none" xmlns="http://www.w3.org/2000/svg">
<path d="M43.2083 26.334H3.99226C1.49826 26.334 -0.384724 24.072 0.0672761 21.619L1.60228 13.285L3.26326 4.268C3.61226 2.374 5.26328 1 7.18828 1H46.4043C48.8983 1 50.7813 3.262 50.3293 5.715L48.8973 13.489L47.1333 23.065C46.7853 24.959 45.1343 26.334 43.2083 26.334Z" fill="#505050"/>
<path d="M3.86523 1.00098L23.1982 15.334L51.1982 1.00098" fill="#505050"/>
<path d="M3.86523 1.00098L23.1982 15.334L51.1982 1.00098" stroke="#DBE2EF" stroke-width="0.6645" stroke-miterlimit="10"/>
<path d="M5.19824 23.834H26.7213" stroke="#DBE2EF" stroke-width="0.6645" stroke-miterlimit="10" stroke-linecap="round" stroke-linejoin="round"/>
<path d="M29.6982 23.834C29.8652 23.834 30.0312 23.834 30.1982 23.834H33.2393" fill="#505050"/>
<path d="M29.6982 23.834C29.8652 23.834 30.0312 23.834 30.1982 23.834H33.2393" stroke="#DBE2EF" stroke-width="0.6645" stroke-miterlimit="10" stroke-linecap="round" stroke-linejoin="round"/>
</svg>
