<svg width="75" height="54" viewBox="0 0 75 54" fill="none" xmlns="http://www.w3.org/2000/svg">
<path d="M60.6182 45.181H9.52717C3.61017 45.181 -0.874839 39.843 0.145161 34.014L4.71917 7.882C5.51717 3.324 9.47416 0 14.1012 0H65.1922C71.1092 0 75.5942 5.338 74.5742 11.167L70.0002 37.299C69.2022 41.856 65.2452 45.181 60.6182 45.181Z" fill="#463F38"/>
<path d="M46.457 41.4258H56.866C60.858 41.4258 64.332 38.7378 65.382 34.8858C66.296 31.5338 66.637 28.2288 67.456 25.0928" fill="#463F38"/>
<path d="M46.457 41.4258H56.866C60.858 41.4258 64.332 38.7378 65.382 34.8858C66.296 31.5338 66.637 28.2288 67.456 25.0928" stroke="#DBE2EF" stroke-width="0.6645" stroke-miterlimit="10" stroke-linecap="round" stroke-linejoin="round"/>
<path d="M25.5039 42.4381L30.5069 52.2761C31.4899 54.2081 33.7449 54.4381 34.9829 52.7331L42.7789 41.9951" fill="#463F38"/>
<path d="M22.7299 24.3031C24.2128 24.3031 25.4149 23.101 25.4149 21.6181C25.4149 20.1352 24.2128 18.9331 22.7299 18.9331C21.247 18.9331 20.0449 20.1352 20.0449 21.6181C20.0449 23.101 21.247 24.3031 22.7299 24.3031Z" fill="#463F38" stroke="#DBE2EF" stroke-width="0.6645" stroke-miterlimit="10"/>
<path d="M40.0438 21.6181C40.0438 23.1011 38.8418 24.3031 37.3588 24.3031C35.8758 24.3031 34.6738 23.1011 34.6738 21.6181C34.6738 20.1351 35.8758 18.9331 37.3588 18.9331C38.8418 18.9331 40.0438 20.1361 40.0438 21.6181Z" fill="#463F38" stroke="#DBE2EF" stroke-width="0.6645" stroke-miterlimit="10"/>
<path d="M51.9897 24.3031C53.4726 24.3031 54.6747 23.101 54.6747 21.6181C54.6747 20.1352 53.4726 18.9331 51.9897 18.9331C50.5068 18.9331 49.3047 20.1352 49.3047 21.6181C49.3047 23.101 50.5068 24.3031 51.9897 24.3031Z" fill="#463F38" stroke="#DBE2EF" stroke-width="0.6645" stroke-miterlimit="10"/>
<path d="M68.3232 21.1002C68.5962 19.8212 68.8692 18.5422 69.1422 17.2632L68.3232 21.1002Z" fill="#463F38"/>
<path d="M68.3232 21.1002C68.5962 19.8212 68.8692 18.5422 69.1422 17.2632" stroke="#DBE2EF" stroke-width="0.6645" stroke-miterlimit="10" stroke-linecap="round" stroke-linejoin="round"/>
</svg>
