<svg width="48" height="33" viewBox="0 0 48 33" fill="none" xmlns="http://www.w3.org/2000/svg">
<path d="M27.0199 30.5375L27.1009 30.4785C27.4979 30.1895 27.5849 29.6325 27.2959 29.2365L22.7489 22.9955C22.4599 22.5985 21.9039 22.5115 21.5069 22.8005C18.8909 24.7065 15.2249 24.1305 13.3189 21.5145L8.44389 14.8235C6.53789 12.2075 7.11389 8.54155 9.72989 6.63555C10.1269 6.34655 10.2139 5.79055 9.9249 5.39355L6.26189 0.365547C5.97289 -0.0314529 5.4169 -0.118453 5.0199 0.170547L4.93889 0.229549C-0.422112 4.13555 -1.60211 11.6475 2.30389 17.0095L10.2409 27.9045C14.1459 33.2635 21.6579 34.4435 27.0199 30.5375Z" fill="#011843"/>
<path d="M25.9414 12.0444C27.3221 12.0444 28.4414 10.9251 28.4414 9.54443C28.4414 8.16372 27.3221 7.04443 25.9414 7.04443C24.5607 7.04443 23.4414 8.16372 23.4414 9.54443C23.4414 10.9251 24.5607 12.0444 25.9414 12.0444Z" stroke="#1054D7" stroke-miterlimit="10"/>
<path d="M44.9414 12.0444C46.3221 12.0444 47.4414 10.9251 47.4414 9.54443C47.4414 8.16372 46.3221 7.04443 44.9414 7.04443C43.5607 7.04443 42.4414 8.16372 42.4414 9.54443C42.4414 10.9251 43.5607 12.0444 44.9414 12.0444Z" stroke="#1054D7" stroke-miterlimit="10"/>
<path d="M34.9414 12.0444C36.3221 12.0444 37.4414 10.9251 37.4414 9.54443C37.4414 8.16372 36.3221 7.04443 34.9414 7.04443C33.5607 7.04443 32.4414 8.16372 32.4414 9.54443C32.4414 10.9251 33.5607 12.0444 34.9414 12.0444Z" stroke="#011843" stroke-miterlimit="10"/>
</svg>
