<svg width="1437" height="701" viewBox="0 0 1437 701" fill="none" xmlns="http://www.w3.org/2000/svg">
<path opacity="0.0571429" d="M-3.78388 601.501C70.8107 428.623 248.95 381.948 316.749 363.164C587.165 214.276 562.689 137.281 573.627 139.466C661.748 112.889 842.743 63.3197 861.754 77.6588" stroke="#25569C"/>
<path opacity="0.114286" d="M-2.94543 600.726C105.869 431.792 292.533 392.164 363.78 376.07C662.735 238.384 653.76 160.962 664.212 163.546C757.247 140.478 947.332 98.0823 963.39 113.048" stroke="#25569C"/>
<path opacity="0.171429" d="M-2.38092 599.884C139.622 436.129 333.3 403.828 407.417 390.535C732.414 265.046 738.932 187.766 748.818 190.73C846.011 171.334 1043.65 136.412 1056.64 151.894" stroke="#25569C"/>
<path opacity="0.228571" d="M-2.07576 598.964C171.841 441.577 370.974 416.822 447.365 406.423C795.722 294.023 817.608 217.45 826.853 220.773C927.418 205.183 1131.01 177.973 1140.85 193.856" stroke="#25569C"/>
<path opacity="0.285714" d="M-2.01311 597.955C202.313 448.069 405.307 431.021 483.358 423.584C852.23 325.057 889.247 249.75 897.781 253.405C1000.91 241.725 1208.83 222.406 1215.46 238.573" stroke="#25569C"/>
<path opacity="0.342857" d="M-2.17458 596.852C230.839 455.536 436.076 446.293 515.165 441.862C901.563 357.881 953.366 284.386 961.124 288.345C1065.99 280.647 1276.58 269.332 1279.95 285.664" stroke="#25569C"/>
<path opacity="0.4" d="M-2.53931 595.644C257.237 463.896 463.088 462.495 542.587 461.09C943.407 392.212 1009.54 321.057 1016.47 325.291C1122.24 321.614 1333.82 318.355 1333.92 334.732" stroke="#25569C"/>
<path opacity="0.457143" d="M-3.08563 594.326C281.341 473.065 486.18 479.481 565.461 481.098C977.506 427.756 1057.42 359.452 1063.46 363.929C1169.3 364.283 1380.21 369.066 1377.03 385.368" stroke="#25569C"/>
<path opacity="0.514286" d="M-3.79025 592.89C303.004 482.953 505.221 497.097 583.66 501.71C1003.67 464.216 1096.71 399.249 1101.81 403.934C1206.89 408.295 1415.46 421.044 1409.05 437.152" stroke="#25569C"/>
<path opacity="0.571429" d="M-4.62891 591.331C322.098 493.462 520.11 515.188 597.093 522.745C1021.76 501.286 1127.17 440.115 1131.3 444.972C1234.8 453.286 1439.4 473.862 1429.81 489.659" stroke="#25569C"/>
<path opacity="0.628571" d="M-5.57561 589.645C338.517 504.494 530.782 533.594 605.708 544.022C1031.71 538.658 1148.67 481.712 1151.8 486.705C1252.9 498.886 1451.94 527.089 1439.24 542.459" stroke="#25569C"/>
<path opacity="0.685714" d="M-6.60425 587.828C352.175 515.946 537.201 552.155 609.492 565.358C1033.52 576.025 1161.12 523.7 1163.21 528.791C1261.14 544.723 1453.07 580.294 1437.37 595.126" stroke="#25569C"/>
<path opacity="0.742857" d="M-7.68786 585.877C363.005 527.711 539.369 570.711 608.465 586.571C1027.26 613.079 1164.5 565.737 1165.55 570.886C1259.54 590.424 1442.89 633.048 1424.31 647.234" stroke="#25569C"/>
<path opacity="0.8" d="M-8.79932 583.791C370.967 539.683 537.315 589.103 602.688 607.481C1013.03 649.521 1158.86 607.481 1158.86 612.65C1248.2 635.623 1421.56 684.928 1400.24 698.367" stroke="#25569C"/>
</svg>
