<svg width="60" height="61" viewBox="0 0 60 61" fill="none" xmlns="http://www.w3.org/2000/svg">
<g clip-path="url(#clip0_798_519)">
<path d="M30 60.3628C46.5685 60.3628 60 46.9313 60 30.3628C60 13.7943 46.5685 0.362793 30 0.362793C13.4315 0.362793 0 13.7943 0 30.3628C0 46.9313 13.4315 60.3628 30 60.3628Z" fill="white"/>
<path d="M30 55.3628C43.8071 55.3628 55 44.1699 55 30.3628C55 16.5557 43.8071 5.36279 30 5.36279C16.1929 5.36279 5 16.5557 5 30.3628C5 44.1699 16.1929 55.3628 30 55.3628Z" fill="#00BBFF"/>
<path d="M24.8619 20.3872H19.5078V25.3775H24.8619V20.3872Z" fill="white"/>
<path d="M28.4903 20.3872H26.7324V22.0255H28.4903V20.3872Z" fill="white"/>
<path d="M41.0719 20.3872H30.3691V30.3626H41.0719V20.3872Z" fill="#4B4C4D"/>
<path d="M41.0719 29.7339V30.3626H30.3691V20.3872H31.0121V29.7339H41.0719Z" fill="white"/>
<path d="M24.8619 27.9028H19.5078V32.8931H24.8619V27.9028Z" fill="#4B4C4D"/>
<path d="M28.5919 32.5059H26.834V34.1442H28.5919V32.5059Z" fill="white"/>
<path d="M39.1679 32.6992H37.6172V34.1447H39.1679V32.6992Z" fill="#4B4C4D"/>
<path d="M34.0117 32.6992H32.4609V34.1447H34.0117V32.6992Z" fill="#4B4C4D"/>
<path d="M28.2831 26.1899H26.7324V27.6355H28.2831V26.1899Z" fill="#4B4C4D"/>
<path d="M24.8619 35.6411H19.5078V40.6315H24.8619V35.6411Z" fill="white"/>
<path d="M32.9654 35.6411H27.6113V40.6315H32.9654V35.6411Z" fill="#4B4C4D"/>
<path d="M41.0709 35.6411H35.7168V40.6315H41.0709V35.6411Z" fill="white"/>
<path d="M36.8945 20.3872V23.6762L39.8894 24.1161V20.3872H36.8945Z" fill="#42A2DA"/>
</g>
<defs>
<clipPath id="clip0_798_519">
<rect width="60" height="60.6122" fill="white" transform="translate(0 -0.000976562)"/>
</clipPath>
</defs>
</svg>
