<svg width="60" height="61" viewBox="0 0 60 61" fill="none" xmlns="http://www.w3.org/2000/svg">
<g clip-path="url(#clip0_798_497)">
<path d="M30 60.3628C46.5685 60.3628 60 46.9313 60 30.3628C60 13.7943 46.5685 0.362793 30 0.362793C13.4315 0.362793 0 13.7943 0 30.3628C0 46.9313 13.4315 60.3628 30 60.3628Z" fill="white"/>
<path d="M30 55.3628C43.8071 55.3628 55 44.1699 55 30.3628C55 16.5557 43.8071 5.36279 30 5.36279C16.1929 5.36279 5 16.5557 5 30.3628C5 44.1699 16.1929 55.3628 30 55.3628Z" fill="#FD8A4B"/>
<path d="M36.0408 27.0054H24.5694C22.5042 27.0054 20.8301 28.6656 20.8301 30.7136C20.8301 32.7616 22.5042 34.4219 24.5694 34.4219H36.0408C38.1059 34.4219 39.78 32.7616 39.78 30.7136C39.78 28.6656 38.1059 27.0054 36.0408 27.0054Z" fill="#03121C"/>
<path d="M36.0408 26.3032H24.5694C22.5042 26.3032 20.8301 27.9634 20.8301 30.0115C20.8301 32.0595 22.5042 33.7198 24.5694 33.7198H36.0408C38.1059 33.7198 39.78 32.0595 39.78 30.0115C39.78 27.9634 38.1059 26.3032 36.0408 26.3032Z" fill="#0D5C9C"/>
<path d="M35.9195 33.2073C37.699 33.2073 39.1416 31.7767 39.1416 30.0118C39.1416 28.247 37.699 26.8164 35.9195 26.8164C34.1399 26.8164 32.6973 28.247 32.6973 30.0118C32.6973 31.7767 34.1399 33.2073 35.9195 33.2073Z" fill="#42A2DA"/>
<path d="M36.5415 27.3179L34.3164 30.4997H35.9307L35.2544 33.0742L37.8731 29.7473H36.2798L36.5415 27.3179Z" fill="white"/>
<path d="M35.1718 18.7402H20.0137V20.1008H35.1718V18.7402Z" fill="#42A2DA"/>
<path d="M43.5738 18.7402H39.0137V20.1008H43.5738V18.7402Z" fill="#0D5C9C"/>
<path d="M31.6438 21.3096H17.0391V22.6181H31.6438V21.3096Z" fill="#42A2DA"/>
<path d="M40.8387 21.3096H35.1895V22.6181H40.8387V21.3096Z" fill="#42A2DA"/>
<path d="M38.9484 23.8579H24.3438V25.1664H38.9484V23.8579Z" fill="#0D5C9C"/>
<path d="M35.5949 35.4512H20.9902V36.7597H35.5949V35.4512Z" fill="#0D5C9C"/>
<path d="M42.0637 35.4512H39.7812V36.7597H42.0637V35.4512Z" fill="#0D5C9C"/>
<path d="M28.2916 37.9951H17.0391V39.3036H28.2916V37.9951Z" fill="#42A2DA"/>
<path d="M41.201 40.5386H28.293V41.8471H41.201V40.5386Z" fill="#0D5C9C"/>
</g>
<defs>
<clipPath id="clip0_798_497">
<rect width="60" height="60.6122" fill="white" transform="translate(0 -0.000976562)"/>
</clipPath>
</defs>
</svg>
