<svg width="60" height="61" viewBox="0 0 60 61" fill="none" xmlns="http://www.w3.org/2000/svg">
<g clip-path="url(#clip0_798_274)">
<path d="M30 60.3628C46.5685 60.3628 60 46.9313 60 30.3628C60 13.7943 46.5685 0.362793 30 0.362793C13.4315 0.362793 0 13.7943 0 30.3628C0 46.9313 13.4315 60.3628 30 60.3628Z" fill="white"/>
<path d="M30 55.3628C43.8071 55.3628 55 44.1699 55 30.3628C55 16.5557 43.8071 5.36279 30 5.36279C16.1929 5.36279 5 16.5557 5 30.3628C5 44.1699 16.1929 55.3628 30 55.3628Z" fill="#FE4500"/>
<path d="M28.0721 35.4674C33.1558 35.4674 37.277 31.4312 37.277 26.4522C37.277 21.4732 33.1558 17.437 28.0721 17.437C22.9883 17.437 18.8672 21.4732 18.8672 26.4522C18.8672 31.4312 22.9883 35.4674 28.0721 35.4674Z" fill="#42A2DA"/>
<path d="M36.2127 43.4415C41.2964 43.4415 45.4176 39.4053 45.4176 34.4263C45.4176 29.4474 41.2964 25.4111 36.2127 25.4111C31.129 25.4111 27.0078 29.4474 27.0078 34.4263C27.0078 39.4053 31.129 43.4415 36.2127 43.4415Z" fill="#0D5C9C"/>
<path d="M37.276 26.4525C37.276 31.4308 33.155 35.4668 28.071 35.4668C27.7303 35.4668 27.3932 35.4489 27.0625 35.4133C27.026 35.0893 27.0078 34.7601 27.0078 34.4263C27.0078 29.4472 31.1296 25.4111 36.2127 25.4111C36.5534 25.4111 36.8905 25.429 37.2213 25.4647C37.2577 25.7886 37.276 26.1188 37.276 26.4525Z" fill="white"/>
</g>
<defs>
<clipPath id="clip0_798_274">
<rect width="60" height="60.6122" fill="white" transform="translate(0 -0.000976562)"/>
</clipPath>
</defs>
</svg>
