<svg width="60" height="61" viewBox="0 0 60 61" fill="none" xmlns="http://www.w3.org/2000/svg">
<g clip-path="url(#clip0_798_478)">
<path d="M30 60.3628C46.5685 60.3628 60 46.9313 60 30.3628C60 13.7943 46.5685 0.362793 30 0.362793C13.4315 0.362793 0 13.7943 0 30.3628C0 46.9313 13.4315 60.3628 30 60.3628Z" fill="white"/>
<path d="M30 55.3628C43.8071 55.3628 55 44.1699 55 30.3628C55 16.5557 43.8071 5.36279 30 5.36279C16.1929 5.36279 5 16.5557 5 30.3628C5 44.1699 16.1929 55.3628 30 55.3628Z" fill="#F3B330"/>
<path d="M21.8787 30.3564H14.2891C14.2851 38.9138 21.3143 45.8545 29.9908 45.8614V38.3759C25.506 38.369 21.8757 34.7797 21.8797 30.3564H21.8787Z" fill="#0D5C9C"/>
<path d="M30.0039 14.8647V22.3443C28.0905 22.3423 26.2379 23.0061 24.7723 24.2186L21.5508 17.2927C24.0743 15.7006 27.0087 14.8578 30.0039 14.8657V14.8647Z" fill="#0D5C9C"/>
<path d="M44.3377 24.0023L34.1966 30.3569L30.002 26.5444V14.8647C36.1867 14.8647 41.7972 18.4403 44.3377 24.0023Z" fill="#0D5C9C"/>
<path d="M45.7084 30.3567C45.7193 38.9092 38.6981 45.8508 30.0267 45.8617C30.0227 45.8617 30.0177 45.8617 30.0137 45.8617V26.5186L34.2083 30.3312L44.3494 23.9766C45.2577 25.9836 45.7203 28.1589 45.7084 30.3567Z" fill="#42A2DA"/>
<path d="M24.7712 24.2184C22.9326 25.7436 21.8727 27.9935 21.8787 30.3635H14.2891C14.2891 25.07 17.029 20.1423 21.5567 17.2983L24.7712 24.2184Z" fill="url(#paint0_linear_798_478)"/>
<path d="M24.7712 24.2184C22.9326 25.7436 21.8727 27.9935 21.8787 30.3635H14.2891C14.2891 25.07 17.029 20.1423 21.5567 17.2983L24.7712 24.2184Z" fill="#42A2DA"/>
<path d="M34.1347 32.2947L31.6641 36.1614L36.2336 39.3003L43.3735 31.1953L36.4868 35.6156L34.1347 32.2947Z" fill="white"/>
<path d="M32.1214 23.1517C32.7061 23.1517 33.1803 22.6841 33.1803 22.1074C33.1803 21.5306 32.7061 21.063 32.1214 21.063C31.5366 21.063 31.0625 21.5306 31.0625 22.1074C31.0625 22.6841 31.5366 23.1517 32.1214 23.1517Z" fill="white"/>
<path d="M35.6175 23.1517C36.2023 23.1517 36.6763 22.6841 36.6763 22.1074C36.6763 21.5306 36.2023 21.063 35.6175 21.063C35.0327 21.063 34.5586 21.5306 34.5586 22.1074C34.5586 22.6841 35.0327 23.1517 35.6175 23.1517Z" fill="white"/>
<path d="M39.1136 23.1517C39.6984 23.1517 40.1724 22.6841 40.1724 22.1074C40.1724 21.5306 39.6984 21.063 39.1136 21.063C38.5288 21.063 38.0547 21.5306 38.0547 22.1074C38.0547 22.6841 38.5288 23.1517 39.1136 23.1517Z" fill="white"/>
</g>
<defs>
<linearGradient id="paint0_linear_798_478" x1="14.2891" y1="23.83" x2="24.7712" y2="23.83" gradientUnits="userSpaceOnUse">
<stop stop-color="#D35400"/>
<stop offset="1" stop-color="#FFB62D"/>
</linearGradient>
<clipPath id="clip0_798_478">
<rect width="60" height="60.6122" fill="white" transform="translate(0 -0.000976562)"/>
</clipPath>
</defs>
</svg>
