<svg width="60" height="61" viewBox="0 0 60 61" fill="none" xmlns="http://www.w3.org/2000/svg">
<g clip-path="url(#clip0_798_463)">
<path d="M30 60.3628C46.5685 60.3628 60 46.9313 60 30.3628C60 13.7943 46.5685 0.362793 30 0.362793C13.4315 0.362793 0 13.7943 0 30.3628C0 46.9313 13.4315 60.3628 30 60.3628Z" fill="white"/>
<path d="M30 55.3628C43.8071 55.3628 55 44.1699 55 30.3628C55 16.5557 43.8071 5.36279 30 5.36279C16.1929 5.36279 5 16.5557 5 30.3628C5 44.1699 16.1929 55.3628 30 55.3628Z" fill="#0091FE"/>
<path d="M37.0865 33.9148L30.3594 38.0725V30.0117L37.0865 25.854V33.9148Z" fill="white"/>
<path opacity="0.25" d="M37.0865 33.9148L30.3594 38.0725V30.0117L37.0865 25.854V33.9148Z" fill="black"/>
<path d="M22.9082 34.8576L30.3572 38.0723V30.0115L22.9082 26.7979V34.8576Z" fill="white"/>
<path d="M22.9082 26.7939L30.3572 30.0076L37.0844 25.8538L29.6353 22.6401L22.9082 26.7939Z" fill="white"/>
<path opacity="0.25" d="M22.9082 26.7939L30.3572 30.0076L37.0844 25.8538L29.6353 22.6401L22.9082 26.7939Z" fill="white"/>
<path d="M27.1851 45.3475C27.1243 45.0308 27.0615 44.7162 27.0026 44.4005C26.872 43.7082 26.7434 43.0149 26.6138 42.3216C26.5819 42.1505 26.553 41.9784 26.5151 41.8093C26.5071 41.7719 26.4682 41.7237 26.4333 41.7139C25.7314 41.4995 25.0594 41.2183 24.4063 40.8869C24.3645 40.8652 24.2836 40.8751 24.2438 40.9026C23.2816 41.5506 22.3215 42.2026 21.3613 42.8536C21.3284 42.8763 21.2945 42.8959 21.2726 42.9097C19.9435 41.5999 18.6174 40.2939 17.2813 38.9772C17.4249 38.7696 17.5785 38.5484 17.732 38.3262C18.2565 37.5729 18.7809 36.8187 19.3074 36.0663C19.3572 35.9946 19.3731 35.9385 19.3283 35.8549C19.0003 35.2511 18.736 34.6208 18.5306 33.9668C18.4887 33.8321 18.414 33.7977 18.2934 33.777C17.6333 33.66 16.9742 33.539 16.3152 33.4172C15.8465 33.3316 15.3799 33.2401 14.9104 33.1595C14.8216 33.1438 14.8066 33.1054 14.8066 33.0297C14.8087 31.2517 14.8087 29.4738 14.8066 27.6968C14.8066 27.6005 14.8415 27.5739 14.9313 27.5572C16.0679 27.3516 17.2036 27.1412 18.3402 26.9347C18.4309 26.918 18.4838 26.8885 18.5137 26.7931C18.729 26.1254 18.9923 25.4754 19.3313 24.8578C19.3801 24.7693 19.3482 24.7132 19.3014 24.6464C18.6433 23.7033 17.9863 22.7602 17.3282 21.8172C17.3083 21.7887 17.2913 21.7591 17.2764 21.7356C18.6074 20.4257 19.9345 19.1207 21.2696 17.808C21.5986 18.0302 21.9406 18.2613 22.2816 18.4924C22.9366 18.9359 23.5897 19.3814 24.2468 19.8209C24.2866 19.8475 24.3664 19.8534 24.4083 19.8317C25.0574 19.5033 25.7264 19.224 26.4223 19.0077C26.4612 18.9958 26.5061 18.9447 26.5141 18.9054C26.7324 17.7637 26.9458 16.622 27.1602 15.4803C27.1662 15.4468 27.1771 15.4134 27.1891 15.3692C27.235 15.3692 27.2778 15.3692 27.3207 15.3692C29.1104 15.3692 30.8991 15.3701 32.6888 15.3662C32.8005 15.3662 32.8275 15.4105 32.8454 15.5029C33.0139 16.4145 33.1844 17.3251 33.3549 18.2367C33.3968 18.459 33.4366 18.6822 33.4875 18.9025C33.4975 18.9447 33.5453 18.9988 33.5872 19.0116C34.2702 19.225 34.9292 19.4945 35.5624 19.8249C35.6521 19.8711 35.71 19.8554 35.7857 19.8032C36.7409 19.1532 37.6981 18.5062 38.6543 17.8591C38.6832 17.8394 38.7141 17.8217 38.7709 17.7863C38.8976 17.9191 39.0242 18.0577 39.1568 18.1895C40.3164 19.3361 41.4769 20.4827 42.6405 21.6264C42.7133 21.6982 42.7232 21.7434 42.6624 21.831C41.9994 22.776 41.3423 23.724 40.6813 24.6699C40.6354 24.7349 40.6305 24.7831 40.6693 24.8548C41.0033 25.4754 41.2695 26.1234 41.4869 26.7921C41.5148 26.8776 41.5547 26.918 41.6464 26.9337C42.6694 27.1176 43.6924 27.3064 44.7154 27.4933C44.832 27.5149 44.9487 27.5454 45.0664 27.5562C45.172 27.566 45.1909 27.6152 45.1909 27.7086C45.188 28.5976 45.189 29.4865 45.189 30.3755C45.189 31.2517 45.1909 32.127 45.196 33.0032C45.196 33.1015 45.177 33.1457 45.0664 33.1654C44.2328 33.3129 43.4012 33.4683 42.5687 33.6217C42.2656 33.6777 41.9625 33.7348 41.6574 33.7849C41.5587 33.8016 41.5118 33.8449 41.4809 33.9413C41.2695 34.5972 41.0093 35.2344 40.6803 35.8421C40.6305 35.9336 40.6404 35.9936 40.6973 36.0742C41.3543 37.0124 42.0054 37.9544 42.6634 38.8916C42.7202 38.9722 42.7213 39.0175 42.6495 39.0873C41.3742 40.3421 40.102 41.5988 38.8297 42.8546C38.8078 42.8763 38.7839 42.8949 38.7499 42.9245C38.4828 42.7445 38.2145 42.5635 37.9464 42.3826C37.2185 41.8899 36.4906 41.3973 35.7648 40.9017C35.698 40.8564 35.6481 40.8535 35.5753 40.8908C34.9422 41.2203 34.2842 41.4936 33.5992 41.7011C33.5274 41.7227 33.4945 41.7523 33.4805 41.8299C33.32 42.7032 33.1535 43.5745 32.989 44.4467C32.9322 44.7456 32.8753 45.0436 32.8175 45.3475H27.1861H27.1851ZM18.5715 30.3411C18.5615 36.6249 23.7563 41.707 30.1354 41.6392C36.375 41.5723 41.446 36.5217 41.4261 30.3529C41.4061 24.078 36.3022 19.0677 29.9181 19.0785C23.6854 19.0893 18.5585 24.1783 18.5705 30.3411H18.5715Z" fill="white"/>
</g>
<defs>
<clipPath id="clip0_798_463">
<rect width="60" height="60.6122" fill="white" transform="translate(0 -0.000976562)"/>
</clipPath>
</defs>
</svg>
