<svg width="60" height="61" viewBox="0 0 60 61" fill="none" xmlns="http://www.w3.org/2000/svg">
<g clip-path="url(#clip0_798_444)">
<path d="M30 60.3628C46.5685 60.3628 60 46.9313 60 30.3628C60 13.7943 46.5685 0.362793 30 0.362793C13.4315 0.362793 0 13.7943 0 30.3628C0 46.9313 13.4315 60.3628 30 60.3628Z" fill="white"/>
<path d="M30 55.3628C43.8071 55.3628 55 44.1699 55 30.3628C55 16.5557 43.8071 5.36279 30 5.36279C16.1929 5.36279 5 16.5557 5 30.3628C5 44.1699 16.1929 55.3628 30 55.3628Z" fill="#6366F1"/>
<path d="M38.2172 35.3633C38.1987 34.7199 38.4696 34.3979 39.03 34.3974C39.4462 34.3974 39.8614 34.3907 40.2775 34.3974C40.7054 34.4041 40.9388 34.2365 40.9379 33.7783C40.9312 29.5605 40.9312 25.3427 40.927 21.125C40.927 21.0663 40.8975 21.0077 40.8697 20.9021H18.5022C18.4879 21.0831 18.4601 21.2783 18.4601 21.4742C18.4575 25.5061 18.4567 29.5379 18.4592 33.5698C18.4592 34.3237 18.5283 34.389 19.2738 34.3965C19.6276 34.3999 19.9805 34.3965 20.3343 34.3965C20.9222 34.3965 21.2044 34.7073 21.1808 35.3289C20.32 35.3289 19.4506 35.3842 18.5923 35.3096C18.0085 35.2594 17.6371 34.8305 17.5309 34.2391C17.4872 33.997 17.4846 33.7457 17.4846 33.4986C17.4821 28.8259 17.4821 24.1532 17.4829 19.4806C17.4829 18.0766 17.9429 17.6167 19.3462 17.6159C26.2483 17.615 33.1505 17.615 40.0535 17.6159C41.4619 17.6159 41.9075 18.0657 41.9075 19.4831C41.9083 24.1558 41.9083 28.8284 41.9075 33.5011C41.9075 34.9159 41.4619 35.3599 40.0493 35.3624C39.4503 35.3633 38.8523 35.3624 38.218 35.3624L38.2172 35.3633ZM33.5034 18.6487C31.4043 18.6487 29.3052 18.6487 27.2061 18.6487C26.7765 18.6487 26.3561 18.7342 26.3646 19.2493C26.373 19.757 26.7925 19.8441 27.2221 19.8391C27.2844 19.8391 27.3468 19.8391 27.4091 19.8391C31.4414 19.8391 35.4737 19.8391 39.5059 19.8374C39.7123 19.8374 39.9583 19.8735 40.1141 19.7771C40.2986 19.6632 40.5167 19.4219 40.5134 19.2393C40.51 19.0542 40.2876 18.8196 40.1007 18.7074C39.9431 18.6127 39.6972 18.6512 39.4908 18.6512C37.4953 18.6479 35.4998 18.6496 33.5051 18.6504L33.5034 18.6487ZM19.6536 18.477C19.5576 18.477 19.4607 18.4779 19.3647 18.4787C19.1921 18.7317 18.9133 18.9696 18.8719 19.2418C18.813 19.6305 19.1087 19.891 19.518 19.891C19.9325 19.891 20.2164 19.6154 20.1565 19.2334C20.1144 18.962 19.8297 18.7275 19.6536 18.4761V18.477ZM21.6172 18.4862C21.5203 18.482 21.4225 18.4779 21.3257 18.4728C21.1353 18.7166 20.8363 18.9377 20.7807 19.2091C20.7015 19.5953 20.9854 19.8709 21.399 19.8885C21.8075 19.9061 22.1242 19.6757 22.0754 19.2711C22.0426 18.9955 21.778 18.7468 21.6172 18.4862ZM24.1054 19.4152C24.1096 19.3164 24.113 19.2175 24.1172 19.1187C23.8662 18.9394 23.6143 18.6186 23.365 18.6211C23.1401 18.6236 22.7948 18.9444 22.7249 19.1874C22.6153 19.5719 22.9009 19.9111 23.3094 19.8709C23.5874 19.8433 23.8409 19.5752 24.1054 19.4152Z" fill="white"/>
<path d="M21.7267 34.3778C22.5152 34.3778 23.2404 34.3518 23.9598 34.402C24.0895 34.4113 24.2748 34.7254 24.3035 34.9181C24.712 37.6741 27.0857 39.6728 29.8798 39.589C32.4666 39.512 34.719 37.5216 35.0416 34.9675C35.1039 34.4741 35.2707 34.3417 35.7332 34.366C36.3515 34.3987 36.9723 34.3744 37.6377 34.3744C37.6377 34.6333 37.6975 34.8561 37.6276 35.0253C37.2805 35.868 37.668 36.3723 38.3672 36.7685C38.5424 36.8682 38.6873 37.0207 38.8819 37.1773C38.2147 38.3283 37.5644 39.45 36.9369 40.5314C36.8468 40.5482 36.8198 40.5616 36.808 40.554C35.6869 39.7759 34.7476 40.1201 33.8127 40.9461C33.4547 41.2628 32.9493 41.4521 32.4784 41.592C32.0134 41.7302 31.8576 41.9932 31.8281 42.4305C31.8036 42.7966 31.7312 43.1601 31.6756 43.558H27.6172C27.9651 42.041 26.9754 41.54 25.8306 41.1044C25.3968 40.9394 24.9883 40.6345 24.6522 40.3078C24.2875 39.9526 23.9707 39.935 23.5521 40.1604C23.2295 40.3346 22.8757 40.4519 22.4899 40.6136C21.8143 39.45 21.1632 38.3283 20.4961 37.1782C20.9594 36.8079 21.5717 36.5415 21.7789 36.09C21.9803 35.6527 21.7655 35.0261 21.7267 34.3778Z" fill="#BFBFBF"/>
<path d="M34.435 32.4261C34.7542 32.3969 35.1358 32.2737 35.2083 32.3733C35.3448 32.561 35.3726 32.8919 35.3186 33.1357C35.2251 33.5553 35.0423 33.9566 34.8831 34.3604C34.6422 34.971 34.3735 35.0238 33.8799 34.5572C33.5783 34.2724 33.2625 33.9968 33.0022 33.6777C32.8497 33.49 32.6972 33.2086 32.7301 32.9975C32.7537 32.8475 33.0864 32.7453 33.3029 32.6088C33.0746 31.5248 31.7244 30.445 30.3041 30.2683C27.9692 29.9767 26.0436 31.4871 25.7547 33.836C25.4994 35.9118 27.1319 37.8553 29.3616 38.1258C29.7221 38.1694 30.134 38.1962 30.0978 38.6829C30.0582 39.2073 29.6353 39.1729 29.2462 39.1377C26.9036 38.9266 25.0202 37.0687 24.7472 34.6988C24.4802 32.3767 25.9956 30.1241 28.3002 29.4172C30.5518 28.7269 32.9803 29.7112 34.1065 31.7745C34.2354 32.0098 34.3491 32.2536 34.435 32.4236V32.4261Z" fill="#BFBFBF"/>
<path d="M24.6574 28.7785C24.574 28.7793 24.4914 28.7777 24.4081 28.7793C22.6197 28.8229 22.7916 28.7861 22.8489 26.8777C22.8548 26.6868 23.1883 26.3601 23.388 26.345C24.2126 26.2839 25.0449 26.3182 25.8746 26.3182C25.9158 26.3182 25.9613 26.319 25.9967 26.3366C26.8694 26.7571 26.3614 27.537 26.4499 28.1527C26.5106 28.5724 26.193 28.7734 25.776 28.7768C25.4028 28.7793 25.0289 28.7768 24.6557 28.7785H24.6574Z" fill="#BFBFBF"/>
<path d="M21.5166 24.4699C21.413 24.4699 21.3094 24.4699 21.2058 24.4699C19.6955 24.4699 19.3131 23.995 19.7208 22.5207C19.7806 22.3037 20.1394 22.0457 20.3786 22.0248C21.119 21.9602 21.8679 21.9929 22.6142 22.0038C23.0868 22.0105 23.3336 22.2534 23.3327 22.7393C23.3319 24.5881 23.4919 24.4834 21.5166 24.4699Z" fill="#BFBFBF"/>
<path d="M37.8932 24.4702C37.7896 24.4702 37.6859 24.4702 37.5823 24.4702C36.0653 24.4702 35.6854 23.9994 36.0864 22.5226C36.1436 22.3115 36.4679 22.0451 36.6869 22.0275C37.4695 21.9663 38.2596 21.9898 39.0463 22.0066C39.4574 22.0157 39.6941 22.2453 39.7008 22.6734C39.7008 22.6943 39.7025 22.7144 39.7025 22.7353C39.7109 24.631 39.8381 24.4752 37.894 24.4694L37.8932 24.4702Z" fill="#BFBFBF"/>
<path d="M34.766 28.7791C34.6625 28.7791 34.5589 28.7791 34.4553 28.7791C32.9256 28.7791 32.5794 28.3511 32.9567 26.8265C33.0081 26.6204 33.3349 26.3549 33.5514 26.339C34.3339 26.2795 35.1249 26.3079 35.9117 26.3172C36.332 26.3222 36.5611 26.5442 36.572 26.9714C36.572 26.9924 36.5738 27.0125 36.5738 27.0334C36.5847 28.9048 36.6976 28.7976 34.766 28.78V28.7791Z" fill="#BFBFBF"/>
<path d="M29.6571 25.7018C29.284 25.7018 28.9109 25.7119 28.5377 25.6993C27.8748 25.6767 27.5648 25.376 27.4991 24.7142C27.4974 24.6941 27.4957 24.6732 27.4949 24.6522C27.4536 22.7926 27.4839 22.4516 29.4583 22.5303C29.8518 22.5462 30.2459 22.5303 30.6402 22.5346C30.7851 22.5353 30.9317 22.5362 31.074 22.5597C31.7917 22.6786 31.9753 23.1393 31.9011 24.6095C31.8658 25.3031 31.5727 25.6583 30.962 25.6926C30.5281 25.7177 30.0918 25.6977 29.6563 25.6977V25.701L29.6571 25.7018ZM29.6757 24.9965C31.3663 24.9638 31.1666 25.2663 31.1911 23.7533C31.1969 23.3814 31.0512 23.2282 30.6814 23.2365C30.1432 23.2482 29.6041 23.2382 29.0658 23.2382C28.4908 23.2388 28.203 23.5202 28.2024 24.0826C28.2013 24.6913 28.5059 24.9957 29.1164 24.9957C29.3025 24.9957 29.4896 24.9957 29.6757 24.9957V24.9965Z" fill="white"/>
<path d="M37.9934 30.2628C38.3025 30.2628 38.6976 30.2468 39.0919 30.2661C39.7211 30.2963 40.0648 30.6155 40.0749 31.2303C40.106 33.0439 40.2762 33.5315 38.012 33.4309C37.5765 33.4117 37.1393 33.4418 36.7046 33.4217C36.0493 33.3916 35.6963 33.0573 35.6871 32.4165C35.6593 30.499 35.5119 30.1706 37.9934 30.2636V30.2628ZM37.9227 32.7373C39.5038 32.703 39.385 33.0456 39.3884 31.4356C39.3884 31.0971 39.2434 30.943 38.9074 30.9447C38.2242 30.9488 37.5394 30.9237 36.8588 30.9648C36.6962 30.9748 36.4419 31.1742 36.409 31.325C36.1537 32.5036 36.3551 32.7365 37.5503 32.7365C37.6742 32.7365 37.7989 32.7365 37.9227 32.7365V32.7373Z" fill="white"/>
<path d="M21.5416 30.2602C21.8735 30.2602 22.2062 30.2577 22.5381 30.2619C22.683 30.2636 22.8321 30.2619 22.9711 30.2945C23.6424 30.4496 23.8311 31.0192 23.704 32.4768C23.6542 33.0506 23.335 33.3957 22.7504 33.415C21.9207 33.4418 21.0893 33.4426 20.2605 33.4141C19.6792 33.394 19.3575 33.0548 19.3111 32.4709C19.3095 32.45 19.3077 32.4299 19.3077 32.4089C19.2926 30.499 19.1418 30.1689 21.5425 30.2602H21.5416ZM21.4608 32.7373C23.1328 32.7054 22.9795 33.0053 23.0039 31.5092C23.0115 31.0661 22.8169 30.9312 22.4076 30.9413C21.8078 30.9563 21.2064 30.9605 20.6075 30.9388C20.1526 30.922 19.9926 31.1021 19.9884 31.5561C19.9774 32.7373 19.9597 32.7373 21.1516 32.7373C21.2552 32.7373 21.3589 32.7373 21.4625 32.7373H21.4608Z" fill="white"/>
</g>
<defs>
<clipPath id="clip0_798_444">
<rect width="60" height="60.6122" fill="white" transform="translate(0 -0.000976562)"/>
</clipPath>
</defs>
</svg>
