<svg width="1440" height="487" viewBox="0 0 1440 487" fill="none" xmlns="http://www.w3.org/2000/svg">
<path d="M1278.27 190.357L1274.95 191.656C1275.32 191.555 1275.69 191.464 1276.06 191.365C1277.29 190.928 1278.53 190.488 1279.77 190.041C1279.27 190.149 1278.77 190.25 1278.27 190.357ZM1257.25 197.217C1256.39 197.57 1255.53 197.932 1254.67 198.281L1255.02 198.179L1258.26 196.97L1257.25 197.217ZM1269.22 192.278C1267.33 193.066 1265.46 193.821 1263.58 194.607C1264.55 194.359 1265.54 194.093 1266.52 193.844C1268.36 193.136 1270.23 192.395 1272.09 191.669C1271.13 191.87 1270.17 192.08 1269.22 192.278ZM1235.85 204.65C1235.13 204.955 1234.43 205.236 1233.71 205.539L1233.73 205.533C1234.55 205.212 1235.39 204.876 1236.21 204.551L1235.85 204.65ZM1247.68 199.547C1245.99 200.279 1244.29 201.021 1242.61 201.743C1243.38 201.528 1244.14 201.321 1244.91 201.105C1246.82 200.339 1248.71 199.613 1250.63 198.835C1249.65 199.07 1248.66 199.317 1247.68 199.547ZM1260.27 194.07C1257.89 195.122 1255.54 196.134 1253.18 197.167C1254.4 196.872 1255.62 196.573 1256.84 196.273C1259.2 195.305 1261.58 194.319 1263.94 193.341C1262.72 193.587 1261.49 193.827 1260.27 194.07ZM310.417 107.983L311.244 108.256C311.874 108.287 312.502 108.321 313.132 108.354L312.364 108.142C311.716 108.088 311.066 108.037 310.417 107.983ZM1213.46 212.791L1212.72 213.113C1213.05 212.976 1213.39 212.848 1213.72 212.712L1213.46 212.791ZM1226.03 207.286C1224.46 207.99 1222.91 208.671 1221.35 209.358C1221.96 209.173 1222.57 208.996 1223.18 208.81C1224.83 208.126 1226.5 207.424 1228.15 206.739C1227.44 206.927 1226.74 207.101 1226.03 207.286ZM1238.5 201.656C1236.23 202.681 1233.95 203.714 1231.69 204.73C1232.93 204.395 1234.19 204.044 1235.44 203.705C1237.67 202.76 1239.92 201.787 1242.17 200.813C1240.95 201.095 1239.72 201.377 1238.5 201.656ZM1251.29 195.8C1248.57 197.066 1245.87 198.312 1243.18 199.54C1244.55 199.223 1245.91 198.923 1247.28 198.601C1250.06 197.391 1252.83 196.205 1255.61 194.993C1254.17 195.271 1252.73 195.529 1251.29 195.8ZM303.228 107.403C303.709 107.587 304.186 107.778 304.667 107.963L307.442 108.084C306.975 107.933 306.51 107.776 306.042 107.626C305.104 107.552 304.167 107.475 303.228 107.403ZM298.989 105.802L299.932 106.155L301.822 106.293L300.997 106.032C300.327 105.955 299.659 105.875 298.989 105.802ZM295.063 104.341L295.195 104.388L295.79 104.451L295.063 104.341ZM1203.62 215.626C1202.15 216.285 1200.67 216.957 1199.2 217.624L1201.39 216.917C1202.82 216.306 1204.27 215.66 1205.72 215.033C1205.02 215.233 1204.32 215.427 1203.62 215.626ZM1216.32 209.787C1214.18 210.795 1212.03 211.811 1209.91 212.782C1210.95 212.482 1212 212.153 1213.04 211.848C1215.33 210.85 1217.6 209.868 1219.89 208.868C1218.7 209.171 1217.51 209.487 1216.32 209.787ZM1229.34 203.687L1221.31 207.449C1222.75 207.078 1224.18 206.718 1225.61 206.341C1228.2 205.19 1230.82 203.994 1233.43 202.809C1232.07 203.112 1230.71 203.39 1229.34 203.687ZM1242.39 197.441C1239.39 198.903 1236.38 200.371 1233.43 201.774C1234.97 201.432 1236.53 201.062 1238.08 200.711C1241.15 199.315 1244.18 197.958 1247.26 196.542C1245.64 196.84 1244.01 197.152 1242.39 197.441ZM296.238 106.895C296.84 107.162 297.445 107.425 298.046 107.695C299.174 107.737 300.304 107.776 301.431 107.822C300.828 107.592 300.22 107.369 299.616 107.14C298.491 107.059 297.366 106.974 296.238 106.895ZM292.123 105.079C292.595 105.283 293.064 105.492 293.535 105.699C294.453 105.761 295.369 105.825 296.286 105.89L294.862 105.367C293.949 105.27 293.037 105.172 292.123 105.079ZM288.069 103.348L289.004 103.747C289.638 103.81 290.274 103.871 290.907 103.937C290.624 103.835 290.342 103.732 290.059 103.63C289.395 103.538 288.733 103.441 288.069 103.348ZM284.262 101.756L284.469 101.841L285.221 101.939L285.167 101.921L284.262 101.756ZM1180.84 224.444C1179.53 225.058 1178.2 225.686 1176.9 226.288C1177.33 226.143 1177.76 225.991 1178.18 225.844C1179.7 225.179 1181.21 224.532 1182.74 223.864L1180.84 224.444ZM1193.72 218.425C1191.63 219.406 1189.56 220.365 1187.48 221.343C1188.5 221.024 1189.51 220.727 1190.54 220.405C1192.65 219.464 1194.79 218.487 1196.91 217.524C1195.85 217.819 1194.78 218.134 1193.72 218.425ZM1206.88 212.111C1204.33 213.35 1201.77 214.599 1199.26 215.796C1200.57 215.43 1201.89 215.055 1203.2 214.681C1205.85 213.478 1208.46 212.312 1211.12 211.086C1209.7 211.435 1208.29 211.769 1206.88 212.111ZM1220.25 205.639C1217.22 207.116 1214.22 208.555 1211.2 210.018C1212.77 209.63 1214.33 209.239 1215.91 208.841C1218.87 207.466 1221.86 206.057 1224.85 204.653C1223.32 204.976 1221.78 205.322 1220.25 205.639ZM1233.73 198.927C1230.47 200.567 1227.19 202.223 1223.98 203.8C1225.63 203.451 1227.28 203.096 1228.93 202.739C1232.18 201.203 1235.43 199.653 1238.71 198.077C1237.05 198.366 1235.39 198.646 1233.73 198.927ZM289.386 106.444C290.042 106.78 290.694 107.12 291.349 107.459C292.65 107.501 293.949 107.549 295.249 107.596C294.563 107.291 293.877 106.986 293.19 106.685C291.923 106.603 290.653 106.524 289.386 106.444ZM285.353 104.411C285.939 104.705 286.525 104.997 287.11 105.29C288.23 105.36 289.348 105.433 290.467 105.505C289.86 105.243 289.251 104.985 288.644 104.726C287.548 104.619 286.45 104.516 285.353 104.411ZM281.4 102.46C281.882 102.695 282.37 102.924 282.852 103.161C283.76 103.245 284.667 103.335 285.573 103.421C285.082 103.215 284.585 103.016 284.092 102.812L281.4 102.46ZM277.564 100.609C277.878 100.758 278.188 100.912 278.501 101.061C279.152 101.143 279.799 101.231 280.449 101.315L279.539 100.944C278.881 100.833 278.224 100.718 277.564 100.609ZM273.868 98.8832L274.162 99.0198C274.439 99.0643 274.718 99.1064 274.995 99.1518L274.843 99.0915C274.516 99.0236 274.194 98.9511 273.868 98.8832ZM1157.92 233.642C1156.61 234.264 1155.36 234.829 1154.06 235.44C1154.33 235.343 1154.6 235.255 1154.87 235.157C1156.26 234.537 1157.67 233.895 1159.06 233.269C1158.68 233.391 1158.3 233.522 1157.92 233.642ZM1170.72 227.479C1168.79 228.408 1166.85 229.35 1164.94 230.264C1165.9 229.948 1166.86 229.64 1167.82 229.32C1169.84 228.402 1171.83 227.509 1173.86 226.57C1172.81 226.884 1171.77 227.169 1170.72 227.479ZM1184.26 220.943C1181.63 222.232 1179.06 223.452 1176.44 224.722C1177.76 224.326 1179.1 223.902 1180.43 223.5C1182.96 222.324 1185.51 221.123 1188.06 219.932C1186.79 220.274 1185.53 220.609 1184.26 220.943ZM1197.45 214.372C1194.57 215.814 1191.68 217.264 1188.82 218.669C1190.33 218.265 1191.81 217.886 1193.32 217.473C1196.24 216.089 1199.19 214.682 1202.15 213.254C1200.58 213.626 1199.01 214.01 1197.45 214.372ZM1211.36 207.42C1208.04 209.101 1204.77 210.718 1201.47 212.37C1203.13 211.976 1204.8 211.566 1206.47 211.161C1209.7 209.603 1212.94 208.031 1216.19 206.455C1214.58 206.782 1212.97 207.101 1211.36 207.42ZM1225.11 200.348C1221.61 202.156 1218.1 203.974 1214.65 205.73C1216.38 205.38 1218.1 205.049 1219.84 204.69C1223.26 203.011 1226.74 201.27 1230.22 199.527C1228.52 199.809 1226.82 200.075 1225.11 200.348ZM282.559 106.032C283.266 106.446 283.978 106.855 284.683 107.274C286.096 107.31 287.509 107.345 288.922 107.386C288.192 107.013 287.462 106.644 286.73 106.274C285.341 106.189 283.95 106.11 282.559 106.032ZM278.721 103.804C279.368 104.173 280.013 104.549 280.658 104.922C281.917 104.99 283.177 105.053 284.435 105.126C283.775 104.798 283.119 104.462 282.458 104.136C281.213 104.02 279.967 103.912 278.721 103.804ZM274.895 101.644C275.468 101.964 276.037 102.289 276.609 102.611C277.698 102.704 278.789 102.795 279.877 102.891C279.281 102.603 278.687 102.312 278.09 102.026C277.027 101.894 275.959 101.773 274.895 101.644ZM271.103 99.5626C271.581 99.8224 272.06 100.081 272.536 100.343L275.208 100.663C274.72 100.434 274.229 100.207 273.74 99.9798C272.863 99.8385 271.983 99.7001 271.103 99.5626ZM267.422 97.5823C267.759 97.761 268.101 97.9342 268.438 98.1141C269.079 98.2126 269.717 98.317 270.357 98.4184C270.024 98.2669 269.688 98.1205 269.355 97.9715C268.711 97.8421 268.068 97.7092 267.422 97.5823ZM263.934 95.7561L264.282 95.9369C264.579 95.9938 264.878 96.0477 265.175 96.1054L264.931 95.9972L263.934 95.7561ZM1134.12 243.405C1133.09 243.897 1132.05 244.396 1131.02 244.891C1131.41 244.747 1131.8 244.608 1132.19 244.463C1133.24 243.984 1134.31 243.487 1135.37 242.996C1134.95 243.138 1134.54 243.266 1134.12 243.405ZM1147.62 236.879C1145.76 237.799 1143.91 238.706 1142.08 239.597C1142.86 239.329 1143.64 239.054 1144.42 238.785C1146.37 237.878 1148.34 236.959 1150.29 236.054C1149.4 236.334 1148.51 236.603 1147.62 236.879ZM1160.83 230.334C1158.36 231.559 1155.88 232.795 1153.41 234.01C1154.77 233.581 1156.13 233.142 1157.49 232.705C1159.89 231.569 1162.34 230.378 1164.78 229.196C1163.46 229.574 1162.14 229.963 1160.83 230.334ZM1174.54 223.479C1171.67 224.934 1168.83 226.356 1166 227.778C1167.43 227.363 1168.85 226.959 1170.29 226.537L1178.97 222.353C1177.49 222.737 1176.02 223.103 1174.54 223.479ZM1188.31 216.434C1185.08 218.093 1181.85 219.751 1178.65 221.381C1180.37 220.934 1182.11 220.454 1183.84 219.996C1186.93 218.488 1190.08 216.901 1193.21 215.331C1191.58 215.702 1189.94 216.073 1188.31 216.434ZM1202.41 209.156C1198.91 210.986 1195.44 212.779 1191.97 214.565C1193.66 214.181 1195.34 213.816 1197.04 213.42C1200.54 211.673 1204.03 209.945 1207.56 208.179C1205.84 208.513 1204.13 208.833 1202.41 209.156ZM1216.57 201.693C1212.84 203.667 1209.11 205.636 1205.42 207.568C1207.26 207.216 1209.11 206.833 1210.95 206.468C1214.53 204.656 1218.2 202.747 1221.85 200.861C1220.09 201.138 1218.33 201.428 1216.57 201.693ZM283.095 110.679C318.433 135.461 350.233 165.834 382.632 196.793C501.498 310.379 628.567 431.71 969.443 311.606M275.794 105.664C276.507 106.141 277.214 106.629 277.923 107.111C279.444 107.143 280.966 107.176 282.485 107.214C281.74 106.777 280.993 106.34 280.246 105.906C278.763 105.823 277.281 105.739 275.794 105.664ZM272.11 103.239C272.791 103.684 273.471 104.131 274.149 104.581C275.543 104.647 276.933 104.72 278.324 104.795C277.614 104.389 276.898 103.99 276.185 103.588C274.828 103.469 273.471 103.348 272.11 103.239ZM268.455 100.884C269.092 101.289 269.731 101.688 270.365 102.096C271.602 102.194 272.841 102.292 274.075 102.396C273.419 102.03 272.759 101.671 272.1 101.309C270.887 101.165 269.672 101.023 268.455 100.884ZM264.838 98.6043C265.401 98.9536 265.962 99.3054 266.522 99.6573C267.582 99.774 268.645 99.8813 269.701 100.004C269.127 99.692 268.557 99.3755 267.982 99.0691C266.937 98.9095 265.886 98.7592 264.838 98.6043ZM261.238 96.4012C261.707 96.6843 262.171 96.9738 262.639 97.259L265.256 97.6418C264.775 97.3901 264.295 97.135 263.812 96.8855L261.238 96.4012ZM257.691 94.294L258.704 94.8899C259.341 95.0053 259.974 95.1289 260.609 95.2481L259.603 94.741C258.965 94.5933 258.33 94.4392 257.691 94.294ZM254.413 92.3825L254.808 92.6062L255.683 92.7985L255.341 92.6338C255.033 92.5476 254.721 92.4674 254.413 92.3825ZM1110.53 253.339C1109.65 253.772 1108.76 254.216 1107.88 254.644L1108.11 254.556C1109.2 254.049 1110.28 253.556 1111.37 253.048L1110.53 253.339ZM1123.93 246.757C1122.03 247.691 1120.12 248.624 1118.21 249.567C1119.11 249.245 1120.03 248.897 1120.93 248.573C1122.76 247.709 1124.62 246.808 1126.47 245.923C1125.62 246.201 1124.78 246.482 1123.93 246.757ZM1137.22 240.101C1134.97 241.249 1132.7 242.411 1130.48 243.52C1131.56 243.164 1132.61 242.83 1133.68 242.468C1136.2 241.259 1138.68 240.087 1141.21 238.866C1139.88 239.269 1138.54 239.704 1137.22 240.101ZM1151.15 233.027L1142.64 237.345C1144.16 236.881 1145.68 236.408 1147.19 235.936C1149.9 234.611 1152.65 233.237 1155.39 231.875C1153.97 232.27 1152.57 232.638 1151.15 233.027ZM1165.04 225.853C1161.89 227.502 1158.74 229.151 1155.64 230.747C1157.22 230.307 1158.81 229.846 1160.39 229.396C1163.64 227.783 1166.83 226.226 1170.09 224.589C1168.41 225.011 1166.72 225.441 1165.04 225.853ZM1179.23 218.419C1175.77 220.235 1172.32 222.04 1168.88 223.84C1170.63 223.404 1172.37 222.977 1174.12 222.53C1177.46 220.842 1180.85 219.094 1184.24 217.355C1182.56 217.722 1180.9 218.063 1179.23 218.419ZM1193.57 210.79C1189.87 212.778 1186.19 214.753 1182.54 216.683C1184.32 216.298 1186.11 215.884 1187.89 215.487C1191.59 213.587 1195.26 211.722 1198.99 209.789C1197.18 210.123 1195.37 210.468 1193.57 210.79ZM1208.2 202.905C1204.28 205.027 1200.37 207.129 1196.48 209.222C1198.32 208.887 1200.15 208.549 1202 208.202C1205.79 206.228 1209.64 204.18 1213.49 202.142C1211.72 202.405 1209.96 202.653 1208.2 202.905ZM269.032 105.358C269.745 105.902 270.459 106.443 271.169 106.992C272.771 107.016 274.37 107.046 275.969 107.077C275.216 106.572 274.46 106.067 273.704 105.567C272.147 105.496 270.589 105.426 269.032 105.358ZM265.573 102.749C266.26 103.261 266.948 103.772 267.633 104.288C269.111 104.35 270.586 104.419 272.062 104.487C271.343 104.015 270.629 103.539 269.908 103.074C268.463 102.965 267.019 102.854 265.573 102.749ZM262.113 100.195C262.762 100.667 263.405 101.148 264.051 101.624C265.405 101.72 266.753 101.825 268.104 101.928C267.419 101.493 266.737 101.054 266.049 100.624C264.738 100.48 263.428 100.332 262.113 100.195ZM258.628 97.708C259.236 98.137 259.84 98.5708 260.445 99.0054C261.658 99.1276 262.868 99.2596 264.077 99.3916C263.437 98.9952 262.793 98.6039 262.15 98.2109C260.977 98.0403 259.804 97.8701 258.628 97.708ZM255.17 95.3029C255.724 95.6836 256.28 96.0596 256.833 96.4441C257.871 96.5854 258.915 96.7195 259.952 96.8659C259.37 96.5167 258.781 96.1772 258.197 95.8308C257.191 95.6492 256.179 95.4807 255.17 95.3029ZM251.757 92.9822C252.224 93.295 252.691 93.6048 253.156 93.9189C254.007 94.0653 254.855 94.2168 255.706 94.3641C255.232 94.0886 254.76 93.8107 254.285 93.5373C253.442 93.3527 252.601 93.1643 251.757 92.9822ZM248.416 90.7762C248.749 90.993 249.078 91.2133 249.409 91.4314C250.027 91.5617 250.643 91.6933 251.259 91.8278C250.924 91.639 250.594 91.4484 250.259 91.2629C249.645 91.0991 249.032 90.937 248.416 90.7762ZM245.247 88.7505L245.665 89.0166L246.567 89.2441L246.194 89.0437L245.247 88.7505ZM1086.94 263.523L1086.76 263.611L1086.97 263.51L1086.94 263.523ZM1099.75 257.075C1098.1 257.906 1096.44 258.752 1094.79 259.574C1095.48 259.318 1096.16 259.082 1096.85 258.824C1098.77 257.904 1100.64 257.035 1102.58 256.097C1101.64 256.417 1100.69 256.758 1099.75 257.075ZM1113.71 250.054C1111.37 251.246 1109.07 252.38 1106.73 253.567C1107.86 253.177 1108.98 252.79 1110.11 252.395C1112.35 251.302 1114.61 250.181 1116.86 249.076C1115.8 249.415 1114.77 249.719 1113.71 250.054ZM1127.4 242.966C1124.65 244.4 1121.89 245.844 1119.18 247.24C1120.6 246.779 1122.05 246.289 1123.48 245.823C1126.26 244.442 1129.03 243.084 1131.84 241.674C1130.35 242.112 1128.88 242.536 1127.4 242.966ZM1141.49 235.649C1138.35 237.288 1135.24 238.89 1132.1 240.526C1133.67 240.062 1135.21 239.633 1136.79 239.158C1139.91 237.581 1143.07 235.969 1146.23 234.363C1144.65 234.787 1143.06 235.234 1141.49 235.649ZM1155.72 228.08C1152.36 229.885 1148.98 231.705 1145.68 233.452C1147.35 233.001 1149.03 232.543 1150.72 232.084C1154.07 230.363 1157.43 228.651 1160.82 226.891C1159.11 227.302 1157.42 227.679 1155.72 228.08ZM1170.24 220.306C1166.55 222.291 1162.88 224.245 1159.19 226.222C1160.99 225.79 1162.8 225.348 1164.61 224.904C1168.22 223.03 1171.85 221.117 1175.5 219.203C1173.74 219.569 1171.99 219.951 1170.24 220.306ZM1184.91 212.289C1181.07 214.41 1177.22 216.547 1173.44 218.594C1175.23 218.222 1177.02 217.85 1178.81 217.467C1182.63 215.452 1186.45 213.432 1190.31 211.37C1188.51 211.688 1186.71 211.983 1184.91 212.289ZM1199.87 204.059C1195.77 206.324 1191.7 208.549 1187.62 210.801C1189.46 210.481 1191.3 210.169 1193.15 209.838C1197.15 207.7 1201.18 205.521 1205.21 203.334C1203.43 203.584 1201.65 203.821 1199.87 204.059ZM262.282 105.09C262.98 105.695 263.671 106.308 264.365 106.92C266.027 106.935 267.692 106.943 269.353 106.963C268.618 106.398 267.883 105.832 267.145 105.274C265.526 105.207 263.904 105.149 262.282 105.09ZM259.039 102.3C259.717 102.875 260.388 103.46 261.062 104.04C262.617 104.096 264.173 104.144 265.725 104.204C265.004 103.664 264.277 103.132 263.552 102.596C262.05 102.492 260.543 102.397 259.039 102.3ZM255.757 99.5643C256.418 100.109 257.078 100.655 257.735 101.205C259.173 101.297 260.612 101.388 262.048 101.485C261.349 100.975 260.644 100.476 259.942 99.9709C258.549 99.8321 257.153 99.6972 255.757 99.5643ZM252.465 96.8825C253.1 97.393 253.74 97.8981 254.373 98.4133C255.682 98.5368 256.987 98.6671 258.293 98.7949C257.633 98.3285 256.974 97.8599 256.311 97.3982C255.031 97.2242 253.75 97.048 252.465 96.8825ZM249.194 94.2805C249.78 94.738 250.362 95.2023 250.945 95.6649C252.121 95.8139 253.293 95.97 254.465 96.1275C253.849 95.7039 253.236 95.2757 252.616 94.856C251.477 94.6608 250.336 94.4689 249.194 94.2805ZM245.923 91.7599C246.453 92.1623 246.977 92.5735 247.505 92.978C248.512 93.1418 249.525 93.298 250.531 93.4656C249.976 93.0956 249.419 92.7284 248.861 92.3617C247.884 92.1576 246.902 91.9594 245.923 91.7599ZM242.642 89.312C243.101 89.6494 243.56 89.9859 244.016 90.3276C244.857 90.496 245.695 90.6722 246.534 90.8432C246.059 90.538 245.578 90.2389 245.101 89.9358C244.281 89.7279 243.465 89.5153 242.642 89.312ZM239.496 87.0176C239.836 87.2621 240.182 87.4993 240.52 87.7442C241.118 87.8876 241.719 88.0235 242.315 88.1703C241.968 87.9539 241.614 87.7463 241.266 87.532C240.679 87.3563 240.085 87.1912 239.496 87.0176ZM236.495 84.8914L236.918 85.1918C237.23 85.2801 237.539 85.3726 237.852 85.4622C237.725 85.3875 237.602 85.3102 237.476 85.2347L236.495 84.8914ZM1062.13 274.392L1059.77 275.561L1059.96 275.489C1060.8 275.085 1061.67 274.653 1062.52 274.241L1062.13 274.392ZM1075.75 267.547C1074.3 268.293 1072.84 269.053 1071.41 269.774L1072.76 269.263C1074.37 268.478 1076 267.685 1077.6 266.909C1076.98 267.129 1076.37 267.328 1075.75 267.547ZM1089.48 260.487C1087.25 261.635 1085 262.797 1082.76 263.942C1084 263.5 1085.25 263.035 1086.49 262.588C1088.59 261.546 1090.74 260.452 1092.88 259.372C1091.74 259.751 1090.62 260.112 1089.48 260.487ZM1103.57 253.202C1100.79 254.658 1098.07 256.06 1095.32 257.489C1096.64 257.043 1097.97 256.593 1099.31 256.14C1102.1 254.738 1104.89 253.328 1107.68 251.926C1106.31 252.352 1104.93 252.784 1103.57 253.202ZM1117.47 245.833C1114.46 247.431 1111.45 249.037 1108.47 250.607C1110.07 250.108 1111.66 249.626 1113.27 249.116C1116.24 247.6 1119.25 246.033 1122.27 244.464C1120.67 244.922 1119.06 245.384 1117.47 245.833ZM1132.11 238.052C1128.65 239.912 1125.26 241.689 1121.82 243.525C1123.53 243.038 1125.25 242.522 1126.97 242.023C1130.31 240.292 1133.65 238.554 1137 236.81C1135.37 237.235 1133.74 237.639 1132.11 238.052ZM1146.42 230.244C1142.84 232.204 1139.26 234.17 1135.73 236.077C1137.51 235.619 1139.27 235.178 1141.05 234.708C1144.61 232.837 1148.21 230.916 1151.82 228.986C1150.02 229.401 1148.21 229.842 1146.42 230.244ZM1161.46 222.039C1157.53 224.199 1153.68 226.273 1149.78 228.413C1151.61 227.993 1153.45 227.56 1155.29 227.128C1159.09 225.102 1162.89 223.07 1166.71 221.019C1164.95 221.371 1163.21 221.698 1161.46 222.039ZM1176.29 213.732C1172.28 215.989 1168.26 218.259 1164.31 220.446C1166.15 220.085 1167.97 219.731 1169.81 219.355C1173.77 217.214 1177.78 215.024 1181.79 212.82C1179.96 213.128 1178.12 213.437 1176.29 213.732ZM1191.61 205.142C1187.33 207.548 1183.12 209.894 1178.85 212.294C1180.73 211.986 1182.62 211.652 1184.5 211.333C1188.66 209.045 1192.84 206.751 1197.03 204.43C1195.23 204.667 1193.41 204.915 1191.61 205.142ZM255.509 104.857C256.184 105.528 256.855 106.201 257.525 106.877C259.255 106.881 260.984 106.892 262.712 106.906C261.992 106.276 261.266 105.654 260.541 105.028C258.865 104.968 257.188 104.908 255.509 104.857ZM252.471 101.891C253.138 102.536 253.808 103.175 254.47 103.826C256.089 103.871 257.706 103.924 259.322 103.979C258.618 103.378 257.913 102.776 257.205 102.182C255.63 102.081 254.051 101.983 252.471 101.891ZM249.42 98.9816C250.07 99.5936 250.72 100.205 251.367 100.824C252.874 100.908 254.382 100.993 255.887 101.086C255.2 100.515 254.518 99.9395 253.827 99.3754C252.361 99.2388 250.891 99.111 249.42 98.9816ZM246.357 96.1275C246.983 96.7009 247.601 97.2861 248.224 97.8642C249.615 97.9834 251.009 98.098 252.398 98.2236C251.732 97.6855 251.065 97.1503 250.395 96.6181C249.051 96.4513 247.704 96.2892 246.357 96.1275ZM243.232 93.3192C243.838 93.8582 244.441 94.4036 245.043 94.9472C246.325 95.0979 247.603 95.2575 248.882 95.4136C248.238 94.909 247.586 94.4159 246.938 93.9168C245.703 93.7152 244.472 93.511 243.232 93.3192ZM240.134 90.6123C240.702 91.1025 241.274 91.5885 241.839 92.0846C242.979 92.2569 244.117 92.4351 245.251 92.6164C244.646 92.1576 244.039 91.7031 243.431 91.249C242.335 91.0312 241.233 90.8233 240.134 90.6123ZM237.038 87.9759C237.556 88.4101 238.076 88.8421 238.592 89.2801C239.57 89.4647 240.548 89.6493 241.524 89.8374C240.992 89.4461 240.466 89.0488 239.932 88.6622C238.968 88.433 238.005 88.2004 237.038 87.9759ZM233.974 85.4376C234.406 85.7885 234.829 86.1489 235.259 86.5011C236.073 86.6866 236.882 86.881 237.692 87.0732C237.232 86.7473 236.773 86.4175 236.31 86.0932C235.533 85.8721 234.754 85.6544 233.974 85.4376ZM230.946 83.0286L231.929 83.8083C232.515 83.9666 233.103 84.1257 233.689 84.287L232.675 83.599L230.946 83.0286ZM228.055 80.7831L228.529 81.1426L229.412 81.4244L228.959 81.1324L228.055 80.7831ZM1051.54 278.271C1050.07 279.028 1048.61 279.779 1047.17 280.518L1048.67 279.929C1050.17 279.189 1051.7 278.42 1053.21 277.668C1052.65 277.873 1052.1 278.067 1051.54 278.271ZM1065.26 271.157C1063 272.325 1060.73 273.507 1058.47 274.675C1059.52 274.288 1060.6 273.864 1061.65 273.472C1063.99 272.299 1066.3 271.17 1068.65 269.992C1067.52 270.382 1066.38 270.772 1065.26 271.157ZM1079.12 263.883C1076.58 265.238 1074.03 266.594 1071.52 267.91C1072.8 267.466 1074.05 267.049 1075.33 266.6C1077.93 265.275 1080.59 263.899 1083.23 262.538C1081.86 262.979 1080.48 263.451 1079.12 263.883ZM1093.52 256.23C1090.49 257.843 1087.47 259.446 1084.45 261.052C1085.98 260.555 1087.51 260.05 1089.05 259.544C1092.07 257.985 1095.05 256.465 1098.08 254.9C1096.55 255.362 1095.05 255.778 1093.52 256.23ZM1107.92 248.446C1104.59 250.266 1101.24 252.099 1097.96 253.863C1099.67 253.35 1101.41 252.79 1103.13 252.264C1106.35 250.578 1109.63 248.824 1112.9 247.084C1111.23 247.543 1109.57 247.996 1107.92 248.446ZM1122.62 240.447C1119 242.433 1115.45 244.345 1111.86 246.303C1113.59 245.826 1115.3 245.373 1117.04 244.884C1120.68 242.954 1124.28 241.056 1127.92 239.118C1126.15 239.559 1124.37 240.017 1122.62 240.447ZM1137.46 232.191C1133.65 234.321 1129.83 236.456 1126.06 238.534C1127.93 238.071 1129.81 237.581 1131.68 237.106C1135.34 235.136 1139.08 233.077 1142.8 231.037C1141.02 231.431 1139.24 231.806 1137.46 232.191ZM1152.55 223.746C1148.52 226.022 1144.53 228.248 1140.53 230.479C1142.36 230.081 1144.16 229.704 1145.99 229.293C1150.03 227.089 1154.04 224.912 1158.09 222.693C1156.24 223.044 1154.39 223.408 1152.55 223.746ZM1167.87 215.042C1163.65 217.448 1159.44 219.845 1155.27 222.202C1157.19 221.841 1159.11 221.456 1161.04 221.083C1165.09 218.843 1169.22 216.509 1173.35 214.19C1171.52 214.478 1169.69 214.766 1167.87 215.042ZM1183.4 206.124C1179.03 208.651 1174.67 211.163 1170.35 213.631C1172.19 213.345 1174.03 213.067 1175.88 212.771C1180.22 210.334 1184.53 207.93 1188.88 205.476C1187.05 205.702 1185.23 205.91 1183.4 206.124ZM248.73 104.687C249.376 105.417 250.022 106.146 250.663 106.883C252.433 106.876 254.201 106.877 255.968 106.878C255.282 106.189 254.599 105.498 253.907 104.818C252.183 104.771 250.458 104.727 248.73 104.687ZM245.916 101.538C246.555 102.241 247.187 102.95 247.819 103.659C249.495 103.695 251.168 103.74 252.841 103.785C252.16 103.121 251.477 102.459 250.791 101.801C249.168 101.71 247.544 101.619 245.916 101.538ZM243.081 98.4464C243.706 99.1174 244.322 99.799 244.943 100.477C246.524 100.554 248.1 100.643 249.678 100.732C249.003 100.092 248.32 99.4621 247.64 98.828C246.123 98.6977 244.603 98.5674 243.081 98.4464ZM240.204 95.42C240.821 96.0621 241.438 96.7072 242.049 97.357C243.516 97.4703 244.981 97.5887 246.444 97.7113C245.782 97.1006 245.114 96.498 244.448 95.8949C243.036 95.7303 241.62 95.5766 240.204 95.42ZM237.301 92.4428C237.908 93.0561 238.519 93.6629 239.122 94.283C240.462 94.4298 241.804 94.5704 243.141 94.7214C242.506 94.1544 241.875 93.584 241.237 93.0234C239.925 92.8269 238.615 92.6325 237.301 92.4428ZM234.39 89.536C234.966 90.1009 235.538 90.6709 236.11 91.2405C237.345 91.4166 238.573 91.6021 239.804 91.7858C239.192 91.2562 238.586 90.7231 237.97 90.2007C236.779 89.9753 235.587 89.7512 234.39 89.536ZM231.483 86.7201C232.022 87.2319 232.55 87.7548 233.085 88.2717C234.182 88.4661 235.281 88.6579 236.376 88.86C235.797 88.3749 235.217 87.8949 234.634 87.4161C233.587 87.1793 232.534 86.9514 231.483 86.7201ZM228.513 83.9522C229.015 84.4139 229.515 84.8765 230.012 85.3429C230.974 85.5509 231.932 85.7665 232.89 85.9778C232.359 85.5487 231.819 85.1303 231.285 84.7055C230.362 84.453 229.441 84.197 228.513 83.9522ZM225.623 81.3331C226.053 81.7168 226.488 82.0919 226.916 82.479C227.686 82.6772 228.459 82.8691 229.225 83.0719C228.777 82.7222 228.326 82.378 227.875 82.0304C227.127 81.7932 226.373 81.5661 225.623 81.3331ZM222.772 78.8164C223.094 79.0931 223.41 79.3775 223.732 79.6572C224.302 79.8303 224.869 80.0115 225.44 80.186C225.112 79.9411 224.791 79.689 224.462 79.4454C223.897 79.2374 223.338 79.0209 222.772 78.8164ZM220.056 76.5199L220.514 76.9079L221.37 77.2066L220.921 76.8811C220.634 76.7602 220.344 76.6413 220.056 76.5199ZM1026.92 289.352C1025.49 290.097 1024.05 290.859 1022.65 291.585C1023.23 291.348 1023.84 291.095 1024.43 290.859C1025.88 290.137 1027.36 289.38 1028.82 288.641L1026.92 289.352ZM1040.65 282.182L1034.36 285.471C1035.32 285.105 1036.26 284.765 1037.23 284.396C1039.48 283.258 1041.72 282.132 1043.98 280.987C1042.87 281.38 1041.75 281.795 1040.65 282.182ZM1054.69 274.741C1052.22 276.069 1049.73 277.411 1047.28 278.702C1048.59 278.233 1049.9 277.767 1051.21 277.291C1053.67 276.026 1056.18 274.719 1058.66 273.425C1057.33 273.874 1056.02 274.302 1054.69 274.741ZM1069.24 266.961C1066.19 268.605 1063.18 270.199 1060.14 271.828C1061.72 271.294 1063.33 270.727 1064.92 270.184C1067.89 268.636 1070.83 267.122 1073.82 265.547C1072.28 266.029 1070.77 266.487 1069.24 266.961ZM1083.58 259.132C1080.32 260.919 1077.06 262.713 1073.84 264.462C1075.48 263.942 1077.11 263.445 1078.77 262.917C1082.06 261.179 1085.37 259.409 1088.69 257.642C1086.98 258.137 1085.27 258.648 1083.58 259.132ZM1098.4 250.992C1094.83 252.969 1091.31 254.895 1087.77 256.838C1089.56 256.318 1091.35 255.802 1093.15 255.268C1096.61 253.411 1100.1 251.528 1103.61 249.625C1101.86 250.09 1100.13 250.539 1098.4 250.992ZM1113.34 242.642C1109.52 244.783 1105.7 246.917 1101.92 249.022C1103.78 248.529 1105.67 247.99 1107.54 247.484C1111.29 245.447 1115.05 243.405 1118.82 241.346C1116.98 241.786 1115.16 242.215 1113.34 242.642ZM1128.45 234.108C1124.48 236.368 1120.52 238.61 1116.6 240.819C1118.48 240.371 1120.34 239.948 1122.23 239.487C1126.11 237.353 1130.06 235.138 1134 232.937C1132.15 233.33 1130.3 233.727 1128.45 234.108ZM1143.91 225.288C1139.69 227.704 1135.51 230.085 1131.32 232.471C1133.23 232.072 1135.16 231.641 1137.07 231.227C1141.22 228.915 1145.34 226.639 1149.52 224.288C1147.65 224.629 1145.78 224.961 1143.91 225.288ZM1159.46 216.28C1155.14 218.802 1150.81 221.332 1146.55 223.784C1148.42 223.448 1150.29 223.128 1152.17 222.781C1156.4 220.391 1160.7 217.941 1164.99 215.49C1163.14 215.766 1161.31 216.016 1159.46 216.28ZM1175.32 207.043C1170.77 209.709 1166.3 212.297 1161.79 214.93C1163.68 214.654 1165.58 214.367 1167.48 214.079C1171.9 211.55 1176.34 209.007 1180.82 206.427C1178.98 206.638 1177.15 206.843 1175.32 207.043ZM241.937 104.562C242.544 105.348 243.143 106.141 243.743 106.935C245.557 106.918 247.373 106.894 249.185 106.883C248.529 106.134 247.869 105.392 247.208 104.649C245.454 104.613 243.695 104.589 241.937 104.562ZM239.341 101.243C239.945 102.005 240.543 102.773 241.141 103.543C242.861 103.569 244.583 103.589 246.299 103.622C245.647 102.894 244.987 102.178 244.33 101.458C242.67 101.38 241.005 101.313 239.341 101.243ZM236.701 97.9723C237.306 98.7121 237.912 99.4506 238.511 100.198C240.131 100.264 241.749 100.336 243.368 100.408C242.724 99.7107 242.079 99.0143 241.43 98.3237C239.856 98.2036 238.28 98.0831 236.701 97.9723ZM234.043 94.7643C234.638 95.4713 235.236 96.1784 235.824 96.8944C237.351 96.9988 238.871 97.1167 240.391 97.2339C239.757 96.5654 239.127 95.8936 238.487 95.2328C237.009 95.0728 235.528 94.9141 234.043 94.7643ZM231.37 91.6237C231.954 92.2951 232.529 92.9771 233.106 93.6562C234.527 93.7975 235.947 93.9409 237.363 94.0924C236.733 93.4486 236.099 92.8082 235.463 92.1725C234.103 91.9815 232.735 91.8053 231.37 91.6237ZM228.645 88.5319C229.217 89.1694 229.781 89.8178 230.347 90.4625C231.661 90.6348 232.974 90.8084 234.285 90.9884C233.673 90.3827 233.05 89.7924 232.433 89.194C231.171 88.9711 229.912 88.7441 228.645 88.5319ZM225.905 85.5296C226.453 86.1234 227.003 86.7146 227.546 87.313C228.745 87.512 229.937 87.7217 231.129 87.9301C230.538 87.3652 229.942 86.8075 229.347 86.249C228.203 86.0024 227.053 85.7673 225.905 85.5296ZM223.14 82.5872C223.666 83.1373 224.195 83.6822 224.717 84.2391C225.77 84.4525 226.825 84.6634 227.875 84.8837C227.331 84.3812 226.791 83.8736 226.242 83.3762C225.208 83.1131 224.178 82.8444 223.14 82.5872ZM220.403 79.7565C220.87 80.228 221.329 80.7105 221.791 81.1867C222.718 81.4117 223.637 81.6468 224.557 81.8806C224.05 81.4303 223.547 80.9787 223.037 80.5335C222.163 80.2687 221.282 80.0137 220.403 79.7565ZM217.636 77.0123C218.047 77.4133 218.453 77.822 218.861 78.2265C219.613 78.4433 220.367 78.6598 221.118 78.8792C220.684 78.5087 220.247 78.1403 219.81 77.772C219.085 77.5194 218.363 77.2618 217.636 77.0123ZM214.931 74.42C215.243 74.7141 215.556 75.0074 215.866 75.3036C216.417 75.4886 216.969 75.672 217.519 75.8592C217.18 75.5825 216.835 75.3112 216.495 75.0354C215.977 74.8249 215.451 74.6267 214.931 74.42ZM212.373 72.0289C212.535 72.1766 212.7 72.3183 212.861 72.4673C213.146 72.5772 213.428 72.6914 213.713 72.8017C213.55 72.6752 213.385 72.5539 213.222 72.427C212.939 72.295 212.657 72.1596 212.373 72.0289ZM1001.94 300.776C1000.59 301.479 999.237 302.197 997.905 302.891C998.408 302.686 998.893 302.5 999.396 302.295C1000.84 301.568 1002.32 300.805 1003.78 300.063C1003.16 300.297 1002.54 300.543 1001.94 300.776ZM1015.88 293.46C1013.9 294.504 1011.97 295.506 1010 296.542C1010.96 296.17 1011.9 295.81 1012.86 295.435C1014.91 294.391 1016.92 293.374 1018.97 292.325C1017.94 292.7 1016.9 293.088 1015.88 293.46ZM1030.13 285.827C1027.63 287.171 1025.12 288.527 1022.64 289.849C1023.97 289.359 1025.32 288.849 1026.65 288.352C1029.08 287.093 1031.54 285.797 1033.99 284.518C1032.69 284.966 1031.42 285.386 1030.13 285.827ZM1044.62 278.011C1041.61 279.653 1038.64 281.248 1035.65 282.862C1037.2 282.323 1038.77 281.754 1040.33 281.205C1043.28 279.652 1046.23 278.107 1049.21 276.522C1047.68 277.023 1046.15 277.521 1044.62 278.011ZM1058.97 270.132C1055.8 271.878 1052.62 273.628 1049.46 275.355C1051.1 274.818 1052.72 274.308 1054.37 273.759C1057.61 272.031 1060.87 270.285 1064.13 268.54C1062.42 269.062 1060.68 269.622 1058.97 270.132ZM1073.94 261.831C1070.43 263.796 1066.93 265.747 1063.46 267.666C1065.27 267.117 1067.08 266.55 1068.9 265.987C1072.26 264.168 1075.68 262.296 1079.09 260.425C1077.36 260.913 1075.66 261.356 1073.94 261.831ZM1088.99 253.393C1085.19 255.53 1081.42 257.639 1077.64 259.754C1079.49 259.237 1081.35 258.701 1083.21 258.168C1086.98 256.102 1090.72 254.076 1094.52 251.981C1092.67 252.457 1090.82 252.932 1088.99 253.393ZM1104.13 244.764C1100.22 247.01 1096.29 249.266 1092.44 251.451C1094.3 250.976 1096.16 250.512 1098.03 250.024C1101.89 247.885 1105.79 245.691 1109.7 243.502C1107.84 243.93 1105.98 244.349 1104.13 244.764ZM1119.68 235.855C1115.45 238.293 1111.3 240.661 1107.11 243.06C1109.05 242.621 1111.01 242.135 1112.95 241.68C1117.05 239.382 1121.13 237.085 1125.27 234.742C1123.4 235.119 1121.54 235.491 1119.68 235.855ZM1135.27 226.767C1130.96 229.289 1126.66 231.803 1122.39 234.271C1124.29 233.895 1126.17 233.531 1128.08 233.14C1132.33 230.723 1136.6 228.286 1140.89 225.827C1139.01 226.151 1137.15 226.456 1135.27 226.767ZM1151.12 217.459C1146.63 220.115 1142.17 222.736 1137.73 225.338C1139.65 225.011 1141.59 224.662 1143.53 224.322C1147.9 221.808 1152.32 219.242 1156.76 216.662C1154.88 216.926 1153 217.207 1151.12 217.459ZM1167.25 207.892C1162.6 210.663 1157.99 213.39 1153.39 216.116C1155.28 215.856 1157.18 215.583 1159.08 215.311C1163.67 212.642 1168.22 210.01 1172.84 207.303C1170.98 207.503 1169.11 207.704 1167.25 207.892ZM235.102 104.475C235.669 105.32 236.233 106.168 236.792 107.021C238.647 106.991 240.498 106.969 242.348 106.949C241.732 106.143 241.115 105.338 240.494 104.54C238.699 104.512 236.902 104.49 235.102 104.475ZM232.725 100.99C233.294 101.815 233.869 102.633 234.432 103.465C236.19 103.479 237.945 103.498 239.697 103.522C239.086 102.74 238.476 101.953 237.856 101.179C236.149 101.111 234.437 101.048 232.725 100.99ZM230.319 97.5577C230.887 98.3543 231.453 99.1531 232.014 99.959C233.68 100.014 235.346 100.07 237.008 100.134C236.394 99.3729 235.781 98.6124 235.161 97.8608C233.552 97.7521 231.933 97.6579 230.319 97.5577ZM227.882 94.1718C228.447 94.9396 229.002 95.7213 229.559 96.4984C231.135 96.5927 232.71 96.6903 234.283 96.7921C233.672 96.0587 233.055 95.3351 232.439 94.6102C230.922 94.4595 229.405 94.311 227.882 94.1718ZM225.401 90.8568C225.957 91.5923 226.511 92.3333 227.063 93.0764C228.548 93.2093 230.026 93.3574 231.503 93.5025C230.896 92.795 230.282 92.0961 229.669 91.3971C228.249 91.2108 226.826 91.0329 225.401 90.8568ZM222.886 87.6024C223.442 88.312 224 89.0153 224.55 89.733C225.917 89.8972 227.285 90.0611 228.646 90.2359C228.054 89.5666 227.462 88.8981 226.863 88.2373C225.541 88.0213 224.214 87.8104 222.886 87.6024ZM220.344 84.4118C220.885 85.0802 221.427 85.7478 221.963 86.4235C223.229 86.6191 224.49 86.8232 225.751 87.0278C225.176 86.3988 224.603 85.7665 224.021 85.1447C222.798 84.896 221.573 84.649 220.344 84.4118ZM217.798 81.3072C218.316 81.9243 218.823 82.5537 219.335 83.1776C220.487 83.397 221.638 83.616 222.785 83.8439C222.223 83.2532 221.659 82.6675 221.091 82.0826C219.997 81.8195 218.898 81.5644 217.798 81.3072ZM215.189 78.2638C215.682 78.8312 216.17 79.4051 216.658 79.9784C217.695 80.2157 218.726 80.4644 219.76 80.7084C219.225 80.1668 218.68 79.6376 218.141 79.1025C217.159 78.819 216.177 78.538 215.189 78.2638ZM212.587 75.332C213.044 75.8405 213.504 76.3425 213.958 76.8556C214.838 77.0946 215.724 77.3267 216.6 77.5716C216.115 77.1005 215.626 76.635 215.138 76.1677C214.29 75.8859 213.439 75.6087 212.587 75.332ZM209.997 72.5025C210.39 72.9248 210.787 73.3437 211.178 73.7681C211.906 73.999 212.627 74.243 213.351 74.4803C212.936 74.0911 212.528 73.6947 212.11 73.3102C211.407 73.0385 210.703 72.7686 209.997 72.5025ZM207.47 69.8373C207.768 70.1433 208.058 70.4598 208.354 70.7684C208.876 70.9619 209.401 71.1516 209.922 71.3473C209.608 71.0663 209.297 70.7811 208.983 70.5031C208.478 70.2799 207.976 70.0571 207.47 69.8373ZM204.99 67.3371L205.449 67.7975C205.709 67.907 205.972 68.0119 206.231 68.1227L205.743 67.708C205.495 67.5811 205.241 67.4636 204.99 67.3371ZM976.665 312.499C975.561 313.077 974.446 313.669 973.343 314.248C973.81 314.055 974.269 313.869 974.736 313.673C975.916 313.074 977.12 312.451 978.306 311.844C977.765 312.057 977.206 312.288 976.665 312.499ZM991.137 304.843C989.221 305.871 987.331 306.874 985.434 307.881C986.355 307.514 987.283 307.141 988.207 306.771C990.173 305.758 992.09 304.794 994.07 303.767C993.082 304.137 992.12 304.478 991.137 304.843ZM1005.36 297.18C1002.81 298.552 1000.25 299.937 997.701 301.308C999.022 300.808 1000.39 300.26 1001.72 299.753C1004.2 298.453 1006.71 297.129 1009.2 295.822C1007.92 296.28 1006.64 296.728 1005.36 297.18ZM1019.69 289.375C1016.88 290.923 1014.07 292.476 1011.3 293.983C1012.74 293.464 1014.15 292.984 1015.61 292.457C1018.49 290.931 1021.4 289.37 1024.31 287.804C1022.78 288.322 1021.22 288.865 1019.69 289.375ZM1034.42 281.268C1031.22 283.039 1028.05 284.774 1024.86 286.53C1026.51 285.972 1028.16 285.413 1029.82 284.843C1033 283.136 1036.15 281.45 1039.34 279.726C1037.69 280.249 1036.06 280.756 1034.42 281.268ZM1049.28 272.944C1045.79 274.909 1042.3 276.881 1038.86 278.799C1040.66 278.229 1042.49 277.614 1044.3 277.032C1047.66 275.201 1051.07 273.316 1054.48 271.44C1052.73 271.955 1051.01 272.444 1049.28 272.944ZM1064.36 264.444C1060.62 266.568 1056.93 268.639 1053.23 270.728C1055.03 270.196 1056.81 269.703 1058.63 269.158C1062.37 267.095 1066.1 265.04 1069.88 262.937C1068.04 263.437 1066.19 263.957 1064.36 264.444ZM1079.64 255.691C1075.72 257.945 1071.8 260.194 1067.91 262.409C1069.8 261.901 1071.69 261.385 1073.58 260.862C1077.42 258.718 1081.28 256.55 1085.15 254.371C1083.3 254.828 1081.48 255.248 1079.64 255.691ZM1095.14 246.729C1091 249.14 1086.88 251.534 1082.79 253.89C1084.72 253.418 1086.68 252.914 1088.62 252.425C1092.65 250.15 1096.72 247.826 1100.8 245.493C1098.91 245.91 1097.02 246.326 1095.14 246.729ZM1110.9 237.54C1106.58 240.068 1102.3 242.558 1098.02 245.053C1099.93 244.636 1101.84 244.229 1103.76 243.797C1108.03 241.358 1112.26 238.951 1116.56 236.477C1114.67 236.843 1112.78 237.188 1110.9 237.54ZM1126.76 228.152C1122.32 230.797 1117.86 233.455 1113.49 236.028C1115.42 235.663 1117.36 235.268 1119.3 234.888C1123.64 232.379 1128.04 229.801 1132.44 227.227C1130.55 227.537 1128.65 227.857 1126.76 228.152ZM1142.97 218.498C1138.33 221.279 1133.75 223.992 1129.15 226.732C1131.06 226.425 1132.98 226.116 1134.9 225.796C1139.43 223.142 1143.97 220.494 1148.55 217.79C1146.69 218.035 1144.83 218.265 1142.97 218.498ZM1159.28 208.656C1154.53 211.532 1149.8 214.394 1145.12 217.207C1146.99 216.965 1148.86 216.741 1150.74 216.49C1155.4 213.736 1160.09 210.954 1164.81 208.144C1162.96 208.326 1161.12 208.484 1159.28 208.656ZM228.238 104.44C228.763 105.345 229.288 106.247 229.807 107.158C231.69 107.115 233.569 107.08 235.449 107.047C234.88 106.183 234.312 105.32 233.736 104.467C231.905 104.454 230.073 104.442 228.238 104.44ZM226.086 100.781C226.611 101.66 227.133 102.546 227.652 103.432C229.454 103.434 231.25 103.446 233.047 103.459C232.472 102.616 231.894 101.781 231.314 100.945C229.573 100.886 227.832 100.826 226.086 100.781ZM223.912 97.1885C224.437 98.0377 224.949 98.9026 225.468 99.7604C227.183 99.8032 228.893 99.8576 230.603 99.9132C230.026 99.0894 229.438 98.2801 228.853 97.4656C227.209 97.3672 225.561 97.2759 223.912 97.1885ZM221.674 93.6438C222.204 94.474 222.731 95.3071 223.254 96.1449C224.869 96.2272 226.484 96.3108 228.093 96.4059C227.518 95.611 226.939 94.8207 226.356 94.033C224.799 93.8981 223.237 93.7707 221.674 93.6438ZM219.397 90.1442C219.931 90.9531 220.47 91.7553 220.997 92.5727C222.516 92.6945 224.031 92.8222 225.546 92.9499C224.976 92.1894 224.411 91.4225 223.835 90.6701C222.357 90.4901 220.882 90.3097 219.397 90.1442ZM217.111 86.7333C217.635 87.5002 218.156 88.2717 218.673 89.0471C220.105 89.2046 221.531 89.3722 222.955 89.5415C222.384 88.8031 221.81 88.0689 221.233 87.3389C219.864 87.1301 218.487 86.9332 217.111 86.7333ZM214.784 83.369C215.303 84.1011 215.808 84.8502 216.321 85.5903C217.648 85.7813 218.979 85.9672 220.302 86.1654C219.741 85.4647 219.171 84.7768 218.603 84.0854C217.331 83.8439 216.062 83.599 214.784 83.369ZM212.405 80.0901C212.911 80.7789 213.414 81.4732 213.915 82.1713C215.146 82.3903 216.371 82.622 217.595 82.8521C217.039 82.1845 216.474 81.5237 215.912 80.8629C214.748 80.5972 213.575 80.3451 212.405 80.0901ZM209.986 76.8633C210.487 77.5199 210.994 78.17 211.489 78.8351C212.589 79.0715 213.692 79.3062 214.787 79.5502C214.262 78.9424 213.737 78.3318 213.206 77.7295C212.134 77.4388 211.065 77.1438 209.986 76.8633ZM207.578 73.7554C208.046 74.3453 208.509 74.936 208.971 75.5319C209.96 75.7849 210.945 76.0455 211.928 76.3094C211.421 75.7454 210.918 75.1759 210.407 74.6182C209.47 74.3232 208.521 74.0448 207.578 73.7554ZM205.137 70.7124C205.568 71.2378 205.989 71.7768 206.417 72.3073C207.271 72.5632 208.121 72.8255 208.973 73.0865C208.51 72.5929 208.044 72.1006 207.576 71.6121C206.763 71.3116 205.955 71.0039 205.137 70.7124ZM202.692 67.8175C203.067 68.2559 203.44 68.6965 203.811 69.1396C204.506 69.3823 205.204 69.617 205.895 69.8644C205.488 69.4485 205.074 69.0419 204.664 68.6302C204.009 68.3552 203.35 68.087 202.692 67.8175ZM200.263 65.03C200.56 65.3636 200.86 65.6908 201.155 66.0269C201.674 66.2357 202.186 66.4535 202.702 66.6657C202.379 66.3503 202.048 66.046 201.723 65.7349C201.236 65.4998 200.752 65.2613 200.263 65.03ZM198.034 62.5405C198.177 62.6954 198.314 62.8566 198.458 63.0132L199.224 63.3647C199.076 63.2284 198.932 63.0858 198.785 62.95L198.034 62.5405ZM951.853 324.119L948.506 325.885L949.706 325.376C950.833 324.799 951.973 324.208 953.101 323.63C952.681 323.798 952.272 323.952 951.853 324.119ZM966.049 316.529C964.155 317.553 962.243 318.591 960.368 319.595C961.325 319.207 962.308 318.791 963.268 318.4C965.144 317.425 967.037 316.432 968.935 315.433C967.969 315.804 967.012 316.162 966.049 316.529ZM980.398 308.786C977.904 310.143 975.461 311.447 972.981 312.789C974.156 312.335 975.291 311.922 976.471 311.462C979.046 310.105 981.612 308.76 984.196 307.393C982.932 307.855 981.656 308.33 980.398 308.786ZM994.586 300.978C991.872 302.475 989.148 303.984 986.458 305.459C987.937 304.914 989.406 304.383 990.893 303.829C993.622 302.371 996.395 300.867 999.154 299.377C997.637 299.904 996.095 300.46 994.586 300.978ZM1009.57 292.678C1006.38 294.462 1003.22 296.21 1000.06 297.96C1001.72 297.383 1003.4 296.776 1005.07 296.186C1008.17 294.507 1011.26 292.848 1014.39 291.139C1012.77 291.668 1011.18 292.156 1009.57 292.678ZM1024.46 284.304C1020.98 286.267 1017.49 288.228 1014.03 290.167C1015.8 289.587 1017.59 288.989 1019.36 288.396C1022.79 286.517 1026.25 284.611 1029.7 282.706C1027.95 283.244 1026.2 283.778 1024.46 284.304ZM1039.43 275.789C1035.82 277.859 1032.21 279.928 1028.65 281.945C1030.47 281.389 1032.27 280.856 1034.09 280.286C1037.7 278.286 1041.34 276.238 1045 274.184C1043.15 274.71 1041.27 275.275 1039.43 275.789ZM1055 266.866C1051.03 269.151 1047.13 271.378 1043.19 273.632C1045.1 273.093 1047.02 272.523 1048.94 271.97C1052.79 269.802 1056.62 267.667 1060.5 265.47C1058.65 265.954 1056.84 266.396 1055 266.866ZM1070.42 257.873C1066.35 260.259 1062.27 262.652 1058.25 264.98C1060.16 264.484 1062.07 263.99 1063.99 263.479C1068 261.199 1072.07 258.857 1076.14 256.52C1074.23 256.972 1072.32 257.436 1070.42 257.873ZM1086.25 248.592C1081.96 251.125 1077.71 253.611 1073.47 256.097C1075.4 255.643 1077.33 255.19 1079.28 254.721C1083.47 252.313 1087.66 249.898 1091.89 247.44C1090 247.839 1088.13 248.207 1086.25 248.592ZM1102.19 239.129C1097.74 241.78 1093.31 244.412 1088.91 247.015C1090.85 246.611 1092.81 246.184 1094.76 245.765C1099.13 243.225 1103.52 240.665 1107.93 238.082C1106.01 238.433 1104.1 238.792 1102.19 239.129ZM1118.39 229.415C1113.81 232.177 1109.23 234.93 1104.71 237.629C1106.65 237.282 1108.58 236.932 1110.52 236.57C1114.97 233.953 1119.49 231.272 1124.01 228.589C1122.13 228.878 1120.26 229.137 1118.39 229.415ZM1134.81 219.5C1130.05 222.387 1125.36 225.21 1120.64 228.055C1122.55 227.767 1124.46 227.484 1126.37 227.182C1131.06 224.398 1135.72 221.65 1140.45 218.818C1138.57 219.051 1136.69 219.28 1134.81 219.5ZM1151.34 209.374C1146.5 212.356 1141.64 215.348 1136.87 218.25C1138.77 218.022 1140.68 217.765 1142.59 217.526C1147.32 214.691 1152.12 211.783 1156.92 208.874C1155.06 209.043 1153.2 209.215 1151.34 209.374ZM221.353 104.465C221.829 105.419 222.298 106.383 222.767 107.347C224.68 107.291 226.596 107.232 228.506 107.183C227.979 106.26 227.444 105.349 226.91 104.433C225.061 104.436 223.206 104.454 221.353 104.465ZM219.422 100.641C219.902 101.574 220.373 102.519 220.846 103.462C222.674 103.451 224.503 103.436 226.328 103.432C225.799 102.533 225.263 101.642 224.727 100.753C222.96 100.712 221.193 100.673 219.422 100.641ZM217.438 96.8677C217.927 97.7818 218.412 98.6989 218.892 99.6229C220.635 99.6526 222.372 99.6916 224.11 99.7328C223.579 98.8577 223.047 97.9838 222.509 97.1185C220.821 97.0298 219.133 96.9428 217.438 96.8677ZM215.432 93.1677C215.922 94.0555 216.413 94.94 216.895 95.8363C218.551 95.9081 220.201 95.9899 221.851 96.0736C221.315 95.2218 220.783 94.3666 220.242 93.5251C218.642 93.3982 217.037 93.2831 215.432 93.1677ZM213.385 89.511C213.877 90.373 214.364 91.2413 214.849 92.1135C216.414 92.2242 217.982 92.3307 219.541 92.4517C219.004 91.6258 218.461 90.805 217.917 89.9876C216.408 89.8251 214.899 89.6638 213.385 89.511ZM211.307 85.9252C211.796 86.7511 212.274 87.5897 212.756 88.4258C214.24 88.5735 215.716 88.7322 217.194 88.8922C216.654 88.0897 216.102 87.3024 215.555 86.51C214.143 86.3093 212.727 86.1132 211.307 85.9252ZM209.167 82.4022C209.659 83.2014 210.15 84.0039 210.635 84.8124C212.015 84.9932 213.393 85.174 214.766 85.3658C214.23 84.6006 213.692 83.8384 213.149 83.0804C211.825 82.8491 210.497 82.6246 209.167 82.4022ZM206.993 78.942C207.483 79.7081 207.977 80.4669 208.461 81.2423C209.74 81.4528 211.015 81.6744 212.289 81.8946C211.764 81.1697 211.242 80.4372 210.711 79.7213C209.475 79.456 208.236 79.1954 206.993 78.942ZM204.797 75.5634C205.276 76.2836 205.749 77.0097 206.222 77.7367C207.399 77.9731 208.576 78.2095 209.747 78.457C209.229 77.7698 208.712 77.0857 208.188 76.4079C207.059 76.1236 205.93 75.8405 204.797 75.5634ZM202.569 72.2661C203.028 72.9286 203.475 73.6064 203.929 74.2774C205.01 74.5371 206.083 74.81 207.157 75.0808C206.649 74.4336 206.13 73.7978 205.615 73.1574C204.604 72.8544 203.587 72.5594 202.569 72.2661ZM200.28 69.0445C200.725 69.6624 201.169 70.2825 201.608 70.9081C202.558 71.1763 203.513 71.436 204.457 71.7131C203.979 71.1279 203.489 70.5571 203.005 69.9803C202.097 69.6671 201.192 69.3509 200.28 69.0445ZM197.992 65.9382C198.402 66.4844 198.821 67.0226 199.227 67.5756C200.047 67.8447 200.86 68.1261 201.674 68.4062C201.226 67.8829 200.778 67.3588 200.325 66.8406C199.552 66.5316 198.769 66.2396 197.992 65.9382ZM195.701 62.9326C196.062 63.3944 196.419 63.8616 196.777 64.3285C197.441 64.5806 198.101 64.8357 198.762 65.0903C198.381 64.6667 198.007 64.236 197.624 63.8167C196.981 63.5234 196.346 63.2208 195.701 62.9326ZM193.455 60.1251C193.726 60.4579 193.992 60.797 194.261 61.1323C194.732 61.3368 195.21 61.5321 195.678 61.7409C195.385 61.4302 195.093 61.1191 194.8 60.8123C194.354 60.5793 193.903 60.3547 193.455 60.1251ZM191.228 57.4569L191.68 57.9891C191.923 58.1092 192.161 58.237 192.404 58.3597L191.917 57.8741C191.686 57.7375 191.46 57.594 191.228 57.4569ZM926.903 335.947C925.668 336.61 924.471 337.233 923.246 337.886L924.031 337.548L927.95 335.526L926.903 335.947ZM940.772 328.458C938.875 329.48 936.963 330.519 935.069 331.539C935.94 331.179 936.797 330.836 937.671 330.473C939.612 329.457 941.588 328.404 943.545 327.371C942.622 327.733 941.692 328.102 940.772 328.458ZM954.954 320.742C952.715 321.976 950.483 323.203 948.275 324.407C949.426 323.953 950.557 323.52 951.713 323.06C954.124 321.78 956.503 320.533 958.935 319.231C957.618 319.723 956.264 320.257 954.954 320.742ZM969.676 312.623C966.912 314.15 964.153 315.671 961.393 317.191C962.869 316.635 964.358 316.066 965.841 315.5C968.499 314.07 971.18 312.616 973.846 311.179C972.438 311.68 971.076 312.129 969.676 312.623ZM984.464 304.352C981.313 306.129 978.15 307.92 975.045 309.65C976.724 309.05 978.456 308.39 980.144 307.778C983.167 306.13 986.236 304.433 989.305 302.739C987.682 303.287 986.077 303.815 984.464 304.352ZM999.463 295.906C996.019 297.86 992.639 299.75 989.222 301.676C990.926 301.099 992.593 300.568 994.308 299.98C997.797 298.054 1001.25 296.165 1004.76 294.213C1003 294.774 1001.22 295.357 999.463 295.906ZM1014.54 287.263C1010.93 289.341 1007.31 291.421 1003.73 293.46C1005.57 292.877 1007.41 292.291 1009.26 291.694C1012.79 289.72 1016.37 287.697 1019.94 285.68C1018.14 286.218 1016.34 286.739 1014.54 287.263ZM1030.02 278.325C1026.1 280.608 1022.2 282.862 1018.32 285.097C1020.24 284.53 1022.2 283.906 1024.13 283.324C1027.93 281.178 1031.74 279.019 1035.58 276.827C1033.72 277.34 1031.87 277.826 1030.02 278.325ZM1045.55 269.262C1041.49 271.636 1037.46 273.993 1033.43 276.337C1035.32 275.819 1037.19 275.34 1039.1 274.809C1043.16 272.487 1047.23 270.151 1051.32 267.798C1049.4 268.282 1047.46 268.793 1045.55 269.262ZM1061.4 259.9C1057.17 262.413 1052.93 264.937 1048.77 267.386C1050.72 266.9 1052.68 266.397 1054.64 265.896C1058.72 263.533 1062.88 261.097 1067.03 258.67C1065.14 259.1 1063.28 259.484 1061.4 259.9ZM1077.44 250.36C1072.99 253.023 1068.61 255.616 1064.2 258.236C1066.15 257.799 1068.1 257.356 1070.06 256.903C1074.44 254.342 1078.8 251.805 1083.23 249.2C1081.3 249.587 1079.36 249.988 1077.44 250.36ZM1093.64 240.59C1089.08 243.346 1084.53 246.103 1080.04 248.796C1081.98 248.411 1083.93 248.022 1085.88 247.622C1090.31 245.005 1094.8 242.33 1099.3 239.653C1097.4 239.984 1095.53 240.274 1093.64 240.59ZM1110.03 230.637C1105.33 233.508 1100.65 236.351 1096 239.163C1097.94 238.834 1099.87 238.502 1101.81 238.159C1106.43 235.404 1111.08 232.615 1115.76 229.801C1113.85 230.077 1111.93 230.374 1110.03 230.637ZM1126.71 220.413C1121.86 223.399 1117.03 226.356 1112.23 229.29C1114.15 229.019 1116.08 228.726 1118.01 228.44C1122.78 225.571 1127.55 222.693 1132.36 219.777C1130.48 219.992 1128.59 220.209 1126.71 220.413ZM1143.52 210C1138.58 213.078 1133.62 216.165 1128.75 219.166C1130.64 218.955 1132.54 218.747 1134.43 218.525C1139.26 215.593 1144.17 212.569 1149.07 209.556C1147.22 209.709 1145.37 209.858 1143.52 210ZM1126.35 219.436C1131.28 216.4 1136.28 213.288 1141.29 210.18C970.043 223.049 813.455 191.714 657.049 160.417C562.072 141.412 467.16 122.424 369.079 113.364C453.388 124.639 534.786 144.001 616.657 163.48C776.365 201.476 937.887 239.89 1126.35 219.436ZM1109.67 229.659C1114.51 226.702 1119.4 223.7 1124.31 220.685C936.598 240.639 775.579 202.325 616.355 164.444C530.028 143.906 444.227 123.502 354.992 112.58C432.5 125.5 506.858 146.316 581.924 167.337C742.08 212.19 905.473 257.956 1109.67 229.659ZM969.443 311.606C972.756 309.766 976.088 307.909 979.444 306.026C657.398 411.668 524.064 299.725 398.871 194.537C362.773 164.208 327.347 134.453 288.251 110.662M214.424 104.531C214.85 105.539 215.27 106.555 215.688 107.573C217.631 107.503 219.571 107.443 221.51 107.384C221.032 106.409 220.553 105.437 220.068 104.472C218.19 104.486 216.307 104.505 214.424 104.531ZM212.704 100.551C213.138 101.543 213.575 102.531 214.002 103.533C215.857 103.506 217.711 103.484 219.562 103.469C219.081 102.515 218.602 101.558 218.112 100.614C216.313 100.585 214.508 100.569 212.704 100.551ZM210.948 96.6185C211.389 97.59 211.83 98.5597 212.264 99.541C214.035 99.5567 215.808 99.569 217.575 99.5948C217.089 98.6654 216.603 97.736 216.11 96.8171C214.392 96.7467 212.672 96.6788 210.948 96.6185ZM209.16 92.7458C209.605 93.6872 210.042 94.6382 210.479 95.591C212.175 95.6492 213.867 95.7171 215.559 95.7854C215.065 94.8738 214.561 93.9745 214.06 93.0717C212.429 92.9572 210.798 92.8464 209.16 92.7458ZM207.331 88.9376C207.78 89.8518 208.218 90.7787 208.659 91.7048C210.269 91.8019 211.875 91.9068 213.479 92.0176C212.977 91.1263 212.47 90.2435 211.962 89.3612C210.423 89.2122 208.875 89.0772 207.331 88.9376ZM205.438 85.1714C205.895 86.0691 206.353 86.965 206.804 87.8724C208.317 88.0069 209.83 88.1389 211.338 88.2832C210.842 87.4314 210.345 86.5783 209.841 85.7368C208.377 85.5432 206.912 85.3501 205.438 85.1714ZM203.526 81.5008C203.982 82.361 204.44 83.2162 204.889 84.085C206.318 84.256 207.74 84.4393 209.162 84.6231C208.662 83.7947 208.164 82.9629 207.656 82.1442C206.284 81.9218 204.904 81.7121 203.526 81.5008ZM201.561 77.8636C202.02 78.6937 202.472 79.5324 202.924 80.3723C204.258 80.5751 205.595 80.7733 206.923 80.9864C206.424 80.1949 205.92 79.4101 205.415 78.6284C204.132 78.3695 202.852 78.1072 201.561 77.8636ZM199.573 74.3364C200.023 75.1156 200.462 75.9109 200.904 76.6986C202.156 76.9316 203.401 77.1765 204.644 77.4244C204.139 76.6558 203.621 75.9037 203.108 75.1444C201.937 74.8656 200.752 74.6051 199.573 74.3364ZM197.507 70.8473C197.958 71.5985 198.409 72.3489 198.853 73.1082C199.991 73.3632 201.127 73.6213 202.26 73.8844C201.772 73.1722 201.281 72.4652 200.786 71.7611C199.696 71.4534 198.606 71.1444 197.507 70.8473ZM195.428 67.4729C195.867 68.1715 196.312 68.8632 196.744 69.5699C197.773 69.8428 198.797 70.1191 199.818 70.4022C199.345 69.7414 198.879 69.0725 198.399 68.4189C197.414 68.0976 196.421 67.7853 195.428 67.4729ZM193.319 64.1732C193.734 64.806 194.143 65.4468 194.553 66.0868C195.473 66.3707 196.386 66.6686 197.302 66.9619C196.847 66.355 196.393 65.746 195.934 65.1455C195.066 64.8157 194.193 64.4932 193.319 64.1732ZM191.181 60.9833C191.566 61.5448 191.943 62.1194 192.323 62.6869C193.106 62.9678 193.897 63.2395 194.677 63.5276C194.258 62.9933 193.834 62.4683 193.41 61.9404C192.667 61.6208 191.927 61.297 191.181 60.9833ZM189.021 57.9204C189.356 58.3877 189.692 58.8554 190.024 59.3281C190.68 59.5972 191.329 59.8756 191.979 60.1541C191.594 59.6859 191.197 59.2343 190.808 58.7717C190.217 58.4802 189.614 58.2064 189.021 57.9204ZM186.879 54.992C187.154 55.3578 187.437 55.7143 187.708 56.0831C188.169 56.3 188.626 56.522 189.085 56.7393C188.798 56.4087 188.508 56.0802 188.218 55.75C187.77 55.5004 187.33 55.2394 186.879 54.992ZM184.882 52.3607C185.014 52.5292 185.14 52.704 185.27 52.8725C185.493 52.9922 185.719 53.1072 185.942 53.2269C185.801 53.0741 185.665 52.9154 185.524 52.763L184.882 52.3607ZM1166.07 199.106C1164.24 199.196 1162.42 199.294 1160.59 199.375C1155.47 202.583 1150.45 205.692 1145.4 208.836C1147.25 208.689 1149.11 208.548 1150.97 208.389C1156 205.304 1160.99 202.249 1166.07 199.106ZM1173.65 198.713C1171.83 198.815 1170.01 198.909 1168.19 199.002C1163.18 202.109 1158.23 205.142 1153.26 208.197C1155.14 208.033 1157.02 207.849 1158.9 207.676C1163.8 204.706 1168.7 201.736 1173.65 198.713ZM1181.29 198.257C1179.47 198.372 1177.65 198.477 1175.84 198.581C1170.95 201.567 1166.1 204.524 1161.26 207.456C1163.13 207.279 1165 207.103 1166.88 206.914C1171.64 204.067 1176.47 201.161 1181.29 198.257ZM1189 197.736C1187.17 197.865 1185.34 198.003 1183.51 198.123C1178.77 200.977 1174.01 203.859 1169.33 206.657C1171.2 206.465 1173.07 206.27 1174.95 206.067C1179.58 203.342 1184.31 200.52 1189 197.736ZM1196.77 197.17C1194.95 197.311 1193.13 197.443 1191.3 197.575C1186.66 200.333 1182 203.109 1177.41 205.807C1179.27 205.6 1181.15 205.368 1183.02 205.15C1187.58 202.518 1192.16 199.864 1196.77 197.17ZM1204.53 196.541C1202.75 196.692 1200.96 196.833 1199.17 196.976C1194.61 199.64 1190.11 202.239 1185.6 204.845C1187.47 204.622 1189.33 204.408 1191.2 204.174C1195.59 201.688 1200.09 199.087 1204.53 196.541ZM1212.44 195.833C1210.62 196.002 1208.79 196.179 1206.97 196.338C1202.65 198.816 1198.25 201.388 1193.98 203.811C1195.81 203.577 1197.64 203.337 1199.47 203.092C1203.75 200.714 1208.1 198.27 1212.44 195.833ZM1220.38 195.076C1218.57 195.258 1216.77 195.43 1214.96 195.601C1210.74 197.977 1206.47 200.402 1202.3 202.721C1204.13 202.472 1205.96 202.201 1207.8 201.94C1211.97 199.677 1216.15 197.396 1220.38 195.076ZM1228.39 194.247C1226.59 194.441 1224.8 194.621 1223.01 194.805C1218.92 197.056 1214.82 199.313 1210.78 201.511C1212.58 201.25 1214.37 201.002 1216.17 200.731C1220.23 198.578 1224.27 196.454 1228.39 194.247ZM1236.49 193.331C1234.7 193.54 1232.91 193.753 1231.11 193.95C1227.16 196.074 1223.24 198.161 1219.34 200.232C1221.13 199.957 1222.93 199.672 1224.72 199.386C1228.65 197.362 1232.52 195.404 1236.49 193.331ZM1244.53 192.372C1242.79 192.588 1241.05 192.801 1239.32 193.007C1235.51 195.001 1231.76 196.925 1227.98 198.873C1229.77 198.582 1231.56 198.268 1233.34 197.968C1237.07 196.103 1240.77 194.278 1244.53 192.372ZM1252.58 191.352C1250.93 191.572 1249.28 191.771 1247.62 191.981C1243.99 193.824 1240.44 195.566 1236.85 197.368C1238.56 197.071 1240.28 196.79 1242 196.484C1245.52 194.787 1249.04 193.088 1252.58 191.352ZM1260.76 190.227C1259.13 190.455 1257.51 190.683 1255.88 190.901C1252.5 192.562 1249.18 194.148 1245.82 195.778C1247.51 195.471 1249.2 195.16 1250.89 194.842C1254.16 193.329 1257.46 191.777 1260.76 190.227ZM1268.93 189.046C1267.36 189.28 1265.79 189.521 1264.22 189.747C1261.11 191.218 1258.03 192.651 1254.93 194.095C1256.58 193.779 1258.23 193.437 1259.88 193.113C1262.88 191.791 1265.92 190.402 1268.93 189.046ZM1277.07 187.816C1275.61 188.044 1274.16 188.255 1272.71 188.477C1269.93 189.736 1267.15 190.988 1264.38 192.223C1265.86 191.924 1267.34 191.63 1268.83 191.324C1271.56 190.179 1274.32 188.987 1277.07 187.816ZM1285.3 186.475C1283.96 186.698 1282.62 186.913 1281.28 187.13C1278.89 188.155 1276.49 189.197 1274.11 190.204C1275.38 189.936 1276.64 189.672 1277.91 189.399C1280.37 188.429 1282.82 187.466 1285.3 186.475ZM1293.25 185.12C1292.14 185.314 1291.03 185.514 1289.92 185.703C1288.04 186.463 1286.14 187.254 1284.26 188.001C1285.22 187.791 1286.17 187.571 1287.12 187.356C1289.16 186.609 1291.2 185.882 1293.25 185.12ZM1300.5 183.844C1299.91 183.953 1299.33 184.052 1298.74 184.158C1297.52 184.613 1296.3 185.089 1295.09 185.539C1295.54 185.434 1295.98 185.321 1296.43 185.216L1300.5 183.844ZM223.876 112.324C221.829 112.427 219.783 112.535 217.734 112.65C230.822 145.807 240.448 183.559 250.251 222.039C269.324 296.909 289.095 374.512 336.511 426.019C406.024 501.529 535.153 521.015 808.899 393.963C546.313 509.568 421.34 484.614 351.357 408.011C306.292 358.683 284.08 287.976 262.601 219.596C250.721 181.776 239.06 144.676 223.876 112.324ZM231.179 111.959C229.158 112.053 227.134 112.16 225.111 112.263C240.223 144.593 251.859 181.605 263.709 219.334C285.156 287.612 307.336 358.217 352.258 407.388C424.267 486.208 554.911 509.992 835.015 381.105C565.261 498.684 438.596 468.824 365.819 388.507C323.634 341.949 299.602 278.469 276.305 216.923C262.27 179.848 248.499 143.479 231.179 111.959ZM238.442 111.661C236.448 111.738 234.453 111.818 232.456 111.906C249.681 143.39 263.409 179.651 277.399 216.609C300.667 278.074 324.665 341.469 366.725 387.888C441.616 470.54 573.961 499.434 861.838 368.041C583.227 488.331 454.672 452.503 378.623 367.822C339.787 324.578 314.681 268.628 290.272 214.228C273.981 177.92 257.994 142.316 238.442 111.661ZM245.675 111.395C243.703 111.461 241.73 111.53 239.754 111.607C259.188 142.216 275.115 177.694 291.345 213.864C315.726 268.2 340.801 324.084 379.528 367.207C457.383 453.899 590.557 489.157 884.749 356.882L886.067 356.202C598.691 478.41 468.819 435.017 389.167 345.461C354.329 306.292 329.121 258.312 304.532 211.509C285.872 175.993 267.565 141.162 245.675 111.395ZM252.858 111.164C250.917 111.221 248.974 111.288 247.031 111.352C268.774 141.063 287.002 175.738 305.577 211.093C330.138 257.843 355.317 305.769 390.076 344.85C470.643 435.433 602.884 478.543 898.788 349.634C900.089 348.957 901.353 348.318 902.663 347.633C609.319 468.526 479.787 415.235 396.428 320.52C366.52 286.538 342.57 247.243 319.118 208.764C297.965 174.056 277.213 140.016 252.858 111.164ZM260.008 110.994C258.102 111.036 256.196 111.076 254.287 111.128C278.457 139.913 299.097 173.777 320.138 208.297C343.568 246.742 367.495 285.999 397.343 319.914C481.355 415.372 612.473 468.599 912.218 342.591C914.136 341.58 916.07 340.552 917.99 339.541C534.806 491.768 430.683 343.573 334.082 205.995C310.297 172.12 286.959 138.901 260.008 110.994ZM267.132 110.851C265.258 110.883 263.384 110.919 261.508 110.958C288.233 138.79 311.427 171.809 335.065 205.473C432.17 343.771 536.924 492.792 926.828 334.861C928.914 333.746 931.046 332.584 933.16 331.439C565.471 471.654 453.596 332.582 349.471 203.188C322.899 170.169 296.831 137.783 267.132 110.851ZM274.196 110.747C272.371 110.771 270.544 110.799 268.717 110.828C298.14 137.675 324.029 169.832 350.411 202.617C454.998 332.582 567.498 472.25 940.63 327.402C943.381 325.912 946.092 324.462 948.861 322.954C596.267 451.592 476.797 321.648 365.343 200.347C335.804 168.199 306.823 136.671 274.196 110.747ZM281.249 110.691C279.47 110.7 277.693 110.707 275.913 110.725C308.201 136.557 336.948 167.839 366.244 199.724C478.087 321.447 597.981 451.931 954.748 319.715C957.844 318.018 960.977 316.281 964.102 314.554C626.87 431.544 500.251 310.676 381.78 197.468C349.08 166.22 316.993 135.569 281.249 110.691ZM295.229 110.675C293.584 110.67 291.942 110.666 290.298 110.665C328.894 134.355 363.952 163.809 399.668 193.816C525.249 299.329 659.058 411.627 984.192 303.352C987.732 301.364 991.278 299.37 994.839 297.361C687.868 391.925 548.29 288.791 416.722 191.554C376.965 162.171 337.937 133.335 295.229 110.675ZM302.177 110.725C300.606 110.708 299.037 110.688 297.465 110.68C339.583 133.242 378.17 161.747 417.465 190.79C549.432 288.322 689.484 391.781 999.158 294.922C1002.9 292.795 1006.71 290.596 1010.51 288.41C718.419 372.274 573.034 277.888 435.475 188.509C391.748 160.096 348.805 132.202 302.177 110.725ZM309.076 110.798C307.629 110.777 306.178 110.767 304.729 110.751C350.638 132.134 393.019 159.67 436.165 187.704C574.105 277.333 719.904 372.031 1014.23 286.274C1018.25 283.969 1022.24 281.678 1026.3 279.329C748.957 352.841 598.402 267.012 455.307 185.392C407.236 157.973 360.005 131.036 309.076 110.798ZM315.97 110.922C314.637 110.899 313.307 110.871 311.975 110.849C362.034 131.003 408.583 157.542 455.939 184.554C599.426 266.397 750.43 352.47 1029.7 277.344C1033.81 274.955 1037.96 272.528 1042.11 270.094C779.519 333.563 624.509 256.148 476.441 182.191C423.596 155.797 371.631 129.852 315.97 110.922ZM322.824 111.07C321.658 111.041 320.491 111.008 319.323 110.983C373.934 129.844 425.048 155.37 477.014 181.326C625.487 255.484 780.943 333.135 1045.2 268.29C1049.52 265.758 1053.88 263.179 1058.25 260.586C810.293 314.453 651.577 245.321 499.17 178.898C441.013 153.552 383.768 128.611 322.824 111.07ZM329.641 111.245C328.707 111.218 327.771 111.198 326.837 111.172C386.475 128.672 442.641 153.143 499.684 178.004C652.505 244.608 811.674 313.939 1061.05 258.923C1065.51 256.276 1069.96 253.64 1074.47 250.953C841.208 295.621 679.819 234.521 523.881 175.497C459.752 151.224 396.547 127.303 329.641 111.245ZM336.489 111.464L334.555 111.4C399.814 127.455 461.638 150.847 524.34 174.581C680.714 233.77 842.592 295.023 1077.08 249.39C1081.64 246.66 1086.28 243.842 1090.91 241.041C872.485 276.956 709.564 223.749 551.101 171.967C480.202 148.798 410.19 125.921 336.489 111.464ZM343.237 111.7L342.71 111.678C414.284 126.196 482.476 148.473 551.507 171.029C710.416 222.957 873.812 276.318 1093.28 239.613C1098.01 236.752 1102.75 233.88 1107.54 230.964C904.21 258.625 741.276 213.014 581.572 168.288C502.83 146.238 424.871 124.406 343.237 111.7ZM706.19 156.208C600.127 138.541 493.289 120.748 383.482 113.755C476.562 123.278 566.905 141.351 657.306 159.442C814.205 190.837 971.291 222.257 1143.16 209.015C1148.27 205.844 1153.35 202.702 1158.52 199.461C1005.13 205.997 856.435 181.235 706.19 156.208ZM323.04 110.071L324.861 110.118L324.207 109.963C323.555 109.924 322.904 109.882 322.252 109.846L323.04 110.071ZM316.212 109.922C317.133 109.941 318.058 109.952 318.98 109.972C318.54 109.848 318.102 109.719 317.662 109.596L314.819 109.448L316.212 109.922ZM309.365 109.799C310.528 109.816 311.69 109.841 312.852 109.861C312.231 109.653 311.608 109.453 310.986 109.248C309.852 109.193 308.714 109.149 307.579 109.097C308.175 109.331 308.771 109.562 309.365 109.799ZM302.496 109.725L306.442 109.764L304.369 108.956C303.061 108.899 301.754 108.837 300.443 108.786C301.127 109.099 301.812 109.41 302.496 109.725ZM295.58 109.672C297.032 109.678 298.483 109.687 299.933 109.699C299.195 109.363 298.46 109.022 297.719 108.69C296.291 108.639 294.862 108.586 293.433 108.539C294.151 108.914 294.865 109.293 295.58 109.672ZM288.638 109.658C290.202 109.658 291.766 109.663 293.328 109.667C292.549 109.258 291.764 108.857 290.982 108.452C289.466 108.406 287.946 108.367 286.428 108.326C287.164 108.77 287.903 109.211 288.638 109.658ZM281.676 109.684C283.311 109.675 284.948 109.658 286.583 109.653C285.817 109.193 285.054 108.724 284.286 108.268C282.673 108.223 281.06 108.178 279.443 108.144C280.189 108.654 280.933 109.168 281.676 109.684ZM274.657 109.735C276.381 109.716 278.101 109.706 279.823 109.697C279.047 109.162 278.267 108.638 277.489 108.11C275.822 108.078 274.156 108.047 272.488 108.021C273.213 108.59 273.936 109.162 274.657 109.735ZM267.64 109.839C269.41 109.811 271.179 109.784 272.947 109.761C272.197 109.168 271.45 108.575 270.695 107.99C268.967 107.966 267.237 107.953 265.508 107.936C266.22 108.568 266.933 109.2 267.64 109.839ZM260.558 109.976C262.385 109.935 264.212 109.896 266.036 109.863C265.312 109.211 264.582 108.567 263.853 107.922C262.079 107.905 260.305 107.888 258.528 107.883C259.209 108.575 259.882 109.277 260.558 109.976ZM253.453 110.143C255.324 110.092 257.191 110.052 259.059 110.011C258.367 109.299 257.67 108.589 256.971 107.883C255.155 107.882 253.34 107.881 251.523 107.887C252.167 108.638 252.812 109.388 253.453 110.143ZM246.315 110.37C248.218 110.306 250.122 110.243 252.023 110.186C251.369 109.418 250.716 108.65 250.058 107.887C248.207 107.898 246.35 107.916 244.496 107.933C245.105 108.742 245.712 109.552 246.315 110.37ZM239.128 110.627C241.072 110.551 243.016 110.48 244.958 110.414C244.344 109.584 243.723 108.766 243.101 107.948C241.22 107.965 239.338 107.984 237.452 108.014C238.015 108.879 238.57 109.756 239.128 110.627ZM231.912 110.924C233.881 110.837 235.849 110.758 237.817 110.681C237.249 109.797 236.681 108.915 236.107 108.04C234.194 108.073 232.28 108.11 230.363 108.153C230.882 109.074 231.399 109.995 231.912 110.924ZM224.654 111.279C226.646 111.178 228.641 111.071 230.63 110.977C230.112 110.041 229.592 109.107 229.069 108.178C227.13 108.224 225.188 108.284 223.248 108.34C223.72 109.315 224.189 110.293 224.654 111.279ZM217.344 111.667C219.37 111.552 221.396 111.445 223.42 111.342C222.949 110.345 222.469 109.362 221.989 108.376C220.027 108.434 218.065 108.494 216.099 108.564C216.519 109.593 216.931 110.629 217.344 111.667ZM0 145.285C73.9654 126.108 145.832 115.801 216.131 111.74C215.714 110.693 215.293 109.65 214.867 108.612C145.888 111.154 74.7088 120.535 0.328943 139.821L0 138.861C74.3562 119.582 145.508 110.185 214.457 107.623C214.033 106.595 213.612 105.568 213.181 104.551C145.574 105.562 75.1183 114.003 0.329232 133.394L0 132.434C74.7547 113.051 145.175 104.594 212.746 103.553C212.314 102.543 211.877 101.539 211.436 100.54C145.231 99.9925 75.5267 107.471 0.328943 126.97L0 126.01C75.1593 106.522 144.828 99.0177 210.997 99.5282C210.554 98.5338 210.1 97.553 209.65 96.5684C144.878 94.4311 75.9394 100.94 0.329232 120.546L0 119.585C75.5579 99.9951 144.453 93.4533 209.181 95.5405C208.736 94.5784 208.286 93.6235 207.833 92.6707C144.519 88.9083 76.3682 94.4048 0.328943 114.12L0 113.161C75.9703 93.4622 144.069 87.9301 207.334 91.6283C206.882 90.6874 206.433 89.7453 205.973 88.8146C144.148 83.397 76.8017 87.8651 0.329232 107.693L0 106.734C76.3824 86.9289 143.666 82.4099 205.434 87.7476C204.977 86.833 204.519 85.9184 204.054 85.0149C143.751 77.9112 77.2375 81.328 0.329521 101.269L0 100.309C76.8017 80.3952 143.249 76.9185 203.494 83.9275C203.029 83.0363 202.556 82.1599 202.083 81.2788C143.337 72.4524 77.6785 74.7896 0.328943 94.8458L0 93.8858C77.2164 73.864 142.8 71.4479 201.483 80.152C201.016 79.2913 200.539 78.4433 200.064 77.5941C142.907 67.0111 78.1262 68.2466 0.328943 88.4181L0 87.4586C77.6306 67.3299 142.321 65.9998 199.409 76.43C198.944 75.6092 198.477 74.7879 198.004 73.9773C142.467 61.6012 78.5859 61.7031 0.329232 81.9944L0 81.034C78.0395 60.8 141.817 60.5644 197.272 72.7465C196.812 71.9728 196.359 71.1928 195.892 70.4276C142.011 56.2168 79.0547 55.1571 0.329232 75.5697L0 74.6097C78.4597 54.2658 141.292 55.1706 195.088 69.1391C194.626 68.3943 194.158 67.6537 193.687 66.9178C141.508 50.8493 79.5086 48.6144 0.329232 69.1438L0 68.1859C78.864 47.7372 140.729 49.7799 192.823 65.5554C192.373 64.8637 191.909 64.1893 191.452 63.506C141.004 45.5265 79.9886 42.0633 0.328943 62.7183L0 61.7587C79.2499 41.2107 140.104 44.4205 190.458 62.021C190.026 61.3882 189.587 60.7618 189.148 60.1371C140.472 40.2163 80.466 35.5152 0.328943 56.2945L0 55.3341C79.6164 34.6914 139.422 39.0827 187.999 58.5205C187.603 57.9709 187.215 57.4115 186.814 56.8662C139.944 34.9473 80.9705 28.9615 0.329232 49.8698L0 48.9098C79.9323 28.1844 138.657 33.7408 185.409 55.0128C185.066 54.5587 184.726 54.1011 184.379 53.653C139.36 29.7067 81.4624 22.4062 0.329232 43.4431L0 42.483C80.1951 21.6897 137.788 28.4157 182.678 51.503C182.401 51.1571 182.121 50.8124 181.841 50.4691C138.723 24.4802 81.9294 15.8601 0.329232 37.0184L0 36.0584C80.3635 15.2222 136.762 23.0962 179.749 47.9473C179.6 47.7724 179.448 47.6001 179.298 47.427C138.112 19.308 82.453 9.30009 0.329232 30.5942L0 29.6342C79.7547 8.95586 134.668 17.6031 175.614 43.6366C136.484 13.9647 82.2303 2.93358 0.329232 24.1687L0 23.21C78.0736 2.96667 131.158 11.8274 169.974 38.1541C132.988 8.17499 80.5535 -3.05775 0.329232 17.7428L0 16.7832C76.3339 -3.00766 127.634 5.99481 164.435 32.4739C129.474 2.33304 78.8152 -9.03256 0.329232 11.3185L0 10.3585C86.5912 -12.0938 139.525 3.72764 174.861 40.7315C176.887 42.5056 178.853 44.3525 180.786 46.239C182.893 47.9608 184.967 49.7243 186.986 51.556C189.152 53.2057 191.269 54.9194 193.355 56.6714C195.658 58.3002 197.93 59.9728 200.155 61.7027C202.502 63.2411 204.812 64.8284 207.089 66.4594C209.603 67.9767 212.079 69.5449 214.523 71.1563C217.077 72.5768 219.605 74.0325 222.098 75.5366C224.824 76.921 227.511 78.3606 230.178 79.8299C233.029 81.1519 235.858 82.5104 238.654 83.9123C241.531 85.1222 244.385 86.3662 247.214 87.6479C250.284 88.8086 253.323 90.0169 256.345 91.2485C259.584 92.3452 262.8 93.4771 265.995 94.6429C269.341 95.6483 272.671 96.6796 275.979 97.7487C279.407 98.6548 282.822 99.583 286.218 100.546C289.799 101.366 293.366 102.208 296.918 103.083C300.641 103.809 304.354 104.559 308.052 105.335C311.932 105.966 315.804 106.617 319.663 107.297C323.567 107.811 327.46 108.351 331.346 108.906C335.549 109.335 339.743 109.79 343.93 110.261C348.206 110.578 352.476 110.915 356.74 111.272C476.062 116.861 591.688 136.115 706.407 155.223C857.149 180.334 1006.32 205.182 1160.23 198.385C1245.76 144.77 1339.8 82.457 1443.28 10.4477L1444 11.226C1341.08 82.8432 1247.5 144.857 1162.32 198.281C1164.16 198.198 1165.99 198.105 1167.83 198.011C1251.15 146.403 1342.64 86.3679 1443.28 16.8702L1444 17.6528C1343.94 86.7528 1252.91 146.489 1169.95 197.907C1171.79 197.809 1173.63 197.701 1175.47 197.596C1256.57 148.005 1345.51 90.2605 1443.29 23.2949L1444 24.0808C1346.83 90.6323 1258.38 148.073 1177.66 197.465C1179.48 197.355 1181.31 197.257 1183.14 197.138C1262.01 149.579 1348.4 94.1324 1443.29 29.7187L1444 30.505C1349.74 94.4863 1263.87 149.625 1185.4 196.98C1187.25 196.857 1189.09 196.724 1190.94 196.591C1267.54 151.089 1351.35 97.955 1443.29 36.142L1443.99 36.9327C1352.7 98.3055 1269.42 151.133 1193.24 196.43C1195.09 196.291 1196.94 196.142 1198.8 195.995C1273.12 152.568 1354.34 101.74 1443.29 42.5637L1443.99 43.3582C1355.73 102.07 1275.06 152.59 1201.2 195.8C1202.99 195.654 1204.78 195.516 1206.58 195.361C1278.67 153.995 1357.26 105.566 1443.3 48.9879L1443.99 49.7875C1358.67 105.891 1280.68 153.982 1209.07 195.132C1210.9 194.968 1212.74 194.798 1214.57 194.625C1284.36 155.364 1360.3 109.303 1443.3 55.4096L1443.99 56.213C1361.72 109.629 1286.39 155.347 1217.1 194.393C1218.94 194.214 1220.78 194.02 1222.62 193.831C1290.08 156.689 1363.37 113.012 1443.3 61.8321L1443.98 62.6394C1364.83 113.322 1292.19 156.639 1225.25 193.559C1227.08 193.367 1228.9 193.181 1230.72 192.98C1295.85 157.974 1366.47 116.696 1443.3 68.2568L1443.98 69.0678C1367.97 116.988 1298.05 157.885 1233.48 192.663C1235.3 192.458 1237.12 192.252 1238.94 192.037C1301.71 159.186 1369.62 120.337 1443.31 74.6789L1443.98 75.4946C1371.13 120.625 1303.96 159.085 1241.78 191.704C1243.6 191.484 1245.42 191.243 1247.24 191.013C1307.64 160.338 1372.81 123.942 1443.31 81.1031L1443.97 81.9218C1374.37 124.21 1309.99 160.198 1250.23 190.634C1251.99 190.406 1253.74 190.174 1255.5 189.937C1313.55 161.438 1375.96 127.552 1443.32 87.5222L1443.97 88.3494C1377.66 127.758 1316.1 161.247 1258.81 189.479C1260.49 189.247 1262.17 189.023 1263.85 188.781C1319.53 162.481 1379.17 131.121 1443.32 93.9456L1443.96 94.78C1380.94 131.298 1322.26 162.232 1267.41 188.256C1269.05 188.013 1270.7 187.763 1272.34 187.513C1325.62 163.436 1382.44 134.638 1443.33 100.367L1443.96 101.206C1384.28 134.796 1328.49 163.149 1276.12 186.944C1277.71 186.696 1279.31 186.426 1280.9 186.169C1331.77 164.336 1385.75 138.116 1443.34 106.786L1443.95 107.637C1387.72 138.223 1334.93 163.953 1285.11 185.483C1286.59 185.239 1288.07 184.995 1289.56 184.742C1337.98 165.176 1389.11 141.553 1443.35 113.209L1443.94 114.067C1391.27 141.591 1341.53 164.662 1294.35 183.903C1295.69 183.667 1297.03 183.438 1298.37 183.196C1344.32 165.924 1392.54 144.928 1443.36 119.627L1443.93 120.498C1394.95 144.881 1348.4 165.25 1303.95 182.168C1305.1 181.955 1306.24 181.739 1307.39 181.522C1350.81 166.571 1396.06 148.245 1443.37 126.047L1443.91 126.928C1398.87 148.062 1355.72 165.657 1314.21 180.209C1314.88 180.077 1315.55 179.938 1316.22 179.804C1357.2 167.178 1399.51 151.568 1443.39 132.465L1443.9 133.358C1403.64 150.886 1364.7 165.47 1326.9 177.519C1364.85 167.325 1403.64 154.595 1443.41 138.882L1443.88 139.795C1409.78 153.265 1376.41 164.544 1343.66 173.924C1376.59 166.37 1409.83 156.927 1443.43 145.299L1443.85 146.227C1403.9 160.052 1364.48 170.805 1325.47 178.953C1319.11 180.653 1312.76 182.293 1306.44 183.852C1299.69 185.859 1292.99 187.757 1286.31 189.61C1279.39 191.842 1272.51 194.005 1265.68 196.067C1258.43 198.576 1251.23 201.01 1244.1 203.323C1236.78 205.986 1229.55 208.523 1222.36 210.997C1215.04 213.775 1207.78 216.466 1200.59 219.061C1192.9 222.102 1185.26 225.055 1177.73 227.887C1169.73 231.147 1161.85 234.263 1154.04 237.294C1146.45 240.468 1138.94 243.543 1131.52 246.515C1123.94 249.764 1116.43 252.925 1109.02 255.974C1100.01 259.942 1091.15 263.717 1082.39 267.388C1074.55 270.884 1066.8 274.277 1059.15 277.554C1051.39 281.071 1043.73 284.483 1036.17 287.794C1027.17 291.946 1018.28 295.976 1009.53 299.853C1001.16 303.767 992.895 307.562 984.752 311.225C976.289 315.229 967.933 319.119 959.712 322.865C951.077 326.998 942.548 331.019 934.166 334.884C925.759 338.942 917.447 342.901 909.277 346.713C901.014 350.741 892.855 354.662 884.823 358.452C876.534 362.535 868.377 366.483 860.325 370.325C550.642 524.35 409.608 507.019 335.614 426.642C288.029 374.95 268.23 297.235 249.13 222.256C239.308 183.705 229.665 145.888 216.522 112.723C146.197 116.766 74.3085 127.063 0.328943 146.245L0 145.285Z" fill="url(#paint0_linear_519_149)" fill-opacity="0.4"/>
<defs>
<linearGradient id="paint0_linear_519_149" x1="956.464" y1="895.732" x2="307.462" y2="-150.829" gradientUnits="userSpaceOnUse">
<stop stop-color="#FE8032"/>
<stop offset="0.692308" stop-color="#75AAB8"/>
<stop offset="1" stop-color="#1D6F82"/>
</linearGradient>
</defs>
</svg>
