<svg width="1440" height="487" viewBox="0 0 1440 487" fill="none" xmlns="http://www.w3.org/2000/svg">
<path d="M1348.17 190.357L1344.64 191.656C1345.04 191.555 1345.43 191.464 1345.83 191.365C1347.14 190.928 1348.45 190.488 1349.76 190.041C1349.23 190.149 1348.7 190.25 1348.17 190.357ZM1325.87 197.217C1324.96 197.57 1324.04 197.932 1323.13 198.281L1323.5 198.179L1326.94 196.97L1325.87 197.217ZM1338.57 192.278C1336.56 193.066 1334.58 193.821 1332.58 194.606C1333.62 194.359 1334.66 194.093 1335.7 193.844C1337.66 193.136 1339.64 192.395 1341.61 191.669C1340.6 191.87 1339.58 192.08 1338.57 192.278ZM1303.16 204.65C1302.4 204.955 1301.66 205.236 1300.9 205.539L1300.92 205.533C1301.79 205.212 1302.67 204.876 1303.55 204.551L1303.16 204.65ZM1315.72 199.547C1313.93 200.279 1312.12 201.021 1310.34 201.743C1311.15 201.528 1311.96 201.321 1312.78 201.105C1314.81 200.339 1316.81 199.613 1318.85 198.835C1317.81 199.07 1316.76 199.317 1315.72 199.547ZM1329.07 194.07C1326.55 195.122 1324.06 196.134 1321.55 197.167C1322.84 196.872 1324.14 196.573 1325.43 196.273C1327.94 195.305 1330.46 194.319 1332.97 193.341C1331.67 193.587 1330.37 193.827 1329.07 194.07ZM321.335 107.983L322.212 108.256C322.88 108.287 323.547 108.321 324.214 108.354L323.4 108.142C322.712 108.088 322.023 108.037 321.335 107.983ZM1279.41 212.791L1278.62 213.113C1278.98 212.976 1279.33 212.848 1279.69 212.712L1279.41 212.791ZM1292.74 207.286C1291.08 207.99 1289.43 208.671 1287.78 209.358C1288.43 209.173 1289.07 208.996 1289.72 208.81C1291.48 208.126 1293.24 207.424 1295 206.739C1294.24 206.927 1293.5 207.101 1292.74 207.286ZM1305.97 201.656C1303.56 202.681 1301.15 203.714 1298.75 204.73C1300.07 204.395 1301.4 204.044 1302.73 203.705C1305.09 202.76 1307.48 201.787 1309.87 200.813C1308.57 201.095 1307.27 201.377 1305.97 201.656ZM1319.54 195.8C1316.66 197.065 1313.79 198.312 1310.94 199.54C1312.4 199.223 1313.84 198.923 1315.29 198.601C1318.24 197.391 1321.18 196.205 1324.13 194.993C1322.6 195.271 1321.07 195.529 1319.54 195.8ZM313.708 107.403C314.217 107.587 314.724 107.778 315.234 107.963L318.178 108.084C317.683 107.933 317.19 107.776 316.693 107.626C315.698 107.552 314.703 107.475 313.708 107.403ZM309.21 105.802L310.21 106.155L312.215 106.293L311.34 106.032C310.629 105.955 309.921 105.875 309.21 105.802ZM305.045 104.341L305.185 104.388L305.816 104.451L305.045 104.341ZM1268.97 215.626C1267.41 216.285 1265.84 216.957 1264.28 217.624L1266.6 216.917C1268.12 216.306 1269.66 215.66 1271.2 215.033C1270.45 215.233 1269.71 215.427 1268.97 215.626ZM1282.45 209.787C1280.17 210.795 1277.89 211.811 1275.65 212.782C1276.75 212.482 1277.86 212.153 1278.96 211.848C1281.39 210.85 1283.8 209.868 1286.23 208.868C1284.97 209.171 1283.71 209.487 1282.45 209.787ZM1296.26 203.687L1287.74 207.449C1289.26 207.078 1290.78 206.718 1292.3 206.341C1295.05 205.19 1297.83 203.994 1300.6 202.809C1299.15 203.112 1297.71 203.39 1296.26 203.687ZM1310.11 197.441C1306.92 198.903 1303.73 200.371 1300.59 201.774C1302.23 201.432 1303.89 201.062 1305.53 200.711C1308.78 199.315 1312 197.958 1315.27 196.542C1313.55 196.84 1311.83 197.152 1310.11 197.441ZM306.292 106.895C306.93 107.162 307.572 107.425 308.209 107.695C309.406 107.737 310.605 107.776 311.801 107.822C311.161 107.591 310.516 107.369 309.876 107.14C308.681 107.059 307.488 106.974 306.292 106.895ZM301.925 105.079C302.426 105.283 302.924 105.492 303.424 105.699C304.397 105.761 305.369 105.825 306.342 105.89L304.832 105.367C303.862 105.27 302.895 105.172 301.925 105.079ZM297.625 103.348L298.616 103.747C299.289 103.81 299.963 103.871 300.635 103.937C300.335 103.835 300.036 103.732 299.736 103.63C299.031 103.538 298.329 103.441 297.625 103.348ZM293.586 101.756L293.805 101.841L294.603 101.939L294.546 101.921L293.586 101.756ZM1244.81 224.444C1243.41 225.058 1242.01 225.686 1240.62 226.287C1241.07 226.143 1241.53 225.991 1241.98 225.844C1243.6 225.179 1245.2 224.532 1246.81 223.864L1244.81 224.444ZM1258.46 218.425C1256.25 219.406 1254.05 220.365 1251.84 221.343C1252.93 221.024 1254 220.727 1255.09 220.405C1257.33 219.464 1259.6 218.487 1261.86 217.524C1260.73 217.819 1259.59 218.134 1258.46 218.425ZM1272.42 212.111C1269.72 213.35 1267.01 214.599 1264.35 215.796C1265.74 215.43 1267.13 215.055 1268.53 214.681C1271.33 213.478 1274.1 212.312 1276.92 211.086C1275.42 211.435 1273.92 211.769 1272.42 212.111ZM1286.61 205.639C1283.4 207.116 1280.22 208.555 1277.01 210.018C1278.67 209.63 1280.34 209.239 1282.01 208.841C1285.15 207.465 1288.32 206.056 1291.49 204.653C1289.87 204.976 1288.23 205.322 1286.61 205.639ZM1300.91 198.927C1297.45 200.567 1293.98 202.223 1290.58 203.799C1292.32 203.451 1294.07 203.096 1295.82 202.739C1299.27 201.203 1302.72 199.653 1306.2 198.077C1304.44 198.366 1302.68 198.646 1300.91 198.927ZM299.022 106.443C299.717 106.78 300.41 107.12 301.104 107.459C302.484 107.501 303.862 107.549 305.242 107.596C304.514 107.291 303.786 106.986 303.057 106.685C301.713 106.603 300.366 106.524 299.022 106.443ZM294.743 104.411C295.365 104.705 295.987 104.997 296.607 105.29C297.795 105.36 298.981 105.433 300.169 105.505C299.525 105.243 298.879 104.985 298.234 104.726C297.071 104.619 295.907 104.516 294.743 104.411ZM290.549 102.46C291.061 102.695 291.578 102.924 292.089 103.161C293.053 103.245 294.015 103.335 294.977 103.421C294.456 103.215 293.929 103.016 293.406 102.812L290.549 102.46ZM286.479 100.609C286.812 100.758 287.142 100.912 287.474 101.061C288.164 101.143 288.851 101.231 289.54 101.315L288.574 100.944C287.876 100.833 287.179 100.718 286.479 100.609ZM282.558 98.8832L282.869 99.0198C283.164 99.0643 283.46 99.1064 283.753 99.1518L283.592 99.0915C283.246 99.0236 282.903 98.9511 282.558 98.8832ZM1220.49 233.642C1219.1 234.264 1217.77 234.829 1216.39 235.44C1216.68 235.343 1216.96 235.255 1217.25 235.157C1218.73 234.537 1220.22 233.895 1221.7 233.269C1221.3 233.391 1220.89 233.522 1220.49 233.642ZM1234.07 227.479C1232.02 228.408 1229.96 229.35 1227.93 230.264C1228.95 229.948 1229.97 229.64 1230.99 229.32C1233.13 228.402 1235.25 227.509 1237.4 226.57C1236.28 226.884 1235.18 227.169 1234.07 227.479ZM1248.43 220.943C1245.64 222.232 1242.91 223.452 1240.13 224.722C1241.54 224.326 1242.96 223.902 1244.37 223.5C1247.05 222.324 1249.76 221.122 1252.46 219.932C1251.12 220.274 1249.78 220.609 1248.43 220.943ZM1262.42 214.372C1259.37 215.814 1256.3 217.264 1253.27 218.669C1254.87 218.264 1256.44 217.886 1258.04 217.473C1261.14 216.089 1264.27 214.682 1267.41 213.254C1265.75 213.626 1264.08 214.01 1262.42 214.372ZM1277.18 207.42C1273.66 209.101 1270.19 210.718 1266.69 212.37C1268.45 211.976 1270.23 211.566 1272 211.161C1275.42 209.603 1278.86 208.031 1282.31 206.455C1280.6 206.782 1278.89 207.101 1277.18 207.42ZM1291.77 200.348C1288.06 202.156 1284.34 203.974 1280.67 205.73C1282.51 205.38 1284.34 205.049 1286.18 204.69C1289.81 203.011 1293.5 201.27 1297.19 199.527C1295.38 199.809 1293.58 200.075 1291.77 200.348ZM291.779 106.032C292.529 106.446 293.284 106.855 294.032 107.274C295.531 107.31 297.03 107.345 298.53 107.386C297.755 107.013 296.98 106.644 296.204 106.274C294.73 106.189 293.254 106.11 291.779 106.032ZM287.707 103.804C288.394 104.173 289.077 104.549 289.762 104.922C291.097 104.99 292.434 105.053 293.769 105.126C293.068 104.798 292.372 104.462 291.671 104.136C290.351 104.02 289.028 103.912 287.707 103.804ZM283.647 101.644C284.256 101.964 284.859 102.289 285.466 102.611C286.621 102.704 287.779 102.795 288.934 102.891C288.301 102.603 287.671 102.312 287.037 102.026C285.91 101.894 284.776 101.773 283.647 101.644ZM279.625 99.5626C280.132 99.8223 280.639 100.081 281.145 100.343L283.98 100.663C283.462 100.434 282.941 100.207 282.422 99.9798C281.491 99.8385 280.558 99.7001 279.625 99.5626ZM275.72 97.5823C276.077 97.761 276.439 97.9342 276.797 98.1141C277.477 98.2126 278.154 98.317 278.834 98.4184C278.48 98.2669 278.124 98.1205 277.77 97.9715C277.086 97.8421 276.404 97.7092 275.72 97.5823ZM272.019 95.7561L272.388 95.9369C272.703 95.9938 273.02 96.0477 273.335 96.1054L273.076 95.9972L272.019 95.7561ZM1195.24 243.405C1194.14 243.897 1193.04 244.396 1191.95 244.891C1192.36 244.747 1192.77 244.608 1193.19 244.463C1194.3 243.984 1195.44 243.487 1196.56 242.995C1196.12 243.138 1195.68 243.266 1195.24 243.405ZM1209.56 236.879C1207.59 237.799 1205.63 238.706 1203.68 239.597C1204.51 239.329 1205.34 239.054 1206.16 238.785C1208.24 237.878 1210.32 236.959 1212.39 236.054C1211.44 236.334 1210.51 236.603 1209.56 236.879ZM1223.58 230.334C1220.95 231.559 1218.32 232.795 1215.71 234.01C1217.14 233.581 1218.58 233.142 1220.02 232.704C1222.57 231.569 1225.17 230.377 1227.76 229.196C1226.37 229.574 1224.97 229.963 1223.58 230.334ZM1238.12 223.479C1235.08 224.934 1232.07 226.356 1229.05 227.778C1230.57 227.363 1232.09 226.959 1233.61 226.537L1242.82 222.353C1241.25 222.737 1239.69 223.103 1238.12 223.479ZM1252.73 216.434C1249.31 218.093 1245.88 219.751 1242.47 221.38C1244.3 220.934 1246.15 220.454 1247.99 219.996C1251.26 218.488 1254.6 216.901 1257.92 215.331C1256.19 215.702 1254.46 216.073 1252.73 216.434ZM1267.69 209.156C1263.97 210.986 1260.29 212.779 1256.61 214.565C1258.4 214.181 1260.19 213.815 1261.99 213.42C1265.71 211.673 1269.41 209.945 1273.15 208.179C1271.32 208.513 1269.51 208.833 1267.69 209.156ZM1282.71 201.693C1278.75 203.667 1274.8 205.636 1270.88 207.568C1272.83 207.216 1274.79 206.833 1276.75 206.468C1280.55 204.656 1284.44 202.747 1288.31 200.861C1286.44 201.138 1284.57 201.428 1282.71 201.693ZM292.347 110.679C329.839 135.46 363.577 165.834 397.95 196.793C524.06 310.379 658.873 431.71 1020.52 311.606M284.602 105.664C285.358 106.141 286.108 106.629 286.86 107.111C288.474 107.143 290.088 107.176 291.701 107.214C290.91 106.777 290.117 106.34 289.324 105.906C287.751 105.823 286.179 105.739 284.602 105.664ZM280.692 103.239C281.415 103.684 282.137 104.131 282.856 104.581C284.335 104.647 285.81 104.72 287.286 104.795C286.533 104.389 285.773 103.99 285.016 103.588C283.577 103.469 282.137 103.348 280.692 103.239ZM276.816 100.884C277.491 101.289 278.169 101.688 278.841 102.096C280.154 102.194 281.468 102.292 282.778 102.396C282.082 102.03 281.381 101.671 280.683 101.309C279.395 101.165 278.106 101.023 276.816 100.884ZM272.978 98.6043C273.575 98.9536 274.17 99.3054 274.765 99.6573C275.888 99.774 277.016 99.8813 278.137 100.004C277.528 99.692 276.924 99.3755 276.313 99.069C275.205 98.9095 274.09 98.7592 272.978 98.6043ZM269.158 96.4012C269.656 96.6843 270.149 96.9737 270.645 97.2589L273.422 97.6417C272.911 97.3901 272.402 97.135 271.89 96.8855L269.158 96.4012ZM265.395 94.294L266.47 94.8899C267.146 95.0053 267.817 95.1288 268.491 95.2481L267.424 94.741C266.747 94.5933 266.073 94.4392 265.395 94.294ZM261.918 92.3825L262.337 92.6062L263.265 92.7984L262.902 92.6338C262.575 92.5476 262.244 92.4674 261.918 92.3825ZM1170.21 253.339C1169.27 253.772 1168.33 254.216 1167.4 254.644L1167.64 254.556C1168.8 254.049 1169.94 253.556 1171.1 253.048L1170.21 253.339ZM1184.43 246.757C1182.41 247.691 1180.39 248.624 1178.36 249.567C1179.31 249.245 1180.29 248.897 1181.25 248.573C1183.19 247.709 1185.16 246.807 1187.12 245.923C1186.22 246.201 1185.32 246.482 1184.43 246.757ZM1198.52 240.101C1196.13 241.249 1193.73 242.411 1191.38 243.52C1192.51 243.164 1193.63 242.83 1194.77 242.468C1197.44 241.259 1200.08 240.087 1202.76 238.866C1201.35 239.269 1199.92 239.704 1198.52 240.101ZM1213.3 233.027L1204.28 237.345C1205.88 236.881 1207.5 236.408 1209.11 235.936C1211.98 234.611 1214.9 233.237 1217.8 231.875C1216.29 232.27 1214.81 232.638 1213.3 233.027ZM1228.04 225.853C1224.7 227.502 1221.36 229.15 1218.07 230.747C1219.74 230.307 1221.43 229.846 1223.11 229.396C1226.55 227.783 1229.94 226.226 1233.4 224.589C1231.61 225.011 1229.82 225.441 1228.04 225.853ZM1243.09 218.419C1239.42 220.235 1235.77 222.04 1232.11 223.839C1233.97 223.404 1235.82 222.977 1237.68 222.53C1241.22 220.842 1244.82 219.094 1248.41 217.355C1246.63 217.722 1244.86 218.063 1243.09 218.419ZM1258.31 210.79C1254.39 212.778 1250.48 214.753 1246.61 216.683C1248.49 216.298 1250.39 215.884 1252.28 215.487C1256.21 213.587 1260.1 211.722 1264.05 209.789C1262.14 210.123 1260.22 210.468 1258.31 210.79ZM1273.83 202.905C1269.67 205.026 1265.53 207.129 1261.4 209.222C1263.34 208.887 1265.29 208.549 1267.25 208.202C1271.27 206.228 1275.36 204.18 1279.44 202.142C1277.57 202.405 1275.7 202.653 1273.83 202.905ZM277.427 105.358C278.183 105.902 278.942 106.443 279.695 106.992C281.394 107.016 283.091 107.046 284.787 107.077C283.988 106.572 283.187 106.067 282.384 105.567C280.732 105.496 279.08 105.426 277.427 105.358ZM273.757 102.749C274.486 103.261 275.217 103.772 275.943 104.288C277.511 104.35 279.076 104.419 280.642 104.487C279.88 104.015 279.122 103.539 278.356 103.074C276.824 102.965 275.291 102.854 273.757 102.749ZM270.086 100.195C270.776 100.667 271.458 101.148 272.143 101.624C273.579 101.72 275.01 101.825 276.443 101.928C275.716 101.493 274.992 101.054 274.263 100.624C272.872 100.48 271.482 100.332 270.086 100.195ZM266.389 97.708C267.034 98.137 267.675 98.5708 268.317 99.0054C269.604 99.1276 270.888 99.2596 272.17 99.3916C271.492 98.9952 270.808 98.6039 270.126 98.2109C268.881 98.0402 267.637 97.8701 266.389 97.708ZM262.721 95.3029C263.309 95.6835 263.898 96.0596 264.485 96.4441C265.587 96.5854 266.693 96.7195 267.794 96.8659C267.177 96.5167 266.552 96.1771 265.932 95.8308C264.864 95.6492 263.791 95.4807 262.721 95.3029ZM259.099 92.9822C259.595 93.295 260.09 93.6048 260.583 93.9189C261.486 94.0653 262.387 94.2168 263.289 94.3641C262.786 94.0886 262.285 93.8106 261.781 93.5373C260.887 93.3527 259.995 93.1643 259.099 92.9822ZM255.555 90.7761C255.908 90.993 256.257 91.2133 256.608 91.4314C257.264 91.5617 257.918 91.6933 258.572 91.8278C258.216 91.639 257.865 91.4484 257.511 91.2629C256.859 91.0991 256.208 90.937 255.555 90.7761ZM252.193 88.7505L252.637 89.0166L253.593 89.244L253.197 89.0437L252.193 88.7505ZM1145.18 263.523L1144.99 263.611L1145.21 263.51L1145.18 263.523ZM1158.78 257.075C1157.02 257.906 1155.25 258.752 1153.51 259.574C1154.24 259.318 1154.96 259.082 1155.69 258.824C1157.73 257.904 1159.72 257.035 1161.77 256.097C1160.78 256.417 1159.77 256.758 1158.78 257.075ZM1173.58 250.054C1171.09 251.246 1168.66 252.38 1166.17 253.567C1167.37 253.177 1168.56 252.79 1169.76 252.395C1172.14 251.302 1174.54 250.181 1176.93 249.075C1175.8 249.415 1174.7 249.719 1173.58 250.054ZM1188.11 242.966C1185.19 244.4 1182.26 245.844 1179.38 247.24C1180.89 246.779 1182.43 246.289 1183.95 245.823C1186.9 244.442 1189.83 243.084 1192.81 241.674C1191.24 242.112 1189.68 242.536 1188.11 242.966ZM1203.06 235.649C1199.73 237.288 1196.43 238.89 1193.1 240.526C1194.76 240.062 1196.39 239.633 1198.06 239.158C1201.38 237.58 1204.74 235.969 1208.08 234.363C1206.41 234.787 1204.72 235.234 1203.06 235.649ZM1218.15 228.08C1214.58 229.885 1211 231.705 1207.5 233.452C1209.28 233.001 1211.06 232.543 1212.84 232.084C1216.41 230.363 1219.96 228.651 1223.56 226.891C1221.75 227.302 1219.96 227.679 1218.15 228.08ZM1233.56 220.306C1229.64 222.291 1225.75 224.245 1221.83 226.222C1223.74 225.79 1225.67 225.348 1227.59 224.904C1231.41 223.03 1235.27 221.117 1239.13 219.203C1237.27 219.569 1235.41 219.951 1233.56 220.306ZM1249.12 212.288C1245.05 214.41 1240.96 216.547 1236.95 218.594C1238.85 218.222 1240.75 217.849 1242.65 217.467C1246.7 215.452 1250.76 213.432 1254.85 211.37C1252.94 211.687 1251.03 211.983 1249.12 212.288ZM1264.99 204.059C1260.64 206.324 1256.33 208.549 1251.99 210.801C1253.95 210.481 1255.9 210.169 1257.87 209.838C1262.1 207.7 1266.38 205.52 1270.66 203.334C1268.77 203.583 1266.88 203.821 1264.99 204.059ZM270.266 105.09C271.007 105.695 271.74 106.308 272.476 106.92C274.24 106.935 276.005 106.943 277.768 106.963C276.988 106.398 276.208 105.832 275.425 105.274C273.708 105.207 271.987 105.149 270.266 105.09ZM266.825 102.3C267.545 102.875 268.257 103.46 268.972 104.04C270.621 104.096 272.272 104.144 273.918 104.204C273.154 103.664 272.383 103.132 271.613 102.596C270.02 102.492 268.421 102.397 266.825 102.3ZM263.344 99.5643C264.045 100.109 264.744 100.655 265.442 101.205C266.968 101.297 268.494 101.388 270.018 101.485C269.276 100.975 268.528 100.476 267.783 99.9709C266.305 99.8321 264.825 99.6972 263.344 99.5643ZM259.851 96.8825C260.525 97.393 261.203 97.8981 261.875 98.4133C263.263 98.5368 264.648 98.6671 266.033 98.7949C265.333 98.3285 264.635 97.8599 263.931 97.3982C262.573 97.2242 261.214 97.048 259.851 96.8825ZM256.381 94.2804C257.002 94.738 257.619 95.2023 258.238 95.6649C259.486 95.8139 260.729 95.97 261.973 96.1275C261.318 95.7039 260.669 95.2757 260.011 94.856C258.803 94.6607 257.592 94.4689 256.381 94.2804ZM252.91 91.7599C253.472 92.1622 254.028 92.5735 254.588 92.978C255.657 93.1418 256.731 93.298 257.799 93.4656C257.21 93.0955 256.619 92.7284 256.027 92.3617C254.99 92.1576 253.949 91.9594 252.91 91.7599ZM249.429 89.312C249.916 89.6494 250.403 89.9859 250.887 90.3275C251.779 90.496 252.668 90.6721 253.559 90.8432C253.054 90.538 252.544 90.2389 252.038 89.9358C251.168 89.7279 250.302 89.5153 249.429 89.312ZM246.091 87.0176C246.452 87.2621 246.819 87.4993 247.178 87.7442C247.812 87.8876 248.449 88.0234 249.082 88.1703C248.714 87.9538 248.338 87.7463 247.969 87.532C247.346 87.3563 246.717 87.1912 246.091 87.0176ZM242.907 84.8913L243.356 85.1918C243.688 85.2801 244.015 85.3726 244.347 85.4622C244.212 85.3875 244.082 85.3102 243.948 85.2347L242.907 84.8913ZM1118.85 274.392L1116.36 275.561L1116.55 275.489C1117.45 275.085 1118.37 274.653 1119.28 274.241L1118.85 274.392ZM1133.3 267.547C1131.77 268.293 1130.22 269.053 1128.71 269.774L1130.14 269.263C1131.85 268.478 1133.57 267.685 1135.27 266.909C1134.61 267.129 1133.97 267.328 1133.3 267.547ZM1147.88 260.487C1145.5 261.635 1143.12 262.797 1140.75 263.942C1142.06 263.5 1143.39 263.035 1144.7 262.588C1146.93 261.546 1149.22 260.452 1151.49 259.372C1150.28 259.751 1149.08 260.112 1147.88 260.487ZM1162.82 253.202C1159.88 254.658 1156.99 256.06 1154.07 257.489C1155.48 257.043 1156.89 256.593 1158.3 256.14C1161.26 254.738 1164.23 253.328 1167.18 251.926C1165.73 252.352 1164.27 252.784 1162.82 253.202ZM1177.57 245.833C1174.38 247.431 1171.18 249.037 1168.02 250.607C1169.72 250.108 1171.4 249.626 1173.11 249.116C1176.26 247.6 1179.46 246.033 1182.66 244.464C1180.96 244.922 1179.26 245.384 1177.57 245.833ZM1193.1 238.052C1189.43 239.912 1185.84 241.689 1182.19 243.525C1184 243.037 1185.83 242.522 1187.65 242.023C1191.19 240.292 1194.74 238.554 1198.29 236.81C1196.56 237.235 1194.84 237.639 1193.1 238.052ZM1208.28 230.244C1204.49 232.204 1200.69 234.17 1196.95 236.077C1198.83 235.619 1200.7 235.178 1202.59 234.708C1206.36 232.837 1210.18 230.916 1214.02 228.986C1212.11 229.401 1210.18 229.842 1208.28 230.244ZM1224.24 222.039C1220.07 224.199 1215.99 226.273 1211.84 228.413C1213.79 227.993 1215.74 227.56 1217.7 227.128C1221.72 225.102 1225.76 223.07 1229.81 221.019C1227.94 221.371 1226.09 221.698 1224.24 222.039ZM1239.97 213.732C1235.72 215.989 1231.45 218.259 1227.27 220.446C1229.21 220.085 1231.15 219.731 1233.1 219.355C1237.31 217.214 1241.55 215.024 1245.81 212.82C1243.87 213.128 1241.92 213.437 1239.97 213.732ZM1256.22 205.142C1251.69 207.548 1247.22 209.894 1242.69 212.294C1244.68 211.986 1246.69 211.652 1248.68 211.333C1253.1 209.045 1257.53 206.751 1261.98 204.43C1260.06 204.667 1258.14 204.915 1256.22 205.142ZM263.08 104.857C263.796 105.528 264.508 106.201 265.219 106.877C267.055 106.881 268.889 106.892 270.722 106.906C269.958 106.276 269.188 105.654 268.419 105.028C266.64 104.968 264.862 104.908 263.08 104.857ZM259.857 101.891C260.565 102.536 261.275 103.175 261.978 103.826C263.696 103.871 265.411 103.924 267.125 103.979C266.378 103.378 265.631 102.776 264.879 102.182C263.208 102.081 261.534 101.983 259.857 101.891ZM256.62 98.9816C257.31 99.5936 257.999 100.205 258.685 100.823C260.285 100.908 261.884 100.993 263.481 101.086C262.753 100.515 262.029 99.9395 261.296 99.3754C259.741 99.2388 258.181 99.111 256.62 98.9816ZM253.37 96.1275C254.034 96.7008 254.69 97.2861 255.351 97.8642C256.827 97.9834 258.306 98.098 259.779 98.2236C259.073 97.6854 258.365 97.1503 257.655 96.6181C256.228 96.4513 254.799 96.2892 253.37 96.1275ZM250.055 93.3192C250.698 93.8581 251.337 94.4035 251.977 94.9472C253.336 95.0979 254.692 95.2574 256.049 95.4136C255.366 94.909 254.675 94.4159 253.987 93.9168C252.677 93.7152 251.37 93.511 250.055 93.3192ZM246.768 90.6123C247.371 91.1025 247.978 91.5885 248.577 92.0846C249.786 92.2569 250.993 92.4351 252.197 92.6163C251.556 92.1576 250.911 91.7031 250.267 91.2489C249.104 91.0312 247.934 90.8233 246.768 90.6123ZM243.484 87.9759C244.033 88.4101 244.585 88.8421 245.132 89.2801C246.169 89.4647 247.208 89.6493 248.243 89.8373C247.679 89.446 247.121 89.0488 246.554 88.6622C245.531 88.433 244.509 88.2004 243.484 87.9759ZM240.233 85.4376C240.691 85.7885 241.14 86.1489 241.596 86.5011C242.459 86.6866 243.318 86.881 244.177 87.0732C243.689 86.7473 243.202 86.4175 242.711 86.0932C241.887 85.8721 241.06 85.6544 240.233 85.4376ZM237.02 83.0286L238.063 83.8083C238.685 83.9666 239.309 84.1257 239.931 84.287L238.855 83.599L237.02 83.0286ZM233.953 80.7831L234.456 81.1426L235.393 81.4244L234.913 81.1324L233.953 80.7831ZM1107.62 278.271C1106.07 279.028 1104.52 279.779 1102.98 280.518L1104.58 279.928C1106.17 279.189 1107.79 278.42 1109.4 277.668C1108.8 277.873 1108.21 278.067 1107.62 278.271ZM1122.18 271.157C1119.78 272.325 1117.37 273.507 1114.98 274.675C1116.09 274.288 1117.23 273.864 1118.35 273.472C1120.83 272.299 1123.28 271.17 1125.77 269.992C1124.57 270.382 1123.37 270.772 1122.18 271.157ZM1136.89 263.883C1134.19 265.238 1131.48 266.594 1128.82 267.91C1130.17 267.466 1131.5 267.049 1132.86 266.6C1135.62 265.275 1138.44 263.899 1141.24 262.538C1139.8 262.979 1138.33 263.451 1136.89 263.883ZM1152.17 256.23C1148.95 257.843 1145.75 259.446 1142.54 261.052C1144.16 260.555 1145.79 260.05 1147.42 259.544C1150.62 257.985 1153.79 256.465 1157 254.9C1155.37 255.362 1153.78 255.778 1152.17 256.23ZM1167.44 248.446C1163.9 250.266 1160.36 252.099 1156.87 253.863C1158.69 253.35 1160.53 252.79 1162.36 252.264C1165.77 250.578 1169.25 248.824 1172.72 247.084C1170.95 247.543 1169.19 247.996 1167.44 248.446ZM1183.03 240.447C1179.2 242.433 1175.43 244.345 1171.62 246.303C1173.45 245.826 1175.27 245.373 1177.12 244.884C1180.97 242.954 1184.79 241.056 1188.65 239.118C1186.78 239.559 1184.9 240.017 1183.03 240.447ZM1198.78 232.191C1194.73 234.321 1190.68 236.456 1186.69 238.534C1188.67 238.071 1190.66 237.581 1192.65 237.106C1196.53 235.136 1200.5 233.077 1204.45 231.037C1202.55 231.431 1200.67 231.806 1198.78 232.191ZM1214.79 223.746C1210.51 226.022 1206.28 228.248 1202.04 230.479C1203.97 230.081 1205.89 229.704 1207.83 229.293C1212.11 227.089 1216.37 224.912 1220.66 222.693C1218.71 223.044 1216.74 223.408 1214.79 223.746ZM1231.04 215.042C1226.57 217.448 1222.1 219.845 1217.68 222.202C1219.71 221.841 1221.75 221.456 1223.79 221.083C1228.09 218.843 1232.48 216.509 1236.85 214.19C1234.91 214.478 1232.97 214.766 1231.04 215.042ZM1247.52 206.124C1242.88 208.651 1238.26 211.163 1233.68 213.631C1235.63 213.345 1237.58 213.067 1239.54 212.771C1244.14 210.334 1248.71 207.93 1253.33 205.476C1251.39 205.702 1249.46 205.91 1247.52 206.124ZM255.888 104.687C256.573 105.417 257.259 106.146 257.939 106.883C259.817 106.876 261.692 106.877 263.567 106.878C262.839 106.189 262.115 105.498 261.381 104.818C259.552 104.771 257.722 104.727 255.888 104.687ZM252.903 101.538C253.58 102.241 254.251 102.95 254.922 103.659C256.7 103.695 258.475 103.74 260.249 103.785C259.527 103.121 258.802 102.459 258.075 101.801C256.353 101.71 254.63 101.619 252.903 101.538ZM249.894 98.4464C250.558 99.1174 251.212 99.799 251.87 100.477C253.548 100.554 255.22 100.643 256.893 100.732C256.178 100.092 255.453 99.462 254.732 98.828C253.122 98.6977 251.51 98.5674 249.894 98.4464ZM246.843 95.42C247.497 96.0621 248.151 96.7072 248.8 97.357C250.356 97.4703 251.911 97.5887 253.462 97.7113C252.76 97.1006 252.052 96.498 251.345 95.8949C249.848 95.7302 248.345 95.5766 246.843 95.42ZM243.762 92.4428C244.406 93.0561 245.055 93.6629 245.694 94.283C247.116 94.4298 248.54 94.5703 249.958 94.7214C249.285 94.1544 248.615 93.584 247.938 93.0234C246.547 92.8269 245.157 92.6325 243.762 92.4428ZM240.674 89.536C241.286 90.1009 241.892 90.6709 242.499 91.2404C243.809 91.4166 245.112 91.6021 246.418 91.7858C245.769 91.2562 245.126 90.7231 244.473 90.2007C243.209 89.9753 241.944 89.7512 240.674 89.536ZM237.59 86.7201C238.161 87.2319 238.722 87.7548 239.289 88.2717C240.454 88.4661 241.62 88.6579 242.781 88.8599C242.167 88.3748 241.551 87.8949 240.933 87.4161C239.822 87.1793 238.705 86.9514 237.59 86.7201ZM234.439 83.9521C234.971 84.4139 235.502 84.8765 236.029 85.3429C237.05 85.5509 238.066 85.7664 239.082 85.9778C238.519 85.5487 237.946 85.1303 237.379 84.7055C236.401 84.4529 235.424 84.197 234.439 83.9521ZM231.372 81.3331C231.829 81.7168 232.291 82.0919 232.745 82.479C233.561 82.6772 234.382 82.8691 235.195 83.0719C234.719 82.7222 234.24 82.378 233.762 82.0304C232.969 81.7932 232.168 81.5661 231.372 81.3331ZM228.348 78.8164C228.689 79.0931 229.025 79.3775 229.366 79.6572C229.972 79.8303 230.573 80.0115 231.179 80.186C230.831 79.9411 230.49 79.689 230.141 79.4454C229.542 79.2374 228.949 79.0209 228.348 78.8164ZM225.467 76.5199L225.953 76.9079L226.861 77.2066L226.384 76.8811C226.08 76.7602 225.772 76.6413 225.467 76.5199ZM1081.5 289.352C1079.99 290.097 1078.46 290.859 1076.97 291.585C1077.59 291.348 1078.23 291.095 1078.86 290.859C1080.4 290.137 1081.97 289.38 1083.52 288.641L1081.5 289.352ZM1096.07 282.182L1089.39 285.471C1090.41 285.105 1091.41 284.765 1092.44 284.396C1094.83 283.258 1097.2 282.132 1099.6 280.987C1098.43 281.38 1097.24 281.795 1096.07 282.182ZM1110.97 274.741C1108.34 276.069 1105.7 277.41 1103.11 278.702C1104.5 278.233 1105.88 277.767 1107.27 277.291C1109.89 276.026 1112.54 274.719 1115.18 273.425C1113.77 273.874 1112.37 274.302 1110.97 274.741ZM1126.4 266.961C1123.16 268.605 1119.97 270.199 1116.75 271.828C1118.42 271.294 1120.13 270.727 1121.82 270.184C1124.97 268.636 1128.08 267.122 1131.26 265.547C1129.63 266.029 1128.02 266.487 1126.4 266.961ZM1141.61 259.132C1138.16 260.919 1134.69 262.713 1131.28 264.461C1133.02 263.942 1134.75 263.445 1136.51 262.917C1140 261.179 1143.52 259.409 1147.03 257.642C1145.23 258.137 1143.41 258.648 1141.61 259.132ZM1157.33 250.992C1153.55 252.969 1149.82 254.895 1146.06 256.838C1147.96 256.318 1149.86 255.802 1151.77 255.268C1155.44 253.411 1159.14 251.528 1162.87 249.625C1161.01 250.09 1159.18 250.539 1157.33 250.992ZM1173.18 242.641C1169.13 244.783 1165.09 246.917 1161.07 249.022C1163.05 248.529 1165.05 247.99 1167.04 247.484C1171.02 245.447 1175 243.405 1179 241.346C1177.06 241.786 1175.12 242.215 1173.18 242.641ZM1189.22 234.108C1185 236.368 1180.81 238.61 1176.64 240.819C1178.64 240.371 1180.62 239.948 1182.62 239.487C1186.74 237.353 1190.93 235.138 1195.11 232.937C1193.15 233.33 1191.18 233.727 1189.22 234.108ZM1205.62 225.288C1201.15 227.704 1196.71 230.085 1192.26 232.471C1194.29 232.072 1196.34 231.64 1198.37 231.227C1202.77 228.915 1207.14 226.639 1211.57 224.288C1209.59 224.629 1207.6 224.961 1205.62 225.288ZM1222.12 216.28C1217.53 218.802 1212.94 221.332 1208.42 223.784C1210.41 223.448 1212.39 223.128 1214.38 222.781C1218.88 220.391 1223.43 217.941 1227.99 215.49C1226.03 215.766 1224.08 216.016 1222.12 216.28ZM1238.95 207.043C1234.12 209.709 1229.38 212.297 1224.59 214.93C1226.59 214.654 1228.61 214.367 1230.62 214.079C1235.32 211.55 1240.03 209.007 1244.78 206.427C1242.83 206.638 1240.89 206.843 1238.95 207.043ZM248.681 104.562C249.325 105.348 249.961 106.141 250.597 106.935C252.522 106.918 254.449 106.894 256.371 106.883C255.675 106.134 254.974 105.392 254.273 104.649C252.412 104.613 250.547 104.589 248.681 104.562ZM245.927 101.243C246.567 102.005 247.202 102.773 247.836 103.543C249.661 103.569 251.488 103.588 253.309 103.622C252.617 102.894 251.917 102.178 251.22 101.458C249.458 101.38 247.693 101.313 245.927 101.243ZM243.126 97.9723C243.768 98.7121 244.411 99.4505 245.046 100.198C246.765 100.264 248.482 100.336 250.199 100.408C249.516 99.7107 248.831 99.0142 248.143 98.3237C246.473 98.2036 244.801 98.0831 243.126 97.9723ZM240.306 94.7643C240.938 95.4713 241.571 96.1784 242.196 96.8944C243.815 96.9988 245.429 97.1167 247.041 97.2339C246.368 96.5654 245.699 95.8936 245.021 95.2328C243.452 95.0728 241.882 94.9141 240.306 94.7643ZM237.47 91.6237C238.089 92.2951 238.699 92.9771 239.312 93.6562C240.82 93.7975 242.326 93.9409 243.829 94.0924C243.16 93.4486 242.488 92.8082 241.813 92.1725C240.37 91.9815 238.918 91.8053 237.47 91.6237ZM234.579 88.5319C235.186 89.1694 235.785 89.8178 236.385 90.4625C237.779 90.6348 239.172 90.8084 240.563 90.9883C239.913 90.3827 239.252 89.7924 238.598 89.1939C237.259 88.9711 235.924 88.7441 234.579 88.5319ZM231.672 85.5296C232.254 86.1234 232.836 86.7146 233.413 87.313C234.685 87.512 235.949 87.7217 237.214 87.9301C236.587 87.3652 235.955 86.8075 235.324 86.249C234.11 86.0024 232.89 85.7673 231.672 85.5296ZM228.738 82.5872C229.297 83.1373 229.858 83.6822 230.412 84.2391C231.529 84.4525 232.648 84.6634 233.762 84.8837C233.185 84.3812 232.612 83.8736 232.03 83.3762C230.933 83.1131 229.84 82.8444 228.738 82.5872ZM225.835 79.7565C226.33 80.228 226.817 80.7105 227.308 81.1867C228.29 81.4117 229.266 81.6468 230.242 81.8806C229.704 81.4303 229.17 80.9787 228.63 80.5335C227.702 80.2687 226.767 80.0137 225.835 79.7565ZM222.899 77.0122C223.335 77.4133 223.766 77.822 224.199 78.2265C224.997 78.4433 225.797 78.6598 226.593 78.8792C226.132 78.5087 225.669 78.1403 225.206 77.7719C224.437 77.5194 223.671 77.2618 222.899 77.0122ZM220.029 74.42C220.36 74.7141 220.693 75.0074 221.021 75.3036C221.606 75.4886 222.192 75.672 222.775 75.8592C222.415 75.5825 222.05 75.3112 221.688 75.0354C221.139 74.8249 220.58 74.6266 220.029 74.42ZM217.315 72.0289C217.487 72.1766 217.662 72.3183 217.833 72.4673C218.135 72.5772 218.434 72.6914 218.737 72.8017C218.564 72.6752 218.389 72.5539 218.216 72.427C217.916 72.295 217.617 72.1596 217.315 72.0289ZM1055 300.776C1053.57 301.478 1052.13 302.197 1050.72 302.891C1051.25 302.686 1051.77 302.5 1052.3 302.295C1053.83 301.568 1055.4 300.805 1056.95 300.063C1056.3 300.297 1055.64 300.543 1055 300.776ZM1069.79 293.46C1067.69 294.504 1065.64 295.506 1063.55 296.542C1064.57 296.17 1065.57 295.81 1066.59 295.435C1068.76 294.391 1070.89 293.374 1073.07 292.325C1071.98 292.7 1070.87 293.088 1069.79 293.46ZM1084.91 285.827C1082.26 287.171 1079.6 288.527 1076.97 289.849C1078.37 289.359 1079.8 288.849 1081.21 288.352C1083.79 287.092 1086.4 285.797 1089 284.518C1087.63 284.966 1086.28 285.386 1084.91 285.827ZM1100.28 278.011C1097.08 279.653 1093.93 281.248 1090.77 282.862C1092.41 282.323 1094.08 281.754 1095.73 281.205C1098.86 279.652 1101.98 278.107 1105.15 276.522C1103.52 277.023 1101.9 277.521 1100.28 278.011ZM1115.51 270.132C1112.14 271.878 1108.77 273.628 1105.42 275.355C1107.16 274.818 1108.88 274.308 1110.63 273.759C1114.06 272.031 1117.52 270.285 1120.98 268.54C1119.16 269.062 1117.31 269.622 1115.51 270.132ZM1131.38 261.831C1127.66 263.796 1123.95 265.747 1120.27 267.666C1122.19 267.117 1124.11 266.55 1126.04 265.987C1129.61 264.168 1133.23 262.296 1136.85 260.425C1135.01 260.913 1133.21 261.356 1131.38 261.831ZM1147.35 253.393C1143.32 255.53 1139.32 257.639 1135.31 259.754C1137.28 259.237 1139.25 258.701 1141.23 258.168C1145.23 256.102 1149.19 254.076 1153.22 251.981C1151.26 252.457 1149.3 252.932 1147.35 253.393ZM1163.42 244.764C1159.27 247.009 1155.11 249.266 1151.02 251.451C1152.99 250.976 1154.96 250.512 1156.95 250.024C1161.04 247.885 1165.18 245.691 1169.32 243.502C1167.35 243.93 1165.38 244.349 1163.42 244.764ZM1179.91 235.855C1175.43 238.293 1171.02 240.661 1166.58 243.06C1168.63 242.621 1170.72 242.135 1172.78 241.68C1177.12 239.382 1181.46 237.085 1185.84 234.742C1183.86 235.119 1181.89 235.491 1179.91 235.855ZM1196.46 226.767C1191.88 229.289 1187.32 231.803 1182.8 234.271C1184.8 233.895 1186.8 233.531 1188.82 233.14C1193.33 230.723 1197.87 228.286 1202.42 225.827C1200.43 226.151 1198.44 226.456 1196.46 226.767ZM1213.28 217.459C1208.51 220.115 1203.78 222.736 1199.06 225.338C1201.11 225.011 1203.16 224.662 1205.22 224.322C1209.86 221.808 1214.55 219.241 1219.25 216.662C1217.26 216.926 1215.26 217.207 1213.28 217.459ZM1230.38 207.892C1225.45 210.663 1220.56 213.39 1215.68 216.116C1217.69 215.856 1219.7 215.583 1221.72 215.311C1226.59 212.642 1231.41 210.01 1236.32 207.303C1234.34 207.503 1232.36 207.704 1230.38 207.892ZM241.43 104.475C242.031 105.32 242.629 106.168 243.223 107.021C245.191 106.991 247.154 106.969 249.117 106.949C248.464 106.143 247.809 105.338 247.15 104.54C245.246 104.512 243.34 104.49 241.43 104.475ZM238.907 100.99C239.511 101.815 240.121 102.633 240.719 103.465C242.583 103.479 244.445 103.498 246.305 103.522C245.656 102.74 245.009 101.953 244.352 101.179C242.54 101.111 240.724 101.048 238.907 100.99ZM236.355 97.5577C236.958 98.3543 237.558 99.153 238.153 99.959C239.921 100.014 241.688 100.07 243.451 100.134C242.8 99.3729 242.15 98.6124 241.493 97.8607C239.785 97.7521 238.068 97.6579 236.355 97.5577ZM233.77 94.1718C234.368 94.9396 234.957 95.7213 235.549 96.4984C237.221 96.5926 238.892 96.6903 240.56 96.7921C239.913 96.0587 239.258 95.3351 238.604 94.6102C236.995 94.4595 235.385 94.311 233.77 94.1718ZM231.137 90.8568C231.728 91.5923 232.315 92.3333 232.901 93.0764C234.476 93.2093 236.044 93.3574 237.611 93.5025C236.968 92.795 236.316 92.0961 235.665 91.3971C234.159 91.2107 232.649 91.0329 231.137 90.8568ZM228.469 87.6024C229.059 88.312 229.651 89.0153 230.235 89.733C231.685 89.8972 233.136 90.061 234.58 90.2359C233.952 89.5666 233.324 88.8981 232.689 88.2373C231.285 88.0213 229.878 87.8104 228.469 87.6024ZM225.772 84.4118C226.346 85.0802 226.921 85.7478 227.49 86.4235C228.833 86.6191 230.171 86.8232 231.509 87.0278C230.898 86.3988 230.291 85.7664 229.674 85.1447C228.376 84.896 227.076 84.649 225.772 84.4118ZM223.072 81.3072C223.62 81.9243 224.159 82.5537 224.702 83.1776C225.923 83.397 227.145 83.616 228.362 83.8439C227.766 83.2531 227.167 82.6674 226.564 82.0826C225.404 81.8195 224.238 81.5644 223.072 81.3072ZM220.303 78.2638C220.826 78.8312 221.344 79.405 221.862 79.9784C222.962 80.2157 224.056 80.4643 225.152 80.7084C224.585 80.1668 224.007 79.6376 223.435 79.1025C222.393 78.819 221.351 78.538 220.303 78.2638ZM217.542 75.332C218.027 75.8405 218.516 76.3425 218.997 76.8556C219.931 77.0946 220.871 77.3267 221.8 77.5716C221.285 77.1005 220.766 76.6349 220.249 76.1677C219.349 75.8859 218.447 75.6087 217.542 75.332ZM214.794 72.5025C215.211 72.9248 215.632 73.3437 216.047 73.7681C216.82 73.999 217.585 74.243 218.353 74.4803C217.913 74.0911 217.479 73.6947 217.036 73.3101C216.291 73.0385 215.544 72.7686 214.794 72.5025ZM212.113 69.8372C212.429 70.1432 212.738 70.4598 213.051 70.7684C213.606 70.9619 214.162 71.1516 214.715 71.3473C214.382 71.0663 214.052 70.7811 213.718 70.5031C213.183 70.2799 212.65 70.0571 212.113 69.8372ZM209.483 67.3371L209.97 67.7975C210.245 67.907 210.524 68.0119 210.799 68.1227L210.282 67.708C210.018 67.5811 209.748 67.4635 209.483 67.3371ZM1028.19 312.499C1027.01 313.077 1025.83 313.669 1024.66 314.248C1025.16 314.055 1025.64 313.869 1026.14 313.673C1027.39 313.074 1028.67 312.451 1029.93 311.844C1029.35 312.057 1028.76 312.288 1028.19 312.499ZM1043.54 304.843C1041.51 305.871 1039.5 306.874 1037.49 307.881C1038.47 307.514 1039.45 307.141 1040.43 306.771C1042.52 305.758 1044.55 304.794 1046.65 303.767C1045.6 304.137 1044.58 304.478 1043.54 304.843ZM1058.63 297.18C1055.93 298.552 1053.21 299.937 1050.5 301.307C1051.9 300.808 1053.35 300.26 1054.76 299.753C1057.4 298.453 1060.06 297.129 1062.7 295.822C1061.34 296.28 1059.99 296.728 1058.63 297.18ZM1073.83 289.374C1070.85 290.923 1067.87 292.476 1064.93 293.983C1066.46 293.464 1067.96 292.984 1069.5 292.457C1072.55 290.931 1075.64 289.37 1078.74 287.804C1077.11 288.322 1075.45 288.865 1073.83 289.374ZM1089.46 281.268C1086.06 283.039 1082.7 284.774 1079.31 286.53C1081.07 285.972 1082.82 285.413 1084.58 284.843C1087.95 283.136 1091.3 281.45 1094.68 279.726C1092.93 280.249 1091.2 280.756 1089.46 281.268ZM1105.23 272.944C1101.53 274.909 1097.82 276.881 1094.17 278.799C1096.08 278.229 1098.02 277.614 1099.94 277.032C1103.51 275.201 1107.13 273.316 1110.74 271.44C1108.89 271.955 1107.06 272.444 1105.23 272.944ZM1121.23 264.444C1117.26 266.568 1113.34 268.639 1109.41 270.728C1111.33 270.196 1113.22 269.703 1115.15 269.158C1119.11 267.094 1123.07 265.04 1127.08 262.937C1125.13 263.437 1123.16 263.957 1121.23 264.444ZM1137.44 255.691C1133.27 257.945 1129.12 260.194 1124.99 262.409C1126.99 261.901 1129 261.385 1131.01 260.862C1135.08 258.718 1139.18 256.55 1143.28 254.371C1141.32 254.828 1139.39 255.248 1137.44 255.691ZM1153.88 246.729C1149.49 249.14 1145.11 251.534 1140.77 253.89C1142.83 253.418 1144.9 252.914 1146.96 252.425C1151.24 250.15 1155.55 247.826 1159.88 245.493C1157.88 245.91 1155.88 246.326 1153.88 246.729ZM1170.6 237.54C1166.02 240.068 1161.48 242.558 1156.93 245.053C1158.96 244.636 1160.99 244.229 1163.03 243.797C1167.55 241.358 1172.05 238.951 1176.61 236.477C1174.6 236.843 1172.6 237.188 1170.6 237.54ZM1187.42 228.152C1182.71 230.797 1177.98 233.455 1173.34 236.028C1175.39 235.663 1177.46 235.268 1179.51 234.888C1184.12 232.379 1188.79 229.801 1193.46 227.227C1191.44 227.537 1189.43 227.857 1187.42 228.152ZM1204.63 218.498C1199.7 221.279 1194.84 223.992 1189.96 226.732C1191.99 226.425 1194.02 226.116 1196.06 225.796C1200.87 223.142 1205.68 220.494 1210.54 217.79C1208.57 218.035 1206.6 218.265 1204.63 218.498ZM1221.93 208.656C1216.89 211.532 1211.87 214.394 1206.9 217.206C1208.89 216.965 1210.87 216.741 1212.87 216.49C1217.82 213.736 1222.79 210.954 1227.79 208.144C1225.83 208.326 1223.88 208.484 1221.93 208.656ZM234.147 104.44C234.704 105.345 235.261 106.247 235.812 107.158C237.809 107.115 239.803 107.08 241.798 107.047C241.194 106.183 240.591 105.32 239.98 104.467C238.038 104.454 236.094 104.442 234.147 104.44ZM231.864 100.781C232.422 101.66 232.975 102.546 233.526 103.432C235.437 103.434 237.343 103.446 239.249 103.459C238.64 102.616 238.026 101.781 237.41 100.945C235.564 100.886 233.717 100.826 231.864 100.781ZM229.557 97.1885C230.114 98.0377 230.658 98.9026 231.208 99.7604C233.028 99.8032 234.842 99.8575 236.657 99.9131C236.044 99.0894 235.42 98.28 234.8 97.4656C233.056 97.3671 231.307 97.2759 229.557 97.1885ZM227.184 93.6438C227.745 94.474 228.305 95.3071 228.86 96.1449C230.573 96.2272 232.286 96.3108 233.994 96.4059C233.384 95.611 232.769 94.8207 232.151 94.033C230.498 93.898 228.841 93.7707 227.184 93.6438ZM224.768 90.1442C225.334 90.9531 225.906 91.7553 226.465 92.5727C228.076 92.6945 229.684 92.8222 231.291 92.9499C230.687 92.1894 230.087 91.4225 229.476 90.67C227.908 90.4901 226.343 90.3097 224.768 90.1442ZM222.342 86.7333C222.898 87.5002 223.451 88.2717 223.999 89.0471C225.518 89.2046 227.031 89.3722 228.542 89.5415C227.936 88.8031 227.327 88.0689 226.715 87.3389C225.263 87.1301 223.802 86.9332 222.342 86.7333ZM219.873 83.369C220.424 84.1011 220.96 84.8502 221.504 85.5903C222.912 85.7813 224.324 85.9672 225.728 86.1654C225.132 85.4647 224.527 84.7767 223.925 84.0854C222.576 83.8439 221.229 83.599 219.873 83.369ZM217.349 80.0901C217.887 80.7789 218.42 81.4732 218.952 82.1713C220.258 82.3903 221.557 82.622 222.855 82.8521C222.266 82.1845 221.667 81.5237 221.07 80.8629C219.835 80.5972 218.591 80.3451 217.349 80.0901ZM214.783 76.8633C215.315 77.5199 215.853 78.17 216.378 78.8351C217.545 79.0715 218.715 79.3061 219.876 79.5502C219.319 78.9424 218.763 78.3317 218.199 77.7295C217.062 77.4388 215.927 77.1438 214.783 76.8633ZM212.229 73.7554C212.724 74.3453 213.216 74.936 213.706 75.5319C214.756 75.7849 215.8 76.0454 216.843 76.3094C216.306 75.7454 215.772 75.1758 215.229 74.6182C214.235 74.3232 213.229 74.0448 212.229 73.7554ZM209.638 70.7124C210.095 71.2378 210.542 71.7768 210.996 72.3073C211.902 72.5632 212.804 72.8255 213.708 73.0865C213.216 72.5929 212.723 72.1006 212.226 71.6121C211.363 71.3116 210.507 71.0039 209.638 70.7124ZM207.044 67.8175C207.442 68.2559 207.838 68.6965 208.232 69.1396C208.969 69.3823 209.71 69.617 210.443 69.8644C210.011 69.4485 209.572 69.0419 209.136 68.6302C208.442 68.3552 207.742 68.087 207.044 67.8175ZM204.468 65.03C204.782 65.3636 205.101 65.6908 205.414 66.0269C205.965 66.2357 206.508 66.4535 207.055 66.6657C206.712 66.3503 206.361 66.046 206.016 65.7349C205.5 65.4998 204.987 65.2613 204.468 65.03ZM202.102 62.5404C202.254 62.6954 202.4 62.8566 202.552 63.0132L203.365 63.3647C203.208 63.2284 203.055 63.0858 202.899 62.95L202.102 62.5404ZM1001.86 324.119L998.309 325.885L999.583 325.376C1000.78 324.799 1001.99 324.208 1003.18 323.63C1002.74 323.798 1002.31 323.952 1001.86 324.119ZM1016.92 316.529C1014.91 317.553 1012.88 318.591 1010.89 319.595C1011.91 319.207 1012.95 318.791 1013.97 318.4C1015.96 317.425 1017.97 316.432 1019.98 315.433C1018.96 315.804 1017.94 316.162 1016.92 316.529ZM1032.15 308.786C1029.5 310.143 1026.91 311.447 1024.28 312.789C1025.52 312.335 1026.73 311.922 1027.98 311.462C1030.71 310.105 1033.43 308.76 1036.17 307.393C1034.83 307.855 1033.48 308.33 1032.15 308.786ZM1047.2 300.978C1044.32 302.475 1041.43 303.984 1038.57 305.459C1040.14 304.914 1041.7 304.383 1043.28 303.829C1046.18 302.371 1049.12 300.866 1052.04 299.377C1050.43 299.904 1048.8 300.46 1047.2 300.978ZM1063.09 292.678C1059.71 294.462 1056.36 296.21 1053.01 297.96C1054.77 297.383 1056.55 296.776 1058.32 296.186C1061.61 294.507 1064.89 292.848 1068.21 291.139C1066.49 291.668 1064.8 292.156 1063.09 292.678ZM1078.89 284.304C1075.2 286.267 1071.5 288.228 1067.83 290.167C1069.71 289.587 1071.6 288.989 1073.49 288.396C1077.12 286.517 1080.79 284.611 1084.45 282.706C1082.59 283.244 1080.74 283.778 1078.89 284.304ZM1094.78 275.789C1090.95 277.859 1087.12 279.928 1083.34 281.945C1085.27 281.389 1087.17 280.856 1089.11 280.286C1092.93 278.286 1096.81 276.238 1100.68 274.184C1098.72 274.71 1096.73 275.275 1094.78 275.789ZM1111.29 266.866C1107.09 269.151 1102.94 271.378 1098.77 273.632C1100.79 273.093 1102.83 272.523 1104.86 271.97C1108.95 269.802 1113.01 267.667 1117.13 265.47C1115.17 265.954 1113.24 266.396 1111.29 266.866ZM1127.66 257.873C1123.33 260.259 1119 262.652 1114.74 264.98C1116.77 264.484 1118.79 263.99 1120.83 263.479C1125.09 261.199 1129.41 258.857 1133.72 256.52C1131.7 256.972 1129.67 257.436 1127.66 257.873ZM1144.45 248.592C1139.9 251.125 1135.39 253.611 1130.89 256.097C1132.94 255.643 1134.99 255.189 1137.05 254.721C1141.49 252.313 1145.94 249.898 1150.44 247.44C1148.43 247.839 1146.45 248.207 1144.45 248.592ZM1161.36 239.129C1156.64 241.78 1151.94 244.412 1147.27 247.015C1149.33 246.611 1151.41 246.184 1153.48 245.765C1158.12 243.225 1162.77 240.665 1167.45 238.082C1165.42 238.433 1163.38 238.792 1161.36 239.129ZM1178.54 229.415C1173.68 232.177 1168.83 234.93 1164.04 237.629C1166.09 237.282 1168.14 236.932 1170.2 236.57C1174.92 233.953 1179.71 231.272 1184.51 228.589C1182.51 228.878 1180.53 229.137 1178.54 229.415ZM1195.97 219.5C1190.92 222.387 1185.94 225.21 1180.93 228.055C1182.96 227.767 1184.98 227.484 1187.02 227.182C1191.99 224.398 1196.93 221.65 1201.95 218.818C1199.96 219.051 1197.96 219.28 1195.97 219.5ZM1213.51 209.374C1208.37 212.356 1203.21 215.348 1198.15 218.25C1200.17 218.022 1202.2 217.765 1204.22 217.526C1209.24 214.691 1214.33 211.783 1219.42 208.874C1217.45 209.043 1215.48 209.214 1213.51 209.374ZM226.843 104.465C227.347 105.419 227.845 106.383 228.343 107.347C230.372 107.291 232.405 107.232 234.432 107.183C233.873 106.26 233.304 105.348 232.739 104.433C230.777 104.436 228.809 104.454 226.843 104.465ZM224.794 100.641C225.303 101.574 225.803 102.519 226.305 103.462C228.244 103.451 230.185 103.436 232.121 103.432C231.56 102.533 230.99 101.642 230.422 100.753C228.548 100.712 226.673 100.673 224.794 100.641ZM222.689 96.8676C223.208 97.7818 223.723 98.6989 224.232 99.6229C226.081 99.6526 227.924 99.6916 229.767 99.7328C229.204 98.8577 228.639 97.9838 228.069 97.1184C226.278 97.0297 224.487 96.9428 222.689 96.8676ZM220.561 93.1677C221.08 94.0555 221.601 94.94 222.113 95.8363C223.87 95.908 225.621 95.9899 227.371 96.0735C226.803 95.2218 226.238 94.3666 225.664 93.525C223.966 93.3981 222.264 93.2831 220.561 93.1677ZM218.389 89.511C218.912 90.373 219.427 91.2413 219.942 92.1134C221.603 92.2242 223.266 92.3307 224.921 92.4517C224.35 91.6258 223.775 90.805 223.197 89.9876C221.597 89.825 219.995 89.6638 218.389 89.511ZM216.184 85.9252C216.703 86.7511 217.21 87.5897 217.722 88.4258C219.296 88.5735 220.862 88.7322 222.43 88.8922C221.857 88.0897 221.272 87.3024 220.692 86.51C219.194 86.3093 217.691 86.1132 216.184 85.9252ZM213.914 82.4022C214.436 83.2014 214.957 84.0039 215.472 84.8124C216.935 84.9932 218.398 85.174 219.854 85.3658C219.286 84.6006 218.715 83.8384 218.139 83.0804C216.734 82.8491 215.325 82.6246 213.914 82.4022ZM211.607 78.942C212.128 79.7081 212.652 80.4669 213.165 81.2423C214.522 81.4528 215.874 81.6743 217.226 81.8946C216.669 81.1697 216.116 80.4372 215.552 79.7212C214.241 79.456 212.926 79.1954 211.607 78.942ZM209.277 75.5633C209.785 76.2836 210.288 77.0097 210.789 77.7367C212.038 77.9731 213.288 78.2095 214.53 78.4569C213.98 77.7698 213.431 77.0857 212.875 76.4079C211.677 76.1236 210.48 75.8405 209.277 75.5633ZM206.914 72.2661C207.4 72.9286 207.875 73.6064 208.356 74.2774C209.503 74.5371 210.642 74.81 211.781 75.0808C211.242 74.4335 210.692 73.7978 210.146 73.1574C209.073 72.8543 207.994 72.5594 206.914 72.2661ZM204.485 69.0445C204.958 69.6624 205.428 70.2825 205.895 70.9081C206.902 71.1763 207.915 71.436 208.916 71.7131C208.409 71.1279 207.89 70.5571 207.376 69.9803C206.413 69.6671 205.454 69.3509 204.485 69.0445ZM202.058 65.9382C202.493 66.4844 202.937 67.0226 203.368 67.5756C204.239 67.8447 205.101 68.1261 205.965 68.4062C205.489 67.8829 205.014 67.3588 204.533 66.8406C203.713 66.5316 202.882 66.2396 202.058 65.9382ZM199.627 62.9326C200.01 63.3944 200.39 63.8616 200.769 64.3285C201.473 64.5806 202.173 64.8357 202.875 65.0903C202.471 64.6667 202.074 64.236 201.667 63.8167C200.986 63.5234 200.312 63.2208 199.627 62.9326ZM197.245 60.1251C197.532 60.4579 197.814 60.797 198.1 61.1323C198.599 61.3368 199.106 61.532 199.603 61.7409C199.292 61.4302 198.983 61.1191 198.671 60.8123C198.199 60.5793 197.72 60.3547 197.245 60.1251ZM194.882 57.4569L195.361 57.9891C195.619 58.1092 195.871 58.237 196.129 58.3596L195.613 57.8741C195.368 57.7375 195.128 57.594 194.882 57.4569ZM975.39 335.947C974.08 336.61 972.81 337.233 971.51 337.886L972.343 337.547L976.501 335.526L975.39 335.947ZM990.104 328.458C988.092 329.48 986.063 330.518 984.053 331.539C984.978 331.179 985.888 330.836 986.815 330.473C988.874 329.457 990.97 328.404 993.047 327.371C992.068 327.733 991.08 328.102 990.104 328.458ZM1005.15 320.742C1002.78 321.976 1000.41 323.203 998.064 324.407C999.286 323.953 1000.49 323.52 1001.71 323.06C1004.27 321.78 1006.79 320.533 1009.37 319.231C1007.98 319.723 1006.54 320.257 1005.15 320.742ZM1020.77 312.623C1017.84 314.15 1014.91 315.671 1011.98 317.191C1013.55 316.635 1015.13 316.066 1016.7 315.5C1019.52 314.07 1022.37 312.616 1025.19 311.179C1023.7 311.68 1022.26 312.129 1020.77 312.623ZM1036.46 304.352C1033.12 306.129 1029.76 307.92 1026.47 309.65C1028.25 309.05 1030.08 308.39 1031.88 307.778C1035.08 306.13 1038.34 304.433 1041.6 302.739C1039.87 303.286 1038.17 303.815 1036.46 304.352ZM1052.37 295.906C1048.72 297.86 1045.13 299.749 1041.51 301.676C1043.32 301.099 1045.08 300.568 1046.9 299.98C1050.6 298.054 1054.27 296.165 1058 294.213C1056.13 294.774 1054.23 295.357 1052.37 295.906ZM1068.37 287.263C1064.53 289.341 1060.69 291.421 1056.9 293.46C1058.85 292.877 1060.8 292.291 1062.76 291.694C1066.51 289.72 1070.31 287.697 1074.1 285.68C1072.18 286.218 1070.28 286.739 1068.37 287.263ZM1084.79 278.325C1080.63 280.608 1076.49 282.862 1072.38 285.097C1074.41 284.53 1076.5 283.906 1078.54 283.324C1082.57 281.178 1086.61 279.019 1090.69 276.827C1088.71 277.34 1086.76 277.826 1084.79 278.325ZM1101.27 269.262C1096.97 271.636 1092.68 273.993 1088.41 276.337C1090.42 275.819 1092.4 275.34 1094.42 274.809C1098.73 272.487 1103.05 270.151 1107.39 267.798C1105.35 268.282 1103.29 268.793 1101.27 269.262ZM1118.08 259.9C1113.59 262.413 1109.1 264.937 1104.68 267.386C1106.75 266.9 1108.83 266.397 1110.91 265.896C1115.25 263.533 1119.66 261.097 1124.06 258.67C1122.05 259.1 1120.08 259.484 1118.08 259.9ZM1135.11 250.36C1130.38 253.023 1125.73 255.616 1121.05 258.236C1123.12 257.799 1125.19 257.356 1127.27 256.903C1131.92 254.342 1136.54 251.805 1141.24 249.2C1139.19 249.587 1137.14 249.988 1135.11 250.36ZM1152.29 240.59C1147.46 243.346 1142.62 246.103 1137.86 248.796C1139.92 248.411 1141.98 248.022 1144.06 247.622C1148.76 245.005 1153.52 242.33 1158.29 239.653C1156.28 239.983 1154.29 240.274 1152.29 240.59ZM1169.68 230.637C1164.69 233.507 1159.73 236.351 1154.8 239.163C1156.85 238.834 1158.9 238.502 1160.96 238.158C1165.86 235.404 1170.79 232.615 1175.76 229.801C1173.73 230.077 1171.69 230.374 1169.68 230.637ZM1187.38 220.413C1182.23 223.399 1177.11 226.356 1172.01 229.29C1174.05 229.019 1176.1 228.726 1178.15 228.44C1183.2 225.571 1188.26 222.693 1193.37 219.777C1191.37 219.992 1189.37 220.209 1187.38 220.413ZM1205.21 210C1199.97 213.078 1194.71 216.165 1189.54 219.166C1191.55 218.955 1193.55 218.747 1195.57 218.525C1200.68 215.593 1205.9 212.569 1211.1 209.556C1209.14 209.709 1207.17 209.857 1205.21 210ZM1186.99 219.436C1192.22 216.4 1197.53 213.288 1202.84 210.18C1021.16 223.049 855.029 191.714 689.091 160.417C588.325 141.411 487.63 122.424 383.571 113.364C473.018 124.639 559.377 144.001 646.237 163.48C815.678 201.476 987.043 239.89 1186.99 219.436ZM1169.29 229.659C1174.43 226.702 1179.62 223.7 1184.83 220.685C985.676 240.639 814.845 202.325 645.917 164.444C554.329 143.906 463.299 123.502 368.626 112.58C450.858 125.5 529.747 146.316 609.388 167.337C779.304 212.19 952.654 257.956 1169.29 229.659ZM1020.52 311.606C1024.04 309.766 1027.57 307.909 1031.13 306.026C689.461 411.668 548.001 299.725 415.178 194.537C376.881 164.208 339.296 134.453 297.817 110.662M219.491 104.531C219.943 105.539 220.389 106.555 220.833 107.573C222.893 107.503 224.952 107.443 227.009 107.384C226.502 106.409 225.994 105.437 225.48 104.472C223.486 104.486 221.489 104.505 219.491 104.531ZM217.667 100.551C218.127 101.543 218.59 102.531 219.043 103.533C221.012 103.506 222.979 103.484 224.943 103.469C224.432 102.515 223.924 101.558 223.405 100.614C221.495 100.585 219.58 100.569 217.667 100.551ZM215.804 96.6185C216.271 97.59 216.739 98.5597 217.199 99.5409C219.079 99.5567 220.96 99.5689 222.834 99.5948C222.318 98.6654 221.803 97.736 221.28 96.8171C219.457 96.7467 217.633 96.6788 215.804 96.6185ZM213.907 92.7458C214.378 93.6871 214.842 94.6382 215.306 95.591C217.105 95.6492 218.901 95.7171 220.695 95.7854C220.171 94.8738 219.637 93.9744 219.105 93.0717C217.375 92.9571 215.644 92.8464 213.907 92.7458ZM211.966 88.9376C212.442 89.8518 212.908 90.7787 213.375 91.7047C215.084 91.8019 216.787 91.9068 218.488 92.0175C217.956 91.1263 217.418 90.2435 216.879 89.3612C215.246 89.2122 213.605 89.0772 211.966 88.9376ZM209.958 85.1714C210.443 86.069 210.929 86.965 211.407 87.8723C213.012 88.0069 214.618 88.1389 216.217 88.2832C215.691 87.4314 215.164 86.5783 214.629 85.7367C213.076 85.5432 211.521 85.3501 209.958 85.1714ZM207.929 81.5008C208.413 82.361 208.899 83.2162 209.375 84.085C210.891 84.256 212.4 84.4393 213.909 84.6231C213.378 83.7947 212.85 82.9629 212.31 82.1442C210.856 81.9218 209.391 81.7121 207.929 81.5008ZM205.844 77.8636C206.331 78.6937 206.811 79.5324 207.291 80.3723C208.706 80.5751 210.124 80.7733 211.533 80.9864C211.004 80.1949 210.469 79.4101 209.933 78.6284C208.572 78.3695 207.214 78.1072 205.844 77.8636ZM203.736 74.3364C204.213 75.1156 204.678 75.9109 205.148 76.6986C206.476 76.9316 207.797 77.1765 209.115 77.4244C208.58 76.6558 208.03 75.9037 207.486 75.1444C206.243 74.8656 204.987 74.605 203.736 74.3364ZM201.543 70.8473C202.022 71.5985 202.5 72.3489 202.972 73.1081C204.179 73.3632 205.384 73.6212 206.586 73.8844C206.068 73.1722 205.547 72.4652 205.022 71.7611C203.865 71.4534 202.709 71.1444 201.543 70.8473ZM199.337 67.4729C199.804 68.1715 200.275 68.8632 200.734 69.5699C201.825 69.8428 202.913 70.1191 203.995 70.4022C203.493 69.7413 202.999 69.0725 202.49 68.4189C201.444 68.0976 200.391 67.7853 199.337 67.4729ZM197.1 64.1732C197.54 64.8059 197.975 65.4468 198.409 66.0868C199.386 66.3707 200.354 66.6686 201.326 66.9619C200.844 66.355 200.362 65.746 199.875 65.1455C198.954 64.8157 198.028 64.4932 197.1 64.1732ZM194.832 60.9833C195.24 61.5448 195.64 62.1194 196.043 62.6869C196.875 62.9678 197.713 63.2395 198.541 63.5276C198.097 62.9933 197.646 62.4683 197.197 61.9404C196.409 61.6208 195.624 61.297 194.832 60.9833ZM192.54 57.9204C192.895 58.3876 193.252 58.8553 193.604 59.3281C194.3 59.5972 194.989 59.8756 195.679 60.154C195.27 59.6859 194.848 59.2343 194.436 58.7717C193.81 58.4802 193.17 58.2064 192.54 57.9204ZM190.268 54.992C190.559 55.3578 190.859 55.7143 191.147 56.0831C191.637 56.3 192.122 56.522 192.608 56.7393C192.304 56.4087 191.996 56.0802 191.688 55.75C191.213 55.5004 190.746 55.2394 190.268 54.992ZM188.149 52.3607C188.289 52.5292 188.423 52.704 188.561 52.8725C188.797 52.9922 189.038 53.1072 189.274 53.2269C189.124 53.0741 188.98 52.9154 188.83 52.763L188.149 52.3607ZM1229.13 199.106C1227.2 199.196 1225.26 199.294 1223.32 199.375C1217.89 202.583 1212.56 205.692 1207.2 208.836C1209.17 208.689 1211.14 208.548 1213.12 208.389C1218.45 205.304 1223.74 202.249 1229.13 199.106ZM1237.17 198.713C1235.24 198.815 1233.31 198.909 1231.39 199.002C1226.06 202.109 1220.82 205.141 1215.54 208.197C1217.54 208.033 1219.53 207.849 1221.53 207.676C1226.72 204.706 1231.92 201.736 1237.17 198.713ZM1245.28 198.257C1243.35 198.372 1241.42 198.477 1239.49 198.581C1234.31 201.567 1229.16 204.524 1224.03 207.456C1226.02 207.279 1228 207.103 1229.99 206.914C1235.05 204.067 1240.16 201.161 1245.28 198.257ZM1253.46 197.736C1251.52 197.865 1249.58 198.003 1247.63 198.123C1242.61 200.977 1237.56 203.859 1232.59 206.657C1234.58 206.465 1236.56 206.27 1238.55 206.067C1243.47 203.342 1248.49 200.52 1253.46 197.736ZM1261.71 197.17C1259.77 197.311 1257.84 197.443 1255.9 197.575C1250.97 200.333 1246.03 203.109 1241.16 205.807C1243.14 205.6 1245.13 205.368 1247.11 205.15C1251.95 202.518 1256.81 199.864 1261.71 197.17ZM1269.94 196.541C1268.04 196.692 1266.15 196.833 1264.25 196.975C1259.41 199.64 1254.64 202.239 1249.86 204.845C1251.84 204.622 1253.82 204.408 1255.8 204.174C1260.45 201.688 1265.22 199.087 1269.94 196.541ZM1278.32 195.833C1276.39 196.002 1274.46 196.179 1272.53 196.338C1267.95 198.816 1263.27 201.388 1258.74 203.811C1260.68 203.577 1262.62 203.337 1264.56 203.092C1269.11 200.714 1273.72 198.27 1278.32 195.833ZM1286.75 195.076C1284.83 195.258 1282.92 195.43 1281 195.601C1276.52 197.977 1271.99 200.402 1267.57 202.721C1269.51 202.472 1271.46 202.201 1273.4 201.94C1277.83 199.677 1282.27 197.396 1286.75 195.076ZM1295.25 194.247C1293.35 194.441 1291.44 194.621 1289.54 194.805C1285.2 197.056 1280.86 199.313 1276.57 201.511C1278.47 201.25 1280.37 201.002 1282.28 200.731C1286.59 198.578 1290.88 196.454 1295.25 194.247ZM1303.85 193.331C1301.94 193.54 1300.04 193.753 1298.14 193.95C1293.95 196.074 1289.79 198.161 1285.65 200.232C1287.55 199.956 1289.45 199.672 1291.36 199.386C1295.53 197.362 1299.63 195.404 1303.85 193.331ZM1312.37 192.372C1310.53 192.588 1308.69 192.801 1306.85 193.006C1302.8 195.001 1298.82 196.925 1294.82 198.873C1296.71 198.581 1298.61 198.268 1300.5 197.968C1304.46 196.103 1308.38 194.278 1312.37 192.372ZM1320.92 191.352C1319.16 191.572 1317.41 191.771 1315.65 191.981C1311.8 193.824 1308.04 195.566 1304.22 197.368C1306.04 197.071 1307.86 196.79 1309.69 196.484C1313.42 194.787 1317.15 193.088 1320.92 191.352ZM1329.59 190.227C1327.87 190.455 1326.14 190.683 1324.42 190.901C1320.83 192.562 1317.31 194.148 1313.75 195.778C1315.54 195.471 1317.33 195.16 1319.13 194.842C1322.6 193.329 1326.1 191.777 1329.59 190.227ZM1338.26 189.046C1336.6 189.28 1334.93 189.521 1333.27 189.747C1329.97 191.218 1326.69 192.651 1323.41 194.095C1325.16 193.779 1326.91 193.437 1328.66 193.113C1331.84 191.791 1335.06 190.402 1338.26 189.046ZM1346.9 187.816C1345.35 188.044 1343.81 188.255 1342.27 188.477C1339.32 189.736 1336.37 190.988 1333.43 192.223C1335 191.924 1336.58 191.63 1338.16 191.324C1341.05 190.179 1343.98 188.987 1346.9 187.816ZM1355.62 186.475C1354.2 186.698 1352.78 186.913 1351.36 187.13C1348.83 188.155 1346.28 189.197 1343.76 190.204C1345.1 189.936 1346.44 189.672 1347.78 189.399C1350.39 188.429 1353 187.466 1355.62 186.475ZM1364.06 185.12C1362.88 185.314 1361.71 185.514 1360.53 185.703C1358.54 186.463 1356.52 187.254 1354.53 188.001C1355.54 187.791 1356.55 187.571 1357.56 187.356C1359.73 186.609 1361.88 185.882 1364.06 185.12ZM1371.76 183.844C1371.13 183.953 1370.51 184.052 1369.88 184.158C1368.6 184.613 1367.3 185.089 1366.02 185.539C1366.49 185.434 1366.96 185.321 1367.44 185.216L1371.76 183.844ZM229.519 112.324C227.348 112.427 225.177 112.535 223.003 112.65C236.888 145.807 247.102 183.559 257.502 222.039C277.737 296.909 298.713 374.512 349.019 426.019C422.768 501.529 559.767 521.014 850.195 393.963C571.606 509.568 439.017 484.614 364.77 408.011C316.958 358.683 293.392 287.976 270.604 219.596C258.001 181.776 245.628 144.676 229.519 112.324ZM237.268 111.959C235.124 112.053 232.976 112.16 230.829 112.262C246.863 144.593 259.208 181.605 271.78 219.334C294.534 287.611 318.066 358.217 365.725 407.388C442.123 486.208 580.729 509.992 877.902 381.105C591.709 498.684 457.325 468.824 380.113 388.507C335.357 341.949 309.861 278.469 285.143 216.923C270.253 179.848 255.643 143.479 237.268 111.959ZM244.974 111.661C242.857 111.738 240.741 111.818 238.622 111.906C256.897 143.39 271.461 179.651 286.304 216.609C310.99 278.074 336.451 341.469 381.074 387.888C460.529 470.54 600.939 499.434 906.36 368.041C610.77 488.331 474.38 452.503 393.697 367.822C352.494 324.578 325.858 268.628 299.962 214.228C282.678 177.92 265.717 142.315 244.974 111.661ZM252.647 111.395C250.554 111.461 248.461 111.53 246.366 111.607C266.983 142.216 283.881 177.694 301.1 213.864C326.967 268.2 353.57 324.084 394.657 367.207C477.257 453.899 618.546 489.157 930.668 356.882L932.065 356.202C627.176 478.41 489.39 435.017 404.883 345.461C367.923 306.292 341.178 258.312 315.091 211.509C295.294 175.993 275.871 141.162 252.647 111.395ZM260.268 111.164C258.209 111.221 256.146 111.288 254.085 111.352C277.153 141.063 296.493 175.738 316.199 211.093C342.257 257.843 368.971 305.769 405.848 344.85C491.325 435.433 631.625 478.543 945.562 349.634C946.942 348.957 948.283 348.318 949.673 347.633C638.452 468.526 501.026 415.235 412.588 320.52C380.856 286.538 355.447 247.243 330.565 208.764C308.124 174.056 286.107 140.016 260.268 111.164ZM267.854 110.994C265.831 111.036 263.81 111.076 261.784 111.128C287.426 139.913 309.325 173.777 331.647 208.297C356.506 246.742 381.891 285.999 413.558 319.914C502.69 415.372 641.798 468.599 959.81 342.591C961.846 341.58 963.897 340.552 965.934 339.54C559.398 491.768 448.929 343.573 346.441 205.995C321.207 172.12 296.447 138.901 267.854 110.994ZM275.411 110.851C273.423 110.883 271.435 110.919 269.445 110.958C297.798 138.79 322.406 171.809 347.484 205.473C450.507 343.771 561.645 492.792 975.311 334.861C977.524 333.746 979.786 332.584 982.028 331.439C591.932 471.654 473.239 332.582 362.768 203.188C334.577 170.169 306.921 137.783 275.411 110.851ZM282.906 110.747C280.969 110.771 279.031 110.799 277.094 110.828C308.31 137.675 335.776 169.832 363.766 202.617C474.726 332.582 594.082 472.249 989.954 327.402C992.872 325.912 995.749 324.462 998.686 322.954C624.605 451.592 497.854 321.648 379.608 200.347C348.269 168.199 317.521 136.671 282.906 110.747ZM290.389 110.691C288.502 110.7 286.616 110.707 284.727 110.725C318.983 136.557 349.482 167.839 380.563 199.724C499.222 321.447 626.423 451.931 1004.93 319.715C1008.22 318.018 1011.54 316.281 1014.86 314.554C657.072 431.543 522.738 310.676 397.047 197.468C362.353 166.22 328.311 135.569 290.389 110.691ZM305.221 110.675C303.476 110.67 301.734 110.666 299.989 110.665C340.938 134.355 378.132 163.809 416.024 193.816C549.258 299.329 691.223 411.627 1036.17 303.352C1039.93 301.364 1043.69 299.37 1047.47 297.361C721.788 391.925 573.704 288.791 434.118 191.554C391.938 162.171 350.531 133.335 305.221 110.675ZM312.592 110.725C310.926 110.708 309.261 110.688 307.593 110.68C352.278 133.242 393.217 161.747 434.906 190.79C574.915 288.322 723.503 391.781 1052.05 294.921C1056.02 292.795 1060.06 290.596 1064.1 288.41C754.201 372.274 599.955 277.888 454.014 188.509C407.622 160.096 362.062 132.202 312.592 110.725ZM319.912 110.798C318.376 110.777 316.838 110.767 315.3 110.751C364.006 132.134 408.97 159.67 454.745 187.704C601.092 277.333 755.776 372.031 1068.04 286.274C1072.3 283.969 1076.54 281.677 1080.84 279.329C786.6 352.841 626.87 267.012 475.055 185.392C424.054 157.973 373.945 131.036 319.912 110.798ZM327.225 110.922C325.812 110.899 324.401 110.871 322.988 110.849C376.097 131.003 425.482 157.542 475.724 184.554C627.956 266.397 788.163 352.47 1084.45 277.344C1088.81 274.955 1093.21 272.528 1097.62 270.094C819.024 333.563 654.568 256.148 497.477 182.191C441.411 155.797 386.279 129.852 327.225 110.922ZM334.498 111.07C333.26 111.041 332.023 111.008 330.784 110.983C388.723 129.844 442.951 155.37 498.084 181.326C655.605 255.484 820.535 333.135 1100.9 268.29C1105.48 265.758 1110.1 263.179 1114.74 260.586C851.673 314.453 683.285 245.321 521.591 178.898C459.89 153.552 399.156 128.611 334.498 111.07ZM341.73 111.245C340.74 111.218 339.746 111.198 338.756 111.172C402.028 128.672 461.616 153.143 522.136 178.004C684.27 244.608 853.139 313.939 1117.71 258.923C1122.45 256.276 1127.17 253.64 1131.95 250.953C884.472 295.62 713.248 234.521 547.807 175.497C479.771 151.224 412.713 127.303 341.73 111.245ZM348.995 111.464L346.944 111.4C416.179 127.455 481.771 150.847 548.295 174.58C714.198 233.77 885.941 295.023 1134.72 249.39C1139.56 246.66 1144.48 243.842 1149.4 241.041C917.656 276.956 744.806 223.749 576.686 171.967C501.466 148.798 427.188 125.921 348.995 111.464ZM356.155 111.7L355.596 111.678C431.531 126.196 503.879 148.473 577.117 171.029C745.71 222.957 919.063 276.318 1151.91 239.613C1156.93 236.752 1161.96 233.88 1167.03 230.964C951.315 258.625 778.451 213.014 609.014 168.288C525.474 146.238 442.764 124.406 356.155 111.7ZM741.227 156.208C628.7 138.541 515.351 120.748 398.852 113.755C497.605 123.278 593.453 141.351 689.364 159.442C855.824 190.837 1022.48 222.257 1204.83 209.015C1210.24 205.844 1215.63 202.702 1221.12 199.461C1058.38 205.997 900.628 181.235 741.227 156.208ZM334.727 110.071L336.658 110.118L335.964 109.963C335.273 109.924 334.582 109.882 333.89 109.846L334.727 110.071ZM327.482 109.922C328.46 109.941 329.441 109.952 330.419 109.972C329.952 109.848 329.488 109.719 329.021 109.596L326.005 109.448L327.482 109.922ZM320.218 109.799C321.453 109.816 322.685 109.841 323.918 109.861C323.259 109.653 322.598 109.453 321.938 109.248C320.735 109.193 319.528 109.149 318.323 109.097C318.956 109.331 319.588 109.562 320.218 109.799ZM312.93 109.725L317.117 109.764L314.917 108.956C313.53 108.899 312.144 108.837 310.753 108.786C311.478 109.099 312.205 109.41 312.93 109.725ZM305.593 109.672C307.133 109.678 308.673 109.687 310.212 109.699C309.428 109.363 308.648 109.022 307.862 108.69C306.347 108.639 304.832 108.586 303.316 108.539C304.077 108.914 304.834 109.293 305.593 109.672ZM298.228 109.658C299.888 109.658 301.546 109.663 303.204 109.667C302.377 109.258 301.545 108.857 300.715 108.452C299.106 108.406 297.494 108.367 295.884 108.326C296.664 108.77 297.448 109.211 298.228 109.658ZM290.842 109.684C292.577 109.675 294.313 109.658 296.047 109.653C295.235 109.193 294.426 108.724 293.611 108.268C291.9 108.223 290.188 108.178 288.472 108.144C289.265 108.654 290.053 109.168 290.842 109.684ZM283.396 109.735C285.224 109.716 287.049 109.706 288.875 109.697C288.053 109.162 287.226 108.638 286.399 108.11C284.631 108.078 282.863 108.047 281.094 108.021C281.863 108.59 282.63 109.162 283.396 109.735ZM275.951 109.839C277.828 109.811 279.705 109.784 281.581 109.761C280.785 109.168 279.992 108.575 279.191 107.99C277.359 107.966 275.523 107.953 273.688 107.936C274.444 108.568 275.201 109.2 275.951 109.839ZM268.437 109.976C270.375 109.935 272.313 109.896 274.249 109.863C273.481 109.211 272.706 108.567 271.933 107.922C270.051 107.905 268.169 107.888 266.284 107.883C267.005 108.575 267.72 109.277 268.437 109.976ZM260.899 110.143C262.884 110.092 264.864 110.052 266.847 110.011C266.112 109.299 265.373 108.589 264.631 107.883C262.705 107.882 260.779 107.881 258.851 107.887C259.535 108.638 260.219 109.388 260.899 110.143ZM253.326 110.37C255.345 110.306 257.364 110.243 259.381 110.186C258.687 109.418 257.995 108.65 257.297 107.887C255.333 107.897 253.363 107.916 251.396 107.933C252.042 108.742 252.686 109.552 253.326 110.37ZM245.7 110.627C247.764 110.551 249.826 110.48 251.887 110.414C251.235 109.584 250.576 108.766 249.916 107.948C247.92 107.965 245.923 107.984 243.923 108.014C244.52 108.879 245.109 109.756 245.7 110.627ZM238.045 110.924C240.135 110.837 242.222 110.758 244.31 110.681C243.707 109.797 243.105 108.915 242.496 108.04C240.466 108.073 238.436 108.11 236.401 108.153C236.953 109.074 237.501 109.995 238.045 110.924ZM230.345 111.279C232.458 111.178 234.574 111.071 236.685 110.977C236.135 110.041 235.584 109.107 235.028 108.178C232.971 108.224 230.911 108.284 228.853 108.34C229.354 109.315 229.852 110.293 230.345 111.279ZM222.589 111.667C224.739 111.552 226.889 111.445 229.036 111.342C228.536 110.345 228.027 109.362 227.517 108.376C225.436 108.434 223.355 108.494 221.269 108.564C221.714 109.593 222.151 110.629 222.589 111.667ZM-8 145.285C70.473 126.108 146.719 115.801 221.303 111.74C220.861 110.693 220.413 109.65 219.962 108.612C146.779 111.154 71.2617 120.535 -7.65101 139.821L-8 138.861C70.8876 119.582 146.376 110.185 219.526 107.623C219.077 106.595 218.63 105.568 218.173 104.551C146.445 105.562 71.6962 114.003 -7.6507 133.394L-8 132.434C71.3104 113.051 146.022 104.594 217.712 103.553C217.252 102.543 216.789 101.539 216.322 100.54C146.082 99.9925 72.1294 107.471 -7.65101 126.97L-8 126.01C71.7397 106.522 145.654 99.0176 215.855 99.5282C215.386 98.5338 214.904 97.553 214.426 96.5684C145.707 94.4311 72.5673 100.94 -7.6507 120.546L-8 119.585C72.1625 99.9951 145.256 93.4533 213.929 95.5405C213.456 94.5784 212.98 93.6235 212.499 92.6707C145.327 88.9083 73.0223 94.4048 -7.65101 114.12L-8 113.161C72.6 93.4622 144.849 87.9301 211.97 91.6283C211.49 90.6874 211.013 89.7453 210.525 88.8146C144.932 83.397 73.4822 87.8651 -7.6507 107.693L-8 106.734C73.0373 86.9289 144.422 82.4099 209.953 87.7476C209.468 86.833 208.983 85.9184 208.49 85.0149C144.511 77.9112 73.9445 81.328 -7.6504 101.269L-8 100.309C73.4822 80.3952 143.979 76.9185 207.895 83.9275C207.402 83.0363 206.9 82.1598 206.398 81.2788C144.072 72.4524 74.4124 74.7896 -7.65101 94.8458L-8 93.8858C73.9221 73.864 143.503 71.4479 205.762 80.152C205.266 79.2913 204.761 78.4433 204.256 77.5941C143.616 67.0111 74.8873 68.2466 -7.65101 88.4181L-8 87.4586C74.3615 67.3299 142.995 65.9998 203.561 76.43C203.068 75.6092 202.573 74.7879 202.07 73.9773C143.149 61.6012 75.3751 61.7031 -7.6507 81.9943L-8 81.0339C74.7954 60.8 142.459 60.5644 201.294 72.7465C200.806 71.9728 200.325 71.1928 199.83 70.4276C142.665 56.2168 75.8724 55.1571 -7.6507 75.5697L-8 74.6097C75.2412 54.2658 141.903 55.1706 198.977 69.1391C198.487 68.3943 197.99 67.6537 197.491 66.9177C142.132 50.8493 76.354 48.6144 -7.6507 69.1437L-8 68.1859C75.6702 47.7372 141.305 49.7799 196.574 65.5554C196.096 64.8636 195.604 64.1893 195.119 63.506C141.597 45.5265 76.8633 42.0633 -7.65101 62.7183L-8 61.7587C76.0795 41.2107 140.642 44.4205 194.065 62.021C193.606 61.3882 193.141 60.7618 192.675 60.1371C141.033 40.2163 77.3698 35.5152 -7.65101 56.2945L-8 55.334C76.4683 34.6914 139.919 39.0827 191.456 58.5205C191.036 57.9709 190.624 57.4115 190.199 56.8661C140.473 34.9473 77.905 28.9615 -7.6507 49.8698L-8 48.9098C76.8035 28.1844 139.107 33.7408 188.708 55.0128C188.344 54.5587 187.983 54.1011 187.615 53.653C139.853 29.7067 78.4268 22.4062 -7.6507 43.4431L-8 42.483C77.0824 21.6897 138.185 28.4157 185.811 51.503C185.516 51.1571 185.219 50.8124 184.923 50.4691C139.177 24.4802 78.9223 15.8601 -7.6507 37.0184L-8 36.0584C77.261 15.2222 137.096 23.0962 182.704 47.9473C182.546 47.7724 182.384 47.6001 182.225 47.427C138.528 19.308 79.4778 9.30009 -7.6507 30.5942L-8 29.6342C76.6151 8.95586 134.875 17.6031 178.316 43.6366C136.802 13.9647 79.2416 2.93358 -7.6507 24.1687L-8 23.21C74.8316 2.96667 131.151 11.8274 172.332 38.1541C133.093 8.17499 77.4626 -3.05775 -7.6507 17.7428L-8 16.7832C72.9858 -3.00766 127.412 5.99481 166.456 32.4739C129.365 2.33304 75.6184 -9.03256 -7.6507 11.3185L-8 10.3585C83.8682 -12.0938 140.028 3.72764 177.517 40.7315C179.667 42.5056 181.752 44.3525 183.804 46.239C186.039 47.9608 188.24 49.7243 190.381 51.556C192.679 53.2057 194.926 54.9194 197.138 56.6714C199.582 58.3002 201.992 59.9728 204.353 61.7027C206.843 63.2411 209.294 64.8284 211.71 66.4594C214.377 67.9767 217.004 69.5448 219.597 71.1563C222.306 72.5768 224.988 74.0325 227.633 75.5366C230.525 76.921 233.376 78.3606 236.205 79.8299C239.23 81.1519 242.232 82.5104 245.198 83.9122C248.25 85.1222 251.279 86.3662 254.28 87.6479C257.536 88.8086 260.761 90.0169 263.967 91.2485C267.404 92.3452 270.815 93.477 274.205 94.6429C277.755 95.6483 281.288 96.6796 284.798 97.7487C288.435 98.6548 292.058 99.583 295.661 100.546C299.46 101.366 303.244 102.208 307.012 103.083C310.963 103.809 314.902 104.559 318.825 105.335C322.942 105.966 327.05 106.617 331.144 107.297C335.286 107.811 339.416 108.351 343.538 108.906C347.998 109.335 352.448 109.789 356.89 110.261C361.426 110.578 365.956 110.915 370.48 111.272C497.074 116.861 619.746 136.115 741.457 155.223C901.385 180.334 1059.65 205.182 1222.94 198.385C1313.68 144.77 1413.45 82.457 1523.24 10.4477L1524 11.226C1414.81 82.8432 1315.53 144.857 1225.16 198.281C1227.1 198.198 1229.05 198.105 1231 198.011C1319.39 146.403 1416.46 86.3678 1523.24 16.8702L1524 17.6528C1417.84 86.7528 1321.27 146.489 1233.25 197.907C1235.2 197.809 1237.15 197.701 1239.1 197.596C1325.14 148.005 1419.51 90.2605 1523.24 23.2949L1524 24.0808C1420.91 90.6323 1327.06 148.073 1241.43 197.465C1243.36 197.355 1245.3 197.257 1247.24 197.138C1330.92 149.579 1422.57 94.1324 1523.25 29.7187L1524 30.505C1424 94.4863 1332.89 149.625 1249.64 196.98C1251.6 196.857 1253.56 196.724 1255.51 196.591C1336.79 151.089 1425.7 97.955 1523.25 36.142L1523.99 36.9327C1427.14 98.3055 1338.78 151.132 1257.95 196.43C1259.92 196.291 1261.89 196.142 1263.85 195.995C1342.71 152.568 1428.87 101.74 1523.25 42.5637L1523.99 43.3582C1430.36 102.07 1344.77 152.59 1266.4 195.8C1268.3 195.654 1270.21 195.516 1272.11 195.361C1348.6 153.995 1431.97 105.566 1523.25 48.9879L1523.99 49.7875C1433.47 105.891 1350.73 153.982 1274.75 195.132C1276.69 194.968 1278.64 194.798 1280.59 194.625C1354.63 155.364 1435.2 109.303 1523.25 55.4096L1523.99 56.213C1436.71 109.629 1356.79 155.347 1283.27 194.393C1285.22 194.214 1287.18 194.02 1289.13 193.831C1360.7 156.689 1438.46 113.012 1523.26 61.8321L1523.98 62.6393C1440 113.322 1362.94 156.639 1291.92 193.559C1293.86 193.367 1295.79 193.18 1297.72 192.98C1366.82 157.974 1441.74 116.696 1523.26 68.2568L1523.98 69.0678C1443.33 116.988 1369.16 157.885 1300.65 192.663C1302.58 192.458 1304.51 192.252 1306.44 192.037C1373.04 159.186 1445.08 120.337 1523.27 74.6789L1523.97 75.4946C1446.69 120.625 1375.42 159.085 1309.45 191.704C1311.38 191.484 1313.32 191.243 1315.25 191.013C1379.33 160.338 1448.47 123.942 1523.27 81.1031L1523.97 81.9218C1450.12 124.21 1381.82 160.198 1318.42 190.634C1320.29 190.406 1322.15 190.174 1324.01 189.937C1385.6 161.438 1451.82 127.552 1523.28 87.5222L1523.96 88.3494C1453.61 127.758 1388.31 161.247 1327.52 189.479C1329.3 189.247 1331.08 189.023 1332.87 188.781C1391.94 162.481 1455.22 131.121 1523.28 93.9456L1523.96 94.78C1457.1 131.298 1394.84 162.232 1336.65 188.256C1338.39 188.013 1340.14 187.763 1341.88 187.513C1398.41 163.436 1458.69 134.638 1523.29 100.367L1523.95 101.206C1460.64 134.796 1401.45 163.149 1345.89 186.944C1347.58 186.696 1349.27 186.426 1350.96 186.169C1404.93 164.336 1462.2 138.116 1523.3 106.786L1523.94 107.637C1464.29 138.223 1408.28 163.953 1355.43 185.483C1357 185.239 1358.57 184.995 1360.14 184.742C1411.52 165.176 1465.76 141.553 1523.31 113.209L1523.93 114.067C1468.05 141.591 1415.29 164.662 1365.23 183.903C1366.65 183.667 1368.07 183.438 1369.5 183.196C1418.25 165.924 1469.4 144.928 1523.32 119.627L1523.92 120.498C1471.96 144.881 1422.57 165.25 1375.42 182.168C1376.63 181.955 1377.85 181.739 1379.07 181.522C1425.14 166.571 1473.14 148.245 1523.33 126.047L1523.91 126.928C1476.12 148.062 1430.34 165.657 1386.3 180.209C1387.01 180.077 1387.72 179.938 1388.44 179.804C1431.91 167.178 1476.8 151.568 1523.35 132.465L1523.89 133.358C1481.18 150.886 1439.87 165.47 1399.76 177.519C1440.03 167.325 1481.18 154.595 1523.37 138.882L1523.87 139.795C1487.7 153.265 1452.29 164.544 1417.55 173.924C1452.48 166.37 1487.74 156.927 1523.4 145.299L1523.84 146.227C1481.46 160.052 1439.63 170.805 1398.25 178.953C1391.5 180.653 1384.76 182.293 1378.05 183.852C1370.89 185.859 1363.78 187.757 1356.7 189.61C1349.36 191.842 1342.06 194.005 1334.82 196.067C1327.12 198.576 1319.48 201.01 1311.92 203.323C1304.15 205.986 1296.48 208.523 1288.85 210.997C1281.08 213.775 1273.39 216.465 1265.76 219.061C1257.59 222.102 1249.5 225.055 1241.5 227.887C1233.02 231.146 1224.66 234.263 1216.37 237.294C1208.32 240.468 1200.35 243.543 1192.47 246.515C1184.43 249.763 1176.47 252.925 1168.61 255.974C1159.04 259.942 1149.65 263.717 1140.36 267.388C1132.03 270.884 1123.81 274.277 1115.69 277.554C1107.47 281.071 1099.34 284.483 1091.31 287.794C1081.77 291.946 1072.34 295.976 1063.06 299.853C1054.17 303.767 1045.4 307.562 1036.76 311.225C1027.79 315.229 1018.92 319.119 1010.2 322.865C1001.04 326.998 991.988 331.019 983.096 334.884C974.176 338.942 965.358 342.9 956.69 346.713C947.924 350.741 939.267 354.662 930.746 358.452C921.952 362.535 913.298 366.483 904.755 370.325C576.199 524.35 426.57 507.019 348.067 426.642C297.582 374.95 276.576 297.235 256.312 222.256C245.892 183.705 235.661 145.888 221.718 112.723C147.106 116.766 70.837 127.063 -7.65101 146.245L-8 145.285Z" fill="url(#paint0_linear_519_149)" fill-opacity="0.8"/>
<defs>
<linearGradient id="paint0_linear_519_149" x1="1006.75" y1="895.732" x2="375.465" y2="-184.302" gradientUnits="userSpaceOnUse">
<stop stop-color="white" stop-opacity="0.8"/>
<stop offset="0.692308" stop-color="#0231FF" stop-opacity="0.6"/>
<stop offset="1" stop-color="#FF6E00" stop-opacity="0.4"/>
</linearGradient>
</defs>
</svg>
