<svg width="1440" height="431" viewBox="0 0 1440 431" fill="none" xmlns="http://www.w3.org/2000/svg">
<g opacity="0.4" filter="url(#filter0_f_542_120)">
<path d="M389.5 285.579C287 353.079 118.5 291.579 0.5 218.079L-6 211.579C0.5 206.746 22.3 197.08 57.5 197.08C101.5 197.08 135.5 197.08 179.5 211.579C223.5 226.079 235 218.079 283 229.579C331 241.079 349.5 237.079 379.5 236.079C403.5 235.279 464.5 190.413 492 160.08C549.167 146.58 681.4 106.48 753 118.08C842.5 132.58 1010 218.079 1176 197.08C1342 176.08 1291.5 172.579 1419 159.58C1498.57 151.466 1522.86 158.649 1526.3 166.315C1531.63 162.719 1528.69 167.641 1525.53 171.875C1525.37 172.114 1525.19 172.349 1525 172.579C1525.18 172.348 1525.35 172.113 1525.53 171.875C1526.72 170.142 1527.15 168.214 1526.3 166.315C1524.61 167.453 1522.1 169.444 1518.5 172.579C1499 189.579 1315 242.579 1162 275.079C1009 307.579 811.5 166.079 644 172.579C476.5 179.079 492 218.079 389.5 285.579Z" fill="#0587FF"/>
</g>
<defs>
<filter id="filter0_f_542_120" x="-122" y="0" width="1767.24" height="430.662" filterUnits="userSpaceOnUse" color-interpolation-filters="sRGB">
<feFlood flood-opacity="0" result="BackgroundImageFix"/>
<feBlend mode="normal" in="SourceGraphic" in2="BackgroundImageFix" result="shape"/>
<feGaussianBlur stdDeviation="58" result="effect1_foregroundBlur_542_120"/>
</filter>
</defs>
</svg>
