<svg width="389" height="51" viewBox="0 0 389 51" fill="none" xmlns="http://www.w3.org/2000/svg">
<path d="M2.57949 44.3671C3.89894 44.3671 4.96855 42.911 4.96855 41.1148C4.96855 39.3186 3.89894 37.8625 2.57949 37.8625C1.26005 37.8625 0.19043 39.3186 0.19043 41.1148C0.19043 42.911 1.26005 44.3671 2.57949 44.3671Z" fill="#0C0D0D"/>
<path d="M2.57949 6.96576C3.89894 6.96576 4.96855 5.50966 4.96855 3.71347C4.96855 1.91728 3.89894 0.461182 2.57949 0.461182C1.26005 0.461182 0.19043 1.91728 0.19043 3.71347C0.19043 5.50966 1.26005 6.96576 2.57949 6.96576Z" fill="#0C0D0D"/>
<path d="M32.4428 44.3671C33.7622 44.3671 34.8318 42.911 34.8318 41.1148C34.8318 39.3186 33.7622 37.8625 32.4428 37.8625C31.1233 37.8625 30.0537 39.3186 30.0537 41.1148C30.0537 42.911 31.1233 44.3671 32.4428 44.3671Z" fill="#0C0D0D"/>
<path d="M32.4428 6.96576C33.7622 6.96576 34.8318 5.50966 34.8318 3.71347C34.8318 1.91728 33.7622 0.461182 32.4428 0.461182C31.1233 0.461182 30.0537 1.91728 30.0537 3.71347C30.0537 5.50966 31.1233 6.96576 32.4428 6.96576Z" fill="#0C0D0D"/>
<path d="M62.3061 44.3671C63.6255 44.3671 64.6951 42.911 64.6951 41.1148C64.6951 39.3186 63.6255 37.8625 62.3061 37.8625C60.9866 37.8625 59.917 39.3186 59.917 41.1148C59.917 42.911 60.9866 44.3671 62.3061 44.3671Z" fill="#0C0D0D"/>
<path d="M62.3061 6.96576C63.6255 6.96576 64.6951 5.50966 64.6951 3.71347C64.6951 1.91728 63.6255 0.461182 62.3061 0.461182C60.9866 0.461182 59.917 1.91728 59.917 3.71347C59.917 5.50966 60.9866 6.96576 62.3061 6.96576Z" fill="#0C0D0D"/>
<path d="M92.1693 44.3671C93.4888 44.3671 94.5584 42.911 94.5584 41.1148C94.5584 39.3186 93.4888 37.8625 92.1693 37.8625C90.8499 37.8625 89.7803 39.3186 89.7803 41.1148C89.7803 42.911 90.8499 44.3671 92.1693 44.3671Z" fill="#0C0D0D"/>
<path d="M92.1693 6.96576C93.4888 6.96576 94.5584 5.50966 94.5584 3.71347C94.5584 1.91728 93.4888 0.461182 92.1693 0.461182C90.8499 0.461182 89.7803 1.91728 89.7803 3.71347C89.7803 5.50966 90.8499 6.96576 92.1693 6.96576Z" fill="#0C0D0D"/>
<path d="M122.033 44.3671C123.352 44.3671 124.422 42.911 124.422 41.1148C124.422 39.3186 123.352 37.8625 122.033 37.8625C120.713 37.8625 119.644 39.3186 119.644 41.1148C119.644 42.911 120.713 44.3671 122.033 44.3671Z" fill="#0C0D0D"/>
<path d="M122.033 6.96576C123.352 6.96576 124.422 5.50966 124.422 3.71347C124.422 1.91728 123.352 0.461182 122.033 0.461182C120.713 0.461182 119.644 1.91728 119.644 3.71347C119.644 5.50966 120.713 6.96576 122.033 6.96576Z" fill="#0C0D0D"/>
<path d="M151.896 44.3671C153.215 44.3671 154.285 42.911 154.285 41.1148C154.285 39.3186 153.215 37.8625 151.896 37.8625C150.576 37.8625 149.507 39.3186 149.507 41.1148C149.507 42.911 150.576 44.3671 151.896 44.3671Z" fill="#0C0D0D"/>
<path d="M151.896 6.96576C153.215 6.96576 154.285 5.50966 154.285 3.71347C154.285 1.91728 153.215 0.461182 151.896 0.461182C150.576 0.461182 149.507 1.91728 149.507 3.71347C149.507 5.50966 150.576 6.96576 151.896 6.96576Z" fill="#0C0D0D"/>
<path d="M181.759 44.3671C183.079 44.3671 184.148 42.911 184.148 41.1148C184.148 39.3186 183.079 37.8625 181.759 37.8625C180.44 37.8625 179.37 39.3186 179.37 41.1148C179.37 42.911 180.44 44.3671 181.759 44.3671Z" fill="#0C0D0D"/>
<path d="M181.759 6.96576C183.079 6.96576 184.148 5.50966 184.148 3.71347C184.148 1.91728 183.079 0.461182 181.759 0.461182C180.44 0.461182 179.37 1.91728 179.37 3.71347C179.37 5.50966 180.44 6.96576 181.759 6.96576Z" fill="#0C0D0D"/>
<path d="M211.622 44.3671C212.942 44.3671 214.012 42.911 214.012 41.1148C214.012 39.3186 212.942 37.8625 211.622 37.8625C210.303 37.8625 209.233 39.3186 209.233 41.1148C209.233 42.911 210.303 44.3671 211.622 44.3671Z" fill="#0C0D0D"/>
<path d="M211.622 6.96576C212.942 6.96576 214.012 5.50966 214.012 3.71347C214.012 1.91728 212.942 0.461182 211.622 0.461182C210.303 0.461182 209.233 1.91728 209.233 3.71347C209.233 5.50966 210.303 6.96576 211.622 6.96576Z" fill="#0C0D0D"/>
<path d="M241.486 44.3671C242.805 44.3671 243.875 42.911 243.875 41.1148C243.875 39.3186 242.805 37.8625 241.486 37.8625C240.166 37.8625 239.097 39.3186 239.097 41.1148C239.097 42.911 240.166 44.3671 241.486 44.3671Z" fill="#0C0D0D"/>
<path d="M241.486 6.96576C242.805 6.96576 243.875 5.50966 243.875 3.71347C243.875 1.91728 242.805 0.461182 241.486 0.461182C240.166 0.461182 239.097 1.91728 239.097 3.71347C239.097 5.50966 240.166 6.96576 241.486 6.96576Z" fill="#0C0D0D"/>
<path d="M271.349 44.3671C272.668 44.3671 273.738 42.911 273.738 41.1148C273.738 39.3186 272.668 37.8625 271.349 37.8625C270.03 37.8625 268.96 39.3186 268.96 41.1148C268.96 42.911 270.03 44.3671 271.349 44.3671Z" fill="#0C0D0D"/>
<path d="M271.349 6.96576C272.668 6.96576 273.738 5.50966 273.738 3.71347C273.738 1.91728 272.668 0.461182 271.349 0.461182C270.03 0.461182 268.96 1.91728 268.96 3.71347C268.96 5.50966 270.03 6.96576 271.349 6.96576Z" fill="#0C0D0D"/>
<path d="M301.212 44.3671C302.532 44.3671 303.601 42.911 303.601 41.1148C303.601 39.3186 302.532 37.8625 301.212 37.8625C299.893 37.8625 298.823 39.3186 298.823 41.1148C298.823 42.911 299.893 44.3671 301.212 44.3671Z" fill="#0C0D0D"/>
<path d="M301.212 6.96576C302.532 6.96576 303.601 5.50966 303.601 3.71347C303.601 1.91728 302.532 0.461182 301.212 0.461182C299.893 0.461182 298.823 1.91728 298.823 3.71347C298.823 5.50966 299.893 6.96576 301.212 6.96576Z" fill="#0C0D0D"/>
<path d="M331.076 44.3671C332.395 44.3671 333.465 42.911 333.465 41.1148C333.465 39.3186 332.395 37.8625 331.076 37.8625C329.756 37.8625 328.687 39.3186 328.687 41.1148C328.687 42.911 329.756 44.3671 331.076 44.3671Z" fill="#0C0D0D"/>
<path d="M331.076 6.96576C332.395 6.96576 333.465 5.50966 333.465 3.71347C333.465 1.91728 332.395 0.461182 331.076 0.461182C329.756 0.461182 328.687 1.91728 328.687 3.71347C328.687 5.50966 329.756 6.96576 331.076 6.96576Z" fill="#0C0D0D"/>
<path d="M360.939 44.3671C362.258 44.3671 363.328 42.911 363.328 41.1148C363.328 39.3186 362.258 37.8625 360.939 37.8625C359.619 37.8625 358.55 39.3186 358.55 41.1148C358.55 42.911 359.619 44.3671 360.939 44.3671Z" fill="#0C0D0D"/>
<path d="M360.939 6.96576C362.258 6.96576 363.328 5.50966 363.328 3.71347C363.328 1.91728 362.258 0.461182 360.939 0.461182C359.619 0.461182 358.55 1.91728 358.55 3.71347C358.55 5.50966 359.619 6.96576 360.939 6.96576Z" fill="#0C0D0D"/>
<path d="M390.802 44.3671C392.122 44.3671 393.191 42.911 393.191 41.1148C393.191 39.3186 392.122 37.8625 390.802 37.8625C389.483 37.8625 388.413 39.3186 388.413 41.1148C388.413 42.911 389.483 44.3671 390.802 44.3671Z" fill="#0C0D0D"/>
<path d="M390.802 6.96576C392.122 6.96576 393.191 5.50966 393.191 3.71347C393.191 1.91728 392.122 0.461182 390.802 0.461182C389.483 0.461182 388.413 1.91728 388.413 3.71347C388.413 5.50966 389.483 6.96576 390.802 6.96576Z" fill="#0C0D0D"/>
</svg>
