<svg width="416" height="62" viewBox="0 0 416 62" fill="none" xmlns="http://www.w3.org/2000/svg">
<path d="M2.55605 61.2858C3.8755 61.2858 4.94512 60.3005 4.94512 59.085C4.94512 57.8696 3.8755 56.8843 2.55605 56.8843C1.23661 56.8843 0.166992 57.8696 0.166992 59.085C0.166992 60.3005 1.23661 61.2858 2.55605 61.2858Z" fill="#3200E8"/>
<path d="M2.55605 35.9772C3.8755 35.9772 4.94512 34.9919 4.94512 33.7764C4.94512 32.561 3.8755 31.5757 2.55605 31.5757C1.23661 31.5757 0.166992 32.561 0.166992 33.7764C0.166992 34.9919 1.23661 35.9772 2.55605 35.9772Z" fill="#3200E8"/>
<path d="M2.55605 10.6686C3.8755 10.6686 4.94512 9.68329 4.94512 8.46784C4.94512 7.2524 3.8755 6.26709 2.55605 6.26709C1.23661 6.26709 0.166992 7.2524 0.166992 8.46784C0.166992 9.68329 1.23661 10.6686 2.55605 10.6686Z" fill="#3200E8"/>
<path d="M32.4193 61.2858C33.7388 61.2858 34.8084 60.3005 34.8084 59.085C34.8084 57.8696 33.7388 56.8843 32.4193 56.8843C31.0999 56.8843 30.0303 57.8696 30.0303 59.085C30.0303 60.3005 31.0999 61.2858 32.4193 61.2858Z" fill="#3200E8"/>
<path d="M32.4193 35.9772C33.7388 35.9772 34.8084 34.9919 34.8084 33.7764C34.8084 32.561 33.7388 31.5757 32.4193 31.5757C31.0999 31.5757 30.0303 32.561 30.0303 33.7764C30.0303 34.9919 31.0999 35.9772 32.4193 35.9772Z" fill="#3200E8"/>
<path d="M32.4193 10.6686C33.7388 10.6686 34.8084 9.68329 34.8084 8.46784C34.8084 7.2524 33.7388 6.26709 32.4193 6.26709C31.0999 6.26709 30.0303 7.2524 30.0303 8.46784C30.0303 9.68329 31.0999 10.6686 32.4193 10.6686Z" fill="#3200E8"/>
<path d="M62.2826 61.2858C63.6021 61.2858 64.6717 60.3005 64.6717 59.085C64.6717 57.8696 63.6021 56.8843 62.2826 56.8843C60.9632 56.8843 59.8936 57.8696 59.8936 59.085C59.8936 60.3005 60.9632 61.2858 62.2826 61.2858Z" fill="#3200E8"/>
<path d="M62.2826 35.9772C63.6021 35.9772 64.6717 34.9919 64.6717 33.7764C64.6717 32.561 63.6021 31.5757 62.2826 31.5757C60.9632 31.5757 59.8936 32.561 59.8936 33.7764C59.8936 34.9919 60.9632 35.9772 62.2826 35.9772Z" fill="#3200E8"/>
<path d="M62.2826 10.6686C63.6021 10.6686 64.6717 9.68329 64.6717 8.46784C64.6717 7.2524 63.6021 6.26709 62.2826 6.26709C60.9632 6.26709 59.8936 7.2524 59.8936 8.46784C59.8936 9.68329 60.9632 10.6686 62.2826 10.6686Z" fill="#3200E8"/>
<path d="M92.1459 61.2858C93.4653 61.2858 94.535 60.3005 94.535 59.085C94.535 57.8696 93.4653 56.8843 92.1459 56.8843C90.8265 56.8843 89.7568 57.8696 89.7568 59.085C89.7568 60.3005 90.8265 61.2858 92.1459 61.2858Z" fill="#3200E8"/>
<path d="M92.1459 35.9772C93.4653 35.9772 94.535 34.9919 94.535 33.7764C94.535 32.561 93.4653 31.5757 92.1459 31.5757C90.8265 31.5757 89.7568 32.561 89.7568 33.7764C89.7568 34.9919 90.8265 35.9772 92.1459 35.9772Z" fill="#3200E8"/>
<path d="M92.1459 10.6686C93.4653 10.6686 94.535 9.68329 94.535 8.46784C94.535 7.2524 93.4653 6.26709 92.1459 6.26709C90.8265 6.26709 89.7568 7.2524 89.7568 8.46784C89.7568 9.68329 90.8265 10.6686 92.1459 10.6686Z" fill="#3200E8"/>
<path d="M122.009 61.2858C123.329 61.2858 124.398 60.3005 124.398 59.085C124.398 57.8696 123.329 56.8843 122.009 56.8843C120.69 56.8843 119.62 57.8696 119.62 59.085C119.62 60.3005 120.69 61.2858 122.009 61.2858Z" fill="#3200E8"/>
<path d="M122.009 35.9772C123.329 35.9772 124.398 34.9919 124.398 33.7764C124.398 32.561 123.329 31.5757 122.009 31.5757C120.69 31.5757 119.62 32.561 119.62 33.7764C119.62 34.9919 120.69 35.9772 122.009 35.9772Z" fill="#3200E8"/>
<path d="M122.009 10.6686C123.329 10.6686 124.398 9.68329 124.398 8.46784C124.398 7.2524 123.329 6.26709 122.009 6.26709C120.69 6.26709 119.62 7.2524 119.62 8.46784C119.62 9.68329 120.69 10.6686 122.009 10.6686Z" fill="#3200E8"/>
<path d="M151.872 61.2858C153.192 61.2858 154.262 60.3005 154.262 59.085C154.262 57.8696 153.192 56.8843 151.872 56.8843C150.553 56.8843 149.483 57.8696 149.483 59.085C149.483 60.3005 150.553 61.2858 151.872 61.2858Z" fill="#3200E8"/>
<path d="M151.872 35.9772C153.192 35.9772 154.262 34.9919 154.262 33.7764C154.262 32.561 153.192 31.5757 151.872 31.5757C150.553 31.5757 149.483 32.561 149.483 33.7764C149.483 34.9919 150.553 35.9772 151.872 35.9772Z" fill="#3200E8"/>
<path d="M151.872 10.6686C153.192 10.6686 154.262 9.68329 154.262 8.46784C154.262 7.2524 153.192 6.26709 151.872 6.26709C150.553 6.26709 149.483 7.2524 149.483 8.46784C149.483 9.68329 150.553 10.6686 151.872 10.6686Z" fill="#3200E8"/>
<path d="M181.736 61.2858C183.055 61.2858 184.125 60.3005 184.125 59.085C184.125 57.8696 183.055 56.8843 181.736 56.8843C180.416 56.8843 179.347 57.8696 179.347 59.085C179.347 60.3005 180.416 61.2858 181.736 61.2858Z" fill="#3200E8"/>
<path d="M181.736 35.9772C183.055 35.9772 184.125 34.9919 184.125 33.7764C184.125 32.561 183.055 31.5757 181.736 31.5757C180.416 31.5757 179.347 32.561 179.347 33.7764C179.347 34.9919 180.416 35.9772 181.736 35.9772Z" fill="#3200E8"/>
<path d="M181.736 10.6686C183.055 10.6686 184.125 9.68329 184.125 8.46784C184.125 7.2524 183.055 6.26709 181.736 6.26709C180.416 6.26709 179.347 7.2524 179.347 8.46784C179.347 9.68329 180.416 10.6686 181.736 10.6686Z" fill="#3200E8"/>
<path d="M211.599 61.2858C212.918 61.2858 213.988 60.3005 213.988 59.085C213.988 57.8696 212.918 56.8843 211.599 56.8843C210.28 56.8843 209.21 57.8696 209.21 59.085C209.21 60.3005 210.28 61.2858 211.599 61.2858Z" fill="#3200E8"/>
<path d="M211.599 35.9772C212.918 35.9772 213.988 34.9919 213.988 33.7764C213.988 32.561 212.918 31.5757 211.599 31.5757C210.28 31.5757 209.21 32.561 209.21 33.7764C209.21 34.9919 210.28 35.9772 211.599 35.9772Z" fill="#3200E8"/>
<path d="M211.599 10.6686C212.918 10.6686 213.988 9.68329 213.988 8.46784C213.988 7.2524 212.918 6.26709 211.599 6.26709C210.28 6.26709 209.21 7.2524 209.21 8.46784C209.21 9.68329 210.28 10.6686 211.599 10.6686Z" fill="#3200E8"/>
<path d="M241.462 61.2858C242.782 61.2858 243.851 60.3005 243.851 59.085C243.851 57.8696 242.782 56.8843 241.462 56.8843C240.143 56.8843 239.073 57.8696 239.073 59.085C239.073 60.3005 240.143 61.2858 241.462 61.2858Z" fill="#3200E8"/>
<path d="M241.462 35.9772C242.782 35.9772 243.851 34.9919 243.851 33.7764C243.851 32.561 242.782 31.5757 241.462 31.5757C240.143 31.5757 239.073 32.561 239.073 33.7764C239.073 34.9919 240.143 35.9772 241.462 35.9772Z" fill="#3200E8"/>
<path d="M241.462 10.6686C242.782 10.6686 243.851 9.68329 243.851 8.46784C243.851 7.2524 242.782 6.26709 241.462 6.26709C240.143 6.26709 239.073 7.2524 239.073 8.46784C239.073 9.68329 240.143 10.6686 241.462 10.6686Z" fill="#3200E8"/>
<path d="M271.326 61.2858C272.645 61.2858 273.715 60.3005 273.715 59.085C273.715 57.8696 272.645 56.8843 271.326 56.8843C270.006 56.8843 268.937 57.8696 268.937 59.085C268.937 60.3005 270.006 61.2858 271.326 61.2858Z" fill="#3200E8"/>
<path d="M271.326 35.9772C272.645 35.9772 273.715 34.9919 273.715 33.7764C273.715 32.561 272.645 31.5757 271.326 31.5757C270.006 31.5757 268.937 32.561 268.937 33.7764C268.937 34.9919 270.006 35.9772 271.326 35.9772Z" fill="#3200E8"/>
<path d="M271.326 10.6686C272.645 10.6686 273.715 9.68329 273.715 8.46784C273.715 7.2524 272.645 6.26709 271.326 6.26709C270.006 6.26709 268.937 7.2524 268.937 8.46784C268.937 9.68329 270.006 10.6686 271.326 10.6686Z" fill="#3200E8"/>
<path d="M301.189 61.2858C302.508 61.2858 303.578 60.3005 303.578 59.085C303.578 57.8696 302.508 56.8843 301.189 56.8843C299.869 56.8843 298.8 57.8696 298.8 59.085C298.8 60.3005 299.869 61.2858 301.189 61.2858Z" fill="#3200E8"/>
<path d="M301.189 35.9772C302.508 35.9772 303.578 34.9919 303.578 33.7764C303.578 32.561 302.508 31.5757 301.189 31.5757C299.869 31.5757 298.8 32.561 298.8 33.7764C298.8 34.9919 299.869 35.9772 301.189 35.9772Z" fill="#3200E8"/>
<path d="M301.189 10.6686C302.508 10.6686 303.578 9.68329 303.578 8.46784C303.578 7.2524 302.508 6.26709 301.189 6.26709C299.869 6.26709 298.8 7.2524 298.8 8.46784C298.8 9.68329 299.869 10.6686 301.189 10.6686Z" fill="#3200E8"/>
<path d="M331.052 61.2858C332.372 61.2858 333.441 60.3005 333.441 59.085C333.441 57.8696 332.372 56.8843 331.052 56.8843C329.733 56.8843 328.663 57.8696 328.663 59.085C328.663 60.3005 329.733 61.2858 331.052 61.2858Z" fill="#3200E8"/>
<path d="M331.052 35.9772C332.372 35.9772 333.441 34.9919 333.441 33.7764C333.441 32.561 332.372 31.5757 331.052 31.5757C329.733 31.5757 328.663 32.561 328.663 33.7764C328.663 34.9919 329.733 35.9772 331.052 35.9772Z" fill="#3200E8"/>
<path d="M331.052 10.6686C332.372 10.6686 333.441 9.68329 333.441 8.46784C333.441 7.2524 332.372 6.26709 331.052 6.26709C329.733 6.26709 328.663 7.2524 328.663 8.46784C328.663 9.68329 329.733 10.6686 331.052 10.6686Z" fill="#3200E8"/>
<path d="M360.915 61.2858C362.235 61.2858 363.304 60.3005 363.304 59.085C363.304 57.8696 362.235 56.8843 360.915 56.8843C359.596 56.8843 358.526 57.8696 358.526 59.085C358.526 60.3005 359.596 61.2858 360.915 61.2858Z" fill="#3200E8"/>
<path d="M360.915 35.9772C362.235 35.9772 363.304 34.9919 363.304 33.7764C363.304 32.561 362.235 31.5757 360.915 31.5757C359.596 31.5757 358.526 32.561 358.526 33.7764C358.526 34.9919 359.596 35.9772 360.915 35.9772Z" fill="#3200E8"/>
<path d="M360.915 10.6686C362.235 10.6686 363.304 9.68329 363.304 8.46784C363.304 7.2524 362.235 6.26709 360.915 6.26709C359.596 6.26709 358.526 7.2524 358.526 8.46784C358.526 9.68329 359.596 10.6686 360.915 10.6686Z" fill="#3200E8"/>
<path d="M390.779 61.2858C392.098 61.2858 393.168 60.3005 393.168 59.085C393.168 57.8696 392.098 56.8843 390.779 56.8843C389.459 56.8843 388.39 57.8696 388.39 59.085C388.39 60.3005 389.459 61.2858 390.779 61.2858Z" fill="#3200E8"/>
<path d="M390.779 35.9772C392.098 35.9772 393.168 34.9919 393.168 33.7764C393.168 32.561 392.098 31.5757 390.779 31.5757C389.459 31.5757 388.39 32.561 388.39 33.7764C388.39 34.9919 389.459 35.9772 390.779 35.9772Z" fill="#3200E8"/>
<path d="M390.779 10.6686C392.098 10.6686 393.168 9.68329 393.168 8.46784C393.168 7.2524 392.098 6.26709 390.779 6.26709C389.459 6.26709 388.39 7.2524 388.39 8.46784C388.39 9.68329 389.459 10.6686 390.779 10.6686Z" fill="#3200E8"/>
</svg>
