<svg width="1440" height="256" viewBox="0 0 1440 256" fill="none" xmlns="http://www.w3.org/2000/svg">
<g opacity="0.3">
<path d="M-42.9111 331.107C18.6179 330.936 85.103 334.265 145.676 325.458C244.421 311.11 337.209 277.323 435.131 260.115C470.857 253.818 504.916 249.797 539.42 261.806C567.668 271.638 591.048 288.684 613.262 305.452C652.355 334.948 694.537 374.87 751.721 378.315C788.814 380.528 826.174 364.013 857.844 350.357C893.593 334.93 927.852 317.371 963.6 301.926C995.826 287.992 1034.72 270.568 1072.6 274.121C1105.55 277.215 1134.37 294.981 1158.57 312.01C1205.61 345.104 1257.08 400.885 1326.96 395.263C1409.39 388.633 1473.79 336.468 1557.27 331.143" stroke="url(#paint0_linear_672_553)" stroke-opacity="0.4" stroke-miterlimit="10"/>
<path d="M-42.8887 320.133C17.7736 319.989 83.8475 323.38 143.532 314.645C243.11 300.073 336.153 264.514 434.831 246.837C470.068 240.541 504.761 236.439 538.776 248.529C567.256 258.648 590.315 276.612 612.117 294.091C650.588 324.981 691.526 366.504 749.91 369.851C787.825 372.028 825.285 355.341 857.4 341.065C893.904 324.873 928.796 306.414 965.289 290.205C997.926 275.704 1036.99 258.001 1075.65 261.527C1108.98 264.568 1137.32 282.657 1161.21 300.414C1207.88 335.092 1256.9 392.285 1328.42 386.717C1411.06 380.285 1473.51 324.909 1557.33 320.151" stroke="url(#paint1_linear_672_553)" stroke-opacity="0.4" stroke-miterlimit="10"/>
<path d="M-42.8779 309.338C17.5621 309.032 83.4249 312.846 142.854 303.941C241.754 289.089 333.608 252.469 431.508 234.379C466.645 227.893 501.316 224.007 535.308 235.953C564.2 246.127 587.714 264.307 609.839 282.001C649.021 313.341 690.392 355.395 749.543 359.317C787.725 361.845 824.963 345.365 857.222 330.864C893.781 314.42 928.607 295.602 965.156 279.149C997.948 264.379 1036.81 246.918 1075.76 250.696C1109.32 253.953 1137.49 272.079 1161.42 290.034C1208.28 325.197 1256.37 381.635 1328.45 376.39C1411.33 370.381 1473.13 313.494 1557.3 309.338" stroke="url(#paint2_linear_672_553)" stroke-opacity="0.4" stroke-miterlimit="10"/>
<path d="M-42.8672 298.786C17.8284 298.229 83.4912 303.041 143.131 293.515C240.275 277.998 330.063 240.774 426.174 222.046C461.733 215.11 495.492 211.503 529.974 223.53C559.388 233.776 583.736 251.767 606.671 269.308C647.154 300.307 690.269 342.783 749.42 348.136C787.369 351.572 824.74 335.047 856.721 320.555C892.836 304.193 927.14 285.356 963.244 268.975C995.97 254.124 1034.83 236.798 1073.72 241.287C1107.18 245.146 1135.76 263.533 1160.03 281.29C1207.14 315.743 1256.61 371.119 1327.83 366.028C1410.9 360.081 1472.91 302.87 1557.28 298.786" stroke="url(#paint3_linear_672_553)" stroke-opacity="0.4" stroke-miterlimit="10"/>
<path d="M-42.8447 288.415C18.1954 287.749 83.6804 293.902 143.687 283.818C238.853 267.824 326.296 230.115 420.384 210.955C456.244 203.632 489.214 200.367 524.085 212.241C553.955 222.415 579.28 239.938 603.071 257.344C644.909 287.929 690.014 330.253 749.109 336.9C786.714 341.137 823.795 324.954 855.488 310.525C890.992 294.334 924.573 275.614 960.055 259.431C992.681 244.553 1031.17 227.722 1069.89 232.85C1103.38 237.293 1132.47 255.761 1157.29 273.329C1205.02 307.062 1256.11 361.053 1326.78 356.034C1410.23 350.115 1472.58 292.535 1557.31 288.469" stroke="url(#paint4_linear_672_553)" stroke-opacity="0.4" stroke-miterlimit="10"/>
<path d="M-42.8223 278.241C18.6401 277.602 84.0918 285.383 144.521 274.786C237.509 258.496 322.407 220.4 414.284 200.907C450.288 193.269 482.636 190.4 517.795 201.932C548.199 211.899 574.468 228.919 599.182 246.01C642.765 276.046 689.448 317.758 748.71 325.629C785.869 330.558 822.296 315.077 853.677 300.747C888.403 284.879 921.129 266.322 955.833 250.436C988.336 235.548 1026.08 219.554 1064.57 225.248C1098.22 230.241 1127.91 248.637 1153.47 265.962C1202.15 298.948 1255.07 351.284 1325.36 346.292C1409.32 340.328 1472.15 282.361 1557.39 278.268" stroke="url(#paint5_linear_672_553)" stroke-opacity="0.4" stroke-miterlimit="10"/>
<path d="M-42.8115 268.265C19.1509 267.761 84.5804 277.413 145.554 266.358C236.208 249.923 318.406 211.485 407.916 191.884C443.898 183.986 475.801 181.53 511.139 192.559C542.087 202.22 569.279 218.646 595.004 235.215C640.564 264.568 688.67 305.281 748.154 314.286C819.94 325.161 892.481 268.562 950.654 241.881C983.035 227.02 1019.76 212.133 1057.91 218.367C1091.83 223.917 1122.14 242.133 1148.58 259.197C1198.49 291.41 1253.39 341.875 1323.51 336.855C1408.08 330.81 1471.51 272.421 1557.37 268.265" stroke="url(#paint6_linear_672_553)" stroke-opacity="0.4" stroke-miterlimit="10"/>
<path d="M-42.7891 258.496C19.7179 258.217 85.1584 269.938 146.765 258.496C234.986 242.052 314.351 203.434 401.371 183.77C437.231 175.674 468.823 173.659 504.26 184.049C535.775 193.305 563.911 209.002 590.648 225.05C638.186 253.566 687.725 292.921 747.51 303.041C818.206 314.987 887.625 260.025 944.72 233.776C976.29 219.284 1013.09 204.676 1050.2 212.142C1084.65 219.068 1114.99 235.863 1142.93 252.954C1194.28 284.349 1251.29 332.771 1321.41 327.698C1406.7 321.536 1470.81 262.705 1557.39 258.433" stroke="url(#paint7_linear_672_553)" stroke-opacity="0.4" stroke-miterlimit="10"/>
<path d="M-42.7666 248.916C20.3293 248.916 85.8365 262.886 148.132 251.021C233.842 234.694 310.295 195.914 394.748 176.358C541.431 142.364 617.951 267.86 746.799 291.878C816.251 304.84 882.158 251.857 938.22 226.139C969.645 211.746 1005.03 198.64 1041.66 206.529C1076.55 214.04 1107.61 230.466 1136.66 247.233C1189.61 277.818 1248.83 324.037 1319.1 318.882C1405.18 312.586 1470.05 253.296 1557.42 248.916" stroke="url(#paint8_linear_672_553)" stroke-opacity="0.4" stroke-miterlimit="10"/>
<path d="M-42.7441 239.542C20.9629 239.92 86.5813 256.184 149.622 243.968C232.775 227.857 306.306 188.988 388.126 169.602C531.775 135.581 619.262 255.059 746.032 280.795C814.284 294.667 876.235 244.031 931.275 218.808C962.567 204.469 996.404 193.09 1032.52 201.338C1067.87 209.434 1099.72 225.446 1129.94 241.863C1184.59 271.548 1246.06 315.545 1316.63 310.274C1403.56 303.788 1469.23 244.067 1557.45 239.542" stroke="url(#paint9_linear_672_553)" stroke-opacity="0.4" stroke-miterlimit="10"/>
<path d="M-42.7227 230.367C21.6178 231.131 87.3695 249.77 151.199 237.248C231.808 221.434 302.327 182.52 381.613 163.395C522.218 129.473 620.528 242.421 745.242 269.875C812.272 284.627 870.012 236.484 924.084 211.755C955.265 197.497 987.425 187.944 1022.98 196.463C1058.82 205.089 1091.49 220.751 1122.92 236.763C1179.32 265.548 1243.06 307.251 1313.98 301.863C1401.77 295.179 1468.31 235.008 1557.41 230.331" stroke="url(#paint10_linear_672_553)" stroke-opacity="0.4" stroke-miterlimit="10"/>
<path d="M-42.7002 221.389C22.2626 222.55 88.2032 243.572 152.877 230.789C230.997 215.335 298.604 176.403 375.335 157.602C512.95 123.878 621.773 230.043 744.443 259.143C810.261 274.759 863.667 229.179 916.817 204.927C947.865 190.76 978.457 183.086 1013.43 191.911C1049.77 201.086 1083.29 216.352 1115.89 231.968C1174.07 259.854 1240.05 299.254 1311.42 293.731C1400.13 286.858 1467.49 226.265 1557.48 221.389" stroke="url(#paint11_linear_672_553)" stroke-opacity="0.4" stroke-miterlimit="10"/>
<path d="M-42.6777 212.619C22.8851 214.166 89.0479 237.518 154.466 224.52C230.186 209.47 294.937 170.547 369.223 152.115C504.116 118.652 623.029 217.908 743.709 248.637C808.327 265.098 857.388 222.082 909.672 198.262C940.587 184.184 969.679 178.391 1003.98 187.467C1040.82 197.2 1075.19 212.115 1108.96 227.299C1168.85 254.232 1237.03 291.41 1308.88 285.77C1398.48 278.708 1466.68 217.62 1557.54 212.637" stroke="url(#paint12_linear_672_553)" stroke-opacity="0.4" stroke-miterlimit="10"/>
<path d="M-42.6553 204.037C23.5632 205.953 89.8816 231.545 156.1 218.367C229.541 203.749 291.559 164.853 363.534 146.817C495.838 113.659 624.263 206.025 742.92 238.382C806.461 255.707 851.132 215.074 902.694 191.731C933.508 177.788 961.078 173.74 994.804 183.077C1032.12 193.368 1067.32 207.986 1102.19 222.73C1163.72 248.735 1234.01 283.728 1306.36 277.944C1396.8 270.702 1465.8 209.173 1557.5 204.037" stroke="url(#paint13_linear_672_553)" stroke-opacity="0.4" stroke-miterlimit="10"/>
<path d="M-42.6328 195.662C24.2079 197.893 90.7153 225.59 157.678 212.277C229.019 198.1 288.471 159.204 358.289 141.59C426.019 124.499 498.072 143.794 561.334 164.412C622.341 184.301 680.336 210.388 742.254 228.424C804.994 246.703 845.01 207.986 896.182 185.245C964.134 155.066 1033.73 193.341 1095.93 218.16C1158.94 243.275 1231.21 276.181 1304.04 270.271C1395.28 262.876 1465.03 200.916 1557.54 195.653" stroke="url(#paint14_linear_672_553)" stroke-opacity="0.4" stroke-miterlimit="10"/>
<path d="M-42.6113 187.476C24.8517 189.968 91.3701 219.581 159.189 206.169C228.63 192.424 285.714 153.554 353.655 136.328C420.762 119.291 494.715 137.794 558.277 156.676C620.518 175.17 679.757 199.593 741.664 218.807C803.571 238.022 839.731 201.203 890.247 178.787C956.655 149.326 1029.15 190.481 1090.27 213.554C1154.61 237.842 1228.71 268.75 1301.94 262.759C1393.89 255.23 1464.33 192.856 1557.52 187.476" stroke="url(#paint15_linear_672_553)" stroke-opacity="0.4" stroke-miterlimit="10"/>
<path d="M-42.5889 179.497C25.5076 182.196 91.9705 213.464 160.578 199.971C228.363 186.649 283.347 147.797 349.488 130.904C416.084 113.947 491.726 131.695 555.577 149.012C618.918 166.202 679.347 189.158 741.153 209.551C770.312 219.167 791.681 219.563 819.873 207.158C842.787 197.074 862.167 182.43 885.047 172.274C915.573 158.709 939.887 159.086 971.857 169.17C1010.27 181.305 1047.7 195.257 1085.39 208.813C1150.81 232.274 1226.52 261.383 1300.08 255.338C1392.67 247.728 1463.7 184.939 1557.55 179.497" stroke="url(#paint16_linear_672_553)" stroke-opacity="0.4" stroke-miterlimit="10"/>
<path d="M-42.5664 171.707C26.1634 174.406 92.4263 207.167 161.834 193.629C228.275 180.667 281.381 141.671 346.188 125.21C412.439 108.379 489.47 125.39 553.577 141.401C617.684 157.413 679.236 179.183 740.842 200.772C769.312 210.748 790.126 212.16 818.073 199.818C840.231 190.031 858.722 175.584 880.825 165.725C911.183 152.178 935.119 153.617 966.534 164.034C1005.14 176.835 1043.14 190.76 1081.55 203.938C1147.79 226.661 1224.97 254.151 1298.65 248.088C1391.75 240.433 1463.26 177.266 1557.57 171.788" stroke="url(#paint17_linear_672_553)" stroke-opacity="0.4" stroke-miterlimit="10"/>
<path d="M-42.5449 164.133C26.8294 166.76 92.7145 200.655 162.9 187.08C228.352 174.406 279.802 135.114 343.709 119.138C409.872 102.577 487.736 118.814 552.243 133.683C617.272 148.661 679.357 169.521 740.708 192.298C768.6 202.643 789.18 204.82 816.917 192.478C838.475 182.898 856.221 168.541 877.712 158.871C907.927 145.278 931.841 147.482 962.777 158.295C1001.44 171.788 1039.89 185.749 1078.88 198.649C1145.55 220.715 1224.03 246.783 1297.65 240.765C1391.11 233.119 1462.97 169.593 1557.68 164.133" stroke="url(#paint18_linear_672_553)" stroke-opacity="0.4" stroke-miterlimit="10"/>
<path d="M-42.5225 156.748C27.4853 159.132 92.8037 193.845 163.767 180.235C228.541 167.812 278.88 128.349 342.02 112.562C407.972 96.0824 486.858 111.968 551.532 125.911C617.228 140.079 679.591 160.373 740.653 184.382C768.09 195.177 788.781 197.785 816.373 185.362C837.486 175.854 854.677 161.488 875.757 151.89C905.86 138.181 930.108 140.772 960.678 152.079C999.26 166.346 1038 180.406 1077.42 193.09C1144.3 214.598 1223.68 239.497 1297 233.569C1390.69 226.004 1462.72 162.136 1557.65 156.748" stroke="url(#paint19_linear_672_553)" stroke-opacity="0.4" stroke-miterlimit="10"/>
<path d="M-42.4883 149.551C27.8751 151.692 92.7378 186.784 164.135 173.048C228.686 160.634 278.725 121.207 341.665 105.51C407.55 89.0838 486.793 105.294 551.489 118.94C617.418 132.847 679.581 152.988 740.721 177.105C768.057 187.899 789.037 190.148 816.44 177.806C837.409 168.361 854.489 154.121 875.458 144.649C905.461 131.102 930.153 133.62 960.434 145.252C998.849 160.004 1037.63 174.172 1077.22 186.73C1143.78 207.842 1224.2 232.463 1296.95 226.31C1390.5 218.412 1463 155.623 1557.69 149.578" stroke="url(#paint20_linear_672_553)" stroke-opacity="0.4" stroke-miterlimit="10"/>
<path d="M-42.4668 142.472C28.0521 144.505 92.7259 179.83 164.289 165.932C228.741 153.41 279.035 114.316 342.02 98.7179C407.905 82.4001 486.97 99.3206 551.566 113.057C617.284 127.036 679.18 147.141 740.742 170.115C799.015 191.857 827.896 158.421 875.89 137.569C905.894 124.535 930.741 126.91 960.744 138.586C998.993 153.473 1037.71 167.605 1077.29 180.019C1143.45 200.763 1224.92 225.5 1297.15 218.826C1390.3 210.208 1463.69 149.974 1557.74 142.607" stroke="url(#paint21_linear_672_553)" stroke-opacity="0.4" stroke-miterlimit="10"/>
<path d="M-42.4443 135.5C28.2857 137.461 92.804 173.048 164.59 159.033C229.041 146.439 279.536 107.758 342.554 92.3041C408.439 76.1123 487.27 93.6804 551.766 107.462C617.229 121.449 678.891 141.464 740.809 163.278C798.593 183.644 828.508 150.802 876.535 130.895C906.539 118.427 931.608 120.73 961.345 132.424C999.415 147.392 1038.02 161.416 1077.59 173.614C1143.49 193.935 1225.76 218.412 1297.39 211.287C1390.08 202.076 1464.37 144.46 1557.73 135.923" stroke="url(#paint22_linear_672_553)" stroke-opacity="0.4" stroke-miterlimit="10"/>
<path d="M-42.4219 128.655C28.5526 130.562 92.9709 166.436 165.023 152.358C229.397 139.782 280.192 101.543 343.254 86.2502C409.139 70.3282 487.715 88.3371 552.088 102.127C617.24 116.07 678.769 135.932 740.909 156.541C798.282 175.548 829.219 143.434 877.369 124.454C907.45 112.607 932.708 114.91 962.222 126.595C1000.08 141.59 1038.61 155.452 1078.11 167.362C1143.84 187.197 1226.62 211.071 1297.76 203.578C1389.99 193.872 1465.13 138.964 1557.79 129.375" stroke="url(#paint23_linear_672_553)" stroke-opacity="0.4" stroke-miterlimit="10"/>
<path d="M-42.4004 121.926C28.8742 123.815 93.1702 159.968 165.589 145.881C229.908 133.377 281.013 95.5695 344.131 80.583C409.994 64.9399 488.169 83.3536 552.521 97.0987C617.317 110.952 678.657 130.607 741.053 149.974C797.993 167.65 830.018 136.382 878.39 118.427C908.572 107.219 934.03 109.602 963.355 121.252C1000.92 136.323 1039.47 149.734 1078.82 161.425C1144.5 180.712 1227.51 203.704 1298.24 195.869C1389.87 185.767 1465.93 133.629 1557.78 123.132" stroke="url(#paint24_linear_672_553)" stroke-opacity="0.4" stroke-miterlimit="10"/>
<path d="M-42.3662 115.324C29.2306 117.213 93.5044 153.68 166.279 139.611C230.542 127.207 281.992 89.9024 345.188 75.2218C411.028 59.9294 488.87 78.631 553.1 92.3132C617.551 106.022 678.725 125.408 741.265 143.515C797.782 159.887 830.964 129.545 879.625 112.679C909.95 102.163 935.597 104.682 964.756 116.277C1002.09 131.249 1040.5 144.409 1079.77 155.686C1145.48 174.37 1228.47 196.112 1298.83 188.07C1389.87 177.662 1466.8 128.376 1557.84 117.06" stroke="url(#paint25_linear_672_553)" stroke-opacity="0.4" stroke-miterlimit="10"/>
<path d="M-42.3447 108.865C29.6188 110.763 93.8814 147.545 167.067 133.584C231.285 121.333 283.102 84.568 346.32 70.2382C412.128 55.3237 489.558 74.2502 553.732 87.8154C617.706 101.309 678.857 120.388 741.464 137.21C797.581 152.295 831.985 122.988 880.979 107.264C911.472 97.4765 937.319 100.184 966.356 111.761C1003.44 126.59 1041.67 139.454 1080.81 150.271C1146.63 168.262 1229.37 188.556 1299.43 180.325C1389.84 169.71 1467.6 123.33 1557.82 111.321" stroke="url(#paint26_linear_672_553)" stroke-opacity="0.4" stroke-miterlimit="10"/>
<path d="M-42.3223 102.532C30.0413 104.475 94.3595 141.608 167.968 127.719C232.141 115.683 284.336 79.5035 347.621 65.5605C413.384 51.0778 490.392 70.1392 554.422 83.5514C617.951 96.8647 679.035 115.512 741.665 131.039C797.393 144.847 833.086 116.646 882.447 102.127C913.128 93.1316 939.175 96.0462 968.123 107.524C1004.96 122.177 1043.03 134.697 1082.06 144.991C1148.09 162.289 1230.36 180.865 1300.16 172.49C1389.91 161.695 1468.48 118.328 1557.85 105.698" stroke="url(#paint27_linear_672_553)" stroke-opacity="0.4" stroke-miterlimit="10"/>
<path d="M-42.2998 96.3431C30.4971 98.3401 94.8042 135.833 168.957 122.133C233.086 110.277 285.692 74.709 349.043 61.1977C414.751 47.1918 491.281 66.3162 555.222 79.5575C618.307 92.628 679.336 110.808 741.909 125.021C797.26 137.614 834.319 110.565 884.069 97.2966C914.962 89.0657 941.209 92.2951 970.09 103.593C1006.67 118.024 1044.56 130.162 1083.44 139.899C1149.72 156.406 1231.33 173.066 1300.93 164.592C1390.01 153.797 1469.32 113.408 1557.85 100.256" stroke="url(#paint28_linear_672_553)" stroke-opacity="0.4" stroke-miterlimit="10"/>
<path d="M-42.2773 90.3072C30.9752 92.3762 95.349 130.229 169.968 116.718C234.131 105.141 287.148 70.1843 350.577 57.1409C416.218 43.6476 492.215 62.763 556.156 75.8065C618.774 88.598 679.758 106.256 742.265 119.147C797.238 130.49 835.742 104.7 885.903 92.745C917.018 85.3327 943.454 88.8769 972.313 100.121C1008.63 114.299 1046.33 126.012 1085.04 135.141C1151.58 150.802 1232.36 165.41 1301.8 156.838C1390.19 145.98 1470.21 108.739 1557.9 95.1378" stroke="url(#paint29_linear_672_553)" stroke-opacity="0.4" stroke-miterlimit="10"/>
<path d="M-42.2559 84.4512C31.4523 86.5831 95.9039 124.796 171.179 111.51C235.242 100.193 288.703 65.9205 352.199 53.3718C417.762 40.4093 493.237 59.4797 557.033 72.2623C619.195 84.748 680.135 101.821 742.509 113.399C797.137 123.546 837.164 99.0059 887.714 88.4272C919.051 81.8515 945.698 85.7286 974.568 96.8919C1010.61 110.786 1048.11 122.042 1086.62 130.526C1153.6 145.279 1233.39 157.602 1302.72 149.048C1390.41 138.253 1471.07 104.142 1557.92 90.1543" stroke="url(#paint30_linear_672_553)" stroke-opacity="0.4" stroke-miterlimit="10"/>
<path d="M-42.2334 78.6939C32.0082 80.9518 96.582 119.533 172.39 106.499C236.442 95.4975 290.37 61.9083 353.91 49.8814C419.418 37.4946 494.326 56.4571 558.033 69.0238C619.729 81.1946 680.624 97.6204 742.831 107.884C797.137 116.88 838.742 93.6624 889.67 84.496C921.24 78.7839 948.087 83.0747 977.002 94.0852C1012.77 107.667 1050.06 118.436 1088.37 126.244C1155.75 140.025 1234.43 149.983 1303.67 141.419C1390.68 130.67 1471.91 99.8153 1557.94 85.5035" stroke="url(#paint31_linear_672_553)" stroke-opacity="0.4" stroke-miterlimit="10"/>
<path d="M-42.2109 73.1258C32.564 75.5006 97.2489 114.451 173.691 101.704C237.687 91.0268 292.048 58.1484 355.7 46.6701C421.118 34.8681 495.449 53.6956 559.056 65.9834C620.307 77.8125 681.125 93.5456 743.132 102.496C797.16 110.295 840.376 88.4811 891.692 80.682C923.485 75.8515 950.521 80.5651 979.536 91.4766C1015.02 104.721 1052.1 114.97 1090.18 122.061C1157.97 134.799 1235.44 142.283 1304.65 133.755C1390.98 123.132 1472.72 95.5336 1557.97 80.9339" stroke="url(#paint32_linear_672_553)" stroke-opacity="0.4" stroke-miterlimit="10"/>
<path d="M-42.1885 67.7285C33.1088 70.2293 97.9604 109.549 174.991 97.1078C238.998 86.772 293.815 54.6221 357.545 43.7106C422.874 32.5292 496.616 51.1678 560.178 63.1678C620.996 74.655 681.725 89.6325 743.532 97.2787C797.327 103.926 842.187 83.5336 893.871 77.1738C925.897 73.2248 953.122 78.3882 982.247 89.1378C1017.46 102.04 1054.32 111.76 1092.16 118.121C1160.4 129.752 1236.55 134.682 1305.74 126.217C1391.3 115.728 1473.53 91.4586 1557.99 76.6161" stroke="url(#paint33_linear_672_553)" stroke-opacity="0.4" stroke-miterlimit="10"/>
<path d="M-42.167 62.5022C33.6747 65.1379 98.693 104.781 176.357 92.718C240.364 82.742 295.637 51.3208 359.444 41.003C424.685 30.4783 497.826 48.883 561.311 60.5772C621.717 71.7046 682.335 85.8814 743.875 92.2323C797.481 97.7645 843.975 78.82 895.992 73.8995C928.218 70.85 955.654 76.4812 984.891 87.0958C1019.83 99.6307 1056.46 108.794 1094.05 114.397C1162.72 124.859 1237.53 127.189 1306.72 118.787C1391.66 108.478 1474.21 87.5636 1557.93 72.5052" stroke="url(#paint34_linear_672_553)" stroke-opacity="0.4" stroke-miterlimit="10"/>
<path d="M-42.1445 57.4646C34.2528 60.2352 99.46 100.283 177.746 88.535C241.742 78.9188 297.504 48.2532 361.389 38.5741C426.518 28.6791 499.049 46.8769 562.522 58.2472C622.529 69.0418 683.013 82.3461 744.298 87.4106C797.804 91.8363 845.887 74.3671 898.304 70.8949C930.763 68.7449 958.311 74.8709 987.825 85.3416C1022.49 97.5031 1058.91 106.098 1096.21 110.925C1252.9 131.875 1406.44 96.532 1558.09 68.646" stroke="url(#paint35_linear_672_553)" stroke-opacity="0.4" stroke-miterlimit="10"/>
<path d="M-42.1221 52.589C34.842 55.5125 100.238 95.9112 179.169 84.5319C243.165 75.3026 299.405 45.4016 363.367 36.2892C428.386 27.0238 500.305 44.9968 563.645 56.0343C623.307 66.46 683.614 78.9008 744.621 82.6519C798.115 85.9712 847.71 70.0582 900.516 67.9893C933.164 66.7299 960.945 73.3865 990.626 83.7044C1024.9 95.6953 1061.29 103.341 1098.24 107.569C1250.93 125.048 1410.19 92.6009 1558.06 64.9038" stroke="url(#paint36_linear_672_553)" stroke-opacity="0.4" stroke-miterlimit="10"/>
<path d="M-42.0996 47.9115C35.4312 50.988 101.027 91.7375 180.603 80.736C244.61 71.8575 301.316 42.7571 365.357 34.2564C430.264 25.6477 501.561 43.3778 564.834 54.0465C624.174 64.0764 684.27 75.6356 744.999 78.1633C798.594 80.3942 849.588 65.9835 902.794 65.3808C935.631 65.0119 963.59 72.1903 993.504 82.3822C1027.55 93.9774 1063.7 100.967 1100.34 104.439C1170.13 111.051 1240.91 105.42 1310.13 97.3327C1393.18 87.6266 1476.36 76.9759 1558.08 61.3508" stroke="url(#paint37_linear_672_553)" stroke-opacity="0.4" stroke-miterlimit="10"/>
<path d="M-42.0781 43.4226C35.3527 46.598 100.86 87.4195 180.358 77.3626C244.109 69.2667 300.926 41.2997 364.467 32.817C428.696 24.2443 498.559 41.2547 561.277 51.5276C621.906 61.4226 683.324 72.4781 745.387 73.8634C800.482 75.0957 854.165 61.4766 909.138 63.0688C942.32 64.0313 969.978 72.8109 1000.39 82.562C1031.99 92.6909 1065.34 98.493 1099.08 101.237C1170.89 107.075 1242.11 98.466 1313.06 90.3431C1394.96 80.9698 1477.59 73.7554 1558.13 58.0853" stroke="url(#paint38_linear_672_553)" stroke-opacity="0.4" stroke-miterlimit="10"/>
<path d="M-42.0664 39.132C35.8978 42.4603 101.672 83.6236 181.758 73.9535C245.521 66.2533 302.794 39.024 366.434 31.162C430.53 23.2819 499.838 40.0495 562.467 49.9895C622.807 59.5787 683.992 69.7796 745.732 69.7796C801.149 69.7796 856.022 57.9685 911.45 60.982C944.676 62.7811 972.568 72.0644 1003.22 81.6086C1034.6 91.3777 1067.73 96.5681 1101.18 98.6191C1173.22 103.036 1243.21 91.6746 1314.15 83.7765C1395.52 74.7181 1478.14 70.859 1558.11 54.991" stroke="url(#paint39_linear_672_553)" stroke-opacity="0.4" stroke-miterlimit="10"/>
<path d="M-42.0439 35.048C36.5092 38.5292 102.416 80.0254 183.181 70.733C246.966 63.3927 304.683 36.928 368.413 29.6777C432.375 22.3823 501.138 39.033 563.734 48.6491C623.741 57.8875 684.692 67.1708 746.11 65.8575C801.927 64.6611 857.878 54.6221 913.773 59.0389C947.043 61.6746 975.157 71.4527 1006.01 80.79C1037.12 90.2083 1070.1 94.787 1103.24 96.1453C1175.47 99.1228 1244.3 85.0628 1315.22 77.3807C1396.07 68.6191 1478.57 68.1333 1558.08 52.0674" stroke="url(#paint40_linear_672_553)" stroke-opacity="0.4" stroke-miterlimit="10"/>
<path d="M-42.0225 31.1708C37.0752 34.7689 103.26 76.6159 184.591 67.7104C248.387 60.7209 306.549 34.9758 370.379 28.3732C434.208 21.7705 502.416 38.1962 564.845 47.4796C624.707 56.3851 685.369 64.7959 746.454 62.1602C802.76 59.7314 859.666 51.4915 916.028 57.2936C949.365 60.7209 977.679 71.0297 1008.82 80.1511C1039.95 89.2726 1072.51 93.1946 1105.34 93.8783C1177.57 95.3985 1245.49 78.7029 1316.33 71.2366C1396.71 62.7629 1479.15 65.6414 1558.12 49.3416" stroke="url(#paint41_linear_672_553)" stroke-opacity="0.4" stroke-miterlimit="10"/>
<path d="M-42.0107 27.5007C37.6314 31.2788 104.05 73.3776 185.959 64.8859C249.788 58.2382 308.372 33.2758 372.291 27.2308C435.942 21.2128 503.727 37.5306 566.045 46.4991C625.73 55.0808 686.059 62.61 746.843 58.679C803.705 54.9998 861.456 48.5501 918.318 55.7105C951.555 59.9024 980.202 70.7509 1011.56 79.6655C1042.34 88.4091 1074.9 91.7734 1107.37 91.8004C1179.6 91.8723 1246.65 72.622 1317.4 65.3536C1397.4 57.1318 1479.64 63.3656 1558.12 46.805" stroke="url(#paint42_linear_672_553)" stroke-opacity="0.4" stroke-miterlimit="10"/>
<path d="M-42 24.0554C38.1755 27.9595 104.794 70.4091 187.292 62.2412C251.155 55.9444 310.161 31.6566 374.157 26.2593C437.742 20.862 504.849 37.0539 567.178 45.7075C626.741 53.9474 686.769 60.631 747.198 55.4227C804.671 50.4751 863.167 45.8155 920.551 54.3072C953.777 59.2098 982.669 70.607 1014.26 79.3146C1044.9 87.7524 1077.18 90.514 1109.35 89.9023C1181.47 88.544 1247.82 66.8289 1318.46 59.7315C1398.01 51.7435 1480.03 61.3327 1558.15 44.4392" stroke="url(#paint43_linear_672_553)" stroke-opacity="0.4" stroke-miterlimit="10"/>
<path d="M-41.9775 20.8262C38.698 24.8651 105.55 67.6027 188.592 59.7946C252.488 53.7766 311.939 30.2714 375.969 25.3869C439.42 20.5473 505.983 36.7122 568.279 45.042C627.73 52.967 687.459 58.8141 747.543 52.3553C805.661 46.1125 864.878 43.2159 922.662 53.012C955.855 58.6342 984.992 70.5712 1016.86 79.0989C1047.31 87.1948 1079.42 89.4257 1111.32 88.1933C1183.25 85.4317 1249.03 61.3598 1319.55 54.4153C1398.73 46.6162 1480.5 59.5337 1558.24 42.3074" stroke="url(#paint44_linear_672_553)" stroke-opacity="0.4" stroke-miterlimit="10"/>
<path d="M-41.9668 17.8215C39.1533 21.9864 106.25 65.0298 189.825 57.5366C253.755 51.7975 313.539 29.0029 377.713 24.6581C441.053 20.3762 507.127 36.5141 569.323 44.5561C628.696 52.2472 688.125 57.2127 747.854 49.5306C806.649 41.9744 866.4 40.805 924.684 51.8694C957.81 58.1663 987.225 70.643 1019.31 78.9728C1049.6 86.8348 1081.53 88.463 1113.09 86.6459C1184.77 82.517 1250.1 56.2232 1320.48 49.3687C1399.38 41.7135 1480.82 57.9414 1558.22 40.3012" stroke="url(#paint45_linear_672_553)" stroke-opacity="0.4" stroke-miterlimit="10"/>
<path d="M-41.9551 15.0598C39.6762 19.3237 106.95 62.6549 190.993 55.4585C254.978 49.9893 315.129 27.8694 379.369 24.0553C442.61 20.3042 508.172 36.4421 570.313 44.2322C629.63 51.6714 688.77 55.8093 748.166 46.9308C807.561 38.0523 867.901 38.574 926.641 50.8618C959.689 57.7793 989.392 70.6519 1021.65 78.9457C1051.65 86.6728 1083.64 87.6443 1114.81 85.2425C1186.19 79.8453 1251.15 51.4285 1321.4 44.6639C1399.95 37.0987 1481.16 56.6099 1558.22 38.493" stroke="url(#paint46_linear_672_553)" stroke-opacity="0.4" stroke-miterlimit="10"/>
<path d="M-41.8887 12.4873C40.1871 16.8411 107.606 60.4602 192.148 53.5427C256.111 48.3343 316.618 26.8801 380.936 23.5607C444.032 20.3044 509.172 36.4962 571.246 44.0614C630.53 51.2578 689.392 54.6131 748.443 44.5652C808.605 34.3373 869.301 36.4693 928.463 49.9625C961.444 57.4647 991.403 70.823 1023.85 78.9999C1053.73 86.5291 1085.55 86.9609 1116.39 84.0733C1150.05 80.9159 1182.87 73.6836 1215.18 65.6596C1250.05 57.0149 1285.94 43.8276 1322.26 40.3373C1400.55 32.8081 1481.48 55.5577 1558.23 36.901" stroke="url(#paint47_linear_672_553)" stroke-opacity="0.4" stroke-miterlimit="10"/>
<path d="M-41.8887 10.2383C40.5871 14.6641 108.128 58.562 193.16 51.8784C257.178 46.8409 318.007 25.9804 382.403 23.1558C445.399 20.3582 510.072 36.649 572.09 44.0253C631.375 51.0598 690.003 53.6235 748.71 42.4421C809.528 30.8559 870.623 34.5351 930.219 49.1977C963.056 57.2936 993.27 71.0567 1025.88 79.1167C1055.64 86.466 1087.31 86.412 1117.86 83.0297C1151.45 79.3236 1184.08 71.4615 1216.21 62.9248C1250.82 53.7314 1286.76 39.8604 1323.07 36.3432C1401.12 28.796 1481.79 54.7389 1558.24 35.4436" stroke="url(#paint48_linear_672_553)" stroke-opacity="0.4" stroke-miterlimit="10"/>
<path d="M-41.8887 8.19629C40.9649 12.694 108.684 56.8528 194.082 50.3671C258.144 45.4916 319.262 25.2607 383.714 22.8409C446.621 20.4751 510.861 36.9548 572.835 44.1422C632.13 51.0058 690.548 52.8499 748.91 40.544C810.428 27.6175 871.801 32.745 931.819 48.532C964.534 57.1317 994.97 71.3176 1027.75 79.2876C1057.39 86.484 1088.87 85.9802 1119.2 82.1571C1152.71 77.9293 1185.17 69.4735 1217.13 60.469C1251.51 50.7809 1287.49 36.2982 1323.81 32.727C1401.59 25.0808 1482.08 54.1812 1558.28 34.1932" stroke="url(#paint49_linear_672_553)" stroke-opacity="0.4" stroke-miterlimit="10"/>
<path d="M-41.8887 6.40625C41.3094 10.904 109.139 55.3686 194.904 49.0358C259.045 44.2952 320.474 24.6221 384.992 22.5981C447.832 20.6191 511.672 37.3417 573.579 44.3852C632.897 51.1228 691.148 52.2832 749.154 38.9249C811.306 24.6131 872.835 31.0898 933.275 47.9204C965.878 57.0148 996.515 71.5695 1029.43 79.4675C1058.97 86.547 1090.34 85.6474 1120.37 81.4196C1153.84 76.7059 1186.12 67.7104 1217.94 58.2742C1252.13 48.1183 1288.14 33.1408 1324.5 29.4887C1402.13 21.6806 1482.41 53.8664 1558.28 33.0868" stroke="url(#paint50_linear_672_553)" stroke-opacity="0.4" stroke-miterlimit="10"/>
<path d="M-41.8887 4.87695C41.6317 9.37469 109.528 54.1182 195.627 47.8843C259.778 43.2427 321.485 24.0913 386.059 22.3822C448.832 20.754 512.25 37.7734 574.157 44.7179C633.508 51.3746 691.648 51.9143 749.321 37.5215C812.117 21.8424 873.679 29.5426 934.564 47.4166C967.023 56.9518 997.838 71.8393 1030.87 79.6834C1060.32 86.6818 1091.54 85.4405 1121.36 80.8528C1154.79 75.6984 1186.93 66.2171 1218.61 56.3851C1252.64 45.8154 1288.61 30.4511 1325.07 26.7C1402.54 18.649 1482.72 53.8663 1558.29 32.1692" stroke="url(#paint51_linear_672_553)" stroke-opacity="0.4" stroke-miterlimit="10"/>
<path d="M-41.8887 3.59961C41.2205 8.09735 108.895 52.8409 194.493 47.0388C262.134 42.4601 327.519 21.7795 395.771 22.2023C454.122 22.5621 512.673 38.0793 570.312 44.7539C631.552 51.8424 690.17 51.6445 749.477 36.4691C815.239 19.6835 876.857 28.5081 940.242 48.4691C968.656 57.4106 995.726 69.6084 1024.35 77.9832C1054.64 86.8438 1087.9 85.9802 1119.07 81.0597C1154.44 75.4825 1188.3 64.8678 1221.66 54.0733C1255.29 43.1527 1291.04 27.7795 1327.3 24.1813C1403.97 16.6161 1483.71 53.9653 1558.28 31.4406" stroke="url(#paint52_linear_672_553)" stroke-opacity="0.4" stroke-miterlimit="10"/>
<path d="M-41.8887 2.59229C41.4539 7.02706 109.128 52.0674 194.96 46.2564C262.623 41.6687 328.308 21.4738 396.538 22.1485C454.844 22.7332 513.095 38.6822 570.701 45.3658C631.986 52.4722 690.592 51.7706 749.61 35.6057C816.04 17.3988 877.335 27.2579 941.242 48.1994C969.523 57.4647 996.671 69.7705 1025.37 78.1543C1055.6 87.0239 1088.71 85.9804 1119.71 80.781C1155.05 74.853 1188.78 63.7796 1222.04 52.6971C1255.62 41.5067 1291.36 25.9625 1327.71 22.1844C1404.24 14.2864 1484.07 54.4332 1558.29 30.8201" stroke="url(#paint53_linear_672_553)" stroke-opacity="0.4" stroke-miterlimit="10"/>
<path d="M-41.8887 1.87256C41.6206 6.23537 109.239 51.5456 195.315 45.6446C262.99 41.0029 328.819 21.2398 397.138 22.1304C455.422 22.886 513.395 39.3477 570.979 46.0853C632.297 53.2817 690.992 52.1393 749.632 35.0029C816.706 15.4108 877.513 26.0974 941.965 47.9204C970.179 57.4646 997.393 69.8964 1026.12 78.3791C1056.32 87.2937 1089.15 86.1692 1120.12 80.7269C1191.67 68.1333 1255.78 28.7061 1328.02 20.7541C1404.42 12.3433 1484.46 55.1978 1558.29 30.3972" stroke="url(#paint54_linear_672_553)" stroke-opacity="0.4" stroke-miterlimit="10"/>
<path d="M-41.8887 1.41504C41.7539 5.68789 109.35 51.268 195.526 45.223C263.212 40.4644 329.263 21.0882 397.549 22.1226C455.844 23.0222 513.562 40.0596 571.124 46.9142C632.464 54.2185 691.359 52.7433 749.666 34.6803C817.329 13.7119 877.457 25.0192 942.52 47.7238C970.501 57.4659 997.782 70.3744 1026.57 78.5243C1057.16 87.169 1088.99 86.4673 1120.3 80.7822C1191.97 67.7567 1255.72 28.2935 1328.22 19.7658C1404.52 10.7703 1484.9 56.2425 1558.24 30.1286" stroke="url(#paint55_linear_672_553)" stroke-opacity="0.4" stroke-miterlimit="10"/>
<path d="M-41.8887 1.24292C41.8428 5.38984 109.317 51.2398 195.582 44.97C263.267 40.0494 329.408 20.997 397.827 22.1124C456.133 23.066 513.628 40.823 571.179 47.8395C632.519 55.3148 691.726 53.5966 749.688 34.6251C817.873 12.2894 877.157 24.0015 942.842 47.5696C1002.85 69.0868 1052.29 93.5815 1120.24 80.9699C1192.1 67.6296 1255.55 28.4992 1328.31 19.2879C1404.52 9.6357 1485.32 57.5636 1558.33 30.0824" stroke="url(#paint56_linear_672_553)" stroke-opacity="0.4" stroke-miterlimit="10"/>
</g>
<defs>
<linearGradient id="paint0_linear_672_553" x1="1.15359e+06" y1="14649.4" x2="1.15359e+06" y2="4140.69" gradientUnits="userSpaceOnUse">
<stop stop-color="#592CB8"/>
<stop offset="1" stop-color="#2C66B8"/>
</linearGradient>
<linearGradient id="paint1_linear_672_553" x1="1.15362e+06" y1="15118.8" x2="1.15362e+06" y2="4257.7" gradientUnits="userSpaceOnUse">
<stop stop-color="#592CB8"/>
<stop offset="1" stop-color="#2C66B8"/>
</linearGradient>
<linearGradient id="paint2_linear_672_553" x1="1.15359e+06" y1="15326.7" x2="1.15359e+06" y2="4304.67" gradientUnits="userSpaceOnUse">
<stop stop-color="#592CB8"/>
<stop offset="1" stop-color="#2C66B8"/>
</linearGradient>
<linearGradient id="paint3_linear_672_553" x1="1.15356e+06" y1="15537.4" x2="1.15356e+06" y2="4352.38" gradientUnits="userSpaceOnUse">
<stop stop-color="#592CB8"/>
<stop offset="1" stop-color="#2C66B8"/>
</linearGradient>
<linearGradient id="paint4_linear_672_553" x1="1.15357e+06" y1="15656.2" x2="1.15357e+06" y2="4376.23" gradientUnits="userSpaceOnUse">
<stop stop-color="#592CB8"/>
<stop offset="1" stop-color="#2C66B8"/>
</linearGradient>
<linearGradient id="paint5_linear_672_553" x1="1.15361e+06" y1="15689.7" x2="1.15361e+06" y2="4377.87" gradientUnits="userSpaceOnUse">
<stop stop-color="#592CB8"/>
<stop offset="1" stop-color="#2C66B8"/>
</linearGradient>
<linearGradient id="paint6_linear_672_553" x1="1.15359e+06" y1="15648.6" x2="1.15359e+06" y2="4360.1" gradientUnits="userSpaceOnUse">
<stop stop-color="#592CB8"/>
<stop offset="1" stop-color="#2C66B8"/>
</linearGradient>
<linearGradient id="paint7_linear_672_553" x1="1.15359e+06" y1="15539.7" x2="1.15359e+06" y2="4324.78" gradientUnits="userSpaceOnUse">
<stop stop-color="#592CB8"/>
<stop offset="1" stop-color="#2C66B8"/>
</linearGradient>
<linearGradient id="paint8_linear_672_553" x1="1.1536e+06" y1="15291.1" x2="1.1536e+06" y2="4252.96" gradientUnits="userSpaceOnUse">
<stop stop-color="#592CB8"/>
<stop offset="1" stop-color="#2C66B8"/>
</linearGradient>
<linearGradient id="paint9_linear_672_553" x1="1.1536e+06" y1="15124.5" x2="1.1536e+06" y2="4202.86" gradientUnits="userSpaceOnUse">
<stop stop-color="#592CB8"/>
<stop offset="1" stop-color="#2C66B8"/>
</linearGradient>
<linearGradient id="paint10_linear_672_553" x1="1.15356e+06" y1="14923.3" x2="1.15356e+06" y2="4143.84" gradientUnits="userSpaceOnUse">
<stop stop-color="#592CB8"/>
<stop offset="1" stop-color="#2C66B8"/>
</linearGradient>
<linearGradient id="paint11_linear_672_553" x1="1.15359e+06" y1="14709.7" x2="1.15359e+06" y2="4081.77" gradientUnits="userSpaceOnUse">
<stop stop-color="#592CB8"/>
<stop offset="1" stop-color="#2C66B8"/>
</linearGradient>
<linearGradient id="paint12_linear_672_553" x1="1.15362e+06" y1="14484" x2="1.15362e+06" y2="4016.63" gradientUnits="userSpaceOnUse">
<stop stop-color="#592CB8"/>
<stop offset="1" stop-color="#2C66B8"/>
</linearGradient>
<linearGradient id="paint13_linear_672_553" x1="1.15357e+06" y1="14255.2" x2="1.15357e+06" y2="3950.8" gradientUnits="userSpaceOnUse">
<stop stop-color="#592CB8"/>
<stop offset="1" stop-color="#2C66B8"/>
</linearGradient>
<linearGradient id="paint14_linear_672_553" x1="1.15359e+06" y1="13957.4" x2="1.15359e+06" y2="3866.94" gradientUnits="userSpaceOnUse">
<stop stop-color="#592CB8"/>
<stop offset="1" stop-color="#2C66B8"/>
</linearGradient>
<linearGradient id="paint15_linear_672_553" x1="1.15356e+06" y1="13744.3" x2="1.15356e+06" y2="3805.45" gradientUnits="userSpaceOnUse">
<stop stop-color="#592CB8"/>
<stop offset="1" stop-color="#2C66B8"/>
</linearGradient>
<linearGradient id="paint16_linear_672_553" x1="1.15356e+06" y1="13554.3" x2="1.15356e+06" y2="3750.1" gradientUnits="userSpaceOnUse">
<stop stop-color="#592CB8"/>
<stop offset="1" stop-color="#2C66B8"/>
</linearGradient>
<linearGradient id="paint17_linear_672_553" x1="1.15356e+06" y1="13405" x2="1.15356e+06" y2="3705.57" gradientUnits="userSpaceOnUse">
<stop stop-color="#592CB8"/>
<stop offset="1" stop-color="#2C66B8"/>
</linearGradient>
<linearGradient id="paint18_linear_672_553" x1="1.15362e+06" y1="13276.3" x2="1.15362e+06" y2="3666.35" gradientUnits="userSpaceOnUse">
<stop stop-color="#592CB8"/>
<stop offset="1" stop-color="#2C66B8"/>
</linearGradient>
<linearGradient id="paint19_linear_672_553" x1="1.15359e+06" y1="13212.4" x2="1.15359e+06" y2="3644.27" gradientUnits="userSpaceOnUse">
<stop stop-color="#592CB8"/>
<stop offset="1" stop-color="#2C66B8"/>
</linearGradient>
<linearGradient id="paint20_linear_672_553" x1="1.15359e+06" y1="13181.7" x2="1.15359e+06" y2="3630.92" gradientUnits="userSpaceOnUse">
<stop stop-color="#592CB8"/>
<stop offset="1" stop-color="#2C66B8"/>
</linearGradient>
<linearGradient id="paint21_linear_672_553" x1="1.15361e+06" y1="13097.4" x2="1.15361e+06" y2="3603.35" gradientUnits="userSpaceOnUse">
<stop stop-color="#592CB8"/>
<stop offset="1" stop-color="#2C66B8"/>
</linearGradient>
<linearGradient id="paint22_linear_672_553" x1="1.15359e+06" y1="12970.6" x2="1.15359e+06" y2="3564.6" gradientUnits="userSpaceOnUse">
<stop stop-color="#592CB8"/>
<stop offset="1" stop-color="#2C66B8"/>
</linearGradient>
<linearGradient id="paint23_linear_672_553" x1="1.15361e+06" y1="12785.7" x2="1.15361e+06" y2="3510.43" gradientUnits="userSpaceOnUse">
<stop stop-color="#592CB8"/>
<stop offset="1" stop-color="#2C66B8"/>
</linearGradient>
<linearGradient id="paint24_linear_672_553" x1="1.15359e+06" y1="12564.2" x2="1.15359e+06" y2="3446.68" gradientUnits="userSpaceOnUse">
<stop stop-color="#592CB8"/>
<stop offset="1" stop-color="#2C66B8"/>
</linearGradient>
<linearGradient id="paint25_linear_672_553" x1="1.15361e+06" y1="12299.4" x2="1.15361e+06" y2="3371.46" gradientUnits="userSpaceOnUse">
<stop stop-color="#592CB8"/>
<stop offset="1" stop-color="#2C66B8"/>
</linearGradient>
<linearGradient id="paint26_linear_672_553" x1="1.15358e+06" y1="12004.2" x2="1.15358e+06" y2="3288.31" gradientUnits="userSpaceOnUse">
<stop stop-color="#592CB8"/>
<stop offset="1" stop-color="#2C66B8"/>
</linearGradient>
<linearGradient id="paint27_linear_672_553" x1="1.15359e+06" y1="11669.9" x2="1.15359e+06" y2="3194.84" gradientUnits="userSpaceOnUse">
<stop stop-color="#592CB8"/>
<stop offset="1" stop-color="#2C66B8"/>
</linearGradient>
<linearGradient id="paint28_linear_672_553" x1="1.15357e+06" y1="11298.9" x2="1.15357e+06" y2="3091.69" gradientUnits="userSpaceOnUse">
<stop stop-color="#592CB8"/>
<stop offset="1" stop-color="#2C66B8"/>
</linearGradient>
<linearGradient id="paint29_linear_672_553" x1="1.15359e+06" y1="10916.2" x2="1.15359e+06" y2="2985.62" gradientUnits="userSpaceOnUse">
<stop stop-color="#592CB8"/>
<stop offset="1" stop-color="#2C66B8"/>
</linearGradient>
<linearGradient id="paint30_linear_672_553" x1="1.15359e+06" y1="10502.6" x2="1.15359e+06" y2="2871.42" gradientUnits="userSpaceOnUse">
<stop stop-color="#592CB8"/>
<stop offset="1" stop-color="#2C66B8"/>
</linearGradient>
<linearGradient id="paint31_linear_672_553" x1="1.15359e+06" y1="10085.9" x2="1.15359e+06" y2="2756.57" gradientUnits="userSpaceOnUse">
<stop stop-color="#592CB8"/>
<stop offset="1" stop-color="#2C66B8"/>
</linearGradient>
<linearGradient id="paint32_linear_672_553" x1="1.15359e+06" y1="9647.33" x2="1.15359e+06" y2="2636.03" gradientUnits="userSpaceOnUse">
<stop stop-color="#592CB8"/>
<stop offset="1" stop-color="#2C66B8"/>
</linearGradient>
<linearGradient id="paint33_linear_672_553" x1="1.15359e+06" y1="9210.78" x2="1.15359e+06" y2="2516.23" gradientUnits="userSpaceOnUse">
<stop stop-color="#592CB8"/>
<stop offset="1" stop-color="#2C66B8"/>
</linearGradient>
<linearGradient id="paint34_linear_672_553" x1="1.15353e+06" y1="8783.4" x2="1.15353e+06" y2="2399.09" gradientUnits="userSpaceOnUse">
<stop stop-color="#592CB8"/>
<stop offset="1" stop-color="#2C66B8"/>
</linearGradient>
<linearGradient id="paint35_linear_672_553" x1="1.15363e+06" y1="8325.67" x2="1.15363e+06" y2="2273.94" gradientUnits="userSpaceOnUse">
<stop stop-color="#592CB8"/>
<stop offset="1" stop-color="#2C66B8"/>
</linearGradient>
<linearGradient id="paint36_linear_672_553" x1="1.15359e+06" y1="8043.47" x2="1.15359e+06" y2="2196.28" gradientUnits="userSpaceOnUse">
<stop stop-color="#592CB8"/>
<stop offset="1" stop-color="#2C66B8"/>
</linearGradient>
<linearGradient id="paint37_linear_672_553" x1="1.15359e+06" y1="7695.72" x2="1.15359e+06" y2="2101.11" gradientUnits="userSpaceOnUse">
<stop stop-color="#592CB8"/>
<stop offset="1" stop-color="#2C66B8"/>
</linearGradient>
<linearGradient id="paint38_linear_672_553" x1="1.15361e+06" y1="7419.28" x2="1.15361e+06" y2="2025.39" gradientUnits="userSpaceOnUse">
<stop stop-color="#592CB8"/>
<stop offset="1" stop-color="#2C66B8"/>
</linearGradient>
<linearGradient id="paint39_linear_672_553" x1="1.15359e+06" y1="7195.68" x2="1.15359e+06" y2="1964.03" gradientUnits="userSpaceOnUse">
<stop stop-color="#592CB8"/>
<stop offset="1" stop-color="#2C66B8"/>
</linearGradient>
<linearGradient id="paint40_linear_672_553" x1="1.15355e+06" y1="7009.75" x2="1.15355e+06" y2="1912.92" gradientUnits="userSpaceOnUse">
<stop stop-color="#592CB8"/>
<stop offset="1" stop-color="#2C66B8"/>
</linearGradient>
<linearGradient id="paint41_linear_672_553" x1="1.15357e+06" y1="6851.61" x2="1.15357e+06" y2="1869.47" gradientUnits="userSpaceOnUse">
<stop stop-color="#592CB8"/>
<stop offset="1" stop-color="#2C66B8"/>
</linearGradient>
<linearGradient id="paint42_linear_672_553" x1="1.15356e+06" y1="6722.97" x2="1.15356e+06" y2="1834.07" gradientUnits="userSpaceOnUse">
<stop stop-color="#592CB8"/>
<stop offset="1" stop-color="#2C66B8"/>
</linearGradient>
<linearGradient id="paint43_linear_672_553" x1="1.15357e+06" y1="6727" x2="1.15357e+06" y2="1833.79" gradientUnits="userSpaceOnUse">
<stop stop-color="#592CB8"/>
<stop offset="1" stop-color="#2C66B8"/>
</linearGradient>
<linearGradient id="paint44_linear_672_553" x1="1.15362e+06" y1="6902.22" x2="1.15362e+06" y2="1878.74" gradientUnits="userSpaceOnUse">
<stop stop-color="#592CB8"/>
<stop offset="1" stop-color="#2C66B8"/>
</linearGradient>
<linearGradient id="paint45_linear_672_553" x1="1.1536e+06" y1="7083.77" x2="1.1536e+06" y2="1925.56" gradientUnits="userSpaceOnUse">
<stop stop-color="#592CB8"/>
<stop offset="1" stop-color="#2C66B8"/>
</linearGradient>
<linearGradient id="paint46_linear_672_553" x1="1.15359e+06" y1="7268.52" x2="1.15359e+06" y2="1973.43" gradientUnits="userSpaceOnUse">
<stop stop-color="#592CB8"/>
<stop offset="1" stop-color="#2C66B8"/>
</linearGradient>
<linearGradient id="paint47_linear_672_553" x1="1.15355e+06" y1="7458.57" x2="1.15355e+06" y2="2022.86" gradientUnits="userSpaceOnUse">
<stop stop-color="#592CB8"/>
<stop offset="1" stop-color="#2C66B8"/>
</linearGradient>
<linearGradient id="paint48_linear_672_553" x1="1.15356e+06" y1="7634.72" x2="1.15356e+06" y2="2068.78" gradientUnits="userSpaceOnUse">
<stop stop-color="#592CB8"/>
<stop offset="1" stop-color="#2C66B8"/>
</linearGradient>
<linearGradient id="paint49_linear_672_553" x1="1.15358e+06" y1="7806.96" x2="1.15358e+06" y2="2113.79" gradientUnits="userSpaceOnUse">
<stop stop-color="#592CB8"/>
<stop offset="1" stop-color="#2C66B8"/>
</linearGradient>
<linearGradient id="paint50_linear_672_553" x1="1.15358e+06" y1="7965.82" x2="1.15358e+06" y2="2155.38" gradientUnits="userSpaceOnUse">
<stop stop-color="#592CB8"/>
<stop offset="1" stop-color="#2C66B8"/>
</linearGradient>
<linearGradient id="paint51_linear_672_553" x1="1.15359e+06" y1="8111.63" x2="1.15359e+06" y2="2193.63" gradientUnits="userSpaceOnUse">
<stop stop-color="#592CB8"/>
<stop offset="1" stop-color="#2C66B8"/>
</linearGradient>
<linearGradient id="paint52_linear_672_553" x1="1.15358e+06" y1="8251.42" x2="1.15358e+06" y2="2230.44" gradientUnits="userSpaceOnUse">
<stop stop-color="#592CB8"/>
<stop offset="1" stop-color="#2C66B8"/>
</linearGradient>
<linearGradient id="paint53_linear_672_553" x1="1.15359e+06" y1="8356.62" x2="1.15359e+06" y2="2258.11" gradientUnits="userSpaceOnUse">
<stop stop-color="#592CB8"/>
<stop offset="1" stop-color="#2C66B8"/>
</linearGradient>
<linearGradient id="paint54_linear_672_553" x1="1.15359e+06" y1="8448.02" x2="1.15359e+06" y2="2282.26" gradientUnits="userSpaceOnUse">
<stop stop-color="#592CB8"/>
<stop offset="1" stop-color="#2C66B8"/>
</linearGradient>
<linearGradient id="paint55_linear_672_553" x1="1.15356e+06" y1="8503.85" x2="1.15356e+06" y2="2297" gradientUnits="userSpaceOnUse">
<stop stop-color="#592CB8"/>
<stop offset="1" stop-color="#2C66B8"/>
</linearGradient>
<linearGradient id="paint56_linear_672_553" x1="1.15362e+06" y1="8457.33" x2="1.15362e+06" y2="2284.31" gradientUnits="userSpaceOnUse">
<stop stop-color="#592CB8"/>
<stop offset="1" stop-color="#2C66B8"/>
</linearGradient>
</defs>
</svg>
