<svg width="194" height="156" viewBox="0 0 194 156" fill="none" xmlns="http://www.w3.org/2000/svg">
<path d="M149.301 106.076L113.152 84.7464C110.15 82.9538 105.294 82.9518 102.308 84.746L101.377 85.3061L100.83 85.6349C97.8431 87.4292 97.859 90.3392 100.861 92.1321L137.011 113.462C140.017 115.256 144.875 115.256 147.861 113.462L149.34 112.573C152.326 110.778 152.307 107.871 149.301 106.076Z" fill="#CCCCC9"/>
<path d="M150.417 31.2588C150.415 31.2149 150.413 31.1704 150.411 31.1256L150.406 31.0652L150.404 31.0388L150.4 30.9917C150.396 30.9468 150.391 30.9016 150.386 30.8567C150.38 30.8106 150.374 30.7644 150.367 30.7182L150.366 30.7146L150.365 30.7096C150.359 30.6664 150.352 30.6229 150.343 30.579C150.335 30.5312 150.325 30.4834 150.316 30.4352L150.304 30.3848L150.297 30.3548L150.283 30.2911C150.271 30.2423 150.259 30.1938 150.246 30.1453C150.236 30.1097 150.226 30.0747 150.216 30.0391L150.21 30.019L150.205 29.9995C150.19 29.9524 150.176 29.9045 150.16 29.857C150.145 29.8105 150.13 29.7637 150.113 29.7172L150.104 29.6918L150.096 29.67L150.064 29.5823C150.048 29.5375 150.03 29.4929 150.012 29.4484C149.999 29.4167 149.986 29.3851 149.973 29.3534L149.965 29.3356L149.958 29.3168C149.938 29.2719 149.919 29.2274 149.899 29.1835C149.877 29.1347 149.854 29.0869 149.831 29.0388L149.82 29.0173L149.806 28.9893C149.787 28.9504 149.768 28.9121 149.749 28.8738C149.724 28.8264 149.698 28.7799 149.672 28.733L149.633 28.6601L149.618 28.6321C149.594 28.5912 149.569 28.5519 149.545 28.5114C149.509 28.4523 149.474 28.393 149.437 28.3349L149.42 28.3065C149.366 28.2228 149.31 28.1406 149.253 28.0602L149.251 28.0582C149.213 28.0038 149.173 27.9503 149.133 27.8979C149.101 27.8547 149.067 27.8125 149.034 27.7706L149.032 27.7686L149.03 27.7666C148.997 27.7247 148.962 27.6832 148.928 27.6423C148.894 27.602 148.859 27.5625 148.824 27.5232L148.807 27.5047L148.788 27.4846L148.715 27.4055C148.678 27.3666 148.641 27.3286 148.603 27.2907L148.568 27.2567L148.541 27.2313L148.486 27.1779C148.447 27.1416 148.407 27.1063 148.368 27.0714L148.315 27.0265L148.288 27.0041L148.249 26.9711C148.21 26.9397 148.171 26.9088 148.132 26.8791C148.104 26.8573 148.075 26.8365 148.046 26.8161L148.03 26.8045L148.016 26.794C147.978 26.7673 147.941 26.7415 147.903 26.7165C147.866 26.6917 147.828 26.6683 147.79 26.6449L147.764 26.6291L109.197 3.60436L109.112 3.55521C109.076 3.53476 109.039 3.51531 109.003 3.49717L108.933 3.46252L108.916 3.45462L108.895 3.44472C108.86 3.42789 108.825 3.41239 108.789 3.39788C108.753 3.38271 108.717 3.36886 108.681 3.356L108.664 3.34973L108.647 3.34412L108.575 3.31971C108.538 3.30817 108.501 3.29762 108.465 3.28838L108.413 3.2765L108.39 3.27123L108.356 3.26331C108.316 3.25539 108.278 3.24879 108.239 3.24352L108.169 3.23627L108.144 3.23363L108.121 3.23099C108.079 3.22802 108.037 3.22638 107.996 3.22671L107.942 3.22935L107.9 3.23133L107.858 3.23363C107.805 3.23858 107.754 3.24616 107.704 3.25639L107.701 3.25739L107.669 3.26629C107.617 3.2785 107.566 3.29134 107.518 3.30949L107.506 3.3151C107.435 3.34182 107.367 3.37381 107.302 3.41273L103.817 5.50677C103.881 5.46786 103.95 5.43587 104.021 5.40949C104.074 5.38937 104.128 5.37387 104.184 5.36068L104.216 5.35177C104.28 5.33825 104.347 5.33 104.415 5.32571L104.457 5.32373C104.523 5.32109 104.59 5.32175 104.659 5.32769L104.684 5.33032C104.756 5.33758 104.829 5.34913 104.905 5.36562L104.928 5.37057C105.004 5.38837 105.082 5.4108 105.162 5.43817L105.178 5.44411C105.261 5.47346 105.345 5.50809 105.431 5.54867L105.448 5.55692C105.535 5.5988 105.623 5.64532 105.712 5.69875L144.279 28.7234C144.369 28.7772 144.458 28.8363 144.546 28.8986L144.561 28.9101C144.643 28.9692 144.723 29.0325 144.803 29.0988L144.829 29.1209C144.907 29.1859 144.982 29.2541 145.056 29.3254L145.083 29.3511C145.158 29.4243 145.231 29.5002 145.304 29.5793L145.322 29.5988C145.399 29.6839 145.474 29.772 145.547 29.8627L145.549 29.865C145.624 29.958 145.696 30.054 145.766 30.1526L145.768 30.1545C145.832 30.2439 145.892 30.336 145.952 30.4293C145.989 30.487 146.024 30.5461 146.059 30.6051C146.089 30.6549 146.119 30.7044 146.148 30.7548L146.187 30.8267C146.233 30.9118 146.279 30.9973 146.321 31.084L146.335 31.111C146.386 31.2166 146.435 31.3231 146.48 31.4303L146.488 31.4471C146.532 31.5524 146.573 31.6582 146.611 31.7651L146.619 31.7855C146.658 31.8944 146.693 32.0039 146.725 32.1134L146.73 32.1332C146.761 32.2384 146.788 32.3439 146.812 32.4491L146.819 32.4791C146.843 32.588 146.863 32.6962 146.88 32.804L146.881 32.809C146.898 32.9178 146.91 33.0257 146.919 33.1329L146.921 33.1592C146.929 33.2664 146.934 33.373 146.933 33.4775L146.728 108.567C146.727 108.672 146.722 108.772 146.713 108.869L146.711 108.895C146.702 108.985 146.69 109.07 146.675 109.152L146.668 109.185C146.652 109.265 146.633 109.341 146.611 109.414L146.598 109.455C146.576 109.523 146.551 109.588 146.524 109.65L146.515 109.673C146.483 109.743 146.447 109.811 146.408 109.873L146.392 109.897C146.359 109.947 146.325 109.993 146.289 110.038L146.248 110.085C146.216 110.12 146.183 110.153 146.148 110.184L146.105 110.223C146.055 110.264 146.005 110.301 145.951 110.334L149.436 108.239C149.49 108.207 149.541 108.169 149.59 108.129L149.633 108.09C149.667 108.059 149.701 108.025 149.733 107.99L149.774 107.944C149.81 107.899 149.845 107.852 149.878 107.802L149.893 107.779L149.897 107.774C149.933 107.715 149.967 107.652 149.998 107.585L150 107.578L150.009 107.556C150.027 107.515 150.045 107.473 150.061 107.429L150.083 107.36L150.096 107.32L150.108 107.284C150.121 107.238 150.132 107.191 150.143 107.143L150.153 107.091L150.16 107.058L150.169 107.009C150.176 106.965 150.183 106.921 150.188 106.877L150.196 106.801L150.198 106.775L150.202 106.744C150.205 106.702 150.208 106.658 150.21 106.614C150.211 106.57 150.212 106.526 150.212 106.481L150.212 106.473L150.418 31.3831C150.419 31.3419 150.418 31.3004 150.417 31.2588Z" fill="#F57615"/>
<path d="M144.279 28.7234L105.712 5.69873C104.242 4.82107 103.045 5.52458 103.04 7.27298L102.834 82.3625C102.83 84.1105 104.019 86.2392 105.488 87.1165L144.056 110.142C145.527 111.02 146.723 110.315 146.727 108.567L146.933 33.4775C146.938 31.7295 145.75 29.6018 144.279 28.7234Z" fill="#B54E1F"/>
<path d="M144.271 30.992L105.704 7.96664C105.396 7.78326 105.146 7.93233 105.145 8.29811L105.004 59.7326L104.939 74.951C104.938 75.3168 105.187 75.7617 105.495 75.9458L123.146 86.484L144.062 98.9705C144.37 99.1545 144.622 99.0081 144.622 98.6423L144.758 57.5188L144.828 31.9894C144.829 31.6236 144.579 31.1757 144.271 30.992Z" fill="white"/>
<path d="M119.856 33.1484L140.808 45.6563C141.393 46.0053 141.869 45.7246 141.871 45.0287C141.873 44.3324 141.399 43.4857 140.815 43.1365L136.248 40.4104L119.863 30.6282C119.279 30.2792 118.802 30.5589 118.8 31.2552C118.798 31.9511 119.272 32.7991 119.856 33.1484Z" fill="#78D2D7"/>
<path d="M119.845 37.3021L140.797 49.8104C141.381 50.1593 141.858 49.8786 141.86 49.1824C141.862 48.4865 141.388 47.6395 140.804 47.2905L119.852 34.7823C119.268 34.4333 118.791 34.7127 118.789 35.4089C118.787 36.1049 119.26 36.9528 119.845 37.3021Z" fill="#78D2D7"/>
<path d="M119.824 45.0554L140.776 57.5633C141.36 57.9126 141.837 57.6326 141.839 56.9366C141.841 56.2407 141.367 55.3924 140.783 55.0435L119.831 42.5355C119.247 42.1862 118.77 42.4673 118.768 43.1629V43.1632C118.766 43.8594 119.24 44.7061 119.824 45.0554Z" fill="#78D2D7"/>
<path d="M119.813 49.2088L140.764 61.717C141.348 62.0663 141.825 61.7866 141.827 61.0907C141.829 60.3945 141.355 59.5465 140.771 59.1975L119.819 46.6893C119.235 46.34 118.758 46.621 118.756 47.3169C118.754 48.0129 119.228 48.8598 119.813 49.2088Z" fill="#78D2D7"/>
<path d="M140.749 66.9517L119.798 54.4435C119.213 54.0945 118.737 54.3752 118.735 55.0701C118.733 55.7661 119.206 56.6141 119.791 56.9633L140.743 69.4716C141.327 69.8209 141.804 69.5399 141.806 68.8439C141.808 68.1487 141.334 67.3007 140.749 66.9517Z" fill="#78D2D7"/>
<path d="M140.738 71.1056L119.787 58.5973C119.203 58.2484 118.726 58.529 118.724 59.224C118.722 59.9199 119.196 60.7679 119.78 61.1172L140.732 73.6254C141.316 73.9744 141.793 73.6937 141.795 72.9974C141.797 72.3028 141.323 71.4549 140.738 71.1056Z" fill="#78D2D7"/>
<path d="M119.758 68.8715L140.709 81.3794C141.294 81.7287 141.771 81.4477 141.773 80.7518C141.775 80.0558 141.301 79.2075 140.716 78.8586L119.765 66.3503C119.18 66.001 118.704 66.282 118.702 66.978C118.7 67.6742 119.173 68.5222 119.758 68.8715Z" fill="#78D2D7"/>
<path d="M141.762 84.9056C141.764 84.2093 141.29 83.3613 140.706 83.0124L119.754 70.5041C119.169 70.1548 118.693 70.4359 118.691 71.1318C118.689 71.8277 119.163 72.6764 119.747 73.025L137.06 83.3607L140.699 85.5332C141.283 85.8825 141.76 85.6015 141.762 84.9056Z" fill="#78D2D7"/>
<path d="M113.653 28.9666L111.017 30.5201C110.979 30.5544 110.926 30.5508 110.859 30.5109C110.793 30.471 110.74 30.4119 110.703 30.3328L109.223 27.681C109.175 27.6077 109.151 27.5309 109.152 27.4517C109.152 27.3723 109.176 27.3254 109.224 27.3079L109.539 27.1058C109.587 27.0777 109.642 27.0813 109.703 27.1186C109.765 27.1552 109.82 27.2166 109.867 27.3017L110.864 29.0857L113.012 27.8195C113.06 27.7915 113.115 27.7951 113.177 27.8324C113.239 27.869 113.294 27.931 113.341 28.0154L113.654 28.5939C113.701 28.6668 113.725 28.7433 113.724 28.8228C113.724 28.902 113.701 28.9498 113.653 28.9666ZM114.506 28.269C114.189 27.4339 113.759 26.6651 113.218 25.9623C112.677 25.2597 112.086 24.7172 111.448 24.3365C110.811 23.9559 110.22 23.793 109.676 23.8481C109.133 23.9032 108.701 24.1575 108.38 24.612C108.06 25.0661 107.898 25.672 107.896 26.4309C107.894 27.1889 108.052 27.9851 108.369 28.8202C108.686 29.655 109.115 30.4238 109.657 31.1266C110.198 31.8295 110.788 32.3714 111.425 32.752C112.063 33.1326 112.654 33.2959 113.198 33.2412C113.742 33.1861 114.174 32.9314 114.494 32.4773C114.815 32.0228 114.977 31.4169 114.978 30.659C114.98 29.9004 114.823 29.1038 114.506 28.269Z" fill="#78D2D7"/>
<path d="M113.653 42.0035L111.017 43.5569C110.98 43.5909 110.927 43.587 110.86 43.5474C110.793 43.5075 110.741 43.4484 110.703 43.3693L109.223 40.7175C109.176 40.6446 109.152 40.5674 109.152 40.4883C109.152 40.4091 109.177 40.3616 109.224 40.3444L109.539 40.1423C109.587 40.1139 109.642 40.1182 109.704 40.1551C109.766 40.1917 109.82 40.2531 109.867 40.3382L110.864 42.1222L113.013 40.856C113.061 40.8276 113.116 40.8319 113.178 40.8689C113.239 40.9058 113.294 40.9672 113.342 41.0523L113.654 41.6304C113.702 41.7033 113.725 41.7799 113.725 41.8593C113.725 41.9385 113.701 41.986 113.653 42.0035ZM114.507 41.3056C114.19 40.4704 113.76 39.7016 113.219 38.9988C112.677 38.2959 112.087 37.754 111.449 37.3734C110.811 36.9924 110.22 36.8295 109.677 36.8846C109.133 36.9393 108.702 37.1943 108.381 37.6485C108.06 38.1026 107.899 38.7085 107.897 39.4675C107.895 40.2254 108.052 41.0216 108.369 41.8564C108.686 42.6918 109.116 43.4606 109.657 44.1632C110.198 44.866 110.788 45.4079 111.426 45.7885H111.426C112.064 46.1695 112.655 46.3327 113.199 46.2777C113.742 46.2229 114.174 45.968 114.495 45.5138C114.816 45.0593 114.977 44.4534 114.979 43.6958C114.981 42.9372 114.824 42.1407 114.507 41.3056Z" fill="#78D2D7"/>
<path d="M113.654 54.7158L111.018 56.2692C110.981 56.3032 110.928 56.2992 110.861 56.2597C110.794 56.2198 110.742 56.1604 110.705 56.0816L109.224 53.4298C109.177 53.3569 109.153 53.2797 109.153 53.2006C109.154 53.1211 109.178 53.0739 109.225 53.0568L109.54 52.8542C109.588 52.8262 109.643 52.8305 109.705 52.8671C109.767 52.904 109.821 52.9654 109.868 53.0502L110.865 54.8345L113.014 53.568C113.062 53.5399 113.117 53.5442 113.179 53.5808C113.24 53.6181 113.295 53.6795 113.343 53.7646L113.656 54.3427C113.703 54.4156 113.726 54.4921 113.726 54.5713C113.726 54.6508 113.702 54.6983 113.654 54.7158ZM114.508 54.0175C114.191 53.1827 113.761 52.4139 113.22 51.7111C112.678 51.0082 112.088 50.4663 111.45 50.0857C110.812 49.7047 110.221 49.5418 109.678 49.5969C109.134 49.6516 108.703 49.9066 108.382 50.3608C108.061 50.8149 107.9 51.4208 107.897 52.1794V52.1797C107.896 52.9374 108.053 53.7339 108.37 54.5687C108.687 55.4041 109.117 56.1729 109.658 56.8755C110.2 57.578 110.789 58.1199 111.427 58.5005C112.065 58.8815 112.656 59.045 113.2 58.99C113.743 58.9349 114.175 58.6803 114.496 58.2258C114.817 57.7716 114.978 57.1657 114.98 56.4078C114.982 55.6492 114.825 54.853 114.508 54.0175Z" fill="#78D2D7"/>
<path d="M113.655 66.5334L111.019 68.0869C110.981 68.1208 110.929 68.1172 110.862 68.0773C110.795 68.0374 110.743 67.9787 110.705 67.8995L109.225 65.2474C109.178 65.1749 109.154 65.0977 109.154 65.0182C109.154 64.939 109.178 64.8919 109.226 64.8747L109.541 64.6722C109.589 64.6442 109.644 64.6485 109.706 64.6851C109.768 64.722 109.821 64.783 109.869 64.8681L110.866 66.6521L113.015 65.3859C113.062 65.3579 113.118 65.3622 113.18 65.3988C113.241 65.4361 113.296 65.4974 113.343 65.5825L113.656 66.1607C113.704 66.2336 113.727 66.3101 113.727 66.3893C113.727 66.4684 113.703 66.5162 113.655 66.5334ZM114.508 65.8355C114.191 65.0007 113.762 64.2319 113.22 63.529C112.679 62.8262 112.088 62.2839 111.451 61.9033C110.813 61.5224 110.222 61.3598 109.679 61.4145C109.135 61.4696 108.703 61.7242 108.383 62.1787C108.062 62.6329 107.9 63.2388 107.898 63.9974V63.9977C107.896 64.7553 108.054 65.5515 108.371 66.3866C108.688 67.2217 109.117 67.9906 109.659 68.6934C110.2 69.3959 110.79 69.9378 111.428 70.3185C112.065 70.6994 112.657 70.8627 113.2 70.8079C113.744 70.7528 114.176 70.4982 114.497 70.0437C114.817 69.5896 114.978 68.9833 114.981 68.2261C114.983 67.4671 114.825 66.6709 114.508 65.8355Z" fill="#78D2D7"/>
<path d="M118.14 7.61367L118.097 7.59125L118.04 7.56057L117.995 7.53684L117.925 7.50219L117.874 7.47746L117.853 7.46723C117.806 7.44546 117.759 7.42503 117.713 7.40557C117.665 7.38611 117.618 7.36762 117.57 7.35047L117.552 7.34421L117.502 7.32739L117.43 7.30298L117.395 7.29243L117.332 7.27528L117.285 7.26143L117.236 7.24988L117.173 7.23569L117.141 7.22811L117.083 7.21854L117.012 7.20635L116.987 7.20205L116.929 7.19579L116.852 7.18788L116.83 7.18556L116.78 7.1836C116.75 7.18228 116.72 7.18095 116.69 7.18095L116.666 7.17996L116.627 7.18161C116.59 7.18293 116.553 7.18425 116.517 7.18722L116.483 7.18886L116.459 7.1925C116.403 7.19844 116.348 7.20668 116.294 7.21724L116.281 7.2192L116.277 7.2202L116.244 7.22811C116.211 7.23569 116.177 7.24394 116.145 7.25351L116.097 7.26868L116.035 7.28913L116.02 7.29539C115.988 7.30727 115.957 7.32113 115.926 7.33498L115.882 7.35443C115.837 7.3762 115.793 7.39962 115.75 7.42534L114.766 8.01672C114.809 7.991 114.853 7.96758 114.898 7.94581L114.942 7.92636C114.973 7.91251 115.004 7.89898 115.036 7.88678L115.113 7.8604L115.161 7.84489C115.193 7.83532 115.226 7.82708 115.26 7.81949L115.293 7.81157L115.31 7.8086C115.364 7.79805 115.419 7.7898 115.475 7.78387L115.532 7.77858C115.569 7.77562 115.606 7.77397 115.643 7.77298L115.706 7.77232C115.736 7.77232 115.765 7.77365 115.796 7.7753L115.869 7.77924L115.945 7.78717L116.028 7.79772L116.099 7.80992C116.129 7.8152 116.159 7.82081 116.189 7.82708L116.251 7.84126C116.283 7.84918 116.316 7.85743 116.348 7.86666L116.41 7.88413C116.446 7.89502 116.482 7.90656 116.518 7.91876L116.568 7.93559C116.674 7.97352 116.781 8.01772 116.89 8.06884L116.94 8.09358C116.979 8.11238 117.017 8.13151 117.056 8.15196L117.113 8.18262C117.164 8.21065 117.215 8.23869 117.267 8.2697L120.725 10.3337L121.709 9.74236L118.251 7.67833C118.214 7.65623 118.177 7.63445 118.14 7.61367Z" fill="#F3EF15"/>
<path d="M139.641 24.471L139.64 24.4396L139.637 24.3737L139.633 24.2948L139.629 24.2348L139.623 24.1645L139.62 24.1181C139.617 24.0844 139.613 24.0504 139.609 24.0168L139.603 23.9597L139.601 23.9403C139.593 23.8796 139.585 23.8186 139.576 23.7576L139.575 23.7536L139.57 23.7269C139.563 23.6757 139.554 23.625 139.545 23.5738L139.539 23.5465L139.525 23.4729L139.508 23.3842L139.497 23.3344L139.478 23.2549L139.465 23.1935L139.446 23.12L139.426 23.0402L139.416 23.0009C139.406 22.966 139.396 22.9313 139.386 22.8964L139.367 22.8278L139.361 22.8086C139.343 22.746 139.323 22.6833 139.303 22.6206L139.302 22.6183L139.297 22.6009C139.278 22.5461 139.26 22.4907 139.241 22.4353L139.231 22.4096L139.208 22.3462L139.176 22.2575L139.154 22.2005L139.127 22.1312L139.107 22.0804C139.094 22.0474 139.08 22.0141 139.066 21.9811L139.043 21.926L139.035 21.9066C139.01 21.8475 138.984 21.7888 138.957 21.7305L138.954 21.7235L138.933 21.678C138.912 21.6315 138.89 21.585 138.868 21.5395L138.858 21.5184C138.84 21.4824 138.821 21.4465 138.804 21.4102L138.759 21.3215L138.751 21.3063C138.702 21.212 138.651 21.1183 138.599 21.0256L138.586 21.0019L138.57 20.9758C138.496 20.8462 138.419 20.7185 138.338 20.5935L138.325 20.5728L138.302 20.5388C138.237 20.4392 138.171 20.3409 138.103 20.2446L138.102 20.2439C138.053 20.1753 138.004 20.1077 137.953 20.0411L137.947 20.0325C137.91 19.9847 137.873 19.9379 137.836 19.8917L137.812 19.861L137.811 19.859C137.766 19.8036 137.721 19.7485 137.675 19.6948L137.668 19.6872L137.626 19.6384C137.597 19.6047 137.568 19.5708 137.538 19.5378L137.521 19.52L137.461 19.4547L137.394 19.3821L137.37 19.3567L137.303 19.2884L137.246 19.2304L137.214 19.199L137.141 19.1298L137.092 19.0816L137.052 19.0463L136.979 18.9807L136.935 18.9408L136.888 18.9006L136.816 18.8399L136.779 18.8092L136.719 18.7614L136.652 18.7086L136.625 18.6872L136.543 18.6275L136.487 18.5859L136.472 18.5747C136.423 18.5401 136.373 18.5057 136.323 18.4731L136.322 18.4721L136.311 18.4658C136.266 18.4362 136.22 18.4068 136.174 18.3791L136.14 18.358L132.681 16.2936L132.68 16.2343C132.678 16.1436 132.673 16.0522 132.667 15.9608V15.9592L132.666 15.9437C132.661 15.8576 132.654 15.7712 132.646 15.6844L132.642 15.6462C132.639 15.6129 132.635 15.5792 132.631 15.5453C132.627 15.4984 132.622 15.4519 132.616 15.4051L132.606 15.3292C132.601 15.2906 132.595 15.2514 132.59 15.2125C132.586 15.1821 132.582 15.1521 132.577 15.1221C132.571 15.0832 132.564 15.0439 132.558 15.0047C132.551 14.9654 132.545 14.9265 132.538 14.8873L132.529 14.8322C132.519 14.7758 132.507 14.719 132.495 14.6626C132.489 14.6297 132.483 14.5963 132.476 14.563L132.471 14.5383C132.45 14.439 132.428 14.3394 132.404 14.2395L132.403 14.2378L132.398 14.218C132.376 14.125 132.353 14.0323 132.327 13.9393L132.32 13.9113C132.31 13.8754 132.299 13.8387 132.289 13.8028C132.273 13.748 132.259 13.6936 132.243 13.6389L132.225 13.5828C132.213 13.5429 132.201 13.503 132.188 13.4631C132.176 13.4238 132.164 13.3846 132.152 13.3453C132.142 13.3153 132.131 13.285 132.121 13.2549C132.108 13.215 132.095 13.1745 132.081 13.1342L132.054 13.0561C132.038 13.0089 132.02 12.9624 132.003 12.9156C131.991 12.8822 131.979 12.8489 131.967 12.8156L131.953 12.7774C131.918 12.686 131.883 12.5946 131.846 12.5036L131.846 12.5016L131.839 12.4865C131.805 12.4007 131.769 12.3153 131.733 12.2299L131.715 12.1886C131.7 12.1553 131.686 12.1223 131.671 12.0894C131.652 12.0452 131.633 12.0016 131.613 11.9578L131.577 11.8816C131.556 11.8361 131.535 11.7905 131.513 11.745C131.499 11.7153 131.486 11.6847 131.471 11.6546C131.457 11.624 131.441 11.5936 131.426 11.563C131.401 11.5135 131.377 11.464 131.351 11.4145L131.314 11.34L131.281 11.2786C131.216 11.1536 131.15 11.03 131.081 10.9069L131.055 10.8591L131.045 10.842C130.979 10.7255 130.911 10.6098 130.842 10.495L130.813 10.4485C130.753 10.3499 130.692 10.2522 130.63 10.1556L130.614 10.1309L130.584 10.0867C130.493 9.94781 130.4 9.81126 130.305 9.67669L130.273 9.6292L130.253 9.60214C130.201 9.52925 130.147 9.45769 130.093 9.38611L130.031 9.30135L130.021 9.28783C129.995 9.25484 129.969 9.22252 129.943 9.18954C129.903 9.13809 129.863 9.08565 129.823 9.03485L129.802 9.01044C129.773 8.97449 129.744 8.93954 129.715 8.90424C129.68 8.86236 129.646 8.81948 129.61 8.77792L129.579 8.74163C129.548 8.70568 129.517 8.67105 129.486 8.63576C129.456 8.60146 129.426 8.56649 129.396 8.53219L129.351 8.48372C129.317 8.44678 129.283 8.40983 129.249 8.37354L129.172 8.28977L129.116 8.23239C129.08 8.19545 129.044 8.15883 129.008 8.12189L128.94 8.05297L128.875 7.98996C128.837 7.95269 128.799 7.91609 128.76 7.87981L128.699 7.82143L128.625 7.75447C128.587 7.71917 128.548 7.68455 128.51 7.65025L128.455 7.60078L128.369 7.52855C128.332 7.49656 128.295 7.46522 128.257 7.43388L128.211 7.39496C128.177 7.36692 128.142 7.34054 128.108 7.31316C128.073 7.28579 128.039 7.25808 128.003 7.23137L127.97 7.20499C127.924 7.1697 127.878 7.13703 127.832 7.10306L127.749 7.04238L127.732 7.02951C127.655 6.97476 127.577 6.922 127.498 6.87022L127.494 6.86692L127.458 6.84482C127.395 6.80326 127.33 6.76235 127.266 6.7231L127.212 6.69046C127.154 6.65583 127.096 6.62218 127.038 6.58953L126.972 6.55424C126.942 6.53808 126.912 6.52192 126.883 6.50675L126.813 6.46915C126.776 6.45035 126.739 6.43319 126.702 6.41505L126.623 6.37679L126.591 6.36096C126.517 6.32698 126.444 6.29466 126.371 6.26465L126.37 6.26433C126.296 6.23398 126.223 6.20496 126.15 6.17857L126.121 6.16868L126.043 6.14229C126.005 6.12942 125.968 6.1159 125.93 6.10436L125.875 6.08853C125.843 6.07896 125.81 6.06973 125.778 6.06083L125.703 6.03971L125.626 6.0219C125.594 6.01432 125.561 6.0064 125.529 5.99947L125.477 5.98728C125.447 5.98134 125.417 5.97738 125.387 5.97243C125.35 5.96583 125.314 5.95891 125.278 5.95364L125.239 5.94671C125.208 5.94275 125.179 5.9411 125.148 5.93747C125.108 5.93285 125.068 5.9279 125.028 5.9246L124.993 5.92098L124.912 5.91833C124.867 5.91636 124.822 5.91406 124.777 5.91373L124.739 5.91241L124.679 5.91537C124.62 5.91636 124.562 5.919 124.505 5.92362L124.454 5.92626L124.381 5.93483L124.328 5.94143C124.263 5.95033 124.2 5.96023 124.137 5.97375L124.13 5.97507L124.079 5.9876C124.027 5.99948 123.975 6.01234 123.925 6.02653L123.851 6.0506C123.82 6.06083 123.787 6.06972 123.756 6.08127L123.731 6.09215C123.681 6.11095 123.633 6.13173 123.585 6.15317L123.514 6.18451C123.444 6.21848 123.375 6.25509 123.308 6.29533L122.324 6.88671C122.391 6.84647 122.46 6.80985 122.53 6.77588L122.6 6.74488C122.648 6.72344 122.697 6.702 122.747 6.68353C122.786 6.66869 122.827 6.65516 122.867 6.64197L122.94 6.61855C122.991 6.60371 123.043 6.59085 123.095 6.57898L123.146 6.56644C123.211 6.55291 123.277 6.54205 123.343 6.53281L123.397 6.52621C123.438 6.52126 123.479 6.5183 123.521 6.515C123.578 6.51038 123.636 6.50774 123.695 6.50675C123.727 6.50609 123.76 6.50476 123.793 6.50509C123.838 6.50542 123.883 6.50774 123.928 6.50972C123.967 6.51136 124.005 6.51302 124.044 6.51632C124.084 6.51962 124.124 6.52423 124.164 6.52885C124.207 6.53379 124.25 6.5384 124.294 6.545C124.33 6.55028 124.366 6.55721 124.402 6.56381C124.45 6.57206 124.497 6.58063 124.545 6.59085C124.577 6.59778 124.61 6.6057 124.642 6.61329C124.692 6.62516 124.743 6.63801 124.794 6.65219C124.826 6.6611 124.858 6.67035 124.891 6.67991C124.946 6.69673 125.002 6.71454 125.059 6.73367L125.137 6.76005C125.302 6.81909 125.469 6.88835 125.639 6.96817L125.718 7.00643C125.778 7.03579 125.838 7.06613 125.898 7.0978C125.928 7.1133 125.958 7.12945 125.988 7.14561C126.067 7.18915 126.147 7.23401 126.228 7.28184C126.311 7.33164 126.393 7.38342 126.475 7.43653L126.509 7.45828C126.595 7.51468 126.68 7.5734 126.765 7.63376L126.848 7.69478C126.906 7.737 126.963 7.77921 127.019 7.82275C127.055 7.84946 127.089 7.87717 127.123 7.90454C127.174 7.94445 127.224 7.98436 127.273 8.02559C127.311 8.05659 127.348 8.08792 127.385 8.11991C127.432 8.15982 127.479 8.20039 127.526 8.24162C127.564 8.27592 127.603 8.31055 127.641 8.34585C127.686 8.38707 127.731 8.42896 127.776 8.47117C127.815 8.50745 127.853 8.54407 127.891 8.58167C127.936 8.6252 127.98 8.66875 128.024 8.71327C128.06 8.74989 128.096 8.78683 128.132 8.82377C128.176 8.87027 128.221 8.9171 128.265 8.96493C128.299 9.00121 128.333 9.03814 128.367 9.07508C128.412 9.12522 128.457 9.17602 128.502 9.22714C128.533 9.26243 128.564 9.29706 128.594 9.33302C128.64 9.38645 128.685 9.4412 128.731 9.49595C128.76 9.53091 128.789 9.56587 128.818 9.60182C128.866 9.66086 128.913 9.72089 128.959 9.78092C128.985 9.8139 129.011 9.84622 129.037 9.87921C129.061 9.91186 129.085 9.94517 129.109 9.97749C129.163 10.0491 129.216 10.121 129.269 10.1935L129.321 10.2681C129.416 10.4026 129.509 10.5392 129.6 10.678L129.646 10.747C129.707 10.8429 129.768 10.9399 129.828 11.0379L129.858 11.0867C129.927 11.2011 129.995 11.3169 130.061 11.4333L130.097 11.4983C130.165 11.6213 130.232 11.745 130.297 11.87C130.321 11.9152 130.344 11.9607 130.368 12.0059C130.393 12.0554 130.417 12.1049 130.441 12.1547C130.471 12.215 130.501 12.2757 130.529 12.3364C130.551 12.3819 130.572 12.4274 130.593 12.4729C130.625 12.5419 130.656 12.6115 130.687 12.6807C130.701 12.714 130.716 12.7467 130.731 12.78C130.774 12.8799 130.816 12.9799 130.856 13.0798L130.861 13.0927C130.903 13.1976 130.944 13.3021 130.983 13.4077C130.995 13.4403 131.007 13.4736 131.019 13.5066C131.045 13.5795 131.071 13.6527 131.096 13.7259C131.11 13.7659 131.124 13.8064 131.137 13.8463C131.16 13.9159 131.182 13.9849 131.204 14.0544C131.217 14.0944 131.229 14.1343 131.241 14.1742C131.263 14.2474 131.284 14.3209 131.305 14.3942C131.315 14.4304 131.325 14.4667 131.335 14.5027C131.363 14.6049 131.39 14.7072 131.414 14.8094L131.419 14.8292C131.445 14.9377 131.469 15.0462 131.492 15.1547C131.499 15.1877 131.505 15.2204 131.511 15.2534C131.526 15.3286 131.54 15.4034 131.554 15.4786C131.561 15.5179 131.567 15.5571 131.574 15.596C131.585 15.6656 131.596 15.7349 131.606 15.8038C131.611 15.8428 131.617 15.882 131.621 15.9206C131.631 15.9925 131.64 16.0647 131.647 16.1366C131.651 16.1706 131.655 16.2042 131.658 16.2376C131.668 16.3372 131.676 16.4364 131.682 16.5354L131.683 16.5506C131.69 16.6627 131.695 16.7742 131.697 16.885L135.156 18.9494C135.213 18.984 135.271 19.0203 135.328 19.0576L135.337 19.0635C135.393 19.1001 135.448 19.1384 135.502 19.1773L135.559 19.2188C135.595 19.2456 135.631 19.2723 135.668 19.3L135.735 19.3528C135.767 19.3788 135.8 19.4049 135.832 19.4316L135.903 19.4919C135.934 19.5183 135.965 19.545 135.995 19.5721L136.068 19.6377C136.098 19.6651 136.128 19.6931 136.157 19.7212L136.229 19.7908C136.26 19.8201 136.289 19.8501 136.319 19.8798L136.385 19.9481C136.416 19.9801 136.447 20.0131 136.477 20.046L136.537 20.1113C136.573 20.1503 136.607 20.1898 136.642 20.2297L136.684 20.2786C136.733 20.3353 136.781 20.3933 136.828 20.4524L136.852 20.4824C136.891 20.5319 136.93 20.582 136.969 20.6328C137.019 20.6994 137.069 20.7667 137.118 20.8353L137.119 20.836C137.187 20.9323 137.253 21.0306 137.318 21.1302L137.354 21.1849C137.434 21.3099 137.511 21.4376 137.586 21.5672L137.614 21.617C137.667 21.7097 137.717 21.8027 137.767 21.8973C137.784 21.932 137.802 21.9673 137.82 22.0022C137.838 22.0385 137.856 22.0738 137.873 22.1097C137.899 22.1625 137.924 22.2156 137.949 22.2694L137.97 22.3149C138.001 22.3825 138.03 22.4495 138.059 22.5171L138.082 22.5725C138.103 22.6223 138.123 22.6724 138.143 22.7229L138.169 22.7918C138.188 22.8403 138.206 22.8888 138.224 22.9379L138.247 23.0009C138.27 23.0646 138.291 23.1286 138.312 23.1922L138.318 23.2097C138.341 23.2796 138.362 23.3496 138.383 23.4195L138.402 23.4864C138.415 23.5349 138.429 23.5834 138.442 23.6316L138.462 23.7114C138.473 23.7566 138.484 23.8014 138.494 23.8463L138.512 23.9258C138.523 23.9723 138.532 24.0184 138.541 24.0653L138.555 24.1375C138.567 24.1982 138.577 24.2595 138.587 24.3202L138.591 24.3446C138.601 24.4136 138.61 24.4825 138.619 24.5511L138.625 24.6082C138.63 24.6576 138.635 24.7068 138.639 24.7563L138.645 24.8259C138.648 24.8724 138.651 24.9189 138.653 24.965L138.656 25.031C138.658 25.0963 138.66 25.1616 138.66 25.2259L138.644 30.7007L139.629 30.1093L139.644 24.6345C139.644 24.5805 139.643 24.5257 139.641 24.471Z" fill="#F3EF15"/>
<path d="M135.155 18.9494L131.697 16.885C131.619 13.3212 129.204 9.05927 126.228 7.28184C123.251 5.50475 120.822 6.87483 120.724 10.3337L117.266 8.26966C115.325 7.11065 113.746 8.04209 113.74 10.3492L113.725 15.824L138.644 30.7007L138.659 25.2259C138.665 22.9188 137.096 20.1084 135.155 18.9494Z" fill="#F79011"/>
<path d="M68.4888 52.1055C69.1889 51.6873 69.7583 52.0231 69.7608 52.8549C69.7631 53.6867 69.1972 54.7003 68.4971 55.1182C67.7967 55.5364 67.2264 55.2013 67.2241 54.3695C67.2219 53.537 67.7884 52.5234 68.4888 52.1055Z" fill="#15161A"/>
<path d="M68.4976 55.1182C69.1977 54.7003 69.7636 53.6868 69.7613 52.855C69.7588 52.0232 69.1894 51.6874 68.4893 52.1056C67.7889 52.5235 67.2224 53.5371 67.2246 54.3695C67.2269 55.2014 67.7972 55.5365 68.4976 55.1182ZM68.4877 51.4935C69.4717 50.906 70.2729 51.3774 70.2765 52.5473C70.2793 53.7178 69.4832 55.143 68.4992 55.7304C67.5142 56.3185 66.7136 55.8465 66.7105 54.6763C66.7073 53.506 67.5028 52.0812 68.4877 51.4935Z" fill="#FBD938"/>
<path d="M69.4956 38.1291L69.5301 47.4134L67.4246 48.6707L67.3901 39.3861L69.4956 38.1291Z" fill="#FBD938"/>
<path d="M70.7219 30.2931L66.1241 33.0372L45.7832 20.8126L46.7889 20.2127L49.368 18.6724L50.3794 18.0682L70.7219 30.2931Z" fill="#6388CE"/>
<path d="M68.7067 30.2901L67.9591 30.7364L66.1279 31.8301L46.7896 20.2127L48.621 19.119L49.3687 18.6724L68.7067 30.2901Z" fill="#E9E8E7"/>
<path d="M67.9591 30.7364L66.1279 31.8301L46.7896 20.2127L48.621 19.119L67.9591 30.7364Z" fill="white"/>
<path d="M68.499 55.7305C69.483 55.1431 70.2792 53.7179 70.2763 52.5473C70.2728 51.3775 69.4715 50.9061 68.4875 51.4936C67.5026 52.0813 66.7071 53.5061 66.7103 54.6764C66.7135 55.8466 67.5141 56.3186 68.499 55.7305ZM67.3903 39.386L67.4248 48.6706L69.5302 47.4133L69.4958 38.1291L67.3903 39.386ZM66.125 33.0376L70.7219 30.2931L70.8026 56.3598L66.2057 59.1042L66.125 33.0376Z" fill="#496FBF"/>
<path d="M66.2055 59.1042L45.8631 46.88L45.7827 20.8133L66.1248 33.0376L66.2055 59.1042Z" fill="#385BAE"/>
<path d="M60.7292 56.9187C61.4297 56.5008 61.999 56.8362 62.0012 57.6684C62.0038 58.5005 61.4379 59.5138 60.7375 59.9316C60.0374 60.3499 59.4671 60.0148 59.4649 59.1829C59.4623 58.3508 60.0291 57.3369 60.7292 56.9187Z" fill="#15161A"/>
<path d="M60.7375 59.9316C61.438 59.5138 62.0038 58.5005 62.0013 57.6684C61.999 56.8362 61.4297 56.5008 60.7292 56.9187C60.0291 57.3369 59.4623 58.3508 59.4649 59.1829C59.4671 60.0148 60.0374 60.3499 60.7375 59.9316ZM60.7276 56.3069C61.7116 55.7195 62.5132 56.1905 62.5164 57.361C62.5196 58.5312 61.7234 59.9561 60.7394 60.5438C59.7545 61.1319 58.9539 60.6602 58.9507 59.4897C58.9472 58.3191 59.7427 56.895 60.7276 56.3069Z" fill="#FBD938"/>
<path d="M61.7363 42.9425L61.7708 52.227L59.665 53.4836L59.6309 44.1994L61.7363 42.9425Z" fill="#FBD938"/>
<path d="M62.9624 35.1066L58.3646 37.8511L38.0234 25.6258L39.0294 25.0262L41.6082 23.4862L42.62 22.8817L62.9624 35.1066Z" fill="#6388CE"/>
<path d="M60.9469 35.1035L60.1993 35.5494L58.3678 36.6434L39.0298 25.026L40.8609 23.9323L41.6086 23.4861L60.9469 35.1035Z" fill="#E9E8E7"/>
<path d="M60.1993 35.5494L58.3678 36.6434L39.0298 25.026L40.8609 23.9323L60.1993 35.5494Z" fill="white"/>
<path d="M60.7398 60.5438C61.7238 59.9561 62.5199 58.5312 62.5167 57.361C62.5135 56.1905 61.712 55.7195 60.728 56.3069C59.743 56.895 58.9475 58.3192 58.951 59.4897C58.9542 60.6603 59.7548 61.1319 60.7398 60.5438ZM59.631 44.1994L59.6652 53.4836L61.771 52.227L61.7365 42.9424L59.631 44.1994ZM58.3657 37.8509L62.9626 35.1068L63.043 61.1735L58.4461 63.9176L58.3657 37.8509Z" fill="#496FBF"/>
<path d="M58.4463 63.9176L38.1038 51.6933L38.0234 25.6266L58.3659 37.8509L58.4463 63.9176Z" fill="#385BAE"/>
<path d="M52.9693 61.7326C53.6697 61.3144 54.2391 61.6498 54.2413 62.4823C54.2435 63.3141 53.6777 64.3273 52.9776 64.7455C52.2771 65.1634 51.7068 64.8286 51.7046 63.9962C51.7024 63.1643 52.2688 62.1508 52.9693 61.7326Z" fill="#15161A"/>
<path d="M52.9776 64.7456C53.6777 64.3274 54.2435 63.3141 54.2413 62.4823C54.2391 61.6499 53.6697 61.3144 52.9693 61.7326C52.2688 62.1509 51.7024 63.1644 51.7046 63.9962C51.7068 64.8287 52.2771 65.1635 52.9776 64.7456ZM52.9677 61.1208C53.9517 60.5331 54.7532 61.0041 54.7564 62.1746C54.7596 63.3451 53.9632 64.77 52.9792 65.3574C51.9942 65.9455 51.1936 65.4738 51.1904 64.3033C51.1872 63.1331 51.9827 61.7086 52.9677 61.1208Z" fill="#FBD938"/>
<path d="M53.9761 47.7561L54.0105 57.0403L51.9051 58.2972L51.8706 49.0133L53.9761 47.7561Z" fill="#FBD938"/>
<path d="M55.2027 39.92L50.6048 42.6644L30.2637 30.4395L31.2697 29.8395L33.8485 28.2996L34.8599 27.6954L55.2027 39.92Z" fill="#6388CE"/>
<path d="M53.1873 39.9167L52.44 40.3633L50.6085 41.457L31.2705 29.8396L33.1017 28.7456L33.8493 28.2997L53.1873 39.9167Z" fill="#E9E8E7"/>
<path d="M52.44 40.3633L50.6085 41.457L31.2705 29.8396L33.1017 28.7456L52.44 40.3633Z" fill="white"/>
<path d="M52.9792 65.3574C53.9632 64.77 54.7596 63.3452 54.7564 62.1746C54.7532 61.0041 53.9517 60.5331 52.9677 61.1208C51.9827 61.7086 51.1873 63.1331 51.1904 64.3033C51.1936 65.4739 51.9942 65.9455 52.9792 65.3574ZM51.8705 49.0133L51.9049 58.2972L54.0104 57.0402L53.9759 47.756L51.8705 49.0133ZM50.6055 42.6648L55.2023 39.92L55.2827 65.9867L50.6858 68.7312L50.6055 42.6648Z" fill="#496FBF"/>
<path d="M50.686 68.7312L30.3436 56.5069L30.2632 30.4402L50.6056 42.6649L50.686 68.7312Z" fill="#385BAE"/>
<path d="M165.904 137.041C165.63 136.017 166.795 134.682 165.986 133.738C165.869 133.602 165.713 133.481 165.53 133.371C164.489 132.75 162.538 132.493 161.455 131.846C160.372 131.2 159.937 130.032 158.896 129.411C158.713 129.301 158.509 129.209 158.281 129.139C156.706 128.659 154.479 129.359 152.768 129.199C151.043 129.036 149.275 127.96 147.551 128.123C145.843 128.284 144.729 129.629 143.155 130.109C141.64 130.572 139.16 130.316 137.892 131.077C136.626 131.839 137.062 133.323 136.292 134.233C135.497 135.176 133.257 135.848 132.993 136.871C132.726 137.904 134.529 138.96 134.804 139.994C134.844 140.142 134.851 140.297 134.842 140.456L125.789 144.238L127.664 144.771L128.481 145.002L131.466 145.851L131.526 147.357L131.549 147.919L131.6 149.216L139.94 145.731C140.496 146.282 140.907 146.942 141.521 147.417L136.242 151.981L138.408 152.007L139.345 152.019L141.861 152.05L143.287 153.835L143.676 154.324L144.572 155.445L152.161 148.882C152.495 148.927 152.828 148.942 153.159 148.911C154.866 148.749 155.981 147.405 157.553 146.926C159.07 146.462 161.549 146.718 162.816 145.957C164.084 145.196 163.646 143.712 164.416 142.802C165.213 141.858 167.451 141.186 167.717 140.163C167.983 139.129 166.181 138.074 165.904 137.041Z" fill="#CCCCC9"/>
<path d="M145.711 137.966L145.709 139.006L145.263 138.623L145.266 137.584L145.711 137.966Z" fill="#7D351A"/>
<path d="M141.969 134.76L141.966 135.799L127.661 141.776L127.664 140.736L141.969 134.76Z" fill="#C44F1F"/>
<path d="M142.418 135.144L142.415 136.184L128.478 142.007L128.481 140.968L142.418 135.144Z" fill="#C5C3C2"/>
<path d="M145.266 137.584L145.263 138.623L131.523 144.362L131.526 143.323L145.266 137.584Z" fill="#C44F1F"/>
<path d="M131.525 143.323L131.523 144.362L131.463 142.856L131.466 141.817L131.525 143.323Z" fill="#7A3419"/>
<path d="M145.711 137.966L145.708 139.006L131.546 144.923L131.549 143.884L145.711 137.966Z" fill="#C5C3C2"/>
<path d="M141.97 134.76L127.664 140.736L128.481 140.968L142.419 135.144L141.97 134.76Z" fill="white"/>
<path d="M145.265 137.584L131.525 143.323L131.549 143.884L145.711 137.967L145.265 137.584Z" fill="white"/>
<path d="M131.548 143.884L131.545 144.923L131.523 144.362L131.525 143.323L131.548 143.884Z" fill="#7A7B7C"/>
<path d="M127.664 140.736L125.789 140.204L125.786 141.243L127.661 141.776L128.478 142.007L131.463 142.856L131.465 141.817L128.481 140.968L127.664 140.736Z" fill="#B03720"/>
<path d="M131.6 145.182L131.597 146.22L146.745 139.892L146.748 138.853L131.6 145.182Z" fill="#B03720"/>
<path d="M140.936 133.875L125.789 140.204L127.664 140.736L141.969 134.76L140.936 133.875Z" fill="#F36418"/>
<path d="M142.418 135.144L128.481 140.968L131.465 141.817L131.525 143.323L145.266 137.584L145.712 137.966L131.549 143.884L131.6 145.181L146.748 138.853L142.418 135.144Z" fill="#F36418"/>
<path d="M131.599 145.182L131.596 146.22L131.546 144.924L131.549 143.884L131.599 145.182Z" fill="#7A3419"/>
<path d="M148.881 139.736L148.878 140.776L148.238 140.51L148.241 139.47L148.881 139.736Z" fill="#8D3B1C"/>
<path d="M148.242 139.47L148.239 140.51L138.406 149.012L138.409 147.973L148.242 139.47Z" fill="#BF4D1F"/>
<path d="M148.881 139.736L139.345 147.985L138.408 147.973L148.241 139.47L148.881 139.736Z" fill="white"/>
<path d="M148.881 139.736L148.879 140.776L139.342 149.024L139.345 147.985L148.881 139.736Z" fill="#BFBEBC"/>
<path d="M152.964 141.434L152.961 142.473L143.285 150.84L143.287 149.801L152.964 141.434Z" fill="#BF4D1F"/>
<path d="M146.758 138.853L152.964 141.434L143.287 149.801L141.861 148.016L139.345 147.985L148.881 139.736L148.242 139.47L138.408 147.973L136.242 147.947L146.758 138.853Z" fill="#F36418"/>
<path d="M153.608 141.702L143.676 150.289L143.287 149.801L152.964 141.434L153.608 141.702Z" fill="white"/>
<path d="M153.608 141.702L153.605 142.741L143.673 151.329L143.676 150.29L153.608 141.702Z" fill="#BFBEBC"/>
<path d="M155.087 142.317L144.572 151.411L143.676 150.289L153.608 141.702L155.087 142.317Z" fill="#F36418"/>
<path d="M144.572 151.411L143.676 150.289L143.287 149.801L141.86 148.016L139.345 147.985L138.408 147.972L136.242 147.946L136.239 148.985L138.405 149.012L139.342 149.024L141.857 149.055L143.284 150.84L143.673 151.328L144.569 152.45L155.084 143.356L155.087 142.317L144.572 151.411Z" fill="#B03720"/>
<path d="M165.882 133.642C165.891 133.58 165.902 133.517 165.915 133.454C165.93 133.387 165.946 133.32 165.963 133.253C165.971 133.222 165.977 133.192 165.985 133.162C166.01 133.069 166.037 132.976 166.063 132.882C166.092 132.784 166.119 132.686 166.145 132.588L166.167 132.5C166.184 132.431 166.201 132.363 166.215 132.295L166.225 132.25C166.235 132.201 166.241 132.153 166.249 132.104L166.255 132.063C166.264 131.994 166.27 131.925 166.272 131.858L166.273 131.809L166.277 130.532C166.277 130.616 166.27 130.701 166.259 130.786L166.252 130.827C166.243 130.89 166.232 130.954 166.218 131.018C166.204 131.086 166.188 131.155 166.171 131.223L166.149 131.312C166.122 131.41 166.095 131.508 166.067 131.606C166.04 131.699 166.013 131.792 165.989 131.886C165.981 131.916 165.974 131.945 165.967 131.975C165.949 132.043 165.933 132.11 165.919 132.178L165.908 132.223C165.899 132.27 165.893 132.318 165.886 132.365L165.879 132.406C165.87 132.474 165.864 132.542 165.862 132.609L165.861 132.656L165.857 133.932C165.858 133.85 165.864 133.767 165.875 133.683L165.882 133.642Z" fill="#B03720"/>
<path d="M134.844 137.59L134.847 136.313C134.847 136.192 134.835 136.074 134.804 135.96C134.627 135.297 133.823 134.625 133.339 133.957C133.119 133.652 132.965 133.349 132.966 133.047L132.962 134.323C132.959 135.29 134.543 136.272 134.8 137.237C134.831 137.351 134.844 137.469 134.844 137.59Z" fill="#B03720"/>
<path d="M167.716 136.128C167.702 136.182 167.68 136.235 167.656 136.286L167.636 136.33C167.615 136.37 167.587 136.41 167.56 136.45L167.525 136.504L167.493 136.541C167.447 136.599 167.395 136.655 167.339 136.711C167.309 136.74 167.277 136.769 167.245 136.798L167.172 136.862C167.133 136.896 167.09 136.928 167.048 136.961L166.973 137.018C166.923 137.055 166.87 137.091 166.817 137.128L166.756 137.171C166.68 137.221 166.603 137.271 166.524 137.32C166.337 137.436 166.143 137.551 165.947 137.666C165.767 137.771 165.588 137.877 165.414 137.985L165.376 138.008L165.3 138.056C165.266 138.078 165.232 138.1 165.199 138.122C165.152 138.152 165.108 138.183 165.064 138.213C165.033 138.234 165.002 138.255 164.972 138.277C164.927 138.31 164.884 138.342 164.841 138.376L164.764 138.435C164.713 138.476 164.665 138.518 164.619 138.56L164.578 138.596L164.574 138.6C164.516 138.655 164.463 138.711 164.415 138.768L164.36 138.836L164.331 138.881C164.298 138.927 164.268 138.974 164.24 139.023L164.213 139.064L164.202 139.091C164.153 139.183 164.111 139.278 164.074 139.377L164.067 139.395L164.054 139.435C163.979 139.652 163.925 139.88 163.871 140.109C163.845 140.221 163.819 140.334 163.79 140.445L163.773 140.51C163.743 140.621 163.711 140.731 163.672 140.838L163.664 140.857C163.626 140.962 163.581 141.064 163.529 141.163L163.505 141.211C163.462 141.288 163.414 141.364 163.36 141.436L163.323 141.48C163.28 141.533 163.235 141.585 163.185 141.634C163.147 141.672 163.108 141.708 163.065 141.744L163.025 141.778C162.96 141.829 162.891 141.877 162.815 141.923C162.733 141.972 162.645 142.017 162.554 142.058C162.523 142.073 162.489 142.084 162.457 142.097C162.394 142.123 162.332 142.148 162.265 142.171C162.231 142.183 162.195 142.192 162.16 142.203C162.087 142.226 162.013 142.248 161.936 142.268C161.892 142.279 161.847 142.289 161.802 142.3C161.731 142.316 161.658 142.332 161.584 142.346C161.541 142.354 161.497 142.363 161.453 142.37C161.341 142.39 161.227 142.409 161.11 142.424C161.081 142.429 161.053 142.433 161.023 142.437C160.879 142.456 160.733 142.473 160.584 142.489C160.555 142.492 160.525 142.494 160.495 142.497C160.263 142.52 160.029 142.541 159.795 142.561C159.563 142.581 159.333 142.601 159.106 142.624L159.053 142.629L158.991 142.635C158.881 142.647 158.771 142.66 158.663 142.673C158.625 142.678 158.586 142.683 158.548 142.688C158.41 142.707 158.274 142.728 158.142 142.752L158.125 142.755C158.064 142.766 158.005 142.78 157.945 142.793C157.91 142.8 157.874 142.807 157.84 142.815C157.741 142.838 157.645 142.863 157.552 142.892C157.514 142.904 157.475 142.916 157.437 142.929L157.385 142.949C157.25 142.997 157.117 143.048 156.988 143.106L156.984 143.107C156.851 143.167 156.721 143.233 156.592 143.302L156.51 143.345C156.387 143.413 156.265 143.481 156.145 143.553L156.071 143.598C155.958 143.665 155.845 143.734 155.733 143.803C155.607 143.881 155.482 143.957 155.356 144.033L155.271 144.083C155.149 144.156 155.025 144.227 154.9 144.295L154.888 144.302C154.764 144.369 154.639 144.43 154.511 144.489C154.483 144.503 154.454 144.516 154.425 144.529C154.297 144.586 154.166 144.638 154.032 144.684C153.968 144.706 153.903 144.726 153.837 144.745L153.765 144.767C153.671 144.791 153.577 144.813 153.48 144.831C153.445 144.838 153.409 144.841 153.373 144.847C153.302 144.857 153.232 144.869 153.159 144.877C153.064 144.885 152.969 144.889 152.874 144.891C152.842 144.892 152.81 144.891 152.778 144.891C152.711 144.891 152.644 144.889 152.576 144.886C152.54 144.884 152.503 144.882 152.466 144.88C152.409 144.875 152.351 144.869 152.293 144.862C152.241 144.857 152.188 144.851 152.136 144.844C152.095 144.838 152.054 144.831 152.013 144.824C151.915 144.809 151.816 144.791 151.718 144.771C151.678 144.762 151.638 144.755 151.598 144.746C151.499 144.724 151.4 144.7 151.3 144.674L151.222 144.655C151.097 144.622 150.971 144.586 150.845 144.549L150.778 144.529C150.567 144.466 150.355 144.4 150.143 144.334C149.934 144.268 149.725 144.202 149.516 144.141L149.479 144.129L149.408 144.109C149.32 144.084 149.232 144.059 149.144 144.035C149.1 144.023 149.055 144.012 149.011 144C148.921 143.977 148.832 143.956 148.742 143.936C148.714 143.929 148.685 143.921 148.656 143.915L148.63 143.91C148.5 143.883 148.369 143.859 148.239 143.839L148.219 143.836C148.126 143.822 148.032 143.811 147.938 143.802L147.894 143.797C147.854 143.794 147.812 143.794 147.772 143.791C147.707 143.787 147.643 143.783 147.577 143.781L147.547 143.779L147.476 143.78C147.36 143.778 147.243 143.779 147.123 143.782L147.061 143.783L147.014 143.786C146.837 143.793 146.658 143.804 146.476 143.819C146.44 143.822 146.404 143.825 146.368 143.828C146.184 143.844 146 143.861 145.814 143.881L145.808 143.881C145.697 143.893 145.585 143.904 145.474 143.916C145.428 143.921 145.382 143.925 145.335 143.93C145.14 143.95 144.944 143.969 144.75 143.985L144.703 143.989C144.518 144.004 144.335 144.015 144.155 144.023L144.091 144.026C143.941 144.031 143.794 144.032 143.649 144.029C143.6 144.028 143.552 144.026 143.504 144.024C143.44 144.021 143.376 144.018 143.312 144.014C143.252 144.009 143.193 144.004 143.134 143.997C143.092 143.993 143.05 143.989 143.009 143.983C142.935 143.973 142.861 143.961 142.788 143.947L142.72 143.935C142.62 143.913 142.523 143.89 142.428 143.86C142.331 143.831 142.24 143.795 142.152 143.758C142.033 143.707 141.918 143.651 141.813 143.589C140.773 142.967 140.337 141.8 139.254 141.153C139.172 141.104 139.084 141.058 138.993 141.014L138.91 140.974C138.841 140.942 138.77 140.911 138.698 140.881L138.648 140.859L138.611 140.845C138.512 140.805 138.41 140.766 138.305 140.729L138.292 140.724C138.188 140.688 138.081 140.652 137.973 140.617C137.94 140.606 137.905 140.596 137.871 140.585C137.787 140.558 137.702 140.532 137.617 140.506C137.585 140.496 137.553 140.486 137.52 140.476C137.407 140.442 137.292 140.408 137.178 140.375C137.075 140.344 136.973 140.314 136.872 140.283C136.836 140.272 136.8 140.261 136.763 140.25C136.679 140.224 136.595 140.199 136.512 140.172C136.479 140.162 136.447 140.152 136.415 140.142C136.305 140.107 136.197 140.071 136.092 140.034L136.051 140.018C135.962 139.987 135.875 139.954 135.79 139.92C135.759 139.908 135.729 139.895 135.699 139.882C135.632 139.855 135.568 139.826 135.506 139.798L135.424 139.759C135.338 139.717 135.256 139.674 135.18 139.628C134.996 139.519 134.84 139.398 134.723 139.261C134.507 139.009 134.433 138.728 134.433 138.434L134.43 139.71C134.429 140.005 134.504 140.285 134.72 140.537C134.837 140.674 134.992 140.795 135.176 140.905C135.253 140.951 135.336 140.994 135.421 141.036L135.502 141.074C135.565 141.103 135.629 141.131 135.696 141.159L135.743 141.18L135.787 141.197C135.871 141.23 135.958 141.263 136.047 141.295L136.088 141.31C136.194 141.348 136.302 141.384 136.412 141.419C136.443 141.429 136.475 141.439 136.506 141.448C136.591 141.475 136.676 141.502 136.763 141.528C136.797 141.538 136.83 141.548 136.864 141.559C136.966 141.589 137.068 141.62 137.171 141.65C137.286 141.684 137.402 141.719 137.517 141.753C137.549 141.763 137.581 141.773 137.613 141.782C137.698 141.808 137.783 141.834 137.867 141.861C137.902 141.872 137.936 141.883 137.971 141.894C138.078 141.929 138.185 141.965 138.288 142.001L138.302 142.006C138.407 142.043 138.508 142.081 138.607 142.121C138.637 142.133 138.666 142.145 138.694 142.158C138.767 142.188 138.838 142.219 138.906 142.251L138.989 142.29C139.08 142.335 139.168 142.381 139.25 142.43C140.333 143.076 140.769 144.244 141.81 144.865C141.915 144.928 142.029 144.983 142.149 145.034L142.184 145.052C142.261 145.083 142.341 145.112 142.424 145.137L142.452 145.145C142.533 145.17 142.616 145.19 142.701 145.208L142.716 145.211L142.785 145.223C142.842 145.234 142.898 145.246 142.957 145.254L143.006 145.26C143.047 145.266 143.089 145.269 143.13 145.274C143.168 145.278 143.206 145.284 143.245 145.287L143.309 145.291C143.372 145.295 143.436 145.298 143.5 145.3C143.534 145.302 143.566 145.305 143.6 145.306L143.645 145.306C143.791 145.308 143.938 145.307 144.088 145.302L144.104 145.302L144.151 145.299C144.332 145.292 144.515 145.281 144.699 145.266L144.747 145.262C144.941 145.246 145.136 145.227 145.332 145.206L145.364 145.204C145.399 145.2 145.435 145.196 145.471 145.193C145.584 145.181 145.698 145.169 145.811 145.157C145.997 145.138 146.181 145.12 146.364 145.105C146.4 145.102 146.437 145.098 146.473 145.095C146.654 145.081 146.834 145.07 147.01 145.062C147.047 145.061 147.083 145.06 147.12 145.059C147.239 145.055 147.357 145.054 147.473 145.056C147.506 145.057 147.54 145.056 147.573 145.057C147.639 145.059 147.704 145.064 147.769 145.068C147.824 145.071 147.881 145.073 147.935 145.078C148.035 145.088 148.135 145.101 148.235 145.116C148.365 145.135 148.496 145.159 148.627 145.187C148.664 145.195 148.701 145.204 148.739 145.213C148.828 145.233 148.918 145.254 149.008 145.277C149.052 145.288 149.096 145.3 149.141 145.312C149.228 145.336 149.317 145.36 149.405 145.386C149.441 145.396 149.477 145.406 149.512 145.417C149.721 145.479 149.93 145.544 150.14 145.611C150.352 145.677 150.563 145.743 150.775 145.806L150.823 145.821L150.841 145.826C150.967 145.863 151.093 145.898 151.219 145.931L151.297 145.951C151.396 145.976 151.495 146 151.594 146.022L151.649 146.035L151.714 146.047C151.812 146.067 151.911 146.085 152.009 146.101L152.087 146.115L152.132 146.12C152.185 146.128 152.237 146.133 152.29 146.139C152.33 146.144 152.37 146.149 152.41 146.153L152.463 146.156C152.5 146.159 152.536 146.161 152.573 146.162C152.61 146.164 152.646 146.167 152.682 146.168C152.713 146.169 152.744 146.168 152.774 146.168C152.806 146.168 152.839 146.168 152.871 146.168L152.934 146.167C153.008 146.165 153.081 146.16 153.155 146.153L153.186 146.15C153.248 146.144 153.308 146.133 153.37 146.123C153.405 146.118 153.441 146.114 153.477 146.108L153.485 146.106C153.579 146.089 153.671 146.067 153.761 146.043L153.833 146.021C153.892 146.004 153.951 145.988 154.01 145.968L154.029 145.96C154.163 145.915 154.293 145.862 154.421 145.805C154.45 145.793 154.479 145.779 154.508 145.766C154.635 145.707 154.761 145.645 154.884 145.578L154.898 145.571C155.022 145.503 155.145 145.432 155.267 145.36L155.352 145.309C155.478 145.234 155.603 145.158 155.727 145.081C155.841 145.011 155.955 144.942 156.069 144.874L156.141 144.83C156.262 144.759 156.383 144.689 156.506 144.622L156.588 144.578C156.717 144.51 156.847 144.444 156.98 144.384L156.985 144.382C157.114 144.324 157.246 144.273 157.381 144.226C157.437 144.206 157.492 144.186 157.549 144.168C157.641 144.14 157.737 144.115 157.836 144.091C157.871 144.083 157.907 144.077 157.942 144.069C158.007 144.055 158.071 144.041 158.139 144.029C158.27 144.005 158.406 143.984 158.545 143.965C158.582 143.96 158.622 143.955 158.66 143.95C158.768 143.936 158.877 143.923 158.988 143.912C159.026 143.908 159.064 143.904 159.103 143.9C159.329 143.878 159.559 143.857 159.791 143.838C160.025 143.818 160.26 143.797 160.492 143.774L160.555 143.768L160.58 143.765C160.729 143.75 160.876 143.733 161.02 143.714C161.049 143.71 161.078 143.705 161.107 143.701C161.223 143.685 161.337 143.667 161.449 143.647L161.521 143.636L161.58 143.623C161.655 143.609 161.727 143.592 161.799 143.576C161.844 143.566 161.889 143.556 161.933 143.544C162.01 143.525 162.083 143.502 162.157 143.48L162.244 143.454L162.262 143.447C162.328 143.425 162.391 143.399 162.453 143.374C162.485 143.36 162.519 143.349 162.55 143.335C162.642 143.294 162.729 143.249 162.812 143.2L162.838 143.183C162.904 143.142 162.964 143.099 163.021 143.055L163.061 143.02C163.095 142.992 163.129 142.965 163.16 142.936L163.182 142.911C163.232 142.861 163.277 142.81 163.319 142.757L163.351 142.721L163.356 142.713C163.411 142.64 163.458 142.565 163.501 142.488L163.511 142.472L163.526 142.439C163.578 142.34 163.623 142.238 163.661 142.134L163.667 142.121L163.669 142.115C163.708 142.007 163.739 141.897 163.769 141.787L163.786 141.722C163.815 141.61 163.842 141.497 163.868 141.384C163.921 141.155 163.976 140.928 164.051 140.712L164.071 140.653C164.108 140.555 164.15 140.459 164.198 140.367L164.236 140.3C164.264 140.252 164.295 140.204 164.328 140.157C164.355 140.119 164.381 140.081 164.412 140.044C164.461 139.986 164.515 139.929 164.575 139.873L164.616 139.837C164.662 139.795 164.709 139.753 164.76 139.711L164.837 139.652C164.88 139.619 164.923 139.586 164.969 139.553C164.998 139.532 165.029 139.511 165.06 139.49C165.105 139.459 165.149 139.429 165.195 139.399C165.228 139.376 165.262 139.355 165.296 139.333C165.334 139.309 165.373 139.285 165.411 139.261C165.584 139.154 165.762 139.049 165.942 138.943C166.138 138.828 166.334 138.713 166.52 138.596L166.523 138.595C166.601 138.546 166.677 138.497 166.751 138.448L166.815 138.403C166.868 138.368 166.92 138.331 166.969 138.295L167.045 138.237C167.087 138.205 167.129 138.172 167.168 138.139L167.242 138.074L167.312 138.012L167.335 137.988C167.392 137.932 167.443 137.875 167.489 137.818L167.516 137.788L167.521 137.781L167.557 137.727C167.58 137.693 167.605 137.659 167.624 137.624L167.632 137.606L167.652 137.563L167.687 137.486L167.713 137.405L167.725 137.353C167.733 137.307 167.738 137.261 167.739 137.215L167.74 137.195L167.743 135.919C167.743 135.989 167.734 136.058 167.716 136.128Z" fill="#B03720"/>
<path d="M165.904 133.007C165.63 131.982 166.795 130.648 165.986 129.704C165.869 129.568 165.713 129.447 165.53 129.337C164.489 128.716 162.538 128.459 161.455 127.812C160.372 127.165 159.937 125.998 158.896 125.377C158.713 125.267 158.509 125.175 158.281 125.105C156.706 124.624 154.479 125.325 152.768 125.165C151.043 125.002 149.275 123.926 147.551 124.089C145.844 124.25 144.729 125.594 143.155 126.074C141.64 126.537 139.16 126.281 137.892 127.043C136.626 127.804 137.062 129.289 136.292 130.199C135.497 131.142 133.257 131.814 132.993 132.837C132.727 133.87 134.529 134.925 134.804 135.96C135.08 136.983 133.917 138.319 134.724 139.261C134.841 139.398 134.996 139.519 135.18 139.628C136.22 140.249 138.171 140.506 139.254 141.153C140.337 141.8 140.773 142.967 141.813 143.589C141.997 143.698 142.2 143.791 142.428 143.86C144.004 144.341 146.23 143.64 147.939 143.802C149.667 143.963 151.435 145.039 153.159 144.877C154.866 144.715 155.981 143.371 157.553 142.892C159.07 142.428 161.55 142.684 162.816 141.923C164.084 141.161 163.646 139.677 164.416 138.768C165.213 137.823 167.451 137.152 167.717 136.128C167.983 135.095 166.181 134.04 165.904 133.007Z" fill="#F36418"/>
<path d="M141.22 129.043C146.223 126.037 154.39 126.035 159.426 129.042C164.462 132.048 164.486 136.94 159.483 139.947C154.48 142.953 146.315 142.953 141.279 139.947C136.243 136.94 136.217 132.05 141.22 129.043ZM140.64 140.331C146.031 143.55 154.775 143.55 160.129 140.333C165.486 137.114 165.458 131.876 160.066 128.658C154.674 125.438 145.931 125.438 140.574 128.658L140.574 128.658C135.219 131.876 135.248 137.113 140.64 140.331Z" fill="white"/>
<path d="M151.99 129.604L151.149 129.102L147.539 131.271L148.38 131.773L151.99 129.604Z" fill="white"/>
<path d="M152.137 132.824C151.916 132.957 151.547 132.935 151.05 132.639C150.613 132.377 150.311 132.013 150.228 131.696L149.312 131.904C149.388 132.244 149.798 132.694 150.374 133.038C151.413 133.658 152.43 133.649 153.033 133.286C154.359 132.489 151.788 131.504 152.455 131.104C152.682 130.968 153.057 130.971 153.557 131.269C153.878 131.46 154.133 131.724 154.28 132.039L155.175 131.814C155.048 131.484 154.689 131.142 154.231 130.868C153.198 130.252 152.19 130.262 151.577 130.631C150.236 131.436 152.813 132.418 152.137 132.824Z" fill="white"/>
<path d="M154.982 133.551C155.668 133.139 156.624 133.148 157.274 133.536C157.921 133.923 157.942 134.497 157.256 134.909C156.57 135.321 155.61 135.312 154.962 134.925C154.312 134.537 154.296 133.964 154.982 133.551ZM154.251 135.353C155.392 136.034 157.029 136.065 158.107 135.417C159.185 134.769 159.126 133.791 157.985 133.109C156.838 132.424 155.203 132.399 154.131 133.044C153.057 133.689 153.104 134.668 154.251 135.353Z" fill="white"/>
<path d="M144.116 133.631C143.801 133.82 143.319 133.804 142.952 133.585C142.576 133.361 142.544 133.089 142.874 132.89C143.203 132.693 143.66 132.717 144.018 132.93C144.418 133.17 144.425 133.445 144.116 133.631ZM144.59 132.524C143.822 132.066 142.75 131.983 142.012 132.426C141.332 132.835 141.439 133.43 142.14 133.848C142.518 134.075 142.943 134.192 143.367 134.192C142.647 134.595 141.896 134.573 141.293 134.213C141.044 134.064 140.858 133.898 140.795 133.699L139.869 133.883C139.963 134.13 140.244 134.403 140.627 134.632C141.727 135.289 143.177 135.319 144.424 134.57C145.59 133.869 145.598 133.125 144.59 132.524Z" fill="white"/>
<path d="M147.021 136.212C146.201 136.706 145.569 136.736 145.149 136.485C144.734 136.237 144.783 135.859 145.604 135.366C146.424 134.873 147.054 134.842 147.47 135.09C147.89 135.341 147.842 135.72 147.021 136.212ZM148.177 134.666C147.284 134.132 145.944 134.142 144.753 134.859C143.562 135.574 143.549 136.376 144.442 136.91C145.34 137.446 146.675 137.433 147.866 136.717C149.058 136.001 149.075 135.201 148.177 134.666Z" fill="white"/>
<path d="M150.545 138.316C149.725 138.809 149.095 138.84 148.673 138.589C148.257 138.341 148.308 137.963 149.128 137.47C149.948 136.977 150.579 136.946 150.994 137.194C151.416 137.446 151.366 137.823 150.545 138.316ZM151.701 136.769C150.81 136.237 149.468 136.246 148.277 136.962C147.086 137.678 147.075 138.481 147.966 139.014C148.864 139.55 150.199 139.537 151.391 138.821C152.582 138.105 152.599 137.305 151.701 136.769Z" fill="white"/>
<path d="M154.975 138.8L153.407 137.864L152.736 138.267L153.464 138.701L150.526 140.466L151.367 140.968L154.975 138.8Z" fill="white"/>
<path d="M86.6011 42.013L89.2561 43.139L88.4319 43.6344L85.7769 42.5081L86.6011 42.013Z" fill="#F3EF15"/>
<path d="M92.8001 51.0868L91.9759 51.5819L91.5312 48.1709L92.3555 47.6755L92.8001 51.0868Z" fill="#F3EF15"/>
<path d="M91.6294 44.5561L94.2822 46.5984L93.458 47.0938L90.8052 45.0512L89.627 41.4857L90.4508 40.9903L91.6294 44.5561Z" fill="#F3EF15"/>
<path d="M85.7769 42.5081L88.4319 43.6345L89.6267 41.4857L90.805 45.0511L93.4578 47.0937L91.5312 48.1709L91.9759 51.5819L89.6066 48.6824L87.2291 48.7481L87.6909 45.8783L85.7769 42.5081Z" fill="#F79011"/>
<path d="M86.6011 31.7654L89.2561 32.8914L88.4319 33.3868L85.7769 32.2608L86.6011 31.7654Z" fill="#F3EF15"/>
<path d="M92.8001 40.839L91.9759 41.3344L91.5312 37.9236L92.3555 37.4282L92.8001 40.839Z" fill="#F3EF15"/>
<path d="M91.6294 34.3083L94.2822 36.3509L93.458 36.8459L90.8052 34.8037L89.627 31.2383L90.4508 30.7429L91.6294 34.3083Z" fill="#F3EF15"/>
<path d="M85.7769 32.2609L88.4319 33.3869L89.6267 31.2384L90.805 34.8038L93.4578 36.8461L91.5312 37.9236L91.9759 41.3344L89.6066 38.4345L87.2291 38.5008L87.6909 35.6307L85.7769 32.2609Z" fill="#F79011"/>
<path d="M86.6011 21.5177L89.2561 22.6438L88.4319 23.1392L85.7769 22.0128L86.6011 21.5177Z" fill="#F3EF15"/>
<path d="M92.8001 30.5916L91.9759 31.0867L91.5312 27.6756L92.3555 27.1802L92.8001 30.5916Z" fill="#F3EF15"/>
<path d="M91.6294 24.0608L94.2822 26.1034L93.458 26.5988L90.8052 24.5558L89.627 20.9907L90.4508 20.4953L91.6294 24.0608Z" fill="#F3EF15"/>
<path d="M85.7769 22.0129L88.4319 23.1392L89.6267 20.9907L90.805 24.5558L93.4578 26.5988L91.5312 27.6756L91.9759 31.0867L89.6066 28.1872L87.2291 28.2528L87.6909 25.383L85.7769 22.0129Z" fill="#F79011"/>
<path d="M86.6011 11.2702L89.2561 12.3962L88.4319 12.8916L85.7769 11.7656L86.6011 11.2702Z" fill="#F3EF15"/>
<path d="M92.8001 20.3438L91.9759 20.8392L91.5312 17.4282L92.3555 16.9328L92.8001 20.3438Z" fill="#F3EF15"/>
<path d="M91.6294 13.813L94.2822 15.8556L93.458 16.3507L90.8052 14.3084L89.627 10.743L90.4508 10.2476L91.6294 13.813Z" fill="#F3EF15"/>
<path d="M85.7769 11.7654L88.4319 12.8914L89.6267 10.743L90.805 14.3084L93.4578 16.3507L91.5312 17.4282L91.9759 20.8392L89.6066 17.9394L87.2291 18.0054L87.6909 15.1356L85.7769 11.7654Z" fill="#F79011"/>
<path d="M86.6011 1.02254L89.2561 2.14889L88.4319 2.64429L85.7769 1.51794L86.6011 1.02254Z" fill="#F3EF15"/>
<path d="M92.8001 10.0966L91.9759 10.5913L91.5312 7.18027L92.3555 6.68519L92.8001 10.0966Z" fill="#F3EF15"/>
<path d="M91.6294 3.56583L94.2822 5.60812L93.458 6.10352L90.8052 4.06091L89.627 0.495503L90.4508 0.000106335L91.6294 3.56583Z" fill="#F3EF15"/>
<path d="M85.7769 1.51784L88.4319 2.64418L89.6267 0.49538L90.805 4.06079L93.4578 6.10339L91.5312 7.18027L91.9759 10.5913L89.6066 7.69182L87.2291 7.75746L87.6909 4.88765L85.7769 1.51784Z" fill="#F79011"/>
<path d="M138.625 122.607L136.832 122.242L136.395 122.149L131.978 121.255C131.751 121.279 131.55 121.236 131.384 121.136L89.3547 95.8821C89.0297 95.6839 88.8252 95.2686 88.8252 94.6782C88.8252 94.609 88.8284 94.5397 88.8316 94.4704L88.838 94.4045C88.8411 94.3715 88.8443 94.3418 88.8475 94.3118L88.8539 94.2689C88.8603 94.2198 88.8702 94.1703 88.8794 94.1208L88.8922 94.0512L88.8986 94.0153L88.9209 93.9229L88.9432 93.8339L88.956 93.7877L88.9783 93.7085L88.9974 93.6426L89.0261 93.5601L89.0485 93.4975L89.0612 93.4678C89.0804 93.4117 89.1027 93.3556 89.125 93.2996L89.1282 93.293L89.141 93.2662C89.1601 93.2237 89.1792 93.1808 89.1984 93.1346L89.2239 93.0852L89.2494 93.0291L89.2781 92.9763C89.2973 92.9364 89.3164 92.9005 89.3387 92.8609L89.3547 92.8276L89.3611 92.818C89.3929 92.7652 89.422 92.7125 89.4567 92.6597L89.4695 92.6366L89.5046 92.5838L89.562 92.4978L89.5939 92.4486L89.6449 92.3794L89.68 92.3299L89.7279 92.2705C89.7502 92.2408 89.7725 92.2111 89.798 92.1811L89.8299 92.1419L89.8682 92.1023C89.9065 92.0561 89.9479 92.0099 89.9894 91.9671L90.0277 91.9242L90.066 91.8879L90.1266 91.8285C90.1585 91.7952 90.1935 91.7659 90.2286 91.7362L90.2892 91.6834C90.3275 91.6537 90.3658 91.6241 90.4041 91.5944L90.4583 91.5548C90.5157 91.5119 90.5731 91.4756 90.6337 91.439C90.6879 91.4064 90.7453 91.3767 90.7996 91.3503L90.841 91.3302L90.8857 91.3074C90.924 91.2909 90.9622 91.2777 90.9973 91.2645L91.0069 91.2609C91.0388 91.2513 91.0707 91.2415 91.0994 91.2316L91.1409 91.225L91.2142 91.2085L91.2589 91.1986L91.3099 91.1917L91.3641 91.1854L91.396 91.1821C91.4247 91.1821 91.4534 91.1821 91.4822 91.1854H91.5077H91.5172C91.5523 91.1854 91.5906 91.1917 91.6257 91.1986L91.6416 91.2019L91.6735 91.2085L91.7278 91.2217L91.7756 91.2382L91.8043 91.2514L91.8234 91.2579C91.8553 91.2711 91.884 91.2843 91.9127 91.3041L91.9255 91.3074L133.895 116.532L133.933 116.555C134.041 116.615 134.137 116.701 134.217 116.806L134.236 116.829L137.247 120.793L137.496 121.117L138.625 122.607Z" fill="#CCCCC9"/>
<path d="M130.868 117.592C130.872 117.547 130.877 117.503 130.884 117.457C130.891 117.408 130.899 117.358 130.908 117.308C130.915 117.274 130.921 117.24 130.928 117.205C130.935 117.173 130.943 117.141 130.951 117.109C130.962 117.065 130.973 117.02 130.985 116.976L131.008 116.898C131.023 116.848 131.039 116.798 131.057 116.748L131.078 116.687C131.103 116.617 131.129 116.549 131.158 116.481L131.169 116.456C131.195 116.395 131.223 116.335 131.252 116.275L131.279 116.219C131.307 116.162 131.337 116.105 131.368 116.05L131.385 116.018C131.421 115.953 131.46 115.888 131.499 115.826L131.535 115.771C131.564 115.726 131.594 115.681 131.624 115.637L131.675 115.567C131.701 115.53 131.729 115.494 131.756 115.459C131.779 115.429 131.803 115.399 131.827 115.37L131.896 115.289C131.935 115.243 131.976 115.199 132.017 115.156L132.094 115.076L132.155 115.017C132.189 114.985 132.223 114.954 132.258 114.924L132.32 114.871C132.357 114.841 132.395 114.812 132.434 114.783L132.489 114.742C132.546 114.701 132.603 114.663 132.661 114.628C132.718 114.595 132.773 114.566 132.828 114.539L132.871 114.518C132.924 114.494 132.976 114.472 133.027 114.453L133.037 114.45C133.082 114.435 133.126 114.423 133.17 114.412L133.244 114.396C133.276 114.389 133.308 114.384 133.34 114.381L133.395 114.375C133.434 114.372 133.473 114.371 133.511 114.373H133.537C133.584 114.375 133.628 114.382 133.672 114.39L133.703 114.398C133.738 114.406 133.771 114.416 133.803 114.427L133.834 114.439C133.875 114.455 133.915 114.474 133.953 114.497L91.9239 89.2403L91.9137 89.2347C91.8847 89.2176 91.854 89.2021 91.8228 89.1885L91.8049 89.1823L91.774 89.1707L91.7268 89.1539L91.6745 89.1414L91.6423 89.1335L91.625 89.1292C91.5893 89.1229 91.5529 89.1186 91.5153 89.116H91.5083L91.4818 89.1156C91.4534 89.115 91.4247 89.114 91.3954 89.1153L91.3654 89.1183L91.3108 89.1239L91.2601 89.1292L91.2145 89.1394L91.1405 89.1559L91.1003 89.1645C91.0697 89.173 91.0388 89.1833 91.0078 89.1941L90.9983 89.1971C90.9616 89.2103 90.9243 89.2245 90.8866 89.2406L90.8417 89.2621L90.7986 89.2822C90.7437 89.3089 90.6886 89.3379 90.6321 89.3716C90.574 89.4062 90.5163 89.4448 90.4592 89.4854L90.4047 89.5263C90.3661 89.555 90.3281 89.584 90.2905 89.615L90.2286 89.6681C90.1938 89.6981 90.1597 89.7288 90.1259 89.7608L90.065 89.8198L90.0264 89.8571L89.9875 89.8993C89.9463 89.9425 89.9061 89.987 89.8666 90.0329L89.828 90.0754L89.798 90.1134C89.7738 90.1427 89.7505 90.1724 89.7269 90.2024L89.681 90.2605L89.6455 90.3106L89.5951 90.3808L89.5604 90.43L89.5052 90.5148L89.4701 90.5692L89.4551 90.5919C89.4229 90.644 89.3917 90.6968 89.3614 90.7506L89.3556 90.7611L89.3384 90.7935C89.3173 90.8317 89.2963 90.87 89.2762 90.9086L89.25 90.9623L89.2223 91.0187L89.198 91.0679C89.1779 91.1117 89.1588 91.1559 89.1397 91.2001L89.1291 91.2242L89.1263 91.2311C89.1027 91.2869 89.0807 91.3426 89.0596 91.399L89.0488 91.43L89.0274 91.4917L88.9981 91.5758L88.9789 91.6421L88.9559 91.7193L88.9419 91.7674L88.9215 91.8532C88.9135 91.8852 88.9056 91.9172 88.8989 91.9488L88.8906 91.9825L88.8794 92.0517C88.8698 92.1015 88.8612 92.1517 88.8545 92.2011L88.8475 92.2424C88.8437 92.274 88.8418 92.3044 88.8386 92.3357L88.8325 92.402C88.8274 92.4719 88.8242 92.5412 88.8242 92.6095C88.8261 93.2008 89.028 93.6171 89.3534 93.8127L131.383 119.069C131.057 118.873 130.855 118.457 130.854 117.866C130.853 117.797 130.857 117.728 130.862 117.659L130.868 117.592Z" fill="#B54E1F"/>
<path d="M138.626 120.538L136.831 120.173L136.394 120.082L131.977 119.188C131.751 119.211 131.55 119.169 131.383 119.067L131.361 119.056C131.047 118.853 130.854 118.445 130.854 117.864C130.85 116.676 131.66 115.225 132.659 114.629C133.1 114.365 133.502 114.312 133.819 114.433C133.976 114.489 134.111 114.595 134.217 114.738L134.235 114.761L137.247 118.724L137.495 119.048L138.626 120.538Z" fill="#F57615"/>
<path d="M138.625 120.538L136.831 120.173L136.394 120.082C136.55 119.55 136.853 119.078 137.247 118.724L137.495 119.048L138.625 120.538Z" fill="#B54E1F"/>
<path d="M35.051 94.0863L17.9697 83.8885L0.0239258 94.6724L17.1053 104.87L35.051 94.0863Z" fill="#CCCCC9"/>
<path d="M17.1056 93.5982L17.082 102.289L35.0275 91.5055L35.0514 82.8143L17.1056 93.5982Z" fill="#D97D19"/>
<path d="M0.0237937 83.4004L0 92.0916L17.0815 102.289L17.1051 93.5982L0.0237937 83.4004Z" fill="#A6601D"/>
<path d="M35.051 82.8142L17.9697 72.6164L0.0239258 83.4003L17.1053 93.5981L35.051 82.8142Z" fill="#F79011"/>
<path d="M35.051 82.8142L17.9697 72.6164L0.0239258 83.4003L17.1053 93.5981L35.051 82.8142Z" fill="#F79011"/>
<path d="M26.906 84.7372L25.7323 85.4437L13.3447 78.0491L14.5217 77.3429L26.906 84.7372Z" fill="#F9B740"/>
<path d="M29.4971 83.1819L28.3201 83.8884L15.9326 76.4938L17.1128 75.7873L29.4971 83.1819Z" fill="#F9B740"/>
<path d="M24.3181 86.2926L23.1412 86.9988L10.7568 79.6044L11.9303 78.898L24.3181 86.2926Z" fill="#F9B740"/>
<path d="M21.73 87.8477L20.5502 88.5571L8.16553 81.1625L9.3425 80.453L21.73 87.8477Z" fill="#F9B740"/>
<path d="M19.1398 89.4029L17.9628 90.1123L5.57861 82.718L6.75526 82.0085L19.1398 89.4029Z" fill="#F9B740"/>
<path d="M24.5858 89.1031C24.5858 89.1031 21.9256 90.1655 18.9411 90.1166C15.9566 90.0675 8.05461 88.5299 7.03125 87.5843C7.03125 87.5843 11.2028 90.0913 14.6297 91.0052C18.6394 92.0745 23.219 90.1965 24.5858 89.1031Z" fill="#D97D19"/>
<path d="M24.5858 89.1031C24.5858 89.1031 19.4632 90.8205 17.0816 85.66C17.0816 85.66 12.3293 90.234 7.03125 87.5842C7.03125 87.5842 15.199 93.0115 24.5858 89.1031Z" fill="#F8D024"/>
<path d="M57.2924 98.8774L57.2124 98.8758L57.0905 98.8711C57.0609 98.8692 57.0319 98.8692 57.0025 98.8675C56.9569 98.8642 56.9129 98.8606 56.8689 98.8576L56.7923 98.8524C56.7403 98.8471 56.6883 98.8425 56.636 98.8372L56.5856 98.8319C56.5155 98.8237 56.4472 98.8154 56.3786 98.8052L56.3461 98.8002C56.2858 98.7903 56.2274 98.7814 56.1703 98.7715L56.097 98.7564C56.0514 98.7481 56.0074 98.7395 55.9637 98.7313L55.8951 98.7142C55.8463 98.7043 55.7975 98.6924 55.7487 98.6805L55.6689 98.6604C55.6249 98.6488 55.5809 98.637 55.5385 98.6235L55.4651 98.603C55.3953 98.5812 55.3283 98.5591 55.26 98.5374L55.2243 98.5242C55.1478 98.4971 55.0712 98.4684 54.9962 98.4381C54.9653 98.4262 54.936 98.413 54.905 98.4011L54.8336 98.3708C54.7991 98.3556 54.7666 98.3388 54.7325 98.3233L54.6674 98.2933C54.6314 98.2748 54.5956 98.256 54.5615 98.2379L54.506 98.2092C54.454 98.1805 54.4017 98.1518 54.3513 98.1215C54.2977 98.0895 54.2473 98.0578 54.1966 98.0238L54.1478 97.9902C54.1153 97.9681 54.0827 97.9463 54.0534 97.9246L53.9998 97.8827L53.9181 97.82L53.8662 97.7745L53.7944 97.7141L53.7424 97.665L53.6805 97.6046L53.6317 97.5538L53.5746 97.4935L53.5322 97.4414L53.4802 97.379L53.4429 97.3249L53.3957 97.2629L53.3612 97.2092L53.3223 97.1448L53.2914 97.0891L53.2573 97.0255L53.2311 96.9681L53.2018 96.9041L53.1804 96.845L53.1577 96.783L53.1399 96.7223L53.122 96.6584L53.1105 96.5993L53.0975 96.5357L53.0895 96.4746L53.0828 96.411L53.0796 96.35L53.0764 96.2863L53.0748 97.7382L53.0723 97.7369L53.0739 96.2863V96.2794C53.077 95.6211 53.4939 94.966 54.3293 94.464C55.1698 93.9591 56.2734 93.7064 57.3783 93.7064C57.3786 93.7064 57.3789 93.7064 57.3795 93.7064C56.275 93.7068 55.172 93.9594 54.3318 94.464C53.4965 94.966 53.0796 95.6211 53.0764 96.2794V96.2863L53.0796 96.35L53.0828 96.411L53.0895 96.4746L53.0975 96.5357L53.1105 96.5993L53.122 96.6584L53.1399 96.7223L53.1577 96.783L53.1804 96.845L53.2018 96.9041L53.2311 96.9681L53.2573 97.0255L53.2914 97.0891L53.3223 97.1448L53.3612 97.2092L53.3957 97.2629L53.4429 97.3249L53.4802 97.379L53.5322 97.4414L53.5746 97.4935L53.6317 97.5538L53.6805 97.6046L53.7424 97.665L53.7944 97.7141L53.8662 97.7745L53.9181 97.82L53.9998 97.8827L54.0534 97.9246C54.0827 97.9463 54.1153 97.9681 54.1478 97.9902L54.1966 98.0238C54.2473 98.0578 54.2977 98.0895 54.3513 98.1215C54.4017 98.1518 54.454 98.1805 54.506 98.2092L54.5615 98.2379C54.5956 98.256 54.6314 98.2748 54.6674 98.2933L54.7325 98.3233C54.7666 98.3388 54.7991 98.3556 54.8336 98.3708L54.905 98.4011C54.936 98.413 54.9653 98.4262 54.9962 98.4381C55.0712 98.4684 55.1478 98.4971 55.2243 98.5242L55.26 98.5374C55.3283 98.5591 55.3953 98.5812 55.4651 98.603L55.5385 98.6235C55.5809 98.637 55.6249 98.6488 55.6689 98.6604L55.7487 98.6805C55.7975 98.6924 55.8463 98.7043 55.8951 98.7142L55.9637 98.7313C56.0074 98.7395 56.0514 98.7481 56.097 98.7564L56.1703 98.7715C56.2274 98.7814 56.2858 98.7903 56.3461 98.8002L56.3786 98.8052C56.4472 98.8154 56.5155 98.8237 56.5856 98.8319L56.636 98.8372C56.6883 98.8425 56.7403 98.8471 56.7923 98.8524L56.8689 98.8576C56.9129 98.8606 56.9569 98.8642 57.0025 98.8675C57.0319 98.8692 57.0609 98.8692 57.0905 98.8711L57.2124 98.8758L57.2924 98.8774Z" fill="#CCCCC9"/>
<path d="M53.0732 99.4083C53.0723 99.4077 53.0717 99.407 53.0708 99.4063L53.0723 97.7368L53.0748 97.7381L53.0732 99.4063V99.4083Z" fill="#96611D"/>
<path d="M106.054 135.042C101.278 132.19 93.5613 132.19 88.8158 135.042C84.0703 137.894 84.0952 142.515 88.8719 145.367C93.6455 148.217 101.362 148.217 106.108 145.365C110.853 142.513 110.828 137.892 106.054 135.042Z" fill="#CCCCC9"/>
<path d="M100.829 139.965C100.829 139.965 103.703 138.436 105.285 138.9C106.868 139.366 106.401 140.726 106.108 141.283C105.814 141.84 101.927 144.496 99.8356 144.627C97.2976 144.786 98.5103 140.839 98.5103 140.839L100.829 139.965Z" fill="#141922"/>
<path d="M92.3776 137.056C92.3776 137.056 95.2514 135.526 96.8338 135.991C98.4159 136.456 97.9499 137.816 97.6558 138.373C97.3617 138.931 93.4748 141.586 91.384 141.718C88.8457 141.877 90.0587 137.929 90.0587 137.929L92.3776 137.056Z" fill="#141922"/>
<path d="M98.6224 104.671C98.6224 104.671 98.4696 105.951 98.2205 108.013C97.2161 116.344 94.6385 137.485 94.2816 138.663C94.2653 138.709 94.2497 138.755 94.2306 138.798C93.9371 139.454 93.0951 139.741 92.1921 139.741H92.1414C91.3471 139.705 90.5274 139.425 90.0327 138.966C89.7999 138.755 89.8477 137.017 89.8732 134.382C90.0008 124.497 91.2068 102.187 91.2068 102.187L98.6224 104.671Z" fill="#1A294A"/>
<path d="M92.331 139.744C92.2851 139.744 92.2392 139.743 92.1926 139.741C93.0956 139.741 93.9377 139.454 94.2311 138.798C93.9469 139.455 93.1693 139.744 92.331 139.744Z" fill="#14171C"/>
<path d="M92.1929 139.741H92.1422C91.348 139.705 90.5282 139.425 90.0335 138.966C89.9764 138.914 89.9363 138.771 89.9085 138.544C89.8651 138.192 89.8521 137.641 89.8521 136.924C89.8521 136.223 89.8648 135.364 89.8741 134.382C90.0686 134.425 90.2559 134.446 90.4351 134.446C91.9652 134.446 92.9498 132.937 93.4468 131.446C93.9667 129.879 95.6045 116.914 96.3554 110.825C96.4533 113.577 96.579 116.869 96.7273 120.256C95.9736 126.354 95.172 132.702 94.6891 136.134C94.4926 137.53 94.3488 138.443 94.2824 138.663C94.2662 138.709 94.2505 138.755 94.2314 138.798C93.938 139.454 93.0959 139.741 92.1929 139.741Z" fill="#142239"/>
<path d="M101.135 74.9077C101.135 74.9077 101.542 77.7076 100.647 78.0892C99.7523 78.4704 98.2066 77.7554 97.5559 76.9562C96.9049 76.157 97.5559 72.4139 97.5559 72.4139L101.135 74.9077Z" fill="#F57559"/>
<path d="M103.71 68.545C103.71 68.545 104.623 67.2257 104.143 65.4381C103.663 63.6508 102.193 63.5518 102.193 63.5518C102.193 63.5518 101.454 65.3391 99.1491 65.5875C96.8446 65.8352 94.7127 67.4243 95.4186 70.9494C96.1241 74.4746 100.569 74.6626 100.569 74.6626L101.886 72.9851L103.71 68.545Z" fill="#1A294A"/>
<path d="M118.035 81.4117C118.035 81.4117 118.717 80.6534 118.869 80.0785C119.02 79.5036 118.97 78.0135 119.855 78.0923C120.739 78.1705 121.447 79.4776 121.295 80.6273C121.144 81.7774 119.045 82.98 119.045 82.98L118.035 81.4117Z" fill="#F68B72"/>
<path d="M105.028 103.592C105.028 103.592 103.428 140.331 102.55 141.354C101.671 142.379 98.7313 141.944 98.2203 141.184C97.9919 140.845 97.7671 137.784 97.4618 133.66C96.6644 122.677 96.1187 103.592 96.1187 103.592H105.028Z" fill="#1A294A"/>
<path d="M100.689 141.957C99.6331 141.957 98.5174 141.625 98.2204 141.184C98.0848 140.983 97.9506 139.824 97.8 138.053C97.7592 137.573 97.7174 137.048 97.6737 136.485C97.607 135.624 97.5372 134.674 97.4619 133.66C98.6813 132.71 100.027 133.544 101.416 129.428C103.235 124.044 103.656 104.19 103.656 104.19C103.656 104.19 103.826 103.953 104.1 103.592H105.028C105.028 103.592 105.002 104.197 104.954 105.255C104.629 112.438 103.315 140.462 102.55 141.354C102.181 141.784 101.451 141.957 100.689 141.957Z" fill="#142239"/>
<path d="M91.7845 77.4617C91.7778 77.4884 89.0586 83.6544 88.5923 85.4104C88.126 87.1664 93.2874 94.225 93.2874 94.225C93.2874 94.225 95.4516 90.2308 95.4184 90.0586C95.3852 89.8865 93.9531 84.825 93.6871 84.5839C93.4204 84.3431 91.7845 77.4617 91.7845 77.4617Z" fill="#1A294A"/>
<path d="M95.2319 74.9117C94.5598 74.9579 92.085 75.0667 91.6799 77.9989C91.2749 80.9317 92.166 94.4205 92.085 96.2635C92.004 98.1069 91.1938 102.631 91.1938 102.631C91.1938 102.631 96.9463 108.664 105.616 104.558C105.616 104.558 104.968 98.9447 105.049 96.6827C105.13 94.4205 105.778 82.4396 105.616 80.9317C105.454 79.4234 97.5313 74.7547 95.2319 74.9117Z" fill="#243B73"/>
<path d="M104.372 79.8755C103.784 79.9544 102.58 80.1605 102.213 81.6784C101.846 83.1956 106.568 92.9085 108.948 93.4537C110.963 93.9152 119.733 82.84 119.733 82.84C119.733 82.84 118.953 81.2275 117.898 81.1803L109.93 88.5004C109.93 88.5004 106.165 79.6351 104.372 79.8755Z" fill="#1A294A"/>
<path d="M102.589 74.9465C102.231 75.2714 101.769 75.3591 101.279 75.273C101.06 75.2347 100.862 75.1114 100.726 74.931C100.078 74.0751 100.09 72.8521 100.09 72.8521C99.3804 72.6295 98.8569 70.6518 99.6298 70.4948C100.398 70.3329 100.789 71.8606 100.789 71.8606L101.078 71.734C100.892 71.0664 101.229 70.9704 101.66 70.7175C102.09 70.4596 101.694 69.4077 102.154 68.9978C102.452 68.7349 103.083 68.3757 103.504 68.1531C103.538 68.6336 103.841 73.8033 102.589 74.9465Z" fill="#F68B72"/>
<path d="M190.632 116.81C192.152 113.356 190.639 109.516 186.101 106.806C179.327 102.762 168.379 102.763 161.649 106.808C154.92 110.851 154.954 117.408 161.729 121.452C166.267 124.161 172.682 125.056 178.444 124.134L173.913 114.13L190.632 116.81Z" fill="#CCCCC9"/>
<path d="M176.775 115.838L181.304 125.842C184.142 125.389 186.821 124.495 189.041 123.161C191.262 121.826 192.746 120.219 193.492 118.518L176.775 115.838Z" fill="#CCCCC9"/>
<path d="M191.197 107.903C191.192 108.055 191.182 108.207 191.165 108.359L191.163 108.376C191.146 108.523 191.123 108.67 191.096 108.816C191.09 108.852 191.083 108.887 191.076 108.922C191.046 109.07 191.012 109.218 190.971 109.365L190.955 109.422C190.917 109.555 190.874 109.688 190.827 109.82C190.815 109.855 190.803 109.891 190.79 109.926C190.741 110.058 190.689 110.189 190.632 110.32L173.913 107.64L173.902 111.672L190.621 114.352C190.678 114.221 190.73 114.09 190.779 113.958L190.797 113.913L190.816 113.852C190.863 113.72 190.906 113.587 190.944 113.454L190.961 113.398C191.001 113.25 191.035 113.102 191.065 112.954L191.076 112.907L191.085 112.849C191.112 112.702 191.135 112.556 191.152 112.409L191.155 112.391C191.171 112.24 191.18 112.088 191.186 111.936L191.19 111.881C191.191 111.828 191.192 111.775 191.192 111.722L191.203 107.69C191.203 107.762 191.199 107.832 191.197 107.903Z" fill="#9F1830"/>
<path d="M177.207 117.81C176.978 117.836 176.749 117.858 176.519 117.878C176.386 117.89 176.253 117.903 176.12 117.912C175.888 117.93 175.656 117.943 175.424 117.954C175.308 117.96 175.193 117.968 175.078 117.972C174.742 117.985 174.405 117.993 174.069 117.994C174.009 117.994 173.948 117.992 173.888 117.992C173.608 117.991 173.327 117.987 173.047 117.978C172.943 117.975 172.839 117.97 172.734 117.965C172.494 117.955 172.253 117.942 172.013 117.925C171.908 117.918 171.803 117.911 171.699 117.904C171.403 117.88 171.108 117.852 170.814 117.82C170.776 117.816 170.739 117.813 170.701 117.809C170.372 117.771 170.045 117.726 169.72 117.677C169.618 117.661 169.518 117.644 169.416 117.627C169.184 117.59 168.953 117.549 168.723 117.506C168.61 117.484 168.498 117.462 168.385 117.439C168.172 117.396 167.961 117.349 167.75 117.301C167.623 117.271 167.497 117.243 167.371 117.212C167.149 117.157 166.929 117.097 166.709 117.037C166.605 117.008 166.5 116.982 166.397 116.951C166.25 116.909 166.107 116.861 165.963 116.815C165.758 116.752 165.553 116.689 165.352 116.62C165.205 116.569 165.062 116.514 164.917 116.461C164.726 116.39 164.534 116.32 164.347 116.245C164.074 116.136 163.805 116.024 163.541 115.904C163.501 115.886 163.464 115.868 163.425 115.849C163.185 115.739 162.95 115.624 162.718 115.505C162.647 115.469 162.576 115.432 162.505 115.395C162.242 115.255 161.981 115.113 161.728 114.962C158.32 112.926 156.617 110.256 156.625 107.589L156.614 111.621C156.606 114.288 158.308 116.959 161.718 118.994C161.97 119.145 162.231 119.288 162.495 119.428C162.565 119.465 162.636 119.501 162.707 119.538C162.938 119.656 163.174 119.771 163.413 119.882C163.452 119.9 163.491 119.919 163.53 119.937C163.758 120.039 163.989 120.139 164.223 120.235C164.259 120.25 164.298 120.263 164.336 120.278C164.523 120.353 164.715 120.423 164.907 120.493C165.052 120.546 165.195 120.601 165.341 120.652C165.543 120.721 165.748 120.785 165.954 120.849C166.074 120.886 166.191 120.928 166.313 120.964L166.385 120.984C166.49 121.014 166.595 121.041 166.7 121.07C166.919 121.13 167.138 121.19 167.36 121.244C167.486 121.275 167.613 121.303 167.74 121.333C167.867 121.362 167.993 121.394 168.121 121.422C168.205 121.44 168.29 121.454 168.374 121.472C168.487 121.494 168.599 121.517 168.713 121.538C168.942 121.582 169.173 121.622 169.405 121.66C169.506 121.676 169.607 121.694 169.708 121.709C169.749 121.715 169.789 121.723 169.83 121.729C170.116 121.771 170.402 121.808 170.69 121.841C170.728 121.845 170.765 121.848 170.802 121.852C171.038 121.878 171.274 121.903 171.51 121.923C171.57 121.928 171.629 121.931 171.688 121.936C171.793 121.944 171.897 121.95 172.001 121.958C172.242 121.974 172.482 121.987 172.724 121.998C172.828 122.002 172.932 122.007 173.036 122.01C173.094 122.012 173.152 122.016 173.21 122.017C173.432 122.023 173.653 122.024 173.875 122.024C173.936 122.025 173.997 122.027 174.058 122.026C174.366 122.025 174.673 122.02 174.98 122.009L175.066 122.005C175.182 122 175.299 121.992 175.415 121.987C175.646 121.975 175.877 121.962 176.108 121.945C176.242 121.935 176.375 121.922 176.509 121.911C176.638 121.899 176.768 121.891 176.897 121.878C176.996 121.867 177.095 121.854 177.195 121.843C177.284 121.832 177.374 121.822 177.463 121.811C177.787 121.771 178.11 121.728 178.43 121.676L178.433 121.676L178.444 117.644C178.123 117.695 177.799 117.739 177.474 117.779C177.385 117.79 177.296 117.8 177.207 117.81Z" fill="#9F1830"/>
<path d="M186.101 100.316C179.327 96.2714 168.379 96.2734 161.649 100.318C154.92 104.361 154.954 110.917 161.729 114.962C166.267 117.671 172.682 118.566 178.444 117.644L173.913 107.64L190.632 110.32C192.152 106.865 190.639 103.025 186.101 100.316Z" fill="#EE1F59"/>
<path d="M193.481 116.06L193.492 112.028C193.448 112.13 193.4 112.231 193.35 112.333C193.333 112.367 193.315 112.4 193.298 112.433C193.265 112.498 193.231 112.563 193.196 112.628C193.11 112.785 193.015 112.941 192.916 113.096C192.897 113.125 192.878 113.155 192.858 113.185C192.757 113.339 192.651 113.491 192.537 113.641C192.502 113.688 192.466 113.734 192.43 113.78C192.39 113.83 192.35 113.881 192.309 113.932C192.268 113.981 192.225 114.031 192.183 114.081C192.141 114.131 192.098 114.181 192.054 114.231C192.01 114.28 191.965 114.329 191.92 114.378C191.874 114.427 191.829 114.477 191.782 114.526C191.735 114.574 191.687 114.622 191.639 114.67C191.591 114.719 191.542 114.768 191.492 114.816C191.461 114.847 191.427 114.877 191.395 114.907C191.277 115.02 191.154 115.131 191.027 115.241L190.947 115.31C190.801 115.435 190.65 115.558 190.493 115.679C190.457 115.707 190.421 115.734 190.385 115.762C190.242 115.87 190.096 115.977 189.945 116.083L189.871 116.136C189.701 116.253 189.524 116.369 189.344 116.483C189.244 116.546 189.144 116.609 189.041 116.671C188.756 116.843 188.462 117.006 188.162 117.163C188.062 117.216 187.957 117.263 187.855 117.314C187.652 117.415 187.45 117.517 187.242 117.612C187.117 117.669 186.987 117.72 186.86 117.775C186.669 117.857 186.479 117.94 186.283 118.017C186.145 118.071 186.003 118.121 185.862 118.173C185.673 118.242 185.484 118.313 185.291 118.378C185.007 118.474 184.721 118.566 184.43 118.651L184.412 118.657C184.108 118.746 183.8 118.828 183.489 118.905C183.394 118.929 183.297 118.951 183.201 118.974C182.979 119.026 182.756 119.076 182.531 119.123C182.424 119.146 182.318 119.168 182.211 119.188C181.91 119.247 181.609 119.303 181.305 119.352L181.294 123.384C181.523 123.348 181.75 123.308 181.977 123.266C182.052 123.252 182.126 123.235 182.2 123.221C182.307 123.2 182.413 123.178 182.519 123.156C182.744 123.109 182.969 123.059 183.191 123.005C183.287 122.983 183.383 122.962 183.478 122.938C183.789 122.86 184.098 122.778 184.402 122.689L184.416 122.685C184.672 122.609 184.927 122.531 185.178 122.447C185.213 122.436 185.246 122.422 185.28 122.41C185.472 122.346 185.661 122.275 185.85 122.206C185.991 122.153 186.133 122.104 186.273 122.049C186.468 121.972 186.658 121.889 186.849 121.807C186.976 121.753 187.105 121.701 187.23 121.644C187.44 121.549 187.643 121.447 187.846 121.345C187.947 121.295 188.051 121.248 188.151 121.195C188.451 121.039 188.745 120.875 189.03 120.703C189.114 120.653 189.197 120.602 189.279 120.551L189.333 120.515C189.514 120.401 189.69 120.285 189.86 120.168L189.934 120.116C190.085 120.01 190.231 119.902 190.374 119.794C190.41 119.767 190.446 119.739 190.482 119.712C190.639 119.59 190.79 119.467 190.936 119.342L191.016 119.274C191.143 119.163 191.265 119.052 191.384 118.939L191.442 118.888L191.481 118.849C191.531 118.8 191.58 118.751 191.628 118.702C191.676 118.654 191.724 118.607 191.77 118.558C191.818 118.509 191.863 118.459 191.909 118.41C191.954 118.361 191.999 118.312 192.043 118.263C192.087 118.213 192.13 118.163 192.172 118.113C192.215 118.063 192.257 118.014 192.298 117.964C192.339 117.913 192.379 117.863 192.419 117.811C192.448 117.774 192.479 117.738 192.507 117.7L192.526 117.674C192.639 117.523 192.746 117.371 192.847 117.218C192.867 117.188 192.886 117.158 192.905 117.128C193.004 116.973 193.098 116.817 193.185 116.66L193.195 116.642C193.228 116.583 193.257 116.523 193.287 116.464C193.304 116.432 193.322 116.399 193.339 116.366C193.389 116.264 193.437 116.162 193.481 116.06Z" fill="#BF7B1C"/>
<path d="M176.775 109.348L176.764 113.381L181.294 123.384L181.305 119.352L176.775 109.348Z" fill="#BF7B1C"/>
<path d="M176.775 109.348L181.304 119.352C184.142 118.899 186.821 118.005 189.041 116.671C191.262 115.336 192.746 113.729 193.492 112.027L176.775 109.348Z" fill="#F8A60E"/>
<path d="M182.183 82.1203C182.183 83.6174 181.861 84.8203 181.222 85.7223C180.59 86.6247 179.73 87.1281 178.655 87.2326C178.516 87.2458 178.377 87.2521 178.238 87.2521C177.277 87.2521 176.24 86.9255 175.14 86.2652C173.876 85.5136 172.706 84.4347 171.638 83.0419C170.563 81.6497 169.71 80.1265 169.083 78.4725C168.464 76.8316 168.148 75.2692 168.148 73.785V73.7392C168.148 72.2358 168.47 71.033 169.109 70.1309C169.741 69.2288 170.601 68.7252 171.676 68.614C172.75 68.5095 173.926 68.8301 175.184 69.588C176.449 70.34 177.625 71.4123 178.693 72.811C179.768 74.2036 180.621 75.7267 181.247 77.3808C181.873 79.0348 182.189 80.6167 182.183 82.1203Z" fill="white"/>
<path d="M179.559 78.7601L174.331 81.8393C174.255 81.9112 174.154 81.9046 174.021 81.8261C173.889 81.748 173.781 81.6299 173.711 81.4732L170.778 76.2171C170.683 76.0667 170.633 75.9163 170.633 75.7593C170.633 75.6027 170.683 75.511 170.778 75.4783L171.404 75.073C171.499 75.0205 171.606 75.0275 171.726 75.099C171.853 75.1709 171.96 75.2953 172.055 75.4655L174.027 78.9956L178.289 76.4916C178.384 76.4328 178.491 76.4394 178.611 76.5113C178.737 76.5898 178.845 76.7073 178.94 76.8774L179.559 78.0216C179.654 78.1717 179.699 78.3221 179.699 78.4787C179.699 78.6357 179.654 78.7274 179.559 78.7601ZM181.247 77.3808C180.621 75.7267 179.768 74.2036 178.693 72.811C177.625 71.4123 176.449 70.34 175.184 69.588C173.926 68.8301 172.75 68.5095 171.676 68.614C170.601 68.7252 169.741 69.2288 169.109 70.1309C168.47 71.033 168.148 72.2358 168.148 73.7392V73.785C168.148 75.2692 168.464 76.8316 169.083 78.4725C169.71 80.1265 170.563 81.6497 171.638 83.0419C172.706 84.4347 173.876 85.5136 175.14 86.2652C176.24 86.9255 177.277 87.2521 178.238 87.2521C178.377 87.2521 178.516 87.2458 178.655 87.2326C179.73 87.1281 180.59 86.6247 181.222 85.7223C181.861 84.8203 182.183 83.6174 182.183 82.1203C182.189 80.6167 181.873 79.0348 181.247 77.3808Z" fill="#3AA2A9"/>
<path d="M182.183 59.033C182.183 60.537 181.861 61.7333 181.222 62.6353C180.59 63.5377 179.73 64.0411 178.655 64.1522C178.523 64.1651 178.39 64.172 178.257 64.172C177.29 64.172 176.246 63.8448 175.14 63.1779C173.876 62.4262 172.706 61.3543 171.638 59.9618C170.563 58.5689 169.71 57.0395 169.083 55.3855C168.458 53.7512 168.148 52.1888 168.148 50.698V50.6522C168.148 49.1488 168.47 47.9456 169.103 47.0439C169.741 46.1481 170.595 45.6382 171.676 45.5336C172.75 45.4225 173.926 45.7431 175.184 46.501C176.449 47.253 177.619 48.3315 178.693 49.724C179.768 51.1166 180.621 52.6397 181.247 54.2934C181.873 55.9475 182.189 57.5297 182.183 59.033Z" fill="#EE1F59"/>
<path d="M179.339 54.6394L177.612 51.545L175.17 52.9837L172.746 48.6399L171.008 49.6656L173.433 54.0071L170.992 55.4458L172.718 58.5389L175.159 57.1005L177.585 61.4443L179.323 60.4196L176.898 56.0761L179.339 54.6394Z" fill="white"/>
</svg>
