<svg width="268" height="262" viewBox="0 0 268 262" fill="none" xmlns="http://www.w3.org/2000/svg">
<rect width="268" height="262" rx="30" fill="#5186EB" fill-opacity="0.28"/>
<path d="M204.192 178.188L192.937 185.304L201.612 190.788H210.361L204.192 178.188Z" fill="#221C3A"/>
<path d="M210.361 190.82H201.612C201.597 190.816 192.922 185.332 192.922 185.332C192.913 185.326 192.907 185.315 192.907 185.304C192.907 185.292 192.913 185.282 192.922 185.276L204.177 178.161C204.218 178.174 210.387 190.773 210.387 190.773C210.392 190.783 210.392 190.795 210.386 190.805C210.381 190.814 210.371 190.82 210.361 190.82ZM201.62 190.755H210.31L204.18 178.233L192.995 185.303L201.62 190.755Z" fill="#221C3A"/>
<path d="M223.946 227.698C216.796 227.698 205.537 227.655 202.373 223.481C196.845 216.187 222.422 213.991 227.801 217.244C228.913 217.916 229.014 220.543 228.537 220.806C228.47 220.843 227.958 220.875 227.348 220.901C225.835 220.965 223.946 227.698 223.946 227.698Z" fill="#221C3A"/>
<path d="M223.946 227.731C217.068 227.731 205.556 227.731 202.351 223.501C201.39 222.233 201.31 221.049 202.115 219.983C203.625 217.986 208.283 216.471 214.575 215.93C220.396 215.429 225.717 215.946 227.815 217.215C228.509 217.635 228.854 218.866 228.836 219.865C228.826 220.38 228.72 220.743 228.55 220.835C228.527 220.848 228.456 220.887 227.349 220.933C225.875 220.996 223.993 227.641 223.975 227.708C223.971 227.722 223.959 227.731 223.946 227.731ZM218.881 215.807C217.509 215.807 216.061 215.868 214.58 215.995C208.303 216.535 203.661 218.042 202.161 220.026C201.377 221.064 201.456 222.219 202.396 223.46C205.581 227.662 217.055 227.666 223.924 227.666C224.067 227.164 225.86 220.932 227.346 220.869C228.298 220.829 228.493 220.794 228.524 220.776C228.671 220.696 228.768 220.346 228.777 219.864C228.795 218.885 228.46 217.68 227.786 217.273C226.23 216.332 222.886 215.807 218.881 215.807Z" fill="#221C3A"/>
<path d="M165.705 225.583C165.705 225.583 149.765 225.545 146.334 229.296C143.738 232.134 149.343 234.092 158.746 233.437C158.942 233.423 159.277 230.74 159.277 230.74L169.182 230.275C169.492 230.245 165.705 225.583 165.705 225.583Z" fill="#221C3A"/>
<path d="M155.26 233.596C150.075 233.596 146.412 232.68 145.768 231.117C145.532 230.546 145.716 229.926 146.313 229.273C148.091 227.329 153.272 226.421 157.303 226.001C161.554 225.559 165.456 225.552 165.693 225.552C166.327 226.302 169.323 230.008 169.226 230.276C169.22 230.294 169.205 230.306 169.186 230.308L159.303 230.771C159.219 231.437 158.949 233.456 158.748 233.47C157.527 233.555 156.359 233.596 155.26 233.596ZM165.691 225.616C165.151 225.617 149.696 225.667 146.356 229.319C145.777 229.951 145.598 230.547 145.822 231.09C146.184 231.967 147.612 232.681 149.843 233.101C152.188 233.541 155.264 233.646 158.744 233.405C158.855 233.363 159.088 232.015 159.247 230.735C159.25 230.72 159.261 230.708 159.276 230.707L169.171 230.244C169.154 229.97 167.095 227.344 165.691 225.616Z" fill="#221C3A"/>
<path d="M125.507 51.1323C125.027 51.0657 124.521 51.1747 124.034 51.4822L36.779 106.963C35.3078 107.893 34.5657 110.294 35.1242 112.339L56.3568 190.089C56.7288 191.451 57.5878 192.302 58.557 192.436L59.4077 192.565L126.357 51.2615L125.507 51.1323Z" fill="#5186EB"/>
<path d="M149.796 131.365L128.564 53.6151C128.005 51.5702 126.356 50.6812 124.884 51.6113L37.6294 107.092C36.1576 108.022 35.4161 110.423 35.9746 112.468L57.2072 190.218C57.7628 192.253 59.4044 193.146 60.8756 192.216L148.131 136.734C149.602 135.805 150.351 133.399 149.796 131.365Z" fill="#221C3A"/>
<path d="M59.6765 192.617C59.3999 192.617 59.1251 192.56 58.861 192.445C58.0843 192.106 57.4709 191.298 57.1788 190.228L35.9463 112.478C35.3865 110.428 36.1346 108 37.6147 107.064L124.869 51.5835C125.525 51.1684 126.249 51.0972 126.905 51.3837C127.684 51.7225 128.299 52.5325 128.592 53.6062L149.824 131.356C150.382 133.4 149.629 135.826 148.145 136.764L60.8902 192.245C60.5003 192.492 60.086 192.617 59.6765 192.617ZM126.087 51.276C125.687 51.276 125.282 51.3981 124.9 51.6396L37.6445 107.121C36.1877 108.042 35.4509 110.437 36.0035 112.46L57.2361 190.21C57.5228 191.262 58.1237 192.055 58.8837 192.385C59.5203 192.663 60.2225 192.593 60.861 192.19L148.115 136.708C149.578 135.784 150.319 133.392 149.767 131.375L128.535 53.6244C128.247 52.5703 127.645 51.7754 126.883 51.4438C126.625 51.3315 126.357 51.276 126.087 51.276Z" fill="#221C3A"/>
<path d="M60.6974 192.713L60.6914 194.922C60.6896 195.527 61.0532 196.134 61.7829 196.595L117.365 231.732C118.819 232.651 121.174 232.647 122.619 231.727L208.394 177.148C209.112 176.691 209.471 176.093 209.473 175.496L209.479 173.286L60.6974 192.713Z" fill="#5186EB"/>
<path d="M208.383 171.611L152.801 136.474C151.347 135.555 149 135.555 147.555 136.474L61.7796 191.053C60.3352 191.972 60.3346 193.466 61.7891 194.385L117.371 229.523C118.825 230.442 121.181 230.437 122.625 229.517L208.401 174.938C209.845 174.019 209.837 172.53 208.383 171.611Z" fill="white"/>
<path d="M176.796 193.952L154.582 207.995L153.953 209.574L155.516 209.672L177.659 195.674L178.747 193.81L176.796 193.952Z" fill="#5186EB"/>
<path d="M145.753 142.978L144.743 142.34C144.517 142.196 144.229 142.118 143.932 142.118C143.66 142.118 143.402 142.186 143.207 142.309L70.7119 188.37C70.4764 188.521 70.3423 188.747 70.3423 188.993C70.3423 189.254 70.4955 189.5 70.7619 189.669L71.7717 190.307C71.9971 190.449 72.2856 190.527 72.5848 190.527C72.8567 190.527 73.1142 190.46 73.3073 190.338L145.803 144.277C146.037 144.128 146.171 143.902 146.169 143.656C146.17 143.392 146.018 143.145 145.753 142.978ZM145.675 144.032L73.1785 190.092C72.8411 190.307 72.2659 190.292 71.9023 190.062L70.8931 189.424C70.5217 189.189 70.5044 188.829 70.8418 188.615L143.338 142.554C143.675 142.339 144.243 142.349 144.614 142.584L145.623 143.222C145.987 143.452 146.012 143.817 145.675 144.032Z" fill="#E6E1D7"/>
<path d="M144.6 148.276L147.753 150.27C148.117 150.499 148.691 150.514 149.029 150.3L152.507 148.086C152.666 147.985 152.745 147.851 152.745 147.712L152.747 146.95C152.746 147.088 152.668 147.223 152.509 147.324L149.031 149.537C148.694 149.752 148.118 149.737 147.755 149.507L144.602 147.514C144.407 147.391 144.309 147.233 144.31 147.08L144.308 147.842C144.308 147.995 144.405 148.153 144.6 148.276Z" fill="#221C3A"/>
<path d="M138.979 151.853L142.132 153.846C142.495 154.076 143.07 154.091 143.408 153.876L146.886 151.664C147.048 151.561 147.126 151.427 147.126 151.29L147.128 150.527C147.128 150.665 147.049 150.798 146.887 150.901L143.41 153.115C143.072 153.329 142.497 153.314 142.133 153.085L138.981 151.091C138.786 150.968 138.688 150.81 138.689 150.657L138.687 151.42C138.686 151.572 138.784 151.73 138.979 151.853Z" fill="#221C3A"/>
<path d="M149.84 150.578L149.838 151.34C149.838 151.492 149.934 151.648 150.123 151.768L153.284 153.766C153.647 153.995 154.214 154.005 154.552 153.79L158.03 151.578C158.191 151.475 158.271 151.339 158.271 151.201L158.273 150.439C158.273 150.577 158.193 150.713 158.032 150.815L154.554 153.029C154.217 153.243 153.649 153.234 153.286 153.004L150.125 151.006C149.935 150.886 149.84 150.73 149.84 150.578Z" fill="#221C3A"/>
<path d="M152.654 154.779L152.656 154.016C152.655 154.153 152.575 154.288 152.411 154.393L148.933 156.606C148.596 156.821 148.028 156.811 147.665 156.581L144.505 154.583C144.315 154.463 144.219 154.307 144.22 154.156L144.218 154.918C144.217 155.07 144.313 155.226 144.503 155.346L147.663 157.344C148.027 157.573 148.594 157.583 148.931 157.368L152.409 155.155C152.573 155.051 152.653 154.916 152.654 154.779Z" fill="#221C3A"/>
<path d="M154.382 159.223L151.221 157.226C151.031 157.105 150.936 156.949 150.936 156.798L150.935 157.56C150.934 157.712 151.029 157.868 151.22 157.988L154.38 159.986C154.744 160.216 155.319 160.231 155.656 160.016L163.491 155.031C163.651 154.929 163.729 154.795 163.729 154.657L163.731 153.894C163.73 154.033 163.652 154.167 163.493 154.268L155.659 159.253C155.32 159.468 154.745 159.453 154.382 159.223Z" fill="#221C3A"/>
<path d="M133.366 155.425L136.519 157.418C136.882 157.648 137.457 157.663 137.795 157.448L141.273 155.235C141.432 155.133 141.51 154.999 141.51 154.861L141.512 154.098C141.512 154.237 141.433 154.371 141.274 154.472L137.797 156.686C137.459 156.9 136.884 156.885 136.52 156.656L133.368 154.662C133.173 154.539 133.075 154.381 133.076 154.227L133.074 154.99C133.073 155.143 133.17 155.301 133.366 155.425Z" fill="#221C3A"/>
<path d="M142.052 160.152L138.891 158.154C138.701 158.034 138.606 157.878 138.607 157.727L138.605 158.489C138.604 158.641 138.7 158.796 138.89 158.917L142.05 160.914C142.414 161.144 142.981 161.154 143.318 160.939L146.796 158.727C146.957 158.624 147.037 158.488 147.037 158.35L147.039 157.588C147.038 157.726 146.959 157.862 146.798 157.964L143.32 160.177C142.983 160.392 142.416 160.382 142.052 160.152Z" fill="#221C3A"/>
<path d="M148.778 164.391L153.511 161.379C153.671 161.278 153.749 161.144 153.749 161.005L153.751 160.243C153.75 160.381 153.672 160.516 153.513 160.617L148.78 163.629C148.442 163.844 147.867 163.829 147.503 163.599L144.342 161.601C144.152 161.481 144.057 161.325 144.057 161.174L144.055 161.936C144.055 162.088 144.151 162.243 144.34 162.363L147.501 164.361C147.865 164.591 148.44 164.606 148.778 164.391Z" fill="#221C3A"/>
<path d="M154.494 165.997L151.674 164.214C151.432 164.061 151.31 163.865 151.311 163.675L151.309 164.437C151.308 164.627 151.43 164.823 151.672 164.976L154.493 166.759C154.952 167.049 155.653 167.064 156.069 166.799L169.022 158.557C169.221 158.431 169.32 158.263 169.321 158.09L169.322 157.327C169.322 157.5 169.222 157.668 169.024 157.795L156.07 166.037C155.654 166.301 154.953 166.286 154.494 165.997Z" fill="#221C3A"/>
<path d="M174.642 161.316L171.165 163.529C170.827 163.744 170.252 163.729 169.888 163.499L166.727 161.501C166.537 161.381 166.442 161.225 166.442 161.074L166.44 161.836C166.44 161.988 166.536 162.143 166.725 162.264L169.887 164.261C170.25 164.491 170.825 164.506 171.163 164.291L174.64 162.079C174.8 161.978 174.878 161.843 174.878 161.705L174.88 160.943C174.88 161.08 174.801 161.215 174.642 161.316Z" fill="#221C3A"/>
<path d="M161.644 165.417L161.114 165.083C160.92 164.959 160.822 164.801 160.822 164.648L160.821 165.411C160.82 165.564 160.918 165.722 161.113 165.845L161.642 166.18C162.006 166.409 162.58 166.424 162.918 166.21L166.396 163.996C166.558 163.893 166.637 163.76 166.637 163.622L166.639 162.86C166.638 162.997 166.559 163.131 166.398 163.234L162.92 165.447C162.582 165.662 162.007 165.647 161.644 165.417Z" fill="#221C3A"/>
<path d="M169.022 164.893L165.544 167.106C165.207 167.321 164.631 167.306 164.268 167.076L163.731 166.736C163.54 166.616 163.445 166.46 163.446 166.309L163.444 167.071C163.443 167.223 163.539 167.379 163.729 167.499L164.266 167.838C164.629 168.068 165.204 168.083 165.542 167.868L169.02 165.656C169.182 165.553 169.261 165.419 169.261 165.282L169.262 164.519C169.262 164.656 169.184 164.789 169.022 164.893Z" fill="#221C3A"/>
<path d="M163.408 168.464L159.93 170.677C159.593 170.892 159.018 170.877 158.654 170.647L155.501 168.654C155.306 168.53 155.208 168.372 155.209 168.219L155.207 168.981C155.207 169.134 155.304 169.292 155.499 169.415L158.652 171.409C159.016 171.638 159.59 171.653 159.928 171.439L163.406 169.225C163.565 169.124 163.644 168.99 163.644 168.851L163.646 168.089C163.646 168.229 163.567 168.363 163.408 168.464Z" fill="#221C3A"/>
<path d="M125.947 160.105L129.1 162.098C129.463 162.328 130.038 162.343 130.376 162.128L135.667 158.762C135.826 158.661 135.905 158.526 135.905 158.388L135.907 157.625C135.906 157.764 135.828 157.898 135.669 157.999L130.378 161.367C130.04 161.581 129.465 161.566 129.101 161.337L125.949 159.343C125.754 159.22 125.656 159.062 125.657 158.909L125.655 159.671C125.654 159.824 125.751 159.982 125.947 160.105Z" fill="#221C3A"/>
<path d="M136.556 163.649L133.404 161.656C133.212 161.535 133.114 161.375 133.115 161.221L133.113 161.983C133.112 162.138 133.21 162.297 133.402 162.418L136.555 164.412C136.918 164.641 137.494 164.656 137.831 164.442L141.309 162.228C141.468 162.127 141.546 161.993 141.546 161.854L141.548 161.092C141.548 161.23 141.47 161.365 141.31 161.466L137.833 163.679C137.495 163.894 136.92 163.879 136.556 163.649Z" fill="#221C3A"/>
<path d="M120.333 163.677L123.486 165.671C123.85 165.9 124.424 165.915 124.762 165.701L128.24 163.487C128.399 163.386 128.478 163.252 128.478 163.113L128.48 162.351C128.479 162.489 128.401 162.624 128.242 162.725L124.764 164.938C124.427 165.152 123.852 165.137 123.488 164.908L120.335 162.914C120.14 162.791 120.042 162.633 120.043 162.48L120.041 163.243C120.041 163.396 120.138 163.554 120.333 163.677Z" fill="#221C3A"/>
<path d="M130.936 167.226L127.783 165.233C127.591 165.111 127.493 164.952 127.494 164.797L127.492 165.56C127.491 165.714 127.589 165.873 127.782 165.995L130.934 167.988C131.298 168.218 131.873 168.233 132.211 168.018L135.688 165.805C135.848 165.704 135.926 165.569 135.926 165.431L135.928 164.669C135.927 164.807 135.849 164.941 135.69 165.043L132.212 167.256C131.874 167.471 131.299 167.456 130.936 167.226Z" fill="#221C3A"/>
<path d="M141.391 169.092L146.682 165.725C146.841 165.624 146.92 165.489 146.92 165.351L146.922 164.589C146.921 164.727 146.843 164.861 146.684 164.962L141.392 168.329C141.055 168.544 140.48 168.529 140.116 168.299L136.956 166.301C136.766 166.181 136.67 166.025 136.671 165.874L136.669 166.636C136.668 166.788 136.764 166.943 136.954 167.064L140.114 169.061C140.479 169.292 141.053 169.307 141.391 169.092Z" fill="#221C3A"/>
<path d="M148.846 171.405L153.996 168.127C154.155 168.026 154.234 167.892 154.234 167.753L154.236 166.991C154.235 167.129 154.157 167.264 153.998 167.365L148.848 170.642C148.511 170.857 147.935 170.842 147.572 170.612L144.419 168.619C144.224 168.496 144.126 168.338 144.127 168.185L144.125 168.947C144.124 169.101 144.222 169.258 144.417 169.381L147.57 171.375C147.934 171.604 148.508 171.619 148.846 171.405Z" fill="#221C3A"/>
<path d="M114.713 167.254L117.866 169.247C118.229 169.477 118.804 169.492 119.142 169.277L122.627 167.059C122.785 166.96 122.861 166.828 122.861 166.693L122.863 165.93C122.863 166.065 122.786 166.197 122.629 166.297L119.144 168.515C118.806 168.73 118.231 168.715 117.867 168.485L114.715 166.492C114.519 166.368 114.422 166.21 114.422 166.058L114.421 166.82C114.42 166.973 114.517 167.131 114.713 167.254Z" fill="#221C3A"/>
<path d="M125.322 170.798L122.169 168.804C121.977 168.683 121.88 168.524 121.88 168.369L121.878 169.131C121.877 169.286 121.975 169.445 122.167 169.567L125.32 171.56C125.683 171.79 126.258 171.805 126.596 171.59L130.074 169.377C130.233 169.276 130.312 169.142 130.312 169.003L130.313 168.241C130.313 168.379 130.235 168.514 130.076 168.615L126.598 170.828C126.261 171.042 125.686 171.027 125.322 170.798Z" fill="#221C3A"/>
<path d="M135.778 172.663L139.255 170.45C139.414 170.349 139.493 170.215 139.493 170.076L139.495 169.314C139.494 169.452 139.416 169.587 139.257 169.688L135.779 171.901C135.442 172.116 134.867 172.101 134.503 171.871L131.343 169.873C131.152 169.753 131.057 169.598 131.058 169.446L131.056 170.208C131.055 170.36 131.151 170.515 131.341 170.636L134.502 172.633C134.865 172.863 135.44 172.878 135.778 172.663Z" fill="#221C3A"/>
<path d="M143.225 174.981L146.702 172.768C146.862 172.667 146.94 172.533 146.94 172.394L146.942 171.632C146.942 171.77 146.863 171.905 146.704 172.006L143.227 174.219C142.889 174.434 142.314 174.419 141.95 174.189L138.798 172.196C138.603 172.072 138.505 171.914 138.505 171.762L138.504 172.524C138.503 172.677 138.601 172.835 138.796 172.959L141.949 174.952C142.312 175.181 142.887 175.196 143.225 174.981Z" fill="#221C3A"/>
<path d="M109.099 170.826L112.252 172.819C112.616 173.049 113.191 173.064 113.529 172.849L117.006 170.636C117.165 170.535 117.244 170.4 117.244 170.262L117.246 169.499C117.245 169.637 117.167 169.772 117.008 169.873L113.53 172.087C113.193 172.301 112.618 172.286 112.254 172.057L109.101 170.063C108.906 169.94 108.809 169.782 108.809 169.629L108.807 170.391C108.807 170.544 108.905 170.702 109.099 170.826Z" fill="#221C3A"/>
<path d="M119.702 174.374L116.549 172.381C116.357 172.26 116.259 172.1 116.26 171.946L116.258 172.708C116.257 172.863 116.355 173.022 116.547 173.143L119.7 175.137C120.064 175.366 120.639 175.381 120.976 175.167L124.454 172.953C124.613 172.852 124.692 172.718 124.692 172.579L124.694 171.817C124.693 171.955 124.615 172.09 124.456 172.191L120.978 174.404C120.64 174.619 120.065 174.604 119.702 174.374Z" fill="#221C3A"/>
<path d="M130.157 176.24L133.643 174.022C133.8 173.923 133.877 173.791 133.877 173.656L133.879 172.893C133.878 173.028 133.802 173.16 133.644 173.26L130.159 175.478C129.822 175.693 129.246 175.678 128.883 175.448L125.722 173.45C125.532 173.33 125.437 173.174 125.437 173.023L125.436 173.785C125.435 173.937 125.53 174.092 125.72 174.212L128.881 176.21C129.244 176.44 129.819 176.455 130.157 176.24Z" fill="#221C3A"/>
<path d="M137.612 178.553L141.089 176.34C141.249 176.238 141.327 176.104 141.327 175.966L141.329 175.203C141.329 175.342 141.25 175.476 141.091 175.577L137.614 177.791C137.276 178.005 136.701 177.99 136.337 177.761L133.185 175.767C132.99 175.644 132.892 175.486 132.892 175.333L132.891 176.095C132.89 176.249 132.988 176.407 133.183 176.53L136.336 178.523C136.699 178.753 137.274 178.768 137.612 178.553Z" fill="#221C3A"/>
<path d="M103.479 174.402L106.632 176.396C106.995 176.625 107.571 176.64 107.908 176.426L111.393 174.208C111.552 174.107 111.631 173.972 111.631 173.834L111.633 173.072C111.632 173.209 111.554 173.344 111.395 173.446L107.91 175.663C107.572 175.878 106.997 175.863 106.633 175.633L103.481 173.64C103.286 173.517 103.188 173.359 103.189 173.205L103.187 173.968C103.186 174.121 103.283 174.279 103.479 174.402Z" fill="#221C3A"/>
<path d="M114.088 177.946L110.935 175.953C110.743 175.831 110.645 175.672 110.646 175.517L110.644 176.28C110.643 176.434 110.741 176.594 110.933 176.715L114.086 178.708C114.45 178.938 115.025 178.953 115.362 178.738L118.84 176.526C118.999 176.424 119.077 176.29 119.078 176.152L119.079 175.389C119.079 175.527 119.001 175.662 118.842 175.763L115.364 177.977C115.027 178.191 114.451 178.176 114.088 177.946Z" fill="#221C3A"/>
<path d="M124.544 179.812L128.021 177.599C128.181 177.497 128.259 177.363 128.259 177.225L128.261 176.462C128.26 176.6 128.182 176.735 128.023 176.836L124.546 179.049C124.208 179.264 123.633 179.249 123.269 179.019L120.109 177.021C119.919 176.901 119.823 176.745 119.824 176.593L119.822 177.356C119.821 177.508 119.917 177.663 120.107 177.783L123.267 179.781C123.631 180.012 124.206 180.027 124.544 179.812Z" fill="#221C3A"/>
<path d="M131.991 182.13L135.469 179.916C135.628 179.815 135.706 179.681 135.706 179.542L135.708 178.78C135.708 178.918 135.63 179.053 135.47 179.154L131.993 181.367C131.655 181.582 131.08 181.567 130.716 181.337L127.564 179.344C127.369 179.221 127.271 179.063 127.272 178.91L127.27 179.672C127.269 179.826 127.367 179.984 127.562 180.106L130.715 182.1C131.078 182.329 131.654 182.344 131.991 182.13Z" fill="#221C3A"/>
<path d="M97.8653 177.974L101.018 179.967C101.382 180.197 101.956 180.212 102.294 179.997L105.772 177.784C105.931 177.683 106.01 177.548 106.01 177.41L106.012 176.648C106.011 176.786 105.933 176.921 105.774 177.022L102.296 179.235C101.959 179.45 101.384 179.435 101.02 179.205L97.8671 177.212C97.6722 177.088 97.5744 176.93 97.575 176.777L97.5732 177.539C97.5726 177.693 97.6704 177.851 97.8653 177.974Z" fill="#221C3A"/>
<path d="M108.467 181.523L105.315 179.529C105.123 179.408 105.025 179.249 105.026 179.094L105.023 179.856C105.023 180.011 105.12 180.17 105.313 180.292L108.466 182.285C108.829 182.515 109.405 182.53 109.742 182.315L113.22 180.102C113.379 180.001 113.457 179.866 113.457 179.728L113.459 178.965C113.459 179.103 113.381 179.238 113.221 179.339L109.744 181.552C109.406 181.767 108.831 181.752 108.467 181.523Z" fill="#221C3A"/>
<path d="M118.922 183.389L122.408 181.171C122.567 181.07 122.646 180.935 122.646 180.797L122.647 180.035C122.647 180.173 122.569 180.307 122.41 180.409L118.924 182.626C118.587 182.841 118.012 182.826 117.648 182.596L114.487 180.598C114.297 180.478 114.202 180.323 114.202 180.171L114.201 180.933C114.2 181.085 114.296 181.241 114.486 181.361L117.647 183.359C118.01 183.588 118.585 183.603 118.922 183.389Z" fill="#221C3A"/>
<path d="M126.378 185.701L129.856 183.489C130.015 183.387 130.093 183.253 130.093 183.115L130.095 182.352C130.095 182.49 130.016 182.625 129.857 182.726L126.38 184.94C126.042 185.154 125.467 185.139 125.103 184.91L121.951 182.916C121.756 182.793 121.658 182.635 121.659 182.482L121.657 183.245C121.656 183.398 121.754 183.555 121.949 183.679L125.102 185.672C125.465 185.902 126.04 185.917 126.378 185.701Z" fill="#221C3A"/>
<path d="M92.2437 181.551L95.3965 183.544C95.7602 183.774 96.3348 183.789 96.6728 183.574L100.158 181.356C100.317 181.255 100.396 181.121 100.396 180.982L100.398 180.22C100.397 180.358 100.319 180.493 100.16 180.594L96.6746 182.812C96.3372 183.026 95.7619 183.011 95.3983 182.782L92.2455 180.788C92.0506 180.665 91.9528 180.507 91.9534 180.354L91.9517 181.117C91.9517 181.269 92.0488 181.427 92.2437 181.551Z" fill="#221C3A"/>
<path d="M102.854 185.094L99.7012 183.101C99.5092 182.979 99.4115 182.82 99.4115 182.665L99.4097 183.428C99.4091 183.582 99.5068 183.742 99.6994 183.863L102.852 185.856C103.216 186.086 103.79 186.101 104.128 185.887L107.606 183.673C107.765 183.572 107.844 183.438 107.844 183.299L107.846 182.537C107.845 182.675 107.767 182.81 107.608 182.911L104.13 185.124C103.793 185.339 103.218 185.324 102.854 185.094Z" fill="#221C3A"/>
<path d="M113.31 186.96L116.787 184.747C116.946 184.646 117.025 184.511 117.025 184.373L117.027 183.611C117.026 183.748 116.948 183.883 116.789 183.985L113.311 186.198C112.974 186.413 112.399 186.398 112.035 186.168L108.875 184.17C108.684 184.05 108.589 183.895 108.59 183.742L108.588 184.505C108.587 184.657 108.683 184.812 108.873 184.932L112.033 186.93C112.397 187.16 112.972 187.175 113.31 186.96Z" fill="#221C3A"/>
<path d="M120.757 189.278L124.234 187.065C124.394 186.964 124.472 186.829 124.472 186.691L124.474 185.929C124.473 186.067 124.395 186.202 124.236 186.303L120.759 188.516C120.421 188.73 119.846 188.715 119.482 188.486L116.33 186.492C116.135 186.369 116.037 186.211 116.037 186.058L116.036 186.821C116.035 186.974 116.133 187.131 116.328 187.255L119.481 189.248C119.844 189.478 120.419 189.493 120.757 189.278Z" fill="#221C3A"/>
<path d="M157.645 171.931L152.354 175.298C152.016 175.513 151.441 175.498 151.077 175.268L147.916 173.27C147.726 173.15 147.631 172.994 147.631 172.843L147.629 173.605C147.629 173.757 147.725 173.912 147.914 174.032L151.075 176.03C151.438 176.26 152.013 176.275 152.351 176.06L157.642 172.694C157.801 172.593 157.88 172.458 157.88 172.32L157.882 171.557C157.882 171.696 157.804 171.83 157.645 171.931Z" fill="#221C3A"/>
<path d="M150.336 176.642L124.335 193.197C123.998 193.411 123.422 193.396 123.059 193.167L119.898 191.169C119.708 191.049 119.613 190.893 119.613 190.741L119.612 191.504C119.611 191.656 119.707 191.811 119.897 191.931L123.057 193.929C123.421 194.159 123.995 194.174 124.333 193.959L150.335 177.404C150.496 177.302 150.576 177.166 150.576 177.027L150.578 176.265C150.577 176.404 150.497 176.539 150.336 176.642Z" fill="#221C3A"/>
<path d="M86.631 185.122L89.7837 187.116C90.1474 187.345 90.722 187.36 91.06 187.146L94.5377 184.932C94.6968 184.831 94.7755 184.697 94.7755 184.558L94.7773 183.796C94.7767 183.934 94.6986 184.069 94.5394 184.17L91.0618 186.383C90.7244 186.597 90.1492 186.582 89.7855 186.353L86.6327 184.359C86.4378 184.236 86.3401 184.078 86.3407 183.925L86.3389 184.687C86.3383 184.841 86.436 184.999 86.631 185.122Z" fill="#221C3A"/>
<path d="M97.2336 188.671L94.0808 186.678C93.8889 186.556 93.7911 186.397 93.7911 186.242L93.7893 187.005C93.7887 187.159 93.8865 187.319 94.079 187.44L97.2318 189.433C97.5954 189.663 98.1701 189.678 98.5081 189.463L101.986 187.25C102.145 187.149 102.224 187.014 102.224 186.876L102.225 186.114C102.225 186.252 102.147 186.387 101.988 186.488L98.5098 188.701C98.1719 188.916 97.5966 188.901 97.2336 188.671Z" fill="#221C3A"/>
<path d="M107.688 190.537L111.174 188.319C111.333 188.218 111.412 188.084 111.412 187.945L111.413 187.183C111.413 187.321 111.335 187.456 111.175 187.557L107.69 189.775C107.353 189.989 106.777 189.974 106.414 189.745L103.253 187.747C103.063 187.627 102.968 187.471 102.968 187.319L102.967 188.082C102.966 188.234 103.062 188.389 103.251 188.509L106.412 190.507C106.776 190.737 107.351 190.752 107.688 190.537Z" fill="#221C3A"/>
<path d="M115.144 192.85L118.621 190.637C118.781 190.536 118.859 190.401 118.859 190.263L118.861 189.501C118.86 189.639 118.782 189.773 118.623 189.875L115.146 192.088C114.808 192.303 114.233 192.288 113.869 192.058L110.716 190.065C110.522 189.941 110.424 189.783 110.424 189.63L110.423 190.392C110.422 190.546 110.52 190.704 110.715 190.827L113.867 192.82C114.231 193.05 114.806 193.065 115.144 192.85Z" fill="#221C3A"/>
<path d="M81.0184 188.694L84.1712 190.687C84.5348 190.917 85.1017 190.937 85.4397 190.722L88.9251 188.505C89.0843 188.403 89.163 188.269 89.163 188.131L89.1648 187.368C89.1642 187.506 89.0861 187.641 88.9269 187.742L85.4415 189.96C85.1041 190.175 84.5366 190.155 84.173 189.925L81.0202 187.932C80.8229 187.807 80.7234 187.648 80.724 187.495L80.7222 188.257C80.7216 188.411 80.8211 188.569 81.0184 188.694Z" fill="#221C3A"/>
<path d="M91.6196 192.242L88.4668 190.249C88.2748 190.128 88.1771 189.968 88.1771 189.814L88.1753 190.576C88.1747 190.731 88.2725 190.89 88.465 191.011L91.6178 193.005C91.9814 193.235 92.5561 193.25 92.894 193.035L96.3717 190.822C96.5309 190.72 96.6096 190.586 96.6096 190.448L96.6113 189.685C96.6107 189.823 96.5327 189.958 96.3735 190.059L92.8958 192.272C92.5584 192.487 91.9832 192.472 91.6196 192.242Z" fill="#221C3A"/>
<path d="M102.077 193.347C101.74 193.562 101.165 193.547 100.801 193.317L97.6404 191.319C97.4502 191.199 97.3548 191.043 97.3548 190.891L97.353 191.654C97.3524 191.806 97.4484 191.961 97.638 192.081L100.799 194.079C101.163 194.309 101.737 194.324 102.075 194.109L105.553 191.897C105.712 191.795 105.791 191.66 105.791 191.523L105.793 190.76C105.792 190.899 105.714 191.033 105.555 191.134L102.077 193.347Z" fill="#221C3A"/>
<path d="M109.522 196.427L113 194.214C113.159 194.113 113.238 193.978 113.238 193.84L113.24 193.077C113.239 193.215 113.161 193.35 113.002 193.451L109.524 195.665C109.187 195.879 108.612 195.864 108.248 195.635L105.095 193.641C104.9 193.518 104.802 193.36 104.803 193.207L104.801 193.969C104.801 194.122 104.898 194.28 105.093 194.403L108.246 196.396C108.61 196.627 109.185 196.642 109.522 196.427Z" fill="#221C3A"/>
<path d="M122.168 194.505L118.682 196.723C118.345 196.938 117.77 196.923 117.406 196.693L114.253 194.7C114.058 194.577 113.96 194.419 113.961 194.266L113.959 195.028C113.959 195.182 114.056 195.339 114.251 195.462L117.404 197.456C117.768 197.685 118.342 197.7 118.68 197.486L122.166 195.268C122.325 195.167 122.403 195.032 122.404 194.894L122.405 194.131C122.405 194.27 122.327 194.404 122.168 194.505Z" fill="#221C3A"/>
<path d="M83.5414 191.707L83.5432 190.944C83.5426 191.083 83.4645 191.217 83.3053 191.318L79.8277 193.531C79.4903 193.746 78.915 193.731 78.5514 193.501L75.3986 191.508C75.2037 191.385 75.1059 191.227 75.1065 191.073L75.1047 191.836C75.1041 191.989 75.2019 192.147 75.3968 192.27L78.5496 194.263C78.9132 194.493 79.4879 194.508 79.8259 194.293L83.3035 192.08C83.4627 191.979 83.5414 191.845 83.5414 191.707Z" fill="#221C3A"/>
<path d="M90.9885 194.025L90.9903 193.263C90.9897 193.401 90.9116 193.535 90.7525 193.637L85.4692 196.999C85.1318 197.213 84.5566 197.198 84.193 196.969L81.0402 194.975C80.8482 194.854 80.7505 194.695 80.7511 194.54L80.7493 195.302C80.7487 195.457 80.8464 195.616 81.0384 195.738L84.1912 197.731C84.5548 197.961 85.1294 197.976 85.4674 197.761L90.7507 194.399C90.9098 194.297 90.9885 194.163 90.9885 194.025Z" fill="#221C3A"/>
<path d="M92.0338 195.657L95.1788 197.655C95.5425 197.885 96.1171 197.9 96.4551 197.685L99.9405 195.467C100.1 195.366 100.178 195.232 100.178 195.093L100.18 194.331C100.18 194.469 100.101 194.604 99.9423 194.705L96.4569 196.923C96.1195 197.138 95.5443 197.123 95.1806 196.893L92.0356 194.895C91.8383 194.77 91.7387 194.612 91.7393 194.458L91.7376 195.221C91.737 195.374 91.8365 195.533 92.0338 195.657Z" fill="#221C3A"/>
<path d="M99.4806 197.975L102.633 199.968C102.997 200.198 103.572 200.213 103.91 199.998L107.387 197.785C107.546 197.684 107.625 197.55 107.625 197.411L107.627 196.649C107.626 196.787 107.548 196.922 107.389 197.023L103.911 199.236C103.574 199.451 102.999 199.436 102.635 199.206L99.4824 197.213C99.2874 197.089 99.1897 196.931 99.1903 196.779L99.1885 197.541C99.1879 197.694 99.285 197.852 99.4806 197.975Z" fill="#221C3A"/>
<path d="M116.547 198.082L113.069 200.295C112.732 200.51 112.156 200.495 111.793 200.265L108.64 198.272C108.445 198.149 108.347 197.991 108.348 197.837L108.346 198.6C108.346 198.753 108.443 198.911 108.638 199.034L111.791 201.028C112.155 201.257 112.729 201.272 113.067 201.058L116.545 198.844C116.704 198.743 116.783 198.609 116.783 198.47L116.785 197.708C116.784 197.846 116.706 197.981 116.547 198.082Z" fill="#221C3A"/>
<path d="M94.5568 198.67L94.5586 197.908C94.558 198.046 94.4799 198.181 94.3207 198.282L90.843 200.495C90.5056 200.71 89.9304 200.695 89.5668 200.465L86.414 198.472C86.2191 198.348 86.1213 198.19 86.1219 198.038L86.1201 198.8C86.1195 198.953 86.2173 199.111 86.4122 199.234L89.565 201.227C89.9286 201.457 90.5033 201.472 90.8413 201.257L94.3189 199.044C94.4781 198.943 94.5568 198.809 94.5568 198.67Z" fill="#221C3A"/>
<path d="M102.004 200.988L102.006 200.226C102.005 200.364 101.927 200.498 101.768 200.6L96.4846 203.962C96.1472 204.176 95.572 204.161 95.2084 203.932L92.0556 201.938C91.8607 201.815 91.7629 201.657 91.7635 201.504L91.7617 202.266C91.7611 202.419 91.8589 202.577 92.0538 202.7L95.2066 204.693C95.5702 204.923 96.1449 204.938 96.4829 204.723L101.766 201.361C101.925 201.261 102.004 201.126 102.004 200.988Z" fill="#221C3A"/>
<path d="M110.933 201.654L107.448 203.872C107.111 204.086 106.535 204.071 106.172 203.842L103.019 201.848C102.824 201.725 102.726 201.567 102.727 201.414L102.725 202.176C102.725 202.329 102.822 202.487 103.017 202.61L106.17 204.603C106.534 204.833 107.108 204.848 107.446 204.633L110.932 202.415C111.091 202.314 111.169 202.18 111.169 202.041L111.171 201.279C111.171 201.418 111.093 201.553 110.933 201.654Z" fill="#221C3A"/>
<path d="M105.312 205.23L101.835 207.444C101.497 207.658 100.922 207.643 100.558 207.414L97.4057 205.42C97.2108 205.297 97.113 205.139 97.1136 204.986L97.1118 205.749C97.1112 205.902 97.209 206.06 97.4039 206.183L100.557 208.176C100.92 208.406 101.496 208.421 101.833 208.206L105.311 205.993C105.47 205.892 105.548 205.758 105.548 205.619L105.55 204.857C105.55 204.995 105.472 205.129 105.312 205.23Z" fill="#221C3A"/>
<path d="M144.602 147.514L147.755 149.507C148.118 149.737 148.693 149.752 149.031 149.537L152.509 147.324C152.846 147.109 152.82 146.744 152.457 146.515L149.305 144.521C148.933 144.286 148.366 144.277 148.028 144.491L144.551 146.705C144.213 146.919 144.23 147.279 144.602 147.514Z" fill="white"/>
<path d="M138.981 151.091L142.134 153.084C142.497 153.314 143.072 153.329 143.41 153.114L146.887 150.901C147.233 150.681 147.199 150.321 146.836 150.091L143.683 148.098C143.312 147.863 142.753 147.848 142.407 148.068L138.929 150.281C138.592 150.496 138.609 150.856 138.981 151.091Z" fill="white"/>
<path d="M150.125 151.006L153.286 153.004C153.649 153.234 154.216 153.243 154.554 153.029L158.032 150.815C158.369 150.601 158.352 150.241 157.988 150.011L154.828 148.013C154.464 147.784 153.889 147.769 153.551 147.983L150.081 150.201C149.744 150.417 149.761 150.776 150.125 151.006Z" fill="white"/>
<path d="M152.367 153.588L149.207 151.591C148.843 151.361 148.276 151.341 147.931 151.561L144.461 153.778C144.123 153.993 144.141 154.353 144.504 154.582L147.665 156.58C148.028 156.81 148.595 156.82 148.933 156.605L152.41 154.392C152.757 154.173 152.731 153.818 152.367 153.588Z" fill="white"/>
<path d="M151.22 157.225L154.381 159.223C154.745 159.452 155.319 159.467 155.657 159.253L163.492 154.267C163.829 154.053 163.804 153.688 163.441 153.458L160.28 151.46C159.916 151.23 159.35 151.221 159.012 151.435L151.177 156.421C150.84 156.635 150.857 156.995 151.22 157.225Z" fill="white"/>
<path d="M133.368 154.662L136.521 156.656C136.884 156.885 137.459 156.9 137.797 156.686L141.274 154.472C141.612 154.258 141.587 153.893 141.223 153.663L138.07 151.67C137.699 151.435 137.132 151.425 136.794 151.64L133.316 153.852C132.978 154.068 132.996 154.427 133.368 154.662Z" fill="white"/>
<path d="M142.318 155.131L138.848 157.349C138.51 157.564 138.528 157.924 138.891 158.153L142.052 160.151C142.415 160.381 142.982 160.391 143.32 160.176L146.798 157.964C147.135 157.749 147.118 157.389 146.755 157.159L143.594 155.161C143.23 154.932 142.655 154.917 142.318 155.131Z" fill="white"/>
<path d="M148.781 163.629L153.515 160.617C153.852 160.402 153.826 160.037 153.463 159.807L150.303 157.809C149.939 157.58 149.372 157.57 149.035 157.785L144.301 160.797C143.964 161.012 143.981 161.371 144.345 161.601L147.506 163.599C147.868 163.829 148.443 163.844 148.781 163.629Z" fill="white"/>
<path d="M151.674 164.213L154.495 165.996C154.953 166.286 155.654 166.301 156.07 166.036L169.024 157.794C169.44 157.529 169.422 157.08 168.963 156.79L165.881 154.842C165.581 154.652 165.108 154.642 164.818 154.817L151.605 163.214C151.189 163.479 151.216 163.924 151.674 164.213Z" fill="white"/>
<path d="M174.591 160.506L171.43 158.509C171.066 158.279 170.499 158.269 170.162 158.484L166.684 160.697C166.347 160.912 166.364 161.271 166.728 161.501L169.889 163.499C170.252 163.729 170.827 163.744 171.165 163.529L174.643 161.316C174.98 161.101 174.954 160.736 174.591 160.506Z" fill="white"/>
<path d="M164.541 162.061L161.063 164.274C160.726 164.489 160.743 164.848 161.115 165.083L161.644 165.418C162.008 165.648 162.582 165.663 162.92 165.448L166.398 163.235C166.743 163.015 166.71 162.655 166.347 162.426L165.817 162.091C165.445 161.856 164.886 161.841 164.541 162.061Z" fill="white"/>
<path d="M168.97 164.083L168.433 163.744C168.069 163.514 167.51 163.499 167.164 163.719L163.686 165.932C163.349 166.147 163.366 166.507 163.73 166.736L164.267 167.076C164.631 167.306 165.205 167.321 165.543 167.106L169.021 164.893C169.367 164.673 169.333 164.313 168.97 164.083Z" fill="white"/>
<path d="M163.357 167.655L160.204 165.662C159.833 165.427 159.266 165.417 158.928 165.632L155.45 167.845C155.113 168.059 155.13 168.419 155.501 168.654L158.654 170.647C159.018 170.877 159.592 170.892 159.93 170.677L163.408 168.465C163.745 168.249 163.72 167.885 163.357 167.655Z" fill="white"/>
<path d="M125.949 159.343L129.102 161.336C129.465 161.566 130.04 161.581 130.378 161.366L135.669 157.999C136.006 157.784 135.981 157.419 135.618 157.189L132.465 155.196C132.093 154.961 131.526 154.951 131.189 155.166L125.898 158.533C125.56 158.749 125.577 159.108 125.949 159.343Z" fill="white"/>
<path d="M136.83 158.634L133.352 160.847C133.015 161.062 133.041 161.427 133.404 161.657L136.556 163.65C136.92 163.88 137.495 163.895 137.833 163.68L141.31 161.467C141.648 161.252 141.622 160.887 141.259 160.657L138.106 158.664C137.743 158.434 137.167 158.419 136.83 158.634Z" fill="white"/>
<path d="M120.336 162.915L123.489 164.908C123.852 165.138 124.427 165.153 124.765 164.938L128.242 162.726C128.58 162.511 128.554 162.146 128.191 161.916L125.038 159.923C124.667 159.688 124.1 159.678 123.762 159.893L120.284 162.106C119.946 162.32 119.964 162.68 120.336 162.915Z" fill="white"/>
<path d="M131.21 162.211L127.732 164.423C127.395 164.638 127.42 165.003 127.783 165.233L130.936 167.226C131.3 167.456 131.874 167.471 132.212 167.256L135.69 165.043C136.027 164.828 136.002 164.463 135.639 164.233L132.486 162.24C132.122 162.01 131.547 161.996 131.21 162.211Z" fill="white"/>
<path d="M141.393 168.33L146.685 164.963C147.022 164.748 146.997 164.384 146.634 164.154L143.473 162.156C143.109 161.926 142.543 161.916 142.205 162.131L136.913 165.498C136.576 165.712 136.593 166.072 136.957 166.302L140.117 168.3C140.481 168.529 141.056 168.544 141.393 168.33Z" fill="white"/>
<path d="M148.848 170.642L153.998 167.365C154.335 167.15 154.31 166.785 153.947 166.556L150.794 164.562C150.422 164.327 149.856 164.318 149.518 164.532L144.367 167.809C144.03 168.024 144.047 168.384 144.419 168.619L147.571 170.612C147.936 170.843 148.511 170.857 148.848 170.642Z" fill="white"/>
<path d="M114.715 166.492L117.868 168.485C118.231 168.715 118.806 168.73 119.144 168.515L122.629 166.297C122.967 166.082 122.933 165.723 122.57 165.493L119.417 163.5C119.045 163.265 118.486 163.25 118.148 163.465L114.663 165.682C114.325 165.897 114.343 166.257 114.715 166.492Z" fill="white"/>
<path d="M125.596 165.782L122.118 167.996C121.781 168.21 121.806 168.575 122.17 168.805L125.322 170.798C125.686 171.028 126.261 171.043 126.599 170.828L130.076 168.615C130.414 168.4 130.388 168.035 130.025 167.806L126.872 165.812C126.509 165.583 125.933 165.568 125.596 165.782Z" fill="white"/>
<path d="M135.78 171.901L139.257 169.688C139.595 169.473 139.57 169.108 139.206 168.879L136.046 166.881C135.682 166.651 135.115 166.641 134.777 166.856L131.299 169.069C130.962 169.283 130.979 169.643 131.343 169.873L134.504 171.871C134.867 172.101 135.442 172.116 135.78 171.901Z" fill="white"/>
<path d="M143.227 174.219L146.704 172.006C147.042 171.791 147.017 171.426 146.653 171.196L143.5 169.203C143.129 168.968 142.562 168.958 142.224 169.173L138.746 171.386C138.409 171.601 138.426 171.961 138.798 172.196L141.95 174.189C142.314 174.419 142.889 174.434 143.227 174.219Z" fill="white"/>
<path d="M109.101 170.063L112.254 172.056C112.618 172.286 113.192 172.301 113.53 172.086L117.008 169.873C117.345 169.658 117.32 169.294 116.957 169.064L113.804 167.07C113.432 166.835 112.865 166.826 112.528 167.04L109.05 169.254C108.712 169.468 108.73 169.828 109.101 170.063Z" fill="white"/>
<path d="M119.975 169.359L116.497 171.572C116.16 171.787 116.186 172.152 116.549 172.382L119.701 174.375C120.065 174.605 120.64 174.62 120.978 174.405L124.455 172.192C124.793 171.977 124.767 171.612 124.404 171.382L121.251 169.389C120.887 169.159 120.312 169.144 119.975 169.359Z" fill="white"/>
<path d="M130.159 175.478L133.644 173.26C133.982 173.045 133.948 172.686 133.585 172.456L130.424 170.458C130.061 170.228 129.501 170.213 129.164 170.428L125.679 172.646C125.341 172.861 125.359 173.22 125.722 173.45L128.883 175.448C129.246 175.678 129.821 175.693 130.159 175.478Z" fill="white"/>
<path d="M137.614 177.791L141.092 175.578C141.429 175.363 141.404 174.998 141.04 174.768L137.888 172.775C137.516 172.54 136.949 172.53 136.611 172.745L133.134 174.958C132.796 175.173 132.813 175.533 133.185 175.768L136.338 177.761C136.701 177.991 137.277 178.006 137.614 177.791Z" fill="white"/>
<path d="M103.481 173.64L106.634 175.633C106.997 175.863 107.572 175.878 107.91 175.663L111.395 173.446C111.733 173.231 111.707 172.866 111.344 172.636L108.191 170.643C107.82 170.408 107.253 170.398 106.915 170.613L103.429 172.831C103.091 173.045 103.109 173.405 103.481 173.64Z" fill="white"/>
<path d="M114.362 172.93L110.884 175.144C110.547 175.358 110.572 175.723 110.936 175.953L114.088 177.946C114.452 178.176 115.027 178.191 115.365 177.976L118.842 175.763C119.18 175.548 119.154 175.184 118.791 174.954L115.638 172.96C115.275 172.731 114.699 172.716 114.362 172.93Z" fill="white"/>
<path d="M124.546 179.05L128.023 176.837C128.361 176.622 128.335 176.257 127.972 176.028L124.812 174.03C124.448 173.8 123.881 173.79 123.543 174.005L120.065 176.218C119.728 176.433 119.745 176.793 120.109 177.022L123.269 179.02C123.633 179.249 124.208 179.264 124.546 179.05Z" fill="white"/>
<path d="M131.993 181.367L135.47 179.154C135.808 178.939 135.782 178.575 135.419 178.345L132.266 176.351C131.895 176.116 131.328 176.107 130.99 176.321L127.512 178.535C127.175 178.749 127.192 179.109 127.564 179.344L130.716 181.337C131.08 181.568 131.655 181.582 131.993 181.367Z" fill="white"/>
<path d="M97.867 177.212L101.02 179.205C101.383 179.435 101.959 179.45 102.296 179.235L105.774 177.022C106.111 176.807 106.085 176.442 105.722 176.212L102.57 174.219C102.198 173.984 101.631 173.974 101.293 174.189L97.8157 176.402C97.4783 176.617 97.4956 176.977 97.867 177.212Z" fill="white"/>
<path d="M108.74 176.507L105.263 178.72C104.925 178.935 104.951 179.299 105.314 179.529L108.467 181.523C108.83 181.752 109.406 181.767 109.743 181.553L113.221 179.34C113.558 179.125 113.533 178.76 113.169 178.531L110.017 176.537C109.654 176.307 109.078 176.292 108.74 176.507Z" fill="white"/>
<path d="M118.925 182.626L122.41 180.408C122.748 180.194 122.722 179.829 122.359 179.599L119.199 177.601C118.835 177.371 118.268 177.362 117.93 177.576L114.444 179.794C114.107 180.009 114.124 180.369 114.488 180.598L117.648 182.596C118.012 182.826 118.587 182.841 118.925 182.626Z" fill="white"/>
<path d="M126.38 184.94L129.857 182.726C130.195 182.512 130.169 182.147 129.806 181.917L126.653 179.924C126.282 179.689 125.715 179.679 125.377 179.894L121.899 182.107C121.562 182.322 121.579 182.681 121.951 182.916L125.104 184.91C125.467 185.139 126.042 185.154 126.38 184.94Z" fill="white"/>
<path d="M92.2462 180.788L95.399 182.782C95.7626 183.011 96.3373 183.026 96.6753 182.812L100.161 180.594C100.498 180.379 100.473 180.014 100.109 179.784L96.9566 177.791C96.5853 177.556 96.0178 177.546 95.6804 177.761L92.1944 179.979C91.857 180.194 91.8748 180.553 92.2462 180.788Z" fill="white"/>
<path d="M103.128 180.079L99.6499 182.292C99.3125 182.507 99.3375 182.872 99.7012 183.101L102.854 185.095C103.218 185.325 103.793 185.34 104.13 185.125L107.608 182.912C107.945 182.697 107.92 182.332 107.557 182.102L104.404 180.109C104.04 179.879 103.465 179.864 103.128 180.079Z" fill="white"/>
<path d="M113.312 186.198L116.789 183.985C117.127 183.77 117.101 183.405 116.738 183.175L113.577 181.177C113.214 180.948 112.647 180.938 112.309 181.153L108.831 183.365C108.494 183.58 108.511 183.94 108.875 184.169L112.035 186.167C112.399 186.398 112.974 186.413 113.312 186.198Z" fill="white"/>
<path d="M120.758 188.516L124.236 186.304C124.573 186.089 124.548 185.724 124.185 185.494L121.032 183.501C120.661 183.266 120.093 183.256 119.756 183.471L116.278 185.684C115.941 185.898 115.958 186.258 116.329 186.493L119.482 188.486C119.846 188.716 120.421 188.731 120.758 188.516Z" fill="white"/>
<path d="M157.593 171.122L154.432 169.124C154.068 168.894 153.501 168.885 153.163 169.099L147.872 172.466C147.535 172.681 147.552 173.04 147.916 173.27L151.077 175.268C151.441 175.498 152.015 175.513 152.353 175.298L157.644 171.931C157.982 171.717 157.956 171.352 157.593 171.122Z" fill="white"/>
<path d="M150.293 175.838L147.131 173.84C146.768 173.61 146.201 173.6 145.864 173.815L119.854 190.365C119.517 190.579 119.534 190.939 119.898 191.169L123.058 193.167C123.422 193.396 123.997 193.411 124.335 193.197L150.336 176.642C150.674 176.427 150.656 176.067 150.293 175.838Z" fill="white"/>
<path d="M86.6326 184.36L89.7854 186.353C90.149 186.583 90.7237 186.598 91.0617 186.383L94.5393 184.171C94.8767 183.956 94.8511 183.591 94.4881 183.361L91.3353 181.368C90.9639 181.133 90.397 181.123 90.059 181.338L86.5814 183.551C86.244 183.765 86.2612 184.125 86.6326 184.36Z" fill="white"/>
<path d="M97.5063 183.656L94.0286 185.869C93.6912 186.084 93.7168 186.449 94.0799 186.678L97.2326 188.672C97.5963 188.901 98.1709 188.916 98.5089 188.702L101.987 186.488C102.324 186.274 102.298 185.909 101.935 185.679L98.7825 183.686C98.4189 183.456 97.8442 183.441 97.5063 183.656Z" fill="white"/>
<path d="M107.691 189.775L111.176 187.557C111.513 187.342 111.488 186.977 111.125 186.747L107.964 184.75C107.601 184.52 107.034 184.51 106.696 184.725L103.21 186.943C102.873 187.157 102.89 187.517 103.254 187.747L106.414 189.745C106.778 189.974 107.353 189.989 107.691 189.775Z" fill="white"/>
<path d="M115.146 192.088L118.623 189.874C118.961 189.66 118.935 189.295 118.572 189.065L115.419 187.072C115.048 186.837 114.481 186.827 114.143 187.042L110.665 189.254C110.328 189.469 110.345 189.829 110.717 190.064L113.869 192.057C114.233 192.287 114.808 192.303 115.146 192.088Z" fill="white"/>
<path d="M81.0201 187.931L84.1729 189.925C84.5365 190.155 85.1034 190.175 85.4414 189.96L88.9268 187.742C89.2642 187.527 89.2386 187.163 88.8755 186.933L85.7227 184.939C85.3514 184.705 84.7845 184.695 84.4465 184.909L80.9611 187.127C80.6231 187.342 80.6487 187.697 81.0201 187.931Z" fill="white"/>
<path d="M91.8935 187.227L88.4158 189.441C88.0784 189.655 88.104 190.02 88.4671 190.25L91.6198 192.243C91.9835 192.473 92.5581 192.488 92.8961 192.273L96.3738 190.061C96.7112 189.846 96.6855 189.481 96.3225 189.251L93.1697 187.258C92.8061 187.027 92.2309 187.012 91.8935 187.227Z" fill="white"/>
<path d="M102.343 188.326C101.979 188.096 101.412 188.087 101.075 188.301L97.5968 190.514C97.2594 190.729 97.2767 191.088 97.6404 191.318L100.801 193.316C101.165 193.546 101.739 193.561 102.077 193.346L105.555 191.133C105.892 190.918 105.867 190.553 105.504 190.323L102.343 188.326Z" fill="white"/>
<path d="M109.525 195.664L113.002 193.451C113.34 193.236 113.314 192.872 112.951 192.642L109.798 190.648C109.427 190.413 108.859 190.404 108.522 190.618L105.044 192.832C104.707 193.046 104.724 193.406 105.096 193.641L108.248 195.634C108.612 195.864 109.187 195.879 109.525 195.664Z" fill="white"/>
<path d="M122.116 193.696L118.964 191.703C118.592 191.468 118.025 191.458 117.687 191.673L114.202 193.891C113.865 194.105 113.882 194.465 114.253 194.7L117.406 196.693C117.77 196.923 118.344 196.938 118.682 196.723L122.168 194.505C122.505 194.291 122.48 193.926 122.116 193.696Z" fill="white"/>
<path d="M83.2542 190.509L80.1014 188.516C79.73 188.281 79.1625 188.271 78.8251 188.486L75.3475 190.699C75.0101 190.914 75.0274 191.274 75.3987 191.509L78.5515 193.502C78.9151 193.732 79.4904 193.747 79.8278 193.532L83.3054 191.319C83.6434 191.103 83.6178 190.739 83.2542 190.509Z" fill="white"/>
<path d="M90.7013 192.827L87.5485 190.834C87.1849 190.604 86.6097 190.589 86.2723 190.804L80.989 194.166C80.6516 194.381 80.6766 194.746 81.0403 194.975L84.1931 196.969C84.5567 197.198 85.1313 197.213 85.4693 196.999L90.7526 193.637C91.0906 193.422 91.0649 193.057 90.7013 192.827Z" fill="white"/>
<path d="M92.0352 194.895L95.1803 196.893C95.5439 197.123 96.1185 197.138 96.4565 196.923L99.9419 194.705C100.279 194.49 100.254 194.125 99.8907 193.896L96.7301 191.898C96.3665 191.668 95.7996 191.658 95.4616 191.873L91.9762 194.091C91.6382 194.306 91.6639 194.66 92.0352 194.895Z" fill="white"/>
<path d="M99.4825 197.213L102.635 199.206C102.999 199.436 103.574 199.451 103.911 199.236L107.389 197.023C107.727 196.808 107.701 196.443 107.338 196.213L104.185 194.22C103.814 193.985 103.246 193.975 102.909 194.19L99.4312 196.403C99.0932 196.619 99.1111 196.978 99.4825 197.213Z" fill="white"/>
<path d="M116.495 197.273L113.342 195.279C112.971 195.044 112.404 195.035 112.066 195.249L108.588 197.463C108.251 197.677 108.268 198.037 108.64 198.272L111.792 200.265C112.156 200.495 112.731 200.51 113.069 200.295L116.546 198.082C116.884 197.867 116.859 197.503 116.495 197.273Z" fill="white"/>
<path d="M94.2696 197.472L91.1168 195.479C90.7454 195.244 90.1785 195.234 89.8405 195.449L86.3628 197.662C86.0255 197.877 86.0427 198.237 86.4141 198.472L89.5669 200.465C89.9305 200.695 90.5058 200.71 90.8432 200.495L94.3208 198.282C94.6588 198.067 94.6332 197.702 94.2696 197.472Z" fill="white"/>
<path d="M101.717 199.79L98.564 197.797C98.1926 197.562 97.6257 197.552 97.2877 197.767L92.0044 201.129C91.6671 201.344 91.6843 201.703 92.0557 201.938L95.2085 203.932C95.5721 204.161 96.1474 204.176 96.4848 203.962L101.768 200.6C102.106 200.385 102.08 200.02 101.717 199.79Z" fill="white"/>
<path d="M110.882 200.844L107.729 198.851C107.358 198.616 106.791 198.606 106.453 198.821L102.967 201.039C102.629 201.254 102.647 201.613 103.018 201.848L106.171 203.841C106.535 204.071 107.109 204.086 107.447 203.872L110.933 201.654C111.271 201.439 111.246 201.074 110.882 200.844Z" fill="white"/>
<path d="M105.261 204.421L102.108 202.428C101.737 202.193 101.169 202.183 100.832 202.398L97.3541 204.61C97.0167 204.825 97.034 205.185 97.4053 205.42L100.558 207.413C100.922 207.643 101.497 207.658 101.834 207.443L105.312 205.23C105.65 205.016 105.624 204.651 105.261 204.421Z" fill="white"/>
<path d="M178.288 189.543L148.675 208.263C148.157 208.591 147.317 208.591 146.799 208.263L127.804 196.255C127.286 195.928 127.286 195.396 127.804 195.069L157.416 176.349C157.934 176.022 158.775 176.022 159.293 176.349L178.288 188.357C178.806 188.684 178.806 189.215 178.288 189.543Z" fill="white"/>
<path d="M147.737 208.54C147.391 208.54 147.046 208.457 146.783 208.291L127.789 196.283C127.528 196.119 127.385 195.898 127.385 195.662C127.385 195.426 127.528 195.206 127.789 195.041L157.401 176.321C157.926 175.988 158.78 175.988 159.307 176.321L178.302 188.328C178.562 188.493 178.705 188.713 178.705 188.95C178.705 189.185 178.562 189.406 178.302 189.57L148.689 208.291C148.427 208.457 148.082 208.54 147.737 208.54ZM158.354 176.135C158.019 176.135 157.685 176.216 157.431 176.376L127.818 195.097C127.578 195.249 127.445 195.45 127.445 195.661C127.445 195.873 127.578 196.075 127.818 196.227L146.813 208.235C147.321 208.556 148.15 208.556 148.66 208.235L178.273 189.514C178.513 189.362 178.646 189.161 178.646 188.95C178.646 188.738 178.513 188.537 178.273 188.384L159.278 176.377C159.023 176.216 158.689 176.135 158.354 176.135Z" fill="#221C3A"/>
<path d="M67.8548 199.986L64.4302 197.821C64.3312 197.758 64.2507 197.62 64.2507 197.511V196.629C64.2507 196.52 64.3312 196.483 64.4302 196.546L67.8548 198.711C67.9537 198.773 68.0336 198.912 68.0336 199.02V199.903C68.0342 200.011 67.9537 200.048 67.8548 199.986Z" fill="#36342F"/>
<path d="M72.4961 188.489V172.896L145.346 126.842V126.708L72.4961 172.761V157.03L145.346 110.977V110.842L72.4961 156.895V141.164L145.346 95.1103V94.9759L72.4961 141.029V125.297L145.346 79.2446V79.1095L72.4961 125.163V109.432L145.346 63.3789V63.2438L72.4961 109.297V93.5654L145.346 47.5125V47.3774L72.4961 93.4309V93.0798L72.0383 93.3689V109.271V109.772V125.173V125.674V141.074V141.575V156.975V157.477V172.878V173.379V189.28L86.8092 179.942L130.836 152.11L145.358 142.93V142.429L72.4961 188.489Z" fill="#5186EB"/>
<path d="M87.3845 176.248L82.1179 179.578V124.055L87.3845 120.726V176.248Z" fill="#FDB84C"/>
<path d="M82.1191 179.577L76.8525 182.906V144.509L82.1191 141.18V179.577Z" fill="#FDB84C"/>
<path d="M92.6505 172.919L87.3845 176.248V88.041L92.6505 84.7123V172.919Z" fill="#FDB84C"/>
<path d="M97.917 169.59L92.6504 172.919V104.874L97.917 101.545V169.59Z" fill="#EA4A4A"/>
<path d="M103.184 166.261L97.917 169.59V128.975L103.184 125.645V166.261Z" fill="#EA4A4A"/>
<path d="M108.449 162.932L103.183 166.261V115.924L108.449 112.595V162.932Z" fill="#EA4A4A"/>
<path d="M113.716 159.603L108.45 162.932V136.899L113.716 133.569V159.603Z" fill="#F585A4"/>
<path d="M118.982 156.273L113.716 159.603V87.1607L118.982 83.8319V156.273Z" fill="#F585A4"/>
<path d="M124.249 152.944L118.983 156.273V99.9194L124.249 96.59V152.944Z" fill="#F585A4"/>
<path d="M129.515 149.615L124.249 152.944V85.7299L129.515 82.4011V149.615Z" fill="#5186EB"/>
<path d="M134.782 146.285L129.515 149.615V99.2777L134.782 95.949V146.285Z" fill="#5186EB"/>
<path d="M140.048 142.956L134.782 146.286V108.559L140.048 105.23V142.956Z" fill="#5186EB"/>
<path d="M145.314 139.627L140.048 142.956V131.911L145.314 128.582V139.627Z" fill="white"/>
<path d="M85.1527 79.7171L71.9407 88.069V80.9846L85.1527 72.6321V79.7171Z" fill="#FDB84C"/>
<path d="M102.211 68.9335L88.9993 77.286V70.201L102.211 61.8491V68.9335Z" fill="#EA4A4A"/>
<path d="M119.269 58.1495L106.057 66.5021V59.4171L119.269 51.0652V58.1495Z" fill="#F585A4"/>
<path d="M136.328 47.3664L123.116 55.7183V48.6333L136.328 40.2814V47.3664Z" fill="#5186EB"/>
<path d="M145.306 41.6911L140.174 44.9343V37.85L145.306 34.6061V41.6911Z" fill="white"/>
<path d="M120.224 83.0466C120.224 83.7979 119.668 84.758 118.983 85.1914C118.297 85.6248 117.741 85.3676 117.741 84.6164C117.741 83.8651 118.297 82.905 118.983 82.4716C119.668 82.0382 120.224 82.2954 120.224 83.0466Z" fill="white"/>
<path d="M109.692 111.81C109.692 112.561 109.136 113.521 108.45 113.954C107.764 114.388 107.208 114.131 107.208 113.379C107.208 112.628 107.765 111.668 108.45 111.234C109.136 110.802 109.692 111.059 109.692 111.81Z" fill="white"/>
<path d="M136.023 95.1638C136.023 95.915 135.467 96.8751 134.782 97.3085C134.096 97.7419 133.54 97.4847 133.54 96.7341C133.54 95.9835 134.096 95.0228 134.782 94.5894C135.467 94.1553 136.023 94.4125 136.023 95.1638Z" fill="white"/>
<path d="M93.8928 83.927C93.8928 84.6783 93.3366 85.6384 92.6511 86.0718C91.965 86.5052 91.4094 86.248 91.4094 85.4968C91.4094 84.7455 91.9656 83.7854 92.6511 83.352C93.3366 82.9186 93.8928 83.1758 93.8928 83.927Z" fill="white"/>
<path d="M142.42 100.941C142.394 100.941 142.369 100.934 142.346 100.919L134.706 96.0901C134.636 96.0451 134.611 95.9452 134.652 95.8675C134.693 95.7892 134.785 95.7625 134.856 95.8081L142.42 100.59L156.967 91.394C157.036 91.3489 157.129 91.375 157.171 91.4534C157.211 91.5317 157.187 91.6309 157.116 91.6759L142.495 100.919C142.471 100.934 142.446 100.941 142.42 100.941Z" fill="white"/>
<path d="M116.088 117.586C116.063 117.586 116.037 117.579 116.014 117.564L108.375 112.736C108.304 112.691 108.279 112.591 108.321 112.513C108.362 112.435 108.454 112.408 108.524 112.454L116.088 117.235L130.635 108.039C130.704 107.994 130.797 108.021 130.839 108.099C130.879 108.177 130.855 108.276 130.784 108.321L116.163 117.564C116.14 117.579 116.114 117.586 116.088 117.586Z" fill="white"/>
<path d="M121.415 85.532C121.39 85.532 121.364 85.5248 121.341 85.5098L118.908 83.9721C118.837 83.927 118.812 83.8272 118.854 83.7495C118.895 83.6718 118.987 83.6451 119.057 83.6901L121.415 85.1809L135.961 75.985C136.031 75.94 136.123 75.9661 136.165 76.0444C136.206 76.1228 136.181 76.222 136.11 76.267L121.49 85.5098C121.467 85.5248 121.441 85.532 121.415 85.532Z" fill="white"/>
<path d="M95.0833 86.4133C95.0577 86.4133 95.032 86.4061 95.0088 86.3911L92.5761 84.8533C92.5046 84.8083 92.4801 84.7084 92.5218 84.6307C92.5624 84.5531 92.6542 84.5263 92.7251 84.5714L95.0833 86.0621L109.63 76.8663C109.701 76.8206 109.792 76.848 109.833 76.9257C109.874 77.004 109.85 77.1032 109.779 77.1483L95.1578 86.3911C95.1352 86.4054 95.1089 86.4133 95.0833 86.4133Z" fill="white"/>
<path d="M55.3154 131.349L53.8538 132.273V132.961L55.3154 132.038V131.349Z" fill="#5186EB"/>
<path d="M58.0615 129.613L56.1599 130.815V131.503L58.0615 130.302V129.613Z" fill="#5186EB"/>
<path d="M64.1298 126.465V125.776L58.9067 129.078V129.767L64.1298 126.465Z" fill="#5186EB"/>
<path d="M56.935 132.194L53.8538 134.142V134.831L56.935 132.883V132.194Z" fill="#5186EB"/>
<path d="M57.78 132.349L59.6816 131.146V130.458L57.78 131.66V132.349Z" fill="#5186EB"/>
<path d="M62.1412 129.592V128.904L60.5264 129.924V130.612L62.1412 129.592Z" fill="#5186EB"/>
<path d="M62.9858 129.058L64.066 128.375V127.686L62.9858 128.369V129.058Z" fill="#5186EB"/>
<path d="M55.3154 135.088L53.8538 136.011V136.7L55.3154 135.776V135.088Z" fill="#5186EB"/>
<path d="M56.1599 135.242L58.0615 134.04V133.351L56.1599 134.553V135.242Z" fill="#5186EB"/>
<path d="M58.9067 133.506L62.9859 130.927V130.238L58.9067 132.817V133.506Z" fill="#5186EB"/>
<path d="M56.935 135.933L53.8538 137.881V138.569L56.935 136.621V135.933Z" fill="#5186EB"/>
<path d="M59.6816 134.197L57.78 135.399V136.087L59.6816 134.885V134.197Z" fill="#5186EB"/>
<path d="M60.5264 133.662V134.351L62.1412 133.33V132.641L60.5264 133.662Z" fill="#5186EB"/>
<path d="M55.3154 138.826L53.8538 139.75V140.438L55.3154 139.515V138.826Z" fill="#5186EB"/>
<path d="M56.1599 138.98L58.0615 137.778V137.09L56.1599 138.292V138.98Z" fill="#5186EB"/>
<path d="M62.6318 134.89V134.201L58.9067 136.556V137.244L62.6318 134.89Z" fill="#5186EB"/>
<path d="M56.2505 106.105L53.8762 107.606V105.006L56.2505 103.505V106.105Z" fill="#5186EB"/>
<path d="M56.2505 111.777L53.8762 113.278V110.678L56.2505 109.177V111.777Z" fill="#EA4A4A"/>
<path d="M56.2505 117.449L53.8762 118.95V116.35L56.2505 114.849V117.449Z" fill="#9D6295"/>
<path d="M56.2505 123.121L53.8762 124.622V122.022L56.2505 120.522V123.121Z" fill="white"/>
<path d="M58.9425 102.544L57.4814 103.468V102.779L58.9425 101.856V102.544ZM61.6893 100.12L59.7878 101.322V102.011L61.6893 100.808V100.12ZM67.6933 97.0122V96.3236L62.534 99.5851V100.274L67.6933 97.0122ZM60.5627 102.701L57.4814 104.649V105.337L60.5627 103.39V102.701ZM61.4074 102.855L63.3089 101.653V100.964L61.4074 102.167V102.855ZM65.7685 100.098V99.4095L64.1536 100.43V101.119L65.7685 100.098Z" fill="#5186EB"/>
<path d="M58.9425 113.922L57.4814 114.846V114.157L58.9425 113.234V113.922ZM61.6893 111.497L59.7878 112.7V113.388L61.6893 112.186V111.497ZM64.2961 110.538V109.849L62.5346 110.963V111.651L64.2961 110.538ZM60.5627 114.079L57.4814 116.026V116.715L60.5627 114.767V114.079ZM61.4074 114.233L64.0857 112.54V111.851L61.4074 113.544V114.233Z" fill="#5186EB"/>
<path d="M58.9425 119.538L57.4814 120.462V119.773L58.9425 118.85V119.538ZM61.6893 117.113L59.7878 118.316V119.004L61.6893 117.802V117.113ZM65.7804 115.215V114.527L62.5346 116.579V117.268L65.7804 115.215ZM60.5627 119.695L57.4814 121.643V122.331L60.5627 120.383V119.695ZM61.4074 119.849L64.0857 118.156V117.467L61.4074 119.16V119.849Z" fill="#5186EB"/>
<path d="M58.9425 108.13L57.4814 109.054V108.365L58.9425 107.442V108.13ZM61.6893 105.706L59.7878 106.908V107.596L61.6893 106.394V105.706ZM64.2049 104.804V104.115L62.5346 105.171V105.86L64.2049 104.804ZM60.5627 108.287L57.4814 110.235V110.923L60.5627 108.976V108.287ZM61.4074 108.442L63.3089 107.239V106.551L61.4074 107.753V108.442Z" fill="#5186EB"/>
<path d="M55.4418 159.582L53.8538 160.585V146.196L55.4418 145.193V159.582Z" fill="#FDB84C"/>
<path d="M57.0291 158.579L55.4417 159.582V143.404L57.0291 142.401V158.579Z" fill="#FDB84C"/>
<path d="M58.6165 157.575L57.0291 158.578V147.736L58.6165 146.733V157.575Z" fill="#EA4A4A"/>
<path d="M60.2041 156.571L58.6167 157.575V148.239L60.2041 147.235V156.571Z" fill="#EA4A4A"/>
<path d="M61.7915 155.568L60.2041 156.571V150.014L61.7915 149.011V155.568Z" fill="#5186EB"/>
<path d="M63.3793 154.564L61.7913 155.568V150.014L63.3793 149.011V154.564Z" fill="#5186EB"/>
<path d="M64.9666 153.56L63.3792 154.564V151.995L64.9666 150.991V153.56Z" fill="white"/>
<path d="M210.361 180.408L201.854 175.03L210.361 169.652L218.868 175.03L210.361 180.408Z" fill="#5E659C"/>
<path d="M210.361 180.44C210.346 180.435 201.839 175.058 201.839 175.058C201.83 175.052 201.824 175.041 201.824 175.03C201.824 175.018 201.83 175.007 201.839 175.002L210.345 169.623C210.355 169.617 210.366 169.617 210.376 169.623L218.883 175.002C218.892 175.007 218.897 175.018 218.897 175.03C218.897 175.041 218.891 175.052 218.883 175.058L210.376 180.435C210.371 180.438 210.366 180.44 210.361 180.44ZM201.913 175.03L210.361 180.37L218.809 175.03L210.361 169.689L201.913 175.03Z" fill="#221C3A"/>
<path d="M210.361 190.788L201.854 185.409V175.03L210.361 180.408V190.788Z" fill="#221C3A"/>
<path d="M218.868 185.409L210.361 190.788V180.408L218.868 175.03V185.409Z" fill="#5E659C"/>
<path d="M210.361 190.82C210.337 190.81 210.331 190.8 210.331 190.788V180.408C210.331 180.396 210.337 180.386 210.345 180.38L218.853 175.002C218.862 174.996 218.874 174.996 218.883 175.002C218.892 175.008 218.898 175.019 218.898 175.03V185.41C218.898 185.422 218.892 185.432 218.883 185.438L210.376 190.816C210.371 190.819 210.366 190.82 210.361 190.82ZM210.39 180.427V190.731L218.838 185.391V175.087L210.39 180.427Z" fill="#221C3A"/>
<path d="M212.366 217.39C213.042 216.936 214.122 216.398 215.005 216.016C215.65 216.772 216.132 217.479 216.768 218.248C213.612 220.103 212.177 220.795 211.414 219.581C210.966 218.593 211.54 217.946 212.366 217.39Z" fill="#221C3A"/>
<path d="M212.826 217.567C213.687 217.086 214.466 216.705 215.294 216.41C215.79 216.979 216.291 217.544 216.774 218.128C216.982 218.38 217.185 218.638 217.389 218.895C216.461 219.447 215.523 219.491 214.824 219.805C213.037 220.607 212.14 220.522 211.468 219.756C210.909 219.121 211.966 218.047 212.826 217.567Z" fill="white"/>
<path d="M222.603 208.46C222.714 208.384 224.234 209.284 224.9 210.533C225.854 212.322 225.866 214.317 225.739 214.515C225.553 214.806 219.714 216.091 217.067 216.706L212.627 212.644C213.584 211.667 221.118 209.472 222.603 208.46Z" fill="#221C3A"/>
<path d="M213.436 212.324C215.466 212.776 218.104 213.839 220.3 215.868C223.232 218.577 225.739 220.315 225.739 220.315C225.739 220.315 224.304 223.444 223.759 223.326C218.525 219.881 211.312 217.586 211.712 214.382C211.961 212.392 213.23 212.278 213.436 212.324Z" fill="#221C3A"/>
<path d="M226.506 222.804C226.13 224.21 225.646 225.48 225.077 226.739C224.743 227.479 224.09 228.117 223.196 227.472C221.854 226.505 222.543 224.749 224.514 221.467C225.17 221.927 225.841 222.36 226.506 222.804Z" fill="white"/>
<path d="M227.148 222.819C226.626 224.049 225.806 225.51 225.333 226.559C225.111 227.049 224.799 227.466 224.379 227.672C223.914 227.9 223.323 227.689 223.174 227.156C222.904 226.19 223.624 224.487 225.134 221.948C225.774 222.375 226.514 222.377 227.148 222.819Z" fill="#221C3A"/>
<path d="M231.011 218.615C231.248 223.474 229.447 224.194 228.7 224.341C226.855 224.704 224.048 222.09 222.102 220.198C220.261 218.408 219.634 217.307 218.795 216.512C220.497 216.595 224.302 217.119 224.859 217.175C224.859 217.175 224.419 210.545 225.258 210.043C225.469 209.917 225.72 209.912 225.961 209.915C226.777 209.924 227.592 209.981 228.401 210.088C228.925 210.156 230.777 210.223 230.777 210.223C230.719 210.683 230.79 212.308 230.802 212.596C230.845 213.644 230.931 216.962 231.011 218.615Z" fill="#221C3A"/>
<path d="M220.677 202.729C220.788 201.729 220.995 199.107 220.995 199.107C220.995 199.107 221.26 198.387 221.603 198.628C222.557 199.299 223.523 199.925 224.59 200.215C224.087 201.88 223.579 203.417 223.306 204.226C223.157 204.667 220.416 210.123 220.323 210.626L218.525 209.727C218.751 209.547 220.657 202.914 220.677 202.729Z" fill="#FFC6A2"/>
<path d="M225.021 201.624C224.712 202.816 220.429 201.652 220.275 200.656C220.297 198.609 222.023 190.961 224.486 191.53C224.486 191.53 227.683 191.661 225.021 201.624Z" fill="#EA4A4A"/>
<path d="M232.037 196.398C233.658 198.601 231.686 201.964 231.18 203.889C230.624 206.001 230.836 207.508 230.909 209.91C231.017 213.462 220.292 211.423 222.218 207.504C222.456 207.022 222.695 206.54 222.827 206.012C223.083 204.99 222.283 201.414 221.691 197.277C221.64 196.919 221.622 196.551 221.637 196.189C221.656 195.701 221.677 195.334 221.77 194.907C221.911 194.257 222.955 192.716 223.528 192.485C225.464 191.707 231.405 195.537 232.037 196.398Z" fill="#EA4A4A"/>
<path d="M227.829 215.792L227.829 216.032C227.829 216.072 227.805 216.112 227.757 216.143L222.21 219.649C222.113 219.71 221.957 219.71 221.861 219.649L214.014 214.656C213.966 214.626 213.942 214.586 213.942 214.546L213.942 214.306L227.829 215.792Z" fill="#EEE8DE"/>
<path d="M214.015 214.195L219.562 210.688C219.658 210.628 219.814 210.628 219.91 210.688L227.757 215.681C227.853 215.743 227.853 215.841 227.756 215.903L222.21 219.409C222.113 219.47 221.956 219.47 221.861 219.409L214.014 214.416C213.918 214.355 213.919 214.256 214.015 214.195Z" fill="white"/>
<path d="M223.972 217.154L224.265 216.969C224.299 216.947 224.354 216.947 224.388 216.969L224.737 217.19C224.771 217.211 224.771 217.246 224.737 217.267L224.443 217.453C224.409 217.474 224.355 217.474 224.321 217.453L223.972 217.232C223.938 217.211 223.938 217.176 223.972 217.154ZM223.409 216.876L223.757 217.096C223.791 217.118 223.846 217.118 223.88 217.096L224.173 216.911C224.207 216.889 224.207 216.855 224.173 216.833L223.825 216.613C223.791 216.591 223.736 216.591 223.702 216.613L223.409 216.798C223.375 216.82 223.375 216.854 223.409 216.876ZM222.845 216.52L223.194 216.741C223.228 216.762 223.283 216.762 223.317 216.741L223.61 216.555C223.644 216.534 223.644 216.499 223.61 216.478L223.261 216.257C223.227 216.235 223.173 216.235 223.139 216.257L222.845 216.442C222.811 216.464 222.811 216.498 222.845 216.52ZM222.282 216.164L222.631 216.384C222.665 216.406 222.719 216.406 222.753 216.384L223.047 216.199C223.081 216.177 223.081 216.143 223.047 216.121L222.698 215.901C222.664 215.879 222.609 215.879 222.575 215.901L222.282 216.086C222.248 216.107 222.248 216.142 222.282 216.164ZM221.719 215.807L222.067 216.028C222.101 216.049 222.156 216.049 222.19 216.028L222.483 215.842C222.517 215.821 222.517 215.786 222.483 215.765L222.135 215.544C222.101 215.523 222.046 215.523 222.012 215.544L221.719 215.73C221.685 215.751 221.685 215.786 221.719 215.807ZM221.155 215.452L221.504 215.672C221.538 215.694 221.593 215.694 221.627 215.672L221.92 215.487C221.954 215.465 221.954 215.431 221.92 215.409L221.571 215.188C221.537 215.167 221.483 215.167 221.449 215.188L221.155 215.374C221.121 215.395 221.121 215.43 221.155 215.452ZM220.592 215.095L220.941 215.316C220.975 215.337 221.03 215.337 221.063 215.316L221.357 215.13C221.391 215.109 221.391 215.074 221.357 215.053L221.008 214.832C220.974 214.811 220.919 214.811 220.885 214.832L220.592 215.017C220.558 215.039 220.558 215.074 220.592 215.095ZM220.029 214.739L220.377 214.96C220.411 214.982 220.466 214.982 220.5 214.96L220.793 214.775C220.827 214.753 220.827 214.719 220.793 214.697L220.445 214.476C220.411 214.455 220.356 214.455 220.322 214.476L220.029 214.662C219.995 214.683 219.995 214.718 220.029 214.739ZM219.465 214.383L219.814 214.604C219.848 214.625 219.903 214.625 219.937 214.604L220.23 214.418C220.264 214.397 220.264 214.362 220.23 214.341L219.881 214.12C219.847 214.098 219.793 214.098 219.759 214.12L219.465 214.305C219.431 214.327 219.431 214.362 219.465 214.383ZM218.72 213.912L219.251 214.248C219.285 214.269 219.34 214.269 219.374 214.248L219.667 214.063C219.701 214.041 219.701 214.006 219.667 213.985L219.136 213.649C219.102 213.628 219.047 213.628 219.013 213.649L218.72 213.835C218.687 213.856 218.687 213.891 218.72 213.912ZM216.605 214.528L216.953 214.749C216.987 214.77 217.042 214.77 217.076 214.749L217.369 214.563C217.403 214.542 217.403 214.507 217.369 214.486L217.021 214.265C216.987 214.243 216.932 214.243 216.898 214.265L216.605 214.45C216.571 214.472 216.571 214.506 216.605 214.528ZM216.041 214.172L216.39 214.392C216.424 214.414 216.479 214.414 216.513 214.392L216.806 214.207C216.84 214.185 216.84 214.151 216.806 214.129L216.457 213.909C216.423 213.887 216.369 213.887 216.335 213.909L216.041 214.094C216.007 214.115 216.007 214.15 216.041 214.172ZM215.478 213.816L215.827 214.036C215.861 214.058 215.916 214.058 215.95 214.036L216.243 213.851C216.277 213.83 216.277 213.795 216.243 213.773L215.894 213.553C215.86 213.531 215.805 213.531 215.771 213.553L215.478 213.738C215.444 213.76 215.444 213.794 215.478 213.816ZM216.09 214.854L216.438 215.074C216.472 215.096 216.527 215.096 216.561 215.074L216.854 214.889C216.888 214.867 216.888 214.833 216.854 214.811L216.506 214.591C216.472 214.569 216.417 214.569 216.383 214.591L216.09 214.776C216.056 214.798 216.056 214.832 216.09 214.854ZM215.526 214.497L215.875 214.718C215.909 214.739 215.964 214.739 215.998 214.718L216.291 214.533C216.325 214.511 216.325 214.476 216.291 214.455L215.942 214.234C215.908 214.213 215.854 214.213 215.82 214.234L215.526 214.42C215.492 214.441 215.492 214.476 215.526 214.497ZM214.963 214.141L215.312 214.361C215.346 214.383 215.401 214.383 215.434 214.361L215.728 214.176C215.762 214.155 215.762 214.12 215.728 214.098L215.379 213.878C215.345 213.856 215.29 213.856 215.256 213.878L214.963 214.063C214.929 214.085 214.929 214.12 214.963 214.141ZM223.265 217.439L223.796 217.774C223.83 217.796 223.885 217.796 223.919 217.774L224.212 217.589C224.246 217.568 224.246 217.533 224.212 217.511L223.682 217.176C223.648 217.154 223.593 217.154 223.559 217.176L223.265 217.361C223.232 217.383 223.232 217.417 223.265 217.439ZM222.702 217.083L223.051 217.304C223.085 217.325 223.14 217.325 223.174 217.304L223.467 217.118C223.501 217.097 223.501 217.062 223.467 217.041L223.118 216.82C223.084 216.799 223.029 216.799 222.995 216.82L222.702 217.006C222.668 217.027 222.668 217.062 222.702 217.083ZM222.139 216.727L222.488 216.947C222.522 216.969 222.576 216.969 222.61 216.947L222.904 216.762C222.938 216.741 222.938 216.706 222.904 216.684L222.555 216.464C222.521 216.442 222.466 216.442 222.432 216.464L222.139 216.649C222.105 216.671 222.105 216.705 222.139 216.727ZM221.576 216.371L221.924 216.592C221.958 216.613 222.013 216.613 222.047 216.592L222.34 216.406C222.374 216.385 222.374 216.35 222.34 216.329L221.992 216.108C221.958 216.087 221.903 216.087 221.869 216.108L221.576 216.293C221.542 216.315 221.542 216.35 221.576 216.371ZM221.012 216.015L221.361 216.235C221.395 216.257 221.45 216.257 221.484 216.235L221.777 216.05C221.811 216.028 221.811 215.994 221.777 215.972L221.428 215.752C221.394 215.73 221.339 215.73 221.306 215.752L221.012 215.937C220.978 215.959 220.978 215.993 221.012 216.015ZM220.449 215.658L220.798 215.879C220.832 215.901 220.886 215.901 220.92 215.879L221.214 215.694C221.248 215.672 221.248 215.638 221.214 215.616L220.865 215.395C220.831 215.374 220.776 215.374 220.742 215.395L220.449 215.581C220.415 215.602 220.415 215.638 220.449 215.658ZM219.886 215.303L220.234 215.523C220.268 215.545 220.323 215.545 220.357 215.523L220.65 215.338C220.684 215.316 220.684 215.282 220.65 215.26L220.302 215.04C220.268 215.018 220.213 215.018 220.179 215.04L219.886 215.225C219.852 215.247 219.852 215.281 219.886 215.303ZM219.322 214.946L219.671 215.167C219.705 215.188 219.76 215.188 219.794 215.167L220.087 214.982C220.121 214.96 220.121 214.925 220.087 214.904L219.738 214.683C219.704 214.662 219.65 214.662 219.616 214.683L219.322 214.869C219.288 214.89 219.288 214.925 219.322 214.946ZM218.759 214.591L219.108 214.811C219.142 214.833 219.197 214.833 219.23 214.811L219.524 214.626C219.558 214.604 219.558 214.57 219.524 214.548L219.175 214.328C219.141 214.306 219.086 214.306 219.052 214.328L218.759 214.513C218.725 214.534 218.725 214.569 218.759 214.591ZM218.196 214.234L218.544 214.455C218.578 214.476 218.633 214.476 218.667 214.455L218.96 214.269C218.994 214.248 218.994 214.213 218.96 214.192L218.612 213.971C218.578 213.95 218.523 213.95 218.489 213.971L218.196 214.157C218.162 214.178 218.162 214.213 218.196 214.234ZM222.948 217.879L223.297 218.099C223.331 218.121 223.386 218.121 223.42 218.099L223.713 217.914C223.747 217.893 223.747 217.858 223.713 217.836L223.364 217.616C223.33 217.594 223.276 217.594 223.242 217.616L222.948 217.801C222.914 217.823 222.914 217.857 222.948 217.879ZM222.385 217.523L222.734 217.744C222.768 217.765 222.823 217.765 222.857 217.744L223.15 217.558C223.184 217.537 223.184 217.502 223.15 217.481L222.801 217.26C222.767 217.239 222.712 217.239 222.678 217.26L222.385 217.445C222.351 217.467 222.351 217.502 222.385 217.523ZM221.822 217.167L222.17 217.387C222.204 217.409 222.259 217.409 222.293 217.387L222.587 217.202C222.621 217.18 222.621 217.146 222.587 217.124L222.238 216.904C222.204 216.882 222.149 216.882 222.115 216.904L221.822 217.089C221.788 217.111 221.788 217.145 221.822 217.167ZM221.258 216.81L221.607 217.031C221.641 217.053 221.696 217.053 221.73 217.031L222.023 216.846C222.057 216.824 222.057 216.79 222.023 216.768L221.675 216.547C221.641 216.526 221.586 216.526 221.552 216.547L221.258 216.733C221.224 216.754 221.224 216.79 221.258 216.81ZM221.927 218.525L222.275 218.746C222.309 218.767 222.364 218.767 222.398 218.746L222.691 218.56C222.725 218.539 222.725 218.504 222.691 218.483L222.343 218.262C222.309 218.24 222.254 218.24 222.22 218.262L221.927 218.447C221.893 218.469 221.893 218.503 221.927 218.525ZM221.363 218.169L221.712 218.389C221.746 218.411 221.801 218.411 221.835 218.389L222.128 218.204C222.162 218.182 222.162 218.148 222.128 218.126L221.779 217.906C221.745 217.884 221.691 217.884 221.657 217.906L221.363 218.091C221.329 218.113 221.329 218.147 221.363 218.169ZM220.8 217.812L221.149 218.033C221.183 218.054 221.238 218.054 221.272 218.033L221.565 217.848C221.599 217.826 221.599 217.791 221.565 217.77L221.216 217.549C221.182 217.528 221.127 217.528 221.093 217.549L220.8 217.735C220.766 217.756 220.766 217.791 220.8 217.812ZM220.237 217.457L220.585 217.677C220.619 217.699 220.674 217.699 220.708 217.677L221.002 217.492C221.035 217.47 221.035 217.436 221.002 217.414L220.653 217.194C220.619 217.172 220.564 217.172 220.53 217.194L220.237 217.379C220.203 217.4 220.203 217.435 220.237 217.457ZM216.679 215.207L217.209 215.543C217.243 215.564 217.298 215.564 217.332 215.543L217.625 215.358C217.659 215.336 217.659 215.301 217.625 215.28L217.095 214.944C217.061 214.923 217.006 214.923 216.972 214.944L216.679 215.13C216.645 215.151 216.645 215.186 216.679 215.207ZM220.695 216.455L221.044 216.675C221.078 216.697 221.133 216.697 221.167 216.675L221.46 216.49C221.494 216.468 221.494 216.434 221.46 216.412L221.111 216.192C221.077 216.17 221.022 216.17 220.988 216.192L220.695 216.377C220.661 216.399 220.661 216.433 220.695 216.455ZM220.132 216.098L220.48 216.319C220.514 216.34 220.569 216.34 220.603 216.319L220.897 216.134C220.931 216.112 220.931 216.077 220.897 216.056L220.548 215.835C220.514 215.814 220.459 215.814 220.425 215.835L220.132 216.021C220.098 216.042 220.098 216.077 220.132 216.098ZM219.568 215.743L219.917 215.963C219.951 215.985 220.006 215.985 220.04 215.963L220.333 215.778C220.367 215.756 220.367 215.722 220.333 215.7L219.985 215.48C219.951 215.458 219.896 215.458 219.862 215.48L219.568 215.665C219.534 215.686 219.534 215.721 219.568 215.743ZM219.005 215.386L219.354 215.607C219.388 215.628 219.443 215.628 219.477 215.607L219.77 215.421C219.804 215.4 219.804 215.365 219.77 215.344L219.421 215.123C219.387 215.102 219.332 215.102 219.298 215.123L219.005 215.309C218.971 215.33 218.971 215.365 219.005 215.386ZM218.442 215.03L218.791 215.25C218.825 215.272 218.879 215.272 218.913 215.25L219.207 215.065C219.241 215.044 219.241 215.009 219.207 214.987L218.858 214.767C218.824 214.745 218.769 214.745 218.735 214.767L218.442 214.952C218.408 214.974 218.408 215.009 218.442 215.03ZM217.697 214.559L218.227 214.895C218.261 214.916 218.316 214.916 218.35 214.895L218.643 214.709C218.677 214.688 218.677 214.653 218.643 214.632L218.113 214.296C218.079 214.275 218.024 214.275 217.99 214.296L217.697 214.482C217.663 214.503 217.663 214.538 217.697 214.559ZM222.242 218.086L222.773 218.422C222.806 218.443 222.861 218.443 222.895 218.422L223.189 218.237C223.223 218.215 223.223 218.18 223.189 218.159L222.658 217.823C222.624 217.802 222.569 217.802 222.535 217.823L222.242 218.009C222.208 218.03 222.208 218.065 222.242 218.086ZM221.679 217.73L222.027 217.951C222.061 217.972 222.116 217.972 222.15 217.951L222.443 217.765C222.477 217.744 222.477 217.709 222.443 217.688L222.095 217.467C222.061 217.445 222.006 217.445 221.972 217.467L221.679 217.652C221.645 217.674 221.645 217.709 221.679 217.73ZM221.115 217.374L221.464 217.595C221.498 217.616 221.553 217.616 221.587 217.595L221.88 217.41C221.914 217.388 221.914 217.353 221.88 217.332L221.531 217.111C221.497 217.09 221.443 217.09 221.409 217.111L221.115 217.297C221.081 217.318 221.081 217.353 221.115 217.374ZM220.552 217.018L220.901 217.239C220.935 217.26 220.99 217.26 221.024 217.239L221.317 217.053C221.351 217.032 221.351 216.997 221.317 216.976L220.968 216.755C220.934 216.733 220.879 216.733 220.845 216.755L220.552 216.94C220.518 216.962 220.518 216.996 220.552 217.018ZM219.989 216.662L220.337 216.882C220.371 216.904 220.426 216.904 220.46 216.882L220.754 216.697C220.787 216.675 220.787 216.641 220.754 216.619L220.405 216.399C220.371 216.377 220.316 216.377 220.282 216.399L219.989 216.584C219.955 216.605 219.955 216.641 219.989 216.662ZM219.425 216.306L219.774 216.526C219.808 216.548 219.863 216.548 219.897 216.526L220.19 216.341C220.224 216.32 220.224 216.285 220.19 216.263L219.841 216.043C219.808 216.021 219.753 216.021 219.719 216.043L219.425 216.228C219.391 216.25 219.391 216.284 219.425 216.306ZM218.862 215.95L219.211 216.17C219.245 216.192 219.3 216.192 219.334 216.17L219.627 215.985C219.661 215.963 219.661 215.929 219.627 215.907L219.278 215.686C219.244 215.665 219.189 215.665 219.155 215.686L218.862 215.872C218.828 215.893 218.828 215.928 218.862 215.95ZM218.299 215.594L218.647 215.814C218.681 215.836 218.736 215.836 218.77 215.814L219.064 215.629C219.098 215.607 219.098 215.573 219.064 215.551L218.715 215.331C218.681 215.309 218.626 215.309 218.592 215.331L218.299 215.516C218.265 215.538 218.265 215.572 218.299 215.594ZM217.735 215.237L218.084 215.458C218.118 215.48 218.173 215.48 218.207 215.458L218.5 215.273C218.534 215.251 218.534 215.217 218.5 215.195L218.152 214.974C218.118 214.953 218.063 214.953 218.029 214.974L217.735 215.16C217.701 215.181 217.701 215.216 217.735 215.237ZM217.172 214.881L217.521 215.102C217.555 215.123 217.61 215.123 217.644 215.102L217.937 214.916C217.971 214.895 217.971 214.86 217.937 214.839L217.588 214.618C217.554 214.596 217.499 214.596 217.465 214.618L217.172 214.803C217.138 214.825 217.138 214.86 217.172 214.881ZM218.147 213.553L218.495 213.773C218.529 213.795 218.584 213.795 218.618 213.773L218.912 213.588C218.946 213.567 218.946 213.532 218.912 213.51L218.563 213.29C218.529 213.268 218.474 213.268 218.44 213.29L218.147 213.475C218.113 213.497 218.113 213.532 218.147 213.553ZM217.583 213.197L217.932 213.418C217.966 213.439 218.021 213.439 218.055 213.418L218.348 213.232C218.382 213.211 218.382 213.176 218.348 213.155L218 212.934C217.966 212.913 217.911 212.913 217.877 212.934L217.583 213.119C217.549 213.141 217.549 213.176 217.583 213.197ZM217.02 212.841L217.369 213.061C217.403 213.083 217.458 213.083 217.492 213.061L217.785 212.876C217.819 212.854 217.819 212.82 217.785 212.798L217.436 212.578C217.402 212.556 217.347 212.556 217.313 212.578L217.02 212.763C216.986 212.785 216.986 212.819 217.02 212.841ZM216.506 213.166L216.855 213.386C216.889 213.408 216.944 213.408 216.978 213.386L217.271 213.201C217.305 213.179 217.305 213.145 217.271 213.123L216.922 212.903C216.888 212.881 216.834 212.881 216.8 212.903L216.506 213.088C216.472 213.11 216.472 213.144 216.506 213.166Z" fill="#FDB84C"/>
<path d="M224.396 197.381C224.565 197.709 224.864 197.931 225.199 198.021C225.832 198.191 226.496 198.132 227.036 197.773C227.788 197.274 228.424 196.319 228.309 195.026C228.297 194.889 228.239 194.757 228.151 194.659C227.742 194.208 227.26 193.444 226.974 191.902C226.885 191.421 226.374 191.213 226.023 191.516C224.831 192.542 223.901 194.541 223.911 195.404C223.915 195.757 224.064 196.732 224.396 197.381Z" fill="#FFAD82"/>
<path d="M220.039 216.042C220.146 215.552 220.329 214.892 220.519 214.496C220.323 214.498 220.167 214.413 220.312 214.171C220.533 213.799 220.872 213.179 221.378 212.779C221.484 212.695 221.705 212.545 221.827 212.492C221.95 212.433 222.089 212.4 222.249 212.399C222.528 212.397 222.762 212.41 222.986 212.342C224.548 211.076 227.304 208.194 228.115 207.421C228.243 207.299 228.316 207.126 228.315 206.94C228.313 205.935 228.247 204.887 228.209 203.841C228.193 203.392 228.625 203.09 228.994 203.285C230.014 203.821 231.041 204.312 232.13 204.455C231.818 206.175 231.485 207.768 231.305 208.608C231.207 209.066 230.986 209.481 230.659 209.786C229.329 211.027 225.942 212.695 224.185 213.788C223.569 214.225 222.664 216.535 222.205 216.892C221.835 217.18 220.946 216.933 220.401 216.739C220.133 216.644 219.974 216.342 220.039 216.042Z" fill="#FFC6A2"/>
<path d="M232.648 205.832C232.476 207.057 228.094 206.476 227.83 205.508C227.623 203.474 228.478 195.651 230.987 195.886C230.987 195.886 234.173 195.587 232.648 205.832Z" fill="#EA4A4A"/>
<path d="M217.389 211.017C218.006 210.297 218.462 209.776 218.525 209.727C219.335 209.605 219.93 209.912 220.323 210.626C220.26 210.97 220.072 211.856 219.982 212.193C219.827 212.768 219.734 214.984 219.192 215.145C218.733 215.281 216.612 214.54 216.686 213.623C216.686 213.623 216.63 211.902 217.389 211.017Z" fill="#FFC6A2"/>
<path d="M221.895 219.649L220 213.831L220.057 213.77L221.952 219.588C221.975 219.66 221.971 219.709 221.947 219.735L221.891 219.796C221.915 219.77 221.918 219.72 221.895 219.649Z" fill="#EEE8DE"/>
<path d="M211.748 208.368C211.782 208.332 211.856 208.342 211.955 208.405L219.646 213.267C219.816 213.375 220.002 213.599 220.058 213.77L220.001 213.831C219.946 213.66 219.76 213.435 219.59 213.328L211.899 208.466C211.8 208.403 211.726 208.393 211.692 208.429L211.748 208.368Z" fill="white"/>
<path d="M211.899 208.466L219.59 213.328C219.759 213.435 219.945 213.66 220 213.831L221.895 219.649C221.95 219.82 221.854 219.866 221.683 219.759L213.992 214.897C213.822 214.789 213.637 214.564 213.581 214.393L211.687 208.575C211.632 208.404 211.729 208.358 211.899 208.466Z" fill="#5186EB"/>
<path d="M222.538 189.638C223.113 188.566 223.894 188.074 225.021 188.016C225.327 188.001 225.828 188.294 226.116 188.407C227.187 188.831 227.386 190.774 227.43 191.875C227.485 193.263 227.434 194.774 226.607 195.856C225.008 197.95 223.185 198.207 222.972 196.877C222.953 196.758 222.945 196.611 222.846 196.558C222.811 196.538 222.769 196.537 222.731 196.524C222.553 196.466 222.503 196.218 222.501 196.015C222.499 195.836 222.511 195.655 222.536 195.478C222.555 195.341 222.582 195.202 222.566 195.064C222.532 194.76 222.303 194.533 222.155 194.274C221.8 193.654 221.84 192.676 221.893 191.976C221.953 191.158 222.156 190.348 222.538 189.638Z" fill="#FFC6A2"/>
<path d="M222.315 188.971C223.449 187.598 225.069 187.474 226.176 188.204C229.007 188.936 228.978 192.522 227.282 194.844C227.459 194.23 226.713 193.891 226.607 194.086C226.3 194.652 226.238 195.094 225.934 195.119C225.687 195.139 225.85 194.624 225.139 194.298C225.015 194.241 222.932 194.231 221.98 193.347C221.907 193.28 221.853 193.188 221.821 193.089C221.658 192.588 220.927 190.65 222.315 188.971Z" fill="#221C3A"/>
<path d="M226.816 193.742C227.292 193.143 228.143 193.909 226.79 195.575C226.654 195.744 226.476 195.912 226.298 195.794C225.911 195.536 226.537 194.092 226.816 193.742Z" fill="#FFC6A2"/>
<path d="M166.914 190.605C166.113 190.984 163.984 192.306 163.645 192.22C162.535 191.936 160.618 190.98 160.14 190.645C159.839 190.434 159.501 189.073 159.431 188.362C159.33 187.326 158.788 187.635 158.487 186.555C158.452 186.428 158.426 186.292 158.351 186.187C158.277 186.082 158.132 186.02 158.031 186.094C157.846 186.229 157.944 186.863 158.033 187.074C158.13 187.304 158.311 187.476 158.407 187.705C158.575 188.104 158.355 188.281 157.947 187.83C157.427 187.257 156.028 185.735 155.904 186.354C155.819 186.78 157.507 187.985 157.274 188.282C157.116 188.467 155.419 186.837 155.135 186.775C155.035 186.753 154.917 186.789 154.868 186.888C154.774 187.079 154.946 187.242 155.115 187.354C155.467 187.59 157.01 188.913 156.872 189.065C156.744 189.208 155.116 187.712 154.732 187.785C154.63 187.805 154.543 187.899 154.574 188.014C154.678 188.391 155.96 189.202 156.251 189.457C156.414 189.6 156.664 189.74 156.573 189.912C156.42 190.134 155.126 188.953 154.923 189.258C154.749 189.758 155.612 190.039 158.086 191.687C159.481 192.617 163.562 195.471 164.478 195.471C165.394 195.471 167.634 194.289 167.634 194.289C167.989 193.929 168.727 193.186 168.902 192.687C169.211 191.808 168.46 189.873 166.914 190.605Z" fill="#FCBE9F"/>
<path d="M162.315 230.321C162.318 230.306 162.317 230.291 162.32 230.275C162.291 230.118 162.29 229.96 162.32 229.801L160.182 230.041C156.61 230.283 154.837 230.133 154.797 231.512C154.367 234.217 159.667 233.852 162.172 233.492C163.513 233.298 162.401 230.952 162.315 230.321Z" fill="white"/>
<path d="M169.826 226.299L168.299 225.044C168.032 224.636 168.076 224.52 167.722 224.202C167.156 223.694 165.391 223.898 165.372 224.899C165.299 225.54 165.418 225.839 165.52 226.037C165.824 226.63 167.247 228.806 167.579 229.365C168.439 230.813 170.316 230.475 170.283 229.477C170.262 228.855 170.413 229.055 169.826 226.299Z" fill="white"/>
<path d="M170.399 220.008C170.369 219.401 170.277 218.797 170.169 218.2C168.646 209.797 169.981 206.136 168.708 203.885L158.549 206.174C157.72 213.253 158.939 213.355 158.882 217.455C158.861 218.977 159.001 220.583 158.947 222.103C158.813 225.902 159.689 227.718 159.453 230.098C159.503 231.19 162.53 231.37 162.51 230.306C162.457 227.59 163.556 224.136 163.1 221.63C162.967 220.9 162.906 220.077 162.874 219.333C162.841 218.599 163.1 216.196 164.414 211.461C164.414 211.461 165.933 216.527 165.97 217.978C165.979 218.333 165.991 218.677 166.005 218.999C166.057 220.203 166.295 221.382 166.667 222.516C166.961 223.415 167.253 224.647 167.276 226.895C167.29 228.276 170.15 228.191 170.105 227.172C169.995 223.852 170.519 222.383 170.399 220.008Z" fill="#5E659C"/>
<path d="M161.207 231.05C160.348 231.05 159.45 230.703 159.423 230.101C159.535 228.957 159.393 227.95 159.228 226.784C159.049 225.518 158.847 224.081 158.917 222.103C158.946 221.273 158.917 220.406 158.889 219.567C158.866 218.869 158.842 218.147 158.851 217.454C158.873 215.912 158.716 214.954 158.55 213.94C158.28 212.291 158.001 210.584 158.518 206.169C158.519 206.155 158.528 206.144 158.541 206.142L168.701 203.853C168.711 203.847 168.725 203.857 168.732 203.868C169.349 204.959 169.358 206.36 169.372 208.481C169.387 210.741 169.408 213.834 170.197 218.194C170.287 218.692 170.396 219.347 170.428 220.006C170.486 221.135 170.396 222.076 170.301 223.073C170.195 224.176 170.077 225.427 170.134 227.171C170.143 227.377 170.039 227.562 169.834 227.702C169.321 228.055 168.324 228.058 167.742 227.711C167.42 227.518 167.249 227.237 167.245 226.896C167.221 224.597 166.908 223.354 166.637 222.528C166.246 221.336 166.023 220.149 165.974 219.001C165.959 218.664 165.947 218.32 165.938 217.979C165.905 216.662 164.624 212.285 164.412 211.571C162.86 217.193 162.892 219.129 162.901 219.333C162.941 220.264 163.016 221.014 163.127 221.625C163.391 223.074 163.134 224.86 162.886 226.586C162.703 227.85 162.516 229.157 162.538 230.306C162.548 230.819 161.92 231.026 161.33 231.049C161.289 231.05 161.248 231.05 161.207 231.05ZM158.574 206.201C158.063 210.589 158.34 212.287 158.609 213.928C158.775 214.946 158.933 215.907 158.911 217.455C158.901 218.147 158.925 218.867 158.949 219.565C158.977 220.405 159.005 221.274 158.976 222.106C158.906 224.078 159.109 225.511 159.287 226.775C159.452 227.946 159.595 228.956 159.482 230.103C159.507 230.661 160.373 230.986 161.204 230.986C161.245 230.986 161.287 230.985 161.328 230.984C161.89 230.962 162.488 230.772 162.479 230.308C162.457 229.152 162.644 227.843 162.827 226.576C163.075 224.854 163.331 223.075 163.069 221.638C162.957 221.024 162.882 220.27 162.842 219.335C162.801 218.409 163.18 215.789 164.383 211.453C164.387 211.44 164.398 211.43 164.411 211.43C164.424 211.43 164.436 211.44 164.441 211.453C164.455 211.503 165.962 216.54 165.998 217.978C166.006 218.318 166.018 218.662 166.033 218.999C166.083 220.141 166.305 221.321 166.693 222.507C166.965 223.338 167.28 224.587 167.304 226.896C167.308 227.295 167.561 227.528 167.77 227.654C168.335 227.994 169.304 227.99 169.802 227.648C169.931 227.559 170.084 227.405 170.074 227.175C170.016 225.426 170.135 224.172 170.241 223.067C170.335 222.073 170.425 221.134 170.368 220.01C170.335 219.355 170.228 218.702 170.138 218.207C169.347 213.841 169.327 210.744 169.312 208.482C169.298 206.384 169.289 204.995 168.691 203.922L158.574 206.201Z" fill="#221C3A"/>
<path d="M168.798 185.616C169.733 185.615 169.759 186.315 169.878 186.814C171.303 192.806 167.19 194.943 169.318 205.089C170.416 210.29 157.679 210.932 158.455 206.524C158.997 202.755 160.449 197.663 159.976 193.515C159.867 192.566 159.387 191.37 159.757 190.444C160.072 189.653 168.422 185.616 168.798 185.616Z" fill="#5186EB"/>
<path d="M150.484 188.741C150.277 188.652 149.901 189.408 149.808 189.627C149.878 189.2 150.198 188.367 149.874 188.262C149.399 188.108 149.032 189.698 148.878 190.23C148.692 190.871 148.566 191.534 148.465 192.196C148.427 192.447 148.395 192.549 148.4 192.664C148.413 192.992 148.565 193.663 149.23 194.495C150.313 195.852 153.245 198.963 153.75 198.989C154.054 199.006 154.35 198.891 154.637 198.78C155.698 198.365 160.183 196.296 160.639 195.726C161.179 195.051 159.272 190.585 158.927 190.939C157.617 192.28 153.76 195.52 153.76 195.52C153.76 195.52 150.599 193.482 150.649 193.38C150.869 192.941 151.497 191.09 151.291 190.953C151.131 190.847 150.994 191.096 150.93 191.22C150.898 190.882 150.961 190.548 151.091 190.239C151.306 189.729 150.93 189.577 150.698 189.88C150.641 189.953 150.457 190.16 150.461 190.019C150.478 189.36 150.848 188.898 150.484 188.741Z" fill="#FCBE9F"/>
<path d="M161.099 190.058C160.954 189.878 160.316 189.956 160.132 190.086C159.316 190.662 156.429 192.78 155.389 193.678C154.541 194.41 156.463 198.179 157.788 197.715C158.273 197.544 161.435 195.999 161.692 195.63C162.299 194.76 161.922 191.074 161.099 190.058Z" fill="#5186EB"/>
<path d="M150.885 193.514L148.06 189.854C147.933 189.689 147.916 189.442 148.022 189.309L149.102 187.959C149.123 187.933 149.147 187.912 149.173 187.899L148.938 188.023C148.912 188.036 148.887 188.057 148.866 188.083L147.787 189.433C147.68 189.566 147.697 189.813 147.825 189.978L150.649 193.638C150.751 193.771 150.896 193.814 151.004 193.757L151.239 193.633C151.131 193.69 150.987 193.647 150.885 193.514Z" fill="white"/>
<path d="M152.351 191.68L149.526 188.02C149.399 187.855 149.208 187.826 149.101 187.959L148.022 189.31C147.915 189.443 147.932 189.69 148.06 189.855L150.884 193.515C151.012 193.68 151.205 193.706 151.312 193.573L152.391 192.223C152.498 192.089 152.478 191.846 152.351 191.68Z" fill="#221C3A"/>
<path d="M150.06 190.109C150.092 189.993 150.129 189.874 150.113 189.754C150.098 189.635 150.011 189.516 149.901 189.518C149.809 189.52 149.736 189.6 149.674 189.675C149.48 189.908 149.286 190.142 149.092 190.375C148.934 190.565 148.774 190.758 148.667 190.987C148.526 191.291 148.445 192.107 148.415 192.478C148.405 192.599 148.458 192.712 148.555 192.771C148.838 192.944 149.426 193.263 149.642 193.372C149.933 193.519 150.173 193.56 150.075 193.146C149.995 192.807 149.916 192.476 149.884 192.126C149.821 191.449 149.879 190.759 150.06 190.109Z" fill="#FCBE9F"/>
<path d="M165.614 193.404C165.352 194.755 169.448 195.697 169.761 194.171C169.984 193.082 171.01 188.534 170.826 187.488C170.341 184.728 168.124 185.304 167.193 186.88C166.232 188.506 165.661 193.161 165.614 193.404Z" fill="#5186EB"/>
<path d="M162.385 179.745C161.748 180.435 161.404 181.437 161.467 182.416C161.474 182.527 161.485 182.644 161.444 182.746C161.384 182.895 161.234 182.968 161.106 183.05C160.979 183.132 160.85 183.272 160.88 183.432C160.903 183.553 161.009 183.63 161.067 183.735C161.121 183.833 161.132 183.951 161.142 184.064C161.183 184.536 161.225 185.01 161.199 185.483C161.191 185.633 161.176 185.786 161.217 185.929C161.328 186.324 161.769 186.446 162.128 186.576C162.321 186.647 162.408 186.707 162.486 186.975C162.703 187.711 162.692 188.055 162.653 188.631C162.577 189.777 167.016 188.817 166.449 187.321C166.376 187.129 166.266 186.462 166.381 186.244C166.731 185.577 167.888 185.135 167.959 182.956C168.112 178.302 164.034 177.956 162.385 179.745Z" fill="#FABC9D"/>
<path d="M162.999 183.933C162.872 184.509 163.851 184.595 163.953 184.188C164.219 183.55 164.813 183.695 165.048 184.1C165.356 184.629 165.189 185.229 164.676 185.898C164.462 186.177 164.549 186.62 164.858 186.754C165.879 187.199 168.125 185.047 168.514 182.455C168.799 180.37 168.303 179.172 166.906 178.349C166.214 177.941 165.106 177.724 164.552 177.723C162.331 177.72 161.238 179.282 161.43 181.068C161.462 181.358 161.635 181.61 161.883 181.716C162.525 181.991 163.329 182.432 162.999 183.933Z" fill="#221C3A"/>
<path d="M77.0097 65.8507C77.2708 65.6855 77.5396 65.8689 77.3715 66.3565C77.2314 66.769 77.089 67.1828 76.9459 67.5973C77.0043 67.6834 77.0413 67.8068 77.0419 67.9608L77.055 73.1223C77.0562 73.5805 76.7635 74.1353 76.3993 74.3657L72.2969 76.9589C71.9327 77.1893 71.6382 77.0052 71.637 76.547L71.6233 71.3855C71.6221 70.9273 71.9148 70.3725 72.279 70.1421L76.2377 67.6397C76.3927 67.1867 76.5477 66.7344 76.7033 66.2854C76.7778 66.068 76.8928 65.9244 77.0097 65.8507ZM76.7462 73.3168L76.7331 68.2173C76.0488 70.2113 75.3644 72.2053 74.6801 74.1954C74.6086 74.4029 74.4828 74.5589 74.3552 74.6392C74.2223 74.7234 74.087 74.7254 74.0101 74.619C73.4319 73.8318 72.8543 73.0486 72.279 72.2595C72.093 72.0043 72.3595 71.4873 72.6283 71.3176C72.7458 71.2432 72.8638 71.2354 72.9443 71.3457C73.4027 71.9697 73.8634 72.5956 74.3218 73.2196C74.903 71.5265 75.4837 69.8328 76.0672 68.1377L72.2802 70.5318C72.0877 70.6538 71.9321 70.9489 71.9327 71.191L71.9458 76.3525C71.9464 76.5947 72.1032 76.6926 72.2957 76.5705L76.3981 73.9774C76.5912 73.854 76.7468 73.5596 76.7462 73.3168Z" fill="#5186EB"/>
<path d="M127.353 36.1486C127.649 35.9612 127.915 36.283 127.645 36.7993C127.196 37.6491 126.751 38.5015 126.306 39.3494C126.755 39.6366 127.202 39.9238 127.654 40.2057C127.926 40.3787 127.663 41.0346 127.367 41.222C127.279 41.2774 127.189 41.2918 127.108 41.2409C126.66 40.9576 126.209 40.6757 125.761 40.3885C125.316 41.2402 124.87 42.0887 124.426 42.9366C124.346 43.0893 124.255 43.1892 124.168 43.2447C123.871 43.432 123.605 43.1102 123.876 42.5939C124.321 41.7461 124.77 40.8917 125.214 40.0399C124.766 39.7567 124.315 39.4708 123.867 39.1875C123.595 39.0146 123.858 38.3586 124.154 38.1713C124.242 38.1158 124.332 38.1014 124.413 38.1523C124.861 38.4356 125.309 38.7189 125.757 39.0067C126.202 38.155 126.65 37.3045 127.095 36.4566C127.175 36.3039 127.266 36.204 127.353 36.1486Z" fill="#EA4A4A"/>
<path d="M127.75 35.0441C128.115 34.8137 128.409 34.9978 128.41 35.456L128.423 40.6175C128.424 41.0757 128.132 41.6344 127.768 41.8648L123.665 44.458C123.301 44.6884 123.006 44.5004 123.005 44.0422L122.992 38.8807C122.991 38.4225 123.284 37.8677 123.648 37.6373L127.75 35.0441ZM128.115 40.8127L128.101 35.6511C128.101 35.4083 127.944 35.3111 127.751 35.4331L123.649 38.0263C123.457 38.1484 123.301 38.4434 123.302 38.6855L123.315 43.847C123.315 44.0898 123.472 44.1871 123.665 44.065L127.767 41.4719C127.96 41.3498 128.115 41.0548 128.115 40.8127Z" fill="#EA4A4A"/>
<path d="M89.0684 66.0104C89.0004 66.0104 88.9372 65.9928 88.8818 65.9576C88.7477 65.8734 88.6731 65.6978 88.6725 65.4635L88.6594 60.302C88.6582 59.8353 88.9587 59.2648 89.3295 59.0305L93.4318 56.4374C93.6178 56.3199 93.7943 56.3003 93.9284 56.3858C94.0619 56.47 94.1352 56.6443 94.1358 56.8773L94.1489 62.0388C94.1501 62.5074 93.8497 63.0798 93.4783 63.3142L89.3765 65.9073C89.2692 65.9765 89.1643 66.0104 89.0684 66.0104ZM93.743 56.3989C93.6577 56.3989 93.5618 56.4308 93.4622 56.4942L89.3598 59.0873C89.0058 59.3112 88.7178 59.8562 88.719 60.302L88.7322 65.4635C88.7328 65.673 88.7965 65.8283 88.9116 65.9014C89.0266 65.9726 89.1816 65.955 89.3479 65.8505L93.4497 63.2574C93.8044 63.0335 94.0917 62.4865 94.0905 62.0388L94.0774 56.8773C94.0768 56.6691 94.0136 56.5144 93.8998 56.4419C93.8533 56.4139 93.8002 56.3989 93.743 56.3989Z" fill="#221C3A"/>
<path d="M96.3273 57.0361L95.3843 57.6326V57.1327L96.3273 56.5367V57.0361Z" fill="white"/>
<path d="M98.3198 55.7764L96.9404 56.6484V56.1491L98.3198 55.2771V55.7764Z" fill="white"/>
<path d="M102.732 52.9873L98.9336 55.3886V54.8893L102.732 52.488V52.9873Z" fill="white"/>
<path d="M97.5028 57.6496L95.3843 58.9883V58.4889L97.5028 57.1503V57.6496Z" fill="white"/>
<path d="M99.4955 56.39L98.1155 57.262V56.7627L99.4955 55.89V56.39Z" fill="white"/>
<path d="M101.794 54.9362L100.109 56.0021V55.5028L101.794 54.4363V54.9362Z" fill="white"/>
<path d="M98.3198 58.4888L96.9404 59.3608V58.8615L98.3198 57.9895V58.4888Z" fill="white"/>
<path d="M100.364 57.1967L98.9336 58.1013V57.602L100.364 56.6974V57.1967Z" fill="white"/>
<path d="M105.971 55.3258C105.903 55.3258 105.84 55.3082 105.784 55.2736C105.65 55.1894 105.576 55.0138 105.575 54.7795L105.562 49.618C105.561 49.1513 105.861 48.5809 106.233 48.3466L110.334 45.7534C110.52 45.6353 110.697 45.6176 110.831 45.7018C110.964 45.786 111.038 45.9603 111.038 46.1933L111.052 51.3548C111.054 51.8235 110.753 52.3959 110.382 52.6302L106.28 55.2234C106.171 55.2912 106.066 55.3258 105.971 55.3258ZM110.645 45.7143C110.56 45.7143 110.464 45.7462 110.364 45.8095L106.262 48.4027C105.908 48.6266 105.62 49.1716 105.622 49.6174L105.635 54.7789C105.635 54.9884 105.699 55.1444 105.814 55.2168C105.929 55.2886 106.084 55.271 106.25 55.1659L110.352 52.5728C110.706 52.3489 110.994 51.8019 110.993 51.3542L110.979 46.1927C110.979 45.9845 110.916 45.8298 110.802 45.758C110.755 45.7286 110.703 45.7143 110.645 45.7143Z" fill="#221C3A"/>
<path d="M113.23 46.3514L112.287 46.9473V46.448L113.23 45.8514V46.3514Z" fill="white"/>
<path d="M115.223 45.091L113.843 45.9636V45.4637L115.223 44.5917V45.091Z" fill="white"/>
<path d="M114.405 46.9642L112.287 48.3035V47.8042L114.405 46.4648V46.9642Z" fill="white"/>
<path d="M116.398 45.7045L115.018 46.5765V46.0772L116.398 45.2052V45.7045Z" fill="white"/>
<path d="M115.223 47.8035L113.843 48.6762V48.1762L115.223 47.3042V47.8035Z" fill="white"/>
<path d="M79.2865 66.9635L78.3435 67.5595V67.0601L79.2865 66.4642V66.9635Z" fill="white"/>
<path d="M81.2793 65.7039L79.8999 66.5759V66.0766L81.2793 65.2046V65.7039Z" fill="white"/>
<path d="M80.4615 67.5769L78.3435 68.9156V68.4163L80.4615 67.0776V67.5769Z" fill="white"/>
<path d="M82.4544 66.3173L81.0745 67.1893V66.69L82.4544 65.8174V66.3173Z" fill="white"/>
<path d="M79.2865 69.6762L78.3435 70.2721V69.7728L79.2865 69.1769V69.6762Z" fill="white"/>
<path d="M81.2793 68.4164L79.8999 69.2884V68.7891L81.2793 67.9171V68.4164Z" fill="white"/>
<path d="M130.63 34.9123L129.687 35.5082V35.0089L130.63 34.413V34.9123Z" fill="white"/>
<path d="M132.623 33.6526L131.243 34.5246V34.0253L132.623 33.1533V33.6526Z" fill="white"/>
<path d="M137.034 30.8636L133.236 33.2648V32.7655L137.034 30.3643V30.8636Z" fill="white"/>
<path d="M139.152 29.525L137.648 30.476V29.9767L139.152 29.025V29.525Z" fill="white"/>
<path d="M139.766 28.6373V29.1372L140.363 28.7593V28.26L139.766 28.6373Z" fill="white"/>
<path d="M131.805 35.5258L129.687 36.8645V36.3652L131.805 35.0259V35.5258Z" fill="white"/>
<path d="M133.798 34.2654L132.419 35.1381V34.6381L133.798 33.7661V34.2654Z" fill="white"/>
<path d="M136.098 32.8119L134.412 33.8784V33.3785L136.098 32.3126V32.8119Z" fill="white"/>
<path d="M137.756 31.7637L136.711 32.4242V31.9249L137.756 31.2644V31.7637Z" fill="white"/>
<path d="M138.369 30.8766V31.3765L139.776 30.4869V29.9869L138.369 30.8766Z" fill="white"/>
</svg>
