<svg width="222" height="173" viewBox="0 0 222 173" fill="none" xmlns="http://www.w3.org/2000/svg">
<path d="M134.028 141.828H103.349V161.791H134.028V141.828Z" fill="#CADAFF"/>
<path d="M212.676 41.75V133.65C212.676 141.591 206.109 148.024 197.973 148.024H42.7401C34.6045 148.024 28.0142 141.591 28.0142 133.65V41.75C28.0142 33.8308 34.6045 27.3979 42.7401 27.3979H197.973C206.109 27.3979 212.676 33.8308 212.676 41.75Z" fill="#CADAFF"/>
<path d="M194.659 146.221H39.4265C31.1765 146.221 24.4644 139.67 24.4644 131.616V39.7166C24.4644 31.6758 31.1765 25.135 39.4265 25.135H194.659C202.897 25.135 209.599 31.6767 209.599 39.7166V131.616C209.599 139.669 202.896 146.221 194.659 146.221ZM39.4265 25.5951C31.4372 25.5951 24.9366 31.9302 24.9366 39.7157V131.615C24.9366 139.414 31.4363 145.759 39.4265 145.759H194.659C202.636 145.759 209.127 139.414 209.127 131.615V39.7166C209.127 31.9302 202.636 25.596 194.659 25.596L39.4265 25.5951Z" fill="#90ACFB"/>
<path d="M212.676 129.568V133.65C212.676 141.591 206.109 148.024 197.973 148.024H42.7401C34.6045 148.024 28.0142 141.591 28.0142 133.65V129.568H212.676Z" fill="#90ACFB"/>
<path d="M158.612 164.749H80.6841C79.8509 164.749 79.1689 164.083 79.1689 163.27C79.1689 162.457 79.8509 161.791 80.6841 161.791H158.612C159.445 161.791 160.127 162.457 160.127 163.27C160.126 164.084 159.445 164.749 158.612 164.749Z" fill="#90ACFB"/>
<path d="M52.5483 44.6267L38.6655 31.5205L34.8693 35.3518L48.7521 48.458L52.5483 44.6267Z" fill="#2E1A1A"/>
<path d="M37.5515 47.7305L53.0991 36.5454L49.8593 32.2546L34.3117 43.4398L37.5515 47.7305Z" fill="#2E1A1A"/>
<path d="M34.655 72.9225L24.4502 63.2886L21.66 66.1046L31.8648 75.7385L34.655 72.9225Z" fill="#2E1A1A"/>
<path d="M23.63 75.2011L35.0586 66.9792L32.6774 63.8256L21.2488 72.0474L23.63 75.2011Z" fill="#2E1A1A"/>
<path d="M59.6132 67.7275L54.3506 62.7593L52.9118 64.2113L58.1745 69.1796L59.6132 67.7275Z" fill="#2E1A1A"/>
<path d="M53.927 68.9063L59.8208 64.6663L58.5929 63.0401L52.6992 67.2801L53.927 68.9063Z" fill="#2E1A1A"/>
<path d="M91.0173 91.1521V132.439C91.0173 135.721 88.2884 138.385 84.9257 138.385H7.76883C4.40614 138.385 1.67725 135.721 1.67725 132.439V91.1521C1.67725 87.8697 4.40614 85.2061 7.76883 85.2061H84.9257C88.2884 85.2061 91.0173 87.8697 91.0173 91.1521Z" fill="white"/>
<path d="M83.4837 138.972H6.32773C2.83846 138.972 0 136.202 0 132.796V91.5098C0 88.1039 2.83846 85.3333 6.32773 85.3333H83.4837C86.973 85.3333 89.8114 88.1039 89.8114 91.5098V132.796C89.8124 136.202 86.9739 138.972 83.4837 138.972ZM6.32773 85.7933C3.09822 85.7933 0.472289 88.3574 0.472289 91.5089V132.795C0.472289 135.946 3.09917 138.51 6.32773 138.51H83.4837C86.7122 138.51 89.3391 135.946 89.3391 132.795V91.5089C89.3391 88.3565 86.7122 85.7933 83.4837 85.7933H6.32773Z" fill="#90ACFB"/>
<path d="M91.0173 91.1521V92.4844H1.67725V91.1521C1.67725 87.8697 4.40614 85.2061 7.76883 85.2061H84.9257C88.2884 85.2061 91.0173 87.8697 91.0173 91.1521Z" fill="#FE3B5B"/>
<path d="M62.0427 88.7337C62.0427 89.4935 61.4117 90.1103 60.6324 90.1103C59.8532 90.1103 59.2222 89.4935 59.2222 88.7337C59.2222 87.9731 59.8532 87.3572 60.6324 87.3572C61.4117 87.3572 62.0427 87.974 62.0427 88.7337Z" fill="white"/>
<path d="M68.7131 88.8453C68.7131 89.606 68.0821 90.2219 67.3028 90.2219C66.5236 90.2219 65.8926 89.606 65.8926 88.8453C65.8926 88.0846 66.5236 87.4688 67.3028 87.4688C68.0821 87.4688 68.7131 88.0846 68.7131 88.8453Z" fill="white"/>
<path d="M215.841 19.9675V61.2542C215.841 64.5366 213.112 67.2003 209.749 67.2003H132.592C129.229 67.2003 126.5 64.5366 126.5 61.2542V19.9675C126.5 16.6852 129.229 14.0215 132.592 14.0215H209.749C213.112 14.0215 215.841 16.6852 215.841 19.9675Z" fill="white"/>
<path d="M208.307 67.7864H131.15C127.661 67.7864 124.822 65.0157 124.822 61.6098V20.324C124.822 16.9181 127.661 14.1475 131.15 14.1475H208.307C211.796 14.1475 214.635 16.9181 214.635 20.324V61.6098C214.635 65.0157 211.796 67.7864 208.307 67.7864ZM131.15 14.6085C127.921 14.6085 125.295 17.1726 125.295 20.324V61.6098C125.295 64.7612 127.921 67.3254 131.15 67.3254H208.307C211.535 67.3254 214.162 64.7612 214.162 61.6098V20.324C214.162 17.1726 211.535 14.6085 208.307 14.6085H131.15Z" fill="#90ACFB"/>
<path d="M215.841 19.9675V21.2989H126.5V19.9675C126.5 16.6852 129.229 14.0215 132.592 14.0215H209.749C213.112 14.0215 215.841 16.6852 215.841 19.9675Z" fill="#FE3B5B"/>
<path d="M185.455 18.9255C186.234 18.9255 186.865 18.3092 186.865 17.5489C186.865 16.7887 186.234 16.1724 185.455 16.1724C184.676 16.1724 184.045 16.7887 184.045 17.5489C184.045 18.3092 184.676 18.9255 185.455 18.9255Z" fill="white"/>
<path d="M192.127 19.0371C192.905 19.0371 193.537 18.4208 193.537 17.6605C193.537 16.9002 192.905 16.2839 192.127 16.2839C191.348 16.2839 190.716 16.9002 190.716 17.6605C190.716 18.4208 191.348 19.0371 192.127 19.0371Z" fill="white"/>
<path d="M167.194 91.7965V116.884C167.194 118.88 165.537 120.498 163.493 120.498H116.608C114.564 120.498 112.906 118.88 112.906 116.884V91.7965C112.906 89.8022 114.564 88.1831 116.608 88.1831H163.493C165.537 88.1831 167.194 89.8022 167.194 91.7965Z" fill="white"/>
<path d="M162.616 120.945H115.731C113.56 120.945 111.793 119.221 111.793 117.101V92.0133C111.793 89.8936 113.56 88.1694 115.731 88.1694H162.616C164.788 88.1694 166.554 89.8936 166.554 92.0133V117.101C166.554 119.221 164.788 120.945 162.616 120.945ZM115.731 88.6304C113.821 88.6304 112.266 90.1481 112.266 92.0133V117.101C112.266 118.966 113.821 120.484 115.731 120.484H162.616C164.527 120.484 166.082 118.966 166.082 117.101V92.0133C166.082 90.1481 164.527 88.6304 162.616 88.6304H115.731Z" fill="#90ACFB"/>
<path d="M167.194 91.7965V92.606H112.906V91.7965C112.906 89.8022 114.564 88.1831 116.608 88.1831H163.493C165.537 88.1831 167.194 89.8022 167.194 91.7965Z" fill="#FE3B5B"/>
<path d="M149.588 90.327C149.588 90.7889 149.204 91.1633 148.731 91.1633C148.258 91.1633 147.875 90.7889 147.875 90.327C147.875 89.8651 148.258 89.4907 148.731 89.4907C149.204 89.4907 149.588 89.8651 149.588 90.327Z" fill="white"/>
<path d="M153.641 90.3951C153.641 90.857 153.258 91.2314 152.784 91.2314C152.311 91.2314 151.928 90.857 151.928 90.3951C151.928 89.9332 152.311 89.5588 152.784 89.5588C153.258 89.5579 153.641 89.9323 153.641 90.3951Z" fill="white"/>
<path d="M107.201 68.3755H92.439C93.0142 62.5714 93.5904 56.7665 94.1657 50.9624C98.0592 50.9624 101.953 50.9624 105.846 50.9624C106.298 56.7674 106.749 62.5714 107.201 68.3755Z" fill="#FF9880"/>
<path d="M100.082 59.2679C102.593 59.2679 104.628 56.2937 104.628 52.6248C104.628 48.9559 102.593 45.9817 100.082 45.9817C97.5721 45.9817 95.5371 48.9559 95.5371 52.6248C95.5371 56.2937 97.5721 59.2679 100.082 59.2679Z" fill="#2E1A1A"/>
<path d="M99.8201 56.9498C95.0141 56.9498 91.1187 53.1474 91.1187 48.4563V36.0405C92.2748 35.2881 95.5572 33.3657 100.158 33.4625C104.358 33.551 107.343 35.2724 108.522 36.0405C108.522 40.1794 108.522 44.3183 108.522 48.4563C108.522 53.1465 104.626 56.9498 99.8201 56.9498Z" fill="#FF9880"/>
<path d="M92.7109 46.4878C92.7109 48.0304 91.6426 49.2806 90.3239 49.2806C89.0053 49.2806 87.937 48.0304 87.937 46.4878C87.937 44.9453 89.0053 43.6951 90.3239 43.6951C91.6416 43.6951 92.7109 44.9453 92.7109 46.4878Z" fill="#FF9880"/>
<path d="M111.307 46.4878C111.307 48.0304 110.239 49.2806 108.92 49.2806C107.602 49.2806 106.533 48.0304 106.533 46.4878C106.533 44.9453 107.602 43.6951 108.92 43.6951C110.239 43.6951 111.307 44.9453 111.307 46.4878Z" fill="#FF9880"/>
<path d="M97.8721 68.7544C98.4029 69.8248 99.4939 70.2527 100.208 69.9438C100.803 69.6875 100.988 68.9849 101.02 68.8531L97.8721 68.7544Z" fill="#2E1A1A"/>
<path d="M84.6519 68.6694C85.3811 69.1655 86.6222 69.868 88.3083 70.1898C91.0514 70.7135 93.2617 69.9031 94.1317 69.5287L84.6519 68.6694Z" fill="#2E1A1A"/>
<path d="M104.891 69.6645C105.711 69.9992 107.075 70.4307 108.794 70.3984C111.588 70.3459 113.573 69.0984 114.344 68.5535L104.891 69.6645Z" fill="#2E1A1A"/>
<path d="M97.2677 45.4349C97.1761 45.4349 97.0892 45.3832 97.0514 45.2966C96.7472 44.6106 96.0737 44.1643 95.336 44.1597C94.3376 44.1597 93.7765 44.9711 93.752 45.0061C93.6802 45.1122 93.5328 45.1417 93.4252 45.0707C93.3165 45.0006 93.2863 44.8577 93.359 44.7507C93.4318 44.6429 94.1081 43.6987 95.3228 43.6987C96.2636 43.7052 97.1062 44.2602 97.485 45.1131C97.5369 45.2302 97.4821 45.3657 97.3622 45.4164C97.331 45.4284 97.2989 45.4349 97.2677 45.4349Z" fill="#2E1A1A"/>
<path d="M95.5187 45.6239C96.0189 45.6239 96.4245 45.1921 96.4245 44.6595C96.4245 44.1269 96.0189 43.6951 95.5187 43.6951C95.0184 43.6951 94.6128 44.1269 94.6128 44.6595C94.6128 45.1921 95.0184 45.6239 95.5187 45.6239Z" fill="#2E1A1A"/>
<path d="M92.7841 42.2697C92.7841 42.2697 93.1856 42.1323 93.6767 42.1056C94.3946 42.0669 95.9173 42.266 97.8603 42.7381C97.9764 42.5795 98.2022 42.2227 98.2202 41.7304C98.2287 41.5091 98.1918 41.321 98.1512 41.1818C97.2255 41.013 96.1912 40.8526 95.069 40.7226C94.7545 40.6857 94.03 40.6101 93.1789 40.8259C92.7435 40.9356 92.5716 41.0471 92.4781 41.1181C92.2929 41.2592 92.2296 41.4501 92.1937 41.5358C92.1125 41.7304 91.9897 42.0291 92.1428 42.2052C92.2655 42.3453 92.5272 42.3684 92.7841 42.2697Z" fill="#2E1A1A"/>
<path d="M102.283 45.4348C102.252 45.4348 102.22 45.4284 102.188 45.4155C102.068 45.3648 102.015 45.2283 102.066 45.1121C102.445 44.2593 103.288 43.7042 104.211 43.6978C105.443 43.6978 106.119 44.6419 106.191 44.7498C106.264 44.8558 106.234 44.9996 106.125 45.0697C106.02 45.1389 105.87 45.1112 105.799 45.0052C105.775 44.9701 105.213 44.1588 104.227 44.1588C103.478 44.1643 102.804 44.6105 102.499 45.2956C102.46 45.3832 102.374 45.4348 102.283 45.4348Z" fill="#2E1A1A"/>
<path d="M104.033 45.6239C104.534 45.6239 104.939 45.1921 104.939 44.6595C104.939 44.1269 104.534 43.6951 104.033 43.6951C103.533 43.6951 103.127 44.1269 103.127 44.6595C103.127 45.1921 103.533 45.6239 104.033 45.6239Z" fill="#2E1A1A"/>
<path d="M106.766 42.2697C106.766 42.2697 106.365 42.1323 105.874 42.1056C105.156 42.0669 103.633 42.266 101.69 42.7381C101.574 42.5795 101.348 42.2227 101.33 41.7304C101.322 41.5091 101.359 41.321 101.399 41.1818C102.325 41.013 103.359 40.8526 104.481 40.7226C104.796 40.6857 105.52 40.6101 106.372 40.8259C106.807 40.9356 106.979 41.0471 107.072 41.1181C107.258 41.2592 107.321 41.4501 107.356 41.5358C107.436 41.7304 107.561 42.0291 107.407 42.2052C107.285 42.3453 107.023 42.3684 106.766 42.2697Z" fill="#2E1A1A"/>
<path d="M98.5674 49.3193C98.6864 49.418 99.1011 49.7389 99.7188 49.749C100.496 49.7619 100.991 49.2714 101.073 49.1875L98.5674 49.3193Z" fill="#2E1A1A"/>
<path d="M99.8315 52.4494C98.8708 52.4494 97.9215 52.3019 97.0062 52.0106C96.8816 51.9709 96.8145 51.8409 96.8551 51.7201C96.8957 51.5993 97.0299 51.5339 97.1517 51.5726C98.0594 51.8612 98.9804 51.9986 99.959 51.9875C100.871 51.9746 101.773 51.8206 102.638 51.5311C102.757 51.4906 102.896 51.5532 102.937 51.674C102.98 51.7939 102.915 51.9248 102.791 51.9663C101.878 52.2724 100.927 52.4347 99.9666 52.4476C99.9212 52.4485 99.8768 52.4494 99.8315 52.4494Z" fill="#2E1A1A"/>
<path d="M99.9733 53.5157C99.655 53.5157 99.383 53.4391 99.1893 53.3626C99.0684 53.3147 99.0108 53.18 99.059 53.062C99.1072 52.9431 99.246 52.8868 99.366 52.9357C99.5776 53.0187 99.9025 53.1026 100.276 53.0233C100.396 52.9975 100.514 52.9569 100.626 52.9007C100.743 52.8435 100.884 52.8878 100.943 53.0012C101.003 53.1146 100.957 53.2529 100.84 53.311C100.691 53.3847 100.535 53.4401 100.376 53.4732C100.236 53.5037 100.101 53.5157 99.9733 53.5157Z" fill="#2E1A1A"/>
<path d="M127.017 72.6139C118.312 83.9998 102.592 88.821 88.3329 83.4558C82.4142 81.2236 77.5326 77.5282 73.9395 72.9698C74.151 71.8071 74.3815 70.6998 74.6309 69.6118C75.2071 69.2928 75.7842 68.9738 76.3604 68.6548C81.2798 65.9533 86.1802 63.2333 91.0996 60.5134C91.1383 60.495 91.1761 60.4756 91.2148 60.4572C91.9261 60.0635 92.6175 59.6688 93.3288 59.2751C93.752 60.1566 94.3093 60.9255 94.962 61.5636C94.9809 61.582 95.0007 61.6014 95.0196 61.6014C96.4412 62.9706 98.3445 63.7395 100.342 63.6833C101.515 63.6455 102.514 63.3265 103.359 62.8959C103.59 62.764 103.82 62.6331 104.032 62.5206C105.588 61.4889 106.434 60.1381 106.549 59.9694C106.895 60.1003 107.222 60.2322 107.567 60.3825C113.39 62.7834 119.194 65.1659 124.998 67.5852C125.189 67.6599 125.362 67.7355 125.555 67.8102C126.076 69.2365 126.576 70.8316 127.017 72.6139Z" fill="#003CC1"/>
<path d="M93.6142 49.4033C95.1841 49.4752 96.2203 49.1009 96.8872 48.7293C97.9753 48.1226 98.4174 47.3352 99.4999 47.2928C100.051 47.2716 100.476 47.4542 101.122 47.7326C102.285 48.2342 103.014 48.8805 103.223 49.052C104.016 49.6965 105.626 50.2082 109.258 49.4623C108.979 48.4398 108.231 46.2832 106.196 44.5092C102.585 41.3597 97.9753 42.0742 96.8277 42.2522C96.1334 42.36 90.7956 43.188 90.2818 46.0333C90.0957 47.0623 90.601 48.024 91.0629 48.6712L93.6142 49.4033Z" fill="#2E1A1A"/>
<path d="M91.8725 62.5633C89.9106 57.3272 87.9487 52.0901 85.9868 46.8531C86.0104 45.9339 86.3382 38.1549 92.5922 34.1331C93.3885 33.6204 95.9965 31.9921 99.7389 31.9645C105.015 31.9248 108.514 35.0966 109.288 35.8332C110.19 37.2282 111.433 39.5738 111.87 42.6912C112.092 44.2724 112.053 45.6711 111.931 46.7941C110.309 51.855 108.688 56.9159 107.066 61.9759C105.805 62.4056 104.544 62.8353 103.283 63.2658C104.218 58.6844 105.152 54.1038 106.087 49.5223C105.102 46.8291 102.476 45.0736 99.6681 45.1806C97.1895 45.2755 94.9509 46.807 93.9345 49.0991C94.3482 54.1139 94.7619 59.1297 95.1757 64.1445C94.0743 63.618 92.9738 63.0906 91.8725 62.5633Z" fill="#003CC1"/>
<path d="M95.9357 65.4704C95.8299 65.4704 95.7326 65.4003 95.7071 65.2952L94.7153 61.396C94.6832 61.2725 94.7606 61.1471 94.8872 61.1167C95.0175 61.0853 95.1432 61.1618 95.1734 61.2854L96.1652 65.1846C96.1973 65.3081 96.1199 65.4326 95.9933 65.4639C95.9734 65.4685 95.9545 65.4704 95.9357 65.4704Z" fill="#2E1A1A"/>
<path d="M103.126 65.5873C103.103 65.5873 103.078 65.5837 103.055 65.5763C102.93 65.5385 102.861 65.4085 102.901 65.2877L103.913 62.1611C103.951 62.0404 104.079 61.9721 104.209 62.0109C104.334 62.0487 104.403 62.1787 104.363 62.2994L103.351 65.426C103.319 65.5246 103.227 65.5873 103.126 65.5873Z" fill="#2E1A1A"/>
<path d="M105.826 64.5712C105.794 64.5712 105.763 64.5656 105.732 64.5518C105.612 64.5011 105.556 64.3656 105.608 64.2485L107.362 60.281C107.414 60.164 107.552 60.1077 107.672 60.1612C107.792 60.2119 107.848 60.3474 107.796 60.4645L106.042 64.4319C106.003 64.5195 105.916 64.5712 105.826 64.5712Z" fill="#2E1A1A"/>
<path d="M92.4389 64.6107C92.3378 64.6107 92.2443 64.5471 92.2131 64.4475L90.8935 60.2265C90.8558 60.1048 90.9257 59.9767 91.0504 59.9389C91.176 59.9029 91.3073 59.9702 91.346 60.0919L92.6656 64.3129C92.7034 64.4346 92.6335 64.5627 92.5088 64.6006C92.4852 64.607 92.4616 64.6107 92.4389 64.6107Z" fill="#2E1A1A"/>
<path d="M112.356 22.6235C95.137 16.1519 75.8241 24.5367 69.1941 41.3255C64.851 52.3362 67.0225 64.2477 73.9406 72.9699C77.5338 77.5283 82.4154 81.2237 88.3341 83.4559C102.593 88.8211 118.313 83.9999 127.018 72.614C128.094 71.2254 129.036 69.7631 129.881 68.1874C130.496 67.0994 131.015 65.9552 131.496 64.7732C131.957 63.5912 132.341 62.3907 132.649 61.2087C136.876 45.3953 128.363 28.6636 112.356 22.6235ZM128.113 60.5338C127.902 61.4152 127.575 62.2967 127.229 63.179C126.883 64.042 126.518 64.9051 126.076 65.7118C125.749 66.3498 125.383 66.9869 125 67.5872C117.928 79.0671 103.207 84.3005 89.9673 79.3105C84.2025 77.1346 79.5514 73.3451 76.3616 68.6558C71.3459 61.3212 69.9432 51.7922 73.4409 42.9381C79.1679 28.4192 95.8671 21.2165 110.703 26.8066C124.654 32.04 132.053 46.7276 128.113 60.5338Z" fill="#2E1A1A"/>
<path d="M193.595 84.767C194.41 85.0491 195.127 85.4778 195.659 86.0061C196.473 86.812 197.441 88.065 197.335 89.377C197.217 90.9278 195.643 91.9918 193.306 92.1716C192.521 92.2297 191.638 92.0674 190.822 91.7355C170.918 83.6735 151.037 75.6068 131.147 67.5622C130.475 67.2847 129.779 67.0109 129.106 66.7334C128.308 66.4088 127.644 65.9515 127.187 65.4389C127.495 64.9705 127.74 64.4541 127.95 63.924C128.159 63.3938 128.332 62.8508 128.426 62.3012C129.117 62.2201 129.941 62.3234 130.756 62.6055C131.442 62.8517 132.131 63.0868 132.817 63.3321C153.086 70.4721 173.345 77.6334 193.595 84.767Z" fill="#2E1A1A"/>
<path d="M196.244 84.6389C197.504 86.2783 198.763 87.9176 200.022 89.5569C194.948 93.0513 189.874 96.5458 184.8 100.04C184.302 99.1744 183.656 97.8569 183.262 96.1631C182.751 93.966 182.917 92.2381 183.117 90.1129C183.361 87.4925 183.45 84.8556 183.826 82.25C184.311 78.8911 184.369 73.5259 182.381 64.8231L189.984 55.7634C190.465 55.4241 192.193 54.1139 192.822 51.6733C192.907 51.3423 192.965 51.0206 193 50.7108C193.213 48.8105 192.584 47.3464 192.365 46.8835C193.012 46.7249 193.659 46.5673 194.306 46.4077C195.305 46.1634 196.304 45.9191 197.303 45.6738C198.527 49.242 199.752 52.8102 200.976 56.3784C201.598 57.8047 202.36 60.0535 202.28 62.7919C202.147 67.389 199.753 69.671 197.941 74.9679C197.201 77.1273 196.361 80.3691 196.244 84.6389Z" fill="#FF9880"/>
<path d="M187.986 71.9987C190.035 70.5104 190.46 67.6825 188.935 65.6825C187.41 63.6826 184.513 63.2678 182.464 64.7562C180.415 66.2446 179.99 69.0725 181.515 71.0724C183.04 73.0724 185.937 73.4871 187.986 71.9987Z" fill="#FF9880"/>
<path d="M201.741 99.1735C203.474 93.8897 200.908 88.3649 196.009 86.8333C191.109 85.3018 185.732 88.3436 183.999 93.6274C182.265 98.9112 184.832 104.436 189.731 105.968C194.63 107.499 200.007 104.457 201.741 99.1735Z" fill="#FF9880"/>
<path d="M184.232 129.167C181.407 128.328 178.582 127.489 175.757 126.65C175.722 123.066 175.926 119.017 176.559 114.617C177.755 106.293 180.109 99.3617 182.407 94.0813C186.6 97.9067 190.794 101.732 194.987 105.558C194.681 109.014 193.891 111.655 193.229 113.42C192.489 115.393 191.674 116.904 186.312 125.745C185.461 127.148 184.745 128.324 184.232 129.167Z" fill="#FF9880"/>
<path d="M208.479 122.914C205.725 123.957 202.973 125 200.219 126.043C197.925 123.244 195.525 119.936 193.24 116.093C188.918 108.823 186.385 101.952 184.853 96.4131C190.572 96.8953 196.29 97.3784 202.008 97.8606C203.954 100.764 205.002 103.318 205.597 105.106C206.263 107.104 206.577 108.784 207.951 118.969C208.169 120.586 208.349 121.943 208.479 122.914Z" fill="#FF9880"/>
<path d="M175.567 164.74C174.243 164.486 172.92 164.23 171.597 163.976C173.122 157.835 174.456 150.682 175.162 142.666C175.67 136.912 175.778 131.575 175.648 126.742C178.513 127.44 181.379 128.138 184.244 128.836C184.639 130.554 185.059 132.86 185.234 135.605C185.392 138.058 185.602 141.338 184.798 144.898C183.488 150.703 180.701 151.857 177.062 160.72C176.372 162.401 175.878 163.81 175.567 164.74Z" fill="#FF9880"/>
<path d="M176.56 172.661H159.495C159.434 172.637 158.91 172.419 158.778 171.898C158.651 171.398 158.937 170.83 159.495 170.563C160.494 170.47 161.902 170.27 163.533 169.801C165.309 169.289 166.995 168.803 168.614 167.512C170.46 166.04 171.399 164.174 171.882 162.803C173.115 163.207 174.349 163.611 175.583 164.016C175.58 166.992 176.25 168.677 176.885 169.674C177.134 170.064 177.809 171.026 177.472 171.835C177.291 172.268 176.878 172.518 176.56 172.661Z" fill="#FF9880"/>
<path d="M218.021 163.46C216.727 163.834 215.434 164.207 214.141 164.581C212.421 158.287 210.163 151.39 207.174 144.087C205.068 138.941 202.847 134.204 200.619 129.883C196.774 122.626 192.927 115.367 189.082 108.11C195.548 113.045 202.013 117.98 208.479 122.914C208.536 124.517 208.591 126.12 208.648 127.722C209.816 129.065 211.282 130.918 212.743 133.27C214.048 135.373 215.793 138.184 216.772 141.701C218.37 147.437 216.449 149.721 217.437 159.221C217.624 161.024 217.855 162.496 218.021 163.46Z" fill="#FF9880"/>
<path d="M219.117 172.113H202.052C201.991 172.089 201.467 171.871 201.335 171.35C201.208 170.85 201.494 170.281 202.052 170.015C203.051 169.922 204.459 169.722 206.09 169.253C207.672 168.796 209.402 168.298 211.171 166.963C211.941 166.382 213.09 165.363 214.102 163.72C215.408 163.634 216.713 163.547 218.02 163.46C218.239 164.053 219.202 166.668 220.035 169.313C220.182 169.781 220.419 170.576 220.029 171.286C219.79 171.724 219.397 171.974 219.117 172.113Z" fill="#FF9880"/>
<path d="M193.677 50.1548C193.462 50.3669 193.233 50.5541 192.999 50.7117C193.212 48.8115 192.583 47.3473 192.364 46.8844C193.011 46.7259 193.658 46.5682 194.305 46.4087C194.349 46.4419 194.39 46.4769 194.429 46.5147C195.248 47.3049 194.912 48.9341 193.677 50.1548Z" fill="#2E1A1A"/>
<path d="M200.588 42.9629C200.318 43.1695 199.454 43.7135 198.665 44.7636C198.108 45.4948 197.801 46.1706 197.608 46.6399C196.052 47.2964 194.668 47.7463 193.573 48.0469C193.324 48.1031 191.844 48.5162 190.191 48.3281C189.749 48.2719 189.288 48.1972 188.98 47.8219C188.576 47.278 188.749 46.6777 188.768 46.6215C188.729 46.4712 188.672 46.4149 188.614 46.3771C188.595 46.3587 188.575 46.3587 188.538 46.3587C188.404 46.3403 188.211 46.4149 188.038 46.3025C187.999 46.2647 187.672 45.8525 187.789 45.6838C187.885 45.5151 188.192 45.6654 188.576 45.6091C188.864 45.5529 189.23 45.4026 189.614 44.9526C189.479 44.9711 188.307 45.1592 187.789 45.0273C187.712 44.9895 187.597 44.9711 187.501 44.877C187.462 44.8392 187.443 44.8014 187.424 44.7461C187.385 44.6521 187.385 44.6143 187.385 44.5774C187.385 44.5211 187.385 44.4833 187.385 44.4833C187.404 44.3146 187.5 44.239 187.577 44.1643C187.596 44.1459 187.635 44.1265 187.673 44.0896C187.712 44.0518 187.77 44.0334 187.827 44.015C187.905 43.9965 187.961 44.015 187.981 44.015C188.058 44.015 188.154 43.8647 188.212 43.6213C188.442 42.8901 188.577 41.3328 188.5 40.6007C188.481 40.4883 188.461 40.3942 188.442 40.3195C188.442 40.3011 188.423 40.2633 188.404 40.207C188.346 40.0568 188.269 39.8318 188.212 39.5321C188.173 39.4012 188.154 39.2509 188.135 39.1006C187.981 37.9942 188.232 37.1119 188.385 36.6057C188.749 35.3305 189.403 34.4113 189.903 33.8295C190.479 33.1168 191.517 32.0666 193.131 31.447C196.052 30.3591 200.703 30.9777 202.49 34.1485C204.335 37.3543 202.356 41.6878 200.588 42.9629Z" fill="#FF9880"/>
<path d="M188.29 43.6775C188.195 43.5872 188.046 43.4692 187.839 43.3899C187.62 43.3069 187.52 43.3594 187.335 43.2571C187.266 43.2193 187.108 43.1179 187.012 42.9215C186.997 42.8901 186.889 42.6633 186.957 42.4208C187.041 42.1221 187.343 41.9654 187.458 41.8981C187.72 41.745 188.097 41.3845 188.578 40.4514C188.665 40.9963 188.751 41.5412 188.838 42.0861C188.655 42.6172 188.472 43.1474 188.29 43.6775Z" fill="#FF9880"/>
<path d="M190.891 40.198C190.836 40.198 190.781 40.1796 190.737 40.1427C190.545 39.9814 190.331 39.8523 190.102 39.7601C189.737 39.6126 189.328 39.5563 188.924 39.5997C188.778 39.6135 188.678 39.5222 188.664 39.395C188.649 39.2687 188.744 39.1552 188.873 39.1414C189.357 39.0898 189.845 39.1571 190.283 39.3341C190.559 39.4457 190.815 39.6006 191.046 39.7933C191.144 39.8763 191.155 40.0219 191.07 40.1188C191.024 40.1704 190.958 40.198 190.891 40.198Z" fill="#2E1A1A"/>
<path d="M189.562 40.0037C189.544 40.4407 189.4 40.7892 189.24 40.7828C189.079 40.7763 188.964 40.4176 188.982 39.9806C189 39.5436 189.143 39.1951 189.304 39.2015C189.465 39.208 189.58 39.5666 189.562 40.0037Z" fill="#2E1A1A"/>
<path d="M188.645 38.2056C188.608 38.2212 188.33 38.3383 188.235 38.6408C188.157 38.8925 188.258 39.1018 188.282 39.1488L188.645 38.2056Z" fill="#2E1A1A"/>
<path d="M188.725 38.1798C188.694 38.2978 188.647 38.4573 188.579 38.6445C188.468 38.946 188.417 38.9976 188.447 39.041C188.551 39.1958 189.337 38.7275 190.269 38.5578C190.934 38.437 191.511 38.4979 191.909 38.5744C191.818 38.4546 191.721 38.3577 191.621 38.2784C190.621 37.4791 188.985 38.0802 188.725 38.1798Z" fill="#2E1A1A"/>
<path d="M196.432 41.4114C196.384 42.575 195.633 43.4915 194.753 43.4574C193.874 43.4233 193.198 42.4524 193.245 41.2888C193.293 40.1252 194.044 39.2088 194.924 39.2429C195.803 39.277 196.479 40.2479 196.432 41.4114Z" fill="#FF9880"/>
<path d="M194.8 43.6888C194.781 43.6888 194.762 43.6879 194.743 43.6879C194.45 43.6759 194.162 43.5754 193.91 43.3956C193.806 43.32 193.783 43.1762 193.86 43.0729C193.938 42.9697 194.086 42.9494 194.191 43.0231C194.368 43.1504 194.56 43.2186 194.762 43.2269C195.225 43.2278 195.636 42.9466 195.905 42.469C195.967 42.3565 196.112 42.316 196.225 42.3777C196.34 42.4386 196.381 42.5797 196.319 42.6903C195.965 43.3191 195.401 43.6888 194.8 43.6888Z" fill="#2E1A1A"/>
<path d="M196.237 42.549C196.208 42.549 196.177 42.5435 196.149 42.5324C196.028 42.4854 195.97 42.3508 196.017 42.2327C196.104 42.0234 196.159 41.7957 196.183 41.5578C196.196 41.4315 196.315 41.3402 196.441 41.3504C196.571 41.3633 196.666 41.4758 196.653 41.6021C196.625 41.8842 196.558 42.1535 196.456 42.4033C196.42 42.4946 196.331 42.549 196.237 42.549Z" fill="#2E1A1A"/>
<path d="M196.431 41.4142C196.305 41.4142 196.201 41.3174 196.195 41.1929C196.157 40.2543 195.595 39.5001 194.915 39.4734C194.768 39.4605 194.62 39.4946 194.478 39.5554C194.359 39.6071 194.22 39.5536 194.167 39.4365C194.115 39.3203 194.17 39.1839 194.29 39.1331C194.5 39.0437 194.717 39.0096 194.935 39.0124C195.875 39.0492 196.62 39.9777 196.668 41.1745C196.673 41.3017 196.571 41.4087 196.442 41.4142C196.437 41.4142 196.434 41.4142 196.431 41.4142Z" fill="#2E1A1A"/>
<path d="M194.466 42.5759C194.434 42.5759 194.401 42.5695 194.37 42.5556C194.251 42.5031 194.198 42.3666 194.252 42.2505L195.127 40.3511C195.179 40.234 195.319 40.1815 195.439 40.2359C195.558 40.2884 195.611 40.4249 195.557 40.541L194.681 42.4404C194.643 42.5252 194.556 42.5759 194.466 42.5759Z" fill="#2E1A1A"/>
<path d="M194.911 41.4584C194.828 41.4584 194.748 41.416 194.705 41.3404L194.347 40.7171C194.283 40.6064 194.324 40.4654 194.437 40.4036C194.547 40.3418 194.693 40.3806 194.759 40.4921L195.117 41.1154C195.18 41.226 195.139 41.3662 195.026 41.4289C194.99 41.4492 194.95 41.4584 194.911 41.4584Z" fill="#2E1A1A"/>
<path d="M189.96 44.7638C189.326 45.6268 188.864 46.1145 188.539 46.3579C188.404 46.3395 188.212 46.4142 188.039 46.3017C188 46.2639 187.673 45.8517 187.79 45.683C187.886 45.5143 188.193 45.6646 188.577 45.6083C188.865 45.5521 189.231 45.4018 189.615 44.9519C189.48 44.9703 188.308 45.1584 187.79 45.0266C187.713 44.9887 187.598 44.9703 187.501 44.8763C187.463 44.8385 187.444 44.8007 187.425 44.7453C187.386 44.6513 187.386 44.6135 187.386 44.5766C187.386 44.5204 187.386 44.4826 187.386 44.4826C187.405 44.3138 187.501 44.2382 187.578 44.1636C187.597 44.1451 187.636 44.1257 187.674 44.0889C187.847 44.2198 188.059 44.3323 188.308 44.4457C188.961 44.726 189.576 44.7831 189.96 44.7638Z" fill="#E25E40"/>
<path d="M188.65 46.4706C188.534 46.4706 188.434 46.3876 188.417 46.2724C188.398 46.1461 188.487 46.0299 188.617 46.0124L189.157 45.9377C189.281 45.9183 189.406 46.0078 189.423 46.1341C189.442 46.2604 189.353 46.3766 189.223 46.3941L188.683 46.4688C188.673 46.4697 188.661 46.4706 188.65 46.4706Z" fill="#2E1A1A"/>
<path d="M183.161 89.5957C180.372 96.3669 177.585 105.069 176.136 115.405C175.374 120.838 175.103 125.86 175.115 130.352C178.598 130.548 182.081 130.743 185.564 130.939C189.948 121.755 194.332 112.571 198.715 103.388C199.55 102.604 202.103 100.008 202.459 96.0018C202.851 91.5891 200.425 87.2068 196.243 84.6399C191.883 86.2912 187.522 87.9435 183.161 89.5957Z" fill="#2869FE"/>
<path d="M175.115 130.352C173.794 141.216 172.473 152.08 171.152 162.944C172.406 163.637 174.535 164.598 177.337 164.879C179.12 165.057 180.649 164.906 181.781 164.702C183.692 158.51 185.39 150.717 185.764 141.662C185.923 137.815 185.823 134.225 185.565 130.938C182.082 130.742 178.599 130.548 175.115 130.352Z" fill="#2869FE"/>
<path d="M191.931 113.939C195.234 120.406 198.536 126.873 201.839 133.341C205.062 143.521 208.285 153.701 211.508 163.882C214.43 163.315 217.353 162.749 220.276 162.182C219.128 154.972 217.98 147.762 216.833 140.551C216.512 138.985 216.016 137.178 215.232 135.237C213.893 131.923 212.18 129.362 210.728 127.538C210.239 121.576 209.024 114.238 206.224 106.201C204.854 102.271 203.307 98.7493 201.74 95.6495C201.233 95.0244 200.726 94.3993 200.218 93.7742C197.455 100.496 194.693 107.217 191.931 113.939Z" fill="#2869FE"/>
<path d="M192.414 51.8017C188.744 56.4901 185.902 59.9052 183.843 62.3153C181.945 64.5383 179.789 66.9863 180.053 70.1478C180.15 71.3096 180.546 72.2426 180.88 72.8668C180.96 79.3283 181.04 85.7888 181.12 92.2503C182.793 92.5379 184.863 92.7085 187.205 92.4845C193.801 91.8529 198.396 88.4848 200.417 86.7791C200.135 83.4146 200.082 79.3015 200.657 74.6648C201.076 71.2893 201.747 68.29 202.483 65.7222C202.488 64.1087 202.405 62.3476 202.181 60.4667C201.671 56.1748 200.584 52.53 199.456 49.6543C197.11 50.3698 194.762 51.0853 192.414 51.8017Z" fill="#FE3B5B"/>
<path d="M192.92 116.109C192.887 116.109 192.854 116.102 192.821 116.088C192.702 116.034 192.65 115.898 192.706 115.783L199.804 100.751C199.858 100.636 199.997 100.585 200.116 100.638C200.235 100.692 200.287 100.828 200.231 100.944L193.134 115.975C193.094 116.059 193.01 116.109 192.92 116.109Z" fill="#2E1A1A"/>
<path d="M184.364 133.279C184.313 133.279 184.263 133.263 184.22 133.231C184.117 133.153 184.097 133.009 184.177 132.907L185.195 131.618C185.275 131.516 185.424 131.498 185.526 131.576C185.629 131.654 185.649 131.798 185.57 131.9L184.552 133.189C184.504 133.248 184.434 133.279 184.364 133.279Z" fill="#2E1A1A"/>
<path d="M210.774 129.397C210.742 129.397 210.709 129.39 210.676 129.377C210.558 129.324 210.504 129.188 210.559 129.071L211.013 128.091C211.067 127.976 211.203 127.921 211.326 127.977C211.444 128.03 211.498 128.166 211.443 128.282L210.987 129.262C210.95 129.346 210.864 129.397 210.774 129.397Z" fill="#2E1A1A"/>
<path d="M187.607 32.4586C187.27 32.8053 185.951 34.1689 186.285 35.4478C186.654 36.8557 188.961 37.9058 191.96 37.5582C192.117 39.3479 192.544 39.8494 192.921 39.9619C193.223 40.0514 193.418 39.8688 194.052 39.8448C194.626 39.8236 195.394 39.902 195.653 40.1574C196.712 41.202 194.435 43.2858 194.372 46.8401C194.309 50.353 196.443 53.4574 197.375 54.8118C198.028 55.7633 198.384 56.2114 198.768 56.6309C199.884 57.8526 200.534 58.0499 200.818 59.3453C201.279 61.4475 197.7 64.6552 197.935 67.0829C198.183 69.6414 202.731 71.3379 205.382 71.8506C209.911 72.7265 216.516 71.6136 217.793 67.9422C218.824 64.9779 216.167 60.957 214.11 58.9544C212.163 57.0597 210.556 56.7775 210.026 54.8902C209.391 52.6257 211.317 51.6456 210.747 49.5757C209.952 46.6825 205.795 47.1554 204.822 44.2613C204.073 42.0328 206.258 40.9245 205.863 37.1489C205.774 36.3006 205.591 34.5506 204.421 33.0063C201.539 29.1993 195.225 30.0236 192.731 30.349C189.699 30.7446 188.378 31.662 187.607 32.4586Z" fill="#2E1A1A"/>
<path d="M170.041 165.26C168.7 166.344 167.358 167.428 166.017 168.513C164.384 168.643 163.045 168.872 162.084 169.07C159.856 169.529 159.331 169.89 158.991 170.301C158.323 171.111 158.336 172.153 158.391 172.705C164.956 172.705 171.522 172.705 178.088 172.705C177.428 170.77 176.766 168.836 176.106 166.902C174.355 167.058 172.603 167.214 170.852 167.371C170.581 166.667 170.311 165.963 170.041 165.26Z" fill="#FE3B5B"/>
<path d="M178.583 173H158.19C158.035 173 157.908 172.875 157.908 172.724C157.908 172.572 158.035 172.448 158.19 172.448H178.583C178.738 172.448 178.865 172.573 178.865 172.724C178.865 172.876 178.738 173 178.583 173Z" fill="#2E1A1A"/>
<path d="M168.13 169.46C168.069 169.572 167.925 169.615 167.809 169.555L165.915 168.576C165.8 168.516 165.755 168.376 165.817 168.263C165.878 168.15 166.023 168.107 166.138 168.167L168.032 169.146C168.146 169.206 168.19 169.347 168.13 169.46Z" fill="#2E1A1A"/>
<path d="M168.627 168.858C168.565 168.97 168.421 169.014 168.305 168.954L166.413 167.975C166.297 167.915 166.253 167.775 166.314 167.661C166.376 167.549 166.519 167.505 166.635 167.565L168.528 168.544C168.644 168.604 168.688 168.745 168.627 168.858Z" fill="#2E1A1A"/>
<path d="M169.229 168.329C169.168 168.442 169.024 168.485 168.908 168.425L167.015 167.446C166.9 167.386 166.856 167.246 166.916 167.132C166.978 167.02 167.122 166.977 167.237 167.037L169.13 168.016C169.246 168.076 169.291 168.217 169.229 168.329Z" fill="#2E1A1A"/>
<path d="M212.74 164.99C211.398 166.075 210.057 167.159 208.716 168.244C207.083 168.374 205.744 168.603 204.783 168.801C202.554 169.26 202.03 169.621 201.69 170.032C201.021 170.842 201.035 171.884 201.089 172.436C207.655 172.436 214.221 172.436 220.787 172.436C220.666 171.293 220.422 169.944 219.945 168.477C219.696 167.709 219.417 167.012 219.131 166.387C217.27 166.625 215.41 166.863 213.549 167.102C213.28 166.397 213.01 165.694 212.74 164.99Z" fill="#FE3B5B"/>
<path d="M221.281 172.732H200.889C200.733 172.732 200.606 172.607 200.606 172.456C200.606 172.304 200.734 172.18 200.889 172.18H221.281C221.436 172.18 221.564 172.305 221.564 172.456C221.564 172.607 221.436 172.732 221.281 172.732Z" fill="#2E1A1A"/>
<path d="M210.828 169.19C210.766 169.303 210.623 169.346 210.507 169.286L208.614 168.307C208.498 168.247 208.454 168.106 208.515 167.993C208.577 167.881 208.721 167.838 208.837 167.898L210.73 168.877C210.845 168.937 210.889 169.078 210.828 169.19Z" fill="#2E1A1A"/>
<path d="M211.325 168.59C211.264 168.702 211.119 168.746 211.004 168.686L209.111 167.707C208.996 167.647 208.952 167.506 209.013 167.393C209.074 167.281 209.218 167.237 209.334 167.296L211.227 168.276C211.342 168.336 211.387 168.477 211.325 168.59Z" fill="#2E1A1A"/>
<path d="M211.928 168.06C211.867 168.172 211.722 168.216 211.607 168.157L209.714 167.177C209.599 167.117 209.554 166.976 209.615 166.864C209.676 166.751 209.821 166.708 209.936 166.767L211.829 167.746C211.945 167.807 211.99 167.947 211.928 168.06Z" fill="#2E1A1A"/>
<path d="M151.241 68.5397C151.224 69.2386 151.206 69.9375 151.189 70.6364C160.356 72.0738 167.213 72.8649 169.885 73.1C171.02 73.1995 173.138 73.3526 174.98 72.1475C175.427 71.8553 175.745 71.5565 175.921 71.3777C175.493 69.9375 175.064 68.4982 174.634 67.058C172.878 66.8192 171.482 66.7805 170.659 66.7787C163.882 66.7611 160.814 69.0772 154.269 68.8274C152.893 68.7748 151.803 68.6264 151.241 68.5397Z" fill="#FF9880"/>
<path d="M175.921 71.3776C174.504 70.1578 173.086 68.938 171.694 67.7246C175.089 65.4316 178.51 63.145 181.915 60.8676C184.206 59.3371 186.455 57.8093 188.714 56.2972C190.703 54.5897 193.085 54.2384 194.061 55.0783C195.17 55.9948 195.115 58.9379 192.652 61.2752C191.228 62.4747 189.65 63.6742 187.924 64.848C187.344 65.2564 186.744 65.6317 186.178 65.9885C185.555 66.3988 184.939 66.7833 184.331 67.1428C181.364 68.9186 178.512 70.2851 175.921 71.3776Z" fill="#FF9880"/>
<path d="M184.331 67.1435C183.528 65.0432 182.734 62.9595 181.914 60.8674C181.922 60.8416 181.902 60.8093 181.893 60.7927L181.947 60.849L186.178 65.9892C185.556 66.3995 184.94 66.784 184.331 67.1435Z" fill="#2E1A1A"/>
<path d="M185.731 67.0718C184.218 64.8018 182.706 62.5327 181.195 60.2628C184.625 58.3671 188.054 56.4714 191.484 54.5758C192.032 54.5122 192.795 54.4864 193.675 54.6606C194.183 54.7611 194.618 54.9068 194.973 55.0525C195.146 55.2968 196.821 57.7355 195.766 59.9732C195.604 60.3153 195.331 60.7551 194.851 61.1894C191.81 63.1496 188.77 65.1107 185.731 67.0718Z" fill="#FE3B5B"/>
<path d="M186.232 66.9795C186.155 66.9795 186.081 66.9427 186.035 66.8763C185.963 66.7702 185.993 66.6273 186.102 66.5573L194.253 61.299C194.359 61.229 194.507 61.2575 194.581 61.3645C194.653 61.4705 194.623 61.6134 194.514 61.6835L186.362 66.9417C186.322 66.9666 186.277 66.9795 186.232 66.9795Z" fill="#2E1A1A"/>
<path d="M189.638 55.826C189.556 55.826 189.476 55.7845 189.432 55.7089C189.369 55.5983 189.409 55.4582 189.522 55.3955L190.964 54.5979C191.077 54.5334 191.221 54.573 191.286 54.6846C191.349 54.7952 191.309 54.9354 191.196 54.9981L189.755 55.7956C189.718 55.8168 189.678 55.826 189.638 55.826Z" fill="#2E1A1A"/>
<path d="M173.134 67.3744C173.014 67.3744 172.912 67.2859 172.899 67.1669L172.861 66.8018C172.848 66.6746 172.943 66.5621 173.073 66.5492C173.212 66.5317 173.318 66.6285 173.332 66.7548L173.369 67.1199C173.383 67.2471 173.287 67.3596 173.158 67.3725C173.15 67.3734 173.142 67.3744 173.134 67.3744Z" fill="#2E1A1A"/>
<path d="M155.015 70.687C154.427 69.953 153.08 68.5 150.927 67.9975C149.029 67.554 146.937 67.9495 146.913 68.3017C146.903 68.4585 147.297 68.7046 149.14 69.0873C148.281 69.6073 147.312 70.1411 146.233 70.6575C145.163 71.1692 144.146 71.5868 143.205 71.9289C143.031 72.3512 143.138 72.5513 143.175 72.6084C143.399 72.9616 144.219 73.0095 145.173 72.5494C145 72.7624 144.62 73.2861 144.786 73.7554C144.894 74.0615 145.182 74.1952 145.946 74.5742C147.303 75.2463 147.405 75.3228 147.494 75.3579C147.696 75.4233 154.347 72.2728 156.553 71.2254C156.04 71.0456 155.528 70.8658 155.015 70.687Z" fill="#FF9880"/>
<path d="M145.42 72.6877C145.335 72.6877 145.252 72.6426 145.21 72.5633C145.15 72.4499 145.195 72.3116 145.31 72.2525L147.028 71.3812C147.144 71.3213 147.287 71.3656 147.347 71.479C147.406 71.5924 147.362 71.7307 147.247 71.7897L145.528 72.661C145.493 72.6794 145.457 72.6877 145.42 72.6877Z" fill="#2E1A1A"/>
<path d="M145.554 74.6083C145.474 74.6083 145.397 74.5687 145.351 74.4977C145.284 74.3889 145.319 74.2469 145.431 74.1805L149.389 71.8238C149.498 71.7593 149.645 71.7916 149.713 71.9004C149.781 72.0092 149.746 72.1512 149.634 72.2175L145.677 74.5742C145.639 74.5982 145.596 74.6083 145.554 74.6083Z" fill="#2E1A1A"/>
<path d="M146.957 75.1154C146.868 75.1154 146.782 75.0656 146.742 74.9817C146.686 74.8665 146.738 74.7291 146.856 74.6756L150.27 73.1312C150.388 73.0768 150.529 73.1275 150.584 73.2437C150.639 73.359 150.588 73.4964 150.469 73.5498L147.056 75.0942C147.024 75.108 146.99 75.1154 146.957 75.1154Z" fill="#2E1A1A"/>
<path d="M43.6925 97.0854C35.809 97.0854 29.4199 103.323 29.4199 111.051C29.4199 116.169 32.2329 120.644 36.4693 123.05C38.588 124.27 41.0533 124.983 43.6925 124.983C45.985 124.983 48.1717 124.474 50.0826 123.525C54.7705 121.254 58 116.509 58 111.051C58 103.323 51.6099 97.0854 43.6925 97.0854ZM43.7615 116C45.3587 118.407 45.6714 119.153 45.5325 119.221C45.3937 119.323 44.8033 118.679 43.5877 118.509C43.4139 118.475 43.275 118.475 43.2401 118.475C42.4069 118.441 41.7117 118.814 41.2602 119.153C41.5379 118.78 41.8156 118.407 42.0933 118.034C42.6506 117.322 43.2061 116.644 43.7615 116ZM31.4338 112.713C31.4687 109.526 34.2118 107.391 36.6431 106.78C38.2753 106.408 40.9844 106.408 42.1991 107.933C44.4567 110.882 40.7057 118.645 36.6431 118.645C34.3157 118.611 31.4338 115.966 31.4338 112.713ZM51.0545 118.644C47.0269 118.644 43.2759 110.882 45.5335 107.932C46.7492 106.407 49.4573 106.407 51.0545 106.779C53.5199 107.39 56.2639 109.525 56.2639 112.712C56.2979 115.966 53.416 118.611 51.0545 118.644Z" fill="#90ACFB"/>
<path d="M36.2217 120.339C36.4748 123.34 36.728 126.341 36.9811 129.343C38.1382 129.59 39.2963 129.837 40.4534 130.084C40.7065 129.554 40.9597 129.024 41.2128 128.495C41.6587 128.227 42.215 128.227 42.624 128.495C43.1228 128.823 43.3202 129.495 43.0585 130.084C43.8907 130.119 44.7229 130.154 45.5541 130.19C45.5182 129.484 45.4814 128.777 45.4455 128.071C45.88 128.071 46.3135 128.071 46.7481 128.071C47.1457 128.6 47.5443 129.13 47.942 129.66C48.4842 129.589 49.0273 129.519 49.5695 129.448C49.8227 126.518 50.0758 123.586 50.3289 120.655C45.6268 120.55 40.9238 120.444 36.2217 120.339Z" fill="#90ACFB"/>
<path d="M57.6353 104.615C59.2155 103.594 60.7958 102.572 62.3752 101.551C62.3525 101.244 62.3138 100.183 63.0524 99.1774C63.6315 98.39 64.3805 98.0525 64.7017 97.929C65.6302 97.9898 66.3707 98.6767 66.4708 99.5093C66.5851 100.454 65.8493 101.386 64.7914 101.516C66.4321 101.734 67.5174 102.263 67.5675 102.871C67.594 103.196 67.3162 103.465 67.1982 103.579C65.9532 104.781 63.2215 103.847 62.873 103.724C61.3503 104.448 59.8276 105.174 58.304 105.899C58.082 105.471 57.8582 105.043 57.6353 104.615Z" fill="#90ACFB"/>
<path d="M32.1484 121.022C30.6881 122.2 29.2268 123.379 27.7665 124.558C27.8222 124.86 27.9752 125.911 27.349 126.987C26.8587 127.83 26.1494 128.243 25.8433 128.399C24.9139 128.434 24.1025 127.827 23.9126 127.009C23.6972 126.081 24.3273 125.079 25.3654 124.841C23.7095 124.793 22.5732 124.378 22.4589 123.779C22.3975 123.458 22.644 123.162 22.7498 123.036C23.8578 121.712 26.6755 122.36 27.0354 122.446C28.4711 121.568 29.9069 120.69 31.3427 119.812C31.6119 120.216 31.8801 120.619 32.1484 121.022Z" fill="#90ACFB"/>
<path d="M55.8011 119.169C57.4607 120.063 59.1203 120.956 60.78 121.849C61.0482 121.688 61.9928 121.163 63.2482 121.336C64.2315 121.471 64.8851 121.964 65.1458 122.184C65.5208 123.016 65.2403 123.975 64.5309 124.447C63.7252 124.983 62.5397 124.779 61.9314 123.924C62.4934 125.444 62.5161 126.629 61.9871 126.953C61.7038 127.127 61.3316 127.011 61.1729 126.961C59.5038 126.441 59.0863 123.646 59.0372 123.287C57.6733 122.306 56.3093 121.325 54.9453 120.343C55.2306 119.952 55.5158 119.56 55.8011 119.169Z" fill="#90ACFB"/>
<path d="M29.91 105.532C28.1625 104.815 26.416 104.097 24.6685 103.38C24.4191 103.568 23.5369 104.188 22.2693 104.145C21.2765 104.112 20.5737 103.69 20.2904 103.497C19.8275 102.71 20.0023 101.727 20.6569 101.184C21.3993 100.567 22.6008 100.648 23.2988 101.435C22.5753 99.9815 22.4251 98.8059 22.9154 98.4288C23.1789 98.2269 23.5614 98.3034 23.7239 98.3366C25.4393 98.6814 26.1571 101.419 26.245 101.77C27.7072 102.606 29.1704 103.441 30.6326 104.275C30.3917 104.695 30.1508 105.113 29.91 105.532Z" fill="#90ACFB"/>
<path d="M162.157 25.5134C154.274 25.5134 147.884 31.7499 147.884 39.4791C147.884 44.5972 150.697 49.0717 154.934 51.4782C157.052 52.698 159.518 53.4107 162.157 53.4107C164.449 53.4107 166.636 52.9027 168.547 51.953C173.235 49.6821 176.464 44.9365 176.464 39.4791C176.464 31.7508 170.075 25.5134 162.157 25.5134ZM162.227 44.4276C163.824 46.834 164.137 47.5799 163.998 47.6481C163.859 47.7496 163.269 47.106 162.053 46.9363C161.879 46.9022 161.74 46.9022 161.705 46.9022C160.872 46.8681 160.177 47.2415 159.726 47.5799C160.003 47.2074 160.281 46.834 160.559 46.4615C161.115 45.7497 161.671 45.072 162.227 44.4276ZM149.899 41.1397C149.934 37.9532 152.677 35.8178 155.108 35.2074C156.741 34.835 159.45 34.835 160.664 36.36C162.922 39.3086 159.171 47.0719 155.108 47.0719C152.781 47.0378 149.899 44.3944 149.899 41.1397ZM169.519 47.0719C165.491 47.0719 161.74 39.3095 163.998 36.36C165.213 34.835 167.922 34.835 169.519 35.2074C171.984 35.8178 174.728 37.9532 174.728 41.1397C174.763 44.3944 171.88 47.0378 169.519 47.0719Z" fill="#90ACFB"/>
<path d="M154.686 48.7664C154.939 51.7675 155.192 54.7686 155.445 57.7698C156.604 58.0169 157.761 58.264 158.918 58.5111C159.171 57.9819 159.424 57.4517 159.677 56.9225C160.123 56.6542 160.679 56.6542 161.087 56.9225C161.586 57.2498 161.784 57.9219 161.522 58.5111C162.354 58.5461 163.186 58.5821 164.018 58.6171C163.982 57.9109 163.945 57.2046 163.909 56.4983C164.343 56.4983 164.777 56.4983 165.211 56.4983C165.609 57.0276 166.007 57.5577 166.405 58.087C166.948 58.016 167.491 57.9459 168.033 57.8749C168.286 54.9448 168.539 52.0137 168.792 49.0826C164.091 48.9784 159.389 48.8724 154.686 48.7664Z" fill="#90ACFB"/>
<path d="M176.1 33.0434C177.68 32.0218 179.26 31.0002 180.84 29.9786C180.817 29.6716 180.778 28.6112 181.517 27.6053C182.096 26.8179 182.845 26.4805 183.166 26.3569C184.095 26.4178 184.835 27.1047 184.935 27.9373C185.049 28.8823 184.314 29.8136 183.256 29.9436C184.896 30.1621 185.982 30.6913 186.032 31.2989C186.058 31.6244 185.781 31.8927 185.663 32.007C184.418 33.2093 181.686 32.2753 181.337 32.1518C179.815 32.8765 178.292 33.6021 176.768 34.3268C176.546 33.899 176.323 33.4712 176.1 33.0434Z" fill="#90ACFB"/>
<path d="M150.614 49.4485C149.153 50.6268 147.692 51.8061 146.232 52.9844C146.288 53.2868 146.441 54.3379 145.814 55.4148C145.324 56.2575 144.615 56.6706 144.309 56.8264C143.379 56.8615 142.568 56.2548 142.378 55.437C142.163 54.5085 142.793 53.5072 143.831 53.2684C142.175 53.2205 141.039 52.8055 140.924 52.2062C140.863 51.8854 141.109 51.5894 141.215 51.464C142.323 50.14 145.141 50.7873 145.501 50.8739C146.936 49.9962 148.372 49.1175 149.808 48.2397C150.077 48.6436 150.345 49.0465 150.614 49.4485Z" fill="#90ACFB"/>
<path d="M174.265 47.5974C175.925 48.4908 177.584 49.3843 179.244 50.2768C179.512 50.1154 180.457 49.5899 181.712 49.7632C182.695 49.8988 183.349 50.3911 183.61 50.6115C183.985 51.4431 183.704 52.402 182.995 52.8741C182.189 53.4107 181.004 53.206 180.395 52.3513C180.957 53.8717 180.979 55.0565 180.451 55.3801C180.168 55.5544 179.795 55.4382 179.637 55.3884C177.968 54.8684 177.55 52.0728 177.501 51.7142C176.137 50.7332 174.773 49.7522 173.409 48.7702C173.695 48.3802 173.981 47.9883 174.265 47.5974Z" fill="#90ACFB"/>
<path d="M148.374 33.9599C146.627 33.2426 144.88 32.5253 143.134 31.808C142.884 31.9961 142.002 32.6157 140.735 32.5732C139.743 32.5401 139.039 32.1178 138.756 31.9251C138.293 31.1377 138.468 30.1548 139.122 29.6117C139.865 28.9949 141.066 29.0761 141.764 29.8635C141.041 28.4094 140.89 27.2339 141.381 26.8568C141.643 26.6549 142.027 26.7314 142.189 26.7646C143.905 27.1094 144.622 29.8469 144.71 30.1981C146.173 31.0335 147.636 31.8688 149.098 32.7033C148.857 33.1228 148.615 33.5414 148.374 33.9599Z" fill="#90ACFB"/>
<path d="M138.995 96.5302C136.402 101.747 133.809 106.964 131.216 112.18C130.779 113.061 131.435 114.084 132.438 114.084H148.472C149.488 114.084 150.144 113.034 149.679 112.152C146.927 106.935 144.176 101.718 141.424 96.5017C140.911 95.5308 139.483 95.5474 138.995 96.5302Z" fill="#FE3B5B"/>
<path d="M146.423 112.89H134.484C134.12 112.89 133.788 112.708 133.574 112.39C133.327 112.025 133.286 111.543 133.466 111.135C134.109 109.681 134.711 108.175 135.294 106.719C136.459 103.804 137.667 100.788 139.264 98.0174C139.48 97.644 139.879 97.4163 140.313 97.4163C140.766 97.431 141.112 97.6495 141.282 98.0017C142.687 100.904 144.067 103.879 145.401 106.754C146.075 108.207 146.749 109.66 147.428 111.111C147.62 111.519 147.586 112.006 147.339 112.38C147.128 112.704 146.793 112.89 146.423 112.89ZM139.471 98.1308C137.879 100.888 136.678 103.895 135.514 106.803C134.931 108.261 134.328 109.768 133.683 111.227C133.534 111.565 133.567 111.962 133.771 112.264C133.941 112.516 134.201 112.661 134.484 112.661H146.423C146.711 112.661 146.973 112.513 147.143 112.255C147.346 111.946 147.373 111.544 147.215 111.206C146.534 109.756 145.861 108.302 145.187 106.848C143.854 103.974 142.475 101.001 141.07 98.1004C140.938 97.8275 140.669 97.6587 140.349 97.6468C139.991 97.6412 139.65 97.8183 139.471 98.1308Z" fill="white"/>
<path d="M141.406 104.677C141.406 106.944 140.98 108.782 140.454 108.782C139.928 108.782 139.502 106.944 139.502 104.677C139.502 102.41 139.928 100.571 140.454 100.571C140.98 100.571 141.406 102.41 141.406 104.677Z" fill="white"/>
<path d="M140.454 111.226C140.965 111.226 141.379 110.822 141.379 110.323C141.379 109.825 140.965 109.42 140.454 109.42C139.943 109.42 139.529 109.825 139.529 110.323C139.529 110.822 139.943 111.226 140.454 111.226Z" fill="white"/>
<path d="M99.0542 136.325C93.6427 139.612 86.5253 137.995 83.1579 132.712C79.7904 127.43 81.4472 120.482 86.8597 117.195C92.2711 113.908 99.3886 115.526 102.756 120.809C106.123 126.091 104.467 133.038 99.0542 136.325Z" fill="#2E1A1A"/>
<path d="M89.5457 117.831C90.2636 117.792 90.7841 117.149 90.6565 116.459L89.8017 111.839L83.5986 110.833C83.6563 111.3 83.7139 111.767 83.7724 112.235C83.847 112.343 84.3175 112.996 85.212 113.12C85.9591 113.222 86.5146 112.887 86.6534 112.797L87.495 113.223C87.8691 113.412 88.1128 113.78 88.1373 114.19L88.2885 116.733C88.3262 117.375 88.8892 117.866 89.5457 117.831Z" fill="#2E1A1A"/>
<path d="M85.7659 120.629C86.4828 120.59 87.0042 119.947 86.8767 119.257L86.0219 114.637L79.8188 113.631C79.8765 114.098 79.9341 114.566 79.9917 115.033C80.0663 115.141 80.5367 115.795 81.4312 115.918C82.1784 116.02 82.7338 115.685 82.8726 115.595L83.7133 116.021C84.0874 116.21 84.3311 116.578 84.3556 116.989L84.5068 119.531C84.5464 120.173 85.1094 120.664 85.7659 120.629Z" fill="#2E1A1A"/>
<path d="M83.5347 123.84C84.2129 123.608 84.5284 122.848 84.2081 122.22L82.0649 118.019L75.8203 118.743C76.0092 119.177 76.1991 119.609 76.388 120.042C76.49 120.125 77.1295 120.625 78.0231 120.5C78.7693 120.395 79.2066 119.921 79.3152 119.796L80.2447 119.976C80.6584 120.055 80.9975 120.342 81.1392 120.729L82.013 123.13C82.2331 123.736 82.9131 124.053 83.5347 123.84Z" fill="#2E1A1A"/>
<path d="M99.1347 132.871C99.487 132.26 100.308 132.088 100.886 132.504L104.754 135.293L102.939 141.17C102.535 140.913 102.131 140.656 101.727 140.399C101.661 140.286 101.268 139.584 101.549 138.747C101.784 138.047 102.339 137.71 102.482 137.627L102.462 136.702C102.454 136.291 102.223 135.915 101.857 135.712L99.5862 134.456C99.0147 134.14 98.8126 133.431 99.1347 132.871Z" fill="#2E1A1A"/>
<path d="M94.8925 134.945C95.2449 134.334 96.0657 134.161 96.6438 134.578L100.511 137.367L98.6964 143.244C98.2921 142.987 97.8878 142.73 97.4835 142.472C97.4174 142.36 97.0245 141.658 97.306 140.821C97.5412 140.121 98.0956 139.784 98.2392 139.701L98.2193 138.776C98.2108 138.365 97.9804 137.989 97.6139 137.786L95.3431 136.53C94.7726 136.215 94.5704 135.506 94.8925 134.945Z" fill="#2E1A1A"/>
<path d="M90.9557 135.481C91.4686 134.989 92.3065 135.048 92.7419 135.606L95.6569 139.339L92.2319 144.487C91.9173 144.13 91.6028 143.772 91.2882 143.416C91.2571 143.289 91.0804 142.508 91.5905 141.782C92.0174 141.174 92.6456 141.001 92.808 140.961L93.0536 140.068C93.1632 139.67 93.0498 139.246 92.7561 138.952L90.9359 137.127C90.4768 136.666 90.4853 135.931 90.9557 135.481Z" fill="#2E1A1A"/>
<path d="M103.431 131.487C100.463 129.671 96.4206 126.392 94.0138 121.077C93.2071 119.306 92.647 117.438 92.3457 115.526L92.5799 115.491C92.8765 117.383 93.431 119.232 94.2292 120.984C96.6114 126.246 100.616 129.494 103.556 131.293L103.431 131.487Z" fill="white"/>
<path d="M97.079 119.566C96.5189 119.906 95.8407 119.83 95.5639 119.397C95.2872 118.964 95.5176 118.336 96.0778 117.996C96.6379 117.655 97.3161 117.731 97.5929 118.164C97.8687 118.599 97.6392 119.226 97.079 119.566Z" fill="#FE3B5B"/>
<path d="M102.229 127.645C101.669 127.985 100.991 127.91 100.714 127.476C100.437 127.043 100.668 126.415 101.228 126.075C101.788 125.735 102.466 125.81 102.743 126.244C103.02 126.677 102.79 127.305 102.229 127.645Z" fill="#FE3B5B"/>
<path d="M140.592 13.9122C141.623 8.73233 138.157 3.71743 132.85 2.71111C127.544 1.70479 122.406 5.08813 121.375 10.268C120.344 15.4479 123.81 20.4628 129.117 21.4691C134.424 22.4754 139.561 19.0921 140.592 13.9122Z" fill="#2E1A1A"/>
<path d="M123.353 15.196C123.296 14.6041 122.72 14.1947 122.125 14.3229L118.142 15.184L117.474 20.3491C117.878 20.2855 118.281 20.2228 118.686 20.1592C118.776 20.0937 119.329 19.6825 119.406 18.9394C119.47 18.3179 119.161 17.8698 119.078 17.7574L119.419 17.0474C119.572 16.7321 119.882 16.5173 120.238 16.4841L122.441 16.2738C122.998 16.2195 123.405 15.7382 123.353 15.196Z" fill="#2E1A1A"/>
<path d="M125.909 18.2295C125.852 17.6375 125.276 17.2282 124.681 17.3563L120.699 18.2175L120.031 23.3826C120.435 23.319 120.838 23.2563 121.243 23.1926C121.333 23.1272 121.886 22.716 121.963 21.9728C122.028 21.3514 121.718 20.9033 121.635 20.7908L121.977 20.0809C122.129 19.7655 122.439 19.5507 122.796 19.5175L124.998 19.3073C125.554 19.2538 125.961 18.7725 125.909 18.2295Z" fill="#2E1A1A"/>
<path d="M128.771 19.9692C128.546 19.416 127.876 19.1799 127.342 19.4657L123.765 21.378L124.602 26.5191C124.971 26.3486 125.341 26.1771 125.71 26.0065C125.779 25.9189 126.192 25.3731 126.052 24.6382C125.936 24.0242 125.51 23.6784 125.399 23.5927L125.523 22.8182C125.579 22.4733 125.816 22.1829 126.148 22.0538L128.203 21.2517C128.724 21.0498 128.977 20.4763 128.771 19.9692Z" fill="#2E1A1A"/>
<path d="M136.093 6.76415C135.551 6.49308 135.374 5.82001 135.717 5.32766L138.01 2.03516L143.173 3.34072C142.963 3.68371 142.753 4.0267 142.544 4.36969C142.448 4.42777 141.852 4.77629 141.115 4.57161C140.501 4.40011 140.189 3.95294 140.112 3.83677L139.31 3.88379C138.953 3.90499 138.635 4.10784 138.471 4.41763L137.455 6.33818C137.199 6.82131 136.59 7.01217 136.093 6.76415Z" fill="#2E1A1A"/>
<path d="M138.035 10.2041C137.493 9.93307 137.316 9.25908 137.659 8.76765L139.953 5.47607L145.116 6.78164C144.906 7.12463 144.696 7.46762 144.487 7.81061C144.391 7.86869 143.795 8.21813 143.058 8.01253C142.443 7.84103 142.131 7.39386 142.055 7.27768L141.253 7.32471C140.896 7.34591 140.578 7.54875 140.414 7.85855L139.398 9.7791C139.141 10.2613 138.532 10.4522 138.035 10.2041Z" fill="#2E1A1A"/>
<path d="M138.632 13.444C138.189 13.0355 138.211 12.3403 138.682 11.9623L141.826 9.42676L146.409 12.0886C146.11 12.3606 145.81 12.6326 145.51 12.9046C145.401 12.9341 144.73 13.1065 144.081 12.7091C143.54 12.3763 143.368 11.8627 143.328 11.729L142.544 11.5557C142.195 11.4782 141.831 11.5861 141.585 11.8387L140.061 13.4052C139.677 13.8008 139.038 13.8174 138.632 13.444Z" fill="#2E1A1A"/>
<path d="M121.262 12.972L121.218 12.7461C122.849 12.4382 124.433 11.9182 125.927 11.1999C130.411 9.05717 133.097 5.63928 134.559 3.14893L134.764 3.26326C133.286 5.78127 130.57 9.23789 126.031 11.4074C124.519 12.1339 122.914 12.6604 121.262 12.972Z" fill="white"/>
<path d="M124.61 8.9071C124.923 9.35888 124.881 9.92316 124.513 10.1656C124.146 10.4091 123.593 10.2394 123.28 9.7867C122.965 9.33491 123.008 8.77064 123.376 8.52815C123.742 8.28474 124.295 8.45439 124.61 8.9071Z" fill="#FE3B5B"/>
<path d="M131.453 4.37813C131.768 4.82991 131.724 5.39418 131.357 5.63667C130.99 5.88008 130.438 5.71043 130.123 5.25773C129.809 4.80594 129.852 4.24167 130.22 3.99918C130.587 3.75669 131.139 3.92542 131.453 4.37813Z" fill="#FE3B5B"/>
</svg>
