<svg width="211" height="224" viewBox="0 0 211 224" fill="none" xmlns="http://www.w3.org/2000/svg">
<path d="M207.524 100.771L10.4281 0.827179C5.79339 -1.52306 0 1.41471 0 6.11506V206.002C0 210.702 5.79339 213.64 10.4281 211.29L207.524 111.347C212.159 108.996 212.159 103.121 207.524 100.771Z" fill="url(#paint0_linear_1172_276)"/>
<path d="M16.5899 79.282C17.4147 81.0216 18.5073 82.6251 19.8149 84.0612L17.897 87.5935L21.7691 90.1444L25.6412 92.6954L28.9655 90.0898C30.9011 90.7905 32.9596 91.2626 35.0921 91.4714L36.5786 95.1572L41.3704 94.5562L46.1623 93.9552L46.415 90.0513C48.3957 89.3269 50.2214 88.3673 51.8565 87.2188L55.8782 88.9033L58.7827 85.5025L61.6872 82.1017L58.7203 79.1821C59.5182 77.482 60.0559 75.674 60.2935 73.801L64.4901 72.4955L63.8058 68.2869L63.1215 64.0783L58.6767 63.8564C57.8517 62.1169 56.7593 60.5133 55.4517 59.0772L57.3696 55.545L53.4975 52.994L49.6254 50.4431L46.3011 53.0487C44.3655 52.348 42.307 51.8757 40.1745 51.667L38.688 47.9812L33.8961 48.5823L29.1043 49.1833L28.8516 53.087C26.8709 53.8116 25.0452 54.771 23.4101 55.9196L19.3883 54.2352L16.4838 57.6359L13.5793 61.0367L16.546 63.9564C15.7483 65.6565 15.2104 67.4644 14.9728 69.3373L10.7764 70.643L11.4606 74.8516L12.1449 79.0601L16.5899 79.282ZM35.236 56.8222C44.5093 55.6593 53.1001 61.319 54.4241 69.4636C55.7481 77.6081 49.3042 85.1534 40.0309 86.3163C30.7576 87.4792 22.1668 81.8195 20.8427 73.675C19.5188 65.5303 25.9627 57.9852 35.236 56.8222Z" fill="white"/>
<path d="M15.6762 37.9101C16.0544 38.7077 16.5552 39.4428 17.1547 40.1011L16.2754 41.7205L18.0506 42.89L19.8258 44.0595L21.3498 42.865C22.2372 43.1863 23.1809 43.4027 24.1585 43.4984L24.84 45.1881L27.0368 44.9127L29.2335 44.6372L29.3494 42.8476C30.2574 42.5153 31.0945 42.0756 31.844 41.5491L33.6878 42.3212L35.0194 40.7621L36.3509 39.2029L34.9907 37.8645C35.3565 37.0851 35.603 36.2563 35.712 35.3976L37.6358 34.7991L37.3223 32.8697L37.0086 30.9402L34.971 30.8386C34.5928 30.0409 34.092 29.3058 33.4925 28.6475L34.3717 27.0282L32.5965 25.8586L30.8213 24.6892L29.2973 25.8836C28.4098 25.5625 27.4662 25.3459 26.4885 25.2503L25.807 23.5605L23.6103 23.8359L21.4134 24.1114L21.2977 25.901C20.3895 26.2333 19.5525 26.6732 18.803 27.1997L16.9594 26.4274L15.6278 27.9866L14.2961 29.5457L15.6562 30.8841C15.2904 31.6635 15.0439 32.4924 14.935 33.351L13.0112 33.9495L13.3249 35.8789L13.6386 37.8084L15.6762 37.9101ZM24.2244 27.6136C28.4757 27.0805 32.414 29.6752 33.0211 33.4089C33.6281 37.1428 30.6739 40.6018 26.4227 41.135C22.1714 41.6681 18.233 39.0736 17.626 35.3397C17.0189 31.6057 19.9731 28.1467 24.2244 27.6136Z" fill="white"/>
<path d="M165.014 87.6266C165.014 87.6266 176.869 84.2431 177.833 84.6207C178.796 84.9984 178.926 85.5952 177.83 85.9536C176.733 86.3119 166.462 89.5249 166.462 89.5249C166.462 89.5249 181.111 87.6705 181.982 87.8171C182.492 87.9028 182.819 89.041 182.248 89.2822C181.678 89.5236 167.233 92.125 167.233 92.125C167.233 92.125 180.914 90.4163 181.592 90.7415C182.185 91.0261 182.199 92.1527 181.19 92.3435C180.182 92.5342 167.548 94.7801 167.548 94.7801C167.548 94.7801 177.56 94.1122 177.942 94.7079C178.176 95.0723 178.509 96.0416 175.923 96.1395C173.338 96.2374 167.234 97.0598 167.234 97.0598L165.014 87.6266Z" fill="#EEA886"/>
<path d="M151.95 93.4579C151.95 93.4579 155.786 92.1186 156.061 89.9923C156.295 88.1844 158.004 85.9424 158.528 85.2513C159.23 84.327 160.277 80.7971 161.507 81.5498C162.736 82.3023 160.08 87.4326 159.75 88.6013C159.421 89.7699 164.657 87.2792 165.967 87.5044C167.277 87.7295 170.844 95.7952 167.056 97.1288C163.267 98.4626 158.384 97.6149 157.762 97.9698C157.14 98.3244 155.042 99.0392 155.042 99.0392L151.95 93.4579Z" fill="#EEA886"/>
<path d="M105.703 153.907C105.789 154.881 105.882 155.809 105.967 156.639H51.0688C51.0886 155.827 51.1151 154.905 51.1349 153.907C51.3199 145.868 51.5906 132.69 51.4717 127.713C51.3197 120.608 49.616 102.146 49.2792 101.079C49.2792 101.079 37.2336 85.7084 24.6003 116.049C21.9916 122.302 45.9045 137.968 42.9329 138.449C39.9678 138.925 40.0866 143.884 40.0866 143.884C40.0866 143.884 17.5672 126.657 18.0295 121.582C18.2871 118.763 35.9195 77.8026 38.614 76.109C40.4499 74.9489 51.9803 70.8888 57.9568 68.8994C60.7239 67.9714 62.8305 67.3276 63.2664 67.3044C64.6334 67.229 81.4999 68.6501 81.4999 68.6501C81.4999 68.6501 83.9169 69.3752 86.3935 70.3728C90.6134 72.0722 97.1909 74.7345 101.906 76.7065C103.432 77.3446 105.34 78.2031 106.925 78.9397C106.733 83.9743 106.39 89.3741 105.908 95.1453C105.908 95.1453 105.03 107.749 104.95 120.48C104.191 123.363 104.323 130.062 104.323 130.062C104.112 136.413 104.917 142.933 105.129 146.575C105.261 148.855 105.479 151.523 105.703 153.907Z" fill="#DBD8E3"/>
<path d="M108.074 153.907C107.281 149.4 106.529 144.707 105.908 140.218V140.184C105.809 139.453 105.71 138.728 105.611 138.008C105.611 137.974 105.604 137.933 105.598 137.898C105.201 134.859 104.878 131.953 104.64 129.291C104.462 127.249 104.62 125.26 104.944 123.305C105.882 109.692 106.35 95.3366 106.35 95.3366C106.846 89.4552 107.13 83.9683 107.321 78.8468C107.321 78.8468 86.1424 70.0595 84.2207 69.5549C84.2207 69.5549 88.2358 77.8375 91.2473 96.3575C92.4096 103.468 94.5559 115.44 96.1144 127.661C96.7287 132.481 97.739 137.359 98.7031 141.953C99.6145 146.285 100.486 150.369 100.955 153.907C100.988 154.121 101.015 154.336 101.041 154.55C101.114 155.16 101.199 155.861 101.299 156.639H108.563C108.398 155.74 108.232 154.823 108.074 153.907Z" fill="#323657"/>
<path d="M70.7683 132.249C69.804 140.462 68.7474 147.109 67.8954 153.907C67.7831 154.812 67.671 155.722 67.5653 156.639H45.2902C45.5809 155.734 45.8646 154.823 46.1355 153.907C48.5261 145.989 50.4347 137.91 50.4347 133.009C50.4347 133.009 45.7988 103.729 44.2468 99.0139C44.2468 99.0139 30.2266 108.12 26.9511 114.425C24.019 120.063 45.5016 137.283 45.2507 137.863C43.7912 141.257 38.1976 147.457 38.1976 147.457C38.1976 147.457 4.93354 116.078 5.37596 112.209C5.69299 109.396 33.5814 78.1217 36.2692 76.4281C37.8278 75.4479 49.3449 71.8634 54.9981 69.903C56.035 69.5434 59.4029 68.4297 60.3274 68.1223C61.5227 69.2939 69.9494 77.2575 72.8684 107.523C73.3635 112.627 71.8116 123.427 70.7683 132.249Z" fill="#323657"/>
<path d="M64.8232 68.8791C64.8232 68.8791 64.7074 63.7935 62.4758 53.5052C61.879 50.7511 80.6804 60.7518 80.6804 60.7518C80.6804 60.7518 80.6225 61.7164 80.5847 63.0192C80.5645 63.7073 80.552 64.4881 80.5571 65.2711C80.5595 65.5477 80.5622 65.822 80.5696 66.094C80.5873 66.8219 80.6249 67.5187 80.6954 68.1114C80.7659 68.7221 81.1765 69.7993 81.3226 70.0957C82.0984 71.6665 71.155 72.8588 64.8232 68.8791Z" fill="#EEA987"/>
<path d="M76.5579 74.208L79.6746 77.8857C79.6746 77.8857 77.8487 80.0333 74.606 78.4479L76.5579 74.208Z" fill="#D44040"/>
<path d="M78.8419 78.0348C78.8419 78.0348 90.662 118.005 88.2256 149.118L84.2487 155.273L80.5263 148.825C80.5263 148.825 79.5066 93.1724 76.2656 77.9368L78.8419 78.0348Z" fill="#D44040"/>
<path d="M79.8953 70.7793L76.5582 74.2081C76.5582 74.2081 71.2027 73.2968 69.6302 70.8399C68.0576 68.3828 79.8953 70.7793 79.8953 70.7793Z" fill="#EEA987"/>
<path d="M80.6602 67.7781C80.6602 67.7781 80.2727 70.3919 76.5576 74.2077L80.6126 78.9924L82.8071 69.0667L80.6602 67.7781Z" fill="#C4C1CC"/>
<path d="M64.5144 65.2915C64.5144 65.2915 71.143 72.3276 76.5581 74.2079L74.0395 79.6787L61.4365 67.7783L64.5144 65.2915Z" fill="#C4C1CC"/>
<path d="M161.911 99.1664C161.911 99.1664 133.344 126.425 126.602 124.969C123.486 124.295 118.765 119.57 114.864 115.128C113.579 113.665 112.318 112.13 111.118 110.61C111.114 110.607 111.114 110.604 111.114 110.604C106.329 104.535 102.578 98.7184 102.578 98.7184C102.578 98.7184 88.433 84.1585 99.7841 77.6683C99.7841 77.6683 104.568 77.2442 107.289 79.0072C109.801 80.6349 115.914 90.8846 116.906 92.785C117.898 94.6821 125.618 108.079 126.338 108.475C127.058 108.872 134.639 104.875 138.692 102.479C145.24 98.6081 153.468 91.8612 153.468 91.8612L161.911 99.1664Z" fill="#323657"/>
<path d="M90.5802 35.4351C90.5802 35.4351 94.7108 42.1611 92.6636 43.2069C90.972 44.0711 94.6454 50.6716 95.1261 51.7501C95.6067 52.8285 92.0619 53.6119 91.3093 54.3061C90.5567 55.0001 88.3244 63.5406 85.4051 63.7982C82.4859 64.0556 69.3315 60.0378 65.7495 56.7668C62.1676 53.4957 59.2287 38.7213 61.6195 32.4892C64.0101 26.2573 83.2901 23.6859 90.5802 35.4351Z" fill="#EEA886"/>
<path d="M91.4046 36.8931C91.4046 36.8931 95.6211 29.6295 87.9623 24.2409C80.3037 18.8526 66.1814 28.3095 64.5898 28.6703C62.9983 29.0309 53.9674 29.5757 58.5273 43.5023C62.4427 55.4609 62.9898 55.9641 62.9898 55.9641C62.9898 55.9641 65.912 49.0363 67.5679 47.9805C70.1541 46.3315 75.8243 46.7276 75.8243 46.7276C75.8243 46.7276 73.1225 40.4276 77.3447 39.5355C81.5669 38.6434 87.1328 35.5002 91.4046 36.8931Z" fill="#16202E"/>
<path d="M71.3267 43.1196C70.9544 42.2555 69.7503 38.5415 66.1219 40.7226C62.4932 42.9036 68.3827 49.9034 69.0153 49.9936C69.6479 50.084 74.4605 50.3913 71.3267 43.1196Z" fill="#EEA886"/>
<path d="M80.5568 65.2717C80.5593 65.5483 80.5619 65.8226 80.5693 66.0946C69.8147 62.9247 67.7319 58.1533 67.7319 58.1533C71.0866 60.2372 80.5844 63.0198 80.5844 63.0198C80.5644 63.7078 80.5517 64.4886 80.5568 65.2717Z" fill="#A77860"/>
<path d="M41.3703 137.762C41.3703 137.762 42.3881 138.511 43.4663 138.503C45.3282 138.489 47.448 136.711 49.3941 138.326C51.3402 139.94 47.2432 146.807 45.7675 147.612C44.292 148.416 40.9379 146.97 37.3487 143.16C33.7593 139.35 41.3703 137.762 41.3703 137.762Z" fill="#EEA886"/>
<path d="M48.6484 137.866C48.6484 137.866 52.4144 139.003 56.4282 140.723C59.9494 142.232 64.081 144.537 63.6596 145.319C63.0199 146.508 59.8789 144.278 56.2729 142.99C52.953 141.804 53.3799 142.533 53.3799 142.533C53.3799 142.533 53.2713 142.319 56.6015 144.237C60.1818 146.298 63.9295 148.644 63.5982 149.292C63.1876 150.094 63.0594 150.163 61.6198 149.604C62.3682 150.083 62.3244 150.333 62.1256 150.63C61.0974 152.164 55.2973 149.864 52.9943 148.949C54.7586 149.661 55.9658 150.352 54.646 150.933C53.1362 151.599 45.1039 148.017 42.0861 146.98C38.7942 145.849 48.6484 137.866 48.6484 137.866Z" fill="#EEA886"/>
<path d="M45.2511 137.866C45.2511 137.866 44.4327 142.075 38.1991 147.458C38.1991 147.458 23.9112 133.615 21.3623 131.023L32.542 125.326L45.2511 137.866Z" fill="#323657"/>
<path d="M108.833 54.9707H116.593C118.004 54.9707 119.147 53.966 119.147 52.7269V45.9123C119.147 44.673 118.003 43.6685 116.593 43.6685H108.833C107.422 43.6685 106.279 44.673 106.279 45.9123V52.7269C106.279 53.966 107.422 54.9707 108.833 54.9707Z" fill="#4CA1F4"/>
<g opacity="0.69">
<path opacity="0.72" d="M167.159 32.209H125.289C124.555 32.209 123.96 31.6866 123.96 31.042V29.8658C123.96 29.2214 124.555 28.6987 125.289 28.6987H167.159C167.893 28.6987 168.488 29.2213 168.488 29.8658V31.042C168.487 31.6866 167.893 32.209 167.159 32.209Z" fill="white"/>
<path opacity="0.72" d="M173.367 37.8843H125.289C124.555 37.8843 123.96 37.3619 123.96 36.7173V35.541C123.96 34.8966 124.555 34.374 125.289 34.374H173.367C174.1 34.374 174.696 34.8964 174.696 35.541V36.7173C174.695 37.3619 174.1 37.8843 173.367 37.8843Z" fill="white"/>
</g>
<path d="M108.833 38.9429H116.593C118.004 38.9429 119.147 37.9383 119.147 36.699V29.8845C119.147 28.6453 118.003 27.6406 116.593 27.6406H108.833C107.422 27.6406 106.279 28.6453 106.279 29.8845V36.699C106.279 37.9383 107.422 38.9429 108.833 38.9429Z" fill="#4CA1F4"/>
<g opacity="0.69">
<path opacity="0.72" d="M156.276 48.2371H125.112C124.476 48.2371 123.96 47.7842 123.96 47.2254V45.7385C123.96 45.1799 124.476 44.7268 125.112 44.7268H156.276C156.912 44.7268 157.428 45.1797 157.428 45.7385V47.2254C157.428 47.7842 156.912 48.2371 156.276 48.2371Z" fill="white"/>
<path opacity="0.72" d="M163.928 53.9121H125.157C124.496 53.9121 123.96 53.4414 123.96 52.8609V51.4532C123.96 50.8727 124.496 50.4021 125.157 50.4021H163.928C164.589 50.4021 165.125 50.8727 165.125 51.4532V52.8609C165.125 53.4414 164.589 53.9121 163.928 53.9121Z" fill="white"/>
</g>
<g opacity="0.69">
<path opacity="0.72" d="M171.13 64.2648H125.348C124.582 64.2648 123.96 63.7192 123.96 63.0462V61.9733C123.96 61.3002 124.582 60.7546 125.348 60.7546H171.13C171.896 60.7546 172.517 61.3002 172.517 61.9733V63.0462C172.517 63.7192 171.896 64.2648 171.13 64.2648Z" fill="white"/>
<path opacity="0.72" d="M167.243 69.94H125.205C124.518 69.94 123.96 69.4506 123.96 68.8468V67.5232C123.96 66.9194 124.518 66.4299 125.205 66.4299H167.243C167.93 66.4299 168.487 66.9194 168.487 67.5232V68.8468C168.487 69.4505 167.93 69.94 167.243 69.94Z" fill="white"/>
</g>
<path d="M108.833 70.9982H116.593C118.004 70.9982 119.147 69.9936 119.147 68.7545V61.9398C119.147 60.7006 118.003 59.696 116.593 59.696H108.833C107.422 59.696 106.279 60.7006 106.279 61.9398V68.7545C106.279 69.9936 107.422 70.9982 108.833 70.9982Z" fill="#4CA1F4"/>
<path d="M112.273 52.0513L108.702 49.3262C108.409 49.1027 108.378 48.713 108.633 48.456C108.887 48.1987 109.331 48.1714 109.624 48.3948L112.149 50.3218L115.738 46.794C115.996 46.5399 116.44 46.518 116.73 46.745C117.019 46.9721 117.044 47.3621 116.785 47.6162L112.273 52.0513Z" fill="white"/>
<path d="M112.273 68.0786L108.702 65.3536C108.409 65.1301 108.378 64.7404 108.633 64.4832C108.887 64.2261 109.331 64.1988 109.624 64.4221L112.149 66.3491L115.738 62.8214C115.996 62.5672 116.44 62.5454 116.73 62.7724C117.019 62.9995 117.044 63.3895 116.785 63.6434L112.273 68.0786Z" fill="white"/>
<path d="M112.475 34.6696L112.453 34.421C112.388 33.9046 112.584 33.3404 113.128 32.7669C113.618 32.2601 113.891 31.8872 113.891 31.4568C113.891 30.9692 113.542 30.6441 112.856 30.6346C112.465 30.6346 112.029 30.7494 111.757 30.9311L111.496 30.3287C111.855 30.0992 112.475 29.9463 113.052 29.9463C114.304 29.9463 114.871 30.6252 114.871 31.3518C114.871 32.0021 114.457 32.4706 113.934 33.0156C113.455 33.5127 113.281 33.9335 113.314 34.4211L113.325 34.6697H112.475V34.6696ZM112.236 36.0082C112.236 35.6544 112.508 35.4058 112.889 35.4058C113.27 35.4058 113.531 35.6544 113.531 36.0082C113.531 36.3428 113.281 36.601 112.878 36.601C112.497 36.601 112.236 36.3428 112.236 36.0082Z" fill="white"/>
<path d="M73.3572 172.191H22.9959C20.576 172.191 18.6143 170.468 18.6143 168.343V125.832C18.6143 123.706 20.576 121.983 22.9959 121.983H73.3572C75.7771 121.983 77.7388 123.706 77.7388 125.832V168.343C77.7388 170.468 75.7771 172.191 73.3572 172.191Z" fill="#E0E0E0"/>
<path d="M24.0935 166.403L23.6836 166.021L34.2834 157.237L45.0112 159.279L55.2582 149.016L64.195 149.459L71.1552 141.026L71.6388 141.334L64.4871 149.998L55.5151 149.554L45.2282 159.857L34.4644 157.808L24.0935 166.403Z" fill="#377B93"/>
<path d="M46.6785 159.272C46.8646 160.027 46.3187 160.772 45.4591 160.935C44.5995 161.098 43.7519 160.619 43.5657 159.864C43.3796 159.109 43.9255 158.365 44.7851 158.201C45.6446 158.038 46.4922 158.517 46.6785 159.272Z" fill="#E6E6E6"/>
<path d="M45.52 161.191C44.5009 161.385 43.4923 160.814 43.2716 159.919C43.0509 159.024 43.7004 158.138 44.7195 157.945C45.7386 157.751 46.7474 158.321 46.9679 159.216C47.1886 160.111 46.5391 160.997 45.52 161.191ZM44.8461 158.457C44.1488 158.59 43.7044 159.196 43.8553 159.808C44.0062 160.421 44.6963 160.811 45.3937 160.678C46.091 160.546 46.5354 159.94 46.3845 159.327C46.2334 158.715 45.5433 158.325 44.8461 158.457Z" fill="#377B93"/>
<path d="M56.9422 149.077C57.1283 149.832 56.5824 150.577 55.7228 150.74C54.8632 150.903 54.0155 150.424 53.8294 149.669C53.6433 148.914 54.1892 148.17 55.0487 148.006C55.9083 147.843 56.7561 148.322 56.9422 149.077Z" fill="#E6E6E6"/>
<path d="M55.7841 150.997C54.765 151.19 53.7564 150.62 53.5357 149.725C53.315 148.83 53.9646 147.944 54.9837 147.75C56.0028 147.556 57.0115 148.127 57.2321 149.022C57.4529 149.917 56.8034 150.803 55.7841 150.997ZM55.1102 148.263C54.413 148.395 53.9685 149.001 54.1194 149.614C54.2705 150.226 54.9606 150.616 55.6579 150.484C56.3551 150.351 56.7996 149.745 56.6487 149.133C56.4976 148.52 55.8075 148.13 55.1102 148.263Z" fill="#377B93"/>
<path d="M65.8141 149.389C66.0002 150.144 65.4543 150.889 64.5949 151.052C63.7353 151.216 62.8875 150.736 62.7014 149.981C62.5153 149.226 63.0612 148.482 63.9208 148.318C64.7804 148.155 65.6281 148.634 65.8141 149.389Z" fill="#E6E6E6"/>
<path d="M64.6567 151.309C63.6376 151.502 62.629 150.932 62.4083 150.037C62.1876 149.142 62.8371 148.256 63.8562 148.062C64.8753 147.868 65.8839 148.439 66.1045 149.334C66.3253 150.229 65.6758 151.115 64.6567 151.309ZM63.9826 148.575C63.2854 148.707 62.8409 149.313 62.9918 149.926C63.1428 150.538 63.8329 150.928 64.5303 150.796C65.2276 150.663 65.672 150.057 65.5211 149.445C65.37 148.832 64.6799 148.442 63.9826 148.575Z" fill="#377B93"/>
<path d="M35.9226 157.356C36.1087 158.111 35.5628 158.856 34.7033 159.019C33.8437 159.183 32.9959 158.703 32.8098 157.948C32.6237 157.193 33.1696 156.449 34.0292 156.285C34.8889 156.122 35.7365 156.601 35.9226 157.356Z" fill="#E6E6E6"/>
<path d="M34.7656 159.275C33.7465 159.469 32.7377 158.899 32.5172 158.004C32.2965 157.108 32.946 156.222 33.9653 156.029C34.9844 155.835 35.993 156.406 36.2137 157.301C36.4342 158.196 35.7847 159.082 34.7656 159.275ZM34.0915 156.541C33.3943 156.674 32.9498 157.28 33.1007 157.893C33.2518 158.505 33.9419 158.895 34.6392 158.763C35.3364 158.63 35.7809 158.024 35.63 157.412C35.4791 156.799 34.7888 156.409 34.0915 156.541Z" fill="#377B93"/>
<path d="M39.2937 162.852H32.7744V163.954H39.2937V162.852Z" fill="white"/>
<path d="M43.8274 151.537H37.3081V152.639H43.8274V151.537Z" fill="white"/>
<path d="M57.3513 159.421H50.832V160.524H57.3513V159.421Z" fill="white"/>
<path d="M63.1985 143.937H56.6792V145.039H63.1985V143.937Z" fill="white"/>
<path d="M72.6672 153.163H66.1479V154.266H72.6672V153.163Z" fill="white"/>
<path d="M46.1822 125.82H22.9644V127.822H46.1822V125.82Z" fill="#4E8C63"/>
<path d="M46.1822 131.205H22.9644V133.206H46.1822V131.205Z" fill="white"/>
<path d="M46.1822 136.59H22.9644V138.592H46.1822V136.59Z" fill="white"/>
<path d="M54.7965 125.82H50.9209V127.822H54.7965V125.82Z" fill="#4E8C63"/>
<path d="M54.7965 131.205H50.9209V133.206H54.7965V131.205Z" fill="white"/>
<path d="M54.7965 136.59H50.9209V138.592H54.7965V136.59Z" fill="white"/>
<path d="M116.138 152.559C116.138 152.559 113.091 146.495 116.626 146.997C116.626 146.997 117.83 147.871 119.065 149.651C120.001 151 121.946 154.569 121.874 155.776C121.802 156.982 120.825 157.883 119.769 159.822C119.769 159.822 117.575 163.42 117.482 163.853L115.162 162.795C115.162 162.795 117.128 159.355 118.513 156.331L116.138 152.559Z" fill="#DBD8E3"/>
<path d="M135.333 163.774L88.6372 156.789L87.2851 163.761L133.981 170.746L135.333 163.774Z" fill="#E8734D"/>
<path d="M88.48 157.627L85.9858 157.254L84.9596 162.546L87.4537 162.919L88.48 157.627Z" fill="#2D3038"/>
<path d="M98.4973 203.934H97.9222C97.9222 203.934 98.114 202.026 97.5816 202.007C97.0495 201.989 95.7295 203.559 94.9414 203.803C94.1538 204.046 90.1086 204.251 90.0871 203.597C90.0658 202.943 91.6412 202.68 92.1309 202.494C92.6206 202.307 95.0055 200.268 95.4311 200.025C95.8573 199.782 96.5838 198.092 96.5838 198.092L98.8421 198.004C98.8421 198.004 98.9698 199.584 99.1066 200.42C99.1575 200.729 99.1945 201.011 99.1999 201.203C99.221 201.914 98.4973 203.934 98.4973 203.934Z" fill="#EEA886"/>
<path d="M113.045 203.556H112.565V201.78C112.166 201.81 110.825 202.925 110.409 203.248C109.995 203.57 109.425 203.556 107.676 203.653C105.927 203.751 105.763 202.832 106.039 202.519C106.316 202.206 107.21 202.069 107.676 201.874C108.141 201.678 109.978 199.859 110.468 199.428C110.958 198.998 111.256 197.766 111.256 197.766L113.3 197.922C113.3 197.922 113.287 199.05 113.52 199.995V199.996C113.521 199.998 113.521 200.001 113.522 200.003C113.542 200.084 113.563 200.163 113.587 200.24C113.891 201.223 113.045 203.556 113.045 203.556Z" fill="#EEA886"/>
<path d="M105.487 163.313C105.487 163.313 104.715 164.918 104.647 165.323C104.578 165.728 102.77 169.567 102.247 172.156C101.934 173.705 101.07 178.556 101 179.172C100.88 180.228 100.314 182.558 100.227 183.636C100.178 184.238 96.7986 193.489 95.9805 198.319C95.9805 198.319 97.9243 198.572 99.384 198.233C99.384 198.233 102.351 193.241 103.998 186.161C104.991 181.897 105.868 179.623 106.637 177.867C107.406 176.11 111.759 171.137 112.213 170.578C112.668 170.019 115.515 166.931 112.819 163.585C110.123 160.24 105.487 163.313 105.487 163.313Z" fill="#323657"/>
<path d="M115.22 177.524C114.973 178.964 115.233 180.857 115.748 186.123C116.263 191.389 114.846 197.766 114.846 197.766C113.066 198.301 111.017 197.766 111.017 197.766C111.064 197.395 111.017 184.929 111.017 183.819C111.017 182.708 110.653 181.447 110.56 180.172C110.496 179.303 110.036 177.701 109.518 176.066C109.363 175.576 109.202 175.083 109.047 174.606V174.606C108.959 174.338 108.873 174.075 108.789 173.821C108.06 171.6 107.079 163.021 107.079 163.021C107.079 163.021 112.515 159.175 115.162 162.796C117.809 166.416 116.45 169.049 116.357 169.501C116.263 169.954 115.467 176.084 115.22 177.524Z" fill="#323657"/>
<path d="M112.966 169.787C112.924 169.869 110.215 175.15 109.518 176.066C109.363 175.576 109.202 175.083 109.046 174.606V174.605C109.046 174.605 112.875 169.903 112.966 169.787Z" fill="#131521"/>
<path d="M113.045 203.556H112.565V201.781C112.166 201.81 110.825 202.925 110.409 203.248C109.995 203.571 109.425 203.556 107.676 203.654C105.927 203.752 105.763 202.832 106.039 202.519C106.316 202.206 107.21 202.069 107.676 201.874C109.547 201.962 111.83 199.652 112.925 199.657C113.508 199.659 113.502 199.942 113.52 199.996V199.996C113.521 199.999 113.521 200.001 113.522 200.003C113.542 200.084 113.563 200.163 113.587 200.24C113.891 201.223 113.045 203.556 113.045 203.556Z" fill="#C6C9CC"/>
<path d="M98.4973 203.934H97.9222C97.9222 203.934 98.114 202.026 97.5816 202.007C97.0495 201.989 95.7295 203.559 94.9414 203.803C94.1538 204.046 90.1086 204.251 90.0871 203.597C90.0658 202.943 91.6412 202.681 92.1309 202.494C93.7994 202.491 96.513 200.878 97.3545 200.551C98.1955 200.224 99.1064 200.42 99.1064 200.42C99.1574 200.729 99.1943 201.011 99.1997 201.204C99.221 201.914 98.4973 203.934 98.4973 203.934Z" fill="#C6C9CC"/>
<path d="M110.287 143.175C110.287 143.175 111.155 145.19 110.48 146.748C110.48 146.748 113.661 146.567 113.781 146.24C113.901 145.914 113.653 142.894 114.091 142.002C114.528 141.109 110.287 143.175 110.287 143.175Z" fill="#EEA886"/>
<path d="M109.98 146.066C109.98 146.066 108.101 146.653 107.251 146.816C106.402 146.98 104.625 147.719 104.769 150.502C104.914 153.285 105.444 155.699 105.637 156.895C105.829 158.091 105.709 161.135 105.396 162.613C105.396 162.613 109.902 163.613 115.203 162.613C115.203 162.613 114.263 160.091 114.287 159.439C114.311 158.786 117.419 153.416 117.564 152.568C117.709 151.72 118.335 147.98 116.914 147.153C115.492 146.327 114.335 146.436 113.733 146.066C113.131 145.697 110.859 145.801 109.98 146.066Z" fill="#DBD8E3"/>
<path d="M117.232 166.987C109.534 168.781 103.408 166.994 103.408 166.994C103.966 165.985 104.377 164.979 104.675 164.005L104.675 164.004C104.886 163.316 105.04 162.644 105.149 161.998V161.998C105.775 158.314 104.959 155.494 104.959 155.494C105.848 149.071 116.914 147.154 117.8 149.19C118.686 151.226 116.083 159.976 115.951 160.726C115.818 161.476 117.232 166.987 117.232 166.987Z" fill="#DBD8E3"/>
<path d="M113.059 135.088C111.781 134.702 108.324 134.292 107.439 138.952C106.554 143.611 108.482 143.691 110.463 143.559C112.444 143.426 115.543 140.281 115.781 139.325C116.018 138.369 116.708 136.187 113.059 135.088Z" fill="#EEA886"/>
<path d="M108.151 136.877C108.151 136.877 109.207 138.86 110.592 139.552C110.592 139.552 111.459 141.66 113.338 142.512C113.338 142.512 118.324 139.611 115.431 136.164C112.538 132.717 108.478 135.462 108.151 136.877Z" fill="#16202E"/>
<path d="M110.469 138.864C110.582 138.622 111.329 138.228 111.664 138.893C111.999 139.558 110.796 140.729 110.466 140.666C110.137 140.603 110.044 139.784 110.469 138.864Z" fill="#EEA886"/>
<path d="M115.262 136.697C115.371 136.548 118.673 135.205 119.36 138.01C120.046 140.815 116.701 144.077 116.114 145.479C115.528 146.882 116.379 150.169 116.379 150.169C116.379 150.169 114.366 148.498 113.757 146.748C113.089 144.827 112.864 139.983 115.262 136.697Z" fill="#16202E"/>
<path d="M115.429 136.602C115.429 136.602 114.418 137.304 114.288 138.412C114.288 138.412 114.098 137.548 114.506 137.019C114.913 136.491 115.429 136.602 115.429 136.602Z" fill="#E54242"/>
<path d="M104.675 164.004C104.886 163.316 105.04 162.644 105.149 161.998L105.242 161.38C105.242 161.38 105.656 161.05 105.828 160.597C105.999 160.144 107.274 154.576 107.274 154.576C107.274 154.576 108.622 159.806 104.675 164.004Z" fill="#1D3B54"/>
<path d="M99.0077 164.327C99.0077 164.327 98.015 165.193 97.694 165.28C97.3731 165.368 96.7541 164.888 94.4747 164.739C94.2746 164.726 93.9227 164.884 94.0056 165.116C94.0883 165.348 95.0805 165.98 95.5051 166.077C95.9297 166.173 97.933 166.872 98.9092 166.529C99.8854 166.186 100.55 165.095 100.55 165.095L99.0077 164.327Z" fill="#EEA886"/>
<path d="M106.72 146.969C106.72 146.969 104.084 147.887 103.927 151.105C103.771 154.323 103.628 156.003 103.485 156.5C103.342 156.996 103.069 158.993 102.405 160.194C101.761 161.36 97.5371 165.048 97.5371 165.048L99.5813 166.736C99.5813 166.736 105.47 161.546 105.828 160.597C106.186 159.648 107.658 153.045 107.775 151.931C107.87 151.034 109.217 147.036 106.72 146.969Z" fill="#DBD8E3"/>
<path d="M81.8753 155.535C81.8711 155.645 81.8623 155.755 81.8537 155.865H86.6747C86.6834 155.755 86.6878 155.645 86.6919 155.535H81.8753ZM28.1045 154.365C28.1045 154.494 28.1045 154.619 28.1089 154.748C28.1175 155.284 28.1433 155.816 28.1951 156.343C28.3205 157.847 28.5973 159.317 29.0124 160.741C30.3311 165.298 33.0379 169.369 36.7132 172.582C36.856 172.711 36.9986 172.832 37.1413 172.954C37.7163 173.44 38.3173 173.907 38.9399 174.348C43.9816 177.951 50.4109 180.108 57.4155 180.108C57.5323 180.108 57.649 180.109 57.7657 180.105C63.0797 180.052 68.0564 178.753 72.3326 176.527C74.2739 175.517 76.0683 174.317 77.6898 172.954C81.0667 170.109 83.6738 166.563 85.2002 162.579C85.4293 161.975 85.6369 161.364 85.8185 160.741C86.1384 159.632 86.3806 158.493 86.5319 157.335V157.331C86.5623 157.084 86.5925 156.837 86.6141 156.586C86.6401 156.347 86.6618 156.108 86.6747 155.865C86.6834 155.755 86.6877 155.645 86.6918 155.535C86.7047 155.292 86.7135 155.052 86.7179 154.809C86.7221 154.661 86.7221 154.513 86.7221 154.365C86.7221 141.48 75.9429 130.805 61.8688 128.921C61.5963 128.883 61.3241 128.849 61.0473 128.819C60.7446 128.788 60.4419 128.758 60.1393 128.735C59.8668 128.712 59.5902 128.693 59.3178 128.678C58.6865 128.64 58.051 128.625 57.4153 128.625C56.8748 128.625 56.3387 128.637 55.8068 128.663C54.8946 128.705 53.9952 128.788 53.1045 128.902C44.6082 130 37.2968 134.302 32.8172 140.367C31.9221 141.575 31.1395 142.855 30.4822 144.195C30.439 144.279 30.4 144.366 30.3612 144.45C30.318 144.529 30.2833 144.613 30.2487 144.693C30.024 145.167 29.8207 145.65 29.6348 146.136C29.1506 147.397 28.7743 148.703 28.5192 150.043C28.4458 150.396 28.3896 150.753 28.3334 151.114C28.329 151.175 28.3204 151.236 28.3118 151.3C28.3075 151.304 28.3075 151.308 28.3075 151.315C28.3031 151.346 28.2989 151.376 28.2989 151.407C28.2902 151.441 28.2859 151.475 28.2815 151.513V151.539C28.2772 151.555 28.2728 151.574 28.2728 151.593C28.2686 151.619 28.264 151.646 28.264 151.672C28.2554 151.737 28.2468 151.802 28.2424 151.866C28.1994 152.261 28.1646 152.66 28.143 153.059C28.1386 153.112 28.1343 153.169 28.1343 153.222C28.13 153.309 28.1257 153.397 28.1213 153.484C28.1089 153.776 28.1045 154.069 28.1045 154.365ZM34.6724 162.374L34.56 162.123C34.4778 161.937 34.4 161.751 34.3222 161.561L34.145 161.106C34.1018 160.992 34.0584 160.878 34.0196 160.764C34.0152 160.756 34.0152 160.749 34.011 160.741C34.0024 160.718 33.9936 160.699 33.9894 160.676C33.9202 160.487 33.8596 160.293 33.7992 160.099L33.73 159.875C33.6651 159.67 33.6089 159.461 33.5527 159.252C33.5483 159.233 33.5397 159.211 33.5353 159.188C33.4879 158.994 33.4403 158.8 33.3971 158.607C33.3755 158.527 33.3581 158.447 33.3408 158.368C33.2889 158.124 33.2413 157.878 33.198 157.631C33.1202 157.198 33.064 156.761 33.0164 156.321C32.9992 156.173 32.9862 156.021 32.9732 155.869C32.9732 155.869 32.9774 155.869 32.9732 155.865C32.9732 155.816 32.9688 155.77 32.9646 155.721C32.9516 155.516 32.9386 155.311 32.93 155.106V155.045C32.9258 154.999 32.9258 154.95 32.9258 154.9C32.9214 154.722 32.917 154.543 32.917 154.365C32.917 154.198 32.917 154.031 32.9258 153.867C32.9388 153.199 32.9906 152.542 33.0814 151.893C33.0856 151.824 33.0944 151.756 33.1074 151.688C33.1074 151.684 33.1074 151.68 33.1116 151.676C33.1074 151.672 33.1116 151.672 33.1116 151.672C33.1074 151.669 33.1074 151.665 33.1116 151.661C33.1116 151.646 33.1116 151.631 33.116 151.619C33.116 151.616 33.116 151.612 33.116 151.612C33.116 151.604 33.116 151.6 33.1202 151.597C33.5873 148.387 34.8627 145.403 36.7567 142.797C38.9705 139.756 42.0316 137.234 45.6464 135.495C46.6019 135.032 47.5965 134.625 48.6213 134.28C48.9456 134.169 49.2784 134.063 49.6115 133.968C51.4662 133.417 53.4249 133.06 55.4527 132.924C56.1012 132.874 56.7543 132.852 57.4158 132.852C57.6147 132.852 57.8093 132.852 58.0082 132.859C58.2374 132.863 58.4622 132.871 58.6915 132.878C58.8559 132.886 59.0201 132.897 59.1844 132.908C59.232 132.908 59.2752 132.912 59.3184 132.916C59.5908 132.931 59.8675 132.954 60.1399 132.981C60.2091 132.988 60.2783 132.996 60.3474 133.003C60.4556 133.015 60.568 133.026 60.6761 133.042C60.8015 133.053 60.9225 133.068 61.0481 133.087C61.3248 133.121 61.597 133.163 61.8695 133.205C61.8955 133.209 61.9214 133.212 61.9431 133.216C62.1549 133.25 62.3668 133.288 62.5786 133.33C62.5918 133.334 62.6046 133.334 62.6176 133.338C62.704 133.353 62.7948 133.372 62.8815 133.391C63.0803 133.429 63.2749 133.471 63.4694 133.516C63.556 133.531 63.6424 133.551 63.7244 133.573C63.9494 133.626 64.1741 133.68 64.3991 133.74C64.6152 133.794 64.8272 133.854 65.039 133.915C65.1384 133.942 65.2378 133.972 65.3329 134.002C65.7567 134.128 66.176 134.264 66.5868 134.412C66.6993 134.451 66.8115 134.492 66.9239 134.534C67.097 134.599 67.2655 134.663 67.4384 134.731C67.5768 134.785 67.7152 134.838 67.8493 134.899C68.0525 134.978 68.2513 135.066 68.4502 135.153C68.675 135.252 68.8956 135.354 69.1117 135.46C69.3625 135.578 69.6047 135.7 69.8468 135.825C70.3485 136.083 70.8326 136.357 71.3083 136.645C71.5115 136.767 71.7103 136.892 71.9093 137.025C72.16 137.181 72.4022 137.344 72.6399 137.511C72.8519 137.659 73.0637 137.811 73.2712 137.967C73.4874 138.126 73.6951 138.286 73.9027 138.453C78.8231 142.387 81.9103 148.061 81.9103 154.365C81.9103 154.513 81.9103 154.661 81.9061 154.809C81.9017 155.052 81.8931 155.291 81.8757 155.534C81.8715 155.644 81.8627 155.755 81.8541 155.865C81.8325 156.108 81.8109 156.347 81.7807 156.586C81.7028 157.27 81.5861 157.942 81.4348 158.607C81.2704 159.332 81.0629 160.046 80.8165 160.741C80.6218 161.295 80.4014 161.842 80.155 162.374C78.5119 165.978 75.7879 169.099 72.3331 171.431C71.5115 171.985 70.6512 172.494 69.7562 172.954C66.228 174.765 62.1377 175.825 57.7662 175.878C57.6495 175.882 57.5327 175.882 57.4161 175.882C52.915 175.882 48.695 174.815 45.0717 172.954C41.1457 170.941 37.9158 167.994 35.7755 164.459C35.6674 164.276 35.5594 164.094 35.4555 163.912L35.2651 163.562C35.1875 163.426 35.1183 163.289 35.0447 163.148L34.9755 163.012C34.9149 162.89 34.8544 162.769 34.7982 162.643L34.6724 162.374Z" fill="#323657"/>
<path opacity="0.1" d="M74.6728 169.525C84.2053 161.153 84.2053 147.578 74.6728 139.206C65.1402 130.834 49.6849 130.834 40.1523 139.206C30.6198 147.578 30.6198 161.153 40.1523 169.525C49.6849 177.897 65.1402 177.897 74.6728 169.525Z" fill="#B8B8B8"/>
<path opacity="0.3" d="M73.9004 138.452C73.9004 138.452 42.1099 134.991 35.7753 164.459C35.7753 164.459 35.7753 164.459 35.775 164.459C33.9514 161.449 32.918 158.013 32.918 154.366C32.918 142.483 43.8854 132.851 57.4147 132.851C63.7636 132.851 69.5487 134.972 73.9004 138.452Z" fill="#869AC2"/>
<path d="M36.7096 188.403H23.2168V189.106H36.7096V188.403Z" fill="url(#paint1_linear_1172_276)"/>
<path d="M25.0257 222.929H26.208L26.208 190.937H25.0257L25.0257 222.929Z" fill="#706865"/>
<path d="M43.9765 188.203H34.5977V189.208H43.9765V188.203Z" fill="#CCBDB7"/>
<path d="M41.0633 179.632H37.5117V189.106H41.0633V179.632Z" fill="#FFAB55"/>
<path d="M70.3409 189.118H18.377V190.937H70.3409V189.118Z" fill="#B59074"/>
<path d="M8.40355 178.108C8.40355 178.108 7.83517 185.108 9.39244 185.946C10.3681 186.47 14.2578 188.241 14.1424 188.572C14.027 188.904 11.9462 191.526 11.9462 191.526C11.9462 191.526 4.47468 187.205 4.23384 185.843C3.99855 184.513 4.60167 175.593 5.62837 175.183C6.39759 174.875 6.80366 175.129 7.77299 175.762C9.13351 176.649 8.40355 178.108 8.40355 178.108Z" fill="#FFC955"/>
<path d="M22.0208 180.106L22.6793 179.892C22.6793 179.892 21.8581 178.199 21.4996 178.24C21.0865 178.288 20.5713 178.408 20.5713 178.408L22.0208 180.106Z" fill="#EAD8CF"/>
<path d="M22.1717 180.399C22.0874 180.343 20.7717 178.127 20.7717 178.127L17.9609 178.462L19.4798 181.088L22.1717 180.399Z" fill="#DA9B5B"/>
<path d="M17.5977 218.561C17.5977 218.561 17.3655 219.977 17.3365 220.19C17.3074 220.403 14.7517 220.064 14.7517 220.064L14.5449 218.378C14.5449 218.378 17.2782 218.361 17.5977 218.561Z" fill="#424773"/>
<path d="M17.3622 220.01C17.3622 220.01 18.1719 220.863 18.955 221.236C19.7381 221.607 20.9687 221.755 21.4318 222.14C21.7661 222.418 22.6493 223.615 19.3968 223.59C16.1445 223.566 14.5762 223.759 14.2277 223.301C13.8793 222.842 14.732 219.914 14.732 219.914C14.732 219.914 15.5022 220.158 17.3622 220.01Z" fill="#292C47"/>
<path d="M33.9693 218.574C33.9693 218.574 33.7369 219.991 33.708 220.204C33.679 220.416 31.1235 220.078 31.1235 220.078L30.9165 218.392C30.9165 218.392 33.6498 218.375 33.9693 218.574Z" fill="#424773"/>
<path d="M33.7357 220.023C33.7357 220.023 34.5453 220.877 35.3286 221.249C36.1117 221.621 38.9935 221.926 39.4565 222.311C39.7908 222.589 40.3468 223.708 35.7704 223.604C32.5191 223.529 30.9497 223.773 30.6013 223.314C30.2527 222.855 31.1054 219.927 31.1054 219.927C31.1054 219.927 31.8312 220.187 33.7357 220.023Z" fill="#292C47"/>
<path d="M9.35389 194.094C9.35389 194.094 18.6447 195.475 20.7432 195.765C22.8415 196.054 34.2196 198.541 35.6426 199.298C36.7753 199.901 35.0485 214.387 34.6452 219.914H30.1637L29.8388 203.335C24.4608 203.454 20.6233 202.231 16.7072 202.753C12.791 203.275 9.52612 204.018 7.03761 201.086C7.03761 201.086 6.94521 194.735 9.35389 194.094Z" fill="#292C47"/>
<path d="M18.512 219.928L14.1447 219.69L13.7189 203.336C11.4038 203.386 10.6102 203.258 8.73661 203.058L5.21045 195.859C8.30077 196.402 18.2021 198.595 19.5224 199.299C20.655 199.902 18.9153 214.401 18.512 219.928Z" fill="#292C47"/>
<path d="M13.631 163.507C13.631 163.507 17.0369 162.681 18.3362 165.003C19.6356 167.325 19.0465 171.727 17.3299 172.142C15.6134 172.556 13.1451 172.079 12.4325 170.633C11.7199 169.188 11.1515 167.134 11.322 165.804C11.4926 164.475 12.7264 163.825 13.631 163.507Z" fill="#EEA886"/>
<path d="M16.4401 171.678C16.4401 171.678 16.4027 173.444 16.6244 173.821C16.846 174.197 11.8818 174.103 11.8818 174.103C11.8818 174.103 12.6642 171.982 12.2203 170.175C11.781 168.387 16.4401 171.678 16.4401 171.678Z" fill="#EEA886"/>
<path d="M11.9519 169.506C11.9519 169.506 12.2173 169.98 13.5023 169.904C14.7874 169.827 16.482 168.466 17.0276 168.344C17.5731 168.222 17.6056 167.95 17.6056 167.95L17.8942 168.401L18.4532 168.475C18.4532 168.475 18.0733 167.111 18.9009 166.63C19.7285 166.15 18.5283 162.28 14.3383 163.213C14.3383 163.213 11.1405 163.728 11.0976 165.296C11.0545 166.864 11.3311 168.676 11.9519 169.506Z" fill="#3A3F47"/>
<path d="M16.8854 173.775C16.8854 173.775 16.8715 173.056 16.5002 172.987C16.129 172.918 12.5979 172.491 12.1422 172.649L11.9468 173.598C11.9468 173.598 12.8247 174.073 16.8854 173.775Z" fill="#E2D2CA"/>
<path d="M17.9064 167.628C17.8111 167.038 17.0479 166.361 16.6109 167.279C16.1737 168.198 16.906 169.535 17.3963 169.463C17.8866 169.392 18.0356 168.428 17.9064 167.628Z" fill="#EEA886"/>
<path d="M31.6749 182.274C31.673 182.274 31.6711 182.273 31.6685 182.274C31.6952 182.282 31.699 182.283 31.6749 182.274Z" fill="#323657"/>
<path d="M12.6373 163.929C12.6373 163.929 8.48465 163.757 11.9126 169.451L12.6373 163.929Z" fill="#3A3F47"/>
<path d="M3.38477 221.867L3.69377 222.631L16.7462 219.079L16.1206 217.533L3.38477 221.867Z" fill="#918783"/>
<path d="M17.193 206.072H15.7095V218.535H17.193V206.072Z" fill="#918783"/>
<path d="M20.8263 205.409H12.0762V206.143H20.8263V205.409Z" fill="#5E5854"/>
<path d="M29.6332 221.868L29.3244 222.631L16.272 219.079L16.8455 217.436L29.6332 221.868Z" fill="#918783"/>
<path d="M20.437 222.549V223.437L16.272 219.079L16.8455 217.436L20.437 222.549Z" fill="#918783"/>
<path d="M30.8537 222.929C30.8537 223.52 30.3075 224 29.6339 224C28.9603 224 28.4141 223.52 28.4141 222.929C28.4141 222.337 28.9603 221.857 29.6339 221.857C30.3075 221.857 30.8537 222.337 30.8537 222.929Z" fill="#BFB2AC"/>
<path d="M20.5412 222.929C20.5412 223.52 19.995 224 19.3214 224C18.6476 224 18.1016 223.52 18.1016 222.929C18.1016 222.337 18.6478 221.857 19.3214 221.857C19.995 221.857 20.5412 222.337 20.5412 222.929Z" fill="#BFB2AC"/>
<path d="M4.60368 222.929C4.60368 223.52 4.05749 224 3.38387 224C2.71011 224 2.16406 223.52 2.16406 222.929C2.16406 222.337 2.71025 221.857 3.38387 221.857C4.05763 221.857 4.60368 222.337 4.60368 222.929Z" fill="#BFB2AC"/>
<path d="M25.3106 205.409H7.70808C6.84456 205.409 6.14453 204.794 6.14453 204.036V204C6.14453 203.242 6.84456 202.627 7.70808 202.627H25.3104C26.1741 202.627 26.874 203.242 26.874 204V204.036C26.8741 204.794 26.1741 205.409 25.3106 205.409Z" fill="#E2D2CA"/>
<path d="M63.6921 190.937H62.5098V222.929H63.6921V190.937Z" fill="#706865"/>
<path d="M53.0616 184.196H25.514C24.6525 184.196 23.9541 183.583 23.9541 182.826V166.565C23.9541 165.808 24.6524 165.195 25.514 165.195H53.0616C53.9231 165.195 54.6214 165.808 54.6214 166.565V182.826C54.6215 183.583 53.9231 184.196 53.0616 184.196Z" fill="url(#paint2_linear_1172_276)"/>
<path d="M53.4195 166.221H25.1543V181.218H53.4195V166.221Z" fill="#F5F7FF"/>
<path d="M53.4195 166.221H25.1543V167.415H53.4195V166.221Z" fill="#CECFD6"/>
<path d="M31.6498 169.423H26.476C26.188 169.423 25.9546 169.218 25.9546 168.965V168.771C25.9546 168.518 26.1881 168.313 26.476 168.313H31.6498C31.9377 168.313 32.1711 168.518 32.1711 168.771V168.965C32.1713 169.218 31.9377 169.423 31.6498 169.423Z" fill="#CECFD6"/>
<path d="M31.0944 180.601H27.0315C26.4367 180.601 25.9546 180.177 25.9546 179.655V171.113C25.9546 170.59 26.4367 170.167 27.0315 170.167H31.0944C31.689 170.167 32.1713 170.59 32.1713 171.113V179.655C32.1713 180.177 31.689 180.601 31.0944 180.601Z" fill="#CECFD6"/>
<path d="M45.6364 189.142V188.804C45.6364 188.804 45.0951 186.701 41.2667 186.701C37.4384 186.701 37.5157 189.142 37.5157 189.142H45.6364Z" fill="#2E436E"/>
<path d="M37.47 187.013C37.47 187.013 38.3017 186.957 38.6064 186.795C38.9112 186.634 40.7341 185.557 41.1624 185.729C41.5906 185.902 44.4403 186.668 44.3413 187.034C44.2423 187.4 43.9787 187.365 43.7777 187.3C43.5767 187.236 41.5074 186.854 41.3248 186.918C41.3248 186.918 43.3574 187.57 43.3655 188.045C43.3737 188.52 42.9402 188.636 42.7475 188.815C42.5547 188.995 42.3234 189.441 41.7995 189.476C41.2757 189.51 38.7199 188.729 38.1937 188.693C37.6675 188.657 36.6937 188.722 36.6275 188.646C36.5612 188.571 37.47 187.013 37.47 187.013Z" fill="#EEA886"/>
<path d="M22.3287 174.772C19.6768 174.363 16.8857 173.775 16.8857 173.775L11.9471 173.598C11.9471 173.598 7.41454 174.475 5.62942 175.183C5.4601 175.25 5.45937 178.734 4.99463 179.648L6.47469 182.39C6.47469 182.39 7.32959 187.822 7.50693 190.238C7.58838 191.347 7.27661 200.956 7.27661 200.956C7.27661 200.956 7.72033 201.149 11.0909 201.475C14.4615 201.801 22.8832 201.357 22.9362 201.008C22.9895 200.658 21.3052 187.988 21.2306 187.332C21.1162 186.325 21.5618 181.672 21.5618 181.672C22.1967 182.421 23.8158 185.804 25.5032 187.414C26.4961 188.361 31.4112 188.942 32.3376 188.969C34.3542 189.028 38.0335 189.381 38.1411 189.208C38.2269 189.105 38.4616 186.34 38.231 186.273C38.0291 186.214 31.1974 185.868 29.4471 185.052C28.8068 184.754 26.8925 181.088 26.8925 181.088C26.8925 181.088 23.7915 175.35 22.3287 174.772Z" fill="#FFC955"/>
<path d="M12.5955 200.679H4.30455C2.64641 200.679 1.30225 199.498 1.30225 198.042V185.926C1.30225 184.47 2.64641 183.289 4.30455 183.289H12.5955C14.2536 183.289 15.5978 184.47 15.5978 185.926V198.042C15.5978 199.498 14.2536 200.679 12.5955 200.679Z" fill="#E2D2CA"/>
<path d="M13.0637 204.716C10.9564 204.716 9.24706 204.095 7.98244 202.869C5.12464 200.098 5.63814 195.227 5.66149 195.02C5.70484 194.636 6.095 194.356 6.53143 194.394C6.96844 194.432 7.28751 194.774 7.24445 195.158C7.23832 195.213 6.78292 199.629 9.16445 201.934C10.1277 202.866 11.4032 203.319 13.0635 203.319C13.5029 203.319 13.8589 203.632 13.8589 204.018C13.859 204.404 13.5029 204.716 13.0637 204.716Z" fill="#E2D2CA"/>
<path d="M33.4248 173.72C33.4248 174.982 33.9412 176.137 34.7986 177.032C34.9992 177.242 35.2182 177.437 35.4537 177.615C35.5208 177.666 35.5896 177.716 35.6595 177.764C35.7385 177.819 35.819 177.872 35.9009 177.923C36.6725 178.404 37.5821 178.724 38.5669 178.83C38.7403 178.849 38.9163 178.861 39.0943 178.866C39.1581 178.868 39.2221 178.868 39.2867 178.868C39.4764 178.868 39.664 178.86 39.8489 178.845C40.0556 178.828 40.2592 178.801 40.4589 178.765C41.3469 178.607 42.1621 178.272 42.855 177.805C43.0642 177.664 43.2616 177.511 43.4469 177.347C43.4829 177.315 43.5185 177.283 43.5533 177.25C43.6846 177.128 43.8087 177.001 43.9255 176.868C44.6925 175.998 45.1488 174.906 45.1488 173.72C45.1488 170.876 42.5242 168.571 39.2867 168.571C36.0494 168.571 33.4248 170.876 33.4248 173.72Z" fill="#EEF0F7"/>
<path d="M35.4692 176.561L35.9016 177.923C36.6731 178.403 37.5828 178.724 38.5676 178.83C38.741 178.848 38.917 178.86 39.0949 178.865C39.1587 178.867 39.2228 178.868 39.2873 178.868C39.4771 178.868 39.6646 178.86 39.8496 178.845C40.0563 178.827 40.2599 178.801 40.4596 178.765C41.3476 178.607 42.1628 178.272 42.8557 177.805C42.9386 177.354 43.0275 176.856 43.1058 176.389C42.675 176.248 41.3036 175.839 40.4384 175.582C40.4263 175.578 40.4142 175.575 40.4023 175.571C40.3832 175.565 40.3645 175.56 40.346 175.554C40.2949 175.539 40.2459 175.525 40.1993 175.511C40.1517 175.497 40.1068 175.483 40.0647 175.471C39.8874 175.418 39.7624 175.382 39.7176 175.368C39.7173 175.368 39.7173 175.368 39.717 175.368C39.7055 175.365 39.6994 175.363 39.6994 175.363L39.6895 175.363L38.5257 175.44L38.3305 175.453L38.2698 175.457C38.2698 175.457 38.2606 175.459 38.2431 175.463C38.1729 175.478 37.969 175.525 37.699 175.598C37.6987 175.598 37.6981 175.598 37.6978 175.598C37.0089 175.783 35.8906 176.135 35.4692 176.561Z" fill="#D9C7C1"/>
<path d="M38.9828 171.163C38.9828 171.163 37.5873 171.37 37.8239 173.289C38.0606 175.208 39.2926 175.039 39.375 175.036C39.4575 175.034 40.6141 175.059 40.6751 172.713C40.6751 172.713 40.6929 170.978 38.9828 171.163Z" fill="#EEA987"/>
<path d="M38.3711 174.48C38.3711 174.48 38.4193 175.27 38.3343 175.442C38.2494 175.614 39.455 176.158 40.2041 175.538C40.2041 175.538 40.0526 174.675 40.0997 174.37C40.1467 174.065 38.3711 174.48 38.3711 174.48Z" fill="#EEA987"/>
<path d="M37.7948 172.747C37.7948 172.747 37.64 172.605 37.5857 172.75C37.5312 172.896 37.8331 173.543 37.8143 173.572C37.8143 173.572 37.8429 173.629 37.8792 173.597C37.9156 173.566 37.7948 172.747 37.7948 172.747Z" fill="#EEA987"/>
<path d="M40.6593 172.695C40.6593 172.695 40.8074 172.548 40.8686 172.691C40.9296 172.835 40.7066 173.481 40.6787 173.521C40.6787 173.521 40.6305 173.587 40.5927 173.557C40.5549 173.527 40.6593 172.695 40.6593 172.695Z" fill="#EEA987"/>
<path d="M37.7062 172.584C37.7544 172.846 37.7998 173.041 37.7998 173.041L38.0029 173.274C38.0029 173.274 37.991 172.759 38.0219 172.678C38.0336 172.648 38.0475 172.593 38.0616 172.534C38.085 172.437 38.1088 172.328 38.1253 172.291C38.1514 172.233 39.3214 171.933 40.3634 172.354C40.3634 172.354 40.3547 172.434 40.3551 172.522C40.3554 172.625 40.3684 172.74 40.4221 172.757C40.5221 172.789 40.4802 173.36 40.4802 173.36L40.6427 173.196C40.6427 173.196 40.6897 172.898 40.7359 172.555C40.7359 172.555 40.7362 172.554 40.7364 172.552C40.7469 172.472 40.7575 172.39 40.7676 172.309C40.791 171.964 40.752 171.338 40.2411 170.97C39.8964 170.841 39.3455 170.731 38.4277 170.977C38.4277 170.977 38.2172 170.99 38.1582 171.039C37.5867 171.592 37.7062 172.584 37.7062 172.584Z" fill="#E8734D"/>
<path d="M40.0039 174.78C40.0039 174.78 39.7811 175.051 39.2636 175.041C38.7461 175.031 38.5215 174.794 38.5215 174.794C38.5215 174.794 38.7666 175.244 39.2662 175.239C39.7657 175.234 40.0039 174.78 40.0039 174.78Z" fill="#C78D71"/>
<path d="M40.347 175.554C40.347 175.554 39.9729 176.126 39.2633 176.18C38.8132 176.214 38.4235 175.713 38.2407 175.467C38.2407 175.467 39.2489 175.088 40.347 175.554Z" fill="#EEA987"/>
<path d="M38.3702 175.287C38.3702 175.287 38.6555 175.615 39.2633 175.966L38.8853 176.478L38.2407 175.468L38.3702 175.287Z" fill="#EDDAD3"/>
<path d="M40.1757 175.363C40.1757 175.363 39.8127 175.762 39.2627 175.966L39.6775 176.493L40.4027 175.571L40.1757 175.363Z" fill="#EDDAD3"/>
<path d="M39.2624 175.966L38.9385 176.399C38.9385 176.399 39.2786 176.568 39.5949 176.388L39.2624 175.966Z" fill="#5073AB"/>
<path d="M35.0952 176.48C35.0952 176.48 35.0983 176.49 35.1043 176.509C35.14 176.62 35.2766 177.047 35.4546 177.615C35.5217 177.666 35.5905 177.716 35.6604 177.764C35.7393 177.819 35.8199 177.872 35.9018 177.923C36.6734 178.404 37.583 178.724 38.5678 178.83C38.481 177.048 38.2401 175.467 38.2401 175.467C38.0501 175.511 37.8697 175.555 37.6993 175.598C37.699 175.598 37.6985 175.598 37.6982 175.598C36.2107 175.973 35.4563 176.302 35.1991 176.427C35.1969 176.428 35.1952 176.429 35.1933 176.43C35.1265 176.462 35.0952 176.48 35.0952 176.48Z" fill="#323657"/>
<path d="M40.4603 178.765C41.3483 178.607 42.1635 178.272 42.8564 177.805C43.0656 177.664 43.263 177.511 43.4483 177.347C43.4843 177.315 43.5199 177.283 43.5547 177.25C43.6573 176.867 43.7256 176.618 43.7298 176.601L43.7301 176.601C43.7301 176.601 43.0048 176.182 40.439 175.581V175.582C40.4391 175.634 40.4377 177.079 40.4603 178.765Z" fill="#323657"/>
<path d="M39.0771 176.447C39.101 176.916 39.1035 177.827 39.0953 178.866C39.1591 178.868 39.2232 178.868 39.2877 178.868C39.4775 178.868 39.665 178.861 39.8499 178.845C39.7371 177.564 39.5471 176.762 39.4605 176.445C39.4321 176.341 39.4148 176.29 39.4148 176.29L39.0708 176.34C39.0731 176.372 39.0752 176.408 39.0771 176.447Z" fill="#5073AB"/>
<path d="M34.7998 177.032C35.0004 177.242 35.2195 177.437 35.4549 177.615C35.522 177.666 35.5908 177.716 35.6607 177.765L35.1996 176.427L35.1993 176.427C35.1974 176.428 35.1957 176.428 35.1938 176.43C35.1656 176.446 35.136 176.472 35.1046 176.509C35.0139 176.613 34.9106 176.795 34.7998 177.032Z" fill="#323657"/>
<path d="M43.4482 177.347C43.4843 177.315 43.5199 177.283 43.5546 177.25C43.686 177.128 43.8101 177.001 43.9269 176.868C43.8606 176.729 43.7946 176.635 43.7302 176.601L43.7299 176.601L43.4482 177.347Z" fill="#323657"/>
<defs>
<linearGradient id="paint0_linear_1172_276" x1="5.8385e-05" y1="106.059" x2="211" y2="106.059" gradientUnits="userSpaceOnUse">
<stop stop-color="#9A5CFF"/>
<stop offset="0.9948" stop-color="#4059BF"/>
</linearGradient>
<linearGradient id="paint1_linear_1172_276" x1="23.2168" y1="188.754" x2="36.7095" y2="188.754" gradientUnits="userSpaceOnUse">
<stop stop-color="#FF9F55"/>
<stop offset="1" stop-color="#FFD255"/>
</linearGradient>
<linearGradient id="paint2_linear_1172_276" x1="23.9541" y1="174.695" x2="54.6215" y2="174.695" gradientUnits="userSpaceOnUse">
<stop stop-color="#FF9F55"/>
<stop offset="1" stop-color="#FFD255"/>
</linearGradient>
</defs>
</svg>
