<svg width="268" height="262" viewBox="0 0 268 262" fill="none" xmlns="http://www.w3.org/2000/svg">
<rect width="268" height="262" rx="30" fill="#FFB689" fill-opacity="0.56"/>
<path d="M186.301 159.076L150.152 137.746C147.15 135.954 142.294 135.952 139.308 137.746L138.377 138.306L137.83 138.635C134.843 140.429 134.859 143.339 137.861 145.132L174.011 166.462C177.017 168.256 181.875 168.256 184.861 166.462L186.34 165.573C189.326 163.778 189.307 160.871 186.301 159.076Z" fill="#CCCCC9"/>
<path d="M187.417 84.2588C187.415 84.2149 187.413 84.1704 187.411 84.1256L187.406 84.0652L187.404 84.0388L187.4 83.9917C187.396 83.9468 187.391 83.9016 187.386 83.8567C187.38 83.8106 187.374 83.7644 187.367 83.7182L187.366 83.7146L187.365 83.7096C187.359 83.6664 187.352 83.6229 187.343 83.579C187.335 83.5312 187.325 83.4834 187.316 83.4352L187.304 83.3848L187.297 83.3548L187.283 83.2911C187.271 83.2423 187.259 83.1938 187.246 83.1453C187.236 83.1097 187.226 83.0747 187.216 83.0391L187.21 83.019L187.205 82.9995C187.19 82.9524 187.176 82.9045 187.16 82.857C187.145 82.8105 187.13 82.7637 187.113 82.7172L187.104 82.6918L187.096 82.67L187.064 82.5823C187.048 82.5375 187.03 82.4929 187.012 82.4484C186.999 82.4167 186.986 82.3851 186.973 82.3534L186.965 82.3356L186.958 82.3168C186.938 82.2719 186.919 82.2274 186.899 82.1835C186.877 82.1347 186.854 82.0869 186.831 82.0388L186.82 82.0173L186.806 81.9893C186.787 81.9504 186.768 81.9121 186.749 81.8738C186.724 81.8264 186.698 81.7799 186.672 81.733L186.633 81.6601L186.618 81.6321C186.594 81.5912 186.569 81.5519 186.545 81.5114C186.509 81.4523 186.474 81.393 186.437 81.3349L186.42 81.3065C186.366 81.2228 186.31 81.1406 186.253 81.0602L186.251 81.0582C186.213 81.0038 186.173 80.9503 186.133 80.8979C186.101 80.8547 186.067 80.8125 186.034 80.7706L186.032 80.7686L186.03 80.7666C185.997 80.7247 185.962 80.6832 185.928 80.6423C185.894 80.602 185.859 80.5625 185.824 80.5232L185.807 80.5047L185.788 80.4846L185.715 80.4055C185.678 80.3666 185.641 80.3286 185.603 80.2907L185.568 80.2567L185.541 80.2313L185.486 80.1779C185.447 80.1416 185.407 80.1063 185.368 80.0714L185.315 80.0265L185.288 80.0041L185.249 79.9711C185.21 79.9397 185.171 79.9088 185.132 79.8791C185.104 79.8573 185.075 79.8365 185.046 79.8161L185.03 79.8045L185.016 79.794C184.978 79.7673 184.941 79.7415 184.903 79.7165C184.866 79.6917 184.828 79.6683 184.79 79.6449L184.764 79.6291L146.197 56.6044L146.112 56.5552C146.076 56.5348 146.039 56.5153 146.003 56.4972L145.933 56.4625L145.916 56.4546L145.895 56.4447C145.86 56.4279 145.825 56.4124 145.789 56.3979C145.753 56.3827 145.717 56.3689 145.681 56.356L145.664 56.3497L145.647 56.3441L145.575 56.3197C145.538 56.3082 145.501 56.2976 145.465 56.2884L145.413 56.2765L145.39 56.2712L145.356 56.2633C145.316 56.2554 145.278 56.2488 145.239 56.2435L145.169 56.2363L145.144 56.2336L145.121 56.231C145.079 56.228 145.037 56.2264 144.996 56.2267L144.942 56.2293L144.9 56.2313L144.858 56.2336C144.805 56.2386 144.754 56.2462 144.704 56.2564L144.701 56.2574L144.669 56.2663C144.617 56.2785 144.566 56.2913 144.518 56.3095L144.506 56.3151C144.435 56.3418 144.367 56.3738 144.302 56.4127L140.817 58.5068C140.881 58.4679 140.95 58.4359 141.021 58.4095C141.074 58.3894 141.128 58.3739 141.184 58.3607L141.216 58.3518C141.28 58.3382 141.347 58.33 141.415 58.3257L141.457 58.3237C141.523 58.3211 141.59 58.3218 141.659 58.3277L141.684 58.3303C141.756 58.3376 141.829 58.3491 141.905 58.3656L141.928 58.3706C142.004 58.3884 142.082 58.4108 142.162 58.4382L142.178 58.4441C142.261 58.4735 142.345 58.5081 142.431 58.5487L142.448 58.5569C142.535 58.5988 142.623 58.6453 142.712 58.6987L181.279 81.7234C181.369 81.7772 181.458 81.8363 181.546 81.8986L181.561 81.9101C181.643 81.9692 181.723 82.0325 181.803 82.0988L181.829 82.1209C181.907 82.1859 181.982 82.2541 182.056 82.3254L182.083 82.3511C182.158 82.4243 182.231 82.5002 182.304 82.5793L182.322 82.5988C182.399 82.6839 182.474 82.772 182.547 82.8627L182.549 82.865C182.624 82.958 182.696 83.054 182.766 83.1526L182.768 83.1545C182.832 83.2439 182.892 83.336 182.952 83.4293C182.989 83.487 183.024 83.5461 183.059 83.6051C183.089 83.6549 183.119 83.7044 183.148 83.7548L183.187 83.8267C183.233 83.9118 183.279 83.9973 183.321 84.084L183.335 84.111C183.386 84.2166 183.435 84.3231 183.48 84.4303L183.488 84.4471C183.532 84.5524 183.573 84.6582 183.611 84.7651L183.619 84.7855C183.658 84.8944 183.693 85.0039 183.725 85.1134L183.73 85.1332C183.761 85.2384 183.788 85.3439 183.812 85.4491L183.819 85.4791C183.843 85.588 183.863 85.6962 183.88 85.804L183.881 85.809C183.898 85.9178 183.91 86.0257 183.919 86.1329L183.921 86.1592C183.929 86.2664 183.934 86.373 183.933 86.4775L183.728 161.567C183.727 161.672 183.722 161.772 183.713 161.869L183.711 161.895C183.702 161.985 183.69 162.07 183.675 162.152L183.668 162.185C183.652 162.265 183.633 162.341 183.611 162.414L183.598 162.455C183.576 162.523 183.551 162.588 183.524 162.65L183.515 162.673C183.483 162.743 183.447 162.811 183.408 162.873L183.392 162.897C183.359 162.947 183.325 162.993 183.289 163.038L183.248 163.085C183.216 163.12 183.183 163.153 183.148 163.184L183.105 163.223C183.055 163.264 183.005 163.301 182.951 163.334L186.436 161.239C186.49 161.207 186.541 161.169 186.59 161.129L186.633 161.09C186.667 161.059 186.701 161.025 186.733 160.99L186.774 160.944C186.81 160.899 186.845 160.852 186.878 160.802L186.893 160.779L186.897 160.774C186.933 160.715 186.967 160.652 186.998 160.585L187 160.578L187.009 160.556C187.027 160.515 187.045 160.473 187.061 160.429L187.083 160.36L187.096 160.32L187.108 160.284C187.121 160.238 187.132 160.191 187.143 160.143L187.153 160.091L187.16 160.058L187.169 160.009C187.176 159.965 187.183 159.921 187.188 159.877L187.196 159.801L187.198 159.775L187.202 159.744C187.205 159.702 187.208 159.658 187.21 159.614C187.211 159.57 187.212 159.526 187.212 159.481L187.212 159.473L187.418 84.3831C187.419 84.3419 187.418 84.3004 187.417 84.2588Z" fill="#F57615"/>
<path d="M181.279 81.7234L142.712 58.6987C141.242 57.8211 140.045 58.5246 140.04 60.273L139.834 135.362C139.83 137.111 141.019 139.239 142.488 140.117L181.056 163.142C182.527 164.02 183.723 163.315 183.727 161.567L183.933 86.4775C183.938 84.7295 182.75 82.6018 181.279 81.7234Z" fill="#B54E1F"/>
<path d="M181.271 83.992L142.704 60.9666C142.396 60.7833 142.146 60.9323 142.145 61.2981L142.004 112.733L141.939 127.951C141.938 128.317 142.187 128.762 142.495 128.946L160.146 139.484L181.062 151.97C181.37 152.155 181.622 152.008 181.622 151.642L181.758 110.519L181.828 84.9894C181.829 84.6236 181.579 84.1757 181.271 83.992Z" fill="white"/>
<path d="M156.856 86.1484L177.808 98.6563C178.393 99.0053 178.869 98.7246 178.871 98.0287C178.873 97.3324 178.399 96.4857 177.815 96.1365L173.248 93.4104L156.863 83.6282C156.279 83.2792 155.802 83.5589 155.8 84.2552C155.798 84.9511 156.272 85.7991 156.856 86.1484Z" fill="#78D2D7"/>
<path d="M156.845 90.3021L177.797 102.81C178.381 103.159 178.858 102.879 178.86 102.182C178.862 101.486 178.388 100.639 177.804 100.291L156.852 87.7823C156.268 87.4333 155.791 87.7127 155.789 88.4089C155.787 89.1049 156.26 89.9528 156.845 90.3021Z" fill="#78D2D7"/>
<path d="M156.824 98.0554L177.776 110.563C178.36 110.913 178.837 110.633 178.839 109.937C178.841 109.241 178.367 108.392 177.783 108.043L156.831 95.5355C156.247 95.1862 155.77 95.4673 155.768 96.1629V96.1632C155.766 96.8594 156.24 97.7061 156.824 98.0554Z" fill="#78D2D7"/>
<path d="M156.813 102.209L177.764 114.717C178.348 115.066 178.825 114.787 178.827 114.091C178.829 113.394 178.355 112.546 177.771 112.198L156.819 99.6893C156.235 99.34 155.758 99.621 155.756 100.317C155.754 101.013 156.228 101.86 156.813 102.209Z" fill="#78D2D7"/>
<path d="M177.749 119.952L156.798 107.443C156.213 107.095 155.737 107.375 155.735 108.07C155.733 108.766 156.206 109.614 156.791 109.963L177.743 122.472C178.327 122.821 178.804 122.54 178.806 121.844C178.808 121.149 178.334 120.301 177.749 119.952Z" fill="#78D2D7"/>
<path d="M177.738 124.106L156.787 111.597C156.203 111.248 155.726 111.529 155.724 112.224C155.722 112.92 156.196 113.768 156.78 114.117L177.732 126.625C178.316 126.974 178.793 126.694 178.795 125.997C178.797 125.303 178.323 124.455 177.738 124.106Z" fill="#78D2D7"/>
<path d="M156.758 121.872L177.709 134.379C178.294 134.729 178.771 134.448 178.773 133.752C178.775 133.056 178.301 132.208 177.716 131.859L156.765 119.35C156.18 119.001 155.704 119.282 155.702 119.978C155.7 120.674 156.173 121.522 156.758 121.872Z" fill="#78D2D7"/>
<path d="M178.762 137.906C178.764 137.209 178.29 136.361 177.706 136.012L156.754 123.504C156.169 123.155 155.693 123.436 155.691 124.132C155.689 124.828 156.163 125.676 156.747 126.025L174.06 136.361L177.699 138.533C178.283 138.883 178.76 138.602 178.762 137.906Z" fill="#78D2D7"/>
<path d="M150.653 81.9666L148.017 83.5201C147.979 83.5544 147.926 83.5508 147.859 83.5109C147.793 83.471 147.74 83.4119 147.703 83.3328L146.223 80.681C146.175 80.6077 146.151 80.5309 146.152 80.4517C146.152 80.3723 146.176 80.3254 146.224 80.3079L146.539 80.1058C146.587 80.0777 146.642 80.0813 146.703 80.1186C146.765 80.1552 146.82 80.2166 146.867 80.3017L147.864 82.0857L150.012 80.8195C150.06 80.7915 150.115 80.7951 150.177 80.8324C150.239 80.869 150.294 80.931 150.341 81.0154L150.654 81.5939C150.701 81.6668 150.725 81.7433 150.724 81.8228C150.724 81.902 150.701 81.9498 150.653 81.9666ZM151.506 81.269C151.189 80.4339 150.759 79.6651 150.218 78.9623C149.677 78.2597 149.086 77.7172 148.448 77.3365C147.811 76.9559 147.22 76.793 146.676 76.8481C146.133 76.9032 145.701 77.1575 145.38 77.612C145.06 78.0661 144.898 78.672 144.896 79.4309C144.894 80.1889 145.052 80.9851 145.369 81.8202C145.686 82.655 146.115 83.4238 146.657 84.1266C147.198 84.8295 147.788 85.3714 148.425 85.752C149.063 86.1326 149.654 86.2959 150.198 86.2412C150.742 86.1861 151.174 85.9314 151.494 85.4773C151.815 85.0228 151.977 84.4169 151.978 83.659C151.98 82.9004 151.823 82.1038 151.506 81.269Z" fill="#78D2D7"/>
<path d="M150.653 95.0035L148.017 96.5569C147.98 96.5909 147.927 96.587 147.86 96.5474C147.793 96.5075 147.741 96.4484 147.703 96.3693L146.223 93.7175C146.176 93.6446 146.152 93.5674 146.152 93.4883C146.152 93.4091 146.177 93.3616 146.224 93.3444L146.539 93.1423C146.587 93.1139 146.642 93.1182 146.704 93.1551C146.766 93.1917 146.82 93.2531 146.867 93.3382L147.864 95.1222L150.013 93.856C150.061 93.8276 150.116 93.8319 150.178 93.8689C150.239 93.9058 150.294 93.9672 150.342 94.0523L150.654 94.6304C150.702 94.7033 150.725 94.7799 150.725 94.8593C150.725 94.9385 150.701 94.986 150.653 95.0035ZM151.507 94.3056C151.19 93.4704 150.76 92.7016 150.219 91.9988C149.677 91.2959 149.087 90.754 148.449 90.3734C147.811 89.9924 147.22 89.8295 146.677 89.8846C146.133 89.9393 145.702 90.1943 145.381 90.6485C145.06 91.1026 144.899 91.7085 144.897 92.4675C144.895 93.2254 145.052 94.0216 145.369 94.8564C145.686 95.6918 146.116 96.4606 146.657 97.1632C147.198 97.866 147.788 98.4079 148.426 98.7885H148.426C149.064 99.1695 149.655 99.3327 150.199 99.2777C150.742 99.2229 151.174 98.968 151.495 98.5138C151.816 98.0593 151.977 97.4534 151.979 96.6958C151.981 95.9372 151.824 95.1407 151.507 94.3056Z" fill="#78D2D7"/>
<path d="M150.654 107.716L148.018 109.269C147.981 109.303 147.928 109.299 147.861 109.26C147.794 109.22 147.742 109.16 147.705 109.082L146.224 106.43C146.177 106.357 146.153 106.28 146.153 106.201C146.154 106.121 146.178 106.074 146.225 106.057L146.54 105.854C146.588 105.826 146.643 105.83 146.705 105.867C146.767 105.904 146.821 105.965 146.868 106.05L147.865 107.835L150.014 106.568C150.062 106.54 150.117 106.544 150.179 106.581C150.24 106.618 150.295 106.679 150.343 106.765L150.656 107.343C150.703 107.416 150.726 107.492 150.726 107.571C150.726 107.651 150.702 107.698 150.654 107.716ZM151.508 107.018C151.191 106.183 150.761 105.414 150.22 104.711C149.678 104.008 149.088 103.466 148.45 103.086C147.812 102.705 147.221 102.542 146.678 102.597C146.134 102.652 145.703 102.907 145.382 103.361C145.061 103.815 144.9 104.421 144.897 105.179V105.18C144.896 105.937 145.053 106.734 145.37 107.569C145.687 108.404 146.117 109.173 146.658 109.875C147.2 110.578 147.789 111.12 148.427 111.501C149.065 111.881 149.656 112.045 150.2 111.99C150.743 111.935 151.175 111.68 151.496 111.226C151.817 110.772 151.978 110.166 151.98 109.408C151.982 108.649 151.825 107.853 151.508 107.018Z" fill="#78D2D7"/>
<path d="M150.655 119.533L148.019 121.087C147.981 121.121 147.929 121.117 147.862 121.077C147.795 121.037 147.743 120.979 147.705 120.9L146.225 118.247C146.178 118.175 146.154 118.098 146.154 118.018C146.154 117.939 146.178 117.892 146.226 117.875L146.541 117.672C146.589 117.644 146.644 117.648 146.706 117.685C146.768 117.722 146.821 117.783 146.869 117.868L147.866 119.652L150.015 118.386C150.062 118.358 150.118 118.362 150.18 118.399C150.241 118.436 150.296 118.497 150.343 118.583L150.656 119.161C150.704 119.234 150.727 119.31 150.727 119.389C150.727 119.468 150.703 119.516 150.655 119.533ZM151.508 118.835C151.191 118.001 150.762 117.232 150.22 116.529C149.679 115.826 149.088 115.284 148.451 114.903C147.813 114.522 147.222 114.36 146.679 114.415C146.135 114.47 145.703 114.724 145.383 115.179C145.062 115.633 144.9 116.239 144.898 116.997V116.998C144.896 117.755 145.054 118.552 145.371 119.387C145.688 120.222 146.117 120.991 146.659 121.693C147.2 122.396 147.79 122.938 148.428 123.318C149.065 123.699 149.657 123.863 150.2 123.808C150.744 123.753 151.176 123.498 151.497 123.044C151.817 122.59 151.978 121.983 151.981 121.226C151.983 120.467 151.825 119.671 151.508 118.835Z" fill="#78D2D7"/>
<path d="M155.14 60.6137L155.097 60.5913L155.04 60.5606L154.995 60.5368L154.925 60.5022L154.874 60.4775L154.853 60.4672C154.806 60.4455 154.759 60.425 154.713 60.4056C154.665 60.3861 154.618 60.3676 154.57 60.3505L154.552 60.3442L154.502 60.3274L154.43 60.303L154.395 60.2924L154.332 60.2753L154.285 60.2614L154.236 60.2499L154.173 60.2357L154.141 60.2281L154.083 60.2185L154.012 60.2064L153.987 60.2021L153.929 60.1958L153.852 60.1879L153.83 60.1856L153.78 60.1836C153.75 60.1823 153.72 60.181 153.69 60.181L153.666 60.18L153.627 60.1816C153.59 60.1829 153.553 60.1843 153.517 60.1872L153.483 60.1889L153.459 60.1925C153.403 60.1984 153.348 60.2067 153.294 60.2172L153.281 60.2192L153.277 60.2202L153.244 60.2281C153.211 60.2357 153.177 60.2439 153.145 60.2535L153.097 60.2687L153.035 60.2891L153.02 60.2954C152.988 60.3073 152.957 60.3211 152.926 60.335L152.882 60.3544C152.837 60.3762 152.793 60.3996 152.75 60.4253L151.766 61.0167C151.809 60.991 151.853 60.9676 151.898 60.9458L151.942 60.9264C151.973 60.9125 152.004 60.899 152.036 60.8868L152.113 60.8604L152.161 60.8449C152.193 60.8353 152.226 60.8271 152.26 60.8195L152.293 60.8116L152.31 60.8086C152.364 60.798 152.419 60.7898 152.475 60.7839L152.532 60.7786C152.569 60.7756 152.606 60.774 152.643 60.773L152.706 60.7723C152.736 60.7723 152.765 60.7736 152.796 60.7753L152.869 60.7792L152.945 60.7872L153.028 60.7977L153.099 60.8099C153.129 60.8152 153.159 60.8208 153.189 60.8271L153.251 60.8413C153.283 60.8492 153.316 60.8574 153.348 60.8667L153.41 60.8841C153.446 60.895 153.482 60.9066 153.518 60.9188L153.568 60.9356C153.674 60.9735 153.781 61.0177 153.89 61.0688L153.94 61.0936C153.979 61.1124 154.017 61.1315 154.056 61.152L154.113 61.1826C154.164 61.2107 154.215 61.2387 154.267 61.2697L157.725 63.3337L158.709 62.7424L155.251 60.6783C155.214 60.6562 155.177 60.6345 155.14 60.6137Z" fill="#F3EF15"/>
<path d="M176.641 77.471L176.64 77.4396L176.637 77.3737L176.633 77.2948L176.629 77.2348L176.623 77.1645L176.62 77.1181C176.617 77.0844 176.613 77.0504 176.609 77.0168L176.603 76.9597L176.601 76.9403C176.593 76.8796 176.585 76.8186 176.576 76.7576L176.575 76.7536L176.57 76.7269C176.563 76.6757 176.554 76.625 176.545 76.5738L176.539 76.5465L176.525 76.4729L176.508 76.3842L176.497 76.3344L176.478 76.2549L176.465 76.1935L176.446 76.12L176.426 76.0402L176.416 76.0009C176.406 75.966 176.396 75.9313 176.386 75.8964L176.367 75.8278L176.361 75.8086C176.343 75.746 176.323 75.6833 176.303 75.6206L176.302 75.6183L176.297 75.6009C176.278 75.5461 176.26 75.4907 176.241 75.4353L176.231 75.4096L176.208 75.3462L176.176 75.2575L176.154 75.2005L176.127 75.1312L176.107 75.0804C176.094 75.0474 176.08 75.0141 176.066 74.9811L176.043 74.926L176.035 74.9066C176.01 74.8475 175.984 74.7888 175.957 74.7305L175.954 74.7235L175.933 74.678C175.912 74.6315 175.89 74.585 175.868 74.5395L175.858 74.5184C175.84 74.4824 175.821 74.4465 175.804 74.4102L175.759 74.3215L175.751 74.3063C175.702 74.212 175.651 74.1183 175.599 74.0256L175.586 74.0019L175.57 73.9758C175.496 73.8462 175.419 73.7185 175.338 73.5935L175.325 73.5728L175.302 73.5388C175.237 73.4392 175.171 73.3409 175.103 73.2446L175.102 73.2439C175.053 73.1753 175.004 73.1077 174.953 73.0411L174.947 73.0325C174.91 72.9847 174.873 72.9379 174.836 72.8917L174.812 72.861L174.811 72.859C174.766 72.8036 174.721 72.7485 174.675 72.6948L174.668 72.6872L174.626 72.6384C174.597 72.6047 174.568 72.5708 174.538 72.5378L174.521 72.52L174.461 72.4547L174.394 72.3821L174.37 72.3567L174.303 72.2884L174.246 72.2304L174.214 72.199L174.141 72.1298L174.092 72.0816L174.052 72.0463L173.979 71.9807L173.935 71.9408L173.888 71.9006L173.816 71.8399L173.779 71.8092L173.719 71.7614L173.652 71.7086L173.625 71.6872L173.543 71.6275L173.487 71.5859L173.472 71.5747C173.423 71.5401 173.373 71.5057 173.323 71.4731L173.322 71.4721L173.311 71.4658C173.266 71.4362 173.22 71.4068 173.174 71.3791L173.14 71.358L169.681 69.2936L169.68 69.2343C169.678 69.1436 169.673 69.0522 169.667 68.9608V68.9592L169.666 68.9437C169.661 68.8576 169.654 68.7712 169.646 68.6844L169.642 68.6462C169.639 68.6129 169.635 68.5792 169.631 68.5453C169.627 68.4984 169.622 68.4519 169.616 68.4051L169.606 68.3292C169.601 68.2906 169.595 68.2514 169.59 68.2125C169.586 68.1821 169.582 68.1521 169.577 68.1221C169.571 68.0832 169.564 68.0439 169.558 68.0047C169.551 67.9654 169.545 67.9265 169.538 67.8873L169.529 67.8322C169.519 67.7758 169.507 67.719 169.495 67.6626C169.489 67.6297 169.483 67.5963 169.476 67.563L169.471 67.5383C169.45 67.439 169.428 67.3394 169.404 67.2395L169.403 67.2378L169.398 67.218C169.376 67.125 169.353 67.0323 169.327 66.9393L169.32 66.9113C169.31 66.8754 169.299 66.8387 169.289 66.8028C169.273 66.748 169.259 66.6936 169.243 66.6389L169.225 66.5828C169.213 66.5429 169.201 66.503 169.188 66.4631C169.176 66.4238 169.164 66.3846 169.152 66.3453C169.142 66.3153 169.131 66.285 169.121 66.2549C169.108 66.215 169.095 66.1745 169.081 66.1342L169.054 66.0561C169.038 66.0089 169.02 65.9624 169.003 65.9156C168.991 65.8822 168.979 65.8489 168.967 65.8156L168.953 65.7774C168.918 65.686 168.883 65.5946 168.846 65.5036L168.846 65.5016L168.839 65.4865C168.805 65.4007 168.769 65.3153 168.733 65.2299L168.715 65.1886C168.7 65.1553 168.686 65.1223 168.671 65.0894C168.652 65.0452 168.633 65.0016 168.613 64.9578L168.577 64.8816C168.556 64.8361 168.535 64.7905 168.513 64.745C168.499 64.7153 168.486 64.6847 168.471 64.6546C168.457 64.624 168.441 64.5936 168.426 64.563C168.401 64.5135 168.377 64.464 168.351 64.4145L168.314 64.34L168.281 64.2786C168.216 64.1536 168.15 64.03 168.081 63.9069L168.055 63.8591L168.045 63.842C167.979 63.7255 167.911 63.6098 167.842 63.495L167.813 63.4485C167.753 63.3499 167.692 63.2522 167.63 63.1556L167.614 63.1309L167.584 63.0867C167.493 62.9478 167.4 62.8113 167.305 62.6767L167.273 62.6292L167.253 62.6021C167.201 62.5292 167.147 62.4577 167.093 62.3861L167.031 62.3014L167.021 62.2878C166.995 62.2548 166.969 62.2225 166.943 62.1895C166.903 62.1381 166.863 62.0856 166.823 62.0349L166.802 62.0104C166.773 61.9745 166.744 61.9395 166.715 61.9042C166.68 61.8624 166.646 61.8195 166.61 61.7779L166.579 61.7416C166.548 61.7057 166.517 61.6711 166.486 61.6358C166.456 61.6015 166.426 61.5665 166.396 61.5322L166.351 61.4837C166.317 61.4468 166.283 61.4098 166.249 61.3735L166.172 61.2898L166.116 61.2324C166.08 61.1954 166.044 61.1588 166.008 61.1219L165.94 61.053L165.875 60.99C165.837 60.9527 165.799 60.9161 165.76 60.8798L165.699 60.8214L165.625 60.7545C165.587 60.7192 165.548 60.6846 165.51 60.6503L165.455 60.6008L165.369 60.5285C165.332 60.4966 165.295 60.4652 165.257 60.4339L165.211 60.395C165.177 60.3669 165.142 60.3405 165.108 60.3132C165.073 60.2858 165.039 60.2581 165.003 60.2314L164.97 60.205C164.924 60.1697 164.878 60.137 164.832 60.1031L164.749 60.0424L164.732 60.0295C164.655 59.9748 164.577 59.922 164.498 59.8702L164.494 59.8669L164.458 59.8448C164.395 59.8033 164.33 59.7624 164.266 59.7231L164.212 59.6905C164.154 59.6558 164.096 59.6222 164.038 59.5895L163.972 59.5542C163.942 59.5381 163.912 59.5219 163.883 59.5068L163.813 59.4691C163.776 59.4503 163.739 59.4332 163.702 59.4151L163.623 59.3768L163.591 59.361C163.517 59.327 163.444 59.2947 163.371 59.2647L163.37 59.2643C163.296 59.234 163.223 59.205 163.15 59.1786L163.121 59.1687L163.043 59.1423C163.005 59.1294 162.968 59.1159 162.93 59.1044L162.875 59.0885C162.843 59.079 162.81 59.0697 162.778 59.0608L162.703 59.0397L162.626 59.0219C162.594 59.0143 162.561 59.0064 162.529 58.9995L162.477 58.9873C162.447 58.9813 162.417 58.9774 162.387 58.9724C162.35 58.9658 162.314 58.9589 162.278 58.9536L162.239 58.9467C162.208 58.9428 162.179 58.9411 162.148 58.9375C162.108 58.9328 162.068 58.9279 162.028 58.9246L161.993 58.921L161.912 58.9183C161.867 58.9164 161.822 58.9141 161.777 58.9137L161.739 58.9124L161.679 58.9154C161.62 58.9164 161.562 58.919 161.505 58.9236L161.454 58.9263L161.381 58.9348L161.328 58.9414C161.263 58.9503 161.2 58.9602 161.137 58.9738L161.13 58.9751L161.079 58.9876C161.027 58.9995 160.975 59.0123 160.925 59.0265L160.851 59.0506C160.82 59.0608 160.787 59.0697 160.756 59.0813L160.731 59.0922C160.681 59.111 160.633 59.1317 160.585 59.1532L160.514 59.1845C160.444 59.2185 160.375 59.2551 160.308 59.2953L159.324 59.8867C159.391 59.8465 159.46 59.8099 159.53 59.7759L159.6 59.7449C159.648 59.7234 159.697 59.702 159.747 59.6835C159.786 59.6687 159.827 59.6552 159.867 59.642L159.94 59.6186C159.991 59.6037 160.043 59.5909 160.095 59.579L160.146 59.5664C160.211 59.5529 160.277 59.542 160.343 59.5328L160.397 59.5262C160.438 59.5213 160.479 59.5183 160.521 59.515C160.578 59.5104 160.636 59.5077 160.695 59.5068C160.727 59.5061 160.76 59.5048 160.793 59.5051C160.838 59.5054 160.883 59.5077 160.928 59.5097C160.967 59.5114 161.005 59.513 161.044 59.5163C161.084 59.5196 161.124 59.5242 161.164 59.5288C161.207 59.5338 161.25 59.5384 161.294 59.545C161.33 59.5503 161.366 59.5572 161.402 59.5638C161.45 59.5721 161.497 59.5806 161.545 59.5909C161.577 59.5978 161.61 59.6057 161.642 59.6133C161.692 59.6252 161.743 59.638 161.794 59.6522C161.826 59.6611 161.858 59.6703 161.891 59.6799C161.946 59.6967 162.002 59.7145 162.059 59.7337L162.137 59.76C162.302 59.8191 162.469 59.8884 162.639 59.9682L162.718 60.0064C162.778 60.0358 162.838 60.0661 162.898 60.0978C162.928 60.1133 162.958 60.1294 162.988 60.1456C163.067 60.1891 163.147 60.234 163.228 60.2818C163.311 60.3316 163.393 60.3834 163.475 60.4365L163.509 60.4583C163.595 60.5147 163.68 60.5734 163.765 60.6338L163.848 60.6948C163.906 60.737 163.963 60.7792 164.019 60.8227C164.055 60.8495 164.089 60.8772 164.123 60.9045C164.174 60.9445 164.224 60.9844 164.273 61.0256C164.311 61.0566 164.348 61.0879 164.385 61.1199C164.432 61.1598 164.479 61.2004 164.526 61.2416C164.564 61.2759 164.603 61.3106 164.641 61.3458C164.686 61.3871 164.731 61.429 164.776 61.4712C164.815 61.5075 164.853 61.5441 164.891 61.5817C164.936 61.6252 164.98 61.6687 165.024 61.7133C165.06 61.7499 165.096 61.7868 165.132 61.8238C165.176 61.8703 165.221 61.9171 165.265 61.9649C165.299 62.0012 165.333 62.0381 165.367 62.0751C165.412 62.1252 165.457 62.176 165.502 62.2271C165.533 62.2624 165.564 62.2971 165.594 62.333C165.64 62.3864 165.685 62.4412 165.731 62.4959C165.76 62.5309 165.789 62.5659 165.818 62.6018C165.866 62.6609 165.913 62.7209 165.959 62.7809C165.985 62.8139 166.011 62.8462 166.037 62.8792C166.061 62.9119 166.085 62.9452 166.109 62.9775C166.163 63.0491 166.216 63.121 166.269 63.1935L166.321 63.2681C166.416 63.4026 166.509 63.5392 166.6 63.678L166.646 63.747C166.707 63.8429 166.768 63.9399 166.828 64.0379L166.858 64.0867C166.927 64.2011 166.995 64.3169 167.061 64.4333L167.097 64.4983C167.165 64.6213 167.232 64.745 167.297 64.87C167.321 64.9152 167.344 64.9607 167.368 65.0059C167.393 65.0554 167.417 65.1049 167.441 65.1547C167.471 65.215 167.501 65.2757 167.529 65.3364C167.551 65.3819 167.572 65.4274 167.593 65.4729C167.625 65.5419 167.656 65.6115 167.687 65.6807C167.701 65.714 167.716 65.7467 167.731 65.78C167.774 65.8799 167.816 65.9799 167.856 66.0798L167.861 66.0927C167.903 66.1976 167.944 66.3021 167.983 66.4077C167.995 66.4403 168.007 66.4736 168.019 66.5066C168.045 66.5795 168.071 66.6527 168.096 66.7259C168.11 66.7659 168.124 66.8064 168.137 66.8463C168.16 66.9159 168.182 66.9849 168.204 67.0544C168.217 67.0944 168.229 67.1343 168.241 67.1742C168.263 67.2474 168.284 67.3209 168.305 67.3942C168.315 67.4304 168.325 67.4667 168.335 67.5027C168.363 67.6049 168.39 67.7072 168.414 67.8094L168.419 67.8292C168.445 67.9377 168.469 68.0462 168.492 68.1547C168.499 68.1877 168.505 68.2204 168.511 68.2534C168.526 68.3286 168.54 68.4034 168.554 68.4786C168.561 68.5179 168.567 68.5571 168.574 68.596C168.585 68.6656 168.596 68.7349 168.606 68.8038C168.611 68.8428 168.617 68.882 168.621 68.9206C168.631 68.9925 168.64 69.0647 168.647 69.1366C168.651 69.1706 168.655 69.2042 168.658 69.2376C168.668 69.3372 168.676 69.4364 168.682 69.5354L168.683 69.5506C168.69 69.6627 168.695 69.7742 168.697 69.885L172.156 71.9494C172.213 71.984 172.271 72.0203 172.328 72.0576L172.337 72.0635C172.393 72.1001 172.448 72.1384 172.502 72.1773L172.559 72.2188C172.595 72.2456 172.631 72.2723 172.668 72.3L172.735 72.3528C172.767 72.3788 172.8 72.4049 172.832 72.4316L172.903 72.4919C172.934 72.5183 172.965 72.545 172.995 72.5721L173.068 72.6377C173.098 72.6651 173.128 72.6931 173.157 72.7212L173.229 72.7908C173.26 72.8201 173.289 72.8501 173.319 72.8798L173.385 72.9481C173.416 72.9801 173.447 73.0131 173.477 73.046L173.537 73.1113C173.573 73.1503 173.607 73.1898 173.642 73.2297L173.684 73.2786C173.733 73.3353 173.781 73.3933 173.828 73.4524L173.852 73.4824C173.891 73.5319 173.93 73.582 173.969 73.6328C174.019 73.6994 174.069 73.7667 174.118 73.8353L174.119 73.836C174.187 73.9323 174.253 74.0306 174.318 74.1302L174.354 74.1849C174.434 74.3099 174.511 74.4376 174.586 74.5672L174.614 74.617C174.667 74.7097 174.717 74.8027 174.767 74.8973C174.784 74.932 174.802 74.9673 174.82 75.0022C174.838 75.0385 174.856 75.0738 174.873 75.1097C174.899 75.1625 174.924 75.2156 174.949 75.2694L174.97 75.3149C175.001 75.3825 175.03 75.4495 175.059 75.5171L175.082 75.5725C175.103 75.6223 175.123 75.6724 175.143 75.7229L175.169 75.7918C175.188 75.8403 175.206 75.8888 175.224 75.9379L175.247 76.0009C175.27 76.0646 175.291 76.1286 175.312 76.1922L175.318 76.2097C175.341 76.2796 175.362 76.3496 175.383 76.4195L175.402 76.4864C175.415 76.5349 175.429 76.5834 175.442 76.6316L175.462 76.7114C175.473 76.7566 175.484 76.8014 175.494 76.8463L175.512 76.9258C175.523 76.9723 175.532 77.0184 175.541 77.0653L175.555 77.1375C175.567 77.1982 175.577 77.2595 175.587 77.3202L175.591 77.3446C175.601 77.4136 175.61 77.4825 175.619 77.5511L175.625 77.6082C175.63 77.6576 175.635 77.7068 175.639 77.7563L175.645 77.8259C175.648 77.8724 175.651 77.9189 175.653 77.965L175.656 78.031C175.658 78.0963 175.66 78.1616 175.66 78.2259L175.644 83.7007L176.629 83.1093L176.644 77.6345C176.644 77.5805 176.643 77.5257 176.641 77.471Z" fill="#F3EF15"/>
<path d="M172.155 71.9494L168.697 69.885C168.619 66.3212 166.204 62.0593 163.228 60.2818C160.251 58.5047 157.822 59.8748 157.724 63.3337L154.266 61.2697C152.325 60.1107 150.746 61.0421 150.74 63.3492L150.725 68.824L175.644 83.7007L175.659 78.2259C175.665 75.9188 174.096 73.1084 172.155 71.9494Z" fill="#F79011"/>
<path d="M105.489 105.106C106.189 104.687 106.758 105.023 106.761 105.855C106.763 106.687 106.197 107.7 105.497 108.118C104.797 108.536 104.226 108.201 104.224 107.369C104.222 106.537 104.788 105.523 105.489 105.106Z" fill="#15161A"/>
<path d="M105.498 108.118C106.198 107.7 106.764 106.687 106.761 105.855C106.759 105.023 106.189 104.687 105.489 105.106C104.789 105.524 104.222 106.537 104.225 107.37C104.227 108.201 104.797 108.536 105.498 108.118ZM105.488 104.493C106.472 103.906 107.273 104.377 107.276 105.547C107.279 106.718 106.483 108.143 105.499 108.73C104.514 109.318 103.714 108.846 103.71 107.676C103.707 106.506 104.503 105.081 105.488 104.493Z" fill="#FBD938"/>
<path d="M106.496 91.1291L106.53 100.413L104.425 101.671L104.39 92.3861L106.496 91.1291Z" fill="#FBD938"/>
<path d="M107.722 83.2931L103.124 86.0372L82.7832 73.8126L83.7889 73.2127L86.368 71.6724L87.3794 71.0682L107.722 83.2931Z" fill="#6388CE"/>
<path d="M105.707 83.2901L104.959 83.7364L103.128 84.8301L83.7896 73.2127L85.621 72.119L86.3687 71.6724L105.707 83.2901Z" fill="#E9E8E7"/>
<path d="M104.959 83.7364L103.128 84.8301L83.7896 73.2127L85.621 72.119L104.959 83.7364Z" fill="white"/>
<path d="M105.499 108.73C106.483 108.143 107.279 106.718 107.276 105.547C107.273 104.377 106.472 103.906 105.488 104.494C104.503 105.081 103.707 106.506 103.71 107.676C103.713 108.847 104.514 109.319 105.499 108.73ZM104.39 92.386L104.425 101.671L106.53 100.413L106.496 91.1291L104.39 92.386ZM103.125 86.0376L107.722 83.2931L107.803 109.36L103.206 112.104L103.125 86.0376Z" fill="#496FBF"/>
<path d="M103.206 112.104L82.8631 99.88L82.7827 73.8133L103.125 86.0376L103.206 112.104Z" fill="#385BAE"/>
<path d="M97.7292 109.919C98.4297 109.501 98.999 109.836 99.0012 110.668C99.0038 111.501 98.4379 112.514 97.7375 112.932C97.0374 113.35 96.4671 113.015 96.4649 112.183C96.4623 111.351 97.0291 110.337 97.7292 109.919Z" fill="#15161A"/>
<path d="M97.7375 112.932C98.438 112.514 99.0038 111.501 99.0013 110.668C98.999 109.836 98.4297 109.501 97.7292 109.919C97.0291 110.337 96.4623 111.351 96.4649 112.183C96.4671 113.015 97.0374 113.35 97.7375 112.932ZM97.7276 109.307C98.7116 108.719 99.5132 109.19 99.5164 110.361C99.5196 111.531 98.7234 112.956 97.7394 113.544C96.7545 114.132 95.9539 113.66 95.9507 112.49C95.9472 111.319 96.7427 109.895 97.7276 109.307Z" fill="#FBD938"/>
<path d="M98.7363 95.9425L98.7708 105.227L96.665 106.484L96.6309 97.1994L98.7363 95.9425Z" fill="#FBD938"/>
<path d="M99.9624 88.1066L95.3646 90.8511L75.0234 78.6258L76.0294 78.0262L78.6082 76.4862L79.62 75.8817L99.9624 88.1066Z" fill="#6388CE"/>
<path d="M97.9469 88.1035L97.1993 88.5494L95.3678 89.6434L76.0298 78.026L77.8609 76.9323L78.6086 76.4861L97.9469 88.1035Z" fill="#E9E8E7"/>
<path d="M97.1993 88.5494L95.3678 89.6434L76.0298 78.026L77.8609 76.9323L97.1993 88.5494Z" fill="white"/>
<path d="M97.7398 113.544C98.7238 112.956 99.5199 111.531 99.5167 110.361C99.5135 109.19 98.712 108.719 97.728 109.307C96.743 109.895 95.9475 111.319 95.951 112.49C95.9542 113.66 96.7548 114.132 97.7398 113.544ZM96.631 97.1994L96.6652 106.484L98.771 105.227L98.7365 95.9424L96.631 97.1994ZM95.3657 90.8509L99.9626 88.1068L100.043 114.173L95.4461 116.918L95.3657 90.8509Z" fill="#496FBF"/>
<path d="M95.4463 116.918L75.1038 104.693L75.0234 78.6266L95.3659 90.8509L95.4463 116.918Z" fill="#385BAE"/>
<path d="M89.9693 114.733C90.6697 114.314 91.2391 114.65 91.2413 115.482C91.2435 116.314 90.6777 117.327 89.9776 117.746C89.2771 118.163 88.7068 117.829 88.7046 116.996C88.7024 116.164 89.2688 115.151 89.9693 114.733Z" fill="#15161A"/>
<path d="M89.9776 117.746C90.6777 117.327 91.2435 116.314 91.2413 115.482C91.2391 114.65 90.6697 114.314 89.9693 114.733C89.2688 115.151 88.7024 116.164 88.7046 116.996C88.7068 117.829 89.2771 118.163 89.9776 117.746ZM89.9677 114.121C90.9517 113.533 91.7532 114.004 91.7564 115.175C91.7596 116.345 90.9632 117.77 89.9792 118.357C88.9942 118.945 88.1936 118.474 88.1904 117.303C88.1872 116.133 88.9827 114.709 89.9677 114.121Z" fill="#FBD938"/>
<path d="M90.9761 100.756L91.0105 110.04L88.9051 111.297L88.8706 102.013L90.9761 100.756Z" fill="#FBD938"/>
<path d="M92.2027 92.92L87.6048 95.6644L67.2637 83.4395L68.2697 82.8395L70.8485 81.2996L71.8599 80.6954L92.2027 92.92Z" fill="#6388CE"/>
<path d="M90.1873 92.9167L89.44 93.3633L87.6085 94.457L68.2705 82.8396L70.1017 81.7456L70.8493 81.2997L90.1873 92.9167Z" fill="#E9E8E7"/>
<path d="M89.44 93.3633L87.6085 94.457L68.2705 82.8396L70.1017 81.7456L89.44 93.3633Z" fill="white"/>
<path d="M89.9792 118.357C90.9632 117.77 91.7596 116.345 91.7564 115.175C91.7532 114.004 90.9517 113.533 89.9677 114.121C88.9827 114.709 88.1873 116.133 88.1904 117.303C88.1936 118.474 88.9942 118.946 89.9792 118.357ZM88.8705 102.013L88.9049 111.297L91.0104 110.04L90.9759 100.756L88.8705 102.013ZM87.6055 95.6648L92.2023 92.92L92.2827 118.987L87.6858 121.731L87.6055 95.6648Z" fill="#496FBF"/>
<path d="M87.686 121.731L67.3436 109.507L67.2632 83.4402L87.6056 95.6649L87.686 121.731Z" fill="#385BAE"/>
<path d="M202.904 190.041C202.63 189.017 203.795 187.682 202.986 186.738C202.869 186.602 202.713 186.481 202.53 186.371C201.489 185.75 199.538 185.493 198.455 184.846C197.372 184.2 196.937 183.032 195.896 182.411C195.713 182.301 195.509 182.209 195.281 182.139C193.706 181.659 191.479 182.359 189.768 182.199C188.043 182.036 186.275 180.96 184.551 181.123C182.843 181.284 181.729 182.629 180.155 183.109C178.64 183.572 176.16 183.316 174.892 184.077C173.626 184.839 174.062 186.323 173.292 187.233C172.497 188.176 170.257 188.848 169.993 189.871C169.726 190.904 171.529 191.96 171.804 192.994C171.844 193.142 171.851 193.297 171.842 193.456L162.789 197.238L164.664 197.771L165.481 198.002L168.466 198.851L168.526 200.357L168.549 200.919L168.6 202.216L176.94 198.731C177.496 199.282 177.907 199.942 178.521 200.417L173.242 204.981L175.408 205.007L176.345 205.019L178.861 205.05L180.287 206.835L180.676 207.324L181.572 208.445L189.161 201.882C189.495 201.927 189.828 201.942 190.159 201.911C191.866 201.749 192.981 200.405 194.553 199.926C196.07 199.462 198.549 199.718 199.816 198.957C201.084 198.196 200.646 196.712 201.416 195.802C202.213 194.858 204.451 194.186 204.717 193.163C204.983 192.129 203.181 191.074 202.904 190.041Z" fill="#CCCCC9"/>
<path d="M182.711 190.966L182.709 192.006L182.263 191.623L182.266 190.584L182.711 190.966Z" fill="#7D351A"/>
<path d="M178.969 187.76L178.966 188.799L164.661 194.776L164.664 193.736L178.969 187.76Z" fill="#C44F1F"/>
<path d="M179.418 188.144L179.415 189.184L165.478 195.007L165.481 193.968L179.418 188.144Z" fill="#C5C3C2"/>
<path d="M182.266 190.584L182.263 191.623L168.523 197.362L168.526 196.323L182.266 190.584Z" fill="#C44F1F"/>
<path d="M168.525 196.323L168.523 197.362L168.463 195.856L168.466 194.817L168.525 196.323Z" fill="#7A3419"/>
<path d="M182.711 190.966L182.708 192.006L168.546 197.923L168.549 196.884L182.711 190.966Z" fill="#C5C3C2"/>
<path d="M178.97 187.76L164.664 193.736L165.481 193.968L179.419 188.144L178.97 187.76Z" fill="white"/>
<path d="M182.265 190.584L168.525 196.323L168.549 196.884L182.711 190.967L182.265 190.584Z" fill="white"/>
<path d="M168.548 196.884L168.545 197.923L168.523 197.362L168.525 196.323L168.548 196.884Z" fill="#7A7B7C"/>
<path d="M164.664 193.736L162.789 193.204L162.786 194.243L164.661 194.776L165.478 195.007L168.463 195.856L168.465 194.817L165.481 193.968L164.664 193.736Z" fill="#B03720"/>
<path d="M168.6 198.182L168.597 199.22L183.745 192.892L183.748 191.853L168.6 198.182Z" fill="#B03720"/>
<path d="M177.936 186.875L162.789 193.204L164.664 193.736L178.969 187.76L177.936 186.875Z" fill="#F36418"/>
<path d="M179.418 188.144L165.481 193.968L168.465 194.817L168.525 196.323L182.266 190.584L182.712 190.966L168.549 196.884L168.6 198.181L183.748 191.853L179.418 188.144Z" fill="#F36418"/>
<path d="M168.599 198.182L168.596 199.22L168.546 197.924L168.549 196.884L168.599 198.182Z" fill="#7A3419"/>
<path d="M185.881 192.736L185.878 193.776L185.238 193.51L185.241 192.47L185.881 192.736Z" fill="#8D3B1C"/>
<path d="M185.242 192.47L185.239 193.51L175.406 202.012L175.409 200.973L185.242 192.47Z" fill="#BF4D1F"/>
<path d="M185.881 192.736L176.345 200.985L175.408 200.973L185.241 192.47L185.881 192.736Z" fill="white"/>
<path d="M185.881 192.736L185.879 193.776L176.342 202.024L176.345 200.985L185.881 192.736Z" fill="#BFBEBC"/>
<path d="M189.964 194.434L189.961 195.473L180.285 203.84L180.287 202.801L189.964 194.434Z" fill="#BF4D1F"/>
<path d="M183.758 191.853L189.964 194.434L180.287 202.801L178.861 201.016L176.345 200.985L185.881 192.736L185.242 192.47L175.408 200.973L173.242 200.947L183.758 191.853Z" fill="#F36418"/>
<path d="M190.608 194.702L180.676 203.289L180.287 202.801L189.964 194.434L190.608 194.702Z" fill="white"/>
<path d="M190.608 194.702L190.605 195.741L180.673 204.329L180.676 203.29L190.608 194.702Z" fill="#BFBEBC"/>
<path d="M192.087 195.317L181.572 204.411L180.676 203.289L190.608 194.702L192.087 195.317Z" fill="#F36418"/>
<path d="M181.572 204.411L180.676 203.289L180.287 202.801L178.86 201.016L176.345 200.985L175.408 200.972L173.242 200.946L173.239 201.985L175.405 202.012L176.342 202.024L178.857 202.055L180.284 203.84L180.673 204.328L181.569 205.45L192.084 196.356L192.087 195.317L181.572 204.411Z" fill="#B03720"/>
<path d="M202.882 186.642C202.891 186.58 202.902 186.517 202.915 186.454C202.93 186.387 202.946 186.32 202.963 186.253C202.971 186.222 202.977 186.192 202.985 186.162C203.01 186.069 203.037 185.976 203.063 185.882C203.092 185.784 203.119 185.686 203.145 185.588L203.167 185.5C203.184 185.431 203.201 185.363 203.215 185.295L203.225 185.25C203.235 185.201 203.241 185.153 203.249 185.104L203.255 185.063C203.264 184.994 203.27 184.925 203.272 184.858L203.273 184.809L203.277 183.532C203.277 183.616 203.27 183.701 203.259 183.786L203.252 183.827C203.243 183.89 203.232 183.954 203.218 184.018C203.204 184.086 203.188 184.155 203.171 184.223L203.149 184.312C203.122 184.41 203.095 184.508 203.067 184.606C203.04 184.699 203.013 184.792 202.989 184.886C202.981 184.916 202.974 184.945 202.967 184.975C202.949 185.043 202.933 185.11 202.919 185.178L202.908 185.223C202.899 185.27 202.893 185.318 202.886 185.365L202.879 185.406C202.87 185.474 202.864 185.542 202.862 185.609L202.861 185.656L202.857 186.932C202.858 186.85 202.864 186.767 202.875 186.683L202.882 186.642Z" fill="#B03720"/>
<path d="M171.844 190.59L171.847 189.313C171.847 189.192 171.835 189.074 171.804 188.96C171.627 188.297 170.823 187.625 170.339 186.957C170.119 186.652 169.965 186.349 169.966 186.047L169.962 187.323C169.959 188.29 171.543 189.272 171.8 190.237C171.831 190.351 171.844 190.469 171.844 190.59Z" fill="#B03720"/>
<path d="M204.716 189.128C204.702 189.182 204.68 189.235 204.656 189.286L204.636 189.33C204.615 189.37 204.587 189.41 204.56 189.45L204.525 189.504L204.493 189.541C204.447 189.599 204.395 189.655 204.339 189.711C204.309 189.74 204.277 189.769 204.245 189.798L204.172 189.862C204.133 189.896 204.09 189.928 204.048 189.961L203.973 190.018C203.923 190.055 203.87 190.091 203.817 190.128L203.756 190.171C203.68 190.221 203.603 190.271 203.524 190.32C203.337 190.436 203.143 190.551 202.947 190.666C202.767 190.771 202.588 190.877 202.414 190.985L202.376 191.008L202.3 191.056C202.266 191.078 202.232 191.1 202.199 191.122C202.152 191.152 202.108 191.183 202.064 191.213C202.033 191.234 202.002 191.255 201.972 191.277C201.927 191.31 201.884 191.342 201.841 191.376L201.764 191.435C201.713 191.476 201.665 191.518 201.619 191.56L201.578 191.596L201.574 191.6C201.516 191.655 201.463 191.711 201.415 191.768L201.36 191.836L201.331 191.881C201.298 191.927 201.268 191.974 201.24 192.023L201.213 192.064L201.202 192.091C201.153 192.183 201.111 192.278 201.074 192.377L201.067 192.395L201.054 192.435C200.979 192.652 200.925 192.88 200.871 193.109C200.845 193.221 200.819 193.334 200.79 193.445L200.773 193.51C200.743 193.621 200.711 193.731 200.672 193.838L200.664 193.857C200.626 193.962 200.581 194.064 200.529 194.163L200.505 194.211C200.462 194.288 200.414 194.364 200.36 194.436L200.323 194.48C200.28 194.533 200.235 194.585 200.185 194.634C200.147 194.672 200.108 194.708 200.065 194.744L200.025 194.778C199.96 194.829 199.891 194.877 199.815 194.923C199.733 194.972 199.645 195.017 199.554 195.058C199.523 195.073 199.489 195.084 199.457 195.097C199.394 195.123 199.332 195.148 199.265 195.171C199.231 195.183 199.195 195.192 199.16 195.203C199.087 195.226 199.013 195.248 198.936 195.268C198.892 195.279 198.847 195.289 198.802 195.3C198.731 195.316 198.658 195.332 198.584 195.346C198.541 195.354 198.497 195.363 198.453 195.37C198.341 195.39 198.227 195.409 198.11 195.424C198.081 195.429 198.053 195.433 198.023 195.437C197.879 195.456 197.733 195.473 197.584 195.489C197.555 195.492 197.525 195.494 197.495 195.497C197.263 195.52 197.029 195.541 196.795 195.561C196.563 195.581 196.333 195.601 196.106 195.624L196.053 195.629L195.991 195.635C195.881 195.647 195.771 195.66 195.663 195.673C195.625 195.678 195.586 195.683 195.548 195.688C195.41 195.707 195.274 195.728 195.142 195.752L195.125 195.755C195.064 195.766 195.005 195.78 194.945 195.793C194.91 195.8 194.874 195.807 194.84 195.815C194.741 195.838 194.645 195.863 194.552 195.892C194.514 195.904 194.475 195.916 194.437 195.929L194.385 195.949C194.25 195.997 194.117 196.048 193.988 196.106L193.984 196.107C193.851 196.167 193.721 196.233 193.592 196.302L193.51 196.345C193.387 196.413 193.265 196.481 193.145 196.553L193.071 196.598C192.958 196.665 192.845 196.734 192.733 196.803C192.607 196.881 192.482 196.957 192.356 197.033L192.271 197.083C192.149 197.156 192.025 197.227 191.9 197.295L191.888 197.302C191.764 197.369 191.639 197.43 191.511 197.489C191.483 197.503 191.454 197.516 191.425 197.529C191.297 197.586 191.166 197.638 191.032 197.684C190.968 197.706 190.903 197.726 190.837 197.745L190.765 197.767C190.671 197.791 190.577 197.813 190.48 197.831C190.445 197.838 190.409 197.841 190.373 197.847C190.302 197.857 190.232 197.869 190.159 197.877C190.064 197.885 189.969 197.889 189.874 197.891C189.842 197.892 189.81 197.891 189.778 197.891C189.711 197.891 189.644 197.889 189.576 197.886C189.54 197.884 189.503 197.882 189.466 197.88C189.409 197.875 189.351 197.869 189.293 197.862C189.241 197.857 189.188 197.851 189.136 197.844C189.095 197.838 189.054 197.831 189.013 197.824C188.915 197.809 188.816 197.791 188.718 197.771C188.678 197.762 188.638 197.755 188.598 197.746C188.499 197.724 188.4 197.7 188.3 197.674L188.222 197.655C188.097 197.622 187.971 197.586 187.845 197.549L187.778 197.529C187.567 197.466 187.355 197.4 187.143 197.334C186.934 197.268 186.725 197.202 186.516 197.141L186.479 197.129L186.408 197.109C186.32 197.084 186.232 197.059 186.144 197.035C186.1 197.023 186.055 197.012 186.011 197C185.921 196.977 185.832 196.956 185.742 196.936C185.714 196.929 185.685 196.921 185.656 196.915L185.63 196.91C185.5 196.883 185.369 196.859 185.239 196.839L185.219 196.836C185.126 196.822 185.032 196.811 184.938 196.802L184.894 196.797C184.854 196.794 184.812 196.794 184.772 196.791C184.707 196.787 184.643 196.783 184.577 196.781L184.547 196.779L184.476 196.78C184.36 196.778 184.243 196.779 184.123 196.782L184.061 196.783L184.014 196.786C183.837 196.793 183.658 196.804 183.476 196.819C183.44 196.822 183.404 196.825 183.368 196.828C183.184 196.844 183 196.861 182.814 196.881L182.808 196.881C182.697 196.893 182.585 196.904 182.474 196.916C182.428 196.921 182.382 196.925 182.335 196.93C182.14 196.95 181.944 196.969 181.75 196.985L181.703 196.989C181.518 197.004 181.335 197.015 181.155 197.023L181.091 197.026C180.941 197.031 180.794 197.032 180.649 197.029C180.6 197.028 180.552 197.026 180.504 197.024C180.44 197.021 180.376 197.018 180.312 197.014C180.252 197.009 180.193 197.004 180.134 196.997C180.092 196.993 180.05 196.989 180.009 196.983C179.935 196.973 179.861 196.961 179.788 196.947L179.72 196.935C179.62 196.913 179.523 196.89 179.428 196.86C179.331 196.831 179.24 196.795 179.152 196.758C179.033 196.707 178.918 196.651 178.813 196.589C177.773 195.967 177.337 194.8 176.254 194.153C176.172 194.104 176.084 194.058 175.993 194.014L175.91 193.974C175.841 193.942 175.77 193.911 175.698 193.881L175.648 193.859L175.611 193.845C175.512 193.805 175.41 193.766 175.305 193.729L175.292 193.724C175.188 193.688 175.081 193.652 174.973 193.617C174.94 193.606 174.905 193.596 174.871 193.585C174.787 193.558 174.702 193.532 174.617 193.506C174.585 193.496 174.553 193.486 174.52 193.476C174.407 193.442 174.292 193.408 174.178 193.375C174.075 193.344 173.973 193.314 173.872 193.283C173.836 193.272 173.8 193.261 173.763 193.25C173.679 193.224 173.595 193.199 173.512 193.172C173.479 193.162 173.447 193.152 173.415 193.142C173.305 193.107 173.197 193.071 173.092 193.034L173.051 193.018C172.962 192.987 172.875 192.954 172.79 192.92C172.759 192.908 172.729 192.895 172.699 192.882C172.632 192.855 172.568 192.826 172.506 192.798L172.424 192.759C172.338 192.717 172.256 192.674 172.18 192.628C171.996 192.519 171.84 192.398 171.723 192.261C171.507 192.009 171.433 191.728 171.433 191.434L171.43 192.71C171.429 193.005 171.504 193.285 171.72 193.537C171.837 193.674 171.992 193.795 172.176 193.905C172.253 193.951 172.336 193.994 172.421 194.036L172.502 194.074C172.565 194.103 172.629 194.131 172.696 194.159L172.743 194.18L172.787 194.197C172.871 194.23 172.958 194.263 173.047 194.295L173.088 194.31C173.194 194.348 173.302 194.384 173.412 194.419C173.443 194.429 173.475 194.439 173.506 194.448C173.591 194.475 173.676 194.502 173.763 194.528C173.797 194.538 173.83 194.548 173.864 194.559C173.966 194.589 174.068 194.62 174.171 194.65C174.286 194.684 174.402 194.719 174.517 194.753C174.549 194.763 174.581 194.773 174.613 194.782C174.698 194.808 174.783 194.834 174.867 194.861C174.902 194.872 174.936 194.883 174.971 194.894C175.078 194.929 175.185 194.965 175.288 195.001L175.302 195.006C175.407 195.043 175.508 195.081 175.607 195.121C175.637 195.133 175.666 195.145 175.694 195.158C175.767 195.188 175.838 195.219 175.906 195.251L175.989 195.29C176.08 195.335 176.168 195.381 176.25 195.43C177.333 196.076 177.769 197.244 178.81 197.865C178.915 197.928 179.029 197.983 179.149 198.034L179.184 198.052C179.261 198.083 179.341 198.112 179.424 198.137L179.452 198.145C179.533 198.17 179.616 198.19 179.701 198.208L179.716 198.211L179.785 198.223C179.842 198.234 179.898 198.246 179.957 198.254L180.006 198.26C180.047 198.266 180.089 198.269 180.13 198.274C180.168 198.278 180.206 198.284 180.245 198.287L180.309 198.291C180.372 198.295 180.436 198.298 180.5 198.3C180.534 198.302 180.566 198.305 180.6 198.306L180.645 198.306C180.791 198.308 180.938 198.307 181.088 198.302L181.104 198.302L181.151 198.299C181.332 198.292 181.515 198.281 181.699 198.266L181.747 198.262C181.941 198.246 182.136 198.227 182.332 198.206L182.364 198.204C182.399 198.2 182.435 198.196 182.471 198.193C182.584 198.181 182.698 198.169 182.811 198.157C182.997 198.138 183.181 198.12 183.364 198.105C183.4 198.102 183.437 198.098 183.473 198.095C183.654 198.081 183.834 198.07 184.01 198.062C184.047 198.061 184.083 198.06 184.12 198.059C184.239 198.055 184.357 198.054 184.473 198.056C184.506 198.057 184.54 198.056 184.573 198.057C184.639 198.059 184.704 198.064 184.769 198.068C184.824 198.071 184.881 198.073 184.935 198.078C185.035 198.088 185.135 198.101 185.235 198.116C185.365 198.135 185.496 198.159 185.627 198.187C185.664 198.195 185.701 198.204 185.739 198.213C185.828 198.233 185.918 198.254 186.008 198.277C186.052 198.288 186.096 198.3 186.141 198.312C186.228 198.336 186.317 198.36 186.405 198.386C186.441 198.396 186.477 198.406 186.512 198.417C186.721 198.479 186.93 198.544 187.14 198.611C187.352 198.677 187.563 198.743 187.775 198.806L187.823 198.821L187.841 198.826C187.967 198.863 188.093 198.898 188.219 198.931L188.297 198.951C188.396 198.976 188.495 199 188.594 199.022L188.649 199.035L188.714 199.047C188.812 199.067 188.911 199.085 189.009 199.101L189.087 199.115L189.132 199.12C189.185 199.128 189.237 199.133 189.29 199.139C189.33 199.144 189.37 199.149 189.41 199.153L189.463 199.156C189.5 199.159 189.536 199.161 189.573 199.162C189.61 199.164 189.646 199.167 189.682 199.168C189.713 199.169 189.744 199.168 189.774 199.168C189.806 199.168 189.839 199.168 189.871 199.168L189.934 199.167C190.008 199.165 190.081 199.16 190.155 199.153L190.186 199.15C190.248 199.144 190.308 199.133 190.37 199.123C190.405 199.118 190.441 199.114 190.477 199.108L190.485 199.106C190.579 199.089 190.671 199.067 190.761 199.043L190.833 199.021C190.892 199.004 190.951 198.988 191.01 198.968L191.029 198.96C191.163 198.915 191.293 198.862 191.421 198.805C191.45 198.793 191.479 198.779 191.508 198.766C191.635 198.707 191.761 198.645 191.884 198.578L191.898 198.571C192.022 198.503 192.145 198.432 192.267 198.36L192.352 198.309C192.478 198.234 192.603 198.158 192.727 198.081C192.841 198.011 192.955 197.942 193.069 197.874L193.141 197.83C193.262 197.759 193.383 197.689 193.506 197.622L193.588 197.578C193.717 197.51 193.847 197.444 193.98 197.384L193.985 197.382C194.114 197.324 194.246 197.273 194.381 197.226C194.437 197.206 194.492 197.186 194.549 197.168C194.641 197.14 194.737 197.115 194.836 197.091C194.871 197.083 194.907 197.077 194.942 197.069C195.007 197.055 195.071 197.041 195.139 197.029C195.27 197.005 195.406 196.984 195.545 196.965C195.582 196.96 195.622 196.955 195.66 196.95C195.768 196.936 195.877 196.923 195.988 196.912C196.026 196.908 196.064 196.904 196.103 196.9C196.329 196.878 196.559 196.857 196.791 196.838C197.025 196.818 197.26 196.797 197.492 196.774L197.555 196.768L197.58 196.765C197.729 196.75 197.876 196.733 198.02 196.714C198.049 196.71 198.078 196.705 198.107 196.701C198.223 196.685 198.337 196.667 198.449 196.647L198.521 196.636L198.58 196.623C198.655 196.609 198.727 196.592 198.799 196.576C198.844 196.566 198.889 196.556 198.933 196.544C199.01 196.525 199.083 196.502 199.157 196.48L199.244 196.454L199.262 196.447C199.328 196.425 199.391 196.399 199.453 196.374C199.485 196.36 199.519 196.349 199.55 196.335C199.642 196.294 199.729 196.249 199.812 196.2L199.838 196.183C199.904 196.142 199.964 196.099 200.021 196.055L200.061 196.02C200.095 195.992 200.129 195.965 200.16 195.936L200.182 195.911C200.232 195.861 200.277 195.81 200.319 195.757L200.351 195.721L200.356 195.713C200.411 195.64 200.458 195.565 200.501 195.488L200.511 195.472L200.526 195.439C200.578 195.34 200.623 195.238 200.661 195.134L200.667 195.121L200.669 195.115C200.708 195.007 200.739 194.897 200.769 194.787L200.786 194.722C200.815 194.61 200.842 194.497 200.868 194.384C200.921 194.155 200.976 193.928 201.051 193.712L201.071 193.653C201.108 193.555 201.15 193.459 201.198 193.367L201.236 193.3C201.264 193.252 201.295 193.204 201.328 193.157C201.355 193.119 201.381 193.081 201.412 193.044C201.461 192.986 201.515 192.929 201.575 192.873L201.616 192.837C201.662 192.795 201.709 192.753 201.76 192.711L201.837 192.652C201.88 192.619 201.923 192.586 201.969 192.553C201.998 192.532 202.029 192.511 202.06 192.49C202.105 192.459 202.149 192.429 202.195 192.399C202.228 192.376 202.262 192.355 202.296 192.333C202.334 192.309 202.373 192.285 202.411 192.261C202.584 192.154 202.762 192.049 202.942 191.943C203.138 191.828 203.334 191.713 203.52 191.596L203.523 191.595C203.601 191.546 203.677 191.497 203.751 191.448L203.815 191.403C203.868 191.368 203.92 191.331 203.969 191.295L204.045 191.237C204.087 191.205 204.129 191.172 204.168 191.139L204.242 191.074L204.312 191.012L204.335 190.988C204.392 190.932 204.443 190.875 204.489 190.818L204.516 190.788L204.521 190.781L204.557 190.727C204.58 190.693 204.605 190.659 204.624 190.624L204.632 190.606L204.652 190.563L204.687 190.486L204.713 190.405L204.725 190.353C204.733 190.307 204.738 190.261 204.739 190.215L204.74 190.195L204.743 188.919C204.743 188.989 204.734 189.058 204.716 189.128Z" fill="#B03720"/>
<path d="M202.904 186.007C202.63 184.982 203.795 183.648 202.986 182.704C202.869 182.568 202.713 182.447 202.53 182.337C201.489 181.716 199.538 181.459 198.455 180.812C197.372 180.165 196.937 178.998 195.896 178.377C195.713 178.267 195.509 178.175 195.281 178.105C193.706 177.624 191.479 178.325 189.768 178.165C188.043 178.002 186.275 176.926 184.551 177.089C182.844 177.25 181.729 178.594 180.155 179.074C178.64 179.537 176.16 179.281 174.892 180.043C173.626 180.804 174.062 182.289 173.292 183.199C172.497 184.142 170.257 184.814 169.993 185.837C169.727 186.87 171.529 187.925 171.804 188.96C172.08 189.983 170.917 191.319 171.724 192.261C171.841 192.398 171.996 192.519 172.18 192.628C173.22 193.249 175.171 193.506 176.254 194.153C177.337 194.8 177.773 195.967 178.813 196.589C178.997 196.698 179.2 196.791 179.428 196.86C181.004 197.341 183.23 196.64 184.939 196.802C186.667 196.963 188.435 198.039 190.159 197.877C191.866 197.715 192.981 196.371 194.553 195.892C196.07 195.428 198.55 195.684 199.816 194.923C201.084 194.161 200.646 192.677 201.416 191.768C202.213 190.823 204.451 190.152 204.717 189.128C204.983 188.095 203.181 187.04 202.904 186.007Z" fill="#F36418"/>
<path d="M178.22 182.043C183.223 179.037 191.39 179.035 196.426 182.042C201.462 185.048 201.486 189.94 196.483 192.947C191.48 195.953 183.315 195.953 178.279 192.947C173.243 189.94 173.217 185.05 178.22 182.043ZM177.64 193.331C183.031 196.55 191.775 196.55 197.129 193.333C202.486 190.114 202.458 184.876 197.066 181.658C191.674 178.438 182.931 178.438 177.574 181.658L177.574 181.658C172.219 184.876 172.248 190.113 177.64 193.331Z" fill="white"/>
<path d="M188.99 182.604L188.149 182.102L184.539 184.271L185.38 184.773L188.99 182.604Z" fill="white"/>
<path d="M189.137 185.824C188.916 185.957 188.547 185.935 188.05 185.639C187.613 185.377 187.311 185.013 187.228 184.696L186.312 184.904C186.388 185.244 186.798 185.694 187.374 186.038C188.413 186.658 189.43 186.649 190.033 186.286C191.359 185.489 188.788 184.504 189.455 184.104C189.682 183.968 190.057 183.971 190.557 184.269C190.878 184.46 191.133 184.724 191.28 185.039L192.175 184.814C192.048 184.484 191.689 184.142 191.231 183.868C190.198 183.252 189.19 183.262 188.577 183.631C187.236 184.436 189.813 185.418 189.137 185.824Z" fill="white"/>
<path d="M191.982 186.551C192.668 186.139 193.624 186.148 194.274 186.536C194.921 186.923 194.942 187.497 194.256 187.909C193.57 188.321 192.61 188.312 191.962 187.925C191.312 187.537 191.296 186.964 191.982 186.551ZM191.251 188.353C192.392 189.034 194.029 189.065 195.107 188.417C196.185 187.769 196.126 186.791 194.985 186.109C193.838 185.424 192.203 185.399 191.131 186.044C190.057 186.689 190.104 187.668 191.251 188.353Z" fill="white"/>
<path d="M181.116 186.631C180.801 186.82 180.319 186.804 179.952 186.585C179.576 186.361 179.544 186.089 179.874 185.89C180.203 185.693 180.66 185.717 181.018 185.93C181.418 186.17 181.425 186.445 181.116 186.631ZM181.59 185.524C180.822 185.066 179.75 184.983 179.012 185.426C178.332 185.835 178.439 186.43 179.14 186.848C179.518 187.075 179.943 187.192 180.367 187.192C179.647 187.595 178.896 187.573 178.293 187.213C178.044 187.064 177.858 186.898 177.795 186.699L176.869 186.883C176.963 187.13 177.244 187.403 177.627 187.632C178.727 188.289 180.177 188.319 181.424 187.57C182.59 186.869 182.598 186.125 181.59 185.524Z" fill="white"/>
<path d="M184.021 189.212C183.201 189.706 182.569 189.736 182.149 189.485C181.734 189.237 181.783 188.859 182.604 188.366C183.424 187.873 184.054 187.842 184.47 188.09C184.89 188.341 184.842 188.72 184.021 189.212ZM185.177 187.666C184.284 187.132 182.944 187.142 181.753 187.859C180.562 188.574 180.549 189.376 181.442 189.91C182.34 190.446 183.675 190.433 184.866 189.717C186.058 189.001 186.075 188.201 185.177 187.666Z" fill="white"/>
<path d="M187.545 191.316C186.725 191.809 186.095 191.84 185.673 191.589C185.257 191.341 185.308 190.963 186.128 190.47C186.948 189.977 187.579 189.946 187.994 190.194C188.416 190.446 188.366 190.823 187.545 191.316ZM188.701 189.769C187.81 189.237 186.468 189.246 185.277 189.962C184.086 190.678 184.075 191.481 184.966 192.014C185.864 192.55 187.199 192.537 188.391 191.821C189.582 191.105 189.599 190.305 188.701 189.769Z" fill="white"/>
<path d="M191.975 191.8L190.407 190.864L189.736 191.267L190.464 191.701L187.526 193.466L188.367 193.968L191.975 191.8Z" fill="white"/>
<path d="M123.601 95.013L126.256 96.139L125.432 96.6344L122.777 95.5081L123.601 95.013Z" fill="#F3EF15"/>
<path d="M129.8 104.087L128.976 104.582L128.531 101.171L129.355 100.675L129.8 104.087Z" fill="#F3EF15"/>
<path d="M128.629 97.5561L131.282 99.5984L130.458 100.094L127.805 98.0512L126.627 94.4857L127.451 93.9903L128.629 97.5561Z" fill="#F3EF15"/>
<path d="M122.777 95.5081L125.432 96.6345L126.627 94.4857L127.805 98.0511L130.458 100.094L128.531 101.171L128.976 104.582L126.607 101.682L124.229 101.748L124.691 98.8783L122.777 95.5081Z" fill="#F79011"/>
<path d="M123.601 84.7654L126.256 85.8914L125.432 86.3868L122.777 85.2608L123.601 84.7654Z" fill="#F3EF15"/>
<path d="M129.8 93.839L128.976 94.3344L128.531 90.9236L129.355 90.4282L129.8 93.839Z" fill="#F3EF15"/>
<path d="M128.629 87.3083L131.282 89.3509L130.458 89.8459L127.805 87.8037L126.627 84.2383L127.451 83.7429L128.629 87.3083Z" fill="#F3EF15"/>
<path d="M122.777 85.2609L125.432 86.3869L126.627 84.2384L127.805 87.8038L130.458 89.8461L128.531 90.9236L128.976 94.3344L126.607 91.4345L124.229 91.5008L124.691 88.6307L122.777 85.2609Z" fill="#F79011"/>
<path d="M123.601 74.5177L126.256 75.6438L125.432 76.1392L122.777 75.0128L123.601 74.5177Z" fill="#F3EF15"/>
<path d="M129.8 83.5916L128.976 84.0867L128.531 80.6756L129.355 80.1802L129.8 83.5916Z" fill="#F3EF15"/>
<path d="M128.629 77.0608L131.282 79.1034L130.458 79.5988L127.805 77.5558L126.627 73.9907L127.451 73.4953L128.629 77.0608Z" fill="#F3EF15"/>
<path d="M122.777 75.0129L125.432 76.1392L126.627 73.9907L127.805 77.5558L130.458 79.5988L128.531 80.6756L128.976 84.0867L126.607 81.1872L124.229 81.2528L124.691 78.383L122.777 75.0129Z" fill="#F79011"/>
<path d="M123.601 64.2702L126.256 65.3962L125.432 65.8916L122.777 64.7656L123.601 64.2702Z" fill="#F3EF15"/>
<path d="M129.8 73.3438L128.976 73.8392L128.531 70.4282L129.355 69.9328L129.8 73.3438Z" fill="#F3EF15"/>
<path d="M128.629 66.813L131.282 68.8556L130.458 69.3507L127.805 67.3084L126.627 63.743L127.451 63.2476L128.629 66.813Z" fill="#F3EF15"/>
<path d="M122.777 64.7654L125.432 65.8914L126.627 63.743L127.805 67.3084L130.458 69.3507L128.531 70.4282L128.976 73.8392L126.607 70.9394L124.229 71.0054L124.691 68.1356L122.777 64.7654Z" fill="#F79011"/>
<path d="M123.601 54.0225L126.256 55.1489L125.432 55.6443L122.777 54.5179L123.601 54.0225Z" fill="#F3EF15"/>
<path d="M129.8 63.0966L128.976 63.5913L128.531 60.1803L129.355 59.6852L129.8 63.0966Z" fill="#F3EF15"/>
<path d="M128.629 56.5658L131.282 58.6081L130.458 59.1035L127.805 57.0609L126.627 53.4955L127.451 53.0001L128.629 56.5658Z" fill="#F3EF15"/>
<path d="M122.777 54.5178L125.432 55.6442L126.627 53.4954L127.805 57.0608L130.458 59.1034L128.531 60.1803L128.976 63.5913L126.607 60.6918L124.229 60.7575L124.691 57.8876L122.777 54.5178Z" fill="#F79011"/>
<path d="M175.625 175.607L173.832 175.242L173.395 175.149L168.978 174.255C168.751 174.279 168.55 174.236 168.384 174.136L126.355 148.882C126.03 148.684 125.825 148.269 125.825 147.678C125.825 147.609 125.828 147.54 125.832 147.47L125.838 147.404C125.841 147.371 125.844 147.342 125.848 147.312L125.854 147.269C125.86 147.22 125.87 147.17 125.879 147.121L125.892 147.051L125.899 147.015L125.921 146.923L125.943 146.834L125.956 146.788L125.978 146.709L125.997 146.643L126.026 146.56L126.048 146.497L126.061 146.468C126.08 146.412 126.103 146.356 126.125 146.3L126.128 146.293L126.141 146.266C126.16 146.224 126.179 146.181 126.198 146.135L126.224 146.085L126.249 146.029L126.278 145.976C126.297 145.936 126.316 145.9 126.339 145.861L126.355 145.828L126.361 145.818C126.393 145.765 126.422 145.712 126.457 145.66L126.469 145.637L126.505 145.584L126.562 145.498L126.594 145.449L126.645 145.379L126.68 145.33L126.728 145.271C126.75 145.241 126.773 145.211 126.798 145.181L126.83 145.142L126.868 145.102C126.906 145.056 126.948 145.01 126.989 144.967L127.028 144.924L127.066 144.888L127.127 144.829C127.158 144.795 127.194 144.766 127.229 144.736L127.289 144.683C127.328 144.654 127.366 144.624 127.404 144.594L127.458 144.555C127.516 144.512 127.573 144.476 127.634 144.439C127.688 144.406 127.745 144.377 127.8 144.35L127.841 144.33L127.886 144.307C127.924 144.291 127.962 144.278 127.997 144.265L128.007 144.261C128.039 144.251 128.071 144.241 128.099 144.232L128.141 144.225L128.214 144.208L128.259 144.199L128.31 144.192L128.364 144.185L128.396 144.182C128.425 144.182 128.453 144.182 128.482 144.185H128.508H128.517C128.552 144.185 128.591 144.192 128.626 144.199L128.642 144.202L128.674 144.208L128.728 144.222L128.776 144.238L128.804 144.251L128.823 144.258C128.855 144.271 128.884 144.284 128.913 144.304L128.926 144.307L170.895 169.532L170.933 169.555C171.041 169.615 171.137 169.701 171.217 169.806L171.236 169.829L174.247 173.793L174.496 174.117L175.625 175.607Z" fill="#CCCCC9"/>
<path d="M167.868 170.592C167.872 170.547 167.877 170.503 167.884 170.457C167.891 170.408 167.899 170.358 167.908 170.308C167.915 170.274 167.921 170.24 167.928 170.205C167.935 170.173 167.943 170.141 167.951 170.109C167.962 170.065 167.973 170.02 167.985 169.976L168.008 169.898C168.023 169.848 168.039 169.798 168.057 169.748L168.078 169.687C168.103 169.617 168.129 169.549 168.158 169.481L168.169 169.456C168.195 169.395 168.223 169.335 168.252 169.275L168.279 169.219C168.307 169.162 168.337 169.105 168.368 169.05L168.385 169.018C168.421 168.953 168.46 168.888 168.499 168.826L168.535 168.771C168.564 168.726 168.594 168.681 168.624 168.637L168.675 168.567C168.701 168.53 168.729 168.494 168.756 168.459C168.779 168.429 168.803 168.399 168.827 168.37L168.896 168.289C168.935 168.243 168.976 168.199 169.017 168.156L169.094 168.076L169.155 168.017C169.189 167.985 169.223 167.954 169.258 167.924L169.32 167.871C169.357 167.841 169.395 167.812 169.434 167.783L169.489 167.742C169.546 167.701 169.603 167.663 169.661 167.628C169.718 167.595 169.773 167.566 169.828 167.539L169.871 167.518C169.924 167.494 169.976 167.472 170.027 167.453L170.037 167.45C170.082 167.435 170.126 167.423 170.17 167.412L170.244 167.396C170.276 167.389 170.308 167.384 170.34 167.381L170.395 167.375C170.434 167.372 170.473 167.371 170.511 167.373H170.537C170.584 167.375 170.628 167.382 170.672 167.39L170.703 167.398C170.738 167.406 170.771 167.416 170.803 167.427L170.834 167.439C170.875 167.455 170.915 167.474 170.953 167.497L128.924 142.24L128.914 142.235C128.885 142.218 128.854 142.202 128.823 142.189L128.805 142.182L128.774 142.171L128.727 142.154L128.674 142.141L128.642 142.133L128.625 142.129C128.589 142.123 128.553 142.119 128.515 142.116H128.508L128.482 142.116C128.453 142.115 128.425 142.114 128.395 142.115L128.365 142.118L128.311 142.124L128.26 142.129L128.215 142.139L128.141 142.156L128.1 142.164C128.07 142.173 128.039 142.183 128.008 142.194L127.998 142.197C127.962 142.21 127.924 142.224 127.887 142.241L127.842 142.262L127.799 142.282C127.744 142.309 127.689 142.338 127.632 142.372C127.574 142.406 127.516 142.445 127.459 142.485L127.405 142.526C127.366 142.555 127.328 142.584 127.29 142.615L127.229 142.668C127.194 142.698 127.16 142.729 127.126 142.761L127.065 142.82L127.026 142.857L126.987 142.899C126.946 142.943 126.906 142.987 126.867 143.033L126.828 143.075L126.798 143.113C126.774 143.143 126.75 143.172 126.727 143.202L126.681 143.26L126.646 143.311L126.595 143.381L126.56 143.43L126.505 143.515L126.47 143.569L126.455 143.592C126.423 143.644 126.392 143.697 126.361 143.751L126.356 143.761L126.338 143.793C126.317 143.832 126.296 143.87 126.276 143.909L126.25 143.962L126.222 144.019L126.198 144.068C126.178 144.112 126.159 144.156 126.14 144.2L126.129 144.224L126.126 144.231C126.103 144.287 126.081 144.343 126.06 144.399L126.049 144.43L126.027 144.492L125.998 144.576L125.979 144.642L125.956 144.719L125.942 144.767L125.922 144.853C125.914 144.885 125.906 144.917 125.899 144.949L125.891 144.982L125.879 145.052C125.87 145.102 125.861 145.152 125.855 145.201L125.848 145.242C125.844 145.274 125.842 145.304 125.839 145.336L125.833 145.402C125.827 145.472 125.824 145.541 125.824 145.609C125.826 146.201 126.028 146.617 126.353 146.813L168.383 172.069C168.057 171.873 167.855 171.457 167.854 170.866C167.853 170.797 167.857 170.728 167.862 170.659L167.868 170.592Z" fill="#B54E1F"/>
<path d="M175.626 173.538L173.831 173.173L173.394 173.082L168.977 172.188C168.751 172.211 168.55 172.169 168.383 172.067L168.361 172.056C168.047 171.853 167.854 171.445 167.854 170.864C167.85 169.676 168.66 168.225 169.659 167.629C170.1 167.365 170.502 167.312 170.819 167.433C170.976 167.489 171.111 167.595 171.217 167.738L171.235 167.761L174.247 171.724L174.495 172.048L175.626 173.538Z" fill="#F57615"/>
<path d="M175.625 173.538L173.831 173.173L173.394 173.082C173.55 172.55 173.853 172.078 174.247 171.724L174.495 172.048L175.625 173.538Z" fill="#B54E1F"/>
<path d="M72.051 147.086L54.9697 136.888L37.0239 147.672L54.1053 157.87L72.051 147.086Z" fill="#CCCCC9"/>
<path d="M54.1056 146.598L54.082 155.289L72.0275 144.505L72.0514 135.814L54.1056 146.598Z" fill="#D97D19"/>
<path d="M37.0238 136.4L37 145.092L54.0815 155.289L54.1051 146.598L37.0238 136.4Z" fill="#A6601D"/>
<path d="M72.051 135.814L54.9697 125.616L37.0239 136.4L54.1053 146.598L72.051 135.814Z" fill="#F79011"/>
<path d="M72.051 135.814L54.9697 125.616L37.0239 136.4L54.1053 146.598L72.051 135.814Z" fill="#F79011"/>
<path d="M63.906 137.737L62.7323 138.444L50.3447 131.049L51.5217 130.343L63.906 137.737Z" fill="#F9B740"/>
<path d="M66.4971 136.182L65.3201 136.888L52.9326 129.494L54.1128 128.787L66.4971 136.182Z" fill="#F9B740"/>
<path d="M61.3181 139.293L60.1412 139.999L47.7568 132.604L48.9303 131.898L61.3181 139.293Z" fill="#F9B740"/>
<path d="M58.73 140.848L57.5502 141.557L45.1655 134.162L46.3425 133.453L58.73 140.848Z" fill="#F9B740"/>
<path d="M56.1398 142.403L54.9628 143.112L42.5786 135.718L43.7553 135.009L56.1398 142.403Z" fill="#F9B740"/>
<path d="M61.5858 142.103C61.5858 142.103 58.9256 143.165 55.9411 143.117C52.9566 143.067 45.0546 141.53 44.0312 140.584C44.0312 140.584 48.2028 143.091 51.6297 144.005C55.6394 145.074 60.219 143.196 61.5858 142.103Z" fill="#D97D19"/>
<path d="M61.5858 142.103C61.5858 142.103 56.4632 143.82 54.0816 138.66C54.0816 138.66 49.3293 143.234 44.0312 140.584C44.0312 140.584 52.199 146.011 61.5858 142.103Z" fill="#F8D024"/>
<path d="M94.2924 151.877L94.2124 151.876L94.0905 151.871C94.0609 151.869 94.0319 151.869 94.0025 151.868C93.9569 151.864 93.9129 151.861 93.8689 151.858L93.7923 151.852C93.7403 151.847 93.6883 151.842 93.636 151.837L93.5856 151.832C93.5155 151.824 93.4472 151.815 93.3786 151.805L93.3461 151.8C93.2858 151.79 93.2274 151.781 93.1703 151.772L93.097 151.756C93.0514 151.748 93.0074 151.74 92.9637 151.731L92.8951 151.714C92.8463 151.704 92.7975 151.692 92.7487 151.681L92.6689 151.66C92.6249 151.649 92.5809 151.637 92.5385 151.623L92.4651 151.603C92.3953 151.581 92.3283 151.559 92.26 151.537L92.2243 151.524C92.1478 151.497 92.0712 151.468 91.9962 151.438C91.9653 151.426 91.936 151.413 91.905 151.401L91.8336 151.371C91.7991 151.356 91.7666 151.339 91.7325 151.323L91.6674 151.293C91.6314 151.275 91.5956 151.256 91.5615 151.238L91.506 151.209C91.454 151.18 91.4017 151.152 91.3513 151.121C91.2977 151.089 91.2473 151.058 91.1966 151.024L91.1478 150.99C91.1153 150.968 91.0827 150.946 91.0534 150.925L90.9998 150.883L90.9181 150.82L90.8662 150.774L90.7944 150.714L90.7424 150.665L90.6805 150.605L90.6317 150.554L90.5746 150.493L90.5322 150.441L90.4802 150.379L90.4429 150.325L90.3957 150.263L90.3612 150.209L90.3223 150.145L90.2914 150.089L90.2573 150.025L90.2311 149.968L90.2018 149.904L90.1804 149.845L90.1577 149.783L90.1399 149.722L90.122 149.658L90.1105 149.599L90.0975 149.536L90.0895 149.475L90.0828 149.411L90.0796 149.35L90.0764 149.286L90.0748 150.738L90.0723 150.737L90.0739 149.286V149.279C90.077 148.621 90.4939 147.966 91.3293 147.464C92.1698 146.959 93.2734 146.706 94.3783 146.706C94.3786 146.706 94.3789 146.706 94.3795 146.706C93.275 146.707 92.172 146.959 91.3318 147.464C90.4965 147.966 90.0796 148.621 90.0764 149.279V149.286L90.0796 149.35L90.0828 149.411L90.0895 149.475L90.0975 149.536L90.1105 149.599L90.122 149.658L90.1399 149.722L90.1577 149.783L90.1804 149.845L90.2018 149.904L90.2311 149.968L90.2573 150.025L90.2914 150.089L90.3223 150.145L90.3612 150.209L90.3957 150.263L90.4429 150.325L90.4802 150.379L90.5322 150.441L90.5746 150.493L90.6317 150.554L90.6805 150.605L90.7424 150.665L90.7944 150.714L90.8662 150.774L90.9181 150.82L90.9998 150.883L91.0534 150.925C91.0827 150.946 91.1153 150.968 91.1478 150.99L91.1966 151.024C91.2473 151.058 91.2977 151.089 91.3513 151.121C91.4017 151.152 91.454 151.18 91.506 151.209L91.5615 151.238C91.5956 151.256 91.6314 151.275 91.6674 151.293L91.7325 151.323C91.7666 151.339 91.7991 151.356 91.8336 151.371L91.905 151.401C91.936 151.413 91.9653 151.426 91.9962 151.438C92.0712 151.468 92.1478 151.497 92.2243 151.524L92.26 151.537C92.3283 151.559 92.3953 151.581 92.4651 151.603L92.5385 151.623C92.5809 151.637 92.6249 151.649 92.6689 151.66L92.7487 151.681C92.7975 151.692 92.8463 151.704 92.8951 151.714L92.9637 151.731C93.0074 151.74 93.0514 151.748 93.097 151.756L93.1703 151.772C93.2274 151.781 93.2858 151.79 93.3461 151.8L93.3786 151.805C93.4472 151.815 93.5155 151.824 93.5856 151.832L93.636 151.837C93.6883 151.842 93.7403 151.847 93.7923 151.852L93.8689 151.858C93.9129 151.861 93.9569 151.864 94.0025 151.868C94.0319 151.869 94.0609 151.869 94.0905 151.871L94.2124 151.876L94.2924 151.877Z" fill="#CCCCC9"/>
<path d="M90.0732 152.408C90.0723 152.408 90.0717 152.407 90.0708 152.406L90.0723 150.737L90.0748 150.738L90.0732 152.406V152.408Z" fill="#96611D"/>
<path d="M143.054 188.042C138.278 185.19 130.561 185.19 125.816 188.042C121.07 190.894 121.095 195.515 125.872 198.367C130.646 201.217 138.362 201.217 143.108 198.365C147.853 195.513 147.828 190.892 143.054 188.042Z" fill="#CCCCC9"/>
<path d="M137.829 192.965C137.829 192.965 140.703 191.436 142.285 191.9C143.868 192.366 143.401 193.726 143.108 194.283C142.814 194.84 138.927 197.496 136.836 197.627C134.298 197.786 135.51 193.839 135.51 193.839L137.829 192.965Z" fill="#141922"/>
<path d="M129.378 190.056C129.378 190.056 132.251 188.526 133.834 188.991C135.416 189.456 134.95 190.816 134.656 191.373C134.362 191.931 130.475 194.586 128.384 194.718C125.846 194.877 127.059 190.929 127.059 190.929L129.378 190.056Z" fill="#141922"/>
<path d="M135.622 157.671C135.622 157.671 135.47 158.951 135.22 161.013C134.216 169.344 131.639 190.485 131.282 191.663C131.265 191.709 131.25 191.755 131.231 191.798C130.937 192.454 130.095 192.741 129.192 192.741H129.141C128.347 192.705 127.527 192.425 127.033 191.966C126.8 191.755 126.848 190.017 126.873 187.382C127.001 177.497 128.207 155.187 128.207 155.187L135.622 157.671Z" fill="#1A294A"/>
<path d="M129.331 192.744C129.285 192.744 129.239 192.743 129.193 192.741C130.096 192.741 130.938 192.454 131.231 191.798C130.947 192.455 130.169 192.744 129.331 192.744Z" fill="#14171C"/>
<path d="M129.193 192.741H129.142C128.348 192.705 127.528 192.425 127.034 191.966C126.976 191.914 126.936 191.771 126.909 191.544C126.865 191.192 126.852 190.641 126.852 189.924C126.852 189.223 126.865 188.364 126.874 187.382C127.069 187.425 127.256 187.446 127.435 187.446C128.965 187.446 129.95 185.937 130.447 184.446C130.967 182.879 132.605 169.914 133.355 163.825C133.453 166.577 133.579 169.869 133.727 173.256C132.974 179.354 132.172 185.702 131.689 189.134C131.493 190.53 131.349 191.443 131.282 191.663C131.266 191.709 131.251 191.755 131.231 191.798C130.938 192.454 130.096 192.741 129.193 192.741Z" fill="#142239"/>
<path d="M138.135 127.908C138.135 127.908 138.542 130.708 137.647 131.089C136.752 131.47 135.207 130.755 134.556 129.956C133.905 129.157 134.556 125.414 134.556 125.414L138.135 127.908Z" fill="#F57559"/>
<path d="M140.71 121.545C140.71 121.545 141.623 120.226 141.143 118.438C140.663 116.651 139.193 116.552 139.193 116.552C139.193 116.552 138.454 118.339 136.149 118.587C133.845 118.835 131.713 120.424 132.419 123.949C133.124 127.475 137.569 127.663 137.569 127.663L138.886 125.985L140.71 121.545Z" fill="#1A294A"/>
<path d="M155.035 134.412C155.035 134.412 155.717 133.653 155.869 133.079C156.02 132.504 155.97 131.013 156.855 131.092C157.739 131.17 158.447 132.478 158.295 133.627C158.144 134.777 156.045 135.98 156.045 135.98L155.035 134.412Z" fill="#F68B72"/>
<path d="M142.028 156.592C142.028 156.592 140.428 193.331 139.55 194.354C138.671 195.379 135.731 194.944 135.22 194.184C134.992 193.845 134.767 190.784 134.462 186.66C133.664 175.677 133.119 156.592 133.119 156.592H142.028Z" fill="#1A294A"/>
<path d="M137.689 194.957C136.633 194.957 135.517 194.625 135.22 194.184C135.085 193.983 134.951 192.824 134.8 191.053C134.759 190.573 134.717 190.048 134.674 189.485C134.607 188.624 134.537 187.674 134.462 186.66C135.681 185.71 137.027 186.544 138.416 182.428C140.235 177.044 140.656 157.19 140.656 157.19C140.656 157.19 140.826 156.953 141.1 156.592H142.028C142.028 156.592 142.002 157.197 141.954 158.255C141.629 165.438 140.315 193.462 139.55 194.354C139.181 194.784 138.451 194.957 137.689 194.957Z" fill="#142239"/>
<path d="M128.784 130.462C128.778 130.488 126.059 136.654 125.592 138.41C125.126 140.166 130.287 147.225 130.287 147.225C130.287 147.225 132.452 143.231 132.418 143.059C132.385 142.886 130.953 137.825 130.687 137.584C130.42 137.343 128.784 130.462 128.784 130.462Z" fill="#1A294A"/>
<path d="M132.232 127.912C131.56 127.958 129.085 128.067 128.68 130.999C128.275 133.932 129.166 147.42 129.085 149.264C129.004 151.107 128.194 155.631 128.194 155.631C128.194 155.631 133.946 161.664 142.616 157.558C142.616 157.558 141.968 151.945 142.049 149.683C142.13 147.42 142.778 135.44 142.616 133.932C142.454 132.423 134.531 127.755 132.232 127.912Z" fill="#243B73"/>
<path d="M141.372 132.876C140.784 132.954 139.58 133.161 139.213 134.678C138.846 136.196 143.568 145.909 145.948 146.454C147.963 146.915 156.733 135.84 156.733 135.84C156.733 135.84 155.953 134.227 154.898 134.18L146.93 141.5C146.93 141.5 143.165 132.635 141.372 132.876Z" fill="#1A294A"/>
<path d="M139.589 127.946C139.231 128.271 138.769 128.359 138.279 128.273C138.06 128.235 137.862 128.111 137.726 127.931C137.078 127.075 137.09 125.852 137.09 125.852C136.38 125.629 135.857 123.652 136.63 123.495C137.398 123.333 137.789 124.861 137.789 124.861L138.078 124.734C137.892 124.066 138.229 123.97 138.66 123.717C139.09 123.46 138.694 122.408 139.154 121.998C139.452 121.735 140.083 121.376 140.504 121.153C140.538 121.634 140.841 126.803 139.589 127.946Z" fill="#F68B72"/>
<path d="M227.632 169.81C229.152 166.356 227.639 162.516 223.101 159.806C216.327 155.762 205.379 155.763 198.649 159.808C191.92 163.851 191.954 170.408 198.729 174.452C203.267 177.161 209.682 178.056 215.444 177.134L210.913 167.13L227.632 169.81Z" fill="#CCCCC9"/>
<path d="M213.775 168.838L218.304 178.842C221.142 178.389 223.821 177.495 226.041 176.161C228.262 174.826 229.746 173.219 230.492 171.518L213.775 168.838Z" fill="#CCCCC9"/>
<path d="M228.197 160.903C228.192 161.055 228.182 161.207 228.165 161.359L228.163 161.376C228.146 161.523 228.123 161.67 228.096 161.816C228.09 161.852 228.083 161.887 228.076 161.922C228.046 162.07 228.012 162.218 227.971 162.365L227.955 162.422C227.917 162.555 227.874 162.688 227.827 162.82C227.815 162.855 227.803 162.891 227.79 162.926C227.741 163.058 227.689 163.189 227.632 163.32L210.913 160.64L210.902 164.672L227.621 167.352C227.678 167.221 227.73 167.09 227.779 166.958L227.797 166.913L227.816 166.852C227.863 166.72 227.906 166.587 227.944 166.454L227.961 166.398C228.001 166.25 228.035 166.102 228.065 165.954L228.076 165.907L228.085 165.849C228.112 165.702 228.135 165.556 228.152 165.409L228.155 165.391C228.171 165.24 228.18 165.088 228.186 164.936L228.19 164.881C228.191 164.828 228.192 164.775 228.192 164.722L228.203 160.69C228.203 160.762 228.199 160.832 228.197 160.903Z" fill="#9F1830"/>
<path d="M214.207 170.81C213.978 170.836 213.749 170.858 213.519 170.878C213.386 170.89 213.253 170.903 213.12 170.912C212.888 170.93 212.656 170.943 212.424 170.954C212.308 170.96 212.193 170.968 212.078 170.972C211.742 170.985 211.405 170.993 211.069 170.994C211.009 170.994 210.948 170.992 210.888 170.992C210.608 170.991 210.327 170.987 210.047 170.978C209.943 170.975 209.839 170.97 209.734 170.965C209.494 170.955 209.253 170.942 209.013 170.925C208.908 170.918 208.803 170.911 208.699 170.904C208.403 170.88 208.108 170.852 207.814 170.82C207.776 170.816 207.739 170.813 207.701 170.809C207.372 170.771 207.045 170.726 206.72 170.677C206.618 170.661 206.518 170.644 206.416 170.627C206.184 170.59 205.953 170.549 205.723 170.506C205.61 170.484 205.498 170.462 205.385 170.439C205.172 170.396 204.961 170.349 204.75 170.301C204.623 170.271 204.497 170.243 204.371 170.212C204.149 170.157 203.929 170.097 203.709 170.037C203.605 170.008 203.5 169.982 203.397 169.951C203.25 169.909 203.107 169.861 202.963 169.815C202.758 169.752 202.553 169.689 202.352 169.62C202.205 169.569 202.062 169.514 201.917 169.461C201.726 169.39 201.534 169.32 201.347 169.245C201.074 169.136 200.805 169.024 200.541 168.904C200.501 168.886 200.464 168.868 200.425 168.849C200.185 168.739 199.95 168.624 199.718 168.505C199.647 168.469 199.576 168.432 199.505 168.395C199.242 168.255 198.981 168.113 198.728 167.962C195.32 165.926 193.617 163.256 193.625 160.589L193.614 164.621C193.606 167.288 195.308 169.959 198.718 171.994C198.97 172.145 199.231 172.288 199.495 172.428C199.565 172.465 199.636 172.501 199.707 172.538C199.938 172.656 200.174 172.771 200.413 172.882C200.452 172.9 200.491 172.919 200.53 172.937C200.758 173.039 200.989 173.139 201.223 173.235C201.259 173.25 201.298 173.263 201.336 173.278C201.523 173.353 201.715 173.423 201.907 173.493C202.052 173.546 202.195 173.601 202.341 173.652C202.543 173.721 202.748 173.785 202.954 173.849C203.074 173.886 203.191 173.928 203.313 173.964L203.385 173.984C203.49 174.014 203.595 174.041 203.7 174.07C203.919 174.13 204.138 174.19 204.36 174.244C204.486 174.275 204.613 174.303 204.74 174.333C204.867 174.362 204.993 174.394 205.121 174.422C205.205 174.44 205.29 174.454 205.374 174.472C205.487 174.494 205.599 174.517 205.713 174.538C205.942 174.582 206.173 174.622 206.405 174.66C206.506 174.676 206.607 174.694 206.708 174.709C206.749 174.715 206.789 174.723 206.83 174.729C207.116 174.771 207.402 174.808 207.69 174.841C207.728 174.845 207.765 174.848 207.802 174.852C208.038 174.878 208.274 174.903 208.51 174.923C208.57 174.928 208.629 174.931 208.688 174.936C208.793 174.944 208.897 174.95 209.001 174.958C209.242 174.974 209.482 174.987 209.724 174.998C209.828 175.002 209.932 175.007 210.036 175.01C210.094 175.012 210.152 175.016 210.21 175.017C210.432 175.023 210.653 175.024 210.875 175.024C210.936 175.025 210.997 175.027 211.058 175.026C211.366 175.025 211.673 175.02 211.98 175.009L212.066 175.005C212.182 175 212.299 174.992 212.415 174.987C212.646 174.975 212.877 174.962 213.108 174.945C213.242 174.935 213.375 174.922 213.509 174.911C213.638 174.899 213.768 174.891 213.897 174.878C213.996 174.867 214.095 174.854 214.195 174.843C214.284 174.832 214.374 174.822 214.463 174.811C214.787 174.771 215.11 174.728 215.43 174.676L215.433 174.676L215.444 170.644C215.123 170.695 214.799 170.739 214.474 170.779C214.385 170.79 214.296 170.8 214.207 170.81Z" fill="#9F1830"/>
<path d="M223.101 153.316C216.327 149.271 205.379 149.273 198.649 153.318C191.92 157.361 191.954 163.917 198.729 167.962C203.267 170.671 209.682 171.566 215.444 170.644L210.913 160.64L227.632 163.32C229.152 159.865 227.639 156.025 223.101 153.316Z" fill="#EE1F59"/>
<path d="M230.481 169.06L230.492 165.028C230.448 165.13 230.4 165.231 230.35 165.333C230.333 165.367 230.315 165.4 230.298 165.433C230.265 165.498 230.231 165.563 230.196 165.628C230.11 165.785 230.015 165.941 229.916 166.096C229.897 166.125 229.878 166.155 229.858 166.185C229.757 166.339 229.651 166.491 229.537 166.641C229.502 166.688 229.466 166.734 229.43 166.78C229.39 166.83 229.35 166.881 229.309 166.932C229.268 166.981 229.225 167.031 229.183 167.081C229.141 167.131 229.098 167.181 229.054 167.231C229.01 167.28 228.965 167.329 228.92 167.378C228.874 167.427 228.829 167.477 228.782 167.526C228.735 167.574 228.687 167.622 228.639 167.67C228.591 167.719 228.542 167.768 228.492 167.816C228.461 167.847 228.427 167.877 228.395 167.907C228.277 168.02 228.154 168.131 228.027 168.241L227.947 168.31C227.801 168.435 227.65 168.558 227.493 168.679C227.457 168.707 227.421 168.734 227.385 168.762C227.242 168.87 227.096 168.977 226.945 169.083L226.871 169.136C226.701 169.253 226.524 169.369 226.344 169.483C226.244 169.546 226.144 169.609 226.041 169.671C225.756 169.843 225.462 170.006 225.162 170.163C225.062 170.216 224.957 170.263 224.855 170.314C224.652 170.415 224.45 170.517 224.242 170.612C224.117 170.669 223.987 170.72 223.86 170.775C223.669 170.857 223.479 170.94 223.283 171.017C223.145 171.071 223.003 171.121 222.862 171.173C222.673 171.242 222.484 171.313 222.291 171.378C222.007 171.474 221.721 171.566 221.43 171.651L221.412 171.657C221.108 171.746 220.8 171.828 220.489 171.905C220.394 171.929 220.297 171.951 220.201 171.974C219.979 172.026 219.756 172.076 219.531 172.123C219.424 172.146 219.318 172.168 219.211 172.188C218.91 172.247 218.609 172.303 218.305 172.352L218.294 176.384C218.523 176.348 218.75 176.308 218.977 176.266C219.052 176.252 219.126 176.235 219.2 176.221C219.307 176.2 219.413 176.178 219.519 176.156C219.744 176.109 219.969 176.059 220.191 176.005C220.287 175.983 220.383 175.962 220.478 175.938C220.789 175.86 221.098 175.778 221.402 175.689L221.416 175.685C221.672 175.609 221.927 175.531 222.178 175.447C222.213 175.436 222.246 175.422 222.28 175.41C222.472 175.346 222.661 175.275 222.85 175.206C222.991 175.153 223.133 175.104 223.273 175.049C223.468 174.972 223.658 174.889 223.849 174.807C223.976 174.753 224.105 174.701 224.23 174.644C224.44 174.549 224.643 174.447 224.846 174.345C224.947 174.295 225.051 174.248 225.151 174.195C225.451 174.039 225.745 173.875 226.03 173.703C226.114 173.653 226.197 173.602 226.279 173.551L226.333 173.515C226.514 173.401 226.69 173.285 226.86 173.168L226.934 173.116C227.085 173.01 227.231 172.902 227.374 172.794C227.41 172.767 227.446 172.739 227.482 172.712C227.639 172.59 227.79 172.467 227.936 172.342L228.016 172.274C228.143 172.163 228.265 172.052 228.384 171.939L228.442 171.888L228.481 171.849C228.531 171.8 228.58 171.751 228.628 171.702C228.676 171.654 228.724 171.607 228.77 171.558C228.818 171.509 228.863 171.459 228.909 171.41C228.954 171.361 228.999 171.312 229.043 171.263C229.087 171.213 229.13 171.163 229.172 171.113C229.215 171.063 229.257 171.014 229.298 170.964C229.339 170.913 229.379 170.863 229.419 170.811C229.448 170.774 229.479 170.738 229.507 170.7L229.526 170.674C229.639 170.523 229.746 170.371 229.847 170.218C229.867 170.188 229.886 170.158 229.905 170.128C230.004 169.973 230.098 169.817 230.185 169.66L230.195 169.642C230.228 169.583 230.257 169.523 230.287 169.464C230.304 169.432 230.322 169.399 230.339 169.366C230.389 169.264 230.437 169.162 230.481 169.06Z" fill="#BF7B1C"/>
<path d="M213.775 162.348L213.764 166.381L218.294 176.384L218.305 172.352L213.775 162.348Z" fill="#BF7B1C"/>
<path d="M213.775 162.348L218.304 172.352C221.142 171.899 223.821 171.005 226.041 169.671C228.262 168.336 229.746 166.729 230.492 165.027L213.775 162.348Z" fill="#F8A60E"/>
<path d="M219.183 135.12C219.183 136.617 218.861 137.82 218.222 138.722C217.59 139.625 216.73 140.128 215.655 140.233C215.516 140.246 215.377 140.252 215.238 140.252C214.277 140.252 213.24 139.926 212.14 139.265C210.876 138.514 209.706 137.435 208.638 136.042C207.563 134.65 206.71 133.127 206.083 131.472C205.464 129.832 205.148 128.269 205.148 126.785V126.739C205.148 125.236 205.47 124.033 206.109 123.131C206.741 122.229 207.601 121.725 208.676 121.614C209.75 121.509 210.926 121.83 212.184 122.588C213.449 123.34 214.625 124.412 215.693 125.811C216.768 127.204 217.621 128.727 218.247 130.381C218.873 132.035 219.189 133.617 219.183 135.12Z" fill="white"/>
<path d="M216.559 131.76L211.331 134.839C211.255 134.911 211.154 134.905 211.021 134.826C210.889 134.748 210.781 134.63 210.711 134.473L207.778 129.217C207.683 129.067 207.633 128.916 207.633 128.759C207.633 128.603 207.683 128.511 207.778 128.478L208.404 128.073C208.499 128.021 208.606 128.027 208.726 128.099C208.853 128.171 208.96 128.295 209.055 128.465L211.027 131.996L215.289 129.492C215.384 129.433 215.491 129.439 215.611 129.511C215.737 129.59 215.845 129.707 215.94 129.877L216.559 131.022C216.654 131.172 216.699 131.322 216.699 131.479C216.699 131.636 216.654 131.727 216.559 131.76ZM218.247 130.381C217.621 128.727 216.768 127.204 215.693 125.811C214.625 124.412 213.449 123.34 212.184 122.588C210.926 121.83 209.75 121.509 208.676 121.614C207.601 121.725 206.741 122.229 206.109 123.131C205.47 124.033 205.148 125.236 205.148 126.739V126.785C205.148 128.269 205.464 129.832 206.083 131.472C206.71 133.127 207.563 134.65 208.638 136.042C209.706 137.435 210.876 138.514 212.14 139.265C213.24 139.926 214.277 140.252 215.238 140.252C215.377 140.252 215.516 140.246 215.655 140.233C216.73 140.128 217.59 139.625 218.222 138.722C218.861 137.82 219.183 136.617 219.183 135.12C219.189 133.617 218.873 132.035 218.247 130.381Z" fill="#3AA2A9"/>
<path d="M219.183 112.033C219.183 113.537 218.861 114.733 218.222 115.635C217.59 116.538 216.73 117.041 215.655 117.152C215.523 117.165 215.39 117.172 215.257 117.172C214.29 117.172 213.246 116.845 212.14 116.178C210.876 115.426 209.706 114.354 208.638 112.962C207.563 111.569 206.71 110.04 206.083 108.385C205.458 106.751 205.148 105.189 205.148 103.698V103.652C205.148 102.149 205.47 100.946 206.103 100.044C206.741 99.1481 207.595 98.6382 208.676 98.5336C209.75 98.4225 210.926 98.7431 212.184 99.501C213.449 100.253 214.619 101.332 215.693 102.724C216.768 104.117 217.621 105.64 218.247 107.293C218.873 108.947 219.189 110.53 219.183 112.033Z" fill="#EE1F59"/>
<path d="M216.339 107.639L214.612 104.545L212.17 105.984L209.746 101.64L208.008 102.666L210.433 107.007L207.992 108.446L209.718 111.539L212.159 110.101L214.585 114.444L216.323 113.42L213.898 109.076L216.339 107.639Z" fill="white"/>
</svg>
