<svg width="228" height="222" viewBox="0 0 228 222" fill="none" xmlns="http://www.w3.org/2000/svg">
<path d="M210.588 159.589C219.944 164.416 219.993 172.244 210.698 177.07L131.209 218.352C121.914 223.179 106.797 223.176 97.4417 218.35L17.4372 177.071C8.08162 172.244 8.02757 164.419 17.3224 159.592L96.8119 118.31C106.106 113.483 121.228 113.483 130.584 118.31L210.588 159.589Z" fill="#1C3E76"/>
<path d="M220.367 150.592L132.928 196.002C122.704 201.312 106.075 201.309 95.7844 196L7.77879 150.593C2.59903 147.92 0.011574 144.412 0.0225069 140.91L3.45008e-05 145.794C-0.0108984 149.297 2.57656 152.805 7.75632 155.477L95.762 200.884C106.053 206.193 122.682 206.196 132.905 200.886L220.344 155.477C225.423 152.839 227.966 149.386 227.977 145.929L227.999 141.044C227.989 144.502 225.446 147.955 220.367 150.592Z" fill="#002266"/>
<path d="M220.246 131.362C230.537 136.672 230.591 145.282 220.367 150.592L132.928 196.002C122.704 201.311 106.075 201.308 95.7845 195.999L7.77891 150.593C-2.51199 145.283 -2.57152 136.676 7.65257 131.366L95.0915 85.9565C105.316 80.647 121.949 80.647 132.24 85.9565L220.246 131.362Z" fill="white"/>
<path d="M134.126 33.7894L137.628 31.9711L137.167 34.4657L133.666 36.2835L134.126 33.7894Z" fill="#0082E4"/>
<path d="M116.354 9.55663L119.855 7.73828L122.505 8.60023L119.004 10.418L116.354 9.55663Z" fill="#005580"/>
<path d="M125.604 11.7641L129.105 9.9458C127.765 10.6417 126.934 12.1213 126.927 14.2246C126.914 18.4546 130.245 23.6105 134.368 25.7377L130.867 27.5561C126.744 25.4289 123.413 20.2724 123.427 16.043C123.433 13.9396 124.264 12.46 125.604 11.7641Z" fill="#0082E4"/>
<path d="M139.676 26.2019L136.175 28.0203C134.818 28.7248 132.939 28.626 130.866 27.5567L134.367 25.7384C136.44 26.8077 138.319 26.907 139.676 26.2019Z" fill="#0082E4"/>
<path d="M144.946 34.4729L141.445 36.2912C142.076 35.9639 142.645 35.4548 143.142 34.7345L146.643 32.9161C146.146 33.6364 145.577 34.145 144.946 34.4729Z" fill="#0082E4"/>
<path d="M120.331 3.48987L123.832 1.67153C124.518 1.31546 125.276 1.17433 126.094 1.21178L122.593 3.03013C121.776 2.99322 121.017 3.1338 120.331 3.48987Z" fill="#005580"/>
<path d="M141.59 31.6747L145.092 29.8563L146.643 32.9155L143.142 34.7338L141.59 31.6747Z" fill="#005580"/>
<path d="M122.593 3.03026L126.094 1.21191L128.314 3.9226L124.812 5.74095L122.593 3.03026Z" fill="#0082E4"/>
<path d="M142.773 29.3651L146.274 27.5468C145.997 28.4358 145.598 29.2082 145.092 29.8563L141.591 31.6747C142.097 31.0266 142.496 30.2542 142.773 29.3651Z" fill="#005580"/>
<path d="M124.812 5.74066L128.313 3.92231C129.195 3.85935 130.148 3.93914 131.148 4.17363L127.647 5.99197C126.647 5.75748 125.694 5.67769 124.812 5.74066Z" fill="#005580"/>
<path d="M141.615 19.1363L145.116 17.318C145.621 18.4877 146.014 19.6694 146.288 20.8385L142.787 22.6569C142.513 21.4872 142.12 20.306 141.615 19.1363Z" fill="#005580"/>
<path d="M134.176 9.35314L137.677 7.53479C138.679 8.32889 139.629 9.23101 140.512 10.2004L137.011 12.0188C136.129 11.0494 135.178 10.1472 134.176 9.35314Z" fill="#005580"/>
<path d="M145.442 24.4952L148.943 22.6769C149.606 25.2128 149.528 27.0528 148.924 28.4087L145.423 30.2271C146.028 28.8706 146.105 27.0311 145.442 24.4952Z" fill="#005580"/>
<path d="M142.787 22.6562L146.288 20.8379L148.943 22.6769L145.441 24.4952L142.787 22.6562Z" fill="#0082E4"/>
<path d="M128.111 3.50023L131.612 1.68188C132.648 1.88 133.613 2.2225 134.516 2.68876C135.473 3.18324 136.363 3.81613 137.194 4.56193L133.693 6.38027C132.862 5.63448 131.972 5.00104 131.015 4.5071C130.111 4.04085 129.148 3.69835 128.111 3.50023Z" fill="#005580"/>
<path d="M133.693 6.38036L137.194 4.56201L137.677 7.53487L134.176 9.35321L133.693 6.38036Z" fill="#0082E4"/>
<path d="M143.149 17.6438L146.65 15.8254L145.116 17.3181L141.615 19.1365L143.149 17.6438Z" fill="#0082E4"/>
<path d="M137.011 12.0187L140.513 10.2003L142.714 9.73352L139.213 11.5519L137.011 12.0187Z" fill="#0082E4"/>
<path d="M145.424 30.227L142.774 29.3656C142.497 30.2547 142.097 31.0271 141.591 31.6752L143.142 34.7344C142.105 36.2379 140.753 36.8209 139.184 36.7541L136.965 34.0391C136.083 34.1058 135.131 34.0222 134.127 33.7899L133.666 36.284C132.629 36.0837 131.663 35.7402 130.759 35.2734C129.803 34.78 128.915 34.1487 128.084 33.404L127.601 30.4311C126.599 29.6327 125.649 28.7349 124.767 27.7617L122.561 28.2263C120.583 26.1409 119.342 24.1185 118.63 22.1362L120.159 20.6419C119.659 19.4744 119.261 18.2949 118.991 17.1236L116.336 15.2889C115.673 12.753 115.751 10.9092 116.355 9.55709L119.005 10.4185C119.282 9.52941 119.681 8.75702 120.187 8.10893L118.636 5.04542C119.674 3.5419 121.026 2.95894 122.594 3.03005L124.814 5.74074C125.696 5.67777 126.648 5.75756 127.648 5.99205L128.113 3.49956C129.149 3.69768 130.114 4.04018 131.017 4.50643C131.975 5.00037 132.864 5.63381 133.695 6.3796L134.178 9.35246C135.18 10.1466 136.13 11.0487 137.013 12.0181L139.214 11.5513C141.197 13.6383 142.433 15.6629 143.15 17.643L141.616 19.1351C142.121 20.3049 142.514 21.4865 142.788 22.6557L145.443 24.4941C146.105 27.0311 146.028 28.8706 145.424 30.227ZM130.867 27.5565C134.986 29.6815 138.339 27.9745 138.352 23.7445C138.366 19.5108 135.035 14.3543 130.915 12.2292C126.792 10.102 123.439 11.8097 123.426 16.0434C123.412 20.2728 126.743 25.4293 130.867 27.5565Z" fill="#E7EDF7"/>
<path d="M139.212 11.5519L142.713 9.73352C144.696 11.8205 145.932 13.8451 146.649 15.8252L143.148 17.6436C142.431 15.6635 141.194 13.6389 139.212 11.5519Z" fill="#005580"/>
<path d="M160.555 19.9115L162.691 18.802L162.41 20.324L160.274 21.434L160.555 19.9115Z" fill="#8F65E0"/>
<path d="M149.709 5.12423L151.845 4.01477L153.462 4.54073L151.326 5.65019L149.709 5.12423Z" fill="#9070AE"/>
<path d="M160.701 14.9987C158.186 13.7003 156.153 10.5543 156.161 7.97281C156.165 6.68911 156.672 5.78645 157.49 5.36145L155.354 6.47091C154.536 6.89537 154.029 7.79857 154.025 9.08227C154.017 11.6632 156.049 14.8098 158.565 16.1081C159.83 16.7606 160.976 16.8214 161.804 16.3909L163.941 15.2815C163.113 15.7114 161.966 15.6511 160.701 14.9987Z" fill="#8F65E0"/>
<path d="M167.156 20.3289L165.02 21.4384C165.404 21.2386 165.752 20.9281 166.056 20.4885L168.192 19.379C167.889 19.8181 167.541 20.1286 167.156 20.3289Z" fill="#8F65E0"/>
<path d="M152.136 1.42246L154.272 0.312994C154.69 0.0953352 155.154 0.00957545 155.652 0.0323726L153.516 1.14183C153.018 1.11904 152.554 1.2048 152.136 1.42246Z" fill="#9070AE"/>
<path d="M165.109 18.6212L167.246 17.5117L168.192 19.3784L166.056 20.4878L165.109 18.6212Z" fill="#9070AE"/>
<path d="M153.517 1.14181L155.653 0.0323486L157.007 1.68623L154.871 2.79569L153.517 1.14181Z" fill="#8F65E0"/>
<path d="M165.831 17.2122L167.967 16.1028C167.798 16.645 167.554 17.1167 167.246 17.5119L165.109 18.6213C165.418 18.2262 165.662 17.7545 165.831 17.2122Z" fill="#9070AE"/>
<path d="M154.87 2.79572L157.006 1.68626C157.544 1.64772 158.126 1.69657 158.736 1.83986L156.6 2.94933C155.99 2.80603 155.408 2.75772 154.87 2.79572Z" fill="#9070AE"/>
<path d="M165.124 10.9702L167.26 9.86072C167.568 10.5745 167.808 11.2953 167.976 12.0091L165.84 13.1185C165.672 12.4048 165.431 11.6839 165.124 10.9702Z" fill="#9070AE"/>
<path d="M160.584 4.99997L162.721 3.8905C163.332 4.37521 163.912 4.9256 164.45 5.51724L162.314 6.6267C161.776 6.03506 161.196 5.48468 160.584 4.99997Z" fill="#9070AE"/>
<path d="M167.459 14.24L169.595 13.1305C169.999 14.678 169.952 15.8005 169.584 16.6282L167.448 17.7377C167.816 16.9105 167.863 15.7875 167.459 14.24Z" fill="#9070AE"/>
<path d="M165.839 13.1179L167.975 12.0084L169.596 13.1304L167.459 14.2398L165.839 13.1179Z" fill="#8F65E0"/>
<path d="M156.884 1.42843L159.02 0.31897C159.653 0.440012 160.241 0.648986 160.792 0.933407C161.376 1.2352 161.919 1.62112 162.427 2.07652L160.29 3.18598C159.783 2.73058 159.24 2.34466 158.656 2.04287C158.105 1.75845 157.517 1.54947 156.884 1.42843Z" fill="#9070AE"/>
<path d="M160.29 3.18588L162.426 2.07642L162.721 3.89042L160.584 4.99988L160.29 3.18588Z" fill="#8F65E0"/>
<path d="M166.06 10.0593L168.196 8.94983L167.26 9.86009L165.124 10.9701L166.06 10.0593Z" fill="#8F65E0"/>
<path d="M162.314 6.62685L164.451 5.51739L165.794 5.23242L163.658 6.34188L162.314 6.62685Z" fill="#8F65E0"/>
<path d="M167.448 17.7375L165.831 17.2115C165.662 17.7538 165.418 18.2254 165.11 18.6206L166.056 20.4872C165.423 21.4046 164.598 21.7606 163.641 21.7194L162.287 20.0628C161.749 20.1035 161.168 20.0525 160.555 19.9108L160.274 21.4328C159.64 21.3106 159.051 21.1011 158.499 20.8162C157.916 20.5149 157.374 20.1301 156.867 19.6752L156.573 17.8612C155.961 17.3738 155.382 16.8261 154.843 16.2323L153.497 16.5156C152.29 15.2433 151.533 14.009 151.098 12.7992L152.031 11.8873C151.726 11.1746 151.484 10.4549 151.318 9.74055L149.698 8.62078C149.294 7.07329 149.341 5.94808 149.709 5.12304L151.326 5.64901C151.495 5.10676 151.739 4.63508 152.048 4.23993L151.102 2.37056C151.734 1.45325 152.559 1.09718 153.516 1.1406L154.87 2.79502C155.408 2.75648 155.99 2.80533 156.6 2.94863L156.884 1.42773C157.516 1.54878 158.105 1.75775 158.656 2.04217C159.24 2.34396 159.782 2.72989 160.29 3.18529L160.585 4.99929C161.196 5.484 161.776 6.03439 162.314 6.62603L163.658 6.34106C164.868 7.61499 165.622 8.85038 166.06 10.0586L165.124 10.9694C165.432 11.6832 165.671 12.404 165.839 13.1178L167.459 14.2397C167.864 15.7872 167.817 16.9103 167.448 17.7375ZM158.565 16.108C161.078 17.4047 163.125 16.3631 163.133 13.7816C163.14 11.1979 161.108 8.05139 158.594 6.75467C156.078 5.45632 154.032 6.49847 154.024 9.08215C154.016 11.6637 156.049 14.8102 158.565 16.108Z" fill="white"/>
<path d="M163.658 6.34188L165.794 5.23242C167.004 6.50635 167.758 7.74174 168.195 8.94999L166.059 10.0594C165.622 8.8512 164.868 7.61581 163.658 6.34188Z" fill="#9070AE"/>
<path d="M191.892 40.08L193.298 39.3504C193.674 39.155 194.194 39.1827 194.77 39.4796L193.364 40.2091C192.789 39.9122 192.268 39.8845 191.892 40.08Z" fill="#002266"/>
<path d="M226.871 78.5063L225.465 79.2358C225.836 79.0431 226.067 78.6333 226.068 78.0498L227.474 77.3203C227.473 77.9038 227.243 78.3136 226.871 78.5063Z" fill="#002266"/>
<path d="M226.128 59.2479L227.534 58.5184L227.474 77.3201L226.069 78.0502L226.128 59.2479Z" fill="#002266"/>
<path d="M193.364 40.2092L194.77 39.4791L225.466 55.3172L224.06 56.0467L193.364 40.2092Z" fill="#002266"/>
<path d="M224.061 56.0466L225.466 55.3171C226.612 55.9082 227.538 57.3417 227.534 58.5185L226.129 59.2486C226.133 58.0718 225.207 56.6377 224.061 56.0466Z" fill="#002266"/>
<path d="M224.06 56.0466C225.206 56.6377 226.132 58.0712 226.128 59.2479L226.069 78.0502C226.065 79.2264 225.133 79.697 223.987 79.1059L193.291 63.2684C192.146 62.6773 191.224 61.2503 191.228 60.0735L191.287 41.2713C191.291 40.0951 192.219 39.618 193.364 40.2091L224.06 56.0466Z" fill="white"/>
<path d="M199.01 53.9683L198.987 61.2233L196.522 59.951L196.545 52.696L199.01 53.9683Z" fill="#A71B2C"/>
<path d="M203.728 52.6922L203.692 63.6511L201.227 62.3793L201.262 51.4204L203.728 52.6922Z" fill="#FFB600"/>
<path d="M208.312 57.2446L208.284 66.0199L205.823 64.7503L205.851 55.9745L208.312 57.2446Z" fill="#A71B2C"/>
<path d="M212.925 53.8854L212.88 68.3914L210.415 67.1191L210.46 52.6136L212.925 53.8854Z" fill="#FFB600"/>
<path d="M222.282 58.7129L222.236 73.219L219.771 71.9467L219.817 57.4412L222.282 58.7129Z" fill="#FFB600"/>
<path d="M217.624 58.5358L217.586 70.8192L215.12 69.5469L215.159 57.2635L217.624 58.5358Z" fill="#A71B2C"/>
<path d="M203.745 47.2286L203.743 47.9733L196.126 44.0435L196.128 43.2988L203.745 47.2286Z" fill="#002266"/>
<path d="M222.593 74.7556L222.59 75.4438L196.515 61.9903L196.518 61.302L222.593 74.7556Z" fill="#002266"/>
<path d="M203.167 97.3355L205.395 96.1788L212.212 107.933L209.984 109.091L203.167 97.3355Z" fill="#002266"/>
<path d="M213.06 107.581L210.832 108.738C212.69 107.773 213.87 105.761 213.972 102.91L216.2 101.753C216.098 104.603 214.919 106.615 213.06 107.581Z" fill="#EFB44B"/>
<path d="M213.972 102.911C213.855 106.173 212.327 108.337 209.984 109.091L203.167 97.3361L213.972 102.911Z" fill="#FFB600"/>
<path d="M203.167 97.3355L205.395 96.1788L216.2 101.753L213.972 102.911L203.167 97.3355Z" fill="#EFB44B"/>
<path d="M203.204 85.8522L203.167 97.336L209.985 109.091C208.117 109.7 205.723 109.404 203.133 108.068C197.158 104.985 192.334 97.5135 192.354 91.3827C192.373 85.247 197.228 82.7691 203.204 85.8522Z" fill="white"/>
<path d="M195.51 85.1787L197.738 84.0215C199.704 83.0005 202.427 83.1443 205.432 84.6951L203.203 85.8523C200.198 84.3015 197.476 84.1577 195.51 85.1787Z" fill="#002266"/>
<path d="M203.203 85.8522L205.432 84.6949L205.395 96.1787L203.167 97.3354L203.203 85.8522Z" fill="#002266"/>
<path d="M205.993 82.9777C212.523 86.3468 217.805 94.5222 217.783 101.228C217.783 101.368 217.783 101.508 217.772 101.632L205.953 95.534L205.993 82.9777Z" fill="#A71B2C"/>
<path d="M205.992 82.9777L208.221 81.8204C214.751 85.1895 220.032 93.365 220.011 100.071C220.011 100.211 220.011 100.351 220 100.475L217.771 101.632C217.782 101.508 217.782 101.368 217.783 101.228C217.804 94.5222 212.523 86.3473 205.992 82.9777Z" fill="#E24B65"/>
<path d="M66.305 30.7786L64.8996 30.0486C64.5236 29.8532 64.003 29.8808 63.4272 30.1777L64.8327 30.9078C65.4085 30.6109 65.9291 30.5832 66.305 30.7786Z" fill="#002266"/>
<path d="M33.4005 72.4548L34.806 73.1848C34.4349 72.9922 34.2047 72.5823 34.2029 71.9989L32.7974 71.2688C32.7986 71.8523 33.0288 72.2621 33.4005 72.4548Z" fill="#002266"/>
<path d="M34.1428 48.8765L32.7373 48.147L32.7968 71.2687L34.2023 71.9988L34.1428 48.8765Z" fill="#002266"/>
<path d="M64.8319 30.9079L63.427 30.1779L34.8047 44.9455L36.2102 45.675L64.8319 30.9079Z" fill="#002266"/>
<path d="M36.2109 45.6749L34.8055 44.9454C33.6599 45.5365 32.7337 46.97 32.7373 48.1468L34.1428 48.8769C34.1392 47.7001 35.0654 46.266 36.2109 45.6749Z" fill="#002266"/>
<path d="M36.2102 45.6751C35.0647 46.2662 34.1385 47.6997 34.1421 48.8765L34.2016 71.9988C34.2053 73.175 35.1376 73.6456 36.2831 73.0545L64.9049 58.2868C66.0504 57.6957 66.9724 56.2687 66.9688 55.092L66.9092 31.9697C66.9056 30.7935 65.9775 30.3163 64.832 30.9074L36.2102 45.6751Z" fill="white"/>
<path d="M42.5365 45.4319C42.5821 45.408 42.6282 45.3852 42.6738 45.3635L42.6355 46.8844C42.607 46.8985 42.5784 46.9126 42.5499 46.9273C42.4181 46.9951 42.2857 47.0739 42.1527 47.1623C42.0852 47.2074 42.0184 47.2551 41.951 47.3051C41.8544 47.3778 41.7579 47.456 41.6613 47.5396C40.2358 48.7804 39.4802 50.7724 39.9782 51.9856C40.0214 52.0909 40.0724 52.1869 40.1307 52.2738C40.5723 52.9305 41.4287 53.0527 42.3598 52.6472C42.4302 52.6168 42.5007 52.5832 42.5718 52.5462C42.59 52.5365 42.6088 52.5267 42.627 52.5169C42.8305 52.4078 43.0358 52.2738 43.2399 52.1153C43.2678 52.0936 43.2958 52.0713 43.3237 52.0485C43.3699 52.0111 43.416 51.9725 43.4616 51.9329C44.256 51.2398 44.8391 50.3203 45.1179 49.4279L46.4857 49.2635C46.0594 50.6329 45.161 52.0463 43.9432 53.1064C43.8977 53.146 43.8521 53.1851 43.806 53.2231C43.789 53.2372 43.772 53.2513 43.7549 53.2649C43.3772 53.5743 42.9945 53.8283 42.6173 54.027C42.6033 54.0346 42.5888 54.0422 42.5748 54.0492C42.5475 54.0634 42.5201 54.0769 42.4934 54.0905C40.8565 54.902 39.332 54.6653 38.6809 53.3718C38.6511 53.3127 38.6232 53.2519 38.597 53.1889C38.4422 52.8106 38.3662 52.3834 38.362 51.9264C38.3462 50.1336 39.4352 47.8864 41.1808 46.3655C41.6291 45.9752 42.0865 45.6637 42.5365 45.4319Z" fill="#002266"/>
<path d="M42.5614 48.8221C43.0509 48.5697 43.4494 48.7727 43.4512 49.2775C43.453 49.7801 43.0564 50.3934 42.5674 50.6458C42.0761 50.8993 41.677 50.6963 41.6758 50.1937C41.6734 49.6894 42.07 49.0755 42.5614 48.8221Z" fill="#002266"/>
<path d="M46.5275 46.2815C46.867 47.1087 46.8294 48.1704 46.4856 49.2641L45.1177 49.4286C45.3401 48.7181 45.3668 48.0249 45.1463 47.4843C44.7612 46.5464 43.7396 46.3477 42.6348 46.8845L42.673 45.3636C44.3676 44.5397 45.9371 44.8393 46.5275 46.2815Z" fill="#A71B2C"/>
<path d="M53.4122 53.6692C53.9036 53.4157 54.3026 53.6187 54.3038 54.1235C54.3056 54.6261 53.909 55.2395 53.4176 55.493C52.9281 55.7454 52.5297 55.5424 52.5278 55.0397C52.5266 54.5349 52.9226 53.9216 53.4122 53.6692Z" fill="#002266"/>
<path d="M53.6316 50.0662C54.8263 49.5169 55.9846 49.5087 56.7627 50.166C58.1633 51.3499 57.7989 54.2451 55.95 56.6334C55.8571 56.7533 55.7623 56.8695 55.6657 56.9824C55.0019 57.7575 54.2566 58.36 53.5132 58.7584C53.4858 58.7731 53.4585 58.7877 53.4306 58.8018C53.4105 58.8121 53.3905 58.8224 53.371 58.8322C52.2607 59.3891 51.1662 59.4863 50.3633 59.0216C50.3129 58.9923 50.2637 58.9614 50.2157 58.9277C50.1956 58.9136 50.1762 58.8995 50.1568 58.8849C50.127 58.8621 50.0972 58.8387 50.0687 58.8143C49.7535 58.5472 49.5257 58.195 49.3872 57.7754L50.7884 56.6328C50.8789 56.9026 51.0271 57.1349 51.2336 57.3091C51.2835 57.3509 51.3351 57.3889 51.3897 57.4226C51.4007 57.4291 51.4116 57.4356 51.4225 57.4421C51.9176 57.7309 52.5857 57.6896 53.2708 57.3759C53.3224 57.352 53.3747 57.3271 53.4263 57.2999C53.4439 57.2907 53.4621 57.2815 53.4798 57.2717C54.0039 56.9905 54.5293 56.5547 54.9873 55.9891C55.014 55.956 55.0401 55.9229 55.0662 55.8892C55.7811 54.9648 56.1553 53.9238 56.1504 53.0694C56.1474 52.4848 55.9664 51.9871 55.5965 51.6734C55.0887 51.2457 54.3331 51.2516 53.5563 51.6082L53.6316 50.0662Z" fill="#9070AE"/>
<path d="M53.6168 60.6642C53.7899 60.5747 53.929 60.6479 53.9296 60.826C53.9302 61.0018 53.7917 61.2179 53.6186 61.3074L41.1551 67.7379C40.982 67.8274 40.8405 67.7552 40.8398 67.5794C40.8392 67.4013 40.9795 67.1842 41.1526 67.0952L53.6168 60.6642Z" fill="#002266"/>
<path d="M42.5946 59.2508C43.0841 58.9984 43.4825 59.2014 43.4844 59.7062C43.4862 60.2088 43.0896 60.8221 42.6006 61.0745C42.1093 61.328 41.7102 61.125 41.709 60.6224C41.7072 60.1176 42.1032 59.5043 42.5946 59.2508Z" fill="#002266"/>
<path d="M45.0687 62.2958C44.3932 63.1415 43.5052 63.9209 42.6087 64.3861C42.0882 64.6531 41.5847 64.8116 41.1255 64.8708C39.5372 65.0787 38.4026 64.0843 38.3965 62.2393C38.3911 61.1809 38.7616 60.0237 39.3763 58.9549C40.1403 57.6191 41.2968 56.4272 42.5808 55.7595L42.5863 57.263C41.745 57.6984 40.998 58.4751 40.4938 59.3457C40.1009 60.0383 39.8573 60.795 39.8573 61.4827C39.8628 62.6844 40.5989 63.3325 41.6339 63.2039C41.9382 63.1642 42.265 63.0606 42.6027 62.8874C43.2003 62.5759 43.7537 62.0912 44.208 61.5223L44.6884 61.9489L45.0687 62.2958Z" fill="#002266"/>
<path d="M42.5879 57.2634C42.6026 57.2558 42.6173 57.2483 42.632 57.2413L42.5879 57.2634Z" fill="#002266"/>
<path d="M43.7552 53.2654C43.5189 53.4586 43.2808 53.6307 43.0439 53.7805C43.2814 53.6301 43.5189 53.4586 43.7552 53.2654Z" fill="#A71B2C"/>
<path d="M53.5574 51.609C53.5064 51.6324 53.4554 51.6573 53.4037 51.6839C52.8316 51.9792 52.2558 52.4596 51.7626 53.0968C50.8309 54.2985 50.478 55.7033 50.7896 56.6331L49.3883 57.7756C48.9079 56.3519 49.4466 54.1998 50.8801 52.3483C51.6314 51.3767 52.5151 50.6358 53.3916 50.1831C53.4718 50.1419 53.5519 50.1028 53.6315 50.0664L53.5574 51.609Z" fill="#002266"/>
<path d="M53.379 43.2409C53.8704 42.9874 54.2694 43.1904 54.2706 43.6952C54.2724 44.1978 53.8758 44.8111 53.3844 45.0646C52.8949 45.317 52.4965 45.114 52.4946 44.6114C52.4934 44.1071 52.89 43.4932 53.379 43.2409Z" fill="#002266"/>
<path d="M51.2825 43.4236C51.2935 43.409 51.3044 43.3889 51.3159 43.3743C51.305 43.3889 51.2941 43.409 51.2825 43.4236C50.8841 44.1211 50.646 44.8729 50.646 45.5655C50.6515 46.7672 51.3876 47.4153 52.4226 47.2818L51.9136 48.9536C50.3253 49.1566 49.1901 48.1671 49.1846 46.3221C49.1792 45.2637 49.5442 44.101 50.1643 43.0328L51.2825 43.4236Z" fill="#002266"/>
<path d="M53.3708 39.8418C55.691 38.6449 57.5751 39.6062 57.5824 41.9885C57.5897 44.3692 55.7183 47.2661 53.3981 48.4629C52.874 48.7332 52.3741 48.895 51.9106 48.9514L52.4221 47.2823C52.7239 47.2438 53.0507 47.1407 53.3933 46.9637C54.9038 46.1843 56.1253 44.2937 56.1204 42.7425C56.1156 41.189 54.8862 40.5632 53.3757 41.3426C52.5356 41.7763 51.7867 42.5525 51.285 43.4237L50.1626 43.0339C50.9303 41.6965 52.0825 40.5067 53.3708 39.8418Z" fill="#FFB600"/>
<path d="M62.3536 36.3314C63.006 35.9949 63.538 36.2657 63.5398 36.9355C63.5423 37.6075 63.0139 38.4233 62.3615 38.7598C61.7092 39.0964 61.1771 38.8277 61.1753 38.1557C61.1729 37.4859 61.7013 36.6679 62.3536 36.3314Z" fill="#002266"/>
<path d="M62.3674 40.6946C63.0197 40.358 63.5518 40.6289 63.5536 41.2987C63.5555 41.9706 63.0276 42.7865 62.3747 43.123C61.7224 43.4595 61.1903 43.1908 61.1885 42.5189C61.1867 41.8491 61.7151 41.0311 62.3674 40.6946Z" fill="#002266"/>
<path d="M62.3811 45.0573C63.0334 44.7208 63.5655 44.9917 63.5673 45.6615C63.5691 46.3313 63.0413 47.1493 62.3884 47.4858C61.736 47.8223 61.204 47.5515 61.2022 46.8817C61.1997 46.2119 61.7282 45.3939 62.3811 45.0573Z" fill="#002266"/>
<path d="M62.3943 49.4203C63.0466 49.0837 63.5787 49.3546 63.5805 50.0244C63.5823 50.6942 63.0545 51.5122 62.4016 51.8487C61.7492 52.1852 61.2172 51.9144 61.2153 51.2446C61.2135 50.5748 61.7419 49.7573 62.3943 49.4203Z" fill="#002266"/>
<path d="M42.5835 55.7606C44.9037 54.5632 46.7878 55.5272 46.7951 57.9073C46.7993 59.3457 46.1185 60.9719 45.0689 62.2958L44.2089 61.5212C44.8922 60.6587 45.3362 59.5976 45.3331 58.6618C45.3283 57.1105 44.0989 56.4847 42.5884 57.2636L42.5835 55.7606Z" fill="#005580"/>
<path d="M66.4143 65.9899L65.2414 65.3809C64.9274 65.2181 64.4931 65.2409 64.0127 65.4884L65.1856 66.0974C65.666 65.8499 66.1003 65.8271 66.4143 65.9899Z" fill="#002266"/>
<path d="M38.9503 94.3245L40.1232 94.9335C39.8134 94.7723 39.6215 94.4304 39.6196 93.9435L38.4468 93.3345C38.448 93.8219 38.6399 94.1638 38.9503 94.3245Z" fill="#002266"/>
<path d="M39.5698 81.0957L38.397 80.4867L38.4468 93.3345L39.6196 93.9441L39.5698 81.0957Z" fill="#002266"/>
<path d="M65.186 66.0979L64.0131 65.4889L40.1235 77.8146L41.2964 78.4236L65.186 66.0979Z" fill="#002266"/>
<path d="M41.296 78.4235L40.1232 77.8145C39.1671 78.3078 38.3939 79.5047 38.397 80.4866L39.5698 81.0956C39.5668 80.1137 40.3394 78.9169 41.296 78.4235Z" fill="#002266"/>
<path d="M41.296 78.4236C40.34 78.917 39.5668 80.1138 39.5698 81.0958L39.6196 93.9441C39.6227 94.926 40.4007 95.319 41.3574 94.8256L65.247 82.4994C66.203 82.006 66.9726 80.8146 66.9695 79.8327L66.9197 66.9843C66.9167 66.0024 66.1417 65.604 65.1856 66.0974L41.296 78.4236Z" fill="white"/>
<path d="M64.5857 78.9506L64.5899 80.2467L44.7953 90.4593L44.791 89.1631L64.5857 78.9506Z" fill="#002266"/>
<path d="M64.5661 72.6353L64.5704 73.9314L44.7757 84.1446L44.7715 82.8484L64.5661 72.6353Z" fill="#002266"/>
<path d="M64.5764 75.7926L64.58 77.0931L44.7854 87.3063L44.7817 86.0057L64.5764 75.7926Z" fill="#002266"/>
<path d="M56.9945 73.387L56.9988 74.6875L44.7649 80.9996L44.7612 79.6991L56.9945 73.387Z" fill="#002266"/>
<path d="M43.1859 80.7635C43.4009 80.6528 43.5752 80.7413 43.5764 80.9622C43.577 81.1831 43.4039 81.4512 43.1889 81.5625C42.9739 81.6738 42.7996 81.5848 42.7983 81.3639C42.7971 81.1429 42.9708 80.8748 43.1859 80.7635Z" fill="#002266"/>
<path d="M43.1956 83.9084C43.4106 83.7971 43.585 83.8905 43.5862 84.1114C43.5868 84.328 43.4137 84.6005 43.1987 84.7117C42.9836 84.823 42.8093 84.7296 42.8081 84.5131C42.8075 84.2916 42.9806 84.0191 43.1956 83.9084Z" fill="#002266"/>
<path d="M43.206 87.0702C43.421 86.9594 43.5953 87.0479 43.5959 87.2688C43.5965 87.4897 43.4234 87.7579 43.2084 87.8692C42.9934 87.9799 42.8191 87.8914 42.8179 87.6705C42.8173 87.4496 42.991 87.1814 43.206 87.0702Z" fill="#002266"/>
<path d="M43.2151 90.2235C43.4302 90.1122 43.6051 90.2055 43.6057 90.4265C43.6063 90.643 43.4332 90.9155 43.2182 91.0268C43.0032 91.1381 42.8289 91.0447 42.8276 90.8281C42.827 90.6072 43.0001 90.3347 43.2151 90.2235Z" fill="#002266"/>
<path d="M125.553 30.8172L131.404 27.7781C125.602 30.7916 122 37.1911 121.97 46.2769C121.913 64.57 136.357 86.9296 154.168 96.119L148.317 99.1581C130.506 89.9687 116.061 67.609 116.119 49.316C116.148 40.2297 119.751 33.8302 125.553 30.8172Z" fill="#002266"/>
<path d="M177.146 98.1138L171.295 101.153C165.417 104.206 157.281 103.783 148.317 99.1576L154.168 96.1185C163.133 100.744 171.269 101.166 177.146 98.1138Z" fill="#002266"/>
<path d="M131.402 27.7791C137.28 24.7259 145.415 25.1477 154.379 29.7722L148.528 32.8113C139.564 28.1862 131.428 27.7645 125.551 30.8182C127.307 29.9063 129.647 28.691 131.402 27.7791Z" fill="#002266"/>
<path d="M125.345 30.497L131.197 27.4579C137.127 24.3781 145.336 24.8042 154.381 29.4705L148.529 32.5096C139.484 27.8433 131.276 27.4172 125.345 30.497Z" fill="#002266"/>
<path d="M186.581 79.6123C186.552 88.6992 182.95 95.0992 177.148 98.1128L171.296 101.152C177.098 98.1377 180.7 91.7377 180.729 82.6514C180.787 64.3621 166.342 42.0025 148.527 32.8114L154.379 29.7723C172.193 38.9634 186.638 61.323 186.581 79.6123Z" fill="#002266"/>
<path d="M148.529 32.5102C166.506 41.7854 181.082 64.3464 181.023 82.8028C180.965 101.263 166.293 108.734 148.317 99.4589C130.343 90.1853 115.767 67.6243 115.826 49.1646C115.885 30.7081 130.555 23.2366 148.529 32.5102ZM148.317 99.1576C166.132 108.349 180.671 100.944 180.729 82.6514C180.787 64.3621 166.342 42.0025 148.527 32.8114C130.716 23.622 116.177 31.0267 116.119 49.316C116.061 67.6086 130.507 89.9682 148.317 99.1576Z" fill="#002266"/>
<path d="M180.726 82.6514C180.671 100.943 166.131 108.348 148.319 99.1571C144.08 96.9707 140.028 94.0326 136.319 90.5853C124.452 79.5499 116.072 63.2521 116.116 49.3182C116.177 31.0267 130.718 23.622 148.529 32.8125C152.111 34.6574 155.553 37.0365 158.769 39.8117C171.561 50.8266 180.776 68.0346 180.726 82.6514Z" fill="#1C3E76"/>
<path d="M178.95 81.0583C178.889 99.3546 164.348 106.759 146.537 97.5645C142.966 95.7245 139.529 93.3503 136.319 90.5853C124.452 79.5499 116.072 63.2521 116.116 49.3182C116.177 31.0267 130.718 23.622 148.529 32.8125C152.111 34.6574 155.553 37.0365 158.769 39.8117C170.631 50.8461 178.994 67.1347 178.95 81.0583Z" fill="white"/>
<path d="M177.355 98.4335L171.503 101.473C177.358 98.4319 180.993 91.9733 181.023 82.8028C181.081 64.3464 166.506 41.7853 148.529 32.5101L154.38 29.4711C172.357 38.7463 186.933 61.3073 186.874 79.7638C186.845 88.9342 183.21 95.3928 177.355 98.4335Z" fill="#002266"/>
<path d="M173.969 79.1666C173.952 84.1375 172.585 88.095 170.211 90.8502C165.711 96.1082 157.586 96.9886 148.342 92.2202C134.256 84.949 122.831 67.2709 122.876 52.8028C122.897 46.2785 125.244 41.5101 129.113 38.9036C133.818 35.7283 140.776 35.7576 148.508 39.7493C162.595 47.0205 174.019 64.7035 173.969 79.1666Z" fill="#002266"/>
<path d="M173.968 79.1666C173.952 84.1375 172.585 88.095 170.211 90.8502C165.506 94.0358 158.548 94.0059 150.811 90.0094C136.724 82.7431 125.3 65.0601 125.35 50.5969C125.366 45.6157 126.739 41.6588 129.114 38.9036C133.819 35.7283 140.776 35.7576 148.508 39.7493C162.595 47.0205 174.019 64.7035 173.968 79.1666Z" fill="white"/>
<path d="M149.602 42.1795C149.86 42.313 150.068 42.6354 150.068 42.9003L150.056 46.5337C150.056 46.7991 149.846 46.9061 149.587 46.7725C149.329 46.639 149.121 46.3166 149.122 46.0512L149.133 42.4177C149.134 42.1529 149.343 42.0459 149.602 42.1795Z" fill="#002266"/>
<path d="M138.648 39.5454C138.81 39.6289 138.967 39.7961 139.053 39.9942L140.811 44.0516C140.939 44.3496 140.861 44.6036 140.638 44.6215C140.564 44.6269 140.483 44.6063 140.404 44.5651C140.242 44.4815 140.084 44.3132 139.998 44.1129L138.24 40.0556C138.112 39.7603 138.19 39.5063 138.413 39.4884C138.487 39.4835 138.568 39.5046 138.648 39.5454Z" fill="#002266"/>
<path d="M130.611 43.639C130.69 43.6797 130.77 43.7421 130.844 43.8235L133.9 47.2192C134.126 47.4683 134.202 47.8016 134.072 47.9666C133.985 48.0752 133.827 48.0801 133.665 47.9965C133.585 47.9552 133.504 47.8928 133.43 47.8108L130.373 44.4152C130.151 44.1676 130.075 43.8344 130.205 43.6694C130.292 43.5603 130.449 43.5554 130.611 43.639Z" fill="#002266"/>
<path d="M131.178 55.1889C131.437 55.3225 131.645 55.6449 131.644 55.9103C131.644 56.1757 131.434 56.2826 131.175 56.1491L127.637 54.3237C127.378 54.1902 127.17 53.8678 127.171 53.6024C127.172 53.3369 127.381 53.23 127.64 53.3635L131.178 55.1889Z" fill="#002266"/>
<path d="M133.607 65.8787C133.769 65.9623 133.926 66.1306 134.013 66.3308C134.141 66.6261 134.063 66.8801 133.837 66.8964L130.769 67.1342C130.695 67.1401 130.616 67.1195 130.537 67.0788C130.375 66.9952 130.218 66.8275 130.131 66.6272C130.003 66.3319 130.081 66.0779 130.304 66.06L133.372 65.8222C133.447 65.8168 133.527 65.838 133.607 65.8787Z" fill="#002266"/>
<path d="M140.303 76.2448C140.383 76.2861 140.464 76.3485 140.538 76.4304C140.76 76.6779 140.836 77.0112 140.706 77.1735L138.928 79.4065C138.841 79.5173 138.684 79.5227 138.521 79.4391C138.441 79.3984 138.361 79.336 138.287 79.254C138.065 79.0065 137.989 78.6732 138.119 78.5082L139.897 76.2752C139.984 76.1661 140.141 76.1612 140.303 76.2448Z" fill="#002266"/>
<path d="M149.471 83.5025C149.729 83.636 149.937 83.9579 149.937 84.2233L149.925 87.8567C149.924 88.1221 149.715 88.2291 149.456 88.0955C149.197 87.962 148.99 87.6396 148.99 87.3742L149.002 83.7407C149.002 83.4759 149.213 83.3689 149.471 83.5025Z" fill="#002266"/>
<path d="M158.655 85.7133C158.817 85.7963 158.973 85.9635 159.06 86.1616L160.821 90.22C160.949 90.518 160.871 90.7721 160.645 90.7883C160.571 90.7943 160.492 90.7737 160.413 90.733C160.251 90.6499 160.094 90.4817 160.008 90.2814L158.247 86.2229C158.118 85.9277 158.197 85.6736 158.423 85.6573C158.495 85.6519 158.576 85.6726 158.655 85.7133Z" fill="#002266"/>
<path d="M165.396 82.2801C165.475 82.3209 165.555 82.3827 165.628 82.4642L168.685 85.8626C168.909 86.1117 168.986 86.445 168.856 86.6067C168.768 86.7175 168.611 86.7229 168.448 86.6393C168.369 86.598 168.289 86.5362 168.215 86.4542L165.158 83.0558C164.935 82.8083 164.859 82.475 164.989 82.3127C165.077 82.2025 165.234 82.1971 165.396 82.2801Z" fill="#002266"/>
<path d="M171.42 75.9518C171.678 76.0853 171.887 76.4078 171.886 76.6732C171.885 76.9386 171.676 77.0455 171.417 76.912L167.878 75.0866C167.62 74.9531 167.412 74.6312 167.413 74.3658C167.413 74.1004 167.623 73.9934 167.882 74.127L171.42 75.9518Z" fill="#002266"/>
<path d="M168.524 63.2002C168.686 63.2838 168.843 63.4509 168.929 63.649C169.058 63.947 168.979 64.2011 168.754 64.2173L165.685 64.4524C165.612 64.4584 165.531 64.4377 165.452 64.3965C165.291 64.3134 165.134 64.1462 165.048 63.9481C164.919 63.6501 164.997 63.3961 165.22 63.3782L168.289 63.1432C168.363 63.1377 168.444 63.1589 168.524 63.2002Z" fill="#002266"/>
<path d="M160.538 50.8397C160.617 50.8804 160.698 50.9429 160.771 51.0243C160.996 51.2734 161.072 51.6067 160.942 51.7684L159.162 53.9999C159.075 54.1106 158.917 54.116 158.756 54.033C158.677 53.9923 158.597 53.9304 158.524 53.849C158.298 53.5998 158.223 53.2666 158.353 53.1015L160.133 50.8701C160.22 50.7616 160.377 50.7567 160.538 50.8397Z" fill="#002266"/>
<path d="M145.936 64.1667L147.887 63.1538C147.504 63.3525 147.267 63.7759 147.265 64.3783C147.261 65.5904 148.212 67.0624 149.392 67.6715L147.442 68.6843C146.262 68.0753 145.311 66.6032 145.314 65.3912C145.316 64.7892 145.553 64.3659 145.936 64.1667Z" fill="#002266"/>
<path d="M150.911 67.8051L148.961 68.8179C148.573 69.0193 148.035 68.9905 147.442 68.6839L149.392 67.671C149.986 67.9782 150.523 68.0065 150.911 67.8051Z" fill="#002266"/>
<path d="M144.375 61.7666L146.325 60.7538C147.114 60.344 148.206 60.4015 149.412 61.0236L147.462 62.0364C146.257 61.4144 145.164 61.3568 144.375 61.7666Z" fill="#002266"/>
<path d="M152.471 70.2054L150.521 71.2182C151.299 70.8144 151.78 69.9541 151.784 68.7301C151.792 66.2696 149.862 63.2745 147.462 62.0364L149.412 61.0236C151.812 62.2617 153.742 65.2568 153.734 67.7172C153.731 68.9412 153.249 69.801 152.471 70.2054Z" fill="#002266"/>
<path d="M147.463 62.0363C149.862 63.2744 151.793 66.2695 151.785 68.73C151.777 71.1942 149.834 72.1832 147.435 70.9451C145.038 69.7092 143.102 66.7173 143.109 64.2536C143.117 61.7931 145.066 60.8004 147.463 62.0363ZM147.441 68.6844C148.621 69.2934 149.579 68.806 149.583 67.5939C149.587 66.3819 148.635 64.9098 147.455 64.3008C146.275 63.6918 145.318 64.1792 145.314 65.3913C145.31 66.6033 146.261 68.0754 147.441 68.6844Z" fill="white"/>
<g opacity="0.52">
<path d="M100.891 136.884C107.217 140.147 108.13 148.488 102.5 157.274C95.9168 167.549 82.8714 174.546 73.3622 172.901C71.9834 172.662 70.7547 172.255 69.6821 171.701C63.3568 168.438 62.4396 160.098 68.0707 151.311C74.6535 141.033 87.7019 134.037 97.2081 135.684C98.5875 135.922 99.8174 136.331 100.891 136.884Z" fill="#1C3E76"/>
<path d="M109.369 149.168C113.934 151.523 114.623 157.492 110.601 163.771C105.886 171.13 96.4877 176.127 89.6078 174.937C88.5996 174.763 87.7007 174.464 86.9171 174.06C82.3526 171.705 81.6633 165.736 85.6847 159.457C90.4005 152.098 99.7985 147.1 106.678 148.29C107.687 148.465 108.585 148.764 109.369 149.168Z" fill="#1C3E76"/>
</g>
<path d="M99.983 83.7662L103.884 81.7405C103.806 81.7812 103.731 81.8279 103.66 81.8805L99.7583 83.9062C99.8294 83.8536 99.9047 83.8069 99.983 83.7662Z" fill="white"/>
<path d="M101.099 85.4824L105 83.4567C104.817 83.5517 104.669 83.7042 104.573 83.9153C104.555 83.9533 104.534 83.9935 104.519 84.0331C104.208 84.9303 104.788 86.3416 105.812 87.1862C105.998 87.3403 106.187 87.4657 106.373 87.5612C106.595 87.6758 106.812 87.748 107.014 87.7767C107.291 87.818 107.544 87.7843 107.752 87.6763L103.851 89.702C103.642 89.81 103.39 89.8437 103.113 89.8024C102.91 89.7731 102.694 89.7009 102.472 89.5869C102.286 89.4914 102.097 89.366 101.911 89.2119C100.887 88.3673 100.307 86.956 100.618 86.0588C100.632 86.0192 100.654 85.979 100.672 85.941C100.769 85.7299 100.916 85.5773 101.099 85.4824Z" fill="#002266"/>
<path d="M106.306 83.5414C105.006 84.2166 103.706 84.8919 102.405 85.5671C102.272 85.503 102.142 85.4547 102.015 85.4211L105.916 83.3954C106.043 83.429 106.173 83.4779 106.306 83.5414Z" fill="white"/>
<path d="M106.306 83.5414C106.309 83.543 106.311 83.5441 106.315 83.5452L102.413 85.5709C102.41 85.5692 102.408 85.5682 102.405 85.5665C103.705 84.8924 105.006 84.2166 106.306 83.5414Z" fill="white"/>
<path d="M102.414 85.5713L106.315 83.5457C106.334 83.5549 106.354 83.5647 106.373 83.575L102.472 85.6007C102.452 85.5909 102.433 85.5811 102.414 85.5713Z" fill="white"/>
<path d="M103.852 89.7004C104.067 89.5864 104.239 89.3937 104.334 89.1218C104.643 88.2316 104.062 86.822 103.039 85.9757C102.955 85.9063 102.873 85.8422 102.784 85.7879C102.679 85.7185 102.574 85.6544 102.474 85.6001C102.452 85.5904 102.435 85.5806 102.414 85.5703C102.403 85.5654 102.392 85.5605 102.38 85.5556C102.336 85.5307 102.286 85.516 102.242 85.4965C102.231 85.4916 102.22 85.4867 102.214 85.4867H102.208C102.175 85.472 102.148 85.4617 102.114 85.452C102.081 85.4373 102.048 85.427 102.015 85.4221C101.998 85.4172 101.976 85.4123 101.959 85.4075C101.915 85.3977 101.871 85.3879 101.832 85.3825C101.594 85.3477 101.366 85.3678 101.173 85.4465C101.145 85.4563 101.118 85.4715 101.09 85.491C101.051 85.5057 101.012 85.5307 100.98 85.5551C100.852 85.649 100.747 85.7776 100.67 85.941C100.653 85.9806 100.631 86.0203 100.62 86.0599C100.31 86.9549 100.885 88.3646 101.909 89.2108C102.098 89.3644 102.286 89.4925 102.474 89.5869C102.695 89.7009 102.911 89.7747 103.11 89.8046C103.238 89.8241 103.359 89.8241 103.47 89.8095C103.503 89.8095 103.541 89.8046 103.575 89.7948C103.591 89.7948 103.603 89.7899 103.619 89.785C103.658 89.7802 103.691 89.7655 103.73 89.7503C103.769 89.7405 103.801 89.7253 103.84 89.7058C103.846 89.7053 103.846 89.7053 103.852 89.7004Z" fill="white"/>
<path d="M105.916 88.6322C105.85 88.2512 105.728 87.8604 105.568 87.4695C105.296 86.8117 104.903 86.1587 104.417 85.5752C104.228 85.3478 104.013 85.1252 103.791 84.9174C103.775 84.9027 103.763 84.8875 103.747 84.8777C103.747 84.8728 103.741 84.8728 103.741 84.8728C103.658 84.7985 103.575 84.7296 103.492 84.6601L103.487 84.6552C103.382 84.5662 103.271 84.482 103.165 84.4077C102.938 84.2443 102.712 84.1059 102.49 83.987C102.302 83.8931 102.119 83.8139 101.937 83.7498C101.571 83.6212 101.222 83.5571 100.896 83.5571C100.813 83.5571 100.73 83.562 100.647 83.5718C100.592 83.5767 100.537 83.5864 100.481 83.5968C100.465 83.5968 100.448 83.6016 100.431 83.6065C100.387 83.6163 100.343 83.6261 100.304 83.6413C100.276 83.6461 100.254 83.6559 100.226 83.6662C100.221 83.6613 100.221 83.6613 100.221 83.6662C100.204 83.6711 100.193 83.676 100.182 83.676C100.121 83.7004 100.06 83.7254 100.004 83.7552C99.9158 83.7998 99.8326 83.8491 99.7554 83.9089C99.473 84.1167 99.2519 84.4234 99.108 84.8142C98.5492 86.4366 99.6006 88.9991 101.455 90.5271C101.787 90.8039 102.13 91.0319 102.463 91.1996C103.476 91.7239 104.438 91.7684 105.103 91.338C105.114 91.3282 105.125 91.3234 105.136 91.3185C105.208 91.2691 105.275 91.2148 105.341 91.1502C105.346 91.1453 105.352 91.1404 105.357 91.1355C105.413 91.0813 105.462 91.0264 105.512 90.9624C105.523 90.9477 105.534 90.9374 105.54 90.9228C105.595 90.8533 105.645 90.7795 105.69 90.6954C105.69 90.6954 105.695 90.6905 105.695 90.6856C105.739 90.6014 105.778 90.5124 105.817 90.4136C105.822 90.399 105.827 90.3789 105.833 90.3642C105.855 90.3002 105.872 90.2356 105.888 90.1716C106.016 89.7053 106.016 89.181 105.916 88.6322Z" fill="#FF6E80"/>
<path d="M103.841 89.7053C103.802 89.7248 103.769 89.74 103.73 89.7498C103.692 89.7645 103.659 89.7797 103.62 89.7845C103.604 89.7894 103.592 89.7943 103.576 89.7943C103.542 89.8041 103.504 89.809 103.471 89.809C103.36 89.8236 103.238 89.8236 103.111 89.8041C102.912 89.7742 102.695 89.7004 102.474 89.5864C102.286 89.4925 102.098 89.3639 101.91 89.2103C100.886 88.3646 100.31 86.955 100.621 86.0594C100.632 86.0198 100.654 85.9801 100.67 85.9405C100.748 85.7771 100.853 85.6485 100.98 85.5546C101.014 85.5296 101.052 85.5052 101.091 85.4905C101.119 85.471 101.146 85.4558 101.174 85.446C101.368 85.3668 101.595 85.3472 101.832 85.382C101.871 85.3869 101.916 85.3966 101.96 85.4069C101.976 85.4118 101.999 85.4167 102.015 85.4216C102.049 85.4265 102.081 85.4363 102.115 85.4515C102.148 85.4612 102.176 85.471 102.209 85.4862H102.214C102.22 85.4862 102.231 85.4911 102.242 85.496C102.287 85.5155 102.337 85.5307 102.381 85.5551C102.392 85.56 102.403 85.5649 102.414 85.5698C102.436 85.5796 102.453 85.5893 102.475 85.5996C102.575 85.6539 102.68 85.7185 102.785 85.7874C102.873 85.8417 102.957 85.9063 103.039 85.9752C104.063 86.8209 104.645 88.2305 104.334 89.1213C104.24 89.3932 104.069 89.5864 103.853 89.6999C103.846 89.7053 103.846 89.7053 103.841 89.7053Z" fill="#002266"/>
<path d="M108.866 89.3909L104.965 91.4166C105.345 91.2191 105.643 90.8842 105.818 90.413L109.719 88.3873C109.544 88.8585 109.246 89.1939 108.866 89.3909Z" fill="white"/>
<path d="M105.832 90.363L109.734 88.3368L109.719 88.3878L105.818 90.4135L105.832 90.363Z" fill="white"/>
<path d="M87.7998 49.5523L91.701 47.5266L105.84 81.7223L101.938 83.7486L87.7998 49.5523Z" fill="#E24B65"/>
<path d="M99.9829 83.7659L103.884 81.7402C104.412 81.4661 105.098 81.4602 105.84 81.7229C106.021 81.7864 106.205 81.8662 106.391 81.9617C106.722 82.1327 107.06 82.3563 107.395 82.6342C107.73 82.9089 108.044 83.2237 108.319 83.551L104.418 85.5767C104.143 85.2494 103.829 84.9346 103.494 84.6599C103.158 84.382 102.822 84.1589 102.49 83.9874C102.304 83.8919 102.12 83.8121 101.939 83.7486C101.197 83.4858 100.511 83.4918 99.9829 83.7659Z" fill="#E24B65"/>
<path d="M104.418 85.5762L108.319 83.5505C109.578 85.0579 110.198 87.0097 109.734 88.3369L105.833 90.3625C106.297 89.036 105.676 87.0836 104.418 85.5762Z" fill="white"/>
<path d="M81.5444 39.9385L89.9282 49.389L87.8005 49.5524L101.939 83.7486C101.087 83.4474 100.308 83.4995 99.758 83.9066L84.3906 49.8183L82.1457 49.9904L81.5444 39.9385Z" fill="#A71B2C"/>
<path d="M81.5444 39.9388L85.4457 37.9126L93.8294 47.3636L89.9288 49.3893L81.5444 39.9388Z" fill="#E24B65"/>
<path d="M104.418 85.5762L108.319 83.5505L127.624 85.8308L123.723 87.8565L104.418 85.5762Z" fill="#E24B65"/>
<path d="M132.889 92.0257L136.789 89.9995L130.515 94.9883L126.614 97.014L132.889 92.0257Z" fill="#E24B65"/>
<path d="M122.871 85.16L126.772 83.1343L136.789 89.9995L132.888 92.0257L122.871 85.16Z" fill="#E24B65"/>
<path d="M122.871 85.1598L132.888 92.0255L126.615 97.0138L125.69 94.0903L105.819 90.4134C106.298 89.0358 105.678 87.0834 104.418 85.5761L123.724 87.8564L122.871 85.1598Z" fill="#A71B2C"/>
<path d="M92.6187 68.2277C92.6417 68.1599 92.6587 68.0948 92.6715 68.0247C92.7395 67.6459 92.9612 66.3231 92.8914 65.5095C92.8088 64.552 92.8361 63.6623 92.4516 63.2786C92.0671 62.8948 91.8819 63.5576 91.8199 64.3126C91.758 65.0676 91.3978 65.3472 91.3978 65.3472L89.7293 61.6459C89.7293 61.6459 89.244 63.2075 89.1827 63.8702C89.1207 64.533 88.8942 65.9144 89.1827 66.7242C89.4712 67.5341 89.5125 68.3629 89.5125 68.3629L89.0399 69.506L92.0058 70.02L92.6187 68.2277Z" fill="white"/>
<path d="M89.0396 69.2297C89.0396 69.2297 89.2284 68.6864 89.3025 68.6202C89.3766 68.5539 90.1243 68.4367 91.1769 68.745C92.2289 69.0533 92.5089 69.6634 92.5089 69.8691C92.5089 70.0748 92.3036 70.8608 92.3036 70.8608L89.0396 69.2297Z" fill="white"/>
<path d="M85.2542 75.398C85.2542 75.398 88.1016 69.5619 88.7248 69.2536C89.3479 68.9453 92.1589 69.3861 92.5045 70.7962C92.8495 72.2069 88.5808 84.1781 87.8009 85.16C87.227 85.8825 79.8394 83.1881 79.8394 83.1881C79.8394 83.1881 84.832 76.1232 85.2542 75.398Z" fill="#EFB44B"/>
<path d="M111.07 93.1753C111.07 93.1753 110.761 92.3448 110.626 91.967C110.49 91.5893 110.428 90.1628 110.847 89.7134C111.266 89.264 111.972 91.5524 111.972 91.5524L115.8 92.2607C115.8 92.2607 115.29 93.3365 114.739 93.704C114.188 94.0714 113.893 94.2549 113.893 94.2549L113.671 94.8352L110.966 93.7409L111.07 93.1753Z" fill="white"/>
<path d="M110.424 94.1301C110.424 94.1301 110.613 93.5863 110.687 93.5206C110.761 93.4549 111.509 93.3371 112.561 93.6454C113.613 93.9543 113.893 94.5638 113.893 94.7695C113.893 94.9753 113.688 95.7612 113.688 95.7612L110.424 94.1301Z" fill="white"/>
<path d="M92.0122 151.315C92.0122 151.315 92.6427 153.099 93.5185 153.6C94.3944 154.101 97.1968 154.195 98.6679 152.254C100.139 150.313 100.174 148.685 101.75 147.026C103.327 145.367 103.852 143.145 103.082 142.111C102.312 141.078 99.9288 140.703 96.8464 144.021C93.7633 147.339 92.0122 151.315 92.0122 151.315Z" fill="#002266"/>
<path d="M79.5298 161.613C79.5298 161.613 82.8929 162.406 84.9944 162.406C87.096 162.406 88.4225 164.287 87.2624 165.432C85.999 166.68 84.0603 167.165 80.0904 167.541C76.1206 167.916 74.7193 168.584 72.9446 168.166C71.1698 167.749 72.9446 162.114 72.9446 162.114L79.5298 161.613Z" fill="#002266"/>
<path d="M76.9844 111.235C76.9844 111.235 75.3979 117.375 78.3674 121.291L84.9945 133.542C84.9945 133.542 89.6653 149.635 91.6266 151.639C91.6266 151.639 95.3632 151.806 97.0444 149.134C98.7257 146.463 98.2732 145.986 97.0444 142.707C93.7749 133.983 94.0555 129.768 93.6813 127.514C93.3078 125.26 89.8518 111.236 89.8518 111.236H76.9844V111.235Z" fill="#1C3E76"/>
<path d="M81.2579 113.155C81.2579 113.155 80.6117 118.725 83.04 123.149L80.3238 139.493C80.3238 139.493 73.0376 150.386 72.2905 163.492C72.2905 163.492 74.109 165.031 77.7084 163.825C79.9502 163.074 80.2989 162.507 81.725 159.485C84.9946 152.556 89.5718 145.627 92.0001 141.871C94.4291 138.114 97.698 111.568 97.698 111.568L81.2579 113.155Z" fill="white"/>
<path d="M77.2046 106.988L79.0456 108.924L82.0782 106.563L79.2405 104.24L77.2046 106.988Z" fill="white"/>
<path d="M80.0525 82.4445C80.0525 82.4445 76.2551 83.1881 76.3262 89.6435C76.3687 93.4799 80.2596 94.8928 82.3927 96.4186C84.5259 97.9443 94.2762 101.372 94.8903 100.925C95.5043 100.479 94.8647 97.4406 93.7046 96.8588C92.5445 96.2769 88.1234 89.9252 87.7997 89.9024C87.4759 89.8796 83.8687 88.6431 83.8687 88.6431L80.0525 82.4445Z" fill="#EFB44B"/>
<path d="M79.8384 115.815C79.8384 115.815 82.6323 118.352 87.246 118.177C91.8597 118.003 82.3074 108.963 82.3074 108.963L79.8384 115.815Z" fill="white"/>
<path d="M99.7507 95.8736L99.1476 98.772L98.9757 99.5781L98.4278 102.2C98.4223 102.235 98.4169 102.264 98.4059 102.299C98.1016 103.812 97.8969 105.335 97.8028 106.869C97.7585 107.443 97.7366 108.021 97.7311 108.6C97.7202 109.372 97.7421 110.148 97.7809 110.925C97.9249 113.368 98.0634 115.984 98.03 116.267C97.9583 116.861 97.6589 118.102 96.6737 119.21C95.8215 120.164 94.4598 121.02 92.2847 121.267C92.1019 121.287 91.9197 121.307 91.7259 121.317C86.5449 121.644 82.3109 118.794 82.3109 118.794L82.3552 117.306L82.4882 113.037L82.538 111.34L81.907 113.091L81.3919 114.521L80.6946 116.445L80.3624 117.37C80.3624 117.37 77.8162 115.491 76.582 114.111C76.2607 113.75 76.0287 113.418 75.9564 113.171C75.6187 111.969 75.9674 109.743 77.5004 105.296C78.7571 101.666 78.8123 98.0154 78.3252 93.6823C78.2201 92.6977 78.0817 91.6838 77.9268 90.6253C77.1742 85.5801 78.6022 83.1017 80.0356 82.4488C80.0411 82.4488 80.0466 82.4439 80.052 82.4439C80.1905 82.3847 80.3235 82.3402 80.4559 82.3103C80.5112 82.3006 80.561 82.2908 80.6108 82.2854C82.2046 82.0976 85.5482 83.448 85.5482 83.448H85.5537C85.6478 83.473 86.5996 83.7053 87.7676 84.0413C87.9395 84.0956 88.1163 84.145 88.2936 84.1998C89.888 84.6845 91.6865 85.3228 92.2179 85.8765C92.5277 86.1978 93.1587 86.7618 93.8894 87.4001C94.2435 87.7019 94.6146 88.0232 94.9912 88.3396C96.3912 89.5365 97.77 90.6693 97.77 90.6693L97.8921 90.9955L99.7507 95.8736Z" fill="#FFB600"/>
<path d="M99.103 75.581C99.103 75.581 98.7198 79.8777 98.1015 82.126C97.4831 84.3742 94.5574 83.8352 94.5574 83.8352L93.8516 87.593C93.8516 87.593 89.0527 87.4611 87.6168 84.6689L88.2406 81.9979C88.2406 81.9979 84.8951 78.1642 86.4938 74.5584C88.0924 70.9527 91.7045 70.2427 94.2871 70.506C96.8697 70.7692 99.3788 72.3829 99.103 75.581Z" fill="white"/>
<path d="M99.1079 75.9609C99.1079 75.9609 98.8443 77.1453 97.9235 77.3358C97.0027 77.5263 97.0258 77.4699 97.0258 77.4699L96.8418 79.0287L95.8742 79.2258C95.8742 79.2258 95.9343 77.8628 95.2693 77.6832C94.6042 77.5035 94.1353 79.4011 94.558 79.9661C94.9814 80.5317 95.4989 80.4346 95.4989 80.4346C95.4989 80.4346 94.2124 83.4861 92.3374 83.8737C90.4618 84.2612 88.4265 83.1463 87.6187 82.3892C87.1115 81.9142 86.9281 81.4067 86.4027 80.097C86.0911 79.3197 85.2705 78.0186 85.2523 76.9325C85.2025 74.0172 86.577 73.8657 86.577 73.8657C86.577 73.8657 86.1506 72.1516 88.4647 70.4239C90.7783 68.6962 94.4268 68.7874 96.3692 70.0412C98.3117 71.2951 98.7016 70.457 100.709 71.1822C101.411 71.4357 102.241 73.0168 101.7 74.1453C101.487 74.5849 100.852 76.298 99.1079 75.9609Z" fill="#002266"/>
<path d="M95.026 88.3526C95.026 88.3526 94.8231 86.3209 94.6961 86.0229C94.5698 85.7249 93.9715 85.5209 91.2007 84.8217C88.4304 84.1226 87.7659 82.9241 87.2678 82.7152C86.7698 82.5062 85.5483 83.4447 85.5483 83.4447C85.5483 83.4447 86.4394 85.998 90.1511 87.0488C93.8628 88.0996 95.026 88.3526 95.026 88.3526Z" fill="white"/>
<path d="M82.9864 109.931C82.9821 109.93 82.9779 109.93 82.9742 109.929C82.8989 109.916 82.8503 109.851 82.8649 109.784C82.8807 109.711 84.4757 102.394 84.6901 95.6712C84.9057 88.9091 86.4333 86.2061 86.4976 86.0942C86.5329 86.0334 86.6173 86.0101 86.6841 86.0416C86.7521 86.0731 86.7789 86.1474 86.7436 86.2082C86.7278 86.2354 85.1802 88.9841 84.9664 95.6788C84.7514 102.422 83.1522 109.759 83.1364 109.833C83.1224 109.895 83.0568 109.937 82.9864 109.931Z" fill="#EFB44B"/>
<path d="M99.4404 98.9354L99.2077 101.591C99.1689 102.017 99.1415 102.442 99.1245 102.867C98.881 102.68 98.6429 102.492 98.4048 102.299C98.1005 103.812 97.8958 105.335 97.8016 106.869C95.8368 105.073 94.7574 102.877 94.1652 100.904C93.6563 99.2068 93.5068 97.6734 93.468 96.6991C93.4625 96.5309 93.457 96.3827 93.457 96.2492C93.457 96.2492 93.4625 96.2443 93.457 96.2443C93.457 95.8339 93.4734 95.5962 93.4734 95.5962L99.147 98.7715L99.4404 98.9354Z" fill="#002266"/>
<path d="M113.81 95.5968C113.465 94.1866 110.654 93.7453 110.03 94.0542C109.534 94.2995 107.63 98.0453 106.873 99.564C105.462 98.0008 101.167 93.2775 99.318 91.8429C98.8698 91.4966 98.3881 91.2045 97.8901 90.9972C95.9033 90.1467 93.7277 90.5223 93.1798 93.2476C92.9751 94.2469 93.0966 95.2559 93.4568 96.2449C93.4622 96.2449 93.4568 96.2498 93.4568 96.2498C93.5345 96.4577 93.6226 96.6601 93.7222 96.868C94.0265 97.5259 94.4359 98.174 94.923 98.8117C95.8584 100.038 97.0816 101.211 98.4045 102.299C98.6426 102.492 98.8807 102.68 99.1243 102.868L99.1297 102.873C102.711 105.648 104.039 107.364 106.436 107.933C108.203 108.352 109.628 107.629 110.349 106.285C110.351 106.282 110.355 106.281 110.357 106.277C111.138 105.295 114.156 97.007 113.81 95.5968Z" fill="#FFB600"/>
</svg>
