<svg width="200" height="206" viewBox="0 0 200 206" fill="none" xmlns="http://www.w3.org/2000/svg">
<path d="M170.192 150.188L158.937 157.304L167.612 162.788H176.361L170.192 150.188Z" fill="#221C3A"/>
<path d="M176.361 162.82H167.612C167.597 162.816 158.922 157.332 158.922 157.332C158.913 157.326 158.907 157.315 158.907 157.304C158.907 157.292 158.913 157.282 158.922 157.276L170.177 150.161C170.218 150.174 176.387 162.773 176.387 162.773C176.392 162.783 176.392 162.795 176.386 162.805C176.381 162.814 176.371 162.82 176.361 162.82ZM167.62 162.755H176.31L170.18 150.233L158.995 157.303L167.62 162.755Z" fill="#221C3A"/>
<path d="M189.946 199.698C182.796 199.698 171.537 199.655 168.373 195.481C162.845 188.187 188.422 185.991 193.801 189.244C194.913 189.916 195.014 192.543 194.537 192.806C194.47 192.843 193.958 192.875 193.348 192.901C191.835 192.965 189.946 199.698 189.946 199.698Z" fill="#221C3A"/>
<path d="M189.946 199.731C183.068 199.731 171.556 199.731 168.351 195.501C167.39 194.233 167.31 193.049 168.115 191.983C169.625 189.986 174.283 188.471 180.575 187.93C186.396 187.429 191.717 187.946 193.815 189.215C194.509 189.635 194.854 190.866 194.836 191.865C194.826 192.38 194.72 192.743 194.55 192.835C194.527 192.848 194.456 192.887 193.349 192.933C191.875 192.996 189.993 199.641 189.975 199.708C189.971 199.722 189.959 199.731 189.946 199.731ZM184.881 187.807C183.509 187.807 182.061 187.868 180.58 187.995C174.303 188.535 169.661 190.042 168.161 192.026C167.377 193.064 167.456 194.219 168.396 195.46C171.581 199.662 183.055 199.666 189.924 199.666C190.067 199.164 191.86 192.932 193.346 192.869C194.298 192.829 194.493 192.794 194.524 192.776C194.671 192.696 194.768 192.346 194.777 191.864C194.795 190.885 194.46 189.68 193.786 189.273C192.23 188.332 188.886 187.807 184.881 187.807Z" fill="#221C3A"/>
<path d="M131.705 197.583C131.705 197.583 115.765 197.545 112.334 201.296C109.738 204.134 115.343 206.092 124.746 205.437C124.942 205.423 125.277 202.74 125.277 202.74L135.182 202.275C135.492 202.245 131.705 197.583 131.705 197.583Z" fill="#221C3A"/>
<path d="M121.26 205.596C116.075 205.596 112.412 204.68 111.768 203.117C111.532 202.546 111.716 201.926 112.313 201.273C114.091 199.329 119.272 198.421 123.303 198.001C127.554 197.559 131.456 197.552 131.693 197.552C132.327 198.302 135.323 202.008 135.226 202.276C135.22 202.294 135.205 202.306 135.186 202.308L125.303 202.771C125.219 203.437 124.949 205.456 124.748 205.47C123.527 205.555 122.359 205.596 121.26 205.596ZM131.691 197.616C131.151 197.617 115.696 197.667 112.356 201.319C111.777 201.951 111.598 202.547 111.822 203.09C112.184 203.967 113.612 204.681 115.843 205.101C118.188 205.541 121.264 205.646 124.744 205.405C124.855 205.363 125.088 204.015 125.247 202.735C125.25 202.72 125.261 202.708 125.276 202.707L135.171 202.244C135.154 201.97 133.095 199.344 131.691 197.616Z" fill="#221C3A"/>
<path d="M91.5065 23.1323C91.0266 23.0657 90.5205 23.1747 90.0341 23.4822L2.77901 78.9632C1.30782 79.8933 0.565676 82.2939 1.12422 84.3388L22.3568 162.089C22.7288 163.451 23.5878 164.302 24.557 164.436L25.4077 164.565L92.3571 23.2615L91.5065 23.1323Z" fill="#5186EB"/>
<path d="M115.796 103.365L94.5637 25.6151C94.0051 23.5702 92.3557 22.6812 90.8839 23.6113L3.62942 79.0923C2.15764 80.0224 1.41609 82.423 1.97464 84.4679L23.2072 162.218C23.7628 164.253 25.4044 165.146 26.8756 164.216L114.131 108.734C115.602 107.805 116.351 105.399 115.796 103.365Z" fill="#221C3A"/>
<path d="M25.6765 164.617C25.3999 164.617 25.1251 164.56 24.861 164.445C24.0843 164.106 23.4709 163.298 23.1788 162.228L1.94625 84.478C1.38651 82.4285 2.13462 79.9998 3.61474 79.0645L90.8693 23.5835C91.525 23.1684 92.2486 23.0972 92.905 23.3837C93.6841 23.7225 94.2986 24.5325 94.5919 25.6062L115.824 103.356C116.382 105.4 115.629 107.826 114.145 108.764L26.8902 164.245C26.5003 164.492 26.086 164.617 25.6765 164.617ZM92.0871 23.276C91.6865 23.276 91.2818 23.3981 90.8997 23.6396L3.64455 79.1213C2.18767 80.0422 1.45089 82.437 2.00348 84.4597L23.2361 162.21C23.5228 163.262 24.1237 164.055 24.8837 164.385C25.5203 164.663 26.2225 164.593 26.861 164.19L114.115 108.708C115.578 107.784 116.319 105.392 115.767 103.375L94.5353 25.6244C94.2474 24.5703 93.6453 23.7754 92.8835 23.4438C92.6254 23.3315 92.3571 23.276 92.0871 23.276Z" fill="#221C3A"/>
<path d="M26.6974 164.713L26.6914 166.922C26.6896 167.527 27.0532 168.134 27.7829 168.595L83.3653 203.732C84.8192 204.651 87.1744 204.647 88.6187 203.727L174.394 149.148C175.112 148.691 175.471 148.093 175.473 147.496L175.479 145.286L26.6974 164.713Z" fill="#5186EB"/>
<path d="M174.383 143.611L118.801 108.474C117.347 107.555 115 107.555 113.555 108.474L27.7796 163.053C26.3352 163.972 26.3346 165.466 27.7891 166.385L83.3715 201.523C84.8254 202.442 87.1806 202.437 88.625 201.517L174.401 146.938C175.845 146.019 175.837 144.53 174.383 143.611Z" fill="white"/>
<path d="M142.796 165.952L120.582 179.995L119.953 181.574L121.516 181.672L143.659 167.674L144.747 165.81L142.796 165.952Z" fill="#5186EB"/>
<path d="M111.753 114.978L110.743 114.34C110.517 114.196 110.229 114.118 109.932 114.118C109.66 114.118 109.402 114.186 109.207 114.309L36.7119 160.37C36.4764 160.521 36.3423 160.747 36.3423 160.993C36.3423 161.254 36.4955 161.5 36.7619 161.669L37.7717 162.307C37.9971 162.449 38.2856 162.527 38.5848 162.527C38.8567 162.527 39.1142 162.46 39.3073 162.338L111.803 116.277C112.037 116.128 112.171 115.902 112.169 115.656C112.17 115.392 112.018 115.145 111.753 114.978ZM111.675 116.032L39.1785 162.092C38.8411 162.307 38.2659 162.292 37.9023 162.062L36.8931 161.424C36.5217 161.189 36.5044 160.829 36.8418 160.615L109.338 114.554C109.675 114.339 110.243 114.349 110.614 114.584L111.623 115.222C111.987 115.452 112.012 115.817 111.675 116.032Z" fill="#E6E1D7"/>
<path d="M110.6 120.276L113.753 122.27C114.117 122.499 114.691 122.514 115.029 122.3L118.507 120.086C118.666 119.985 118.745 119.851 118.745 119.712L118.747 118.95C118.746 119.088 118.668 119.223 118.509 119.324L115.031 121.537C114.694 121.752 114.118 121.737 113.755 121.507L110.602 119.514C110.407 119.391 110.309 119.233 110.31 119.08L110.308 119.842C110.308 119.995 110.405 120.153 110.6 120.276Z" fill="#221C3A"/>
<path d="M104.979 123.853L108.132 125.846C108.495 126.076 109.07 126.091 109.408 125.876L112.886 123.664C113.048 123.561 113.126 123.427 113.126 123.29L113.128 122.527C113.128 122.665 113.049 122.798 112.887 122.901L109.41 125.115C109.072 125.329 108.497 125.314 108.133 125.085L104.981 123.091C104.786 122.968 104.688 122.81 104.689 122.657L104.687 123.42C104.686 123.572 104.784 123.73 104.979 123.853Z" fill="#221C3A"/>
<path d="M115.84 122.578L115.838 123.34C115.838 123.492 115.934 123.648 116.123 123.768L119.284 125.766C119.647 125.995 120.214 126.005 120.552 125.79L124.03 123.578C124.191 123.475 124.271 123.339 124.271 123.201L124.273 122.439C124.273 122.577 124.193 122.713 124.032 122.815L120.554 125.029C120.217 125.243 119.649 125.234 119.286 125.004L116.125 123.006C115.935 122.886 115.84 122.73 115.84 122.578Z" fill="#221C3A"/>
<path d="M118.654 126.779L118.656 126.016C118.655 126.153 118.575 126.288 118.411 126.393L114.933 128.606C114.596 128.821 114.028 128.811 113.665 128.581L110.505 126.583C110.315 126.463 110.219 126.307 110.22 126.156L110.218 126.918C110.217 127.07 110.313 127.226 110.503 127.346L113.663 129.344C114.027 129.573 114.594 129.583 114.931 129.368L118.409 127.155C118.573 127.051 118.653 126.916 118.654 126.779Z" fill="#221C3A"/>
<path d="M120.382 131.223L117.221 129.226C117.031 129.105 116.936 128.949 116.936 128.798L116.935 129.56C116.934 129.712 117.029 129.868 117.22 129.988L120.38 131.986C120.744 132.216 121.319 132.231 121.656 132.016L129.491 127.031C129.651 126.929 129.729 126.795 129.729 126.657L129.731 125.894C129.73 126.033 129.652 126.167 129.493 126.268L121.659 131.253C121.32 131.468 120.745 131.453 120.382 131.223Z" fill="#221C3A"/>
<path d="M99.3658 127.425L102.519 129.418C102.882 129.648 103.457 129.663 103.795 129.448L107.273 127.235C107.432 127.133 107.51 126.999 107.51 126.861L107.512 126.098C107.512 126.237 107.433 126.371 107.274 126.472L103.797 128.686C103.459 128.9 102.884 128.885 102.52 128.656L99.3676 126.662C99.1727 126.539 99.0749 126.381 99.0755 126.227L99.0737 126.99C99.0731 127.143 99.1703 127.301 99.3658 127.425Z" fill="#221C3A"/>
<path d="M108.052 132.152L104.891 130.154C104.701 130.034 104.606 129.878 104.607 129.727L104.605 130.489C104.604 130.641 104.7 130.796 104.89 130.917L108.05 132.914C108.414 133.144 108.981 133.154 109.318 132.939L112.796 130.727C112.957 130.624 113.037 130.488 113.037 130.35L113.039 129.588C113.038 129.726 112.959 129.862 112.798 129.964L109.32 132.177C108.983 132.392 108.416 132.382 108.052 132.152Z" fill="#221C3A"/>
<path d="M114.778 136.391L119.511 133.379C119.671 133.278 119.749 133.144 119.749 133.005L119.751 132.243C119.75 132.381 119.672 132.516 119.513 132.617L114.78 135.629C114.442 135.844 113.867 135.829 113.503 135.599L110.342 133.601C110.152 133.481 110.057 133.325 110.057 133.174L110.055 133.936C110.055 134.088 110.151 134.243 110.34 134.363L113.501 136.361C113.865 136.591 114.44 136.606 114.778 136.391Z" fill="#221C3A"/>
<path d="M120.494 137.997L117.674 136.214C117.432 136.061 117.31 135.865 117.311 135.675L117.309 136.437C117.308 136.627 117.43 136.823 117.672 136.976L120.493 138.759C120.952 139.049 121.653 139.064 122.069 138.799L135.022 130.557C135.221 130.431 135.32 130.263 135.321 130.09L135.322 129.327C135.322 129.5 135.222 129.668 135.024 129.795L122.07 138.037C121.654 138.301 120.953 138.286 120.494 137.997Z" fill="#221C3A"/>
<path d="M140.642 133.316L137.165 135.529C136.827 135.744 136.252 135.729 135.888 135.499L132.727 133.501C132.537 133.381 132.442 133.225 132.442 133.074L132.44 133.836C132.44 133.988 132.536 134.143 132.725 134.264L135.887 136.261C136.25 136.491 136.825 136.506 137.163 136.291L140.64 134.079C140.8 133.978 140.878 133.843 140.878 133.705L140.88 132.943C140.88 133.08 140.801 133.215 140.642 133.316Z" fill="#221C3A"/>
<path d="M127.644 137.417L127.114 137.083C126.92 136.959 126.822 136.801 126.822 136.648L126.821 137.411C126.82 137.564 126.918 137.722 127.113 137.845L127.642 138.18C128.006 138.409 128.58 138.424 128.918 138.21L132.396 135.996C132.558 135.893 132.637 135.76 132.637 135.622L132.639 134.86C132.638 134.997 132.559 135.131 132.398 135.234L128.92 137.447C128.582 137.662 128.007 137.647 127.644 137.417Z" fill="#221C3A"/>
<path d="M135.022 136.893L131.544 139.106C131.207 139.321 130.631 139.306 130.268 139.076L129.731 138.736C129.54 138.616 129.445 138.46 129.446 138.309L129.444 139.071C129.443 139.223 129.539 139.379 129.729 139.499L130.266 139.838C130.629 140.068 131.204 140.083 131.542 139.868L135.02 137.656C135.182 137.553 135.261 137.419 135.261 137.282L135.262 136.519C135.262 136.656 135.184 136.789 135.022 136.893Z" fill="#221C3A"/>
<path d="M129.408 140.464L125.93 142.677C125.593 142.892 125.018 142.877 124.654 142.647L121.501 140.654C121.306 140.53 121.208 140.372 121.209 140.219L121.207 140.981C121.207 141.134 121.304 141.292 121.499 141.415L124.652 143.409C125.016 143.638 125.59 143.653 125.928 143.439L129.406 141.225C129.565 141.124 129.644 140.99 129.644 140.851L129.646 140.089C129.646 140.229 129.567 140.363 129.408 140.464Z" fill="#221C3A"/>
<path d="M91.9469 132.105L95.0997 134.098C95.4633 134.328 96.0379 134.343 96.3759 134.128L101.667 130.762C101.826 130.661 101.905 130.526 101.905 130.388L101.907 129.625C101.906 129.764 101.828 129.898 101.669 129.999L96.3777 133.367C96.0403 133.581 95.4651 133.566 95.1015 133.337L91.9487 131.343C91.7537 131.22 91.656 131.062 91.6566 130.909L91.6548 131.671C91.6542 131.824 91.7514 131.982 91.9469 132.105Z" fill="#221C3A"/>
<path d="M102.556 135.649L99.4037 133.656C99.2118 133.535 99.114 133.375 99.1146 133.221L99.1128 133.983C99.1122 134.138 99.21 134.297 99.4019 134.418L102.555 136.412C102.918 136.641 103.494 136.656 103.831 136.442L107.309 134.228C107.468 134.127 107.546 133.993 107.546 133.854L107.548 133.092C107.548 133.23 107.47 133.365 107.31 133.466L103.833 135.679C103.495 135.894 102.92 135.879 102.556 135.649Z" fill="#221C3A"/>
<path d="M86.3334 135.677L89.4861 137.671C89.8498 137.9 90.4244 137.915 90.7624 137.701L94.2401 135.487C94.3992 135.386 94.4779 135.252 94.4779 135.113L94.4797 134.351C94.4791 134.489 94.401 134.624 94.2418 134.725L90.7642 136.938C90.4268 137.152 89.8515 137.137 89.4879 136.908L86.3351 134.914C86.1402 134.791 86.0425 134.633 86.0431 134.48L86.0413 135.243C86.0407 135.396 86.1384 135.554 86.3334 135.677Z" fill="#221C3A"/>
<path d="M96.9356 139.226L93.7828 137.233C93.5909 137.111 93.4931 136.952 93.4937 136.797L93.4919 137.56C93.4913 137.714 93.5891 137.873 93.7817 137.995L96.9344 139.988C97.2981 140.218 97.8727 140.233 98.2107 140.018L101.688 137.805C101.848 137.704 101.926 137.569 101.926 137.431L101.928 136.669C101.927 136.807 101.849 136.941 101.69 137.043L98.2125 139.256C97.8739 139.471 97.2993 139.456 96.9356 139.226Z" fill="#221C3A"/>
<path d="M107.391 141.092L112.682 137.725C112.841 137.624 112.92 137.489 112.92 137.351L112.922 136.589C112.921 136.727 112.843 136.861 112.684 136.962L107.392 140.329C107.055 140.544 106.48 140.529 106.116 140.299L102.956 138.301C102.766 138.181 102.67 138.025 102.671 137.874L102.669 138.636C102.668 138.788 102.764 138.943 102.954 139.064L106.114 141.061C106.479 141.292 107.053 141.307 107.391 141.092Z" fill="#221C3A"/>
<path d="M114.846 143.405L119.996 140.127C120.155 140.026 120.234 139.892 120.234 139.753L120.236 138.991C120.235 139.129 120.157 139.264 119.998 139.365L114.848 142.642C114.511 142.857 113.935 142.842 113.572 142.612L110.419 140.619C110.224 140.496 110.126 140.338 110.127 140.185L110.125 140.947C110.124 141.101 110.222 141.258 110.417 141.381L113.57 143.375C113.934 143.604 114.508 143.619 114.846 143.405Z" fill="#221C3A"/>
<path d="M80.7128 139.254L83.8655 141.247C84.2292 141.477 84.8038 141.492 85.1418 141.277L88.6272 139.059C88.7846 138.96 88.8615 138.828 88.8615 138.693L88.8633 137.93C88.8627 138.065 88.7864 138.197 88.629 138.297L85.1436 140.515C84.8056 140.73 84.2309 140.715 83.8673 140.485L80.7145 138.492C80.519 138.368 80.4219 138.21 80.4224 138.058L80.4207 138.82C80.4201 138.973 80.5172 139.131 80.7128 139.254Z" fill="#221C3A"/>
<path d="M91.3222 142.798L88.1694 140.804C87.9775 140.683 87.8797 140.524 87.8797 140.369L87.8779 141.131C87.8773 141.286 87.9751 141.445 88.167 141.567L91.3198 143.56C91.6835 143.79 92.2581 143.805 92.5961 143.59L96.0738 141.377C96.2329 141.276 96.3116 141.142 96.3116 141.003L96.3134 140.241C96.3134 140.379 96.2347 140.514 96.0755 140.615L92.5979 142.828C92.2611 143.042 91.6858 143.027 91.3222 142.798Z" fill="#221C3A"/>
<path d="M101.778 144.663L105.255 142.45C105.414 142.349 105.493 142.215 105.493 142.076L105.495 141.314C105.494 141.452 105.416 141.587 105.257 141.688L101.779 143.901C101.442 144.116 100.867 144.101 100.503 143.871L97.3426 141.873C97.1525 141.753 97.0571 141.598 97.0577 141.446L97.0559 142.208C97.0553 142.36 97.1513 142.515 97.3408 142.636L100.502 144.633C100.865 144.863 101.44 144.878 101.778 144.663Z" fill="#221C3A"/>
<path d="M109.225 146.981L112.702 144.768C112.862 144.667 112.94 144.533 112.94 144.394L112.942 143.632C112.942 143.77 112.863 143.905 112.704 144.006L109.227 146.219C108.889 146.434 108.314 146.419 107.95 146.189L104.798 144.196C104.603 144.072 104.505 143.914 104.505 143.762L104.504 144.524C104.503 144.677 104.601 144.835 104.796 144.959L107.949 146.952C108.312 147.181 108.887 147.196 109.225 146.981Z" fill="#221C3A"/>
<path d="M75.0995 142.826L78.2522 144.819C78.6159 145.049 79.1905 145.064 79.5285 144.849L83.0062 142.636C83.1653 142.535 83.244 142.4 83.244 142.262L83.2458 141.499C83.2452 141.637 83.1671 141.772 83.008 141.873L79.5303 144.087C79.1929 144.301 78.6177 144.286 78.254 144.057L75.1013 142.063C74.9063 141.94 74.8086 141.782 74.8092 141.629L74.8074 142.391C74.8068 142.544 74.9045 142.702 75.0995 142.826Z" fill="#221C3A"/>
<path d="M85.7017 146.374L82.549 144.381C82.357 144.26 82.2593 144.1 82.2599 143.946L82.2581 144.708C82.2575 144.863 82.3552 145.022 82.5472 145.143L85.7 147.137C86.0636 147.366 86.6388 147.381 86.9762 147.167L90.4539 144.953C90.613 144.852 90.6917 144.718 90.6917 144.579L90.6935 143.817C90.6929 143.955 90.6148 144.09 90.4557 144.191L86.978 146.404C86.64 146.619 86.0648 146.604 85.7017 146.374Z" fill="#221C3A"/>
<path d="M96.1573 148.24L99.6427 146.022C99.8001 145.923 99.877 145.791 99.877 145.656L99.8787 144.893C99.8782 145.028 99.8019 145.16 99.6445 145.26L96.1591 147.478C95.8217 147.693 95.2464 147.678 94.8828 147.448L91.7223 145.45C91.5321 145.33 91.4367 145.174 91.4373 145.023L91.4355 145.785C91.435 145.937 91.5303 146.092 91.7205 146.212L94.881 148.21C95.244 148.44 95.8193 148.455 96.1573 148.24Z" fill="#221C3A"/>
<path d="M103.612 150.553L107.089 148.34C107.249 148.238 107.327 148.104 107.327 147.966L107.329 147.203C107.329 147.342 107.25 147.476 107.091 147.577L103.614 149.791C103.276 150.005 102.701 149.99 102.337 149.761L99.1845 147.767C98.9896 147.644 98.8918 147.486 98.8924 147.333L98.8906 148.095C98.89 148.249 98.9878 148.407 99.1827 148.53L102.336 150.523C102.699 150.753 103.274 150.768 103.612 150.553Z" fill="#221C3A"/>
<path d="M69.4789 146.402L72.6316 148.396C72.9953 148.625 73.5705 148.64 73.9079 148.426L77.3933 146.208C77.5525 146.107 77.6312 145.972 77.6312 145.834L77.6329 145.072C77.6323 145.209 77.5543 145.344 77.3951 145.446L73.9097 147.663C73.5723 147.878 72.9971 147.863 72.6334 147.633L69.4806 145.64C69.2857 145.517 69.188 145.359 69.1886 145.205L69.1868 145.968C69.1862 146.121 69.2833 146.279 69.4789 146.402Z" fill="#221C3A"/>
<path d="M80.0877 149.946L76.9349 147.953C76.743 147.831 76.6452 147.672 76.6458 147.517L76.644 148.28C76.6434 148.434 76.7412 148.594 76.9332 148.715L80.0859 150.708C80.4496 150.938 81.0248 150.953 81.3622 150.738L84.8399 148.526C84.999 148.424 85.0771 148.29 85.0777 148.152L85.0795 147.389C85.0789 147.527 85.0008 147.662 84.8417 147.763L81.364 149.977C81.0266 150.191 80.4514 150.176 80.0877 149.946Z" fill="#221C3A"/>
<path d="M90.5437 151.812L94.0214 149.599C94.1806 149.497 94.2593 149.363 94.2593 149.225L94.261 148.462C94.2605 148.6 94.1824 148.735 94.0232 148.836L90.5455 151.049C90.2081 151.264 89.6329 151.249 89.2693 151.019L86.1088 149.021C85.9186 148.901 85.8232 148.745 85.8238 148.593L85.822 149.356C85.8214 149.508 85.9174 149.663 86.107 149.783L89.2675 151.781C89.6311 152.012 90.2064 152.027 90.5437 151.812Z" fill="#221C3A"/>
<path d="M97.9909 154.13L101.469 151.916C101.628 151.815 101.706 151.681 101.706 151.542L101.708 150.78C101.708 150.918 101.63 151.053 101.47 151.154L97.9927 153.367C97.6553 153.582 97.0801 153.567 96.7164 153.337L93.5637 151.344C93.3687 151.221 93.271 151.063 93.2716 150.91L93.2698 151.672C93.2692 151.826 93.3669 151.984 93.5619 152.106L96.7146 154.1C97.0783 154.329 97.6535 154.344 97.9909 154.13Z" fill="#221C3A"/>
<path d="M63.8653 149.974L67.0181 151.967C67.3817 152.197 67.9564 152.212 68.2944 151.997L71.772 149.784C71.9312 149.683 72.0099 149.548 72.0099 149.41L72.0117 148.648C72.0111 148.786 71.933 148.921 71.7738 149.022L68.2962 151.235C67.9588 151.45 67.3835 151.435 67.0199 151.205L63.8671 149.212C63.6722 149.088 63.5744 148.93 63.575 148.777L63.5732 149.539C63.5726 149.693 63.6704 149.851 63.8653 149.974Z" fill="#221C3A"/>
<path d="M74.4675 153.523L71.3147 151.529C71.1227 151.408 71.025 151.249 71.0256 151.094L71.0232 151.856C71.0226 152.011 71.1204 152.17 71.3129 152.292L74.4657 154.285C74.8293 154.515 75.4046 154.53 75.7419 154.315L79.2196 152.102C79.3788 152.001 79.4575 151.866 79.4575 151.728L79.4592 150.965C79.4586 151.103 79.3806 151.238 79.2214 151.339L75.7437 153.552C75.4057 153.767 74.8305 153.752 74.4675 153.523Z" fill="#221C3A"/>
<path d="M84.9224 155.389L88.4078 153.171C88.567 153.07 88.6457 152.935 88.6457 152.797L88.6475 152.035C88.6469 152.173 88.5688 152.307 88.4096 152.409L84.9242 154.626C84.5868 154.841 84.0116 154.826 83.648 154.596L80.4874 152.598C80.2973 152.478 80.2019 152.323 80.2025 152.171L80.2007 152.933C80.2001 153.085 80.2961 153.241 80.4856 153.361L83.6468 155.359C84.0098 155.588 84.585 155.603 84.9224 155.389Z" fill="#221C3A"/>
<path d="M92.3779 157.701L95.8555 155.489C96.0147 155.387 96.0934 155.253 96.0934 155.115L96.0952 154.352C96.0946 154.49 96.0165 154.625 95.8573 154.726L92.3797 156.94C92.0423 157.154 91.467 157.139 91.1034 156.91L87.9506 154.916C87.7557 154.793 87.6579 154.635 87.6585 154.482L87.6567 155.245C87.6561 155.398 87.7539 155.555 87.9488 155.679L91.1016 157.672C91.4646 157.902 92.0399 157.917 92.3779 157.701Z" fill="#221C3A"/>
<path d="M58.2437 153.551L61.3965 155.544C61.7602 155.774 62.3348 155.789 62.6728 155.574L66.1582 153.356C66.3174 153.255 66.396 153.121 66.396 152.982L66.3978 152.22C66.3972 152.358 66.3191 152.493 66.16 152.594L62.6746 154.812C62.3372 155.026 61.7619 155.011 61.3983 154.782L58.2455 152.788C58.0506 152.665 57.9528 152.507 57.9534 152.354L57.9517 153.117C57.9517 153.269 58.0488 153.427 58.2437 153.551Z" fill="#221C3A"/>
<path d="M68.854 157.094L65.7012 155.101C65.5092 154.979 65.4115 154.82 65.4115 154.665L65.4097 155.428C65.4091 155.582 65.5068 155.742 65.6994 155.863L68.8522 157.856C69.2158 158.086 69.7904 158.101 70.1284 157.887L73.6061 155.673C73.7652 155.572 73.8439 155.438 73.8439 155.299L73.8457 154.537C73.8451 154.675 73.767 154.81 73.6079 154.911L70.1302 157.124C69.7928 157.339 69.2176 157.324 68.854 157.094Z" fill="#221C3A"/>
<path d="M79.3096 158.96L82.7873 156.747C82.9464 156.646 83.0251 156.511 83.0251 156.373L83.0269 155.611C83.0263 155.748 82.9482 155.883 82.7891 155.985L79.3114 158.198C78.974 158.413 78.3988 158.398 78.0352 158.168L74.8746 156.17C74.6845 156.05 74.5891 155.895 74.5897 155.742L74.5879 156.505C74.5873 156.657 74.6833 156.812 74.8728 156.932L78.0334 158.93C78.397 159.16 78.9722 159.175 79.3096 158.96Z" fill="#221C3A"/>
<path d="M86.7568 161.278L90.2344 159.065C90.3936 158.964 90.4723 158.829 90.4723 158.691L90.4741 157.929C90.4735 158.067 90.3954 158.202 90.2362 158.303L86.7586 160.516C86.4212 160.73 85.8459 160.715 85.4823 160.486L82.3295 158.492C82.1346 158.369 82.0368 158.211 82.0374 158.058L82.0356 158.821C82.0351 158.974 82.1328 159.131 82.3277 159.255L85.4805 161.248C85.8442 161.478 86.4194 161.493 86.7568 161.278Z" fill="#221C3A"/>
<path d="M123.645 143.931L118.354 147.298C118.016 147.513 117.441 147.498 117.077 147.268L113.916 145.27C113.726 145.15 113.631 144.994 113.631 144.843L113.629 145.605C113.629 145.757 113.725 145.912 113.914 146.032L117.075 148.03C117.438 148.26 118.013 148.275 118.351 148.06L123.642 144.694C123.801 144.593 123.88 144.458 123.88 144.32L123.882 143.557C123.882 143.696 123.804 143.83 123.645 143.931Z" fill="#221C3A"/>
<path d="M116.336 148.642L90.3351 165.197C89.9977 165.411 89.4225 165.396 89.0588 165.167L85.8983 163.169C85.7081 163.049 85.6128 162.893 85.6134 162.741L85.6116 163.504C85.611 163.656 85.7069 163.811 85.8965 163.931L89.057 165.929C89.4207 166.159 89.9953 166.174 90.3333 165.959L116.335 149.404C116.496 149.302 116.576 149.166 116.576 149.027L116.578 148.265C116.577 148.404 116.497 148.539 116.336 148.642Z" fill="#221C3A"/>
<path d="M52.631 157.122L55.7837 159.116C56.1474 159.345 56.722 159.36 57.06 159.146L60.5377 156.932C60.6968 156.831 60.7755 156.697 60.7755 156.558L60.7773 155.796C60.7767 155.934 60.6986 156.069 60.5394 156.17L57.0618 158.383C56.7244 158.597 56.1492 158.582 55.7855 158.353L52.6327 156.359C52.4378 156.236 52.3401 156.078 52.3407 155.925L52.3389 156.687C52.3383 156.841 52.436 156.999 52.631 157.122Z" fill="#221C3A"/>
<path d="M63.2336 160.671L60.0808 158.678C59.8889 158.556 59.7911 158.397 59.7911 158.242L59.7893 159.005C59.7887 159.159 59.8865 159.319 60.079 159.44L63.2318 161.433C63.5954 161.663 64.1701 161.678 64.5081 161.463L67.9857 159.25C68.1449 159.149 68.2236 159.014 68.2236 158.876L68.2253 158.114C68.2248 158.252 68.1467 158.387 67.9875 158.488L64.5098 160.701C64.1719 160.916 63.5966 160.901 63.2336 160.671Z" fill="#221C3A"/>
<path d="M73.6883 162.537L77.1737 160.319C77.3328 160.218 77.4115 160.084 77.4115 159.945L77.4133 159.183C77.4127 159.321 77.3346 159.456 77.1755 159.557L73.6901 161.775C73.3527 161.989 72.7774 161.974 72.4138 161.745L69.2533 159.747C69.0631 159.627 68.9677 159.471 68.9683 159.319L68.9666 160.082C68.966 160.234 69.0619 160.389 69.2515 160.509L72.412 162.507C72.7757 162.737 73.3509 162.752 73.6883 162.537Z" fill="#221C3A"/>
<path d="M81.1437 164.85L84.6214 162.637C84.7806 162.536 84.8593 162.401 84.8593 162.263L84.861 161.501C84.8604 161.639 84.7824 161.773 84.6232 161.875L81.1455 164.088C80.8081 164.303 80.2329 164.288 79.8693 164.058L76.7165 162.065C76.5216 161.941 76.4238 161.783 76.4244 161.63L76.4226 162.392C76.422 162.546 76.5198 162.704 76.7147 162.827L79.8675 164.82C80.2311 165.05 80.8058 165.065 81.1437 164.85Z" fill="#221C3A"/>
<path d="M47.0184 160.694L50.1712 162.687C50.5348 162.917 51.1017 162.937 51.4397 162.722L54.9251 160.505C55.0843 160.403 55.163 160.269 55.163 160.131L55.1648 159.368C55.1642 159.506 55.0861 159.641 54.9269 159.742L51.4415 161.96C51.1041 162.175 50.5366 162.155 50.173 161.925L47.0202 159.932C46.8229 159.807 46.7234 159.648 46.724 159.495L46.7222 160.257C46.7216 160.411 46.8211 160.569 47.0184 160.694Z" fill="#221C3A"/>
<path d="M57.6196 164.242L54.4668 162.249C54.2748 162.128 54.1771 161.968 54.1771 161.814L54.1753 162.576C54.1747 162.731 54.2725 162.89 54.465 163.011L57.6178 165.005C57.9814 165.235 58.5561 165.25 58.894 165.035L62.3717 162.822C62.5309 162.72 62.6096 162.586 62.6096 162.448L62.6113 161.685C62.6107 161.823 62.5327 161.958 62.3735 162.059L58.8958 164.272C58.5584 164.487 57.9832 164.472 57.6196 164.242Z" fill="#221C3A"/>
<path d="M68.0771 165.347C67.7398 165.562 67.1645 165.547 66.8009 165.317L63.6404 163.319C63.4502 163.199 63.3548 163.043 63.3548 162.891L63.353 163.654C63.3524 163.806 63.4484 163.961 63.638 164.081L66.7991 166.079C67.1627 166.309 67.7374 166.324 68.0754 166.109L71.553 163.897C71.7122 163.795 71.7909 163.66 71.7909 163.523L71.7927 162.76C71.7921 162.899 71.714 163.033 71.5548 163.134L68.0771 165.347Z" fill="#221C3A"/>
<path d="M75.5224 168.427L79.0001 166.214C79.1592 166.113 79.2379 165.978 79.2379 165.84L79.2397 165.077C79.2391 165.215 79.161 165.35 79.0018 165.451L75.5242 167.665C75.1868 167.879 74.6116 167.864 74.2479 167.635L71.0951 165.641C70.9002 165.518 70.8025 165.36 70.8031 165.207L70.8013 165.969C70.8007 166.122 70.8984 166.28 71.0934 166.403L74.2461 168.396C74.6098 168.627 75.185 168.642 75.5224 168.427Z" fill="#221C3A"/>
<path d="M88.1676 166.505L84.6822 168.723C84.3448 168.938 83.7695 168.923 83.4059 168.693L80.2531 166.7C80.0582 166.577 79.9604 166.419 79.961 166.266L79.9592 167.028C79.9586 167.182 80.0564 167.339 80.2513 167.462L83.4041 169.456C83.7677 169.685 84.3424 169.7 84.6804 169.486L88.1658 167.268C88.3249 167.167 88.403 167.032 88.4036 166.894L88.4054 166.131C88.4054 166.27 88.3267 166.404 88.1676 166.505Z" fill="#221C3A"/>
<path d="M49.5414 163.707L49.5432 162.944C49.5426 163.083 49.4645 163.217 49.3053 163.318L45.8277 165.531C45.4903 165.746 44.915 165.731 44.5514 165.501L41.3986 163.508C41.2037 163.385 41.1059 163.227 41.1065 163.073L41.1047 163.836C41.1041 163.989 41.2019 164.147 41.3968 164.27L44.5496 166.263C44.9132 166.493 45.4879 166.508 45.8259 166.293L49.3035 164.08C49.4627 163.979 49.5414 163.845 49.5414 163.707Z" fill="#221C3A"/>
<path d="M56.9885 166.025L56.9903 165.263C56.9897 165.401 56.9116 165.535 56.7525 165.637L51.4692 168.999C51.1318 169.213 50.5566 169.198 50.193 168.969L47.0402 166.975C46.8482 166.854 46.7505 166.695 46.7511 166.54L46.7493 167.302C46.7487 167.457 46.8464 167.616 47.0384 167.738L50.1912 169.731C50.5548 169.961 51.1294 169.976 51.4674 169.761L56.7507 166.399C56.9098 166.297 56.9885 166.163 56.9885 166.025Z" fill="#221C3A"/>
<path d="M58.0338 167.657L61.1788 169.655C61.5425 169.885 62.1171 169.9 62.4551 169.685L65.9405 167.467C66.0997 167.366 66.1784 167.232 66.1784 167.093L66.1801 166.331C66.1796 166.469 66.1015 166.604 65.9423 166.705L62.4569 168.923C62.1195 169.138 61.5443 169.123 61.1806 168.893L58.0356 166.895C57.8383 166.77 57.7387 166.612 57.7393 166.458L57.7376 167.221C57.737 167.374 57.8365 167.533 58.0338 167.657Z" fill="#221C3A"/>
<path d="M65.4806 169.975L68.6334 171.968C68.997 172.198 69.5716 172.213 69.9096 171.998L73.3873 169.785C73.5464 169.684 73.6251 169.55 73.6251 169.411L73.6269 168.649C73.6263 168.787 73.5482 168.922 73.3891 169.023L69.9114 171.236C69.574 171.451 68.9988 171.436 68.6351 171.206L65.4824 169.213C65.2874 169.089 65.1897 168.931 65.1903 168.779L65.1885 169.541C65.1879 169.694 65.285 169.852 65.4806 169.975Z" fill="#221C3A"/>
<path d="M82.5468 170.082L79.0691 172.295C78.7317 172.51 78.1565 172.495 77.7929 172.265L74.6401 170.272C74.4451 170.149 74.3474 169.991 74.348 169.837L74.3462 170.6C74.3456 170.753 74.4434 170.911 74.6383 171.034L77.7911 173.028C78.1547 173.257 78.7293 173.272 79.0673 173.058L82.545 170.844C82.7041 170.743 82.7828 170.609 82.7828 170.47L82.7846 169.708C82.784 169.846 82.7059 169.981 82.5468 170.082Z" fill="#221C3A"/>
<path d="M60.5568 170.67L60.5586 169.908C60.558 170.046 60.4799 170.181 60.3207 170.282L56.843 172.495C56.5056 172.71 55.9304 172.695 55.5668 172.465L52.414 170.472C52.2191 170.348 52.1213 170.19 52.1219 170.038L52.1201 170.8C52.1195 170.953 52.2173 171.111 52.4122 171.234L55.565 173.227C55.9286 173.457 56.5033 173.472 56.8413 173.257L60.3189 171.044C60.4781 170.943 60.5568 170.809 60.5568 170.67Z" fill="#221C3A"/>
<path d="M68.0039 172.988L68.0057 172.226C68.0051 172.364 67.9271 172.498 67.7679 172.6L62.4846 175.962C62.1472 176.176 61.572 176.161 61.2084 175.932L58.0556 173.938C57.8607 173.815 57.7629 173.657 57.7635 173.504L57.7617 174.266C57.7611 174.419 57.8589 174.577 58.0538 174.7L61.2066 176.693C61.5702 176.923 62.1449 176.938 62.4829 176.723L67.7661 173.361C67.9253 173.261 68.0039 173.126 68.0039 172.988Z" fill="#221C3A"/>
<path d="M76.9334 173.654L73.448 175.872C73.1106 176.086 72.5354 176.071 72.1718 175.842L69.019 173.848C68.8241 173.725 68.7263 173.567 68.7269 173.414L68.7251 174.176C68.7245 174.329 68.8223 174.487 69.0172 174.61L72.17 176.603C72.5336 176.833 73.1082 176.848 73.4462 176.633L76.9316 174.415C77.0908 174.314 77.1695 174.18 77.1695 174.041L77.1713 173.279C77.1713 173.418 77.0926 173.553 76.9334 173.654Z" fill="#221C3A"/>
<path d="M71.3124 177.23L67.8347 179.444C67.4973 179.658 66.9221 179.643 66.5585 179.414L63.4057 177.42C63.2108 177.297 63.113 177.139 63.1136 176.986L63.1118 177.749C63.1112 177.902 63.209 178.06 63.4039 178.183L66.5567 180.176C66.9203 180.406 67.4956 180.421 67.833 180.206L71.3106 177.993C71.4698 177.892 71.5485 177.758 71.5485 177.619L71.5503 176.857C71.5503 176.995 71.4722 177.129 71.3124 177.23Z" fill="#221C3A"/>
<path d="M110.602 119.514L113.755 121.507C114.118 121.737 114.693 121.752 115.031 121.537L118.509 119.324C118.846 119.109 118.82 118.744 118.457 118.515L115.305 116.521C114.933 116.286 114.366 116.277 114.028 116.491L110.551 118.705C110.213 118.919 110.23 119.279 110.602 119.514Z" fill="white"/>
<path d="M104.981 123.091L108.134 125.084C108.497 125.314 109.072 125.329 109.41 125.114L112.887 122.901C113.233 122.681 113.199 122.321 112.836 122.091L109.683 120.098C109.312 119.863 108.753 119.848 108.407 120.068L104.929 122.281C104.592 122.496 104.609 122.856 104.981 123.091Z" fill="white"/>
<path d="M116.125 123.006L119.286 125.004C119.649 125.234 120.216 125.243 120.554 125.029L124.032 122.815C124.369 122.601 124.352 122.241 123.988 122.011L120.828 120.013C120.464 119.784 119.889 119.769 119.551 119.983L116.081 122.201C115.744 122.417 115.761 122.776 116.125 123.006Z" fill="white"/>
<path d="M118.367 125.588L115.207 123.591C114.843 123.361 114.276 123.341 113.931 123.561L110.461 125.778C110.123 125.993 110.141 126.353 110.504 126.582L113.665 128.58C114.028 128.81 114.595 128.82 114.933 128.605L118.41 126.392C118.757 126.173 118.731 125.818 118.367 125.588Z" fill="white"/>
<path d="M117.22 129.225L120.381 131.223C120.745 131.452 121.319 131.467 121.657 131.253L129.492 126.267C129.829 126.053 129.804 125.688 129.441 125.458L126.28 123.46C125.916 123.23 125.35 123.221 125.012 123.435L117.177 128.421C116.84 128.635 116.857 128.995 117.22 129.225Z" fill="white"/>
<path d="M99.3677 126.662L102.521 128.656C102.884 128.885 103.459 128.9 103.797 128.686L107.274 126.472C107.612 126.258 107.587 125.893 107.223 125.663L104.07 123.67C103.699 123.435 103.132 123.425 102.794 123.64L99.3165 125.852C98.9785 126.068 98.9963 126.427 99.3677 126.662Z" fill="white"/>
<path d="M108.318 127.131L104.848 129.349C104.51 129.564 104.528 129.924 104.891 130.153L108.052 132.151C108.415 132.381 108.982 132.391 109.32 132.176L112.798 129.964C113.135 129.749 113.118 129.389 112.755 129.159L109.594 127.161C109.23 126.932 108.655 126.917 108.318 127.131Z" fill="white"/>
<path d="M114.781 135.629L119.515 132.617C119.852 132.402 119.826 132.037 119.463 131.807L116.303 129.809C115.939 129.58 115.372 129.57 115.035 129.785L110.301 132.797C109.964 133.012 109.981 133.371 110.345 133.601L113.506 135.599C113.868 135.829 114.443 135.844 114.781 135.629Z" fill="white"/>
<path d="M117.674 136.213L120.495 137.996C120.953 138.286 121.654 138.301 122.07 138.036L135.024 129.794C135.44 129.529 135.422 129.08 134.963 128.79L131.881 126.842C131.581 126.652 131.108 126.642 130.818 126.817L117.605 135.214C117.189 135.479 117.216 135.924 117.674 136.213Z" fill="white"/>
<path d="M140.591 132.506L137.43 130.509C137.066 130.279 136.499 130.269 136.162 130.484L132.684 132.697C132.347 132.912 132.364 133.271 132.728 133.501L135.889 135.499C136.252 135.729 136.827 135.744 137.165 135.529L140.643 133.316C140.98 133.101 140.954 132.736 140.591 132.506Z" fill="white"/>
<path d="M130.541 134.061L127.063 136.274C126.726 136.489 126.743 136.848 127.115 137.083L127.644 137.418C128.008 137.648 128.582 137.663 128.92 137.448L132.398 135.235C132.743 135.015 132.71 134.655 132.347 134.426L131.817 134.091C131.445 133.856 130.886 133.841 130.541 134.061Z" fill="white"/>
<path d="M134.97 136.083L134.433 135.744C134.069 135.514 133.51 135.499 133.164 135.719L129.686 137.932C129.349 138.147 129.366 138.507 129.73 138.736L130.267 139.076C130.631 139.306 131.205 139.321 131.543 139.106L135.021 136.893C135.367 136.673 135.333 136.313 134.97 136.083Z" fill="white"/>
<path d="M129.357 139.655L126.204 137.662C125.833 137.427 125.266 137.417 124.928 137.632L121.45 139.845C121.113 140.059 121.13 140.419 121.501 140.654L124.654 142.647C125.018 142.877 125.592 142.892 125.93 142.677L129.408 140.465C129.745 140.249 129.72 139.885 129.357 139.655Z" fill="white"/>
<path d="M91.9488 131.343L95.1016 133.336C95.4652 133.566 96.0398 133.581 96.3778 133.366L101.669 129.999C102.006 129.784 101.981 129.419 101.618 129.189L98.4648 127.196C98.0934 126.961 97.5259 126.951 97.1885 127.166L91.8975 130.533C91.5595 130.749 91.5774 131.108 91.9488 131.343Z" fill="white"/>
<path d="M102.83 130.634L99.3523 132.847C99.0149 133.062 99.0406 133.427 99.4036 133.657L102.556 135.65C102.92 135.88 103.495 135.895 103.833 135.68L107.31 133.467C107.648 133.252 107.622 132.887 107.259 132.657L104.106 130.664C103.743 130.434 103.167 130.419 102.83 130.634Z" fill="white"/>
<path d="M86.3357 134.915L89.4885 136.908C89.8521 137.138 90.4268 137.153 90.7648 136.938L94.2424 134.726C94.5798 134.511 94.5542 134.146 94.1912 133.916L91.0384 131.923C90.667 131.688 90.0995 131.678 89.7621 131.893L86.2845 134.106C85.9465 134.32 85.9644 134.68 86.3357 134.915Z" fill="white"/>
<path d="M97.2096 134.211L93.732 136.423C93.3946 136.638 93.4202 137.003 93.7832 137.233L96.936 139.226C97.2996 139.456 97.8743 139.471 98.2123 139.256L101.69 137.043C102.027 136.828 102.002 136.463 101.639 136.233L98.4859 134.24C98.1223 134.01 97.547 133.996 97.2096 134.211Z" fill="white"/>
<path d="M107.393 140.33L112.685 136.963C113.022 136.748 112.997 136.384 112.634 136.154L109.473 134.156C109.109 133.926 108.543 133.916 108.205 134.131L102.913 137.498C102.576 137.712 102.593 138.072 102.957 138.302L106.117 140.3C106.481 140.529 107.056 140.544 107.393 140.33Z" fill="white"/>
<path d="M114.848 142.642L119.998 139.365C120.335 139.15 120.31 138.785 119.947 138.556L116.794 136.562C116.422 136.327 115.856 136.318 115.518 136.532L110.367 139.809C110.03 140.024 110.047 140.384 110.419 140.619L113.571 142.612C113.936 142.843 114.511 142.857 114.848 142.642Z" fill="white"/>
<path d="M80.7147 138.492L83.8675 140.485C84.2311 140.715 84.8058 140.73 85.1438 140.515L88.6292 138.297C88.9666 138.082 88.9332 137.723 88.5696 137.493L85.4168 135.5C85.0454 135.265 84.4863 135.25 84.1483 135.465L80.6629 137.682C80.3255 137.897 80.3433 138.257 80.7147 138.492Z" fill="white"/>
<path d="M91.5961 137.782L88.1184 139.996C87.781 140.21 87.806 140.575 88.1697 140.805L91.3224 142.798C91.6861 143.028 92.2607 143.043 92.5987 142.828L96.0764 140.615C96.4138 140.4 96.3881 140.035 96.0251 139.806L92.8723 137.812C92.5087 137.583 91.9335 137.568 91.5961 137.782Z" fill="white"/>
<path d="M101.78 143.901L105.257 141.688C105.595 141.473 105.57 141.108 105.206 140.879L102.046 138.881C101.682 138.651 101.115 138.641 100.777 138.856L97.2995 141.069C96.9621 141.283 96.9794 141.643 97.343 141.873L100.504 143.871C100.867 144.101 101.442 144.116 101.78 143.901Z" fill="white"/>
<path d="M109.227 146.219L112.704 144.006C113.042 143.791 113.017 143.426 112.653 143.196L109.5 141.203C109.129 140.968 108.562 140.958 108.224 141.173L104.746 143.386C104.409 143.601 104.426 143.961 104.798 144.196L107.95 146.189C108.314 146.419 108.889 146.434 109.227 146.219Z" fill="white"/>
<path d="M75.1012 142.063L78.2539 144.056C78.6176 144.286 79.1922 144.301 79.5302 144.086L83.0079 141.873C83.3452 141.658 83.3202 141.294 82.9566 141.064L79.8038 139.07C79.4324 138.835 78.8649 138.826 78.5276 139.04L75.0499 141.254C74.7125 141.468 74.7304 141.828 75.1012 142.063Z" fill="white"/>
<path d="M85.975 141.359L82.4973 143.572C82.1599 143.787 82.1856 144.152 82.5486 144.382L85.7014 146.375C86.065 146.605 86.6403 146.62 86.9776 146.405L90.4553 144.192C90.7927 143.977 90.7671 143.612 90.404 143.382L87.2513 141.389C86.887 141.159 86.3124 141.144 85.975 141.359Z" fill="white"/>
<path d="M96.1589 147.478L99.6444 145.26C99.9817 145.045 99.9484 144.686 99.5853 144.456L96.4242 142.458C96.0606 142.228 95.5014 142.213 95.164 142.428L91.6786 144.646C91.3412 144.861 91.3585 145.22 91.7221 145.45L94.8827 147.448C95.2463 147.678 95.821 147.693 96.1589 147.478Z" fill="white"/>
<path d="M103.614 149.791L107.092 147.578C107.429 147.363 107.404 146.998 107.04 146.768L103.888 144.775C103.516 144.54 102.949 144.53 102.611 144.745L99.1336 146.958C98.7962 147.173 98.8135 147.533 99.1849 147.768L102.338 149.761C102.701 149.991 103.277 150.006 103.614 149.791Z" fill="white"/>
<path d="M69.4808 145.64L72.6335 147.633C72.9972 147.863 73.5718 147.878 73.9098 147.663L77.3952 145.446C77.7326 145.231 77.707 144.866 77.3439 144.636L74.1911 142.643C73.8198 142.408 73.2529 142.398 72.9149 142.613L69.4295 144.831C69.0915 145.045 69.1094 145.405 69.4808 145.64Z" fill="white"/>
<path d="M80.3619 144.93L76.8843 147.144C76.5469 147.358 76.5719 147.723 76.9355 147.953L80.0883 149.946C80.4519 150.176 81.0272 150.191 81.3646 149.976L84.8422 147.763C85.1796 147.548 85.154 147.184 84.791 146.954L81.6382 144.96C81.2746 144.731 80.6993 144.716 80.3619 144.93Z" fill="white"/>
<path d="M90.5457 151.05L94.0233 148.837C94.3607 148.622 94.3351 148.257 93.9721 148.028L90.8115 146.03C90.4479 145.8 89.881 145.79 89.543 146.005L86.0653 148.218C85.728 148.433 85.7452 148.793 86.1089 149.022L89.2694 151.02C89.633 151.249 90.2083 151.264 90.5457 151.05Z" fill="white"/>
<path d="M97.9926 153.367L101.47 151.154C101.808 150.939 101.782 150.575 101.419 150.345L98.2662 148.351C97.8948 148.116 97.3279 148.107 96.9899 148.321L93.5123 150.535C93.1749 150.749 93.1922 151.109 93.5635 151.344L96.7163 153.337C97.0799 153.568 97.6552 153.582 97.9926 153.367Z" fill="white"/>
<path d="M63.867 149.212L67.0198 151.205C67.3834 151.435 67.9586 151.45 68.296 151.235L71.7737 149.022C72.1111 148.807 72.0855 148.442 71.7224 148.212L68.5696 146.219C68.1983 145.984 67.6308 145.974 67.2934 146.189L63.8157 148.402C63.4783 148.617 63.4956 148.977 63.867 149.212Z" fill="white"/>
<path d="M74.7404 148.507L71.2627 150.72C70.9253 150.935 70.951 151.299 71.314 151.529L74.4668 153.523C74.8304 153.752 75.4056 153.767 75.743 153.553L79.2207 151.34C79.5581 151.125 79.533 150.76 79.1694 150.531L76.0166 148.537C75.6536 148.307 75.0784 148.292 74.7404 148.507Z" fill="white"/>
<path d="M84.9249 154.626L88.4103 152.408C88.7477 152.194 88.7221 151.829 88.3591 151.599L85.1985 149.601C84.8349 149.371 84.268 149.362 83.93 149.576L80.444 151.794C80.1066 152.009 80.1239 152.369 80.4875 152.598L83.6481 154.596C84.0123 154.826 84.5869 154.841 84.9249 154.626Z" fill="white"/>
<path d="M92.3798 156.94L95.8574 154.726C96.1948 154.512 96.1692 154.147 95.8062 153.917L92.6534 151.924C92.282 151.689 91.7151 151.679 91.3771 151.894L87.8995 154.107C87.5621 154.322 87.5794 154.681 87.9507 154.916L91.1035 156.91C91.4671 157.139 92.0424 157.154 92.3798 156.94Z" fill="white"/>
<path d="M58.2462 152.788L61.399 154.782C61.7626 155.011 62.3373 155.026 62.6753 154.812L66.1607 152.594C66.4981 152.379 66.473 152.014 66.1094 151.784L62.9566 149.791C62.5853 149.556 62.0178 149.546 61.6804 149.761L58.1944 151.979C57.857 152.194 57.8748 152.553 58.2462 152.788Z" fill="white"/>
<path d="M69.1276 152.079L65.6499 154.292C65.3125 154.507 65.3375 154.872 65.7012 155.101L68.8539 157.095C69.2176 157.325 69.7928 157.34 70.1302 157.125L73.6079 154.912C73.9453 154.697 73.9196 154.332 73.5566 154.102L70.4038 152.109C70.0402 151.879 69.4649 151.864 69.1276 152.079Z" fill="white"/>
<path d="M79.3115 158.198L82.7892 155.985C83.1266 155.77 83.1009 155.405 82.7379 155.175L79.5774 153.177C79.2138 152.948 78.6469 152.938 78.3089 153.153L74.8312 155.365C74.4938 155.58 74.5111 155.94 74.8747 156.169L78.0353 158.167C78.3989 158.398 78.9741 158.413 79.3115 158.198Z" fill="white"/>
<path d="M86.7584 160.516L90.2361 158.304C90.5735 158.089 90.5485 157.724 90.1848 157.494L87.0321 155.501C86.6607 155.266 86.0932 155.256 85.7558 155.471L82.2781 157.684C81.9407 157.898 81.958 158.258 82.3294 158.493L85.4822 160.486C85.8458 160.716 86.421 160.731 86.7584 160.516Z" fill="white"/>
<path d="M123.593 143.122L120.432 141.124C120.068 140.894 119.501 140.885 119.163 141.099L113.872 144.466C113.535 144.681 113.552 145.04 113.916 145.27L117.077 147.268C117.441 147.498 118.015 147.513 118.353 147.298L123.644 143.931C123.982 143.717 123.956 143.352 123.593 143.122Z" fill="white"/>
<path d="M116.293 147.838L113.131 145.84C112.768 145.61 112.201 145.6 111.864 145.815L85.8544 162.365C85.517 162.579 85.5343 162.939 85.8979 163.169L89.0585 165.167C89.4221 165.396 89.9967 165.411 90.3347 165.197L116.336 148.642C116.674 148.427 116.656 148.067 116.293 147.838Z" fill="white"/>
<path d="M52.6326 156.36L55.7854 158.353C56.149 158.583 56.7237 158.598 57.0617 158.383L60.5393 156.171C60.8767 155.956 60.8511 155.591 60.4881 155.361L57.3353 153.368C56.9639 153.133 56.397 153.123 56.059 153.338L52.5814 155.551C52.244 155.765 52.2612 156.125 52.6326 156.36Z" fill="white"/>
<path d="M63.5063 155.656L60.0286 157.869C59.6912 158.084 59.7168 158.449 60.0799 158.678L63.2326 160.672C63.5963 160.901 64.1709 160.916 64.5089 160.702L67.9866 158.488C68.324 158.274 68.2983 157.909 67.9353 157.679L64.7825 155.686C64.4189 155.456 63.8442 155.441 63.5063 155.656Z" fill="white"/>
<path d="M73.6907 161.775L77.1761 159.557C77.5135 159.342 77.4879 158.977 77.1248 158.747L73.9643 156.75C73.6007 156.52 73.0338 156.51 72.6958 156.725L69.2104 158.943C68.873 159.157 68.8903 159.517 69.2539 159.747L72.4144 161.745C72.778 161.974 73.3527 161.989 73.6907 161.775Z" fill="white"/>
<path d="M81.1456 164.088L84.6233 161.874C84.9607 161.66 84.9351 161.295 84.572 161.065L81.4193 159.072C81.0479 158.837 80.481 158.827 80.143 159.042L76.6653 161.254C76.3279 161.469 76.3452 161.829 76.7166 162.064L79.8694 164.057C80.233 164.287 80.8083 164.303 81.1456 164.088Z" fill="white"/>
<path d="M47.0201 159.931L50.1729 161.925C50.5365 162.155 51.1034 162.175 51.4414 161.96L54.9268 159.742C55.2642 159.527 55.2386 159.163 54.8755 158.933L51.7227 156.939C51.3514 156.705 50.7845 156.695 50.4465 156.909L46.9611 159.127C46.6231 159.342 46.6487 159.697 47.0201 159.931Z" fill="white"/>
<path d="M57.8935 159.227L54.4158 161.441C54.0784 161.655 54.104 162.02 54.4671 162.25L57.6198 164.243C57.9835 164.473 58.5581 164.488 58.8961 164.273L62.3738 162.061C62.7112 161.846 62.6855 161.481 62.3225 161.251L59.1697 159.258C58.8061 159.027 58.2309 159.012 57.8935 159.227Z" fill="white"/>
<path d="M68.343 160.326C67.9794 160.096 67.4125 160.087 67.0745 160.301L63.5968 162.514C63.2594 162.729 63.2767 163.088 63.6404 163.318L66.8009 165.316C67.1645 165.546 67.7392 165.561 68.0771 165.346L71.5548 163.133C71.8922 162.918 71.8666 162.553 71.5035 162.323L68.343 160.326Z" fill="white"/>
<path d="M75.5245 167.664L79.0022 165.451C79.3396 165.236 79.314 164.872 78.9509 164.642L75.7982 162.648C75.4268 162.413 74.8593 162.404 74.5219 162.618L71.0442 164.832C70.7068 165.046 70.7241 165.406 71.0955 165.641L74.2483 167.634C74.6119 167.864 75.1872 167.879 75.5245 167.664Z" fill="white"/>
<path d="M88.1164 165.696L84.9636 163.703C84.5923 163.468 84.0248 163.458 83.6874 163.673L80.202 165.891C79.8646 166.105 79.8819 166.465 80.2532 166.7L83.406 168.693C83.7696 168.923 84.3443 168.938 84.6823 168.723L88.1677 166.505C88.5051 166.291 88.48 165.926 88.1164 165.696Z" fill="white"/>
<path d="M49.2542 162.509L46.1014 160.516C45.73 160.281 45.1625 160.271 44.8251 160.486L41.3475 162.699C41.0101 162.914 41.0274 163.274 41.3987 163.509L44.5515 165.502C44.9151 165.732 45.4904 165.747 45.8278 165.532L49.3054 163.319C49.6434 163.103 49.6178 162.739 49.2542 162.509Z" fill="white"/>
<path d="M56.7013 164.827L53.5485 162.834C53.1849 162.604 52.6097 162.589 52.2723 162.804L46.989 166.166C46.6516 166.381 46.6766 166.746 47.0403 166.975L50.1931 168.969C50.5567 169.198 51.1313 169.213 51.4693 168.999L56.7526 165.637C57.0906 165.422 57.0649 165.057 56.7013 164.827Z" fill="white"/>
<path d="M58.0352 166.895L61.1803 168.893C61.5439 169.123 62.1185 169.138 62.4565 168.923L65.9419 166.705C66.2793 166.49 66.2537 166.125 65.8907 165.896L62.7301 163.898C62.3665 163.668 61.7996 163.658 61.4616 163.873L57.9762 166.091C57.6382 166.306 57.6639 166.66 58.0352 166.895Z" fill="white"/>
<path d="M65.4825 169.213L68.6352 171.206C68.9989 171.436 69.5735 171.451 69.9115 171.236L73.3892 169.023C73.7266 168.808 73.7009 168.443 73.3379 168.213L70.1851 166.22C69.8137 165.985 69.2463 165.975 68.9089 166.19L65.4312 168.403C65.0932 168.619 65.1111 168.978 65.4825 169.213Z" fill="white"/>
<path d="M82.4951 169.273L79.3423 167.279C78.971 167.044 78.4041 167.035 78.0661 167.249L74.5884 169.463C74.251 169.677 74.2683 170.037 74.6397 170.272L77.7925 172.265C78.1561 172.495 78.7307 172.51 79.0687 172.295L82.5464 170.082C82.8844 169.867 82.8588 169.503 82.4951 169.273Z" fill="white"/>
<path d="M60.2696 169.472L57.1168 167.479C56.7454 167.244 56.1785 167.234 55.8405 167.449L52.3628 169.662C52.0255 169.877 52.0427 170.237 52.4141 170.472L55.5669 172.465C55.9305 172.695 56.5058 172.71 56.8432 172.495L60.3208 170.282C60.6588 170.067 60.6332 169.702 60.2696 169.472Z" fill="white"/>
<path d="M67.7167 171.79L64.564 169.797C64.1926 169.562 63.6257 169.552 63.2877 169.767L58.0044 173.129C57.6671 173.344 57.6843 173.703 58.0557 173.938L61.2085 175.932C61.5721 176.161 62.1474 176.176 62.4848 175.962L67.768 172.6C68.106 172.385 68.0804 172.02 67.7167 171.79Z" fill="white"/>
<path d="M76.8819 172.844L73.7291 170.851C73.3577 170.616 72.7909 170.606 72.4529 170.821L68.9669 173.039C68.6295 173.254 68.6467 173.613 69.0181 173.848L72.1709 175.841C72.5345 176.071 73.1092 176.086 73.4472 175.872L76.9326 173.654C77.2706 173.439 77.2455 173.074 76.8819 172.844Z" fill="white"/>
<path d="M71.2608 176.421L68.108 174.428C67.7366 174.193 67.1691 174.183 66.8317 174.398L63.3541 176.61C63.0167 176.825 63.034 177.185 63.4053 177.42L66.5581 179.413C66.9217 179.643 67.497 179.658 67.8344 179.443L71.312 177.23C71.65 177.016 71.6244 176.651 71.2608 176.421Z" fill="white"/>
<path d="M144.288 161.543L114.675 180.263C114.157 180.591 113.317 180.591 112.799 180.263L93.8038 168.255C93.2858 167.928 93.2858 167.396 93.8038 167.069L123.416 148.349C123.934 148.022 124.775 148.022 125.293 148.349L144.288 160.357C144.806 160.684 144.806 161.215 144.288 161.543Z" fill="white"/>
<path d="M113.737 180.54C113.391 180.54 113.046 180.457 112.783 180.291L93.7886 168.283C93.5281 168.119 93.385 167.898 93.385 167.662C93.385 167.426 93.5281 167.206 93.7886 167.041L123.401 148.321C123.926 147.988 124.78 147.988 125.307 148.321L144.302 160.328C144.562 160.493 144.705 160.713 144.705 160.95C144.705 161.185 144.562 161.406 144.302 161.57L114.689 180.291C114.427 180.457 114.082 180.54 113.737 180.54ZM124.354 148.135C124.019 148.135 123.685 148.216 123.431 148.376L93.8184 167.097C93.5775 167.249 93.4446 167.45 93.4446 167.661C93.4446 167.873 93.5775 168.075 93.8184 168.227L112.813 180.235C113.321 180.556 114.15 180.556 114.66 180.235L144.273 161.514C144.513 161.362 144.646 161.161 144.646 160.95C144.646 160.738 144.513 160.537 144.273 160.384L125.278 148.377C125.023 148.216 124.689 148.135 124.354 148.135Z" fill="#221C3A"/>
<path d="M33.8548 171.986L30.4302 169.821C30.3312 169.758 30.2507 169.62 30.2507 169.511V168.629C30.2507 168.52 30.3312 168.483 30.4302 168.546L33.8548 170.711C33.9537 170.773 34.0336 170.912 34.0336 171.02V171.903C34.0342 172.011 33.9537 172.048 33.8548 171.986Z" fill="#36342F"/>
<path d="M38.4961 160.489V144.896L111.346 98.8424V98.7079L38.4961 144.761V129.03L111.346 82.9767V82.8416L38.4961 128.895V113.164L111.346 67.1103V66.9759L38.4961 113.029V97.2975L111.346 51.2446V51.1095L38.4961 97.163V81.4318L111.346 35.3789V35.2438L38.4961 81.2966V65.5654L111.346 19.5125V19.3774L38.4961 65.4309V65.0798L38.0383 65.3689V81.2705V81.7725V97.1728V97.6741V113.074V113.575V128.975V129.477V144.878V145.379V161.28L52.8092 151.942L96.8355 124.11L111.358 114.93V114.429L38.4961 160.489Z" fill="#5186EB"/>
<path d="M53.3845 148.248L48.1179 151.578V96.0555L53.3845 92.7261V148.248Z" fill="#FDB84C"/>
<path d="M48.1191 151.577L42.8525 154.906V116.509L48.1191 113.18V151.577Z" fill="#FDB84C"/>
<path d="M58.6505 144.919L53.3845 148.248V60.041L58.6505 56.7123V144.919Z" fill="#FDB84C"/>
<path d="M63.917 141.59L58.6504 144.919V76.8741L63.917 73.5447V141.59Z" fill="#EA4A4A"/>
<path d="M69.1836 138.261L63.917 141.59V100.975L69.1836 97.6453V138.261Z" fill="#EA4A4A"/>
<path d="M74.4491 134.932L69.1831 138.261V87.9241L74.4491 84.5947V134.932Z" fill="#EA4A4A"/>
<path d="M79.7163 131.603L74.4497 134.932V108.899L79.7163 105.569V131.603Z" fill="#F585A4"/>
<path d="M84.9824 128.273L79.7158 131.603V59.1607L84.9824 55.8319V128.273Z" fill="#F585A4"/>
<path d="M90.2486 124.944L84.9827 128.273V71.9194L90.2486 68.59V124.944Z" fill="#F585A4"/>
<path d="M95.5151 121.615L90.2485 124.944V57.7299L95.5151 54.4011V121.615Z" fill="#5186EB"/>
<path d="M100.782 118.285L95.5151 121.615V71.2777L100.782 67.949V118.285Z" fill="#5186EB"/>
<path d="M106.048 114.956L100.782 118.286V80.5591L106.048 77.2297V114.956Z" fill="#5186EB"/>
<path d="M111.314 111.627L106.048 114.956V103.911L111.314 100.582V111.627Z" fill="white"/>
<path d="M51.1527 51.7171L37.9407 60.069V52.9846L51.1527 44.6321V51.7171Z" fill="#FDB84C"/>
<path d="M68.2113 40.9335L54.9993 49.286V42.201L68.2113 33.8491V40.9335Z" fill="#EA4A4A"/>
<path d="M85.2694 30.1495L72.0574 38.5021V31.4171L85.2694 23.0652V30.1495Z" fill="#F585A4"/>
<path d="M102.328 19.3664L89.1162 27.7183V20.6333L102.328 12.2814V19.3664Z" fill="#5186EB"/>
<path d="M111.306 13.6911L106.174 16.9343V9.84997L111.306 6.60608V13.6911Z" fill="white"/>
<path d="M86.2243 55.0466C86.2243 55.7979 85.6682 56.758 84.9826 57.1914C84.2971 57.6248 83.741 57.3676 83.741 56.6164C83.741 55.8651 84.2971 54.905 84.9826 54.4716C85.6682 54.0382 86.2243 54.2954 86.2243 55.0466Z" fill="white"/>
<path d="M75.6919 83.8095C75.6919 84.5608 75.1357 85.5209 74.4502 85.9543C73.7641 86.3877 73.2085 86.1305 73.2085 85.3792C73.2085 84.628 73.7647 83.6679 74.4502 83.2345C75.1357 82.8018 75.6919 83.0589 75.6919 83.8095Z" fill="white"/>
<path d="M102.023 67.1638C102.023 67.915 101.467 68.8751 100.782 69.3085C100.096 69.7419 99.54 69.4847 99.54 68.7341C99.54 67.9835 100.096 67.0228 100.782 66.5894C101.467 66.1553 102.023 66.4125 102.023 67.1638Z" fill="white"/>
<path d="M59.8928 55.927C59.8928 56.6783 59.3366 57.6384 58.6511 58.0718C57.965 58.5052 57.4094 58.248 57.4094 57.4968C57.4094 56.7455 57.9656 55.7854 58.6511 55.352C59.3366 54.9186 59.8928 55.1758 59.8928 55.927Z" fill="white"/>
<path d="M108.42 72.9409C108.394 72.9409 108.369 72.9338 108.346 72.9188L100.706 68.0901C100.636 68.0451 100.611 67.9452 100.652 67.8675C100.693 67.7892 100.785 67.7625 100.856 67.8081L108.42 72.5898L122.967 63.394C123.036 63.3489 123.129 63.375 123.171 63.4534C123.211 63.5317 123.187 63.6309 123.116 63.6759L108.495 72.9188C108.471 72.9338 108.446 72.9409 108.42 72.9409Z" fill="white"/>
<path d="M82.0884 89.5864C82.0627 89.5864 82.0365 89.5793 82.0139 89.5643L74.3754 84.7356C74.3039 84.6906 74.2794 84.5907 74.3212 84.5131C74.3623 84.4354 74.4541 84.408 74.5244 84.4537L82.0884 89.2353L96.6351 80.0395C96.7042 79.9944 96.7966 80.0206 96.8389 80.0989C96.8795 80.1772 96.855 80.2764 96.7841 80.3214L82.1629 89.5643C82.1396 89.5793 82.114 89.5864 82.0884 89.5864Z" fill="white"/>
<path d="M87.4153 57.532C87.3897 57.532 87.3641 57.5248 87.3408 57.5098L84.9081 55.9721C84.8366 55.927 84.8121 55.8272 84.8539 55.7495C84.895 55.6718 84.9868 55.6451 85.0571 55.6901L87.4153 57.1809L101.961 47.985C102.031 47.94 102.123 47.9661 102.165 48.0444C102.206 48.1228 102.181 48.222 102.11 48.267L87.4898 57.5098C87.4666 57.5248 87.441 57.532 87.4153 57.532Z" fill="white"/>
<path d="M61.0833 58.4133C61.0577 58.4133 61.032 58.4061 61.0088 58.3911L58.5761 56.8533C58.5046 56.8083 58.4801 56.7084 58.5218 56.6307C58.5624 56.5531 58.6542 56.5263 58.7251 56.5714L61.0833 58.0621L75.63 48.8663C75.7009 48.8206 75.7921 48.848 75.8333 48.9257C75.8744 49.004 75.8499 49.1032 75.779 49.1483L61.1578 58.3911C61.1352 58.4054 61.1089 58.4133 61.0833 58.4133Z" fill="white"/>
<path d="M21.3154 103.349L19.8538 104.273V104.961L21.3154 104.038V103.349Z" fill="#5186EB"/>
<path d="M24.0615 101.613L22.1599 102.815V103.503L24.0615 102.302V101.613Z" fill="#5186EB"/>
<path d="M30.1298 98.4651V97.7765L24.9067 101.078V101.767L30.1298 98.4651Z" fill="#5186EB"/>
<path d="M22.935 104.194L19.8538 106.142V106.831L22.935 104.883V104.194Z" fill="#5186EB"/>
<path d="M23.78 104.349L25.6816 103.146V102.458L23.78 103.66V104.349Z" fill="#5186EB"/>
<path d="M28.1412 101.592V100.904L26.5264 101.924V102.612L28.1412 101.592Z" fill="#5186EB"/>
<path d="M28.9858 101.058L30.066 100.375V99.6863L28.9858 100.369V101.058Z" fill="#5186EB"/>
<path d="M21.3154 107.088L19.8538 108.011V108.7L21.3154 107.776V107.088Z" fill="#5186EB"/>
<path d="M22.1599 107.242L24.0615 106.04V105.351L22.1599 106.553V107.242Z" fill="#5186EB"/>
<path d="M24.9067 105.506L28.9859 102.927V102.238L24.9067 104.817V105.506Z" fill="#5186EB"/>
<path d="M22.935 107.933L19.8538 109.881V110.569L22.935 108.621V107.933Z" fill="#5186EB"/>
<path d="M25.6816 106.197L23.78 107.399V108.087L25.6816 106.885V106.197Z" fill="#5186EB"/>
<path d="M26.5264 105.662V106.351L28.1412 105.33V104.641L26.5264 105.662Z" fill="#5186EB"/>
<path d="M21.3154 110.826L19.8538 111.75V112.438L21.3154 111.515V110.826Z" fill="#5186EB"/>
<path d="M22.1599 110.98L24.0615 109.778V109.09L22.1599 110.292V110.98Z" fill="#5186EB"/>
<path d="M28.6318 106.89V106.201L24.9067 108.556V109.244L28.6318 106.89Z" fill="#5186EB"/>
<path d="M22.2505 78.1049L19.8762 79.6061V77.0058L22.2505 75.5052V78.1049Z" fill="#5186EB"/>
<path d="M22.2505 83.7768L19.8762 85.278V82.6783L22.2505 81.1771V83.7768Z" fill="#EA4A4A"/>
<path d="M22.2505 89.4493L19.8762 90.9499V88.3502L22.2505 86.849V89.4493Z" fill="#9D6295"/>
<path d="M22.2505 95.1213L19.8762 96.6225V94.0222L22.2505 92.5216V95.1213Z" fill="white"/>
<path d="M24.9425 74.5444L23.4814 75.468V74.7794L24.9425 73.8558V74.5444ZM27.6893 72.1197L25.7878 73.3219V74.0105L27.6893 72.8083V72.1197ZM33.6933 69.0122V68.3236L28.534 71.5851V72.2737L33.6933 69.0122ZM26.5627 74.7011L23.4814 76.6487V77.3373L26.5627 75.3897V74.7011ZM27.4074 74.8551L29.3089 73.6529V72.9643L27.4074 74.1665V74.8551ZM31.7685 72.0981V71.4095L30.1536 72.4304V73.119L31.7685 72.0981Z" fill="#5186EB"/>
<path d="M24.9425 85.9222L23.4814 86.8457V86.1572L24.9425 85.2336V85.9222ZM27.6893 83.4974L25.7878 84.6997V85.3883L27.6893 84.186V83.4974ZM30.2961 82.538V81.8494L28.5346 82.9629V83.6515L30.2961 82.538ZM26.5627 86.0788L23.4814 88.0265V88.7151L26.5627 86.7674V86.0788ZM27.4074 86.2329L30.0857 84.5398V83.8512L27.4074 85.5443V86.2329Z" fill="#5186EB"/>
<path d="M24.9425 91.5383L23.4814 92.4618V91.7732L24.9425 90.8497V91.5383ZM27.6893 89.1135L25.7878 90.3158V91.0043L27.6893 89.8021V89.1135ZM31.7804 87.2155V86.5269L28.5346 88.5789V89.2675L31.7804 87.2155ZM26.5627 91.6949L23.4814 93.6425V94.3311L26.5627 92.3835V91.6949ZM27.4074 91.8489L30.0857 90.1558V89.4672L27.4074 91.1603V91.8489Z" fill="#5186EB"/>
<path d="M24.9425 80.1304L23.4814 81.0539V80.3653L24.9425 79.4418V80.1304ZM27.6893 77.7056L25.7878 78.9079V79.5965L27.6893 78.3942V77.7056ZM30.2049 76.8036V76.115L28.5346 77.171V77.8596L30.2049 76.8036ZM26.5627 80.287L23.4814 82.2347V82.9233L26.5627 80.9756V80.287ZM27.4074 80.4417L29.3089 79.2394V78.5508L27.4074 79.7531V80.4417Z" fill="#5186EB"/>
<path d="M21.4418 131.582L19.8538 132.585V118.196L21.4418 117.193V131.582Z" fill="#FDB84C"/>
<path d="M23.0291 130.579L21.4417 131.582V115.404L23.0291 114.401V130.579Z" fill="#FDB84C"/>
<path d="M24.6165 129.575L23.0291 130.578V119.736L24.6165 118.733V129.575Z" fill="#EA4A4A"/>
<path d="M26.2041 128.571L24.6167 129.575V120.239L26.2041 119.235V128.571Z" fill="#EA4A4A"/>
<path d="M27.7915 127.568L26.2041 128.571V122.014L27.7915 121.011V127.568Z" fill="#5186EB"/>
<path d="M29.3793 126.564L27.7913 127.568V122.014L29.3793 121.011V126.564Z" fill="#5186EB"/>
<path d="M30.9666 125.56L29.3792 126.564V123.995L30.9666 122.991V125.56Z" fill="white"/>
<path d="M176.361 152.408L167.854 147.03L176.361 141.652L184.868 147.03L176.361 152.408Z" fill="#5E659C"/>
<path d="M176.361 152.44C176.346 152.435 167.839 147.058 167.839 147.058C167.83 147.052 167.824 147.041 167.824 147.03C167.824 147.018 167.83 147.007 167.839 147.002L176.345 141.623C176.355 141.617 176.366 141.617 176.376 141.623L184.883 147.002C184.892 147.007 184.897 147.018 184.897 147.03C184.897 147.041 184.891 147.052 184.883 147.058L176.376 152.435C176.371 152.438 176.366 152.44 176.361 152.44ZM167.913 147.03L176.361 152.37L184.809 147.03L176.361 141.689L167.913 147.03Z" fill="#221C3A"/>
<path d="M176.361 162.788L167.854 157.409V147.03L176.361 152.408V162.788Z" fill="#221C3A"/>
<path d="M184.868 157.409L176.361 162.788V152.408L184.868 147.03V157.409Z" fill="#5E659C"/>
<path d="M176.361 162.82C176.337 162.81 176.331 162.8 176.331 162.788V152.408C176.331 152.396 176.337 152.386 176.345 152.38L184.853 147.002C184.862 146.996 184.874 146.996 184.883 147.002C184.892 147.008 184.898 147.019 184.898 147.03V157.41C184.898 157.422 184.892 157.432 184.883 157.438L176.376 162.816C176.371 162.819 176.366 162.82 176.361 162.82ZM176.39 152.427V162.731L184.838 157.391V147.087L176.39 152.427Z" fill="#221C3A"/>
<path d="M178.366 189.39C179.042 188.936 180.122 188.398 181.005 188.016C181.65 188.772 182.132 189.479 182.768 190.248C179.612 192.103 178.177 192.795 177.414 191.581C176.966 190.593 177.54 189.946 178.366 189.39Z" fill="#221C3A"/>
<path d="M178.826 189.567C179.687 189.086 180.466 188.705 181.294 188.41C181.79 188.979 182.291 189.544 182.774 190.128C182.982 190.38 183.185 190.638 183.389 190.895C182.461 191.447 181.523 191.491 180.824 191.805C179.037 192.607 178.14 192.522 177.468 191.756C176.909 191.121 177.966 190.047 178.826 189.567Z" fill="white"/>
<path d="M188.603 180.46C188.714 180.384 190.234 181.284 190.9 182.533C191.854 184.322 191.866 186.317 191.739 186.515C191.553 186.806 185.714 188.091 183.067 188.706L178.627 184.644C179.584 183.667 187.118 181.472 188.603 180.46Z" fill="#221C3A"/>
<path d="M179.436 184.324C181.466 184.776 184.104 185.839 186.3 187.868C189.232 190.577 191.739 192.315 191.739 192.315C191.739 192.315 190.304 195.444 189.759 195.326C184.525 191.881 177.312 189.586 177.712 186.382C177.961 184.392 179.23 184.278 179.436 184.324Z" fill="#221C3A"/>
<path d="M192.506 194.804C192.13 196.21 191.646 197.48 191.077 198.739C190.743 199.479 190.09 200.117 189.196 199.472C187.854 198.505 188.543 196.749 190.514 193.467C191.17 193.927 191.841 194.36 192.506 194.804Z" fill="white"/>
<path d="M193.148 194.819C192.626 196.049 191.806 197.51 191.333 198.559C191.111 199.049 190.799 199.466 190.379 199.672C189.914 199.9 189.323 199.689 189.174 199.156C188.904 198.19 189.624 196.487 191.134 193.948C191.774 194.375 192.514 194.377 193.148 194.819Z" fill="#221C3A"/>
<path d="M197.011 190.615C197.248 195.474 195.447 196.194 194.7 196.341C192.855 196.704 190.048 194.09 188.102 192.198C186.261 190.408 185.634 189.307 184.795 188.512C186.497 188.595 190.302 189.119 190.859 189.175C190.859 189.175 190.419 182.545 191.258 182.043C191.469 181.917 191.72 181.912 191.961 181.915C192.777 181.924 193.592 181.981 194.401 182.088C194.925 182.156 196.777 182.223 196.777 182.223C196.719 182.683 196.79 184.308 196.802 184.596C196.845 185.644 196.931 188.962 197.011 190.615Z" fill="#221C3A"/>
<path d="M186.677 174.729C186.788 173.729 186.995 171.107 186.995 171.107C186.995 171.107 187.26 170.387 187.603 170.628C188.557 171.299 189.523 171.925 190.59 172.215C190.087 173.88 189.579 175.417 189.306 176.226C189.157 176.667 186.416 182.123 186.323 182.626L184.525 181.727C184.751 181.547 186.657 174.914 186.677 174.729Z" fill="#FFC6A2"/>
<path d="M191.021 173.624C190.712 174.816 186.429 173.652 186.275 172.656C186.297 170.609 188.023 162.961 190.486 163.53C190.486 163.53 193.683 163.661 191.021 173.624Z" fill="#EA4A4A"/>
<path d="M198.037 168.398C199.658 170.601 197.686 173.964 197.18 175.889C196.624 178.001 196.836 179.508 196.909 181.91C197.017 185.462 186.292 183.423 188.218 179.504C188.456 179.022 188.695 178.54 188.827 178.012C189.083 176.99 188.283 173.414 187.691 169.277C187.64 168.919 187.622 168.551 187.637 168.189C187.656 167.701 187.677 167.334 187.77 166.907C187.911 166.257 188.955 164.716 189.528 164.485C191.464 163.707 197.405 167.537 198.037 168.398Z" fill="#EA4A4A"/>
<path d="M193.829 187.792L193.829 188.032C193.829 188.072 193.805 188.112 193.757 188.143L188.21 191.649C188.113 191.71 187.957 191.71 187.861 191.649L180.014 186.656C179.966 186.626 179.942 186.586 179.942 186.546L179.942 186.306L193.829 187.792Z" fill="#EEE8DE"/>
<path d="M180.015 186.195L185.562 182.688C185.658 182.628 185.814 182.628 185.91 182.688L193.757 187.681C193.853 187.743 193.853 187.841 193.756 187.903L188.21 191.409C188.113 191.47 187.956 191.47 187.861 191.409L180.014 186.416C179.918 186.355 179.919 186.256 180.015 186.195Z" fill="white"/>
<path d="M189.972 189.154L190.265 188.969C190.299 188.947 190.354 188.947 190.388 188.969L190.737 189.19C190.771 189.211 190.771 189.246 190.737 189.267L190.443 189.453C190.409 189.474 190.355 189.474 190.321 189.453L189.972 189.232C189.938 189.211 189.938 189.176 189.972 189.154ZM189.409 188.876L189.757 189.096C189.791 189.118 189.846 189.118 189.88 189.096L190.173 188.911C190.207 188.889 190.207 188.855 190.173 188.833L189.825 188.613C189.791 188.591 189.736 188.591 189.702 188.613L189.409 188.798C189.375 188.82 189.375 188.854 189.409 188.876ZM188.845 188.52L189.194 188.741C189.228 188.762 189.283 188.762 189.317 188.741L189.61 188.555C189.644 188.534 189.644 188.499 189.61 188.478L189.261 188.257C189.227 188.235 189.173 188.235 189.139 188.257L188.845 188.442C188.811 188.464 188.811 188.498 188.845 188.52ZM188.282 188.164L188.631 188.384C188.665 188.406 188.719 188.406 188.753 188.384L189.047 188.199C189.081 188.177 189.081 188.143 189.047 188.121L188.698 187.901C188.664 187.879 188.609 187.879 188.575 187.901L188.282 188.086C188.248 188.107 188.248 188.142 188.282 188.164ZM187.719 187.807L188.067 188.028C188.101 188.049 188.156 188.049 188.19 188.028L188.483 187.842C188.517 187.821 188.517 187.786 188.483 187.765L188.135 187.544C188.101 187.523 188.046 187.523 188.012 187.544L187.719 187.73C187.685 187.751 187.685 187.786 187.719 187.807ZM187.155 187.452L187.504 187.672C187.538 187.694 187.593 187.694 187.627 187.672L187.92 187.487C187.954 187.465 187.954 187.431 187.92 187.409L187.571 187.188C187.537 187.167 187.483 187.167 187.449 187.188L187.155 187.374C187.121 187.395 187.121 187.43 187.155 187.452ZM186.592 187.095L186.941 187.316C186.975 187.337 187.03 187.337 187.063 187.316L187.357 187.13C187.391 187.109 187.391 187.074 187.357 187.053L187.008 186.832C186.974 186.811 186.919 186.811 186.885 186.832L186.592 187.017C186.558 187.039 186.558 187.074 186.592 187.095ZM186.029 186.739L186.377 186.96C186.411 186.982 186.466 186.982 186.5 186.96L186.793 186.775C186.827 186.753 186.827 186.719 186.793 186.697L186.445 186.476C186.411 186.455 186.356 186.455 186.322 186.476L186.029 186.662C185.995 186.683 185.995 186.718 186.029 186.739ZM185.465 186.383L185.814 186.604C185.848 186.625 185.903 186.625 185.937 186.604L186.23 186.418C186.264 186.397 186.264 186.362 186.23 186.341L185.881 186.12C185.847 186.098 185.793 186.098 185.759 186.12L185.465 186.305C185.431 186.327 185.431 186.362 185.465 186.383ZM184.72 185.912L185.251 186.248C185.285 186.269 185.34 186.269 185.374 186.248L185.667 186.063C185.701 186.041 185.701 186.006 185.667 185.985L185.136 185.649C185.102 185.628 185.047 185.628 185.013 185.649L184.72 185.835C184.687 185.856 184.687 185.891 184.72 185.912ZM182.605 186.528L182.953 186.749C182.987 186.77 183.042 186.77 183.076 186.749L183.369 186.563C183.403 186.542 183.403 186.507 183.369 186.486L183.021 186.265C182.987 186.243 182.932 186.243 182.898 186.265L182.605 186.45C182.571 186.472 182.571 186.506 182.605 186.528ZM182.041 186.172L182.39 186.392C182.424 186.414 182.479 186.414 182.513 186.392L182.806 186.207C182.84 186.185 182.84 186.151 182.806 186.129L182.457 185.909C182.423 185.887 182.369 185.887 182.335 185.909L182.041 186.094C182.007 186.115 182.007 186.15 182.041 186.172ZM181.478 185.816L181.827 186.036C181.861 186.058 181.916 186.058 181.95 186.036L182.243 185.851C182.277 185.83 182.277 185.795 182.243 185.773L181.894 185.553C181.86 185.531 181.805 185.531 181.771 185.553L181.478 185.738C181.444 185.76 181.444 185.794 181.478 185.816ZM182.09 186.854L182.438 187.074C182.472 187.096 182.527 187.096 182.561 187.074L182.854 186.889C182.888 186.867 182.888 186.833 182.854 186.811L182.506 186.591C182.472 186.569 182.417 186.569 182.383 186.591L182.09 186.776C182.056 186.798 182.056 186.832 182.09 186.854ZM181.526 186.497L181.875 186.718C181.909 186.739 181.964 186.739 181.998 186.718L182.291 186.533C182.325 186.511 182.325 186.476 182.291 186.455L181.942 186.234C181.908 186.213 181.854 186.213 181.82 186.234L181.526 186.42C181.492 186.441 181.492 186.476 181.526 186.497ZM180.963 186.141L181.312 186.361C181.346 186.383 181.401 186.383 181.434 186.361L181.728 186.176C181.762 186.155 181.762 186.12 181.728 186.098L181.379 185.878C181.345 185.856 181.29 185.856 181.256 185.878L180.963 186.063C180.929 186.085 180.929 186.12 180.963 186.141ZM189.265 189.439L189.796 189.774C189.83 189.796 189.885 189.796 189.919 189.774L190.212 189.589C190.246 189.568 190.246 189.533 190.212 189.511L189.682 189.176C189.648 189.154 189.593 189.154 189.559 189.176L189.265 189.361C189.232 189.383 189.232 189.417 189.265 189.439ZM188.702 189.083L189.051 189.304C189.085 189.325 189.14 189.325 189.174 189.304L189.467 189.118C189.501 189.097 189.501 189.062 189.467 189.041L189.118 188.82C189.084 188.799 189.029 188.799 188.995 188.82L188.702 189.006C188.668 189.027 188.668 189.062 188.702 189.083ZM188.139 188.727L188.488 188.947C188.522 188.969 188.576 188.969 188.61 188.947L188.904 188.762C188.938 188.741 188.938 188.706 188.904 188.684L188.555 188.464C188.521 188.442 188.466 188.442 188.432 188.464L188.139 188.649C188.105 188.671 188.105 188.705 188.139 188.727ZM187.576 188.371L187.924 188.592C187.958 188.613 188.013 188.613 188.047 188.592L188.34 188.406C188.374 188.385 188.374 188.35 188.34 188.329L187.992 188.108C187.958 188.087 187.903 188.087 187.869 188.108L187.576 188.293C187.542 188.315 187.542 188.35 187.576 188.371ZM187.012 188.015L187.361 188.235C187.395 188.257 187.45 188.257 187.484 188.235L187.777 188.05C187.811 188.028 187.811 187.994 187.777 187.972L187.428 187.752C187.394 187.73 187.339 187.73 187.306 187.752L187.012 187.937C186.978 187.959 186.978 187.993 187.012 188.015ZM186.449 187.658L186.798 187.879C186.832 187.901 186.886 187.901 186.92 187.879L187.214 187.694C187.248 187.672 187.248 187.638 187.214 187.616L186.865 187.395C186.831 187.374 186.776 187.374 186.742 187.395L186.449 187.581C186.415 187.602 186.415 187.638 186.449 187.658ZM185.886 187.303L186.234 187.523C186.268 187.545 186.323 187.545 186.357 187.523L186.65 187.338C186.684 187.316 186.684 187.282 186.65 187.26L186.302 187.04C186.268 187.018 186.213 187.018 186.179 187.04L185.886 187.225C185.852 187.247 185.852 187.281 185.886 187.303ZM185.322 186.946L185.671 187.167C185.705 187.188 185.76 187.188 185.794 187.167L186.087 186.982C186.121 186.96 186.121 186.925 186.087 186.904L185.738 186.683C185.704 186.662 185.65 186.662 185.616 186.683L185.322 186.869C185.288 186.89 185.288 186.925 185.322 186.946ZM184.759 186.591L185.108 186.811C185.142 186.833 185.197 186.833 185.23 186.811L185.524 186.626C185.558 186.604 185.558 186.57 185.524 186.548L185.175 186.328C185.141 186.306 185.086 186.306 185.052 186.328L184.759 186.513C184.725 186.534 184.725 186.569 184.759 186.591ZM184.196 186.234L184.544 186.455C184.578 186.476 184.633 186.476 184.667 186.455L184.96 186.269C184.994 186.248 184.994 186.213 184.96 186.192L184.612 185.971C184.578 185.95 184.523 185.95 184.489 185.971L184.196 186.157C184.162 186.178 184.162 186.213 184.196 186.234ZM188.948 189.879L189.297 190.099C189.331 190.121 189.386 190.121 189.42 190.099L189.713 189.914C189.747 189.893 189.747 189.858 189.713 189.836L189.364 189.616C189.33 189.594 189.276 189.594 189.242 189.616L188.948 189.801C188.914 189.823 188.914 189.857 188.948 189.879ZM188.385 189.523L188.734 189.744C188.768 189.765 188.823 189.765 188.857 189.744L189.15 189.558C189.184 189.537 189.184 189.502 189.15 189.481L188.801 189.26C188.767 189.239 188.712 189.239 188.678 189.26L188.385 189.445C188.351 189.467 188.351 189.502 188.385 189.523ZM187.822 189.167L188.17 189.387C188.204 189.409 188.259 189.409 188.293 189.387L188.587 189.202C188.621 189.18 188.621 189.146 188.587 189.124L188.238 188.904C188.204 188.882 188.149 188.882 188.115 188.904L187.822 189.089C187.788 189.111 187.788 189.145 187.822 189.167ZM187.258 188.81L187.607 189.031C187.641 189.053 187.696 189.053 187.73 189.031L188.023 188.846C188.057 188.824 188.057 188.79 188.023 188.768L187.675 188.547C187.641 188.526 187.586 188.526 187.552 188.547L187.258 188.733C187.224 188.754 187.224 188.79 187.258 188.81ZM187.927 190.525L188.275 190.746C188.309 190.767 188.364 190.767 188.398 190.746L188.691 190.56C188.725 190.539 188.725 190.504 188.691 190.483L188.343 190.262C188.309 190.24 188.254 190.24 188.22 190.262L187.927 190.447C187.893 190.469 187.893 190.503 187.927 190.525ZM187.363 190.169L187.712 190.389C187.746 190.411 187.801 190.411 187.835 190.389L188.128 190.204C188.162 190.182 188.162 190.148 188.128 190.126L187.779 189.906C187.745 189.884 187.691 189.884 187.657 189.906L187.363 190.091C187.329 190.113 187.329 190.147 187.363 190.169ZM186.8 189.812L187.149 190.033C187.183 190.054 187.238 190.054 187.272 190.033L187.565 189.848C187.599 189.826 187.599 189.791 187.565 189.77L187.216 189.549C187.182 189.528 187.127 189.528 187.093 189.549L186.8 189.735C186.766 189.756 186.766 189.791 186.8 189.812ZM186.237 189.457L186.585 189.677C186.619 189.699 186.674 189.699 186.708 189.677L187.002 189.492C187.035 189.47 187.035 189.436 187.002 189.414L186.653 189.194C186.619 189.172 186.564 189.172 186.53 189.194L186.237 189.379C186.203 189.4 186.203 189.435 186.237 189.457ZM182.679 187.207L183.209 187.543C183.243 187.564 183.298 187.564 183.332 187.543L183.625 187.358C183.659 187.336 183.659 187.301 183.625 187.28L183.095 186.944C183.061 186.923 183.006 186.923 182.972 186.944L182.679 187.13C182.645 187.151 182.645 187.186 182.679 187.207ZM186.695 188.455L187.044 188.675C187.078 188.697 187.133 188.697 187.167 188.675L187.46 188.49C187.494 188.468 187.494 188.434 187.46 188.412L187.111 188.192C187.077 188.17 187.022 188.17 186.988 188.192L186.695 188.377C186.661 188.399 186.661 188.433 186.695 188.455ZM186.132 188.098L186.48 188.319C186.514 188.34 186.569 188.34 186.603 188.319L186.897 188.134C186.931 188.112 186.931 188.077 186.897 188.056L186.548 187.835C186.514 187.814 186.459 187.814 186.425 187.835L186.132 188.021C186.098 188.042 186.098 188.077 186.132 188.098ZM185.568 187.743L185.917 187.963C185.951 187.985 186.006 187.985 186.04 187.963L186.333 187.778C186.367 187.756 186.367 187.722 186.333 187.7L185.985 187.48C185.951 187.458 185.896 187.458 185.862 187.48L185.568 187.665C185.534 187.686 185.534 187.721 185.568 187.743ZM185.005 187.386L185.354 187.607C185.388 187.628 185.443 187.628 185.477 187.607L185.77 187.421C185.804 187.4 185.804 187.365 185.77 187.344L185.421 187.123C185.387 187.102 185.332 187.102 185.298 187.123L185.005 187.309C184.971 187.33 184.971 187.365 185.005 187.386ZM184.442 187.03L184.791 187.25C184.825 187.272 184.879 187.272 184.913 187.25L185.207 187.065C185.241 187.044 185.241 187.009 185.207 186.987L184.858 186.767C184.824 186.745 184.769 186.745 184.735 186.767L184.442 186.952C184.408 186.974 184.408 187.009 184.442 187.03ZM183.697 186.559L184.227 186.895C184.261 186.916 184.316 186.916 184.35 186.895L184.643 186.709C184.677 186.688 184.677 186.653 184.643 186.632L184.113 186.296C184.079 186.275 184.024 186.275 183.99 186.296L183.697 186.482C183.663 186.503 183.663 186.538 183.697 186.559ZM188.242 190.086L188.773 190.422C188.806 190.443 188.861 190.443 188.895 190.422L189.189 190.237C189.223 190.215 189.223 190.18 189.189 190.159L188.658 189.823C188.624 189.802 188.569 189.802 188.535 189.823L188.242 190.009C188.208 190.03 188.208 190.065 188.242 190.086ZM187.679 189.73L188.027 189.951C188.061 189.972 188.116 189.972 188.15 189.951L188.443 189.765C188.477 189.744 188.477 189.709 188.443 189.688L188.095 189.467C188.061 189.445 188.006 189.445 187.972 189.467L187.679 189.652C187.645 189.674 187.645 189.709 187.679 189.73ZM187.115 189.374L187.464 189.595C187.498 189.616 187.553 189.616 187.587 189.595L187.88 189.41C187.914 189.388 187.914 189.353 187.88 189.332L187.531 189.111C187.497 189.09 187.443 189.09 187.409 189.111L187.115 189.297C187.081 189.318 187.081 189.353 187.115 189.374ZM186.552 189.018L186.901 189.239C186.935 189.26 186.99 189.26 187.024 189.239L187.317 189.053C187.351 189.032 187.351 188.997 187.317 188.976L186.968 188.755C186.934 188.733 186.879 188.733 186.845 188.755L186.552 188.94C186.518 188.962 186.518 188.996 186.552 189.018ZM185.989 188.662L186.337 188.882C186.371 188.904 186.426 188.904 186.46 188.882L186.754 188.697C186.787 188.675 186.787 188.641 186.754 188.619L186.405 188.399C186.371 188.377 186.316 188.377 186.282 188.399L185.989 188.584C185.955 188.605 185.955 188.641 185.989 188.662ZM185.425 188.306L185.774 188.526C185.808 188.548 185.863 188.548 185.897 188.526L186.19 188.341C186.224 188.32 186.224 188.285 186.19 188.263L185.841 188.043C185.808 188.021 185.753 188.021 185.719 188.043L185.425 188.228C185.391 188.25 185.391 188.284 185.425 188.306ZM184.862 187.95L185.211 188.17C185.245 188.192 185.3 188.192 185.334 188.17L185.627 187.985C185.661 187.963 185.661 187.929 185.627 187.907L185.278 187.686C185.244 187.665 185.189 187.665 185.155 187.686L184.862 187.872C184.828 187.893 184.828 187.928 184.862 187.95ZM184.299 187.594L184.647 187.814C184.681 187.836 184.736 187.836 184.77 187.814L185.064 187.629C185.098 187.607 185.098 187.573 185.064 187.551L184.715 187.331C184.681 187.309 184.626 187.309 184.592 187.331L184.299 187.516C184.265 187.538 184.265 187.572 184.299 187.594ZM183.735 187.237L184.084 187.458C184.118 187.48 184.173 187.48 184.207 187.458L184.5 187.273C184.534 187.251 184.534 187.217 184.5 187.195L184.152 186.974C184.118 186.953 184.063 186.953 184.029 186.974L183.735 187.16C183.701 187.181 183.701 187.216 183.735 187.237ZM183.172 186.881L183.521 187.102C183.555 187.123 183.61 187.123 183.644 187.102L183.937 186.916C183.971 186.895 183.971 186.86 183.937 186.839L183.588 186.618C183.554 186.596 183.499 186.596 183.465 186.618L183.172 186.803C183.138 186.825 183.138 186.86 183.172 186.881ZM184.147 185.553L184.495 185.773C184.529 185.795 184.584 185.795 184.618 185.773L184.912 185.588C184.946 185.567 184.946 185.532 184.912 185.51L184.563 185.29C184.529 185.268 184.474 185.268 184.44 185.29L184.147 185.475C184.113 185.497 184.113 185.532 184.147 185.553ZM183.583 185.197L183.932 185.418C183.966 185.439 184.021 185.439 184.055 185.418L184.348 185.232C184.382 185.211 184.382 185.176 184.348 185.155L184 184.934C183.966 184.913 183.911 184.913 183.877 184.934L183.583 185.119C183.549 185.141 183.549 185.176 183.583 185.197ZM183.02 184.841L183.369 185.061C183.403 185.083 183.458 185.083 183.492 185.061L183.785 184.876C183.819 184.854 183.819 184.82 183.785 184.798L183.436 184.578C183.402 184.556 183.347 184.556 183.313 184.578L183.02 184.763C182.986 184.785 182.986 184.819 183.02 184.841ZM182.506 185.166L182.855 185.386C182.889 185.408 182.944 185.408 182.978 185.386L183.271 185.201C183.305 185.179 183.305 185.145 183.271 185.123L182.922 184.903C182.888 184.881 182.834 184.881 182.8 184.903L182.506 185.088C182.472 185.11 182.472 185.144 182.506 185.166Z" fill="#FDB84C"/>
<path d="M190.396 169.381C190.565 169.709 190.864 169.931 191.199 170.021C191.832 170.191 192.496 170.132 193.036 169.773C193.788 169.274 194.424 168.319 194.309 167.026C194.297 166.889 194.239 166.757 194.151 166.659C193.742 166.208 193.26 165.444 192.974 163.902C192.885 163.421 192.374 163.213 192.023 163.516C190.831 164.542 189.901 166.541 189.911 167.404C189.915 167.757 190.064 168.732 190.396 169.381Z" fill="#FFAD82"/>
<path d="M186.039 188.042C186.146 187.552 186.329 186.892 186.519 186.496C186.323 186.498 186.167 186.413 186.312 186.171C186.533 185.799 186.872 185.179 187.378 184.779C187.484 184.695 187.705 184.545 187.827 184.492C187.95 184.433 188.089 184.4 188.249 184.399C188.528 184.397 188.762 184.41 188.986 184.342C190.548 183.076 193.304 180.194 194.115 179.421C194.243 179.299 194.316 179.126 194.315 178.94C194.313 177.935 194.247 176.887 194.209 175.841C194.193 175.392 194.625 175.09 194.994 175.285C196.014 175.821 197.041 176.312 198.13 176.455C197.818 178.175 197.485 179.768 197.305 180.608C197.207 181.066 196.986 181.481 196.659 181.786C195.329 183.027 191.942 184.695 190.185 185.788C189.569 186.225 188.664 188.535 188.205 188.892C187.835 189.18 186.946 188.933 186.401 188.739C186.133 188.644 185.974 188.342 186.039 188.042Z" fill="#FFC6A2"/>
<path d="M198.648 177.832C198.476 179.057 194.094 178.476 193.83 177.508C193.623 175.474 194.478 167.651 196.987 167.886C196.987 167.886 200.173 167.587 198.648 177.832Z" fill="#EA4A4A"/>
<path d="M183.389 183.017C184.006 182.297 184.462 181.776 184.525 181.727C185.335 181.605 185.93 181.912 186.323 182.626C186.26 182.97 186.072 183.856 185.982 184.193C185.827 184.768 185.734 186.984 185.192 187.145C184.733 187.281 182.612 186.54 182.686 185.623C182.686 185.623 182.63 183.902 183.389 183.017Z" fill="#FFC6A2"/>
<path d="M187.895 191.649L186 185.831L186.057 185.77L187.952 191.588C187.975 191.66 187.971 191.709 187.947 191.735L187.891 191.796C187.915 191.77 187.918 191.72 187.895 191.649Z" fill="#EEE8DE"/>
<path d="M177.748 180.368C177.782 180.332 177.856 180.342 177.955 180.405L185.646 185.267C185.816 185.375 186.002 185.599 186.058 185.77L186.001 185.831C185.946 185.66 185.76 185.435 185.59 185.328L177.899 180.466C177.8 180.403 177.726 180.393 177.692 180.429L177.748 180.368Z" fill="white"/>
<path d="M177.899 180.466L185.59 185.328C185.759 185.435 185.945 185.66 186 185.831L187.895 191.649C187.95 191.82 187.854 191.866 187.683 191.759L179.992 186.897C179.822 186.789 179.637 186.564 179.581 186.393L177.687 180.575C177.632 180.404 177.729 180.358 177.899 180.466Z" fill="#5186EB"/>
<path d="M188.538 161.638C189.113 160.566 189.894 160.074 191.021 160.016C191.327 160.001 191.828 160.294 192.116 160.407C193.187 160.831 193.386 162.774 193.43 163.875C193.485 165.263 193.434 166.774 192.607 167.856C191.008 169.95 189.185 170.207 188.972 168.877C188.953 168.758 188.945 168.611 188.846 168.558C188.811 168.538 188.769 168.537 188.731 168.524C188.553 168.466 188.503 168.218 188.501 168.015C188.499 167.836 188.511 167.655 188.536 167.478C188.555 167.341 188.582 167.202 188.566 167.064C188.532 166.76 188.303 166.533 188.155 166.274C187.8 165.654 187.84 164.676 187.893 163.976C187.953 163.158 188.156 162.348 188.538 161.638Z" fill="#FFC6A2"/>
<path d="M188.315 160.971C189.449 159.598 191.069 159.474 192.176 160.204C195.007 160.936 194.978 164.522 193.282 166.844C193.459 166.23 192.713 165.891 192.607 166.086C192.3 166.652 192.238 167.094 191.934 167.119C191.687 167.139 191.85 166.624 191.139 166.298C191.015 166.241 188.932 166.231 187.98 165.347C187.907 165.28 187.853 165.188 187.821 165.089C187.658 164.588 186.927 162.65 188.315 160.971Z" fill="#221C3A"/>
<path d="M192.816 165.742C193.292 165.143 194.143 165.909 192.79 167.575C192.654 167.744 192.476 167.912 192.298 167.794C191.911 167.536 192.537 166.092 192.816 165.742Z" fill="#FFC6A2"/>
<path d="M132.914 162.605C132.113 162.984 129.984 164.306 129.645 164.22C128.535 163.936 126.618 162.98 126.14 162.645C125.839 162.434 125.501 161.073 125.431 160.362C125.33 159.326 124.788 159.635 124.487 158.555C124.452 158.428 124.426 158.292 124.351 158.187C124.277 158.082 124.132 158.02 124.031 158.094C123.846 158.229 123.944 158.863 124.033 159.074C124.13 159.304 124.311 159.476 124.407 159.705C124.575 160.104 124.355 160.281 123.947 159.83C123.427 159.257 122.028 157.735 121.904 158.354C121.819 158.78 123.507 159.985 123.274 160.282C123.116 160.467 121.419 158.837 121.135 158.775C121.035 158.753 120.917 158.789 120.868 158.888C120.774 159.079 120.946 159.242 121.115 159.354C121.467 159.59 123.01 160.913 122.872 161.065C122.744 161.208 121.116 159.712 120.732 159.785C120.63 159.805 120.543 159.899 120.574 160.014C120.678 160.391 121.96 161.202 122.251 161.457C122.414 161.6 122.664 161.74 122.573 161.912C122.42 162.134 121.126 160.953 120.923 161.258C120.749 161.758 121.612 162.039 124.086 163.687C125.481 164.617 129.562 167.471 130.478 167.471C131.394 167.471 133.634 166.289 133.634 166.289C133.989 165.929 134.727 165.186 134.902 164.687C135.211 163.808 134.46 161.873 132.914 162.605Z" fill="#FCBE9F"/>
<path d="M128.315 202.321C128.318 202.306 128.317 202.291 128.32 202.275C128.291 202.118 128.29 201.96 128.32 201.801L126.182 202.041C122.61 202.283 120.837 202.133 120.797 203.512C120.367 206.217 125.667 205.852 128.172 205.492C129.513 205.298 128.401 202.952 128.315 202.321Z" fill="white"/>
<path d="M135.826 198.299L134.299 197.044C134.032 196.636 134.076 196.52 133.722 196.202C133.156 195.694 131.391 195.898 131.372 196.899C131.299 197.54 131.418 197.839 131.52 198.037C131.824 198.63 133.247 200.806 133.579 201.365C134.439 202.813 136.316 202.475 136.283 201.477C136.262 200.855 136.413 201.055 135.826 198.299Z" fill="white"/>
<path d="M136.399 192.008C136.369 191.401 136.277 190.797 136.169 190.2C134.646 181.797 135.981 178.136 134.708 175.885L124.549 178.174C123.72 185.253 124.939 185.355 124.882 189.455C124.861 190.977 125.001 192.583 124.947 194.103C124.813 197.902 125.689 199.718 125.453 202.098C125.503 203.19 128.53 203.37 128.51 202.306C128.457 199.59 129.556 196.136 129.1 193.63C128.967 192.9 128.906 192.077 128.874 191.333C128.841 190.599 129.1 188.196 130.414 183.461C130.414 183.461 131.933 188.527 131.97 189.978C131.979 190.333 131.991 190.677 132.005 190.999C132.057 192.203 132.295 193.382 132.667 194.516C132.961 195.415 133.253 196.647 133.276 198.895C133.29 200.276 136.15 200.191 136.105 199.172C135.995 195.852 136.519 194.383 136.399 192.008Z" fill="#5E659C"/>
<path d="M127.207 203.05C126.348 203.05 125.45 202.703 125.423 202.101C125.535 200.957 125.393 199.95 125.228 198.784C125.049 197.518 124.847 196.081 124.917 194.103C124.946 193.273 124.917 192.406 124.889 191.567C124.866 190.869 124.842 190.147 124.851 189.454C124.873 187.912 124.716 186.954 124.55 185.94C124.28 184.291 124.001 182.584 124.518 178.169C124.519 178.155 124.528 178.144 124.541 178.142L134.701 175.853C134.711 175.847 134.725 175.857 134.732 175.868C135.349 176.959 135.358 178.36 135.372 180.481C135.387 182.741 135.408 185.834 136.197 190.194C136.287 190.692 136.396 191.347 136.428 192.006C136.486 193.135 136.396 194.076 136.301 195.073C136.195 196.176 136.077 197.427 136.134 199.171C136.143 199.377 136.039 199.562 135.834 199.702C135.321 200.055 134.324 200.058 133.742 199.711C133.42 199.518 133.249 199.237 133.245 198.896C133.221 196.597 132.908 195.354 132.637 194.528C132.246 193.336 132.023 192.149 131.974 191.001C131.959 190.664 131.947 190.32 131.938 189.979C131.905 188.662 130.624 184.285 130.412 183.571C128.86 189.193 128.892 191.129 128.901 191.333C128.941 192.264 129.016 193.014 129.127 193.625C129.391 195.074 129.134 196.86 128.886 198.586C128.703 199.85 128.516 201.157 128.538 202.306C128.548 202.819 127.92 203.026 127.33 203.049C127.289 203.05 127.248 203.05 127.207 203.05ZM124.574 178.201C124.063 182.589 124.34 184.287 124.609 185.928C124.775 186.946 124.933 187.907 124.911 189.455C124.901 190.147 124.925 190.867 124.949 191.565C124.977 192.405 125.005 193.274 124.976 194.106C124.906 196.078 125.109 197.511 125.287 198.775C125.452 199.946 125.595 200.956 125.482 202.103C125.507 202.661 126.373 202.986 127.204 202.986C127.245 202.986 127.287 202.985 127.328 202.984C127.89 202.962 128.488 202.772 128.479 202.308C128.457 201.152 128.644 199.843 128.827 198.576C129.075 196.854 129.331 195.075 129.069 193.638C128.957 193.024 128.882 192.27 128.842 191.335C128.801 190.409 129.18 187.789 130.383 183.453C130.387 183.44 130.398 183.43 130.411 183.43C130.424 183.43 130.436 183.44 130.441 183.453C130.455 183.503 131.962 188.54 131.998 189.978C132.006 190.318 132.018 190.662 132.033 190.999C132.083 192.141 132.305 193.321 132.693 194.507C132.965 195.338 133.28 196.587 133.304 198.896C133.308 199.295 133.561 199.528 133.77 199.654C134.335 199.994 135.304 199.99 135.802 199.648C135.931 199.559 136.084 199.405 136.074 199.175C136.016 197.426 136.135 196.172 136.241 195.067C136.335 194.073 136.425 193.134 136.368 192.01C136.335 191.355 136.228 190.702 136.138 190.207C135.347 185.841 135.327 182.744 135.312 180.482C135.298 178.384 135.289 176.995 134.691 175.922L124.574 178.201Z" fill="#221C3A"/>
<path d="M134.798 157.616C135.733 157.615 135.759 158.315 135.878 158.814C137.303 164.806 133.19 166.943 135.318 177.089C136.416 182.29 123.679 182.932 124.455 178.524C124.997 174.755 126.449 169.663 125.976 165.515C125.867 164.566 125.387 163.37 125.757 162.444C126.072 161.653 134.422 157.616 134.798 157.616Z" fill="#5186EB"/>
<path d="M116.484 160.741C116.277 160.652 115.901 161.408 115.808 161.627C115.878 161.2 116.198 160.367 115.874 160.262C115.399 160.108 115.032 161.698 114.878 162.23C114.692 162.871 114.566 163.534 114.465 164.196C114.427 164.447 114.395 164.549 114.4 164.664C114.413 164.992 114.565 165.663 115.23 166.495C116.313 167.852 119.245 170.963 119.75 170.989C120.054 171.006 120.35 170.891 120.637 170.78C121.698 170.365 126.183 168.296 126.639 167.726C127.179 167.051 125.272 162.585 124.927 162.939C123.617 164.28 119.76 167.52 119.76 167.52C119.76 167.52 116.599 165.482 116.649 165.38C116.869 164.941 117.497 163.09 117.291 162.953C117.131 162.847 116.994 163.096 116.93 163.22C116.898 162.882 116.961 162.548 117.091 162.239C117.306 161.729 116.93 161.577 116.698 161.88C116.641 161.953 116.457 162.16 116.461 162.019C116.478 161.36 116.848 160.898 116.484 160.741Z" fill="#FCBE9F"/>
<path d="M127.099 162.058C126.954 161.878 126.316 161.956 126.132 162.086C125.316 162.662 122.429 164.78 121.389 165.678C120.541 166.41 122.463 170.179 123.788 169.715C124.273 169.544 127.435 167.999 127.692 167.63C128.299 166.76 127.922 163.074 127.099 162.058Z" fill="#5186EB"/>
<path d="M116.885 165.514L114.06 161.854C113.933 161.689 113.916 161.442 114.022 161.309L115.102 159.959C115.123 159.933 115.147 159.912 115.173 159.899L114.938 160.023C114.912 160.036 114.887 160.057 114.866 160.083L113.787 161.433C113.68 161.566 113.697 161.813 113.825 161.978L116.649 165.638C116.751 165.771 116.896 165.814 117.004 165.757L117.239 165.633C117.131 165.69 116.987 165.647 116.885 165.514Z" fill="white"/>
<path d="M118.351 163.68L115.526 160.02C115.399 159.855 115.208 159.826 115.101 159.959L114.022 161.31C113.915 161.443 113.932 161.69 114.06 161.855L116.884 165.515C117.012 165.68 117.205 165.706 117.312 165.573L118.391 164.223C118.498 164.089 118.478 163.846 118.351 163.68Z" fill="#221C3A"/>
<path d="M116.06 162.109C116.092 161.993 116.129 161.874 116.113 161.754C116.098 161.635 116.011 161.516 115.901 161.518C115.809 161.52 115.736 161.6 115.674 161.675C115.48 161.908 115.286 162.142 115.092 162.375C114.934 162.565 114.774 162.758 114.667 162.987C114.526 163.291 114.445 164.107 114.415 164.478C114.405 164.599 114.458 164.712 114.555 164.771C114.838 164.944 115.426 165.263 115.642 165.372C115.933 165.519 116.173 165.56 116.075 165.146C115.995 164.807 115.916 164.476 115.884 164.126C115.821 163.449 115.879 162.759 116.06 162.109Z" fill="#FCBE9F"/>
<path d="M131.614 165.404C131.352 166.755 135.448 167.697 135.761 166.171C135.984 165.082 137.01 160.534 136.826 159.488C136.341 156.728 134.124 157.304 133.193 158.88C132.232 160.506 131.661 165.161 131.614 165.404Z" fill="#5186EB"/>
<path d="M128.385 151.745C127.748 152.435 127.404 153.437 127.467 154.416C127.474 154.527 127.485 154.644 127.444 154.746C127.384 154.895 127.234 154.968 127.106 155.05C126.979 155.132 126.85 155.272 126.88 155.432C126.903 155.553 127.009 155.63 127.067 155.735C127.121 155.833 127.132 155.951 127.142 156.064C127.183 156.536 127.225 157.01 127.199 157.483C127.191 157.633 127.176 157.786 127.217 157.929C127.328 158.324 127.769 158.446 128.128 158.576C128.321 158.647 128.408 158.707 128.486 158.975C128.703 159.711 128.692 160.055 128.653 160.631C128.577 161.777 133.016 160.817 132.449 159.321C132.376 159.129 132.266 158.462 132.381 158.244C132.731 157.577 133.888 157.135 133.959 154.956C134.112 150.302 130.034 149.956 128.385 151.745Z" fill="#FABC9D"/>
<path d="M128.999 155.933C128.872 156.509 129.851 156.595 129.953 156.188C130.219 155.55 130.813 155.695 131.048 156.1C131.356 156.629 131.189 157.229 130.676 157.898C130.462 158.177 130.549 158.62 130.858 158.754C131.879 159.199 134.125 157.047 134.514 154.455C134.799 152.37 134.303 151.172 132.906 150.349C132.214 149.941 131.106 149.724 130.552 149.723C128.331 149.72 127.238 151.282 127.43 153.068C127.462 153.358 127.635 153.61 127.883 153.716C128.525 153.991 129.329 154.432 128.999 155.933Z" fill="#221C3A"/>
<path d="M43.0097 37.8507C43.2708 37.6855 43.5396 37.8689 43.3715 38.3565C43.2314 38.769 43.089 39.1828 42.9459 39.5973C43.0043 39.6834 43.0413 39.8068 43.0419 39.9608L43.055 45.1223C43.0562 45.5805 42.7635 46.1353 42.3993 46.3657L38.2969 48.9589C37.9327 49.1893 37.6382 49.0052 37.637 48.547L37.6233 43.3855C37.6221 42.9273 37.9148 42.3725 38.279 42.1421L42.2377 39.6397C42.3927 39.1867 42.5477 38.7344 42.7033 38.2854C42.7778 38.068 42.8928 37.9244 43.0097 37.8507ZM42.7462 45.3168L42.7331 40.2173C42.0488 42.2113 41.3644 44.2053 40.6801 46.1954C40.6086 46.4029 40.4828 46.5589 40.3552 46.6392C40.2223 46.7234 40.087 46.7254 40.0101 46.619C39.4319 45.8318 38.8543 45.0486 38.279 44.2595C38.093 44.0043 38.3595 43.4873 38.6283 43.3176C38.7458 43.2432 38.8638 43.2354 38.9443 43.3457C39.4027 43.9697 39.8634 44.5956 40.3218 45.2196C40.903 43.5265 41.4837 41.8328 42.0672 40.1377L38.2802 42.5318C38.0877 42.6538 37.9321 42.9489 37.9327 43.191L37.9458 48.3525C37.9464 48.5947 38.1032 48.6926 38.2957 48.5705L42.3981 45.9774C42.5912 45.854 42.7468 45.5596 42.7462 45.3168Z" fill="#5186EB"/>
<path d="M93.3532 8.14857C93.6494 7.96125 93.9153 8.28302 93.6447 8.7993C93.1964 9.64911 92.7511 10.5015 92.3064 11.3494C92.7547 11.6366 93.2023 11.9238 93.6536 12.2057C93.926 12.3787 93.6631 13.0346 93.3669 13.222C93.2792 13.2774 93.1886 13.2918 93.1082 13.2409C92.6599 12.9576 92.2092 12.6757 91.761 12.3885C91.3157 13.2402 90.8704 14.0887 90.4257 14.9366C90.3458 15.0893 90.2552 15.1892 90.1676 15.2447C89.8713 15.432 89.6055 15.1102 89.8761 14.5939C90.3214 13.7461 90.7696 12.8917 91.2143 12.0399C90.7661 11.7567 90.3154 11.4708 89.8672 11.1875C89.5947 11.0146 89.8576 10.3586 90.1539 10.1713C90.2415 10.1158 90.3321 10.1014 90.4126 10.1523C90.8609 10.4356 91.3085 10.7189 91.7568 11.0067C92.2021 10.155 92.6504 9.30449 93.095 8.45664C93.1749 8.30391 93.2655 8.20405 93.3532 8.14857Z" fill="#EA4A4A"/>
<path d="M93.7503 7.04413C94.1145 6.81373 94.409 6.99779 94.4102 7.45598L94.4233 12.6175C94.4245 13.0757 94.1318 13.6344 93.7676 13.8648L89.6652 16.458C89.301 16.6884 89.0065 16.5004 89.0053 16.0422L88.9922 10.8807C88.991 10.4225 89.2837 9.86769 89.6479 9.63729L93.7503 7.04413ZM94.1145 12.8127L94.1014 7.65114C94.1008 7.40834 93.944 7.31109 93.7515 7.43314L89.6491 10.0263C89.4566 10.1484 89.301 10.4434 89.3016 10.6855L89.3147 15.847C89.3153 16.0898 89.4721 16.1871 89.6646 16.065L93.767 13.4719C93.9595 13.3498 94.1151 13.0548 94.1145 12.8127Z" fill="#EA4A4A"/>
<path d="M55.0684 38.0104C55.0004 38.0104 54.9372 37.9928 54.8818 37.9576C54.7477 37.8734 54.6731 37.6978 54.6725 37.4635L54.6594 32.302C54.6582 31.8353 54.9587 31.2648 55.3295 31.0305L59.4318 28.4374C59.6178 28.3199 59.7943 28.3003 59.9284 28.3858C60.0619 28.47 60.1352 28.6443 60.1358 28.8773L60.1489 34.0388C60.1501 34.5074 59.8497 35.0798 59.4783 35.3142L55.3765 37.9073C55.2692 37.9765 55.1643 38.0104 55.0684 38.0104ZM59.743 28.3989C59.6577 28.3989 59.5618 28.4308 59.4622 28.4942L55.3598 31.0873C55.0058 31.3112 54.7178 31.8562 54.719 32.302L54.7322 37.4635C54.7328 37.673 54.7965 37.8283 54.9116 37.9014C55.0266 37.9726 55.1816 37.955 55.3479 37.8505L59.4497 35.2574C59.8044 35.0335 60.0917 34.4865 60.0905 34.0388L60.0774 28.8773C60.0768 28.6691 60.0136 28.5144 59.8998 28.4419C59.8533 28.4139 59.8002 28.3989 59.743 28.3989Z" fill="#221C3A"/>
<path d="M62.3273 29.0361L61.3843 29.6326V29.1327L62.3273 28.5367V29.0361Z" fill="white"/>
<path d="M64.3198 27.7764L62.9404 28.6484V28.1491L64.3198 27.2771V27.7764Z" fill="white"/>
<path d="M68.732 24.9873L64.9336 27.3886V26.8893L68.732 24.488V24.9873Z" fill="white"/>
<path d="M63.5028 29.6496L61.3843 30.9883V30.4889L63.5028 29.1503V29.6496Z" fill="white"/>
<path d="M65.4955 28.39L64.1155 29.262V28.7627L65.4955 27.89V28.39Z" fill="white"/>
<path d="M67.7944 26.9362L66.1086 28.0021V27.5028L67.7944 26.4363V26.9362Z" fill="white"/>
<path d="M64.3198 30.4888L62.9404 31.3608V30.8615L64.3198 29.9895V30.4888Z" fill="white"/>
<path d="M66.3642 29.1967L64.9336 30.1013V29.602L66.3642 28.6974V29.1967Z" fill="white"/>
<path d="M71.9709 27.3258C71.903 27.3258 71.8404 27.3082 71.7844 27.2736C71.6502 27.1894 71.5757 27.0138 71.5751 26.7795L71.562 21.618C71.5608 21.1513 71.8613 20.5809 72.2326 20.3466L76.3344 17.7534C76.5204 17.6353 76.6968 17.6176 76.831 17.7018C76.9645 17.786 77.0378 17.9603 77.0384 18.1933L77.0521 23.3548C77.0539 23.8235 76.7529 24.3959 76.3821 24.6302L72.2797 27.2234C72.1712 27.2912 72.0663 27.3258 71.9709 27.3258ZM76.645 17.7143C76.5597 17.7143 76.4638 17.7462 76.3642 17.8095L72.2624 20.4027C71.9077 20.6266 71.6204 21.1716 71.6216 21.6174L71.6347 26.7789C71.6353 26.9884 71.6991 27.1444 71.8142 27.2168C71.9286 27.2886 72.0836 27.271 72.2499 27.1659L76.3523 24.5728C76.7064 24.3489 76.9943 23.8019 76.9931 23.3542L76.9794 18.1927C76.9788 17.9845 76.9156 17.8298 76.8018 17.758C76.7553 17.7286 76.7028 17.7143 76.645 17.7143Z" fill="#221C3A"/>
<path d="M79.2297 18.3514L78.2866 18.9473V18.448L79.2297 17.8514V18.3514Z" fill="white"/>
<path d="M81.2226 17.091L79.8433 17.9636V17.4637L81.2226 16.5917V17.091Z" fill="white"/>
<path d="M80.4046 18.9642L78.2866 20.3035V19.8042L80.4046 18.4648V18.9642Z" fill="white"/>
<path d="M82.398 17.7045L81.0181 18.5765V18.0772L82.398 17.2052V17.7045Z" fill="white"/>
<path d="M81.2226 19.8035L79.8433 20.6762V20.1762L81.2226 19.3042V19.8035Z" fill="white"/>
<path d="M45.2865 38.9635L44.3435 39.5595V39.0601L45.2865 38.4642V38.9635Z" fill="white"/>
<path d="M47.2793 37.7039L45.8999 38.5759V38.0766L47.2793 37.2046V37.7039Z" fill="white"/>
<path d="M46.4615 39.5769L44.3435 40.9156V40.4163L46.4615 39.0776V39.5769Z" fill="white"/>
<path d="M48.4544 38.3173L47.0745 39.1893V38.69L48.4544 37.8174V38.3173Z" fill="white"/>
<path d="M45.2865 41.6762L44.3435 42.2721V41.7728L45.2865 41.1769V41.6762Z" fill="white"/>
<path d="M47.2793 40.4164L45.8999 41.2884V40.7891L47.2793 39.9171V40.4164Z" fill="white"/>
<path d="M96.6297 6.91228L95.6873 7.50818V7.00887L96.6297 6.41296V6.91228Z" fill="white"/>
<path d="M98.6228 5.65263L97.2434 6.52463V6.02532L98.6228 5.15332V5.65263Z" fill="white"/>
<path d="M103.034 2.86357L99.2358 5.26483V4.76552L103.034 2.36426V2.86357Z" fill="white"/>
<path d="M105.152 1.52499L103.648 2.47597V1.97665L105.152 1.02502V1.52499Z" fill="white"/>
<path d="M105.766 0.637267V1.13723L106.363 0.759321V0.26001L105.766 0.637267Z" fill="white"/>
<path d="M97.8052 7.52584L95.6873 8.86452V8.36521L97.8052 7.02588V7.52584Z" fill="white"/>
<path d="M99.7983 6.26542L98.4189 7.13808V6.63811L99.7983 5.76611V6.26542Z" fill="white"/>
<path d="M102.098 4.81193L100.412 5.87844V5.37847L102.098 4.31262V4.81193Z" fill="white"/>
<path d="M103.756 3.76372L102.711 4.42424V3.92493L103.756 3.2644V3.76372Z" fill="white"/>
<path d="M104.369 2.87656V3.37653L105.776 2.4869V1.98694L104.369 2.87656Z" fill="white"/>
</svg>
