<svg width="370" height="262" viewBox="0 0 370 262" fill="none" xmlns="http://www.w3.org/2000/svg">
<rect width="370" height="262" rx="30" fill="#E9DFFF"/>
<path d="M281.588 179.589C290.944 184.416 290.993 192.244 281.698 197.07L202.209 238.352C192.914 243.179 177.797 243.176 168.442 238.35L88.4372 197.071C79.0816 192.244 79.0276 184.419 88.3224 179.592L167.812 138.31C177.106 133.483 192.228 133.483 201.584 138.31L281.588 179.589Z" fill="#1C3E76"/>
<path d="M291.367 170.592L203.928 216.002C193.704 221.312 177.075 221.309 166.784 216L78.7788 170.593C73.599 167.92 71.0116 164.412 71.0225 160.91L71 165.794C70.9891 169.297 73.5766 172.805 78.7563 175.477L166.762 220.884C177.053 226.193 193.682 226.196 203.905 220.886L291.344 175.477C296.423 172.839 298.966 169.386 298.977 165.929L298.999 161.044C298.989 164.502 296.446 167.955 291.367 170.592Z" fill="#002266"/>
<path d="M291.246 151.362C301.537 156.672 301.591 165.282 291.367 170.592L203.928 216.002C193.704 221.311 177.075 221.308 166.785 215.999L78.7789 170.593C68.488 165.283 68.4285 156.676 78.6526 151.366L166.092 105.957C176.316 100.647 192.949 100.647 203.24 105.957L291.246 151.362Z" fill="white"/>
<path d="M205.126 53.7894L208.628 51.9711L208.167 54.4657L204.666 56.2835L205.126 53.7894Z" fill="#0082E4"/>
<path d="M187.354 29.5566L190.855 27.7383L193.505 28.6002L190.004 30.418L187.354 29.5566Z" fill="#005580"/>
<path d="M196.604 31.7641L200.105 29.9458C198.765 30.6417 197.934 32.1213 197.927 34.2246C197.914 38.4546 201.245 43.6105 205.368 45.7377L201.867 47.5561C197.744 45.4289 194.413 40.2724 194.427 36.043C194.433 33.9396 195.264 32.46 196.604 31.7641Z" fill="#0082E4"/>
<path d="M210.676 46.2019L207.175 48.0203C205.818 48.7248 203.939 48.626 201.866 47.5567L205.367 45.7384C207.44 46.8077 209.319 46.907 210.676 46.2019Z" fill="#0082E4"/>
<path d="M215.946 54.4729L212.445 56.2912C213.076 55.9639 213.645 55.4548 214.142 54.7345L217.643 52.9161C217.146 53.6364 216.577 54.145 215.946 54.4729Z" fill="#0082E4"/>
<path d="M191.331 23.4899L194.832 21.6715C195.518 21.3155 196.276 21.1743 197.094 21.2118L193.593 23.0301C192.776 22.9932 192.017 23.1338 191.331 23.4899Z" fill="#005580"/>
<path d="M212.59 51.6747L216.092 49.8563L217.643 52.9155L214.142 54.7338L212.59 51.6747Z" fill="#005580"/>
<path d="M193.593 23.0303L197.094 21.2119L199.314 23.9226L195.812 25.7409L193.593 23.0303Z" fill="#0082E4"/>
<path d="M213.773 49.3651L217.274 47.5468C216.997 48.4358 216.598 49.2082 216.092 49.8563L212.591 51.6747C213.097 51.0266 213.496 50.2542 213.773 49.3651Z" fill="#005580"/>
<path d="M195.812 25.7407L199.313 23.9223C200.195 23.8593 201.148 23.9391 202.148 24.1736L198.647 25.992C197.647 25.7575 196.694 25.6777 195.812 25.7407Z" fill="#005580"/>
<path d="M212.615 39.1363L216.116 37.318C216.621 38.4877 217.014 39.6694 217.288 40.8385L213.787 42.6569C213.513 41.4872 213.12 40.306 212.615 39.1363Z" fill="#005580"/>
<path d="M205.176 29.3531L208.677 27.5348C209.679 28.3289 210.629 29.231 211.512 30.2004L208.011 32.0188C207.129 31.0494 206.178 30.1472 205.176 29.3531Z" fill="#005580"/>
<path d="M216.442 44.4952L219.943 42.6769C220.606 45.2128 220.528 47.0528 219.924 48.4087L216.423 50.2271C217.028 48.8706 217.105 47.0311 216.442 44.4952Z" fill="#005580"/>
<path d="M213.787 42.6562L217.288 40.8379L219.943 42.6769L216.441 44.4952L213.787 42.6562Z" fill="#0082E4"/>
<path d="M199.111 23.5002L202.612 21.6819C203.648 21.88 204.613 22.2225 205.516 22.6888C206.473 23.1832 207.363 23.8161 208.194 24.5619L204.693 26.3803C203.862 25.6345 202.972 25.001 202.015 24.5071C201.111 24.0408 200.148 23.6983 199.111 23.5002Z" fill="#005580"/>
<path d="M204.693 26.3804L208.194 24.562L208.677 27.5349L205.176 29.3532L204.693 26.3804Z" fill="#0082E4"/>
<path d="M214.149 37.6438L217.65 35.8254L216.116 37.3181L212.615 39.1365L214.149 37.6438Z" fill="#0082E4"/>
<path d="M208.011 32.0187L211.513 30.2003L213.714 29.7335L210.213 31.5519L208.011 32.0187Z" fill="#0082E4"/>
<path d="M216.424 50.227L213.774 49.3656C213.497 50.2547 213.097 51.0271 212.591 51.6752L214.142 54.7344C213.105 56.2379 211.753 56.8209 210.184 56.7541L207.965 54.0391C207.083 54.1058 206.131 54.0222 205.127 53.7899L204.666 56.284C203.629 56.0837 202.663 55.7402 201.759 55.2734C200.803 54.78 199.915 54.1487 199.084 53.404L198.601 50.4311C197.599 49.6327 196.649 48.7349 195.767 47.7617L193.561 48.2263C191.583 46.1409 190.342 44.1185 189.63 42.1362L191.159 40.6419C190.659 39.4744 190.261 38.2949 189.991 37.1236L187.336 35.2889C186.673 32.753 186.751 30.9092 187.355 29.5571L190.005 30.4185C190.282 29.5294 190.681 28.757 191.187 28.1089L189.636 25.0454C190.674 23.5419 192.026 22.9589 193.594 23.03L195.814 25.7407C196.696 25.6778 197.648 25.7576 198.648 25.992L199.113 23.4996C200.149 23.6977 201.114 24.0402 202.017 24.5064C202.975 25.0004 203.864 25.6338 204.695 26.3796L205.178 29.3525C206.18 30.1466 207.13 31.0487 208.013 32.0181L210.214 31.5513C212.197 33.6383 213.433 35.6629 214.15 37.643L212.616 39.1351C213.121 40.3049 213.514 41.4865 213.788 42.6557L216.443 44.4941C217.105 47.0311 217.028 48.8706 216.424 50.227ZM201.867 47.5565C205.986 49.6815 209.339 47.9745 209.352 43.7445C209.366 39.5108 206.035 34.3543 201.915 32.2292C197.792 30.102 194.439 31.8097 194.426 36.0434C194.412 40.2728 197.743 45.4293 201.867 47.5565Z" fill="#E7EDF7"/>
<path d="M210.212 31.5519L213.713 29.7335C215.696 31.8205 216.932 33.8451 217.649 35.8252L214.148 37.6436C213.431 35.6635 212.194 33.6389 210.212 31.5519Z" fill="#005580"/>
<path d="M231.555 39.9115L233.691 38.802L233.41 40.324L231.274 41.434L231.555 39.9115Z" fill="#8F65E0"/>
<path d="M220.709 25.1242L222.845 24.0148L224.462 24.5407L222.326 25.6502L220.709 25.1242Z" fill="#9070AE"/>
<path d="M231.701 34.9987C229.186 33.7003 227.153 30.5543 227.161 27.9728C227.165 26.6891 227.672 25.7865 228.49 25.3615L226.354 26.4709C225.536 26.8954 225.029 27.7986 225.025 29.0823C225.017 31.6632 227.049 34.8098 229.565 36.1081C230.83 36.7606 231.976 36.8214 232.804 36.3909L234.941 35.2815C234.113 35.7114 232.966 35.6511 231.701 34.9987Z" fill="#8F65E0"/>
<path d="M238.156 40.3289L236.02 41.4384C236.404 41.2386 236.752 40.9281 237.056 40.4885L239.192 39.379C238.889 39.8181 238.541 40.1286 238.156 40.3289Z" fill="#8F65E0"/>
<path d="M223.136 21.4225L225.272 20.313C225.69 20.0953 226.154 20.0096 226.652 20.0324L224.516 21.1418C224.018 21.119 223.554 21.2048 223.136 21.4225Z" fill="#9070AE"/>
<path d="M236.109 38.6212L238.246 37.5117L239.192 39.3784L237.056 40.4878L236.109 38.6212Z" fill="#9070AE"/>
<path d="M224.517 21.1418L226.653 20.0323L228.007 21.6862L225.871 22.7957L224.517 21.1418Z" fill="#8F65E0"/>
<path d="M236.831 37.2122L238.967 36.1028C238.798 36.645 238.554 37.1167 238.246 37.5119L236.109 38.6213C236.418 38.2262 236.662 37.7545 236.831 37.2122Z" fill="#9070AE"/>
<path d="M225.87 22.7957L228.006 21.6863C228.544 21.6477 229.126 21.6966 229.736 21.8399L227.6 22.9493C226.99 22.806 226.408 22.7577 225.87 22.7957Z" fill="#9070AE"/>
<path d="M236.124 30.9702L238.26 29.8607C238.568 30.5745 238.808 31.2953 238.976 32.0091L236.84 33.1185C236.672 32.4048 236.431 31.6839 236.124 30.9702Z" fill="#9070AE"/>
<path d="M231.584 25L233.721 23.8905C234.332 24.3752 234.912 24.9256 235.45 25.5172L233.314 26.6267C232.776 26.0351 232.196 25.4847 231.584 25Z" fill="#9070AE"/>
<path d="M238.459 34.24L240.595 33.1305C240.999 34.678 240.952 35.8005 240.584 36.6282L238.448 37.7377C238.816 36.9105 238.863 35.7875 238.459 34.24Z" fill="#9070AE"/>
<path d="M236.839 33.1179L238.975 32.0084L240.596 33.1304L238.459 34.2398L236.839 33.1179Z" fill="#8F65E0"/>
<path d="M227.884 21.4284L230.02 20.319C230.653 20.44 231.241 20.649 231.792 20.9334C232.376 21.2352 232.919 21.6211 233.427 22.0765L231.29 23.186C230.783 22.7306 230.24 22.3447 229.656 22.0429C229.105 21.7584 228.517 21.5495 227.884 21.4284Z" fill="#9070AE"/>
<path d="M231.29 23.1859L233.426 22.0764L233.721 23.8904L231.584 24.9999L231.29 23.1859Z" fill="#8F65E0"/>
<path d="M237.06 30.0593L239.196 28.9498L238.26 29.8601L236.124 30.9701L237.06 30.0593Z" fill="#8F65E0"/>
<path d="M233.314 26.6268L235.451 25.5174L236.794 25.2324L234.658 26.3419L233.314 26.6268Z" fill="#8F65E0"/>
<path d="M238.448 37.7375L236.831 37.2115C236.662 37.7538 236.418 38.2254 236.11 38.6206L237.056 40.4872C236.423 41.4046 235.598 41.7606 234.641 41.7194L233.287 40.0628C232.749 40.1035 232.168 40.0525 231.555 39.9108L231.274 41.4328C230.64 41.3106 230.051 41.1011 229.499 40.8162C228.916 40.5149 228.374 40.1301 227.867 39.6752L227.573 37.8612C226.961 37.3738 226.382 36.8261 225.843 36.2323L224.497 36.5156C223.29 35.2433 222.533 34.009 222.098 32.7992L223.031 31.8873C222.726 31.1746 222.484 30.4549 222.318 29.7406L220.698 28.6208C220.294 27.0733 220.341 25.9481 220.709 25.123L222.326 25.649C222.495 25.1068 222.739 24.6351 223.048 24.2399L222.102 22.3706C222.734 21.4532 223.559 21.0972 224.516 21.1406L225.87 22.795C226.408 22.7565 226.99 22.8053 227.6 22.9486L227.884 21.4277C228.516 21.5488 229.105 21.7578 229.656 22.0422C230.24 22.344 230.782 22.7299 231.29 23.1853L231.585 24.9993C232.196 25.484 232.776 26.0344 233.314 26.626L234.658 26.3411C235.868 27.615 236.622 28.8504 237.06 30.0586L236.124 30.9694C236.432 31.6832 236.671 32.404 236.839 33.1178L238.459 34.2397C238.864 35.7872 238.817 36.9103 238.448 37.7375ZM229.565 36.108C232.078 37.4047 234.125 36.3631 234.133 33.7816C234.14 31.1979 232.108 28.0514 229.594 26.7547C227.078 25.4563 225.032 26.4985 225.024 29.0821C225.016 31.6637 227.049 34.8102 229.565 36.108Z" fill="white"/>
<path d="M234.658 26.3419L236.794 25.2324C238.004 26.5063 238.758 27.7417 239.195 28.95L237.059 30.0594C236.622 28.8512 235.868 27.6158 234.658 26.3419Z" fill="#9070AE"/>
<path d="M262.892 60.08L264.298 59.3504C264.674 59.155 265.194 59.1827 265.77 59.4796L264.364 60.2091C263.789 59.9122 263.268 59.8845 262.892 60.08Z" fill="#002266"/>
<path d="M297.871 98.5063L296.465 99.2358C296.836 99.0431 297.067 98.6333 297.068 98.0498L298.474 97.3203C298.473 97.9038 298.243 98.3136 297.871 98.5063Z" fill="#002266"/>
<path d="M297.128 79.2479L298.534 78.5184L298.474 97.3201L297.069 98.0502L297.128 79.2479Z" fill="#002266"/>
<path d="M264.364 60.2092L265.77 59.4791L296.466 75.3172L295.06 76.0467L264.364 60.2092Z" fill="#002266"/>
<path d="M295.061 76.0466L296.466 75.3171C297.612 75.9082 298.538 77.3417 298.534 78.5185L297.129 79.2486C297.133 78.0718 296.207 76.6377 295.061 76.0466Z" fill="#002266"/>
<path d="M295.06 76.0466C296.206 76.6377 297.132 78.0712 297.128 79.2479L297.069 98.0502C297.065 99.2264 296.133 99.697 294.987 99.1059L264.291 83.2684C263.146 82.6773 262.224 81.2503 262.228 80.0735L262.287 61.2713C262.291 60.0951 263.219 59.618 264.364 60.2091L295.06 76.0466Z" fill="white"/>
<path d="M270.01 73.9683L269.987 81.2233L267.522 79.951L267.545 72.696L270.01 73.9683Z" fill="#A71B2C"/>
<path d="M274.728 72.6922L274.692 83.6511L272.227 82.3793L272.262 71.4204L274.728 72.6922Z" fill="#FFB600"/>
<path d="M279.312 77.2446L279.284 86.0199L276.823 84.7503L276.851 75.9745L279.312 77.2446Z" fill="#A71B2C"/>
<path d="M283.925 73.8854L283.88 88.3914L281.415 87.1191L281.46 72.6136L283.925 73.8854Z" fill="#FFB600"/>
<path d="M293.282 78.7129L293.236 93.219L290.771 91.9467L290.817 77.4412L293.282 78.7129Z" fill="#FFB600"/>
<path d="M288.624 78.5358L288.586 90.8192L286.12 89.5469L286.159 77.2635L288.624 78.5358Z" fill="#A71B2C"/>
<path d="M274.745 67.2286L274.743 67.9733L267.126 64.0435L267.128 63.2988L274.745 67.2286Z" fill="#002266"/>
<path d="M293.593 94.7556L293.59 95.4438L267.515 81.9903L267.518 81.302L293.593 94.7556Z" fill="#002266"/>
<path d="M274.167 117.336L276.395 116.179L283.212 127.933L280.984 129.091L274.167 117.336Z" fill="#002266"/>
<path d="M284.06 127.581L281.832 128.738C283.69 127.773 284.87 125.761 284.972 122.91L287.2 121.753C287.098 124.603 285.919 126.615 284.06 127.581Z" fill="#EFB44B"/>
<path d="M284.972 122.911C284.855 126.173 283.327 128.337 280.984 129.091L274.167 117.336L284.972 122.911Z" fill="#FFB600"/>
<path d="M274.167 117.336L276.395 116.179L287.2 121.753L284.972 122.911L274.167 117.336Z" fill="#EFB44B"/>
<path d="M274.204 105.852L274.167 117.336L280.985 129.091C279.117 129.7 276.723 129.404 274.133 128.068C268.158 124.985 263.334 117.513 263.354 111.383C263.373 105.247 268.228 102.769 274.204 105.852Z" fill="white"/>
<path d="M266.51 105.179L268.738 104.021C270.704 103 273.427 103.144 276.432 104.695L274.203 105.852C271.198 104.302 268.476 104.158 266.51 105.179Z" fill="#002266"/>
<path d="M274.203 105.852L276.432 104.695L276.395 116.179L274.167 117.335L274.203 105.852Z" fill="#002266"/>
<path d="M276.993 102.978C283.523 106.347 288.805 114.522 288.783 121.228C288.783 121.368 288.783 121.508 288.772 121.632L276.953 115.534L276.993 102.978Z" fill="#A71B2C"/>
<path d="M276.992 102.978L279.221 101.82C285.751 105.19 291.032 113.365 291.011 120.071C291.011 120.211 291.011 120.351 291 120.475L288.771 121.632C288.782 121.508 288.782 121.368 288.783 121.228C288.804 114.522 283.523 106.347 276.992 102.978Z" fill="#E24B65"/>
<path d="M137.305 50.7786L135.9 50.0486C135.524 49.8532 135.003 49.8808 134.427 50.1777L135.833 50.9078C136.409 50.6109 136.929 50.5832 137.305 50.7786Z" fill="#002266"/>
<path d="M104.4 92.4548L105.806 93.1848C105.435 92.9922 105.205 92.5823 105.203 91.9989L103.797 91.2688C103.799 91.8523 104.029 92.2621 104.4 92.4548Z" fill="#002266"/>
<path d="M105.143 68.8765L103.737 68.147L103.797 91.2687L105.202 91.9988L105.143 68.8765Z" fill="#002266"/>
<path d="M135.832 50.9079L134.427 50.1779L105.805 64.9455L107.21 65.675L135.832 50.9079Z" fill="#002266"/>
<path d="M107.211 65.6749L105.805 64.9454C104.66 65.5365 103.734 66.97 103.737 68.1468L105.143 68.8769C105.139 67.7001 106.065 66.266 107.211 65.6749Z" fill="#002266"/>
<path d="M107.21 65.6751C106.065 66.2662 105.138 67.6997 105.142 68.8765L105.202 91.9988C105.205 93.175 106.138 93.6456 107.283 93.0545L135.905 78.2868C137.05 77.6957 137.972 76.2687 137.969 75.092L137.909 51.9697C137.906 50.7935 136.978 50.3163 135.832 50.9074L107.21 65.6751Z" fill="white"/>
<path d="M113.537 65.4319C113.582 65.408 113.628 65.3852 113.674 65.3635L113.636 66.8844C113.607 66.8985 113.578 66.9126 113.55 66.9273C113.418 66.9951 113.286 67.0739 113.153 67.1623C113.085 67.2074 113.018 67.2551 112.951 67.3051C112.854 67.3778 112.758 67.456 112.661 67.5396C111.236 68.7804 110.48 70.7724 110.978 71.9856C111.021 72.0909 111.072 72.1869 111.131 72.2738C111.572 72.9305 112.429 73.0527 113.36 72.6472C113.43 72.6168 113.501 72.5832 113.572 72.5462C113.59 72.5365 113.609 72.5267 113.627 72.5169C113.831 72.4078 114.036 72.2738 114.24 72.1153C114.268 72.0936 114.296 72.0713 114.324 72.0485C114.37 72.0111 114.416 71.9725 114.462 71.9329C115.256 71.2398 115.839 70.3203 116.118 69.4279L117.486 69.2635C117.059 70.6329 116.161 72.0463 114.943 73.1064C114.898 73.146 114.852 73.1851 114.806 73.2231C114.789 73.2372 114.772 73.2513 114.755 73.2649C114.377 73.5743 113.994 73.8283 113.617 74.027C113.603 74.0346 113.589 74.0422 113.575 74.0492C113.547 74.0634 113.52 74.0769 113.493 74.0905C111.857 74.902 110.332 74.6653 109.681 73.3718C109.651 73.3127 109.623 73.2519 109.597 73.1889C109.442 72.8106 109.366 72.3834 109.362 71.9264C109.346 70.1336 110.435 67.8864 112.181 66.3655C112.629 65.9752 113.086 65.6637 113.537 65.4319Z" fill="#002266"/>
<path d="M113.561 68.8221C114.051 68.5697 114.449 68.7727 114.451 69.2775C114.453 69.7801 114.056 70.3934 113.567 70.6458C113.076 70.8993 112.677 70.6963 112.676 70.1937C112.673 69.6894 113.07 69.0755 113.561 68.8221Z" fill="#002266"/>
<path d="M117.527 66.2815C117.867 67.1087 117.829 68.1704 117.486 69.2641L116.118 69.4286C116.34 68.7181 116.367 68.0249 116.146 67.4843C115.761 66.5464 114.74 66.3477 113.635 66.8845L113.673 65.3636C115.368 64.5397 116.937 64.8393 117.527 66.2815Z" fill="#A71B2C"/>
<path d="M124.412 73.6692C124.904 73.4157 125.303 73.6187 125.304 74.1235C125.306 74.6261 124.909 75.2395 124.418 75.493C123.928 75.7454 123.53 75.5424 123.528 75.0397C123.527 74.5349 123.923 73.9216 124.412 73.6692Z" fill="#002266"/>
<path d="M124.632 70.0662C125.826 69.5169 126.985 69.5087 127.763 70.166C129.163 71.3499 128.799 74.2451 126.95 76.6334C126.857 76.7533 126.762 76.8695 126.666 76.9824C126.002 77.7575 125.257 78.36 124.513 78.7584C124.486 78.7731 124.458 78.7877 124.431 78.8018C124.411 78.8121 124.39 78.8224 124.371 78.8322C123.261 79.3891 122.166 79.4863 121.363 79.0216C121.313 78.9923 121.264 78.9614 121.216 78.9277C121.196 78.9136 121.176 78.8995 121.157 78.8849C121.127 78.8621 121.097 78.8387 121.069 78.8143C120.753 78.5472 120.526 78.195 120.387 77.7754L121.788 76.6328C121.879 76.9026 122.027 77.1349 122.234 77.3091C122.283 77.3509 122.335 77.3889 122.39 77.4226C122.401 77.4291 122.412 77.4356 122.423 77.4421C122.918 77.7309 123.586 77.6896 124.271 77.3759C124.322 77.352 124.375 77.3271 124.426 77.2999C124.444 77.2907 124.462 77.2815 124.48 77.2717C125.004 76.9905 125.529 76.5547 125.987 75.9891C126.014 75.956 126.04 75.9229 126.066 75.8892C126.781 74.9648 127.155 73.9238 127.15 73.0694C127.147 72.4848 126.966 71.9871 126.596 71.6734C126.089 71.2457 125.333 71.2516 124.556 71.6082L124.632 70.0662Z" fill="#9070AE"/>
<path d="M124.617 80.6642C124.79 80.5747 124.929 80.6479 124.93 80.826C124.93 81.0018 124.792 81.2179 124.619 81.3074L112.155 87.7379C111.982 87.8274 111.84 87.7552 111.84 87.5794C111.839 87.4013 111.98 87.1842 112.153 87.0952L124.617 80.6642Z" fill="#002266"/>
<path d="M113.595 79.2508C114.084 78.9984 114.483 79.2014 114.484 79.7062C114.486 80.2088 114.09 80.8221 113.601 81.0745C113.109 81.328 112.71 81.125 112.709 80.6224C112.707 80.1176 113.103 79.5043 113.595 79.2508Z" fill="#002266"/>
<path d="M116.069 82.2958C115.393 83.1415 114.505 83.9209 113.609 84.3861C113.088 84.6531 112.585 84.8116 112.126 84.8708C110.537 85.0787 109.403 84.0843 109.397 82.2393C109.391 81.1809 109.762 80.0237 110.376 78.9549C111.14 77.6191 112.297 76.4272 113.581 75.7595L113.586 77.263C112.745 77.6984 111.998 78.4751 111.494 79.3457C111.101 80.0383 110.857 80.795 110.857 81.4827C110.863 82.6844 111.599 83.3325 112.634 83.2039C112.938 83.1642 113.265 83.0606 113.603 82.8874C114.2 82.5759 114.754 82.0912 115.208 81.5223L115.688 81.9489L116.069 82.2958Z" fill="#002266"/>
<path d="M113.588 77.2634C113.603 77.2558 113.617 77.2483 113.632 77.2413L113.588 77.2634Z" fill="#002266"/>
<path d="M114.755 73.2654C114.519 73.4586 114.281 73.6307 114.044 73.7805C114.281 73.6301 114.519 73.4586 114.755 73.2654Z" fill="#A71B2C"/>
<path d="M124.557 71.609C124.506 71.6324 124.455 71.6573 124.404 71.6839C123.832 71.9792 123.256 72.4596 122.763 73.0968C121.831 74.2985 121.478 75.7033 121.79 76.6331L120.388 77.7756C119.908 76.3519 120.447 74.1998 121.88 72.3483C122.631 71.3767 123.515 70.6358 124.392 70.1831C124.472 70.1419 124.552 70.1028 124.632 70.0664L124.557 71.609Z" fill="#002266"/>
<path d="M124.379 63.2409C124.87 62.9874 125.269 63.1904 125.271 63.6952C125.272 64.1978 124.876 64.8111 124.384 65.0646C123.895 65.317 123.496 65.114 123.495 64.6114C123.493 64.1071 123.89 63.4932 124.379 63.2409Z" fill="#002266"/>
<path d="M122.283 63.4236C122.293 63.409 122.304 63.3889 122.316 63.3743C122.305 63.3889 122.294 63.409 122.283 63.4236C121.884 64.1211 121.646 64.8729 121.646 65.5655C121.651 66.7672 122.388 67.4153 123.423 67.2818L122.914 68.9536C121.325 69.1566 120.19 68.1671 120.185 66.3221C120.179 65.2637 120.544 64.101 121.164 63.0328L122.283 63.4236Z" fill="#002266"/>
<path d="M124.371 59.8418C126.691 58.6449 128.575 59.6062 128.582 61.9885C128.59 64.3692 126.718 67.2661 124.398 68.4629C123.874 68.7332 123.374 68.895 122.911 68.9514L123.422 67.2823C123.724 67.2438 124.051 67.1407 124.393 66.9637C125.904 66.1843 127.125 64.2937 127.12 62.7425C127.116 61.189 125.886 60.5632 124.376 61.3426C123.536 61.7763 122.787 62.5525 122.285 63.4237L121.163 63.0339C121.93 61.6965 123.083 60.5067 124.371 59.8418Z" fill="#FFB600"/>
<path d="M133.354 56.3314C134.006 55.9949 134.538 56.2657 134.54 56.9355C134.542 57.6075 134.014 58.4233 133.362 58.7598C132.709 59.0964 132.177 58.8277 132.175 58.1557C132.173 57.4859 132.701 56.6679 133.354 56.3314Z" fill="#002266"/>
<path d="M133.367 60.6946C134.02 60.358 134.552 60.6289 134.554 61.2987C134.555 61.9706 134.028 62.7865 133.375 63.123C132.722 63.4595 132.19 63.1908 132.188 62.5189C132.187 61.8491 132.715 61.0311 133.367 60.6946Z" fill="#002266"/>
<path d="M133.381 65.0573C134.033 64.7208 134.565 64.9917 134.567 65.6615C134.569 66.3313 134.041 67.1493 133.388 67.4858C132.736 67.8223 132.204 67.5515 132.202 66.8817C132.2 66.2119 132.728 65.3939 133.381 65.0573Z" fill="#002266"/>
<path d="M133.394 69.4203C134.047 69.0837 134.579 69.3546 134.58 70.0244C134.582 70.6942 134.054 71.5122 133.402 71.8487C132.749 72.1852 132.217 71.9144 132.215 71.2446C132.214 70.5748 132.742 69.7573 133.394 69.4203Z" fill="#002266"/>
<path d="M113.583 75.7606C115.904 74.5632 117.788 75.5272 117.795 77.9073C117.799 79.3457 117.118 80.9719 116.069 82.2958L115.209 81.5212C115.892 80.6587 116.336 79.5976 116.333 78.6618C116.328 77.1105 115.099 76.4847 113.588 77.2636L113.583 75.7606Z" fill="#005580"/>
<path d="M137.414 85.9899L136.241 85.3809C135.927 85.2181 135.493 85.2409 135.013 85.4884L136.186 86.0974C136.666 85.8499 137.1 85.8271 137.414 85.9899Z" fill="#002266"/>
<path d="M109.95 114.325L111.123 114.934C110.813 114.772 110.621 114.43 110.62 113.943L109.447 113.334C109.448 113.822 109.64 114.164 109.95 114.325Z" fill="#002266"/>
<path d="M110.57 101.096L109.397 100.487L109.447 113.335L110.62 113.944L110.57 101.096Z" fill="#002266"/>
<path d="M136.186 86.0979L135.013 85.4889L111.124 97.8146L112.296 98.4236L136.186 86.0979Z" fill="#002266"/>
<path d="M112.296 98.4235L111.123 97.8145C110.167 98.3078 109.394 99.5047 109.397 100.487L110.57 101.096C110.567 100.114 111.339 98.9169 112.296 98.4235Z" fill="#002266"/>
<path d="M112.296 98.4236C111.34 98.917 110.567 100.114 110.57 101.096L110.62 113.944C110.623 114.926 111.401 115.319 112.357 114.826L136.247 102.499C137.203 102.006 137.973 100.815 137.97 99.8327L137.92 86.9843C137.917 86.0024 137.142 85.604 136.186 86.0974L112.296 98.4236Z" fill="white"/>
<path d="M135.586 98.9506L135.59 100.247L115.795 110.459L115.791 109.163L135.586 98.9506Z" fill="#002266"/>
<path d="M135.566 92.6353L135.57 93.9314L115.776 104.145L115.771 102.848L135.566 92.6353Z" fill="#002266"/>
<path d="M135.576 95.7926L135.58 97.0931L115.785 107.306L115.782 106.006L135.576 95.7926Z" fill="#002266"/>
<path d="M127.995 93.387L127.999 94.6875L115.765 101L115.761 99.6991L127.995 93.387Z" fill="#002266"/>
<path d="M114.186 100.764C114.401 100.653 114.575 100.741 114.576 100.962C114.577 101.183 114.404 101.451 114.189 101.563C113.974 101.674 113.8 101.585 113.798 101.364C113.797 101.143 113.971 100.875 114.186 100.764Z" fill="#002266"/>
<path d="M114.196 103.908C114.411 103.797 114.585 103.89 114.586 104.111C114.587 104.328 114.414 104.6 114.199 104.712C113.984 104.823 113.809 104.73 113.808 104.513C113.807 104.292 113.981 104.019 114.196 103.908Z" fill="#002266"/>
<path d="M114.206 107.07C114.421 106.959 114.595 107.048 114.596 107.269C114.597 107.49 114.423 107.758 114.208 107.869C113.993 107.98 113.819 107.891 113.818 107.67C113.817 107.45 113.991 107.181 114.206 107.07Z" fill="#002266"/>
<path d="M114.215 110.223C114.43 110.112 114.605 110.206 114.606 110.426C114.606 110.643 114.433 110.916 114.218 111.027C114.003 111.138 113.829 111.045 113.828 110.828C113.827 110.607 114 110.335 114.215 110.223Z" fill="#002266"/>
<path d="M196.553 50.8172L202.404 47.7781C196.602 50.7916 193 57.1911 192.97 66.2769C192.913 84.57 207.357 106.93 225.168 116.119L219.317 119.158C201.506 109.969 187.061 87.609 187.119 69.316C187.148 60.2297 190.751 53.8302 196.553 50.8172Z" fill="#002266"/>
<path d="M248.146 118.114L242.295 121.153C236.417 124.206 228.281 123.783 219.317 119.158L225.168 116.119C234.133 120.744 242.269 121.166 248.146 118.114Z" fill="#002266"/>
<path d="M202.402 47.7791C208.28 44.7259 216.415 45.1477 225.379 49.7722L219.528 52.8113C210.564 48.1862 202.428 47.7645 196.551 50.8182C198.307 49.9063 200.647 48.691 202.402 47.7791Z" fill="#002266"/>
<path d="M196.345 50.497L202.197 47.4579C208.127 44.3781 216.336 44.8042 225.381 49.4705L219.529 52.5096C210.484 47.8433 202.276 47.4172 196.345 50.497Z" fill="#002266"/>
<path d="M257.581 99.6123C257.552 108.699 253.95 115.099 248.148 118.113L242.296 121.152C248.098 118.138 251.7 111.738 251.729 102.651C251.787 84.3621 237.342 62.0025 219.527 52.8114L225.379 49.7723C243.193 58.9634 257.638 81.323 257.581 99.6123Z" fill="#002266"/>
<path d="M219.529 52.5102C237.506 61.7854 252.082 84.3464 252.023 102.803C251.965 121.263 237.293 128.734 219.317 119.459C201.343 110.185 186.767 87.6243 186.826 69.1646C186.885 50.7081 201.555 43.2366 219.529 52.5102ZM219.317 119.158C237.132 128.349 251.671 120.944 251.729 102.651C251.787 84.3621 237.342 62.0025 219.527 52.8114C201.716 43.622 187.177 51.0267 187.119 69.316C187.061 87.6086 201.507 109.968 219.317 119.158Z" fill="#002266"/>
<path d="M251.726 102.651C251.671 120.943 237.131 128.348 219.319 119.157C215.08 116.971 211.028 114.033 207.319 110.585C195.452 99.5499 187.072 83.2521 187.116 69.3182C187.177 51.0267 201.718 43.622 219.529 52.8125C223.111 54.6574 226.553 57.0365 229.769 59.8117C242.561 70.8266 251.776 88.0346 251.726 102.651Z" fill="#1C3E76"/>
<path d="M249.95 101.058C249.889 119.355 235.348 126.759 217.537 117.565C213.966 115.724 210.529 113.35 207.319 110.585C195.452 99.5499 187.072 83.2521 187.116 69.3182C187.177 51.0267 201.718 43.622 219.529 52.8125C223.111 54.6574 226.553 57.0365 229.769 59.8117C241.631 70.8461 249.994 87.1347 249.95 101.058Z" fill="white"/>
<path d="M248.355 118.434L242.503 121.473C248.358 118.432 251.993 111.973 252.023 102.803C252.081 84.3464 237.506 61.7853 219.529 52.5101L225.38 49.4711C243.357 58.7463 257.933 81.3073 257.874 99.7638C257.845 108.934 254.21 115.393 248.355 118.434Z" fill="#002266"/>
<path d="M244.969 99.1666C244.952 104.138 243.585 108.095 241.211 110.85C236.711 116.108 228.586 116.989 219.342 112.22C205.256 104.949 193.831 87.2709 193.876 72.8028C193.897 66.2785 196.244 61.5101 200.113 58.9036C204.818 55.7283 211.776 55.7576 219.508 59.7493C233.595 67.0205 245.019 84.7035 244.969 99.1666Z" fill="#002266"/>
<path d="M244.968 99.1666C244.952 104.137 243.585 108.095 241.211 110.85C236.506 114.036 229.548 114.006 221.811 110.009C207.724 102.743 196.3 85.0601 196.35 70.5969C196.366 65.6157 197.739 61.6588 200.114 58.9036C204.819 55.7283 211.776 55.7576 219.508 59.7493C233.595 67.0205 245.019 84.7035 244.968 99.1666Z" fill="white"/>
<path d="M220.602 62.1795C220.86 62.313 221.068 62.6354 221.068 62.9003L221.056 66.5337C221.056 66.7991 220.846 66.9061 220.587 66.7725C220.329 66.639 220.121 66.3166 220.122 66.0512L220.133 62.4177C220.134 62.1529 220.343 62.0459 220.602 62.1795Z" fill="#002266"/>
<path d="M209.648 59.5454C209.81 59.6289 209.967 59.7961 210.053 59.9942L211.811 64.0516C211.939 64.3496 211.861 64.6036 211.638 64.6215C211.564 64.6269 211.483 64.6063 211.404 64.5651C211.242 64.4815 211.084 64.3132 210.998 64.1129L209.24 60.0556C209.112 59.7603 209.19 59.5063 209.413 59.4884C209.487 59.4835 209.568 59.5046 209.648 59.5454Z" fill="#002266"/>
<path d="M201.611 63.639C201.69 63.6797 201.77 63.7421 201.844 63.8235L204.9 67.2192C205.126 67.4683 205.202 67.8016 205.072 67.9666C204.985 68.0752 204.827 68.0801 204.665 67.9965C204.585 67.9552 204.504 67.8928 204.43 67.8108L201.373 64.4152C201.151 64.1676 201.075 63.8344 201.205 63.6694C201.292 63.5603 201.449 63.5554 201.611 63.639Z" fill="#002266"/>
<path d="M202.178 75.1889C202.437 75.3225 202.645 75.6449 202.644 75.9103C202.644 76.1757 202.434 76.2826 202.175 76.1491L198.637 74.3237C198.378 74.1902 198.17 73.8678 198.171 73.6024C198.172 73.3369 198.381 73.23 198.64 73.3635L202.178 75.1889Z" fill="#002266"/>
<path d="M204.607 85.8787C204.769 85.9623 204.926 86.1306 205.013 86.3308C205.141 86.6261 205.063 86.8801 204.837 86.8964L201.769 87.1342C201.695 87.1401 201.616 87.1195 201.537 87.0788C201.375 86.9952 201.218 86.8275 201.131 86.6272C201.003 86.3319 201.081 86.0779 201.304 86.06L204.372 85.8222C204.447 85.8168 204.527 85.838 204.607 85.8787Z" fill="#002266"/>
<path d="M211.303 96.2448C211.383 96.2861 211.464 96.3485 211.538 96.4304C211.76 96.6779 211.836 97.0112 211.706 97.1735L209.928 99.4065C209.841 99.5173 209.684 99.5227 209.521 99.4391C209.441 99.3984 209.361 99.336 209.287 99.254C209.065 99.0065 208.989 98.6732 209.119 98.5082L210.897 96.2752C210.984 96.1661 211.141 96.1612 211.303 96.2448Z" fill="#002266"/>
<path d="M220.471 103.502C220.729 103.636 220.937 103.958 220.937 104.223L220.925 107.857C220.924 108.122 220.715 108.229 220.456 108.096C220.197 107.962 219.99 107.64 219.99 107.374L220.002 103.741C220.002 103.476 220.213 103.369 220.471 103.502Z" fill="#002266"/>
<path d="M229.655 105.713C229.817 105.796 229.973 105.963 230.06 106.162L231.821 110.22C231.949 110.518 231.871 110.772 231.645 110.788C231.571 110.794 231.492 110.774 231.413 110.733C231.251 110.65 231.094 110.482 231.008 110.281L229.247 106.223C229.118 105.928 229.197 105.674 229.423 105.657C229.495 105.652 229.576 105.673 229.655 105.713Z" fill="#002266"/>
<path d="M236.396 102.28C236.475 102.321 236.555 102.383 236.628 102.464L239.685 105.863C239.909 106.112 239.986 106.445 239.856 106.607C239.768 106.717 239.611 106.723 239.448 106.639C239.369 106.598 239.289 106.536 239.215 106.454L236.158 103.056C235.935 102.808 235.859 102.475 235.989 102.313C236.077 102.203 236.234 102.197 236.396 102.28Z" fill="#002266"/>
<path d="M242.42 95.9518C242.678 96.0853 242.887 96.4078 242.886 96.6732C242.885 96.9386 242.676 97.0455 242.417 96.912L238.878 95.0866C238.62 94.9531 238.412 94.6312 238.413 94.3658C238.413 94.1004 238.623 93.9934 238.882 94.127L242.42 95.9518Z" fill="#002266"/>
<path d="M239.524 83.2002C239.686 83.2838 239.843 83.4509 239.929 83.649C240.058 83.947 239.979 84.2011 239.754 84.2173L236.685 84.4524C236.612 84.4584 236.531 84.4377 236.452 84.3965C236.291 84.3134 236.134 84.1462 236.048 83.9481C235.919 83.6501 235.997 83.3961 236.22 83.3782L239.289 83.1432C239.363 83.1377 239.444 83.1589 239.524 83.2002Z" fill="#002266"/>
<path d="M231.538 70.8397C231.617 70.8804 231.698 70.9429 231.771 71.0243C231.996 71.2734 232.072 71.6067 231.942 71.7684L230.162 73.9999C230.075 74.1106 229.917 74.116 229.756 74.033C229.677 73.9923 229.597 73.9304 229.524 73.849C229.298 73.5998 229.223 73.2666 229.353 73.1015L231.133 70.8701C231.22 70.7616 231.377 70.7567 231.538 70.8397Z" fill="#002266"/>
<path d="M216.936 84.1667L218.887 83.1538C218.504 83.3525 218.267 83.7759 218.265 84.3783C218.261 85.5904 219.212 87.0624 220.392 87.6715L218.442 88.6843C217.262 88.0753 216.311 86.6032 216.314 85.3912C216.316 84.7892 216.553 84.3659 216.936 84.1667Z" fill="#002266"/>
<path d="M221.911 87.8051L219.961 88.8179C219.573 89.0193 219.035 88.9905 218.442 88.6839L220.392 87.671C220.986 87.9782 221.523 88.0065 221.911 87.8051Z" fill="#002266"/>
<path d="M215.375 81.7666L217.325 80.7538C218.114 80.344 219.206 80.4015 220.412 81.0236L218.462 82.0364C217.257 81.4144 216.164 81.3568 215.375 81.7666Z" fill="#002266"/>
<path d="M223.471 90.2054L221.521 91.2182C222.299 90.8144 222.78 89.9541 222.784 88.7301C222.792 86.2696 220.862 83.2745 218.462 82.0364L220.412 81.0236C222.812 82.2617 224.742 85.2568 224.734 87.7172C224.731 88.9412 224.249 89.801 223.471 90.2054Z" fill="#002266"/>
<path d="M218.463 82.0363C220.862 83.2744 222.793 86.2695 222.785 88.73C222.777 91.1942 220.834 92.1832 218.435 90.9451C216.038 89.7092 214.102 86.7173 214.109 84.2536C214.117 81.7931 216.066 80.8004 218.463 82.0363ZM218.441 88.6844C219.621 89.2934 220.579 88.806 220.583 87.5939C220.587 86.3819 219.635 84.9098 218.455 84.3008C217.275 83.6918 216.318 84.1792 216.314 85.3913C216.31 86.6033 217.261 88.0754 218.441 88.6844Z" fill="white"/>
<g opacity="0.52">
<path d="M171.891 156.884C178.217 160.147 179.13 168.488 173.5 177.274C166.917 187.549 153.871 194.546 144.362 192.901C142.983 192.662 141.755 192.255 140.682 191.701C134.357 188.438 133.44 180.098 139.071 171.311C145.653 161.033 158.702 154.037 168.208 155.684C169.587 155.922 170.817 156.331 171.891 156.884Z" fill="#1C3E76"/>
<path d="M180.369 169.168C184.934 171.523 185.623 177.492 181.601 183.771C176.886 191.13 167.488 196.127 160.608 194.937C159.6 194.763 158.701 194.464 157.917 194.06C153.353 191.705 152.663 185.736 156.685 179.457C161.4 172.098 170.799 167.1 177.678 168.29C178.687 168.465 179.585 168.764 180.369 169.168Z" fill="#1C3E76"/>
</g>
<path d="M170.983 103.766L174.884 101.74C174.806 101.781 174.731 101.828 174.66 101.881L170.758 103.906C170.829 103.854 170.905 103.807 170.983 103.766Z" fill="white"/>
<path d="M172.099 105.482L176 103.457C175.817 103.552 175.669 103.704 175.573 103.915C175.555 103.953 175.534 103.993 175.519 104.033C175.208 104.93 175.788 106.342 176.812 107.186C176.998 107.34 177.187 107.466 177.373 107.561C177.595 107.676 177.812 107.748 178.014 107.777C178.291 107.818 178.544 107.784 178.752 107.676L174.851 109.702C174.642 109.81 174.39 109.844 174.113 109.802C173.91 109.773 173.694 109.701 173.472 109.587C173.286 109.491 173.097 109.366 172.911 109.212C171.887 108.367 171.307 106.956 171.618 106.059C171.632 106.019 171.654 105.979 171.672 105.941C171.769 105.73 171.916 105.577 172.099 105.482Z" fill="#002266"/>
<path d="M177.306 103.541C176.006 104.217 174.706 104.892 173.405 105.567C173.272 105.503 173.142 105.455 173.015 105.421L176.916 103.395C177.043 103.429 177.173 103.478 177.306 103.541Z" fill="white"/>
<path d="M177.306 103.541C177.309 103.543 177.311 103.544 177.315 103.545L173.413 105.571C173.41 105.569 173.408 105.568 173.405 105.567C174.705 104.892 176.006 104.217 177.306 103.541Z" fill="white"/>
<path d="M173.414 105.571L177.315 103.546C177.334 103.555 177.354 103.565 177.373 103.575L173.472 105.601C173.452 105.591 173.433 105.581 173.414 105.571Z" fill="white"/>
<path d="M174.852 109.7C175.067 109.586 175.239 109.394 175.334 109.122C175.643 108.232 175.062 106.822 174.039 105.976C173.955 105.906 173.873 105.842 173.784 105.788C173.679 105.718 173.574 105.654 173.474 105.6C173.452 105.59 173.435 105.581 173.414 105.57C173.403 105.565 173.392 105.561 173.38 105.556C173.336 105.531 173.286 105.516 173.242 105.496C173.231 105.492 173.22 105.487 173.214 105.487H173.208C173.175 105.472 173.148 105.462 173.114 105.452C173.081 105.437 173.048 105.427 173.015 105.422C172.998 105.417 172.976 105.412 172.959 105.407C172.915 105.398 172.871 105.388 172.832 105.382C172.594 105.348 172.366 105.368 172.173 105.447C172.145 105.456 172.118 105.471 172.09 105.491C172.051 105.506 172.012 105.531 171.98 105.555C171.852 105.649 171.747 105.778 171.67 105.941C171.653 105.981 171.631 106.02 171.62 106.06C171.31 106.955 171.885 108.365 172.909 109.211C173.098 109.364 173.286 109.492 173.474 109.587C173.695 109.701 173.911 109.775 174.11 109.805C174.238 109.824 174.359 109.824 174.47 109.809C174.503 109.809 174.541 109.805 174.575 109.795C174.591 109.795 174.603 109.79 174.619 109.785C174.658 109.78 174.691 109.766 174.73 109.75C174.769 109.741 174.801 109.725 174.84 109.706C174.846 109.705 174.846 109.705 174.852 109.7Z" fill="white"/>
<path d="M176.916 108.632C176.85 108.251 176.728 107.86 176.568 107.47C176.296 106.812 175.903 106.159 175.417 105.575C175.228 105.348 175.013 105.125 174.791 104.917C174.775 104.903 174.763 104.888 174.747 104.878C174.747 104.873 174.741 104.873 174.741 104.873C174.658 104.798 174.575 104.73 174.492 104.66L174.487 104.655C174.382 104.566 174.271 104.482 174.165 104.408C173.938 104.244 173.712 104.106 173.49 103.987C173.302 103.893 173.119 103.814 172.937 103.75C172.571 103.621 172.222 103.557 171.896 103.557C171.813 103.557 171.73 103.562 171.647 103.572C171.592 103.577 171.537 103.586 171.481 103.597C171.465 103.597 171.448 103.602 171.431 103.607C171.387 103.616 171.343 103.626 171.304 103.641C171.276 103.646 171.254 103.656 171.226 103.666C171.221 103.661 171.221 103.661 171.221 103.666C171.204 103.671 171.193 103.676 171.182 103.676C171.121 103.7 171.06 103.725 171.004 103.755C170.916 103.8 170.833 103.849 170.755 103.909C170.473 104.117 170.252 104.423 170.108 104.814C169.549 106.437 170.601 108.999 172.455 110.527C172.787 110.804 173.13 111.032 173.463 111.2C174.476 111.724 175.438 111.768 176.103 111.338C176.114 111.328 176.125 111.323 176.136 111.318C176.208 111.269 176.275 111.215 176.341 111.15C176.346 111.145 176.352 111.14 176.357 111.136C176.413 111.081 176.462 111.026 176.512 110.962C176.523 110.948 176.534 110.937 176.54 110.923C176.595 110.853 176.645 110.779 176.69 110.695C176.69 110.695 176.695 110.69 176.695 110.686C176.739 110.601 176.778 110.512 176.817 110.414C176.822 110.399 176.827 110.379 176.833 110.364C176.855 110.3 176.872 110.236 176.888 110.172C177.016 109.705 177.016 109.181 176.916 108.632Z" fill="#FF6E80"/>
<path d="M174.841 109.705C174.802 109.725 174.769 109.74 174.73 109.75C174.692 109.764 174.659 109.78 174.62 109.785C174.604 109.789 174.592 109.794 174.576 109.794C174.542 109.804 174.504 109.809 174.471 109.809C174.36 109.824 174.238 109.824 174.111 109.804C173.912 109.774 173.695 109.7 173.474 109.586C173.286 109.493 173.098 109.364 172.91 109.21C171.886 108.365 171.31 106.955 171.621 106.059C171.632 106.02 171.654 105.98 171.67 105.941C171.748 105.777 171.853 105.648 171.98 105.555C172.014 105.53 172.052 105.505 172.091 105.491C172.119 105.471 172.146 105.456 172.174 105.446C172.368 105.367 172.595 105.347 172.832 105.382C172.871 105.387 172.916 105.397 172.96 105.407C172.976 105.412 172.999 105.417 173.015 105.422C173.049 105.426 173.081 105.436 173.115 105.451C173.148 105.461 173.176 105.471 173.209 105.486H173.214C173.22 105.486 173.231 105.491 173.242 105.496C173.287 105.516 173.337 105.531 173.381 105.555C173.392 105.56 173.403 105.565 173.414 105.57C173.436 105.58 173.453 105.589 173.475 105.6C173.575 105.654 173.68 105.719 173.785 105.787C173.873 105.842 173.957 105.906 174.039 105.975C175.063 106.821 175.645 108.231 175.334 109.121C175.24 109.393 175.069 109.586 174.853 109.7C174.846 109.705 174.846 109.705 174.841 109.705Z" fill="#002266"/>
<path d="M179.866 109.391L175.965 111.417C176.345 111.219 176.643 110.884 176.818 110.413L180.719 108.387C180.544 108.858 180.246 109.194 179.866 109.391Z" fill="white"/>
<path d="M176.832 110.363L180.734 108.337L180.719 108.388L176.818 110.413L176.832 110.363Z" fill="white"/>
<path d="M158.8 69.5523L162.701 67.5266L176.84 101.722L172.938 103.749L158.8 69.5523Z" fill="#E24B65"/>
<path d="M170.983 103.766L174.884 101.74C175.412 101.466 176.098 101.46 176.84 101.723C177.021 101.786 177.205 101.866 177.391 101.962C177.722 102.133 178.06 102.356 178.395 102.634C178.73 102.909 179.044 103.224 179.319 103.551L175.418 105.577C175.143 105.249 174.829 104.935 174.494 104.66C174.158 104.382 173.822 104.159 173.49 103.987C173.304 103.892 173.12 103.812 172.939 103.749C172.197 103.486 171.511 103.492 170.983 103.766Z" fill="#E24B65"/>
<path d="M175.418 105.576L179.319 103.551C180.578 105.058 181.198 107.01 180.734 108.337L176.833 110.363C177.297 109.036 176.676 107.084 175.418 105.576Z" fill="white"/>
<path d="M152.544 59.9385L160.928 69.389L158.8 69.5524L172.939 103.749C172.087 103.447 171.308 103.499 170.758 103.907L155.391 69.8183L153.146 69.9904L152.544 59.9385Z" fill="#A71B2C"/>
<path d="M152.544 59.9388L156.446 57.9126L164.829 67.3636L160.929 69.3893L152.544 59.9388Z" fill="#E24B65"/>
<path d="M175.418 105.576L179.319 103.551L198.624 105.831L194.723 107.856L175.418 105.576Z" fill="#E24B65"/>
<path d="M203.889 112.026L207.789 110L201.515 114.988L197.614 117.014L203.889 112.026Z" fill="#E24B65"/>
<path d="M193.871 105.16L197.772 103.134L207.789 109.999L203.888 112.026L193.871 105.16Z" fill="#E24B65"/>
<path d="M193.871 105.16L203.888 112.026L197.615 117.014L196.69 114.09L176.819 110.413C177.298 109.036 176.678 107.083 175.418 105.576L194.724 107.856L193.871 105.16Z" fill="#A71B2C"/>
<path d="M163.619 88.2277C163.642 88.1599 163.659 88.0948 163.671 88.0247C163.74 87.6459 163.961 86.3231 163.891 85.5095C163.809 84.552 163.836 83.6623 163.452 83.2786C163.067 82.8948 162.882 83.5576 162.82 84.3126C162.758 85.0676 162.398 85.3472 162.398 85.3472L160.729 81.6459C160.729 81.6459 160.244 83.2075 160.183 83.8702C160.121 84.533 159.894 85.9144 160.183 86.7242C160.471 87.5341 160.512 88.3629 160.512 88.3629L160.04 89.506L163.006 90.02L163.619 88.2277Z" fill="white"/>
<path d="M160.04 89.2297C160.04 89.2297 160.228 88.6864 160.303 88.6202C160.377 88.5539 161.124 88.4367 162.177 88.745C163.229 89.0533 163.509 89.6634 163.509 89.8691C163.509 90.0748 163.304 90.8608 163.304 90.8608L160.04 89.2297Z" fill="white"/>
<path d="M156.254 95.398C156.254 95.398 159.102 89.5619 159.725 89.2536C160.348 88.9453 163.159 89.3861 163.505 90.7962C163.85 92.2069 159.581 104.178 158.801 105.16C158.227 105.883 150.839 103.188 150.839 103.188C150.839 103.188 155.832 96.1232 156.254 95.398Z" fill="#EFB44B"/>
<path d="M182.07 113.175C182.07 113.175 181.761 112.345 181.626 111.967C181.49 111.589 181.428 110.163 181.847 109.713C182.266 109.264 182.972 111.552 182.972 111.552L186.8 112.261C186.8 112.261 186.29 113.337 185.739 113.704C185.188 114.071 184.893 114.255 184.893 114.255L184.671 114.835L181.966 113.741L182.07 113.175Z" fill="white"/>
<path d="M181.424 114.13C181.424 114.13 181.613 113.586 181.687 113.521C181.761 113.455 182.509 113.337 183.561 113.645C184.613 113.954 184.893 114.564 184.893 114.77C184.893 114.975 184.688 115.761 184.688 115.761L181.424 114.13Z" fill="white"/>
<path d="M163.012 171.315C163.012 171.315 163.643 173.099 164.519 173.6C165.394 174.101 168.197 174.195 169.668 172.254C171.139 170.313 171.174 168.685 172.75 167.026C174.327 165.367 174.852 163.145 174.082 162.111C173.312 161.078 170.929 160.703 167.846 164.021C164.763 167.339 163.012 171.315 163.012 171.315Z" fill="#002266"/>
<path d="M150.53 181.613C150.53 181.613 153.893 182.406 155.994 182.406C158.096 182.406 159.423 184.287 158.262 185.432C156.999 186.68 155.06 187.165 151.09 187.541C147.121 187.916 145.719 188.584 143.945 188.166C142.17 187.749 143.945 182.114 143.945 182.114L150.53 181.613Z" fill="#002266"/>
<path d="M147.984 131.235C147.984 131.235 146.398 137.375 149.367 141.291L155.995 153.542C155.995 153.542 160.665 169.635 162.627 171.639C162.627 171.639 166.363 171.806 168.044 169.134C169.726 166.463 169.273 165.986 168.044 162.707C164.775 153.983 165.055 149.768 164.681 147.514C164.308 145.26 160.852 131.236 160.852 131.236H147.984V131.235Z" fill="#1C3E76"/>
<path d="M152.258 133.155C152.258 133.155 151.612 138.725 154.04 143.149L151.324 159.493C151.324 159.493 144.038 170.386 143.291 183.492C143.291 183.492 145.109 185.031 148.708 183.825C150.95 183.074 151.299 182.507 152.725 179.485C155.995 172.556 160.572 165.627 163 161.871C165.429 158.114 168.698 131.568 168.698 131.568L152.258 133.155Z" fill="white"/>
<path d="M148.205 126.988L150.046 128.924L153.078 126.563L150.241 124.24L148.205 126.988Z" fill="white"/>
<path d="M151.052 102.444C151.052 102.444 147.255 103.188 147.326 109.643C147.369 113.48 151.26 114.893 153.393 116.419C155.526 117.944 165.276 121.372 165.89 120.925C166.504 120.479 165.865 117.441 164.705 116.859C163.545 116.277 159.123 109.925 158.8 109.902C158.476 109.88 154.869 108.643 154.869 108.643L151.052 102.444Z" fill="#EFB44B"/>
<path d="M150.838 135.815C150.838 135.815 153.632 138.352 158.246 138.177C162.86 138.003 153.307 128.963 153.307 128.963L150.838 135.815Z" fill="white"/>
<path d="M170.751 115.874L170.148 118.772L169.976 119.578L169.428 122.2C169.422 122.235 169.417 122.264 169.406 122.299C169.102 123.812 168.897 125.335 168.803 126.869C168.758 127.443 168.737 128.021 168.731 128.6C168.72 129.372 168.742 130.148 168.781 130.925C168.925 133.368 169.063 135.984 169.03 136.267C168.958 136.861 168.659 138.102 167.674 139.21C166.822 140.164 165.46 141.02 163.285 141.267C163.102 141.287 162.92 141.307 162.726 141.317C157.545 141.644 153.311 138.794 153.311 138.794L153.355 137.306L153.488 133.037L153.538 131.34L152.907 133.091L152.392 134.521L151.695 136.445L151.362 137.37C151.362 137.37 148.816 135.491 147.582 134.111C147.261 133.75 147.029 133.418 146.956 133.171C146.619 131.969 146.967 129.743 148.5 125.296C149.757 121.666 149.812 118.015 149.325 113.682C149.22 112.698 149.082 111.684 148.927 110.625C148.174 105.58 149.602 103.102 151.036 102.449C151.041 102.449 151.047 102.444 151.052 102.444C151.191 102.385 151.324 102.34 151.456 102.31C151.511 102.301 151.561 102.291 151.611 102.285C153.205 102.098 156.548 103.448 156.548 103.448H156.554C156.648 103.473 157.6 103.705 158.768 104.041C158.94 104.096 159.116 104.145 159.294 104.2C160.888 104.684 162.686 105.323 163.218 105.876C163.528 106.198 164.159 106.762 164.889 107.4C165.244 107.702 165.615 108.023 165.991 108.34C167.391 109.536 168.77 110.669 168.77 110.669L168.892 110.996L170.751 115.874Z" fill="#FFB600"/>
<path d="M170.103 95.581C170.103 95.581 169.72 99.8777 169.101 102.126C168.483 104.374 165.557 103.835 165.557 103.835L164.852 107.593C164.852 107.593 160.053 107.461 158.617 104.669L159.241 101.998C159.241 101.998 155.895 98.1642 157.494 94.5584C159.092 90.9527 162.704 90.2427 165.287 90.506C167.87 90.7692 170.379 92.3829 170.103 95.581Z" fill="white"/>
<path d="M170.108 95.9609C170.108 95.9609 169.844 97.1453 168.924 97.3358C168.003 97.5263 168.026 97.4699 168.026 97.4699L167.842 99.0287L166.874 99.2258C166.874 99.2258 166.934 97.8628 166.269 97.6832C165.604 97.5035 165.135 99.4011 165.558 99.9661C165.981 100.532 166.499 100.435 166.499 100.435C166.499 100.435 165.212 103.486 163.337 103.874C161.462 104.261 159.426 103.146 158.619 102.389C158.111 101.914 157.928 101.407 157.403 100.097C157.091 99.3197 156.271 98.0186 156.252 96.9325C156.202 94.0172 157.577 93.8657 157.577 93.8657C157.577 93.8657 157.151 92.1516 159.465 90.4239C161.778 88.6962 165.427 88.7874 167.369 90.0412C169.312 91.2951 169.702 90.457 171.709 91.1822C172.411 91.4357 173.241 93.0168 172.7 94.1453C172.487 94.5849 171.852 96.298 170.108 95.9609Z" fill="#002266"/>
<path d="M166.026 108.353C166.026 108.353 165.823 106.321 165.696 106.023C165.57 105.725 164.972 105.521 162.201 104.822C159.43 104.123 158.766 102.924 158.268 102.715C157.77 102.506 156.548 103.445 156.548 103.445C156.548 103.445 157.439 105.998 161.151 107.049C164.863 108.1 166.026 108.353 166.026 108.353Z" fill="white"/>
<path d="M153.986 129.931C153.982 129.93 153.978 129.93 153.974 129.929C153.899 129.916 153.85 129.851 153.865 129.784C153.881 129.711 155.476 122.394 155.69 115.671C155.906 108.909 157.433 106.206 157.498 106.094C157.533 106.033 157.617 106.01 157.684 106.042C157.752 106.073 157.779 106.147 157.744 106.208C157.728 106.235 156.18 108.984 155.966 115.679C155.751 122.422 154.152 129.759 154.136 129.833C154.122 129.895 154.057 129.937 153.986 129.931Z" fill="#EFB44B"/>
<path d="M170.44 118.935L170.208 121.591C170.169 122.017 170.142 122.442 170.125 122.867C169.881 122.68 169.643 122.492 169.405 122.299C169.1 123.812 168.896 125.335 168.802 126.869C166.837 125.073 165.757 122.877 165.165 120.904C164.656 119.207 164.507 117.673 164.468 116.699C164.463 116.531 164.457 116.383 164.457 116.249C164.457 116.249 164.462 116.244 164.457 116.244C164.457 115.834 164.473 115.596 164.473 115.596L170.147 118.772L170.44 118.935Z" fill="#002266"/>
<path d="M184.81 115.597C184.465 114.187 181.654 113.745 181.03 114.054C180.534 114.3 178.63 118.045 177.873 119.564C176.462 118.001 172.167 113.277 170.318 111.843C169.87 111.497 169.388 111.205 168.89 110.997C166.903 110.147 164.728 110.522 164.18 113.248C163.975 114.247 164.097 115.256 164.457 116.245C164.462 116.245 164.457 116.25 164.457 116.25C164.535 116.458 164.623 116.66 164.722 116.868C165.026 117.526 165.436 118.174 165.923 118.812C166.858 120.038 168.082 121.211 169.405 122.299C169.643 122.492 169.881 122.68 170.124 122.868L170.13 122.873C173.711 125.648 175.039 127.364 177.436 127.933C179.203 128.352 180.628 127.629 181.349 126.285C181.351 126.282 181.355 126.281 181.357 126.277C182.138 125.295 185.156 117.007 184.81 115.597Z" fill="#FFB600"/>
</svg>
