<svg width="196" height="172" viewBox="0 0 196 172" fill="none" xmlns="http://www.w3.org/2000/svg">
<path d="M180.417 79.8996C195.892 64.1479 200.613 36.7802 185.675 19.079C172.55 3.5273 148.808 -1.81926 130.756 7.19102C123.468 10.8287 117.469 16.7059 113.306 23.849C108.235 32.5504 106.219 42.7678 100.291 50.9765C86.8214 69.6257 61.8248 57.3682 44.5097 66.9484C25.1156 77.679 16.4069 103.504 22.3113 124.843C27.9001 145.04 45.899 158.866 65.7149 161.454C89.1199 164.512 109.852 151.369 120.38 129.983C125.738 119.099 130.378 107.468 140.829 100.799C151.057 94.2716 163.405 92.3992 173.526 85.6294C176.007 83.9707 178.312 82.0425 180.417 79.8996Z" fill="#E881FF"/>
<path d="M93.2734 158.562L93.0031 155.192C92.9687 154.761 92.501 154.474 92.0838 154.51L90.2062 154.67L90.1979 154.671C89.8808 153.715 89.392 152.636 88.7554 151.733L89.9721 150.237C90.2429 149.907 90.2039 149.414 89.884 149.134L87.385 146.948C87.0656 146.669 86.5887 146.709 86.3184 147.039L85.104 148.523L85.1049 148.529C84.1682 148.034 83.2994 147.673 82.0951 147.512L81.9395 145.574C81.905 145.143 81.5085 144.789 81.0913 144.825L77.8263 145.104C77.4091 145.139 77.2673 145.54 77.3017 145.97L77.4573 147.909L77.4582 147.918C76.2948 148.265 75.4158 148.756 74.5415 149.413L73.0215 148.164C72.702 147.884 72.2238 147.926 71.953 148.256L69.8354 150.838C69.5646 151.168 69.6045 151.664 69.924 151.944L71.3619 153.206L71.3692 153.222C70.8896 154.189 70.5436 155.122 70.3866 156.364L68.5095 156.525C68.0923 156.561 67.8853 156.887 67.9197 157.318L68.19 160.688C68.2245 161.119 68.476 161.348 68.8932 161.313L70.7708 161.152L70.7795 161.152C71.1159 162.353 71.59 163.224 72.2266 164.127L71.0145 165.66C70.7437 165.99 70.7864 166.484 71.1058 166.763L73.6112 168.949C73.9307 169.228 74.4208 169.186 74.6912 168.857L75.9317 167.371L75.9831 167.36C76.9199 167.855 77.8938 168.207 79.0981 168.368L79.2537 170.306C79.2881 170.737 79.4684 171.033 79.8856 170.997L83.1507 170.718C83.5678 170.682 83.9258 170.34 83.8914 169.909L83.7358 167.971L83.7349 167.962C84.8984 167.615 85.6722 167.132 86.5465 166.475L87.9614 167.733C88.2813 168.012 88.7591 167.969 89.0299 167.639L91.1471 165.055C91.4178 164.726 91.3775 164.224 91.058 163.945L89.6192 162.673L89.6105 162.638C90.0901 161.671 90.4334 160.701 90.5903 159.458L92.4675 159.297C92.8851 159.262 93.3083 158.993 93.2734 158.562ZM78.383 153.573C78.9071 153.301 79.4891 153.126 80.1096 153.073C80.8807 153.007 81.6232 153.136 82.2924 153.421C82.3626 153.451 82.4324 153.483 82.5012 153.516C82.5356 153.532 82.5696 153.549 82.6036 153.567C82.6715 153.602 82.7385 153.638 82.8046 153.677C82.8707 153.715 82.9359 153.755 82.9997 153.796C83.0318 153.817 83.0635 153.838 83.0951 153.86C83.2213 153.945 83.3434 154.038 83.4605 154.135C83.4898 154.16 83.5187 154.185 83.5476 154.21C83.605 154.26 83.6615 154.312 83.717 154.365C83.7445 154.392 83.7721 154.419 83.7987 154.446C83.8529 154.5 83.9052 154.556 83.957 154.613C83.9827 154.642 84.008 154.671 84.0332 154.7C84.0686 154.741 84.103 154.784 84.137 154.826C84.1755 154.874 84.2131 154.922 84.2499 154.972C84.2957 155.034 84.3407 155.097 84.3839 155.162C84.4412 155.248 84.4963 155.336 84.5486 155.426C84.5748 155.471 84.6005 155.516 84.6253 155.562C84.6625 155.632 84.6978 155.701 84.7318 155.772C84.7827 155.879 84.83 155.988 84.8736 156.099C84.9025 156.173 84.93 156.247 84.9553 156.324C85.0829 156.703 85.1668 157.105 85.2004 157.524C85.2609 158.278 85.1517 159.006 84.9052 159.668C84.8644 159.778 84.8194 159.887 84.7712 159.993C84.7391 160.064 84.7051 160.134 84.6693 160.204C84.634 160.273 84.5968 160.341 84.5583 160.408C84.4619 160.576 84.3559 160.737 84.2407 160.892C84.1948 160.953 84.1471 161.014 84.0984 161.074C84.0254 161.163 83.9488 161.25 83.8698 161.333C83.8171 161.389 83.7629 161.443 83.7074 161.496C83.6798 161.523 83.6518 161.549 83.6234 161.575C83.5669 161.627 83.5091 161.677 83.4499 161.726C83.3613 161.8 83.27 161.87 83.1764 161.937C83.1139 161.981 83.0501 162.024 82.9854 162.066C82.3704 162.46 81.6586 162.714 80.8875 162.78C80.2386 162.835 79.6089 162.752 79.0269 162.555C78.954 162.53 78.8819 162.504 78.8108 162.475C78.5969 162.39 78.3904 162.29 78.1925 162.175C78.1264 162.137 78.0613 162.097 77.9975 162.056C77.9654 162.035 77.9337 162.014 77.902 161.992C77.8075 161.928 77.7152 161.86 77.6253 161.789C76.6078 160.982 75.9111 159.752 75.7968 158.328C75.7422 157.65 75.8252 156.993 76.0217 156.386C76.1057 156.126 76.2108 155.875 76.3347 155.635C76.376 155.556 76.4196 155.477 76.4646 155.4C76.5779 155.207 76.7041 155.023 76.8423 154.848C76.98 154.674 77.1296 154.509 77.2898 154.356C77.3173 154.329 77.3453 154.303 77.3738 154.277C77.4302 154.225 77.488 154.175 77.5473 154.126C77.6065 154.077 77.6666 154.029 77.7276 153.983C77.8506 153.891 77.9777 153.805 78.1095 153.725C78.1522 153.699 78.1958 153.674 78.2398 153.649C78.2871 153.623 78.3348 153.597 78.383 153.573Z" stroke="#440CA0" stroke-miterlimit="10" stroke-linecap="round" stroke-linejoin="round"/>
<path d="M142.358 14.7401L142.088 11.3697C142.054 10.9386 141.586 10.6519 141.169 10.6875L139.291 10.8481L139.283 10.849C138.966 9.89246 138.477 8.81415 137.84 7.91113L139.057 6.41495C139.328 6.0852 139.288 5.59105 138.969 5.31199L136.47 3.12599C136.15 2.84646 135.674 2.88721 135.403 3.21696L134.188 4.70035L134.189 4.70651C133.253 4.21141 132.384 3.85087 131.179 3.68931L131.024 1.75156C130.989 1.3209 130.593 0.966515 130.176 1.00252L126.911 1.28158C126.494 1.31711 126.351 1.71745 126.386 2.14811L126.542 4.08633L126.542 4.09533C125.379 4.44261 124.5 4.93392 123.626 5.59105L122.105 4.3417C121.786 4.06217 121.308 4.10386 121.037 4.43361L118.919 7.01522C118.649 7.34497 118.689 7.84149 119.008 8.12101L120.446 9.38315L120.453 9.39973C119.974 10.3667 119.628 11.2986 119.471 12.5418L117.593 12.7024C117.176 12.738 116.969 13.0644 117.004 13.4955L117.274 16.866C117.308 17.2971 117.56 17.5259 117.977 17.4899L119.855 17.3293L119.863 17.3284C120.2 18.5294 120.674 19.4012 121.311 20.3037L120.098 21.8373C119.828 22.1671 119.87 22.6607 120.19 22.9403L122.695 25.1258C123.015 25.4053 123.504 25.3632 123.775 25.0334L125.016 23.5476L125.067 23.5367C126.004 24.0318 126.978 24.3834 128.182 24.5449L128.338 26.4827C128.372 26.9134 128.552 27.2099 128.97 27.1739L132.235 26.8949C132.652 26.8593 133.01 26.5168 132.975 26.0861L132.82 24.1479L132.819 24.1389C133.982 23.7916 134.756 23.3089 135.63 22.6517L137.045 23.9096C137.365 24.1891 137.843 24.1465 138.114 23.8163L140.231 21.2323C140.502 20.9026 140.461 20.4008 140.142 20.1218L138.704 18.8502L138.694 18.8146C139.174 17.8476 139.517 16.8778 139.674 15.6346L141.551 15.474C141.97 15.4394 142.393 15.1708 142.358 14.7401ZM127.467 9.74986C127.992 9.47838 128.574 9.30309 129.194 9.25002C129.965 9.18417 130.708 9.31351 131.377 9.59825C131.448 9.6281 131.517 9.65984 131.586 9.693C131.62 9.70959 131.654 9.72664 131.688 9.74417C131.756 9.77923 131.823 9.81571 131.889 9.85409C131.955 9.89246 132.02 9.93226 132.084 9.97348C132.116 9.99433 132.148 10.0152 132.18 10.037C132.306 10.1227 132.428 10.2151 132.545 10.3127C132.574 10.3373 132.603 10.362 132.632 10.3871C132.69 10.4373 132.746 10.4889 132.801 10.5425C132.829 10.569 132.857 10.596 132.883 10.623C132.937 10.6775 132.99 10.7334 133.041 10.7907C133.067 10.8192 133.092 10.8481 133.117 10.8774C133.153 10.9187 133.187 10.9608 133.221 11.003C133.259 11.0508 133.297 11.0992 133.334 11.1489C133.38 11.211 133.425 11.2745 133.468 11.3389C133.525 11.4251 133.58 11.5133 133.633 11.6033C133.659 11.6483 133.684 11.6938 133.709 11.7397C133.746 11.8089 133.782 11.8785 133.816 11.9496C133.867 12.0562 133.914 12.1652 133.958 12.276C133.986 12.3499 134.014 12.4248 134.039 12.5011C134.167 12.8806 134.251 13.2823 134.284 13.7012C134.345 14.4549 134.236 15.1831 133.989 15.845C133.948 15.9554 133.903 16.0639 133.855 16.1705C133.823 16.2415 133.789 16.3117 133.753 16.3808C133.718 16.45 133.68 16.5182 133.642 16.5855C133.545 16.7532 133.439 16.9153 133.324 17.0692C133.278 17.1308 133.231 17.1915 133.182 17.2512C133.109 17.3402 133.032 17.4269 132.953 17.5103C132.901 17.5662 132.846 17.6202 132.791 17.6738C132.764 17.7003 132.736 17.7264 132.707 17.7524C132.651 17.8041 132.593 17.8548 132.534 17.9035C132.445 17.977 132.354 18.0471 132.26 18.1139C132.198 18.1584 132.134 18.2016 132.069 18.2432C131.454 18.6374 130.743 18.8914 129.972 18.9572C129.323 19.0127 128.693 18.9297 128.111 18.7322C128.038 18.7075 127.966 18.681 127.895 18.6526C127.681 18.5678 127.474 18.4673 127.276 18.3527C127.21 18.3143 127.145 18.2745 127.081 18.2333C127.049 18.2125 127.017 18.1916 126.986 18.1703C126.891 18.1059 126.799 18.0381 126.709 17.9666C125.691 17.1597 124.995 15.9298 124.88 14.5056C124.826 13.8276 124.909 13.1705 125.105 12.5636C125.189 12.3035 125.294 12.0529 125.418 11.8132C125.46 11.7336 125.503 11.6549 125.548 11.5777C125.661 11.3849 125.788 11.2006 125.926 11.0257C126.063 10.8514 126.213 10.6865 126.373 10.533C126.401 10.5065 126.429 10.4804 126.457 10.4544C126.514 10.4027 126.572 10.3525 126.631 10.3032C126.69 10.2544 126.75 10.2066 126.812 10.1606C126.934 10.0682 127.062 9.98248 127.193 9.90241C127.236 9.87636 127.279 9.85124 127.323 9.82661C127.372 9.80055 127.419 9.77497 127.467 9.74986Z" stroke="#440CA0" stroke-miterlimit="10" stroke-linecap="round" stroke-linejoin="round"/>
<path d="M135.086 37.8851C126.369 31.9355 115.92 28.4717 104.687 28.4717C86.2175 28.4717 69.8663 37.8373 59.8481 52.2197" stroke="#3F8ACE" stroke-width="2" stroke-linecap="round" stroke-linejoin="round"/>
<path d="M133.581 34.2564C133.467 34.3123 133.419 34.4544 133.474 34.5724L134.987 37.8424L131.476 37.8756C131.349 37.8765 131.247 37.9836 131.249 38.1143C131.25 38.2451 131.355 38.3503 131.48 38.3493L135.351 38.3128C135.429 38.3119 135.502 38.2702 135.544 38.2015C135.585 38.1328 135.59 38.0466 135.556 37.9741L133.888 34.3682C133.868 34.326 133.838 34.2924 133.802 34.2696C133.738 34.228 133.655 34.2199 133.581 34.2564Z" fill="#3F8ACE"/>
<path d="M59.975 48.2731C60.1012 48.2826 60.1958 48.3972 60.1861 48.5275L59.9209 52.1415L63.2056 50.8618C63.3245 50.8154 63.4571 50.877 63.5017 50.9992C63.5462 51.1215 63.4851 51.2589 63.3676 51.3048L59.746 52.7157C59.6726 52.7441 59.59 52.7323 59.5275 52.6835C59.4647 52.6347 59.4302 52.5565 59.4362 52.476L59.7286 48.4911C59.7322 48.4441 59.7483 48.402 59.7735 48.3669C59.8194 48.3049 59.8938 48.267 59.975 48.2731Z" fill="#3F8ACE"/>
<path d="M78.583 132.611C83.2107 135.174 88.2739 137.093 93.6845 138.231C116.282 142.982 138.465 132.746 150.561 114.128" stroke="#3F8ACE" stroke-width="2" stroke-linecap="round" stroke-linejoin="round"/>
<path d="M80.4067 136.079C80.5155 136.013 80.5509 135.867 80.4857 135.754L78.6852 132.643L82.1779 132.274C82.3041 132.261 82.3963 132.145 82.3835 132.014C82.3706 131.885 82.2563 131.79 82.1315 131.803L78.2804 132.21C78.2024 132.218 78.134 132.266 78.0986 132.339C78.0633 132.411 78.0665 132.497 78.1069 132.567L80.0924 135.997C80.1158 136.038 80.1488 136.068 80.1864 136.088C80.2534 136.123 80.3365 136.123 80.4067 136.079Z" fill="#3F8ACE"/>
<path d="M150.524 118.074C150.398 118.068 150.3 117.956 150.307 117.825L150.486 114.205L147.233 115.569C147.115 115.618 146.981 115.56 146.934 115.439C146.886 115.318 146.944 115.179 147.06 115.13L150.647 113.627C150.72 113.597 150.803 113.607 150.866 113.653C150.93 113.7 150.966 113.778 150.963 113.859L150.766 117.85C150.763 117.897 150.748 117.939 150.724 117.975C150.68 118.038 150.606 118.078 150.524 118.074Z" fill="#3F8ACE"/>
<path d="M102.51 50.1196H86.9231C83.4392 50.1196 80.6147 47.204 80.6147 43.6075C80.6147 40.0111 83.4392 37.0959 86.9231 37.0959H102.51C105.994 37.0959 108.818 40.0116 108.818 43.6075C108.818 47.204 105.994 50.1196 102.51 50.1196Z" fill="#2E3A70"/>
<path d="M92.3219 42.6384L89.2285 43.8091L92.3219 44.9699V46.1685L87.8989 44.4326V43.1851L92.3219 41.4492V42.6384Z" fill="white"/>
<path d="M95.6517 39.0898H96.9432L93.877 48.1248H92.5854L95.6517 39.0898Z" fill="white"/>
<path d="M101.534 43.1851V44.4326L97.1113 46.1685V44.9699L100.206 43.8091L97.1113 42.6384V41.4492L101.534 43.1851Z" fill="white"/>
<path d="M164.847 92.2076H147.209C146.141 92.2076 145.275 91.3141 145.275 90.2111V31.343H166.781V90.2116C166.78 91.3141 165.915 92.2076 164.847 92.2076Z" fill="#3F8ACE"/>
<path d="M163.178 78.6458H148.878C148.007 78.6458 147.301 77.9166 147.301 77.0169V31.343H164.755V77.0169C164.755 77.9166 164.049 78.6458 163.178 78.6458Z" fill="#215191"/>
<path d="M148.231 89.3593H148.149C147.68 89.3593 147.301 88.9671 147.301 88.4838V82.6905C147.301 82.2068 147.68 81.8149 148.149 81.8149H148.231C148.7 81.8149 149.079 82.2068 149.079 82.6905V88.4838C149.079 88.9675 148.7 89.3593 148.231 89.3593Z" fill="#1B2351"/>
<path d="M152.15 89.3593H152.068C151.599 89.3593 151.22 88.9671 151.22 88.4838V82.6905C151.22 82.2068 151.6 81.8149 152.068 81.8149H152.15C152.619 81.8149 152.998 82.2068 152.998 82.6905V88.4838C152.998 88.9675 152.619 89.3593 152.15 89.3593Z" fill="#1B2351"/>
<path d="M156.069 89.3593H155.987C155.518 89.3593 155.139 88.9671 155.139 88.4838V82.6905C155.139 82.2068 155.519 81.8149 155.987 81.8149H156.069C156.538 81.8149 156.917 82.2068 156.917 82.6905V88.4838C156.917 88.9675 156.538 89.3593 156.069 89.3593Z" fill="#1B2351"/>
<path d="M159.988 89.3593H159.906C159.437 89.3593 159.058 88.9671 159.058 88.4838V82.6905C159.058 82.2068 159.438 81.8149 159.906 81.8149H159.988C160.457 81.8149 160.836 82.2068 160.836 82.6905V88.4838C160.836 88.9675 160.457 89.3593 159.988 89.3593Z" fill="#1B2351"/>
<path d="M163.907 89.3593H163.825C163.357 89.3593 162.977 88.9671 162.977 88.4838V82.6905C162.977 82.2068 163.357 81.8149 163.825 81.8149H163.907C164.376 81.8149 164.756 82.2068 164.756 82.6905V88.4838C164.756 88.9675 164.376 89.3593 163.907 89.3593Z" fill="#1B2351"/>
<path d="M151.158 36.2317H149.301V39.0019H151.158V36.2317Z" fill="#1B2351"/>
<path d="M155.023 36.2317H153.167V39.0019H155.023V36.2317Z" fill="#32EA9F"/>
<path d="M158.89 36.2317H157.033V39.0019H158.89V36.2317Z" fill="#F6C543"/>
<path d="M162.755 36.2317H160.899V39.0019H162.755V36.2317Z" fill="#ED7630"/>
<path d="M151.158 40.8374H149.301V43.6076H151.158V40.8374Z" fill="#ED7630"/>
<path d="M155.023 40.8374H153.167V43.6076H155.023V40.8374Z" fill="#1B2351"/>
<path d="M158.89 40.8374H157.033V43.6076H158.89V40.8374Z" fill="#32EA9F"/>
<path d="M162.755 40.8374H160.899V43.6076H162.755V40.8374Z" fill="#F6C543"/>
<path d="M151.158 45.4426H149.301V48.2128H151.158V45.4426Z" fill="#1B2351"/>
<path d="M155.023 45.4426H153.167V48.2128H155.023V45.4426Z" fill="#F6C543"/>
<path d="M158.89 45.4426H157.033V48.2128H158.89V45.4426Z" fill="#32EA9F"/>
<path d="M162.755 45.4426H160.899V48.2128H162.755V45.4426Z" fill="#1B2351"/>
<path d="M151.158 50.0483H149.301V52.8185H151.158V50.0483Z" fill="#32EA9F"/>
<path d="M155.023 50.0483H153.167V52.8185H155.023V50.0483Z" fill="#ED7630"/>
<path d="M158.89 50.0483H157.033V52.8185H158.89V50.0483Z" fill="#1B2351"/>
<path d="M162.755 50.0483H160.899V52.8185H162.755V50.0483Z" fill="#32EA9F"/>
<path d="M151.158 54.6541H149.301V57.4242H151.158V54.6541Z" fill="#1B2351"/>
<path d="M155.023 54.6541H153.167V57.4242H155.023V54.6541Z" fill="#32EA9F"/>
<path d="M158.89 54.6541H157.033V57.4242H158.89V54.6541Z" fill="#F6C543"/>
<path d="M162.755 54.6541H160.899V57.4242H162.755V54.6541Z" fill="#ED7630"/>
<path d="M151.158 59.2598H149.301V62.0299H151.158V59.2598Z" fill="#ED7630"/>
<path d="M155.023 59.2598H153.167V62.0299H155.023V59.2598Z" fill="#F6C543"/>
<path d="M158.89 59.2598H157.033V62.0299H158.89V59.2598Z" fill="#32EA9F"/>
<path d="M162.755 59.2598H160.899V62.0299H162.755V59.2598Z" fill="#1B2351"/>
<path d="M161.827 64.6597H150.229V68.2315H161.827V64.6597Z" fill="#3F8ACE"/>
<path d="M176.428 92.2076H194.066C195.134 92.2076 196 91.3141 196 90.2111V31.343H174.494V90.2116C174.494 91.3141 175.36 92.2076 176.428 92.2076Z" fill="#3F8ACE"/>
<path d="M178.097 78.6458H192.397C193.268 78.6458 193.975 77.9166 193.975 77.0169V31.343H176.52V77.0169C176.52 77.9166 177.226 78.6458 178.097 78.6458Z" fill="#215191"/>
<path d="M193.044 89.3593H193.127C193.595 89.3593 193.975 88.9671 193.975 88.4838V82.6905C193.975 82.2068 193.595 81.8149 193.127 81.8149H193.044C192.576 81.8149 192.196 82.2068 192.196 82.6905V88.4838C192.196 88.9675 192.576 89.3593 193.044 89.3593Z" fill="#1B2351"/>
<path d="M189.125 89.3593H189.208C189.676 89.3593 190.056 88.9671 190.056 88.4838V82.6905C190.056 82.2068 189.676 81.8149 189.208 81.8149H189.125C188.657 81.8149 188.277 82.2068 188.277 82.6905V88.4838C188.277 88.9675 188.657 89.3593 189.125 89.3593Z" fill="#1B2351"/>
<path d="M185.206 89.3593H185.288C185.757 89.3593 186.136 88.9671 186.136 88.4838V82.6905C186.136 82.2068 185.757 81.8149 185.288 81.8149H185.206C184.737 81.8149 184.358 82.2068 184.358 82.6905V88.4838C184.358 88.9675 184.737 89.3593 185.206 89.3593Z" fill="#1B2351"/>
<path d="M181.287 89.3593H181.369C181.838 89.3593 182.217 88.9671 182.217 88.4838V82.6905C182.217 82.2068 181.838 81.8149 181.369 81.8149H181.287C180.819 81.8149 180.439 82.2068 180.439 82.6905V88.4838C180.439 88.9675 180.819 89.3593 181.287 89.3593Z" fill="#1B2351"/>
<path d="M177.368 89.3593H177.45C177.918 89.3593 178.298 88.9671 178.298 88.4838V82.6905C178.298 82.2068 177.918 81.8149 177.45 81.8149H177.368C176.899 81.8149 176.52 82.2068 176.52 82.6905V88.4838C176.52 88.9675 176.899 89.3593 177.368 89.3593Z" fill="#1B2351"/>
<path d="M190.118 39.002H191.975V36.2318H190.118V39.002Z" fill="#1B2351"/>
<path d="M186.252 39.002H188.108V36.2318H186.252V39.002Z" fill="#32EA9F"/>
<path d="M182.386 39.002H184.242V36.2318H182.386V39.002Z" fill="#F6C543"/>
<path d="M178.519 39.002H180.375V36.2318H178.519V39.002Z" fill="#ED7630"/>
<path d="M190.118 43.6072H191.975V40.837H190.118V43.6072Z" fill="#ED7630"/>
<path d="M186.252 43.6072H188.108V40.837H186.252V43.6072Z" fill="#1B2351"/>
<path d="M182.386 43.6072H184.242V40.837H182.386V43.6072Z" fill="#32EA9F"/>
<path d="M178.519 43.6072H180.375V40.837H178.519V43.6072Z" fill="#F6C543"/>
<path d="M190.118 48.2131H191.975V45.443H190.118V48.2131Z" fill="#1B2351"/>
<path d="M186.252 48.2131H188.108V45.443H186.252V48.2131Z" fill="#F6C543"/>
<path d="M182.386 48.2131H184.242V45.443H182.386V48.2131Z" fill="#32EA9F"/>
<path d="M178.519 48.2131H180.375V45.443H178.519V48.2131Z" fill="#1B2351"/>
<path d="M190.118 52.8186H191.975V50.0484H190.118V52.8186Z" fill="#32EA9F"/>
<path d="M186.252 52.8186H188.108V50.0484H186.252V52.8186Z" fill="#ED7630"/>
<path d="M182.386 52.8186H184.242V50.0484H182.386V52.8186Z" fill="#1B2351"/>
<path d="M178.519 52.8186H180.375V50.0484H178.519V52.8186Z" fill="#32EA9F"/>
<path d="M190.118 57.4236H191.975V54.6534H190.118V57.4236Z" fill="#1B2351"/>
<path d="M186.252 57.4236H188.108V54.6534H186.252V57.4236Z" fill="#32EA9F"/>
<path d="M182.386 57.4236H184.242V54.6534H182.386V57.4236Z" fill="#F6C543"/>
<path d="M178.519 57.4236H180.375V54.6534H178.519V57.4236Z" fill="#ED7630"/>
<path d="M190.118 62.0291H191.975V59.2589H190.118V62.0291Z" fill="#ED7630"/>
<path d="M186.252 62.0291H188.108V59.2589H186.252V62.0291Z" fill="#F6C543"/>
<path d="M182.386 62.0291H184.242V59.2589H182.386V62.0291Z" fill="#32EA9F"/>
<path d="M178.519 62.0291H180.375V59.2589H178.519V62.0291Z" fill="#1B2351"/>
<path d="M179.448 68.2312H191.046V64.6594H179.448V68.2312Z" fill="#3F8ACE"/>
<path d="M192.423 130.871H192.374C191.933 130.871 191.614 130.46 191.686 130.011C191.812 129.232 191.822 128.414 191.695 127.571C191.182 124.162 188.419 121.494 185.09 121.19C184.212 121.11 183.367 121.186 182.577 121.4C181.775 114.774 176.294 109.642 169.656 109.642C163.662 109.642 158.614 113.824 157.099 119.512C152.764 120.221 149.456 124.097 149.456 128.769C149.456 129.202 149.484 129.628 149.54 130.046C149.599 130.482 149.277 130.871 148.851 130.871C148.075 130.871 147.378 131.471 147.338 132.271C147.295 133.125 147.952 133.831 148.769 133.831H192.503C193.321 133.831 193.979 133.125 193.935 132.271C193.895 131.472 193.199 130.871 192.423 130.871Z" fill="#E881FF"/>
<path d="M176.644 122.088H161.219C160.831 122.088 160.517 121.764 160.517 121.363V121.293C160.517 120.893 160.831 120.568 161.219 120.568H176.644C177.032 120.568 177.347 120.892 177.347 121.293V121.363C177.347 121.764 177.032 122.088 176.644 122.088Z" fill="#440CA0"/>
<path d="M176.644 125.44H161.219C160.831 125.44 160.517 125.116 160.517 124.715V124.645C160.517 124.245 160.831 123.92 161.219 123.92H176.644C177.032 123.92 177.347 124.244 177.347 124.645V124.715C177.347 125.115 177.032 125.44 176.644 125.44Z" fill="#440CA0"/>
<path d="M176.644 128.792H161.219C160.831 128.792 160.517 128.468 160.517 128.067V127.997C160.517 127.596 160.831 127.271 161.219 127.271H176.644C177.032 127.271 177.347 127.596 177.347 127.997V128.067C177.347 128.467 177.032 128.792 176.644 128.792Z" fill="#440CA0"/>
<path d="M170.674 101.897V111.748" stroke="#440CA0" stroke-width="2" stroke-miterlimit="10" stroke-linecap="round" stroke-linejoin="round"/>
<ellipse cx="156.028" cy="95.0717" rx="0.458957" ry="0.473776" fill="#440CA0"/>
<path d="M156.029 96.7786V101.044" stroke="#440CA0" stroke-width="2" stroke-linecap="round" stroke-linejoin="round"/>
<ellipse cx="156.028" cy="101.898" rx="0.458957" ry="0.473776" fill="#440CA0"/>
<path d="M157.854 101.897H184.334" stroke="#440CA0" stroke-width="2" stroke-linecap="round" stroke-linejoin="round"/>
<ellipse cx="185.247" cy="101.898" rx="0.458957" ry="0.473776" fill="#440CA0"/>
<path d="M185.247 100.191V95.925" stroke="#440CA0" stroke-width="2" stroke-linecap="round" stroke-linejoin="round"/>
<ellipse cx="185.247" cy="95.0717" rx="0.458957" ry="0.473776" fill="#440CA0"/>
<path d="M62.5301 131.649H6.53509C2.92585 131.649 0 128.628 0 124.902V82.228H69.0648V124.902C69.0652 128.628 66.1394 131.649 62.5301 131.649Z" fill="#440CA0"/>
<path d="M69.0648 76.0339H0V82.2281H69.0648V76.0339Z" fill="#1B2351"/>
<path d="M5.36766 79.1312C5.36766 78.4229 4.81141 77.8491 4.12573 77.8491C3.44005 77.8491 2.88379 78.4233 2.88379 79.1312C2.88379 79.8395 3.44005 80.4132 4.12573 80.4132C4.81141 80.4132 5.36766 79.8395 5.36766 79.1312Z" fill="#ED7630"/>
<path d="M10.2534 79.1312C10.2534 78.4229 9.69715 77.8491 9.01147 77.8491C8.32533 77.8491 7.76953 78.4233 7.76953 79.1312C7.76953 79.8395 8.32579 80.4132 9.01147 80.4132C9.69761 80.4132 10.2534 79.8395 10.2534 79.1312Z" fill="#F6C543"/>
<path d="M15.1382 79.1312C15.1382 78.4229 14.5819 77.8491 13.8962 77.8491C13.2101 77.8491 12.6543 78.4233 12.6543 79.1312C12.6543 79.8395 13.2106 80.4132 13.8962 80.4132C14.5824 80.4132 15.1382 79.8395 15.1382 79.1312Z" fill="#32EA9F"/>
<path d="M63.9827 87.2017H5.08203V104.77H63.9827V87.2017Z" fill="white"/>
<path d="M5.08203 100.682V99.6835C13.4497 98.6853 21.1396 93.9172 25.0944 87.2019H26.3299C22.2704 94.4829 14.0184 99.6485 5.08203 100.682Z" fill="#3F8ACE"/>
<path d="M30.9366 92.5165C29.9714 93.0031 28.9507 93.4058 27.958 93.7928C26.2424 94.4684 24.6264 95.1042 23.2858 96.1423C21.4325 97.5826 20.3017 99.7582 20.2631 101.958C20.2466 102.917 20.4343 103.871 20.8093 104.77H19.6399C19.3145 103.861 19.1433 102.902 19.1598 101.944C19.2038 99.4601 20.4724 97.0117 22.5634 95.3923C24.0307 94.2548 25.8014 93.5597 27.5169 92.8841C28.4821 92.5018 29.4808 92.109 30.3964 91.6471C32.509 90.5792 34.3572 89.0295 35.7029 87.2017H37.0045C35.5427 89.3919 33.4081 91.2648 30.9366 92.5165Z" fill="#3F8ACE"/>
<path d="M51.5713 89.819C51.1853 92.0491 49.7181 94.1352 47.6385 95.3921C45.6801 96.5841 43.3523 97.0209 41.1021 97.4435L40.8978 97.4833C38.592 97.9206 36.3748 98.4072 34.6812 99.6044C33.1038 100.712 31.9344 102.764 32.7504 104.542C32.789 104.621 32.8275 104.696 32.8716 104.77H31.6691C30.7645 102.575 32.1382 100.131 34.0024 98.8199C35.8833 97.4938 38.2331 96.9721 40.6716 96.5102L40.8758 96.4756C43.0214 96.0682 45.2446 95.6512 47.0208 94.5734C48.852 93.461 50.143 91.6279 50.485 89.666C50.6231 88.8516 50.6011 88.0173 50.4244 87.2024H51.5497C51.7095 88.0656 51.7205 88.9549 51.5713 89.819Z" fill="#3F8ACE"/>
<path d="M63.9831 91.4082V92.5107C63.6853 92.6348 63.3819 92.7343 63.0675 92.8087C61.7549 93.1266 60.3757 93.0868 59.0461 93.0522C57.3085 93.0077 55.665 92.9627 54.3023 93.6828C53.1274 94.2987 52.2228 95.4562 51.5445 97.229C51.0369 98.5452 51.0203 99.4989 51.5004 100.149C52.1402 101.014 53.3867 101.123 54.832 101.252C56.1836 101.376 57.5843 101.5 58.6436 102.31C59.361 102.856 59.78 103.631 59.8626 104.55C59.8681 104.624 59.8736 104.694 59.8736 104.768H58.7648C58.7648 104.724 58.7648 104.679 58.7593 104.629C58.7042 103.968 58.4229 103.442 57.9263 103.065C57.1318 102.459 55.9624 102.354 54.7214 102.24C53.1435 102.101 51.511 101.957 50.5788 100.696C49.9005 99.7718 49.8729 98.53 50.5017 96.9012C51.2741 94.8995 52.333 93.5634 53.7452 92.8234C55.3836 91.9639 57.2589 92.0137 59.0792 92.0582C60.3312 92.0928 61.6277 92.1279 62.7857 91.8498C63.1997 91.7507 63.6022 91.602 63.9831 91.4082Z" fill="#3F8ACE"/>
<path d="M29.4698 109.188H5.36768V126.361H29.4698V109.188Z" fill="#3F8ACE"/>
<path d="M25.2749 114.87H9.56387C8.98054 114.87 8.50781 114.382 8.50781 113.78V113.674C8.50781 113.072 8.98054 112.584 9.56387 112.584H25.2749C25.8582 112.584 26.3309 113.072 26.3309 113.674V113.78C26.3309 114.382 25.8578 114.87 25.2749 114.87Z" fill="white"/>
<path d="M25.2749 118.81H9.56387C8.98054 118.81 8.50781 118.322 8.50781 117.72V117.614C8.50781 117.012 8.98054 116.524 9.56387 116.524H25.2749C25.8582 116.524 26.3309 117.012 26.3309 117.614V117.72C26.3309 118.321 25.8578 118.81 25.2749 118.81Z" fill="white"/>
<path d="M19.0354 122.749H9.56387C8.98054 122.749 8.50781 122.261 8.50781 121.659V121.554C8.50781 120.951 8.98054 120.463 9.56387 120.463H19.0354C19.6187 120.463 20.0914 120.951 20.0914 121.554V121.659C20.091 122.261 19.6182 122.749 19.0354 122.749Z" fill="white"/>
<path d="M33.0969 126.361H63.9829V109.187H33.0969V126.361Z" fill="#1B2351"/>
<path d="M38.2495 122.749H58.8314L54.0565 114.565L50.1048 120.004L44.7534 111.335L38.2495 122.749Z" fill="#F5C544"/>
<path d="M35.4904 35.7948L33.9915 33.5254H21.3949L19.896 35.7948V52.0756C19.896 53.523 21.0324 54.6961 22.4345 54.6961H46.6316C48.0337 54.6961 49.1701 53.523 49.1701 52.0756V38.4148C49.1701 36.9674 48.0337 35.7943 46.6316 35.7943L35.4904 35.7948Z" fill="#E881FF"/>
<path d="M42.245 42.9271H26.8203C26.4325 42.9271 26.1177 42.6025 26.1177 42.2017V42.1316C26.1177 41.7308 26.4321 41.4062 26.8203 41.4062H42.245C42.6332 41.4062 42.9476 41.7308 42.9476 42.1316V42.2017C42.9476 42.6025 42.6332 42.9271 42.245 42.9271Z" fill="#440CA0"/>
<path d="M42.245 46.2789H26.8203C26.4325 46.2789 26.1177 45.9543 26.1177 45.5535V45.4834C26.1177 45.0826 26.4321 44.7581 26.8203 44.7581H42.245C42.6332 44.7581 42.9476 45.0826 42.9476 45.4834V45.5535C42.9476 45.9539 42.6332 46.2789 42.245 46.2789Z" fill="#440CA0"/>
<path d="M42.245 49.6302H26.8203C26.4325 49.6302 26.1177 49.3057 26.1177 48.9048V48.8347C26.1177 48.4339 26.4321 48.1094 26.8203 48.1094H42.245C42.6332 48.1094 42.9476 48.4339 42.9476 48.8347V48.9048C42.9476 49.3052 42.6332 49.6302 42.245 49.6302Z" fill="#440CA0"/>
<path d="M34.5322 55.4182V75.7626" stroke="#440CA0" stroke-width="2" stroke-miterlimit="10" stroke-linecap="round" stroke-linejoin="round"/>
<path d="M128.162 128.601H112.575C109.091 128.601 106.267 125.685 106.267 122.089C106.267 118.493 109.091 115.577 112.575 115.577H128.162C131.646 115.577 134.47 118.493 134.47 122.089C134.47 125.685 131.646 128.601 128.162 128.601Z" fill="#215191"/>
<path d="M115.122 119.712V124.466H113.82V122.612H112.044V124.466H110.741V119.712H112.044V121.498H113.82V119.712H115.122Z" fill="#FEFEFE"/>
<path d="M117.022 120.778H115.608V119.712H119.733V120.778H118.325V124.466H117.022V120.778Z" fill="#FEFEFE"/>
<path d="M124.377 124.465L124.364 121.946L123.18 123.997H122.601L121.424 122.014V124.466H120.22V119.712H121.292L122.911 122.456L124.489 119.712H125.562L125.575 124.466H124.377V124.465Z" fill="#FEFEFE"/>
<path d="M126.495 119.712H127.797V123.4H129.995V124.466H126.495V119.712Z" fill="#FEFEFE"/>
<path d="M51.515 139.777C51.515 138.724 50.6879 137.871 49.6681 137.871C48.6483 137.871 47.8213 138.725 47.8213 139.777C47.8213 140.83 48.6483 141.684 49.6681 141.684C50.6879 141.684 51.515 140.831 51.515 139.777Z" fill="#3F8ACE"/>
<path d="M62.3587 139.777C62.3587 138.724 61.5317 137.871 60.5119 137.871C59.4921 137.871 58.665 138.725 58.665 139.777C58.665 140.83 59.4921 141.684 60.5119 141.684C61.5321 141.684 62.3587 140.831 62.3587 139.777Z" fill="#3F8ACE"/>
<path d="M73.2035 139.777C73.2035 138.724 72.3764 137.871 71.3566 137.871C70.3368 137.871 69.5098 138.725 69.5098 139.777C69.5098 140.83 70.3368 141.684 71.3566 141.684C72.3764 141.684 73.2035 140.831 73.2035 139.777Z" fill="#3F8ACE"/>
<path d="M150.949 23.3076C150.949 22.2549 150.122 21.4011 149.102 21.4011C148.082 21.4011 147.255 22.2549 147.255 23.3076C147.255 24.3603 148.082 25.2141 149.102 25.2141C150.122 25.2141 150.949 24.3603 150.949 23.3076Z" fill="#440CA0"/>
<path d="M161.793 23.3076C161.793 22.2549 160.966 21.4011 159.946 21.4011C158.926 21.4011 158.099 22.2549 158.099 23.3076C158.099 24.3603 158.926 25.2141 159.946 25.2141C160.966 25.2141 161.793 24.3603 161.793 23.3076Z" fill="#440CA0"/>
<path d="M172.637 23.3076C172.637 22.2549 171.81 21.4011 170.79 21.4011C169.77 21.4011 168.943 22.2549 168.943 23.3076C168.943 24.3603 169.77 25.2141 170.79 25.2141C171.81 25.2141 172.637 24.3603 172.637 23.3076Z" fill="#440CA0"/>
<path d="M136.792 51.3704V54.9521" stroke="#3F8ACE" stroke-width="2" stroke-miterlimit="10" stroke-linecap="round" stroke-linejoin="round"/>
<path d="M138.527 53.1609H135.058" stroke="#3F8ACE" stroke-width="2" stroke-miterlimit="10" stroke-linecap="round" stroke-linejoin="round"/>
<path d="M80.5957 110.519V114.101" stroke="#3F8ACE" stroke-width="2" stroke-miterlimit="10" stroke-linecap="round" stroke-linejoin="round"/>
<path d="M82.3301 112.31H78.8604" stroke="#3F8ACE" stroke-width="2" stroke-miterlimit="10" stroke-linecap="round" stroke-linejoin="round"/>
<path d="M141.147 109.544V113.126" stroke="#440CA0" stroke-width="2" stroke-miterlimit="10" stroke-linecap="round" stroke-linejoin="round"/>
<path d="M142.882 111.335H139.412" stroke="#440CA0" stroke-width="2" stroke-miterlimit="10" stroke-linecap="round" stroke-linejoin="round"/>
<path d="M62.248 66.4407V70.0224" stroke="#440CA0" stroke-width="2" stroke-miterlimit="10" stroke-linecap="round" stroke-linejoin="round"/>
<path d="M63.9834 68.2314H60.5132" stroke="#440CA0" stroke-width="2" stroke-miterlimit="10" stroke-linecap="round" stroke-linejoin="round"/>
<path d="M126.596 104.734H87.7447C85.3223 104.734 83.3589 102.707 83.3589 100.207V64.9669C83.3589 62.4663 85.3223 60.4395 87.7447 60.4395H126.596C129.018 60.4395 130.982 62.4663 130.982 64.9669V100.207C130.982 102.707 129.018 104.734 126.596 104.734Z" fill="#1B2351"/>
<path d="M124.612 101.784H89.7278C87.9618 101.784 86.5303 100.307 86.5303 98.4835V66.6907C86.5303 64.8676 87.9618 63.3899 89.7278 63.3899H125.286C126.679 63.3899 127.809 64.5558 127.809 65.9938V98.483C127.809 100.306 126.378 101.784 124.612 101.784Z" stroke="#440CA0" stroke-miterlimit="10" stroke-linecap="round" stroke-linejoin="round"/>
<path d="M113.455 60.4395H115.715V53.3901H113.455V60.4395Z" fill="#3F8ACE"/>
<path d="M108.513 60.4395H110.772V53.3901H108.513V60.4395Z" fill="#3F8ACE"/>
<path d="M103.569 60.4395H105.829V53.3901H103.569V60.4395Z" fill="#3F8ACE"/>
<path d="M98.6263 60.4395H100.886V53.3901H98.6263V60.4395Z" fill="#3F8ACE"/>
<path d="M100.885 104.735H98.626V111.784H100.885V104.735Z" fill="#3F8ACE"/>
<path d="M105.829 104.735H103.569V111.784H105.829V104.735Z" fill="#3F8ACE"/>
<path d="M110.772 104.735H108.512V111.784H110.772V104.735Z" fill="#3F8ACE"/>
<path d="M115.714 104.735H113.455V111.784H115.714V104.735Z" fill="#3F8ACE"/>
<path d="M83.3589 76.0995V73.7671H76.5301V76.0995H83.3589Z" fill="#1B2351"/>
<path d="M83.3589 81.2018V78.8694H76.5301V81.2018H83.3589Z" fill="#1B2351"/>
<path d="M83.3589 86.305V83.9722H76.5301V86.305H83.3589Z" fill="#1B2351"/>
<path d="M83.3589 91.4076V89.0747H76.5301V91.4076H83.3589Z" fill="#1B2351"/>
<path d="M130.981 89.0741V91.407H137.81V89.0741H130.981Z" fill="#1B2351"/>
<path d="M130.981 83.9718V86.3047H137.81V83.9718H130.981Z" fill="#1B2351"/>
<path d="M130.981 78.8695V81.2019H137.81V78.8695H130.981Z" fill="#1B2351"/>
<path d="M130.981 73.7672V76.0996H137.81V73.7672H130.981Z" fill="#1B2351"/>
<path d="M100.613 86.7918H94.9784L93.9315 89.4643H90.0859L95.9684 75.7083H99.6804L105.582 89.4643H101.66L100.613 86.7918ZM99.5092 83.9231L97.796 79.5212L96.0827 83.9231H99.5092Z" fill="white"/>
<path d="M118.659 80.7985C118.659 83.9231 116.375 85.8689 112.739 85.8689H110.416V89.4648H106.647V75.7087H112.739C116.375 75.7087 118.659 77.6541 118.659 80.7985ZM114.852 80.7985C114.852 79.5212 114.071 78.7745 112.51 78.7745H110.416V82.8031H112.51C114.071 82.8026 114.852 82.0559 114.852 80.7985Z" fill="white"/>
<path d="M120.485 75.7087H124.254V89.4648H120.485V75.7087Z" fill="white"/>
<ellipse cx="93.9702" cy="104.735" rx="0.458957" ry="0.473776" fill="#440CA0"/>
<path d="M93.9702 106.714V119.579" stroke="#440CA0" stroke-width="2" stroke-linecap="round" stroke-linejoin="round"/>
<ellipse cx="93.9702" cy="120.568" rx="0.458957" ry="0.473776" fill="#440CA0"/>
<path d="M92.1911 120.567H69.9546" stroke="#440CA0" stroke-width="2" stroke-linecap="round" stroke-linejoin="round"/>
<ellipse cx="69.0654" cy="120.568" rx="0.458957" ry="0.473776" fill="#440CA0"/>
<ellipse cx="120.368" cy="60.4398" rx="0.458957" ry="0.473776" fill="#440CA0"/>
<path d="M120.368 58.4671V45.6462" stroke="#440CA0" stroke-width="2" stroke-linecap="round" stroke-linejoin="round"/>
<ellipse cx="120.368" cy="44.6596" rx="0.458957" ry="0.473776" fill="#440CA0"/>
<path d="M122.147 44.6594H144.383" stroke="#440CA0" stroke-width="2" stroke-linecap="round" stroke-linejoin="round"/>
<ellipse cx="145.272" cy="44.6596" rx="0.458957" ry="0.473776" fill="#440CA0"/>
</svg>
