<svg width="214" height="162" viewBox="0 0 214 162" fill="none" xmlns="http://www.w3.org/2000/svg">
<path d="M205.132 131.928C195.171 154.239 174.322 161.298 149.71 161.298C106.727 161.298 110.772 152.406 90.3357 148.129C59.7113 141.996 16.3417 144.382 2.10332 105.202C-7.24645 73.5097 16.3757 38.5542 37.4924 20.8221C104.649 -32.3318 251.428 20.4321 205.132 131.928Z" fill="#F2BBAF"/>
<path d="M172.776 84.0723C172.714 84.0723 172.656 84.0328 172.626 83.9693L170.989 80.6037C170.958 80.5402 170.958 80.4611 170.989 80.3976L172.626 77.0325C172.656 76.969 172.714 76.9294 172.776 76.9294C172.838 76.9294 172.895 76.9686 172.926 77.0321L174.566 80.3972C174.597 80.4611 174.597 80.5403 174.566 80.6041L172.926 83.9697C172.895 84.0332 172.838 84.0723 172.776 84.0723ZM171.34 80.5007L172.776 83.4544L174.215 80.5007L172.776 77.5473L171.34 80.5007Z" fill="#25292B"/>
<path d="M168.226 80.0401C167.681 80.0401 167.238 79.5134 167.238 78.8658C167.238 78.2183 167.681 77.6919 168.226 77.6919C168.771 77.6919 169.214 78.2183 169.214 78.8658C169.214 79.5134 168.771 80.0401 168.226 80.0401ZM168.226 78.1041C167.872 78.1041 167.585 78.4458 167.585 78.8658C167.585 79.2863 167.872 79.628 168.226 79.628C168.58 79.628 168.867 79.2863 168.867 78.8658C168.867 78.4458 168.58 78.1041 168.226 78.1041Z" fill="#25292B"/>
<path d="M171.139 75.7216C170.664 75.7216 170.276 75.2615 170.276 74.696C170.276 74.1309 170.664 73.6709 171.139 73.6709C171.615 73.6709 172.003 74.1309 172.003 74.696C172.003 75.2615 171.616 75.7216 171.139 75.7216ZM171.139 74.0827C170.855 74.0827 170.623 74.3576 170.623 74.6956C170.623 75.0336 170.855 75.3089 171.139 75.3089C171.424 75.3089 171.656 75.0336 171.656 74.6956C171.656 74.3576 171.424 74.0827 171.139 74.0827Z" fill="#25292B"/>
<path d="M167.411 76.194C167.059 76.194 166.772 75.8535 166.772 75.4347C166.772 75.0159 167.059 74.675 167.411 74.675C167.763 74.675 168.05 75.0159 168.05 75.4347C168.05 75.8535 167.763 76.194 167.411 76.194ZM167.411 75.0872C167.25 75.0872 167.119 75.2431 167.119 75.4347C167.119 75.626 167.25 75.7818 167.411 75.7818C167.572 75.7818 167.703 75.626 167.703 75.4347C167.703 75.2431 167.572 75.0872 167.411 75.0872Z" fill="#25292B"/>
<path d="M70.228 37.5824C70.1659 37.5824 70.1087 37.5432 70.0778 37.4793L68.8262 34.9044C68.7949 34.8405 68.7949 34.7622 68.8262 34.6983L70.0778 32.1233C70.1087 32.0594 70.1659 32.0203 70.228 32.0203C70.2901 32.0203 70.3473 32.0594 70.3782 32.1233L71.633 34.6983C71.6642 34.7622 71.6642 34.8409 71.633 34.9048L70.3782 37.4797C70.3473 37.5428 70.2901 37.5824 70.228 37.5824ZM69.1765 34.8013L70.2283 36.9649L71.2822 34.8013L70.2283 32.6377L69.1765 34.8013Z" fill="#25292B"/>
<path d="M67.2657 33.7164C66.721 33.7164 66.2773 33.1896 66.2773 32.5425C66.2773 31.8949 66.7207 31.3682 67.2657 31.3682C67.8107 31.3682 68.2537 31.8949 68.2537 32.5425C68.2533 33.1896 67.8103 33.7164 67.2657 33.7164ZM67.2657 31.7804C66.9118 31.7804 66.6242 32.1221 66.6242 32.5425C66.6242 32.9625 66.9118 33.3042 67.2657 33.3042C67.6192 33.3042 67.9068 32.9625 67.9068 32.5425C67.9064 32.1225 67.6188 31.7804 67.2657 31.7804Z" fill="#25292B"/>
<path d="M70.18 30.8125C69.704 30.8125 69.3169 30.3525 69.3169 29.787C69.3169 29.2215 69.704 28.7615 70.18 28.7615C70.6559 28.7615 71.0431 29.2215 71.0431 29.787C71.0431 30.3525 70.6559 30.8125 70.18 30.8125ZM70.18 29.1737C69.8955 29.1737 69.6638 29.4486 69.6638 29.787C69.6638 30.1254 69.8955 30.4004 70.18 30.4004C70.4645 30.4004 70.6962 30.1254 70.6962 29.787C70.6962 29.449 70.4648 29.1737 70.18 29.1737Z" fill="#25292B"/>
<path d="M67.2659 29.727C66.9135 29.727 66.627 29.3865 66.627 28.9678C66.627 28.549 66.9135 28.2085 67.2659 28.2085C67.6184 28.2085 67.9049 28.5494 67.9049 28.9678C67.9049 29.3861 67.6181 29.727 67.2659 29.727ZM67.2659 28.6207C67.105 28.6207 66.9739 28.7765 66.9739 28.9678C66.9739 29.159 67.105 29.3148 67.2659 29.3148C67.4269 29.3148 67.558 29.1594 67.558 28.9678C67.558 28.7761 67.4269 28.6207 67.2659 28.6207Z" fill="#25292B"/>
<path d="M16.0045 155.533C15.9424 155.533 15.8852 155.493 15.8543 155.43L14.218 152.064C14.1871 152.001 14.1871 151.922 14.218 151.858L15.8543 148.493C15.8852 148.429 15.9424 148.39 16.0045 148.39C16.0663 148.39 16.1235 148.429 16.1547 148.493L17.7946 151.858C17.8258 151.922 17.8258 152.001 17.7946 152.065L16.1547 155.43C16.1235 155.494 16.0663 155.533 16.0045 155.533ZM14.5687 151.961L16.0049 154.915L17.4442 151.961L16.0049 149.008L14.5687 151.961Z" fill="#25292B"/>
<path d="M22.8013 153.38C22.2563 153.38 21.813 152.853 21.813 152.206C21.813 151.558 22.2563 151.031 22.8013 151.031C23.346 151.031 23.7893 151.558 23.7893 152.206C23.7893 152.853 23.346 153.38 22.8013 153.38ZM22.8013 151.444C22.4475 151.444 22.1599 151.786 22.1599 152.206C22.1599 152.626 22.4475 152.968 22.8013 152.968C23.1548 152.968 23.4424 152.626 23.4424 152.206C23.4424 151.786 23.1548 151.444 22.8013 151.444Z" fill="#25292B"/>
<path d="M14.4578 147.182C13.9819 147.182 13.5947 146.722 13.5947 146.157C13.5947 145.591 13.9819 145.131 14.4578 145.131C14.9338 145.131 15.3209 145.591 15.3209 146.157C15.3209 146.722 14.9338 147.182 14.4578 147.182ZM14.4578 145.543C14.1734 145.543 13.9416 145.818 13.9416 146.156C13.9416 146.494 14.173 146.769 14.4578 146.769C14.7426 146.769 14.974 146.494 14.974 146.156C14.974 145.818 14.7423 145.543 14.4578 145.543Z" fill="#25292B"/>
<path d="M19.3787 151.049C19.0263 151.049 18.7397 150.708 18.7397 150.29C18.7397 149.871 19.0263 149.53 19.3787 149.53C19.7312 149.53 20.0177 149.871 20.0177 150.29C20.0177 150.708 19.7309 151.049 19.3787 151.049ZM19.3787 149.942C19.2178 149.942 19.0867 150.098 19.0867 150.29C19.0867 150.481 19.2174 150.637 19.3787 150.637C19.5401 150.637 19.6708 150.481 19.6708 150.29C19.6708 150.098 19.5397 149.942 19.3787 149.942Z" fill="#25292B"/>
<path d="M19.5749 147.182C19.5128 147.182 19.4556 147.143 19.4247 147.079L18.3972 144.966C18.3663 144.902 18.3663 144.823 18.3972 144.76L19.4247 142.646C19.4556 142.583 19.5128 142.543 19.5749 142.543C19.6367 142.543 19.6939 142.582 19.7251 142.646L20.7551 144.759C20.7863 144.823 20.7863 144.902 20.7551 144.966L19.7251 147.08C19.6939 147.143 19.6367 147.182 19.5749 147.182ZM18.7476 144.863L19.5749 146.564L20.4044 144.863L19.5749 143.161L18.7476 144.863Z" fill="#25292B"/>
<path d="M10.6795 155.095C10.3271 155.095 10.0405 154.755 10.0405 154.336C10.0405 153.917 10.3271 153.577 10.6795 153.577C11.032 153.577 11.3185 153.917 11.3185 154.336C11.3185 154.755 11.032 155.095 10.6795 155.095ZM10.6795 153.99C10.5186 153.99 10.3874 154.145 10.3874 154.337C10.3874 154.528 10.5182 154.684 10.6795 154.684C10.8408 154.684 10.9716 154.528 10.9716 154.337C10.9716 154.145 10.8408 153.99 10.6795 153.99Z" fill="#25292B"/>
<path d="M162.758 85.0757C161.97 96.7148 149.734 92.043 143.914 96.7774C140.257 99.8553 137.381 105.069 132.556 105.541C127.905 105.964 124.742 100.435 120.088 100.85C115.036 101.082 110.215 105.114 105.088 103.492C102.5 102.643 100.013 100.244 99.6558 96.918C99.3089 93.6823 101.286 91.2916 102.448 88.6371C105.743 78.9518 90.9662 80.5498 101.717 64.6598C103.647 61.6995 103.176 58.0586 100.925 55.5792C98.0129 51.1915 97.93 44.1545 103.531 43.0733C107.757 41.6513 111.16 38.2581 114.93 35.7441C123.357 29.2204 135.872 34.4029 138.405 46.1689C139.61 50.8403 137.781 55.0199 142.586 57.7012C151.471 61.1475 149.48 62.0387 151.83 71.3658C154.669 76.7412 162.496 77.6295 162.758 85.0757Z" fill="#25292B"/>
<path d="M138.43 65.1339C137.591 68.9508 135.568 71.3291 132.581 70.8304L135.28 84.0535L135.589 85.558L130.507 91.7573C128.911 93.7029 126.847 94.6303 124.8 94.6303C121.852 94.6303 118.944 92.7095 117.546 89.1605L117.952 87.2191L118.539 84.4286L118.049 84.2472C116.169 83.5341 114.39 82.4748 112.79 81.1022C110.764 79.3669 109.127 77.141 107.961 74.6102C106.799 72.0752 106.109 69.2352 105.981 66.2674L105.603 57.5248C105.894 56.0079 106.407 54.6889 107.039 53.5554C109.203 49.6354 112.669 47.929 112.669 47.929C113.408 49.3387 114.272 50.5422 115.205 51.5892C120.714 57.7185 128.779 57.9823 129.317 57.9906L129.348 57.9947V58.0441C129.355 58.0441 129.362 58.0359 129.362 58.0318C130.347 56.7581 131.638 55.9255 133.018 55.6905C133.733 55.571 134.475 55.6163 135.207 55.8389C138.395 56.8364 139.336 61.0325 138.43 65.1339Z" fill="#F2E9DA"/>
<path d="M108.776 69.1411C109.647 68.8935 110.166 67.7649 109.936 66.6204C109.705 65.4758 108.812 64.7487 107.942 64.9963C107.071 65.2439 106.552 66.3724 106.782 67.517C107.013 68.6616 107.905 69.3887 108.776 69.1411Z" fill="#25292B"/>
<path d="M118.361 66.4165C119.232 66.1689 119.751 65.0403 119.521 63.8958C119.29 62.7512 118.397 62.0241 117.527 62.2717C116.656 62.5193 116.137 63.6478 116.367 64.7924C116.598 65.937 117.49 66.6641 118.361 66.4165Z" fill="#25292B"/>
<path d="M108.698 61.8507C107.409 61.739 106.111 62.3746 105.331 63.6227C105.176 63.8709 105.164 64.2501 105.386 64.4562C105.586 64.6425 105.922 64.6561 106.087 64.3911C106.164 64.2686 106.245 64.1507 106.333 64.0395C106.376 63.985 106.421 63.9327 106.467 63.8812C106.471 63.8758 106.477 63.87 106.483 63.8647C106.507 63.84 106.531 63.8156 106.556 63.7913C106.656 63.6953 106.761 63.6062 106.869 63.5246C106.923 63.4838 106.979 63.4455 107.034 63.4076C107.044 63.401 107.054 63.3944 107.061 63.3898C107.093 63.3713 107.125 63.3532 107.156 63.3358C107.273 63.2724 107.393 63.2167 107.515 63.1693C107.576 63.1454 107.637 63.124 107.699 63.1046C107.73 63.0947 107.762 63.0856 107.793 63.077C107.795 63.0766 107.793 63.077 107.794 63.0766C107.798 63.0757 107.796 63.0766 107.804 63.0749C107.93 63.0485 108.057 63.0275 108.185 63.0172C108.249 63.0123 108.313 63.0094 108.377 63.009C108.409 63.0086 108.441 63.0094 108.473 63.0102C108.482 63.0102 108.486 63.0102 108.49 63.0102C108.496 63.0106 108.5 63.011 108.508 63.0119C108.767 63.0341 109.049 62.8849 109.092 62.5436C109.127 62.2575 108.975 61.8746 108.698 61.8507Z" fill="#25292B"/>
<path d="M115.589 60.6964C115.757 60.9779 116.065 60.959 116.287 60.8003C116.294 60.7949 116.297 60.7928 116.303 60.7887C116.306 60.7871 116.31 60.7846 116.318 60.7801C116.346 60.7623 116.374 60.7442 116.403 60.7273C116.46 60.6931 116.518 60.6614 116.577 60.6313C116.696 60.5715 116.817 60.522 116.94 60.4775C116.947 60.475 116.944 60.4755 116.948 60.4742C116.95 60.4738 116.949 60.4742 116.95 60.4738C116.981 60.4647 117.012 60.4561 117.044 60.4483C117.106 60.4322 117.17 60.4186 117.233 60.4066C117.36 60.3831 117.488 60.3683 117.616 60.3625C117.651 60.3609 117.686 60.36 117.722 60.3596C117.73 60.36 117.741 60.3605 117.752 60.3609C117.817 60.3646 117.881 60.3687 117.945 60.3761C118.072 60.3905 118.2 60.4136 118.325 60.4458C118.356 60.4536 118.387 60.4627 118.418 60.4713C118.425 60.4734 118.432 60.4755 118.439 60.4775C118.499 60.499 118.559 60.5216 118.618 60.5468C118.739 60.5983 118.856 60.6597 118.971 60.7277C119.22 60.8749 119.514 60.6824 119.622 60.4083C119.741 60.1053 119.585 59.7735 119.353 59.6358C118.182 58.9425 116.783 59.074 115.676 59.8671C115.437 60.0373 115.448 60.4606 115.589 60.6964Z" fill="#25292B"/>
<path d="M133.524 68.9081C133.432 68.9081 133.356 68.8228 133.351 68.7123C133.346 68.599 133.419 68.5017 133.515 68.4963C134.569 68.432 135.579 67.5747 135.972 66.411C136.366 65.2474 136.135 63.7982 135.412 62.8856C135.031 62.4041 134.552 62.1172 134.099 62.0983C133.583 62.0612 133.109 62.4206 132.947 62.9148C132.918 63.0043 132.841 63.0566 132.761 63.0443C132.682 63.0307 132.62 62.9536 132.613 62.858C132.552 62.0336 132.518 61.062 132.719 60.109C132.933 59.0959 133.393 58.2719 134.015 57.7888C134.465 57.4389 134.966 57.3164 135.39 57.4537C135.978 57.6421 136.353 58.2645 136.687 58.8861C136.738 58.9817 136.715 59.1091 136.634 59.1705C136.554 59.2311 136.447 59.2035 136.395 59.1074C136.085 58.5316 135.768 58.0019 135.299 57.8515C134.97 57.7468 134.572 57.8494 134.205 58.1342C133.657 58.56 133.249 59.297 133.056 60.2092C132.913 60.8869 132.897 61.5839 132.923 62.2261C133.219 61.8749 133.653 61.6675 134.111 61.6857C134.664 61.7092 135.215 62.0348 135.665 62.6028C136.491 63.6444 136.744 65.2367 136.294 66.5644C135.845 67.8925 134.736 68.8339 133.533 68.9073C133.53 68.9081 133.527 68.9081 133.524 68.9081Z" fill="#25292B"/>
<path d="M118.378 84.6322C118.309 84.6322 118.24 84.6301 118.17 84.626C117.004 84.5584 115.914 83.915 114.91 83.2295C114.827 83.1726 114.799 83.0469 114.846 82.948C114.894 82.8486 115.001 82.8157 115.083 82.8717C116.2 83.6343 117.155 84.1541 118.187 84.2142C119.429 84.2835 120.558 83.6273 121.277 83.0605C122.233 82.3066 123.055 81.293 123.78 80.399C123.847 80.3165 123.957 80.3153 124.025 80.3932C124.094 80.4719 124.096 80.603 124.03 80.6846C123.293 81.5943 122.457 82.6252 121.469 83.4043C120.746 83.9739 119.638 84.6322 118.378 84.6322Z" fill="#25292B"/>
<path d="M116.119 76.0178C116.03 76.0178 115.955 75.9378 115.947 75.8306C115.938 75.7177 116.008 75.6167 116.103 75.6064C116.761 75.5339 117.388 75.1526 117.822 74.5611C118.256 73.9688 118.488 73.179 118.458 72.3946C118.454 72.2808 118.528 72.1844 118.624 72.1799C118.627 72.1794 118.629 72.1794 118.632 72.1794C118.724 72.1794 118.801 72.2656 118.805 72.3765C118.839 73.2656 118.575 74.1609 118.083 74.8319C117.591 75.5029 116.881 75.9349 116.135 76.0174C116.13 76.0174 116.124 76.0178 116.119 76.0178Z" fill="#25292B"/>
<path d="M112.233 73.5849C112.2 73.5849 112.168 73.5741 112.139 73.5523C112.089 73.5144 112.06 73.4497 112.06 73.38L112.014 64.3856C112.013 64.2718 112.091 64.179 112.187 64.1782H112.188C112.283 64.1782 112.36 64.2697 112.361 64.3831L112.405 73.0618L115.539 71.3924C115.626 71.3446 115.729 71.3924 115.768 71.4963C115.808 71.6002 115.768 71.7222 115.681 71.7683L112.304 73.5667C112.282 73.5787 112.257 73.5849 112.233 73.5849Z" fill="#25292B"/>
<path d="M105.719 74.1089C102.284 74.1089 99.4893 69.966 99.4893 64.8738C99.4893 59.7815 102.284 55.6382 105.719 55.6382C109.154 55.6382 111.948 59.7815 111.948 64.8738C111.948 69.966 109.154 74.1089 105.719 74.1089ZM105.719 56.4622C102.667 56.4622 100.183 60.2354 100.183 64.8733C100.183 69.5113 102.667 73.2841 105.719 73.2841C108.771 73.2841 111.255 69.5113 111.255 64.8733C111.255 60.2354 108.771 56.4622 105.719 56.4622Z" fill="#974D4D"/>
<path d="M118.634 70.7396C115.198 70.7396 112.404 66.5967 112.404 61.5045C112.404 56.4122 115.198 52.2693 118.634 52.2693C122.068 52.2693 124.863 56.4122 124.863 61.5045C124.863 66.5967 122.068 70.7396 118.634 70.7396ZM118.634 53.0933C115.581 53.0933 113.098 56.8661 113.098 61.504C113.098 66.142 115.581 69.9148 118.634 69.9148C121.686 69.9148 124.169 66.142 124.169 61.504C124.169 56.8661 121.686 53.0933 118.634 53.0933Z" fill="#974D4D"/>
<path d="M124.31 59.5977C124.148 59.5977 124.004 59.4625 123.971 59.2663C123.933 59.0433 124.055 58.826 124.243 58.7811L129.25 57.5874C129.437 57.5421 129.62 57.6872 129.658 57.9106C129.696 58.1336 129.574 58.3508 129.386 58.3957L124.379 59.5894C124.356 59.5956 124.333 59.5977 124.31 59.5977Z" fill="#974D4D"/>
<path d="M111.558 64.2346C111.383 64.2346 111.233 64.0775 111.213 63.8661C111.193 63.6398 111.331 63.4365 111.521 63.4122L112.714 63.2605C112.91 63.2371 113.076 63.4007 113.096 63.6266C113.117 63.8529 112.978 64.0561 112.788 64.0804L111.595 64.2321C111.583 64.2337 111.57 64.2346 111.558 64.2346Z" fill="#974D4D"/>
<path d="M164.132 161.298H68.9761V149.44L94.2897 141.014L98.7821 106.18C99.6979 99.0696 103.837 93.1341 109.547 90.7434L117.952 87.2191L117.546 89.1605C118.944 92.7095 121.851 94.6303 124.8 94.6303C126.847 94.6303 128.911 93.7029 130.507 91.7573L135.589 85.558L135.28 84.0535L157.107 85.0304C164.902 86.1021 170.966 93.5792 171.58 102.874L174.557 147.898C175.035 155.124 170.231 161.298 164.132 161.298Z" fill="#974D4D"/>
<path d="M117.546 89.1604L116.119 161.298H130.84L135.589 85.5579L117.546 89.1604Z" fill="#F2E9DA"/>
<path d="M123.704 99.9135C123.665 99.9135 123.627 99.8978 123.596 99.8681C119.194 95.6679 117.399 89.2884 117.381 89.2245C117.351 89.1165 117.401 89.0003 117.492 88.9644C117.583 88.929 117.681 88.9879 117.711 89.0963C117.728 89.1585 119.471 95.3455 123.731 99.4679C124.548 99.0219 130.568 95.4766 135.439 85.4546C135.487 85.3565 135.593 85.3227 135.676 85.3792C135.759 85.436 135.787 85.5618 135.739 85.6607C130.465 96.5116 123.837 99.8652 123.771 99.8978C123.749 99.9081 123.727 99.9135 123.704 99.9135Z" fill="#25292B"/>
<path d="M109.913 161.504C109.825 161.504 109.75 161.425 109.741 161.318L108.198 142.173C107.859 141.534 104.47 135.06 103.956 130.675C103.426 126.155 108.006 108.585 108.201 107.84C108.229 107.731 108.325 107.67 108.418 107.704C108.51 107.738 108.561 107.853 108.532 107.962C108.484 108.144 103.78 126.189 104.299 130.618C104.818 135.047 108.476 141.925 108.513 141.994C108.527 142.022 108.536 142.053 108.539 142.085L110.086 161.279C110.095 161.392 110.025 161.493 109.93 161.504C109.925 161.504 109.919 161.504 109.913 161.504Z" fill="#25292B"/>
<path d="M134.119 142.311C134.097 142.311 134.073 142.306 134.051 142.295C133.963 142.25 133.922 142.129 133.96 142.024C134.056 141.756 143.638 115.008 143.686 104.061C143.733 93.1453 138.668 84.6315 138.617 84.547C138.561 84.4543 138.579 84.3257 138.656 84.2593C138.734 84.1929 138.842 84.2135 138.898 84.3063C138.95 84.392 144.081 93.0093 144.033 104.064C143.985 115.093 134.376 141.916 134.279 142.186C134.251 142.264 134.187 142.311 134.119 142.311Z" fill="#25292B"/>
<path d="M115.489 141.509C115.417 141.509 115.349 141.455 115.325 141.369C115.274 141.191 110.267 123.476 109.933 109.683C109.598 95.8416 114.812 88.3978 114.865 88.3244C114.926 88.2383 115.036 88.2276 115.109 88.301C115.182 88.3747 115.191 88.5046 115.129 88.5915C115.077 88.6641 109.949 95.9982 110.28 109.671C110.613 123.402 115.603 141.06 115.653 141.237C115.684 141.345 115.635 141.461 115.545 141.498C115.526 141.505 115.507 141.509 115.489 141.509Z" fill="#25292B"/>
<path d="M131.804 144.855L114.205 143.537C114.205 143.537 111.021 142.955 109.913 145.256C109.913 145.256 105.983 143.967 104.368 146.116C104.368 146.116 101.523 144.741 99.6904 148.121C97.858 151.501 94.5791 158.777 94.5791 158.777H113.963C113.963 158.777 115.602 161.069 122.401 161.069C129.199 161.069 131.017 158.485 131.017 158.485L131.804 144.855Z" fill="#F2E9DA"/>
<path d="M131.805 145.061C131.801 145.061 131.798 145.061 131.794 145.06L116.108 143.886C116.013 143.878 115.94 143.781 115.946 143.667C115.952 143.554 116.021 143.46 116.13 143.474L131.816 144.649C131.911 144.656 131.984 144.754 131.978 144.867C131.972 144.976 131.896 145.061 131.805 145.061Z" fill="#25292B"/>
<path d="M130.841 161.504C130.836 161.504 130.832 161.504 130.828 161.504C130.732 161.495 130.661 161.396 130.667 161.283L131.784 143.478C131.79 143.377 131.858 143.296 131.943 143.288L155.329 141.115L151.307 109.708C151.292 109.596 151.357 109.491 151.452 109.474C151.547 109.458 151.635 109.534 151.649 109.646L155.7 141.273C155.707 141.33 155.694 141.387 155.664 141.432C155.634 141.477 155.59 141.505 155.542 141.509L132.118 143.686L131.013 161.315C131.007 161.422 130.93 161.504 130.841 161.504Z" fill="#25292B"/>
<path d="M135.952 160.912C135.941 160.912 135.931 160.911 135.92 160.909C135.826 160.888 135.763 160.78 135.781 160.669L138.417 143.643C138.435 143.531 138.522 143.46 138.619 143.478C138.713 143.499 138.776 143.606 138.758 143.718L136.122 160.744C136.106 160.843 136.034 160.912 135.952 160.912Z" fill="#25292B"/>
<path d="M122.418 161.27C116.602 161.27 114.277 159.337 113.901 158.984H107C106.939 158.992 105.089 159.199 104.089 158.124C103.679 157.684 103.472 157.094 103.472 156.371C103.472 153.984 105.182 153.51 105.199 153.505L118.062 151.383C118.151 151.367 118.245 151.445 118.258 151.559C118.271 151.672 118.205 151.776 118.11 151.791L105.26 153.911C105.214 153.924 103.818 154.322 103.818 156.371C103.818 156.973 103.987 157.46 104.321 157.818C105.206 158.771 106.964 158.575 106.982 158.573L113.963 158.572C114.005 158.572 114.046 158.59 114.078 158.623C114.103 158.648 116.679 161.211 123.953 160.815C124.054 160.801 124.13 160.897 124.134 161.011C124.139 161.125 124.065 161.221 123.969 161.226C123.427 161.256 122.91 161.27 122.418 161.27Z" fill="#25292B"/>
<path d="M101.355 158.983C101.341 158.983 101.328 158.981 101.314 158.977C101.221 158.951 101.164 158.839 101.187 158.728L101.637 156.529C102.092 154.31 103.085 152.328 104.509 150.795L109.797 145.103C109.868 145.027 109.978 145.033 110.042 145.117C110.107 145.201 110.101 145.332 110.03 145.408L104.742 151.1C103.369 152.578 102.412 154.489 101.974 156.626L101.523 158.826C101.504 158.92 101.433 158.983 101.355 158.983Z" fill="#25292B"/>
<path d="M98.6307 158.983C98.6144 158.983 98.5977 158.981 98.5814 158.975C98.4895 158.943 98.4371 158.828 98.4642 158.719L99.5611 154.3C99.9114 152.889 100.48 151.589 101.251 150.438L104.233 145.987C104.292 145.898 104.402 145.883 104.477 145.954C104.552 146.024 104.564 146.154 104.504 146.243L101.522 150.695C100.779 151.804 100.231 153.056 99.8937 154.417L98.7968 158.835C98.7746 158.925 98.7056 158.983 98.6307 158.983Z" fill="#25292B"/>
<path d="M113.803 158.777H35.9941V161.986H113.803V158.777Z" fill="#25292B"/>
<path d="M35.9946 158.777H89.3645L72.0193 107.901H18.6494L35.9946 158.777Z" fill="#25292B"/>
<path d="M86.5368 158.983H36.3414C36.2457 158.983 36.168 158.891 36.168 158.777C36.168 158.663 36.2457 158.571 36.3414 158.571H86.2763L69.1621 109.756C69.1256 109.651 69.1673 109.53 69.2557 109.486C69.3432 109.444 69.4458 109.492 69.4826 109.598L86.6967 158.698C86.7186 158.761 86.713 158.834 86.6808 158.892C86.6485 158.949 86.5947 158.983 86.5368 158.983Z" fill="#F2E9DA"/>
<path d="M192.152 161.504H4.25158C4.15583 161.504 4.07812 161.412 4.07812 161.298C4.07812 161.185 4.15583 161.092 4.25158 161.092H192.152C192.248 161.092 192.326 161.185 192.326 161.298C192.326 161.412 192.248 161.504 192.152 161.504Z" fill="#25292B"/>
<path d="M183.135 39.0975C182.695 32.7333 178.053 27.7746 172.499 27.7746C172.031 27.7746 171.569 27.8076 171.122 27.8777C169.145 21.398 163.834 17.0576 157.853 17.0576C150.623 17.0576 144.636 23.2611 143.873 31.5132C138.808 33.1372 135.28 38.4092 135.28 44.3818C135.28 47.6464 136.331 50.7914 138.239 53.2316C138.274 53.2769 138.319 53.2976 138.367 53.2976H188.956C189.019 53.2976 189.074 53.2605 189.106 53.1986C189.848 51.7518 190.24 50.0907 190.24 48.3966C190.24 43.5987 187.194 39.6334 183.135 39.0975ZM188.859 52.8854H138.444C136.626 50.5276 135.627 47.5145 135.627 44.3818C135.627 38.5534 139.103 33.4093 144.077 31.8759C144.147 31.8553 144.199 31.7852 144.206 31.6987C144.893 23.5867 150.762 17.4698 157.853 17.4698C163.733 17.4698 168.954 21.769 170.841 28.1703C170.869 28.2651 170.949 28.3187 171.032 28.3063C171.504 28.228 171.996 28.1868 172.499 28.1868C177.921 28.1868 182.445 33.0672 182.799 39.2995C182.806 39.3984 182.872 39.4809 182.955 39.4891C186.91 39.926 189.893 43.7553 189.893 48.3966C189.893 49.9794 189.536 51.5292 188.859 52.8854Z" fill="#25292B"/>
<path d="M79.5167 37.0062C79.421 37.0062 79.3433 36.9138 79.3433 36.8001V35.2465C79.3433 35.1327 79.421 35.0404 79.5167 35.0404C79.6125 35.0404 79.6902 35.1327 79.6902 35.2465V36.8001C79.6902 36.9138 79.6128 37.0062 79.5167 37.0062ZM79.5167 32.9795C79.421 32.9795 79.3433 32.8871 79.3433 32.7734V30.3002C79.3433 30.1864 79.421 30.0941 79.5167 30.0941C79.6125 30.0941 79.6902 30.1864 79.6902 30.3002V32.7734C79.6902 32.8875 79.6128 32.9795 79.5167 32.9795ZM134.255 28.3835C133.679 28.3835 133.127 28.2763 132.6 28.0657C132.509 28.0294 132.461 27.9128 132.491 27.8048C132.522 27.6972 132.621 27.6399 132.711 27.6754C133.202 27.872 133.717 27.9717 134.241 27.9717C134.403 27.9717 134.548 27.9639 134.692 27.9482C134.78 27.9404 134.872 28.0216 134.881 28.135C134.889 28.2479 134.819 28.3485 134.723 28.3588C134.569 28.3749 134.413 28.3835 134.255 28.3835ZM114.352 28.3687C113.852 28.3687 113.358 28.2838 112.883 28.116C112.791 28.0834 112.739 27.9688 112.766 27.8596C112.793 27.7508 112.889 27.6898 112.982 27.7207C113.62 27.9466 114.304 28.0117 114.969 27.9099C115.062 27.8942 115.151 27.975 115.163 28.0884C115.176 28.2017 115.108 28.3044 115.013 28.3192C114.795 28.3518 114.572 28.3687 114.352 28.3687ZM94.4482 28.3687C94.0083 28.3687 93.5865 28.3073 93.1792 28.1861C93.0859 28.1585 93.0297 28.0463 93.0529 27.9363C93.0762 27.8258 93.1709 27.7586 93.2632 27.7862C93.9171 27.9808 94.6223 28.0047 95.2568 27.8765C95.347 27.8584 95.4407 27.9334 95.4566 28.0455C95.4726 28.1572 95.4088 28.264 95.3144 28.2829C95.0299 28.3398 94.7385 28.3687 94.4482 28.3687ZM79.5167 28.0331C79.421 28.0331 79.3433 27.9408 79.3433 27.827V25.3539C79.3433 25.2401 79.421 25.1478 79.5167 25.1478C79.6125 25.1478 79.6902 25.2401 79.6902 25.3539V27.827C79.6902 27.9412 79.6128 28.0331 79.5167 28.0331ZM136.681 27.6346C136.62 27.6346 136.561 27.5966 136.529 27.529C136.483 27.4301 136.512 27.3044 136.596 27.2483C137.185 26.8559 137.691 26.3304 138.096 25.6878C138.154 25.5967 138.263 25.5785 138.339 25.6461C138.416 25.7146 138.432 25.8436 138.374 25.9347C137.939 26.6243 137.398 27.1869 136.765 27.6082C136.739 27.6259 136.71 27.6346 136.681 27.6346ZM116.94 27.5064C116.881 27.5064 116.825 27.4713 116.792 27.4079C116.742 27.3106 116.768 27.1836 116.849 27.1243C117.418 26.7117 117.919 26.1494 118.299 25.4977C118.354 25.4038 118.462 25.3815 118.541 25.4458C118.619 25.5105 118.639 25.6391 118.584 25.7327C118.177 26.4305 117.64 27.0336 117.03 27.4759C117.002 27.4969 116.971 27.5064 116.94 27.5064ZM97.2054 27.3782C97.1495 27.3782 97.0947 27.346 97.0611 27.2863C97.008 27.1919 97.0295 27.0637 97.1093 27.0006C97.6636 26.5612 98.1455 25.9751 98.5031 25.3065C98.5545 25.2105 98.662 25.1824 98.7422 25.243C98.823 25.3036 98.8473 25.4314 98.7956 25.527C98.4126 26.2438 97.8961 26.8724 97.3015 27.3435C97.272 27.367 97.2383 27.3782 97.2054 27.3782ZM91.3666 27.1107C91.3292 27.1107 91.2914 27.0962 91.2594 27.067C90.6884 26.5344 90.2264 25.879 89.8871 25.1194C89.842 25.0192 89.8742 24.8943 89.9589 24.8407C90.0425 24.7871 90.1483 24.8255 90.1934 24.926C90.5056 25.6243 90.9486 26.2525 91.4735 26.7422C91.5491 26.8126 91.5619 26.9421 91.503 27.0315C91.4686 27.0839 91.4176 27.1107 91.3666 27.1107ZM111.118 26.9487C111.078 26.9487 111.038 26.9326 111.006 26.8992C110.454 26.3382 110.017 25.6597 109.705 24.8836C109.664 24.7805 109.7 24.6577 109.787 24.6087C109.873 24.5596 109.976 24.6025 110.018 24.7059C110.309 25.4297 110.717 26.0625 111.231 26.5859C111.304 26.6601 111.312 26.79 111.25 26.8765C111.216 26.9243 111.167 26.9487 111.118 26.9487ZM130.877 26.8267C130.835 26.8267 130.793 26.8085 130.76 26.7722C130.225 26.1882 129.808 25.4928 129.52 24.7043C129.482 24.6 129.522 24.4784 129.61 24.4331C129.697 24.3894 129.8 24.4355 129.838 24.5402C130.107 25.2752 130.496 25.924 130.995 26.4689C131.065 26.546 131.07 26.6762 131.005 26.7603C130.971 26.804 130.924 26.8267 130.877 26.8267ZM139.104 23.7909C139.092 23.7909 139.079 23.7892 139.066 23.7855C138.972 23.7604 138.914 23.6499 138.935 23.539C139.014 23.1248 139.055 22.6973 139.055 22.269V21.1223C139.055 21.0086 139.132 20.9162 139.228 20.9162C139.324 20.9162 139.401 21.0086 139.401 21.1223V22.269C139.401 22.7282 139.358 23.1862 139.273 23.6301C139.255 23.7261 139.183 23.7909 139.104 23.7909ZM119.239 23.5563C119.228 23.5563 119.218 23.5551 119.207 23.5526C119.113 23.5316 119.051 23.424 119.068 23.3123C119.123 22.9648 119.151 22.6091 119.151 22.2546V20.8845C119.151 20.7707 119.228 20.6784 119.324 20.6784C119.42 20.6784 119.497 20.7707 119.497 20.8845V22.2546C119.497 22.6347 119.468 23.0159 119.409 23.3882C119.394 23.4871 119.321 23.5563 119.239 23.5563ZM99.3687 23.3214C99.3604 23.3214 99.352 23.3206 99.3437 23.3193C99.249 23.3028 99.1831 23.1985 99.1966 23.086C99.2303 22.8115 99.2473 22.5316 99.2473 22.2546V20.6458C99.2473 20.5321 99.325 20.4397 99.4207 20.4397C99.5165 20.4397 99.5942 20.5321 99.5942 20.6458V22.2546C99.5942 22.5514 99.5758 22.8507 99.5404 23.1445C99.5276 23.2472 99.4533 23.3214 99.3687 23.3214ZM79.5167 23.0868C79.421 23.0868 79.3433 22.9945 79.3433 22.8807V20.4076C79.3433 20.2938 79.421 20.2015 79.5167 20.2015C79.6125 20.2015 79.6902 20.2938 79.6902 20.4076V22.8807C79.6902 22.9949 79.6128 23.0868 79.5167 23.0868ZM89.4732 22.8692C89.383 22.8692 89.3071 22.7859 89.3005 22.6771C89.2925 22.5374 89.2883 22.3968 89.2883 22.2546V20.1904C89.2883 20.0766 89.366 19.9843 89.4618 19.9843C89.5575 19.9843 89.6352 20.0766 89.6352 20.1904V22.2546C89.6352 22.3874 89.6394 22.5188 89.6467 22.6491C89.6533 22.7624 89.5811 22.861 89.4854 22.8688C89.4812 22.8692 89.477 22.8692 89.4732 22.8692ZM109.381 22.6145C109.287 22.6145 109.21 22.5254 109.208 22.4133L109.206 22.2546V19.9352C109.206 19.8215 109.284 19.7291 109.379 19.7291C109.475 19.7291 109.553 19.8215 109.553 19.9352L109.554 22.4034C109.557 22.5172 109.481 22.6116 109.385 22.6145C109.384 22.6145 109.382 22.6145 109.381 22.6145ZM129.268 22.4224C129.173 22.4224 129.095 22.3301 129.095 22.2163V19.7431C129.095 19.6294 129.173 19.537 129.268 19.537C129.364 19.537 129.442 19.6294 129.442 19.7431V22.2163C129.442 22.3301 129.364 22.4224 129.268 22.4224ZM139.228 18.8557C139.132 18.8557 139.054 18.7634 139.054 18.6496V16.1764C139.054 16.0627 139.132 15.9703 139.228 15.9703C139.323 15.9703 139.401 16.0627 139.401 16.1764V18.6496C139.401 18.7634 139.324 18.8557 139.228 18.8557ZM119.324 18.6174C119.228 18.6174 119.151 18.5251 119.151 18.4113V15.9382C119.151 15.8244 119.228 15.7321 119.324 15.7321C119.42 15.7321 119.497 15.8244 119.497 15.9382V18.4113C119.497 18.5251 119.42 18.6174 119.324 18.6174ZM99.4204 18.3788C99.3246 18.3788 99.2469 18.2864 99.2469 18.1727V15.6995C99.2469 15.5858 99.3246 15.4934 99.4204 15.4934C99.5161 15.4934 99.5938 15.5858 99.5938 15.6995V18.1727C99.5938 18.2864 99.5165 18.3788 99.4204 18.3788ZM79.5167 18.1405C79.421 18.1405 79.3433 18.0482 79.3433 17.9344V15.4613C79.3433 15.3475 79.421 15.2552 79.5167 15.2552C79.6125 15.2552 79.6902 15.3475 79.6902 15.4613V17.9344C79.6902 18.0486 79.6128 18.1405 79.5167 18.1405ZM89.4614 17.9233C89.3657 17.9233 89.288 17.831 89.288 17.7172V15.2441C89.288 15.1303 89.3657 15.038 89.4614 15.038C89.5572 15.038 89.6349 15.1303 89.6349 15.2441V17.7172C89.6349 17.831 89.5575 17.9233 89.4614 17.9233ZM109.379 17.6682C109.284 17.6682 109.206 17.5758 109.206 17.4621V14.9889C109.206 14.8751 109.284 14.7828 109.379 14.7828C109.475 14.7828 109.553 14.8751 109.553 14.9889V17.4621C109.553 17.5758 109.475 17.6682 109.379 17.6682ZM129.268 17.4761C129.173 17.4761 129.095 17.3837 129.095 17.27V14.7968C129.095 14.6831 129.173 14.5907 129.268 14.5907C129.364 14.5907 129.442 14.6831 129.442 14.7968V17.27C129.442 17.3837 129.364 17.4761 129.268 17.4761ZM149.187 17.2209C149.091 17.2209 149.013 17.1286 149.013 17.0148V14.5417C149.013 14.4279 149.091 14.3356 149.187 14.3356C149.282 14.3356 149.36 14.4279 149.36 14.5417V17.0148C149.36 17.1286 149.283 17.2209 149.187 17.2209ZM139.228 13.9094C139.132 13.9094 139.054 13.817 139.054 13.7033V11.2301C139.054 11.1164 139.132 11.024 139.228 11.024C139.323 11.024 139.401 11.1164 139.401 11.2301V13.7033C139.401 13.817 139.324 13.9094 139.228 13.9094ZM119.324 13.6711C119.228 13.6711 119.151 13.5788 119.151 13.465V10.9919C119.151 10.8781 119.228 10.7858 119.324 10.7858C119.42 10.7858 119.497 10.8781 119.497 10.9919V13.465C119.497 13.5788 119.42 13.6711 119.324 13.6711ZM99.4204 13.4325C99.3246 13.4325 99.2469 13.3401 99.2469 13.2264V10.7532C99.2469 10.6395 99.3246 10.5471 99.4204 10.5471C99.5161 10.5471 99.5938 10.6395 99.5938 10.7532V13.2264C99.5938 13.3401 99.5165 13.4325 99.4204 13.4325ZM79.5167 13.1942C79.421 13.1942 79.3433 13.1019 79.3433 12.9881V10.515C79.3433 10.4012 79.421 10.3089 79.5167 10.3089C79.6125 10.3089 79.6902 10.4012 79.6902 10.515V12.9881C79.6902 13.1023 79.6128 13.1942 79.5167 13.1942ZM89.4614 12.977C89.3657 12.977 89.288 12.8847 89.288 12.7709V10.2978C89.288 10.184 89.3657 10.0917 89.4614 10.0917C89.5572 10.0917 89.6349 10.184 89.6349 10.2978V12.7709C89.6349 12.8847 89.5575 12.977 89.4614 12.977ZM109.379 12.7219C109.284 12.7219 109.206 12.6295 109.206 12.5158V10.0426C109.206 9.92884 109.284 9.83651 109.379 9.83651C109.475 9.83651 109.553 9.92884 109.553 10.0426V12.5158C109.553 12.6295 109.475 12.7219 109.379 12.7219ZM129.268 12.5298C129.173 12.5298 129.095 12.4374 129.095 12.3237V9.85052C129.095 9.73676 129.173 9.64443 129.268 9.64443C129.364 9.64443 129.442 9.73676 129.442 9.85052V12.3237C129.442 12.4374 129.364 12.5298 129.268 12.5298ZM149.187 12.2746C149.091 12.2746 149.013 12.1823 149.013 12.0685V9.59538C149.013 9.48161 149.091 9.38928 149.187 9.38928C149.282 9.38928 149.36 9.48161 149.36 9.59538V12.0685C149.36 12.1823 149.283 12.2746 149.187 12.2746ZM139.228 8.96307C139.132 8.96307 139.054 8.87074 139.054 8.75698V8.57644C139.054 7.77679 139.182 6.99857 139.435 6.26363C139.471 6.15811 139.572 6.10782 139.661 6.1511C139.75 6.19397 139.792 6.31433 139.756 6.41985C139.52 7.1045 139.401 7.83037 139.401 8.57644V8.75698C139.401 8.87074 139.324 8.96307 139.228 8.96307ZM119.324 8.72483C119.324 8.72483 119.323 8.72483 119.323 8.72483C119.227 8.72359 119.15 8.63044 119.151 8.51667C119.158 7.65272 119.314 6.81844 119.614 6.03692C119.654 5.93305 119.758 5.88895 119.844 5.93511C119.931 5.98251 119.969 6.10493 119.93 6.2084C119.649 6.93674 119.504 7.71455 119.498 8.52038C119.497 8.63373 119.42 8.72483 119.324 8.72483ZM99.4259 8.48617C99.4231 8.48617 99.4204 8.48617 99.4179 8.48576C99.3225 8.4804 99.2483 8.38436 99.2528 8.27059C99.2868 7.40746 99.4689 6.5806 99.795 5.8131C99.838 5.7117 99.9428 5.6709 100.028 5.72201C100.113 5.77312 100.148 5.89719 100.105 5.999C99.8013 6.71415 99.6313 7.48496 99.5994 8.28997C99.5949 8.40002 99.5182 8.48617 99.4259 8.48617ZM79.5361 8.24833C79.5309 8.24833 79.5261 8.24792 79.5209 8.24751C79.4255 8.23803 79.3547 8.13787 79.363 8.02451C79.4258 7.1655 79.636 6.34854 79.9885 5.59505C80.035 5.4953 80.1408 5.46068 80.2244 5.51509C80.308 5.57073 80.3382 5.69604 80.2917 5.79579C79.9632 6.49734 79.7668 7.25948 79.7086 8.05996C79.7009 8.16754 79.6249 8.24833 79.5361 8.24833ZM89.4229 8.03276C89.3369 8.03276 89.262 7.95609 89.2512 7.85222C89.1679 7.05504 88.9484 6.30237 88.598 5.61442C88.5484 5.51715 88.5747 5.39019 88.6566 5.33125C88.7385 5.27313 88.8453 5.30363 88.8949 5.40091C89.2706 6.13873 89.5065 6.94622 89.5957 7.80111C89.6075 7.91405 89.5402 8.01668 89.4448 8.03111C89.4375 8.03234 89.4299 8.03276 89.4229 8.03276ZM109.31 7.78091C109.227 7.78091 109.154 7.7096 109.14 7.60903C109.028 6.81762 108.781 6.07649 108.406 5.40709C108.352 5.31229 108.374 5.1841 108.454 5.12144C108.533 5.05879 108.641 5.08311 108.694 5.17874C109.097 5.89719 109.362 6.6919 109.482 7.5406C109.498 7.65272 109.434 7.75906 109.34 7.77802C109.33 7.78008 109.32 7.78091 109.31 7.78091ZM129.167 7.59254C129.087 7.59254 129.014 7.52535 128.997 7.42807C128.862 6.64202 128.594 5.91203 128.199 5.25747C128.143 5.16514 128.161 5.03653 128.238 4.97017C128.315 4.9034 128.424 4.92442 128.48 5.01757C128.904 5.71912 129.192 6.50229 129.337 7.34481C129.356 7.45651 129.296 7.56533 129.202 7.58841C129.191 7.5913 129.179 7.59254 129.167 7.59254ZM149.038 7.34357C148.96 7.34357 148.89 7.28133 148.87 7.18735C148.706 6.40954 148.411 5.69398 147.993 5.06044C147.934 4.97099 147.947 4.84157 148.022 4.77108C148.097 4.70142 148.206 4.71585 148.266 4.80612C148.714 5.485 149.031 6.25291 149.207 7.0876C149.23 7.19807 149.174 7.30977 149.081 7.33739C149.067 7.34151 149.052 7.34357 149.038 7.34357ZM140.758 4.51841C140.712 4.51841 140.667 4.49697 140.633 4.45493C140.567 4.3729 140.569 4.24224 140.638 4.16351C141.163 3.56583 141.774 3.11489 142.454 2.82306C142.545 2.78637 142.643 2.83996 142.676 2.94713C142.709 3.0543 142.662 3.1726 142.572 3.21135C141.937 3.48298 141.367 3.90383 140.878 4.46152C140.844 4.49945 140.801 4.51841 140.758 4.51841ZM121.002 4.35683C120.954 4.35683 120.907 4.33333 120.872 4.28758C120.808 4.20226 120.815 4.072 120.887 3.99657C121.431 3.42362 122.057 3.00236 122.747 2.74392C122.838 2.71094 122.936 2.76989 122.964 2.87829C122.993 2.98711 122.943 3.10253 122.851 3.13674C122.208 3.37787 121.624 3.77069 121.117 4.30489C121.084 4.33993 121.043 4.35683 121.002 4.35683ZM101.242 4.19648C101.191 4.19648 101.142 4.17052 101.107 4.12105C101.047 4.03284 101.057 3.903 101.131 3.83087C101.694 3.28307 102.332 2.89066 103.03 2.66354C103.124 2.63428 103.218 2.69858 103.243 2.80822C103.268 2.91828 103.214 3.03122 103.121 3.06131C102.471 3.27276 101.875 3.63879 101.351 4.14991C101.319 4.18123 101.281 4.19648 101.242 4.19648ZM81.4955 4.04974C81.4431 4.04974 81.391 4.02171 81.357 3.96813C81.2995 3.87704 81.3147 3.74802 81.391 3.67918C81.9711 3.159 82.6226 2.79709 83.3282 2.60377C83.4225 2.57781 83.5144 2.64747 83.5363 2.75835C83.5578 2.86923 83.4999 2.97969 83.4062 3.00566C82.7488 3.1862 82.141 3.52338 81.6006 4.00894C81.5687 4.03614 81.5322 4.04974 81.4955 4.04974ZM87.3346 3.92196C87.2999 3.92196 87.2655 3.91001 87.2353 3.88487C86.6799 3.42362 86.0625 3.11324 85.3992 2.96197C85.3052 2.94012 85.2438 2.83254 85.2618 2.72042C85.2798 2.60831 85.369 2.53576 85.4651 2.5572C86.1762 2.7196 86.8388 3.05265 87.4341 3.54687C87.5129 3.612 87.5319 3.74101 87.4771 3.83376C87.4431 3.89146 87.3894 3.92196 87.3346 3.92196ZM107.074 3.78017C107.042 3.78017 107.01 3.76987 106.981 3.74802C106.41 3.31604 105.782 3.0374 105.114 2.92075C105.019 2.90385 104.953 2.79915 104.967 2.68663C104.982 2.57451 105.069 2.49949 105.164 2.51268C105.881 2.6384 106.555 2.93683 107.167 3.40013C107.248 3.46113 107.272 3.58891 107.22 3.68454C107.188 3.74637 107.132 3.78017 107.074 3.78017ZM126.815 3.68702C126.785 3.68702 126.755 3.67795 126.727 3.65857C126.144 3.25133 125.508 2.99948 124.836 2.91045C124.741 2.89767 124.673 2.79586 124.683 2.6825C124.694 2.56915 124.783 2.48919 124.875 2.50073C125.596 2.59636 126.278 2.86675 126.904 3.30368C126.986 3.36138 127.014 3.48751 126.965 3.58603C126.932 3.65074 126.874 3.68702 126.815 3.68702ZM146.546 3.56253C146.518 3.56253 146.49 3.5547 146.465 3.53821C145.868 3.16188 145.224 2.94301 144.548 2.88777C144.453 2.87953 144.381 2.78143 144.387 2.66808C144.394 2.55472 144.474 2.46445 144.572 2.47641C145.297 2.53576 145.988 2.77071 146.627 3.17425C146.712 3.22783 146.744 3.35273 146.699 3.45289C146.668 3.52255 146.608 3.56253 146.546 3.56253Z" fill="#25292B"/>
<path d="M159.225 76.6051C159.129 76.6051 159.052 76.5128 159.052 76.399V73.9259C159.052 73.8121 159.129 73.7198 159.225 73.7198C159.321 73.7198 159.399 73.8121 159.399 73.9259V76.399C159.399 76.5132 159.321 76.6051 159.225 76.6051ZM159.225 71.6588C159.129 71.6588 159.052 71.5665 159.052 71.4527V68.9796C159.052 68.8658 159.129 68.7735 159.225 68.7735C159.321 68.7735 159.399 68.8658 159.399 68.9796V71.4527C159.399 71.5669 159.321 71.6588 159.225 71.6588ZM159.225 66.7125C159.129 66.7125 159.052 66.6202 159.052 66.5064V64.0333C159.052 63.9195 159.129 63.8272 159.225 63.8272C159.321 63.8272 159.399 63.9195 159.399 64.0333V66.5064C159.399 66.6206 159.321 66.7125 159.225 66.7125ZM159.225 61.7662C159.129 61.7662 159.052 61.6739 159.052 61.5601V59.087C159.052 58.9732 159.129 58.8809 159.225 58.8809C159.321 58.8809 159.399 58.9732 159.399 59.087V61.5601C159.399 61.6743 159.321 61.7662 159.225 61.7662ZM159.225 56.8199C159.129 56.8199 159.052 56.7276 159.052 56.6138V54.1407C159.052 54.0269 159.129 53.9346 159.225 53.9346C159.321 53.9346 159.399 54.0269 159.399 54.1407V56.6138C159.399 56.728 159.321 56.8199 159.225 56.8199Z" fill="#25292B"/>
<path d="M47.9622 71.5815H4.56543V103.473H47.9622V71.5815Z" fill="#F2E9DA"/>
<path d="M46.5153 72.7324H6.01172V79.4359H46.5153V72.7324Z" fill="#974D4D"/>
<path d="M39.1288 78.361C39.0757 78.361 39.0223 78.3404 38.9776 78.298L36.8691 76.2968C36.8115 76.2419 36.7778 76.1591 36.7778 76.0713C36.7778 75.9835 36.8115 75.9006 36.8691 75.8458L38.9505 73.8702C39.0553 73.7708 39.2079 73.791 39.2915 73.9155C39.3751 74.04 39.3581 74.2214 39.2533 74.3207L37.4095 76.0709L39.2804 77.8466C39.3852 77.9459 39.4022 78.1273 39.3186 78.2518C39.2707 78.3239 39.2003 78.361 39.1288 78.361Z" fill="#F2E9DA"/>
<path d="M42.3576 78.3612C42.2865 78.3612 42.2157 78.3241 42.1678 78.2528C42.0842 78.1283 42.1012 77.9469 42.206 77.8476L44.0768 76.0719L42.233 74.3217C42.1283 74.2223 42.1113 74.041 42.1949 73.9165C42.2785 73.792 42.4315 73.7718 42.5359 73.8712L44.6173 75.8468C44.6749 75.9016 44.7085 75.9845 44.7085 76.0723C44.7085 76.1601 44.6749 76.2429 44.6173 76.2977L42.5088 78.2989C42.4641 78.3406 42.4106 78.3612 42.3576 78.3612Z" fill="#F2E9DA"/>
<path d="M40.2702 78.8903C40.2362 78.8956 40.2011 78.8927 40.1661 78.88C40.0381 78.833 39.9659 78.6718 40.0055 78.5197L41.3102 73.4798C41.3494 73.3277 41.4854 73.242 41.6134 73.289C41.7414 73.336 41.8135 73.4972 41.774 73.6493L40.4693 78.6891C40.4408 78.8004 40.3607 78.8758 40.2702 78.8903Z" fill="#F2E9DA"/>
<path d="M27.7855 84.0764H6.01172V86.1963H27.7855V84.0764Z" fill="#804C00"/>
<path d="M39.372 84.0764H28.7744V86.1963H39.372V84.0764Z" fill="#974D4D"/>
<path d="M46.5153 84.0764H40.4604V86.1963H46.5153V84.0764Z" fill="#25292B"/>
<path d="M46.5704 91.0098H31.7344V88.8899H46.5704" fill="#804C00"/>
<path d="M20.1485 91.0095H30.7461V88.8896H20.1485V91.0095Z" fill="#974D4D"/>
<path d="M6.06641 88.8899H19.0594V91.0098H6.06641" fill="#25292B"/>
<path d="M13.964 94.1028H6.06641V96.2227H13.964V94.1028Z" fill="#974D4D"/>
<path d="M36.9986 94.1028H14.9531V96.2227H36.9986V94.1028Z" fill="#804C00"/>
<path d="M46.5701 94.1028H38.0869V96.2227H46.5701V94.1028Z" fill="#25292B"/>
<path d="M46.6252 101.036H40.1152V98.916H46.6252" fill="#804C00"/>
<path d="M20.2037 101.036H39.127V98.9157H20.2037V101.036Z" fill="#974D4D"/>
<path d="M6.12158 98.916H19.1145V101.036H6.12158" fill="#25292B"/>
<path d="M94.011 39.7573H50.6143V103.473H94.011V39.7573Z" fill="#F2E9DA"/>
<path d="M92.5651 40.9092H52.0615V47.6127H92.5651V40.9092Z" fill="#974D4D"/>
<path d="M85.1786 46.537C85.1255 46.537 85.0721 46.5164 85.0274 46.474L82.9189 44.4728C82.8613 44.418 82.8276 44.3351 82.8276 44.2473C82.8276 44.1595 82.8613 44.0767 82.9189 44.0218L85.0003 42.0462C85.1051 41.9469 85.2577 41.9671 85.3413 42.0915C85.4249 42.216 85.4079 42.3974 85.3031 42.4967L83.4593 44.2469L85.3302 46.0226C85.435 46.122 85.452 46.3033 85.3684 46.4278C85.3205 46.4999 85.2497 46.537 85.1786 46.537Z" fill="#F2E9DA"/>
<path d="M88.4069 46.5369C88.3354 46.5369 88.265 46.4998 88.2171 46.4285C88.1335 46.3041 88.1505 46.1227 88.2553 46.0234L90.1261 44.2476L88.2824 42.4975C88.1776 42.3981 88.1606 42.2168 88.2442 42.0923C88.3278 41.9678 88.4808 41.9476 88.5852 42.0469L90.6666 44.0226C90.7242 44.0774 90.7579 44.1602 90.7579 44.248C90.7579 44.3358 90.7242 44.4187 90.6666 44.4735L88.5581 46.4747C88.5137 46.5163 88.4603 46.5369 88.4069 46.5369Z" fill="#F2E9DA"/>
<path d="M86.32 47.0665C86.286 47.0719 86.2509 47.069 86.2159 47.0562C86.0879 47.0092 86.0157 46.8481 86.0553 46.696L87.36 41.6561C87.3992 41.504 87.5352 41.4183 87.6632 41.4653C87.7912 41.5123 87.8633 41.6734 87.8238 41.8255L86.5191 46.8654C86.4906 46.9763 86.4105 47.0517 86.32 47.0665Z" fill="#F2E9DA"/>
<path d="M59.2598 89.958H76.3477V87.8381H59.2598V89.958Z" fill="#974D4D"/>
<path d="M52.1165 89.9578H58.1714V87.8379H52.1165V89.9578Z" fill="#25292B"/>
<path d="M52.0615 83.0249H66.8976V85.1448H52.0615" fill="#25292B"/>
<path d="M78.4833 83.0249H67.8857V85.1448H78.4833V83.0249Z" fill="#974D4D"/>
<path d="M92.5647 85.1448H79.5718V83.0249H92.5647" fill="#804C00"/>
<path d="M84.6673 79.9314H92.5649V77.8115H84.6673V79.9314Z" fill="#974D4D"/>
<path d="M61.6333 79.9314H83.6787V77.8115H61.6333V79.9314Z" fill="#804C00"/>
<path d="M52.0617 79.9314H60.5449V77.8115H52.0617V79.9314Z" fill="#25292B"/>
<path d="M78.4284 72.9985H73.1846V75.1184H78.4284V72.9985Z" fill="#974D4D"/>
<path d="M92.5099 75.1184H79.5166V72.9985H92.5099" fill="#25292B"/>
<path d="M73.1847 69.2119H92.6748V67.092H73.1847V69.2119Z" fill="#804C00"/>
<path d="M78.5383 62.2791H73.1846V64.399H78.5383V62.2791Z" fill="#25292B"/>
<path d="M92.6425 64.399H79.6495L79.627 62.2791H92.6199" fill="#974D4D"/>
<path d="M84.7225 59.1855H92.6201V57.0656H84.7225V59.1855Z" fill="#974D4D"/>
<path d="M73.1844 59.1858H83.7334V57.0659H73.1844V59.1858Z" fill="#804C00"/>
<path d="M78.4835 52.2532H73.1846V54.3731H78.4835V52.2532Z" fill="#974D4D"/>
<path d="M92.5647 54.3731H79.5718V52.2532H92.5647" fill="#25292B"/>
<path d="M51.9614 98.0796H66.7975V100.199H51.9614" fill="#804C00"/>
<path d="M76.3476 98.0796H67.7856V100.199H76.3476V98.0796Z" fill="#25292B"/>
<path d="M51.9616 94.9866H60.4448V92.8667H51.9616V94.9866Z" fill="#25292B"/>
<path d="M95.4237 90.4154V107.864C95.4237 108.416 95.0421 108.869 94.5773 108.869H79.303C78.8347 108.869 78.4531 108.416 78.4531 107.864V90.4154C78.4531 89.8631 78.8347 89.4097 79.303 89.4097H94.5773C95.0421 89.4097 95.4237 89.8631 95.4237 90.4154Z" fill="#804C00"/>
<path d="M76.3474 94.9861H61.5093V92.8662H76.3474" fill="#804C00"/>
<path d="M94.0728 106.616H80.6101C80.2379 106.616 79.9351 106.256 79.9351 105.814V91.6052C79.9351 91.1633 80.2379 90.8035 80.6101 90.8035H94.0728C94.445 90.8035 94.7479 91.1633 94.7479 91.6052V105.814C94.7479 106.256 94.445 106.616 94.0728 106.616ZM80.6101 91.2157C80.4294 91.2157 80.282 91.3904 80.282 91.6052V105.814C80.282 106.029 80.4291 106.204 80.6101 106.204H94.0728C94.2535 106.204 94.401 106.029 94.401 105.814V91.6052C94.401 91.3904 94.2539 91.2157 94.0728 91.2157H80.6101Z" fill="#F2E9DA"/>
<path d="M84.8695 103.009C84.7883 103.009 84.7065 102.97 84.6378 102.89L81.4098 99.1115C81.3217 99.008 81.27 98.8514 81.27 98.6861C81.27 98.5204 81.3214 98.3637 81.4098 98.2607L84.5965 94.5303C84.7568 94.3428 84.9906 94.3811 85.1186 94.6161C85.2466 94.851 85.2206 95.1936 85.0603 95.3815L82.2372 98.6865L85.1016 102.04C85.2619 102.227 85.2882 102.57 85.1599 102.805C85.0867 102.939 84.9788 103.009 84.8695 103.009Z" fill="#F2E9DA"/>
<path d="M89.8129 103.009C89.7036 103.009 89.5957 102.939 89.5222 102.804C89.3942 102.569 89.4202 102.226 89.5805 102.039L92.4449 98.6858L89.6218 95.3808C89.4615 95.1932 89.4351 94.8503 89.5635 94.6154C89.6918 94.3804 89.9256 94.3421 90.0856 94.5296L93.2722 98.2599C93.3603 98.3634 93.412 98.52 93.412 98.6853C93.412 98.851 93.3607 99.0077 93.2722 99.1107L90.0443 102.889C89.9759 102.97 89.8941 103.009 89.8129 103.009Z" fill="#F2E9DA"/>
<path d="M86.6165 104.008C86.5645 104.019 86.5107 104.013 86.4573 103.989C86.2613 103.9 86.151 103.596 86.2113 103.309L88.2088 93.7915C88.2692 93.5038 88.477 93.3422 88.6733 93.4312C88.8693 93.5198 88.9796 93.8244 88.9193 94.1117L86.9218 103.629C86.8777 103.838 86.7556 103.981 86.6165 104.008Z" fill="#F2E9DA"/>
<path d="M71.5878 50.9971H52.1719V57.7195H71.5878V50.9971Z" fill="#974D4D"/>
<path d="M71.5878 59.8108H52.1719V66.5332H71.5878V59.8108Z" fill="#974D4D"/>
<path d="M71.5878 68.5193H52.1719V75.2417H71.5878V68.5193Z" fill="#974D4D"/>
<path d="M69.5028 59.4391H54.2563V58.0818H69.5028V59.4391ZM54.6033 59.0269H69.1559V58.494H54.6033V59.0269Z" fill="#25292B"/>
<path d="M69.5028 68.278H54.2563V66.9207H69.5028V68.278ZM54.6033 67.8658H69.1559V67.3328H54.6033V67.8658Z" fill="#25292B"/>
<path d="M54.7859 56.2305C53.9526 56.2305 53.2744 55.4247 53.2744 54.4346C53.2744 53.4445 53.9526 52.6387 54.7859 52.6387C55.6191 52.6387 56.2973 53.4445 56.2973 54.4346C56.2977 55.4251 55.6191 56.2305 54.7859 56.2305ZM54.7859 53.0509C54.1434 53.0509 53.6213 53.6716 53.6213 54.4346C53.6213 55.1976 54.1438 55.8183 54.7859 55.8183C55.428 55.8183 55.9504 55.1976 55.9504 54.4346C55.9504 53.6716 55.4283 53.0509 54.7859 53.0509Z" fill="#25292B"/>
<path d="M54.7859 64.709C53.9526 64.709 53.2744 63.9032 53.2744 62.9131C53.2744 61.923 53.9526 61.1172 54.7859 61.1172C55.6191 61.1172 56.2973 61.923 56.2973 62.9131C56.2977 63.9036 55.6191 64.709 54.7859 64.709ZM54.7859 61.5294C54.1434 61.5294 53.6213 62.1501 53.6213 62.9131C53.6213 63.6761 54.1438 64.2968 54.7859 64.2968C55.428 64.2968 55.9504 63.6761 55.9504 62.9131C55.9504 62.1501 55.4283 61.5294 54.7859 61.5294Z" fill="#25292B"/>
<path d="M54.7859 73.8692C53.9526 73.8692 53.2744 73.0633 53.2744 72.0733C53.2744 71.0828 53.9526 70.2773 54.7859 70.2773C55.6191 70.2773 56.2973 71.0832 56.2973 72.0733C56.2977 73.0633 55.6191 73.8692 54.7859 73.8692ZM54.7859 70.6891C54.1434 70.6891 53.6213 71.3099 53.6213 72.0729C53.6213 72.8358 54.1438 73.4566 54.7859 73.4566C55.428 73.4566 55.9504 72.8358 55.9504 72.0729C55.9504 71.3099 55.4283 70.6891 54.7859 70.6891Z" fill="#25292B"/>
<path d="M63.0492 55.2224C63.4153 55.2224 63.7121 54.8697 63.7121 54.4347C63.7121 53.9996 63.4153 53.647 63.0492 53.647C62.683 53.647 62.3862 53.9996 62.3862 54.4347C62.3862 54.8697 62.683 55.2224 63.0492 55.2224Z" fill="#F2E9DA"/>
<path d="M69.5623 55.2224C69.9285 55.2224 70.2253 54.8697 70.2253 54.4347C70.2253 53.9996 69.9285 53.647 69.5623 53.647C69.1962 53.647 68.8994 53.9996 68.8994 54.4347C68.8994 54.8697 69.1962 55.2224 69.5623 55.2224Z" fill="#F2E9DA"/>
<path d="M66.4085 55.2224C66.7747 55.2224 67.0715 54.8697 67.0715 54.4347C67.0715 53.9996 66.7747 53.647 66.4085 53.647C66.0424 53.647 65.7456 53.9996 65.7456 54.4347C65.7456 54.8697 66.0424 55.2224 66.4085 55.2224Z" fill="#F2E9DA"/>
<path d="M63.0492 63.9597C63.4153 63.9597 63.7121 63.607 63.7121 63.172C63.7121 62.7369 63.4153 62.3843 63.0492 62.3843C62.683 62.3843 62.3862 62.7369 62.3862 63.172C62.3862 63.607 62.683 63.9597 63.0492 63.9597Z" fill="#F2E9DA"/>
<path d="M69.5623 63.9597C69.9285 63.9597 70.2253 63.607 70.2253 63.172C70.2253 62.7369 69.9285 62.3843 69.5623 62.3843C69.1962 62.3843 68.8994 62.7369 68.8994 63.172C68.8994 63.607 69.1962 63.9597 69.5623 63.9597Z" fill="#F2E9DA"/>
<path d="M66.4085 63.9597C66.7747 63.9597 67.0715 63.607 67.0715 63.172C67.0715 62.7369 66.7747 62.3843 66.4085 62.3843C66.0424 62.3843 65.7456 62.7369 65.7456 63.172C65.7456 63.607 66.0424 63.9597 66.4085 63.9597Z" fill="#F2E9DA"/>
<path d="M63.0492 72.861C63.4153 72.861 63.7121 72.5084 63.7121 72.0733C63.7121 71.6383 63.4153 71.2856 63.0492 71.2856C62.683 71.2856 62.3862 71.6383 62.3862 72.0733C62.3862 72.5084 62.683 72.861 63.0492 72.861Z" fill="#F2E9DA"/>
<path d="M69.5623 72.861C69.9285 72.861 70.2253 72.5084 70.2253 72.0733C70.2253 71.6383 69.9285 71.2856 69.5623 71.2856C69.1962 71.2856 68.8994 71.6383 68.8994 72.0733C68.8994 72.5084 69.1962 72.861 69.5623 72.861Z" fill="#F2E9DA"/>
<path d="M66.4085 72.861C66.7747 72.861 67.0715 72.5084 67.0715 72.0733C67.0715 71.6383 66.7747 71.2856 66.4085 71.2856C66.0424 71.2856 65.7456 71.6383 65.7456 72.0733C65.7456 72.5084 66.0424 72.861 66.4085 72.861Z" fill="#F2E9DA"/>
</svg>
