<svg width="240" height="168" viewBox="0 0 240 168" fill="none" xmlns="http://www.w3.org/2000/svg">
<path opacity="0.32" d="M13.2471 143.45C13.2471 87.5941 24.4004 4.86694 118.673 4.86694C209.227 4.86694 224.098 87.5941 224.098 143.45H13.2471Z" fill="#69ADF7"/>
<path d="M68.9767 91.1851L71.9934 89.1405L69.1111 83.4051L65.5649 84.3961L61.5683 79.9452L63.1149 76.7277L57.629 73.1434L55.0744 75.7026L49.2938 73.765L48.956 70.2362L42.3373 69.7634L41.4588 73.2051L35.4424 74.3L33.311 71.406L27.3323 74.1711L28.3648 77.573L23.725 81.4069L20.371 79.9233L16.6347 85.1858L19.3024 87.6365L17.2826 93.1824L13.6047 93.5059L13.1118 99.8557L16.6995 100.698L17.8408 106.47L14.8241 108.515L17.7065 114.25L21.2527 113.259L25.2493 117.71L23.7022 120.927L29.188 124.512L31.7427 121.953L37.5238 123.89L37.8611 127.419L44.4803 127.892L45.3593 124.45L51.3757 123.355L53.5071 126.249L59.4858 123.484L58.4528 120.082L63.0926 116.248L66.4465 117.732L70.1829 112.469L67.5151 110.019L69.5349 104.473L73.2129 104.149L73.7058 97.7994L70.1181 96.9567L68.9767 91.1851ZM46.5628 113.092C38.3502 114.764 30.28 109.732 28.5374 101.854C26.7948 93.9756 32.0401 86.2339 40.2527 84.5622C48.4652 82.8906 56.5355 87.9223 58.278 95.8007C60.0206 103.678 54.7759 111.421 46.5628 113.092Z" fill="#A4BBF9"/>
<path d="M118.601 37.7999L123.432 35.8077L121.184 27.0042L115.941 27.3787L111.747 20.048L114.891 16.0062L108.357 9.46023L104.011 12.2996L96.558 7.96283L97.1746 2.95398L88.1038 0.419757L85.8206 4.96292L77.1056 4.78205L75.0289 0.148193L65.8518 2.30387L66.2422 7.3336L58.6011 11.3571L54.3878 8.34036L47.5641 14.6092L50.524 18.7779L46.0032 25.9276L40.7818 25.3361L38.1395 34.0383L42.8754 36.2286L42.6869 44.5884L37.8564 46.5805L40.1036 55.3841L45.3467 55.0096L49.5409 62.3402L46.3957 66.382L52.9304 72.928L57.276 70.0886L64.7291 74.4254L64.1119 79.4343L73.1833 81.969L75.4671 77.4258L84.1815 77.6067L86.2582 82.2406L95.4353 80.0849L95.0449 75.0552L102.687 71.0317L106.9 74.0484L113.724 67.7796L110.764 63.6109L115.285 56.4611L120.506 57.0527L123.149 48.3505L118.412 46.1602L118.601 37.7999ZM80.6438 61.9525C68.6933 61.9525 59.0053 52.6588 59.0053 41.1941C59.0053 29.7295 68.6933 20.4363 80.6438 20.4363C92.5943 20.4363 102.283 29.73 102.283 41.1941C102.283 52.6583 92.5949 61.9525 80.6438 61.9525Z" fill="#A4BBF9"/>
<path d="M128.93 140.988C164.945 140.988 194.142 112.98 194.142 78.4306C194.142 43.8812 164.945 15.8733 128.93 15.8733C92.9149 15.8733 63.7188 43.8812 63.7188 78.4306C63.7188 112.98 92.9149 140.988 128.93 140.988Z" stroke="white" stroke-width="3.4444" stroke-miterlimit="10" stroke-dasharray="13.78 13.78"/>
<path d="M229.404 87.7828C229.695 93.2309 216.771 94.7303 198.744 96.8406C180.717 98.9504 162.715 110.06 162.715 110.06C162.715 110.06 172.059 88.0717 194.344 81.596C216.629 75.1209 229.12 82.4708 229.404 87.7828Z" fill="#82AD85"/>
<path d="M222.165 86.8315C222.165 86.8315 185.591 80.1551 162.715 110.06" stroke="white" stroke-width="0.9219" stroke-miterlimit="10" stroke-linecap="round"/>
<path d="M220.319 82.7463L215.97 86.2506L220.319 90.2945" stroke="white" stroke-width="0.9219" stroke-miterlimit="10" stroke-linecap="round"/>
<path d="M210.526 80.4788L204.287 86.7471L212.655 92.4142" stroke="white" stroke-width="0.9219" stroke-miterlimit="10" stroke-linecap="round"/>
<path d="M197.791 82.7463L193.748 88.901L200.022 94.56" stroke="white" stroke-width="0.9219" stroke-miterlimit="10" stroke-linecap="round"/>
<path d="M176.601 94.5601L175.34 97.7561L177.544 99.4481" stroke="white" stroke-width="0.9219" stroke-miterlimit="10" stroke-linecap="round"/>
<path d="M194.06 47.4786C193.759 46.4825 183.13 50.2018 183.13 50.2018C183.13 50.2018 183.451 58.8036 182.439 58.9279C181.427 59.0528 175.34 54.5753 175.34 54.5753C175.34 54.5753 166.572 60.5955 162.715 68.8789C162.715 68.8789 167.942 74.4344 167.658 75.9349C167.374 77.4353 157.58 78.9995 157.58 78.9995C157.58 78.9995 155.942 86.7683 156.406 93.5394C156.406 93.5394 161.271 95.0007 161.271 95.6814C161.271 96.3621 156.323 99.9025 156.323 99.9025C156.323 99.9025 155.587 107.936 156.654 109.162C157.722 110.387 166.948 105.758 166.948 105.758C166.948 105.758 167.34 100.039 168.493 98.9493C169.645 97.86 174.692 102.081 174.692 102.081C174.692 102.081 183.056 94.5737 186.287 90.2935C189.517 86.0132 189.865 84.1551 189.865 84.1551C189.865 84.1551 182.173 80.4276 182.438 78.9995C182.704 77.5714 194.059 75.9349 194.059 75.9349C194.059 75.9349 195.763 67.5496 195.763 62.6885C195.763 62.6885 188.524 63.2459 188.098 61.9666C187.672 60.6872 195.763 55.4379 195.763 55.4379C195.763 55.4379 195.337 51.6997 194.06 47.4786Z" fill="#8BBB90"/>
<path d="M191.505 50.2024C191.505 50.2024 172.047 85.1425 156.654 109.163" stroke="white" stroke-width="0.9219" stroke-miterlimit="10" stroke-linecap="round"/>
<path d="M224.9 102.822C225.065 103.684 211.677 123.161 189.607 124.591C167.535 126.022 158.108 114.874 158.108 114.874C158.108 114.874 168.772 100.723 186.668 97.7513C204.565 94.7804 224.656 101.536 224.9 102.822Z" fill="#8BBB90"/>
<path d="M158.108 114.875C158.108 114.875 191.083 106.517 216.173 105.075" stroke="white" stroke-width="0.9219" stroke-miterlimit="10" stroke-linecap="round"/>
<path d="M209.996 100.845L205.984 105.965L212.096 110.139" stroke="white" stroke-width="0.9219" stroke-miterlimit="10" stroke-linecap="round"/>
<path d="M201.337 100.276L196.599 107.203L204.709 114.814" stroke="white" stroke-width="0.9219" stroke-miterlimit="10" stroke-linecap="round"/>
<path d="M177.441 104.655L173.597 111.36L177.857 118.383" stroke="white" stroke-width="0.9219" stroke-miterlimit="10" stroke-linecap="round"/>
<path d="M189.617 122.297C189.617 122.297 189.497 126.525 190.324 129.361" stroke="#BA5454" stroke-width="0.9219" stroke-miterlimit="10" stroke-linecap="round"/>
<path d="M77.2946 63.1229C76.9855 62.2899 76.7428 57.923 76.7428 57.923V40.5441C76.7428 37.8403 74.458 35.6489 71.6399 35.6489H27.1317C24.3136 35.6489 22.0288 37.8408 22.0288 40.5441V65.0845C22.0288 67.7878 24.3136 69.9797 27.1317 69.9797H67.0362H71.6399H83.9872C83.9872 69.9797 78.2559 65.7122 77.2946 63.1229Z" fill="#69ADF7"/>
<path d="M39.4373 51.6688C41.0296 50.1413 41.0296 47.6648 39.4373 46.1373C37.8451 44.6099 35.2635 44.6099 33.6712 46.1373C32.0789 47.6648 32.0789 50.1413 33.6712 51.6688C35.2635 53.1963 37.8451 53.1963 39.4373 51.6688Z" fill="#1F3E56"/>
<path d="M29.7021 61.2105C29.7021 57.5798 32.7704 54.6365 36.5551 54.6365C40.3398 54.6365 43.408 57.5798 43.408 61.2105H29.7021Z" fill="#1F3E56"/>
<path d="M70.2593 48.9035H46.9387C46.2148 48.9035 45.6279 48.3405 45.6279 47.6461C45.6279 46.9517 46.2148 46.3887 46.9387 46.3887H70.2593C70.9832 46.3887 71.5701 46.9517 71.5701 47.6461C71.5701 48.3405 70.9832 48.9035 70.2593 48.9035Z" fill="#1F3E56"/>
<path d="M70.2593 53.5874H46.9387C46.2148 53.5874 45.6279 53.0244 45.6279 52.3299C45.6279 51.6355 46.2148 51.0725 46.9387 51.0725H70.2593C70.9832 51.0725 71.5701 51.6355 71.5701 52.3299C71.5701 53.0244 70.9832 53.5874 70.2593 53.5874Z" fill="#1F3E56"/>
<path d="M58.3135 58.7815H46.9387C46.2148 58.7815 45.6279 58.2185 45.6279 57.524C45.6279 56.8296 46.2148 56.2666 46.9387 56.2666H58.3135C59.0374 56.2666 59.6243 56.8296 59.6243 57.524C59.6238 58.2185 59.0369 58.7815 58.3135 58.7815Z" fill="#1F3E56"/>
<path d="M76.7428 41.1945H22.0288V40.4965C22.0288 37.8196 24.2908 35.6497 27.0813 35.6497H71.6898C74.4803 35.6497 76.7428 37.8196 76.7428 40.4965V41.1945Z" fill="#1F3E56"/>
<path d="M65.1231 39.9604C65.8992 39.9604 66.5284 39.3568 66.5284 38.6123C66.5284 37.8677 65.8992 37.2642 65.1231 37.2642C64.347 37.2642 63.7178 37.8677 63.7178 38.6123C63.7178 39.3568 64.347 39.9604 65.1231 39.9604Z" fill="white"/>
<path d="M71.1353 38.6123C71.1353 39.3567 70.5065 39.9604 69.73 39.9604C68.9541 39.9604 68.3247 39.3567 68.3247 38.6123C68.3247 37.8679 68.9535 37.2642 69.73 37.2642C70.5065 37.2642 71.1353 37.8674 71.1353 38.6123Z" fill="white"/>
<path d="M60.5171 39.9604C61.2933 39.9604 61.9225 39.3568 61.9225 38.6123C61.9225 37.8677 61.2933 37.2642 60.5171 37.2642C59.741 37.2642 59.1118 37.8677 59.1118 38.6123C59.1118 39.3568 59.741 39.9604 60.5171 39.9604Z" fill="white"/>
<path d="M138.427 38.992H101.203C99.4611 38.992 98.0483 37.6372 98.0483 35.9656V24.1575C98.0483 22.4859 99.4606 21.1311 101.203 21.1311H138.427C140.169 21.1311 141.581 22.4859 141.581 24.1575V35.9656C141.581 37.6367 140.169 38.992 138.427 38.992Z" fill="#CC8C40"/>
<path d="M138.491 38.992H102.91C101.204 38.992 99.8203 37.6647 99.8203 36.0277V24.0953C99.8203 22.4583 101.204 21.1311 102.91 21.1311H138.491C140.198 21.1311 141.581 22.4583 141.581 24.0953V36.0277C141.581 37.6647 140.198 38.992 138.491 38.992Z" fill="#F4B247"/>
<path d="M99.8208 24.0955C99.8208 24.0955 109.471 38.9921 134.566 38.9921H102.768C101.141 38.9921 99.8213 37.7265 99.8213 36.1654V24.0955H99.8208Z" fill="#E5A345"/>
<path d="M131.147 21.1311L138.253 22.5118C138.253 22.5118 140.412 23.0035 140.412 25.3028C140.412 27.6022 140.412 38.3469 140.412 38.3469C140.412 38.3469 141.581 37.5501 141.581 36.0277C141.581 34.5048 141.581 24.0953 141.581 24.0953C141.581 24.0953 141.428 21.1311 138.491 21.1311C135.555 21.1311 131.147 21.1311 131.147 21.1311Z" fill="#F2CD70"/>
<path d="M106.35 33.8452V25.9292H108.016V29.0448H111.28V25.9292H112.947V33.8452H111.28V30.3837H108.016V33.8452H106.35Z" fill="white"/>
<path d="M114.669 33.8452V25.9292H120.788V27.2682H116.336V29.0234H120.478V30.3572H116.336V32.5114H120.946V33.8452H114.669Z" fill="white"/>
<path d="M122.403 33.845V25.9937H124.069V32.5111H128.213V33.845H122.403Z" fill="white"/>
<path d="M129.4 33.8452V25.9292H132.073C133.087 25.9292 133.747 25.9689 134.055 26.0479C134.528 26.1666 134.924 26.4249 135.242 26.8229C135.561 27.2208 135.721 27.7348 135.721 28.3646C135.721 28.8506 135.629 29.2588 135.444 29.5904C135.26 29.9216 135.027 30.1814 134.744 30.3705C134.461 30.5595 134.172 30.6848 133.88 30.7455C133.482 30.8209 132.906 30.8591 132.152 30.8591H131.065V33.8452H129.4ZM131.066 27.2682V29.5145H131.978C132.635 29.5145 133.074 29.4732 133.296 29.3902C133.516 29.3077 133.69 29.1777 133.816 29.0015C133.941 28.8252 134.004 28.6198 134.004 28.3855C134.004 28.0976 133.915 27.8602 133.74 27.6727C133.563 27.4857 133.34 27.3685 133.07 27.3216C132.871 27.286 132.471 27.2676 131.871 27.2676H131.066V27.2682Z" fill="white"/>
<path d="M152.063 26.939C155.806 26.939 158.841 24.0276 158.841 20.4363C158.841 16.8449 155.806 13.9336 152.063 13.9336C148.319 13.9336 145.284 16.8449 145.284 20.4363C145.284 24.0276 148.319 26.939 152.063 26.939Z" fill="#A4BBF9"/>
<path d="M147.875 12.1253L143.774 4.25559L148.254 2.89575L149.619 11.5959L147.875 12.1253Z" fill="#A4BBF9"/>
<path d="M160.972 16.4334L169.755 13.9001L170.387 18.3664L161.218 18.1723L160.972 16.4334Z" fill="#A4BBF9"/>
<path d="M155.749 11.8101L159.124 3.62964L163.169 5.92338L157.324 12.7032L155.749 11.8101Z" fill="#A4BBF9"/>
<path d="M239.5 162.663H0.5L15.7275 143.733H224.273L239.5 162.663Z" fill="#1B4B52"/>
<path d="M234.091 167.852H5.90937C2.92187 167.852 0.5 165.529 0.5 162.663H239.5C239.5 165.529 237.078 167.852 234.091 167.852Z" fill="#153C3F"/>
<path d="M100.401 108.916L94.4979 112.735C94.4979 112.735 94.218 96.3888 94.6721 86.8434C95.1262 77.298 95.7737 72.871 96.2421 70.7434C96.7105 68.6157 97.4881 67.1555 112.14 66.0881L100.401 108.916Z" fill="#151230"/>
<path d="M100.4 108.916C100.725 98.1044 102.097 79.06 102.444 74.5489C102.789 70.0378 100.611 64.7692 132.542 64.9984C164.474 65.2277 163.921 64.7055 164.162 77.0235C164.402 89.3416 165.334 109.821 165.334 109.821C165.334 109.821 150.936 112.405 135.448 113.636C119.961 114.867 100.4 108.916 100.4 108.916Z" fill="#211944"/>
<path d="M107.846 88.6176C107.846 88.6176 137.301 86.5959 158.698 87.5176" stroke="white" stroke-width="0.9219" stroke-miterlimit="10" stroke-linecap="round"/>
<path d="M124.88 94.1383C124.88 94.1383 120.381 94.9718 117.404 95.7911C114.427 96.6103 107.108 99.9414 103.896 108.175C100.684 116.408 93.5703 145.3 93.5703 145.3C93.5703 145.3 116.184 148.862 135.808 148.779C155.431 148.695 174.361 143.662 174.361 143.662C174.361 143.662 164.052 111.221 162.07 105.898C160.089 100.576 155.508 95.8675 149.794 94.6162C144.08 93.3654 140.859 93.0867 140.859 93.0867L124.88 94.1383Z" fill="#FBD995"/>
<path d="M129.838 49.298C123.477 50.1178 117.777 55.6356 118.856 67.6261C119.935 79.617 124.456 84.6921 133.131 84.8893C141.807 85.0865 146.091 75.1773 145.158 64.9538C144.225 54.7313 140.154 47.9688 129.838 49.298Z" fill="#EC6B65"/>
<path d="M118.781 66.6097C118.781 66.6097 117.049 67.4402 116.76 65.9341C116.471 64.428 115.738 56.9945 116.922 53.3817C118.106 49.7689 120.768 48.032 124.517 47.2795C128.265 46.5269 142.549 44.9633 144.957 49.4061C147.365 53.8489 147.034 64.0734 147.034 64.0734C147.034 64.0734 146.464 65.4292 145.159 64.9549C145.159 64.9549 144.418 48.8548 132.107 49.1361C119.454 49.4244 118.615 61.3323 118.781 66.6097Z" fill="#1F3E56"/>
<path d="M132.34 64.0505C132.34 64.0505 133.638 70.0233 133.64 71.0016C133.643 71.9798 132.509 72.7604 132.509 72.7604" stroke="#BA5454" stroke-width="0.9219" stroke-miterlimit="10" stroke-linecap="round"/>
<path d="M127.094 75.4292L137.148 76.1996C137.148 76.1996 135.699 79.8175 131.83 79.2805C127.981 78.746 127.094 75.4292 127.094 75.4292Z" fill="white"/>
<path d="M127.516 67.0077C127.435 67.5574 126.905 67.9411 126.332 67.8636C125.759 67.7867 125.359 67.2782 125.44 66.728C125.521 66.1777 126.051 65.7946 126.624 65.872C127.197 65.9495 127.597 66.4579 127.516 67.0077Z" fill="#1F3E56"/>
<path d="M124.99 63.8324C124.99 63.8324 125.885 62.7666 128.053 63.3377" stroke="#1F3E56" stroke-width="2.2963" stroke-miterlimit="10" stroke-linecap="round"/>
<path d="M121.799 68.8787C121.799 68.8787 123.8 69.1176 125.018 69.9807" stroke="#BA5454" stroke-width="0.9219" stroke-miterlimit="10" stroke-linecap="round"/>
<path d="M117.771 63.2031C117.771 63.2031 116.922 53.3816 119.17 50.96C122.291 47.5973 124.517 47.2794 124.517 47.2794C124.517 47.2794 124.929 45.9532 125.219 45.5181C125.219 45.5181 118.579 47.0119 117.032 51.5102C115.486 56.0086 116.489 63.7539 116.489 63.7539L117.771 63.2031Z" fill="#69ADF7"/>
<path d="M146.065 61.7719C146.065 61.7719 145.769 51.9208 143.255 49.7544C139.763 46.7459 137.514 46.6674 137.514 46.6674C137.514 46.6674 136.951 45.3932 136.613 44.9922C136.613 44.9922 143.385 45.7682 145.444 50.0734C147.502 54.3786 147.404 62.1825 147.404 62.1825L146.065 61.7719Z" fill="#69ADF7"/>
<path d="M118.859 63.1421C118.859 63.1421 115.719 62.6652 114.868 66.4553C114.017 70.2449 115.928 74.435 119.815 73.5862C119.815 73.5862 118.513 69.1021 118.859 63.1421Z" fill="#69ADF7"/>
<path opacity="0.27" d="M114.695 67.6333C114.695 67.6333 118.114 68.9534 119.814 73.5857C119.814 73.5857 114.551 74.621 114.695 67.6333Z" fill="#69ADF7"/>
<path d="M144.727 61.5329C144.727 61.5329 147.795 60.7351 149.066 64.4157C150.336 68.0957 148.906 72.4586 144.946 72.0148C144.946 72.0148 145.738 67.4227 144.727 61.5329Z" fill="#69ADF7"/>
<path opacity="0.27" d="M149.369 65.5693C149.369 65.5693 146.119 67.2344 144.947 72.015C144.947 72.015 150.295 72.5015 149.369 65.5693Z" fill="#69ADF7"/>
<path d="M117.739 73.4367C117.739 73.4367 117.542 72.4299 116.147 72.4803C116.147 72.4803 114.346 78.498 117.446 80.1325C120.546 81.7669 128.676 80.8121 128.676 80.8121L128.887 79.3672C128.887 79.3672 121.735 79.6851 119.05 78.8113C116.365 77.9376 117.739 73.4367 117.739 73.4367Z" fill="#69ADF7"/>
<path d="M128.74 77.9118C127.673 78.2791 127.021 78.811 127.049 79.4158C127.077 80.0206 126.953 81.9291 128.5 82.0076C130.047 82.0861 133.358 82.2756 134.283 81.8879C135.208 81.5002 135.424 78.1981 134.097 78.1472C132.768 78.0967 129.571 77.626 128.74 77.9118Z" fill="#69ADF7"/>
<path d="M126.458 83.3543L124.88 94.1382C124.88 94.1382 128.963 96.8019 133.516 96.2618C138.069 95.7218 140.858 93.0866 140.858 93.0866L138.878 83.2422L126.458 83.3543Z" fill="#EC6B65"/>
<path d="M126.458 83.3545C126.458 83.3545 128.999 84.992 133.132 84.8901C137.265 84.7882 138.878 83.2429 138.878 83.2429L139.468 86.1735C139.468 86.1735 137.04 88.1529 132.953 88.2436C128.867 88.3338 126.011 86.412 126.011 86.412L126.458 83.3545Z" fill="#B25252"/>
<path d="M182.891 68.4341C181.689 69.0862 181.73 70.7227 182.294 72.5172C182.858 74.3116 184.713 82.8217 184.713 82.8217C184.713 82.8217 185.412 88.4012 186.679 89.6291C186.679 89.6291 189.807 121.803 189.617 122.297C189.427 122.791 180.876 116.777 180.876 116.777L171.643 134.759C171.643 134.759 184.836 148.523 198.328 143.328C211.82 138.133 205.552 112.49 203.229 102.581C200.907 92.6728 199.498 90.215 199.498 90.215C199.498 90.215 200.881 88.8241 200.477 85.9429C200.073 83.0612 197.591 76.7332 197.272 76.4642C196.953 76.1952 186.899 75.6169 186.899 75.6169C186.899 75.6169 185.598 71.62 185.306 70.3895C185.015 69.1591 183.497 68.1055 182.891 68.4341Z" fill="#EC6B65"/>
<path d="M87.9315 120.011L101.796 129.961C101.796 129.961 92.2223 146.308 86.4959 146.179C80.7695 146.051 76.1605 142.215 76.8031 136.515C77.4458 130.815 87.9315 120.011 87.9315 120.011Z" fill="#EC6B65"/>
<path d="M93.8556 129.259C93.8556 129.259 119.459 136.197 127.348 137.903C135.237 139.608 140.789 139.621 146.108 143.185C151.427 146.748 152.36 149.537 150.834 150.802C150.834 150.802 149.149 152.504 147.455 150.99C147.455 150.99 146.627 152.073 145.083 151.497C143.54 150.922 142.462 149.124 140.344 149.206C138.225 149.288 138.143 151.298 132.373 151.072C126.603 150.846 86.4105 147.997 82.5838 145.455C78.7566 142.914 79.668 129.37 93.8556 129.259Z" fill="#EC6B65"/>
<path d="M143.568 146.326C143.568 146.326 146.776 148.448 147.455 150.99" stroke="#BA5454" stroke-width="0.9219" stroke-miterlimit="10" stroke-linecap="round"/>
<path d="M146.432 145.145C146.432 145.145 149.948 148.28 150.835 150.802" stroke="#BA5454" stroke-width="0.9219" stroke-miterlimit="10" stroke-linecap="round"/>
<path d="M86.8745 119.251L102.398 130.41C102.398 130.41 117.753 105.588 117.403 95.791C117.403 95.791 110.873 96.7173 103.433 103.298C95.9926 109.879 86.8745 119.251 86.8745 119.251Z" fill="#FBD995"/>
<path d="M153.618 96.0376C153.618 96.0376 165.887 102.739 181.634 115.572L171.643 134.758C171.643 134.758 151.513 109.773 149.848 103.409C148.183 97.0474 153.618 96.0376 153.618 96.0376Z" fill="#FBD995"/>
<path d="M124.419 47.9292C124.618 45.477 126.412 43.7625 128.58 42.3782C130.749 40.9939 133.309 40.9195 133.637 41.6619C133.965 42.4047 133.386 43.3743 133.386 43.3743C133.386 43.3743 138.928 40.8375 141.442 43.062C143.957 45.2869 144.211 49.023 143.652 49.8561C143.094 50.6891 140.214 49.4633 140.214 49.4633C140.214 49.4633 142.06 53.2743 139.768 54.5027C137.477 55.7311 132.812 54.2647 130.836 50.8547C130.836 50.8547 124.009 52.9813 124.419 47.9292Z" fill="#1F3E56"/>
<path d="M137.38 67.0077C137.461 67.5574 137.991 67.9411 138.564 67.8636C139.137 67.7867 139.537 67.2782 139.456 66.728C139.375 66.1777 138.845 65.7946 138.272 65.872C137.699 65.9495 137.3 66.4579 137.38 67.0077Z" fill="#1F3E56"/>
<path d="M139.907 63.8324C139.907 63.8324 139.012 62.7666 136.843 63.3377" stroke="#1F3E56" stroke-width="2.2963" stroke-miterlimit="10" stroke-linecap="round"/>
<path d="M142.092 68.8787C142.092 68.8787 140.091 69.1176 138.873 69.9807" stroke="#BA5454" stroke-width="0.9219" stroke-miterlimit="10" stroke-linecap="round"/>
<path d="M184.712 82.8218C183.361 82.3159 182.758 88.52 185.966 88.3926C189.174 88.2653 193.758 85.9425 194.052 84.738C194.346 83.5336 190.165 83.1051 188.516 83.0985C186.866 83.0924 186.21 83.3823 184.712 82.8218Z" fill="#EC6B65"/>
<path d="M184.712 82.8218C184.712 82.8218 185.55 83.2177 186.899 83.1591C188.248 83.1005 192.368 82.9807 193.9 84.2428C195.431 85.5048 189.181 87.7389 189.181 87.7389" stroke="#BA5454" stroke-width="0.9219" stroke-miterlimit="10" stroke-linecap="round"/>
<path d="M160.6 112.785H158.172C155.646 112.785 153.465 114.48 152.942 116.85L144.412 155.437H151.009L160.6 112.785Z" fill="#151230"/>
<path d="M215.688 155.438H147.453L155.571 116.736C156.053 114.438 158.157 112.785 160.6 112.785H218.37C221.61 112.785 224.038 115.63 223.399 118.677L215.688 155.438Z" fill="#211944"/>
<path d="M147.453 155.438H116.892C114.69 155.438 112.904 153.725 112.904 151.612V151.081H148.367L147.453 155.438Z" fill="#151230"/>
<path d="M187.821 142.318C191.166 142.318 193.877 139.716 193.877 136.508C193.877 133.299 191.166 130.698 187.821 130.698C184.476 130.698 181.765 133.299 181.765 136.508C181.765 139.716 184.476 142.318 187.821 142.318Z" fill="#6B94F7"/>
<path d="M186.899 75.6167C186.899 75.6167 188.304 83.738 189.544 84.1313C190.783 84.5241 195.112 84.3249 196.772 84.2261C198.431 84.1278 199.962 83.4104 199.76 81.4101C199.557 79.392 198.199 75.554 196.491 75.1362C194.784 74.7184 187.027 73.1298 186.899 75.6167Z" fill="#EC6B65"/>
<path d="M189.992 74.2517L192.742 84.3647" stroke="#BA5454" stroke-width="0.9219" stroke-miterlimit="10" stroke-linecap="round"/>
<path d="M193.945 74.6272L196.485 84.2424" stroke="#BA5454" stroke-width="0.9219" stroke-miterlimit="10" stroke-linecap="round"/>
<path d="M187.105 76.7236C187.105 76.7236 188.237 82.8452 189.182 83.8143C190.126 84.7833 196.771 84.2259 196.771 84.2259" stroke="#BA5454" stroke-width="0.9219" stroke-miterlimit="10" stroke-linecap="round"/>
<path d="M77.644 112.272H32.4007C32.4007 112.272 30.3984 112.444 30.3984 122.416V153.414H71.2334C71.2334 153.414 74.2252 152.617 74.2252 144.439C74.2252 144.439 74.2252 122.702 74.2252 120.765C74.2252 118.828 74.3532 112.272 77.644 112.272Z" fill="#6B94F7"/>
<path d="M77.6437 112.272C78.7218 112.272 78.9613 116.512 78.9613 118.924C78.9613 121.337 78.9613 124.554 78.9613 124.554H74.2254V120.765C74.2254 120.765 73.9307 112.272 77.6437 112.272Z" fill="#5A80CC"/>
<path d="M66.7433 123.484H36.8029C36.2729 123.484 35.8438 123.072 35.8438 122.564V122.373C35.8438 121.864 36.2734 121.452 36.8029 121.452H66.7433C67.2733 121.452 67.7025 121.865 67.7025 122.373V122.564C67.7025 123.072 67.2733 123.484 66.7433 123.484Z" fill="#1F3E56"/>
<path d="M66.7433 130.253H36.8029C36.2729 130.253 35.8438 129.841 35.8438 129.333V129.142C35.8438 128.633 36.2734 128.221 36.8029 128.221H66.7433C67.2733 128.221 67.7025 128.634 67.7025 129.142V129.333C67.7025 129.841 67.2733 130.253 66.7433 130.253Z" fill="#1F3E56"/>
<path d="M66.7433 137.023H36.8029C36.2729 137.023 35.8438 136.61 35.8438 136.102V135.911C35.8438 135.403 36.2734 134.991 36.8029 134.991H66.7433C67.2733 134.991 67.7025 135.403 67.7025 135.911V136.102C67.7025 136.61 67.2733 137.023 66.7433 137.023Z" fill="#1F3E56"/>
<path d="M66.7433 143.792H36.8029C36.2729 143.792 35.8438 143.379 35.8438 142.871V142.68C35.8438 142.172 36.2734 141.76 36.8029 141.76H66.7433C67.2733 141.76 67.7025 142.172 67.7025 142.68V142.871C67.7025 143.379 67.2733 143.792 66.7433 143.792Z" fill="#1F3E56"/>
<path d="M24.5845 142.133H66.8641C66.8641 142.133 65.9012 153.414 71.2335 153.414H30.3985C30.3985 153.414 24.5845 152.359 24.5845 142.133Z" fill="#80AAFF"/>
<path d="M188.801 39.0205H162.114C160.219 39.0205 158.683 40.494 158.683 42.3113V53.1356C157.836 57.4907 151.849 62.391 151.849 62.391C158.781 62.1149 162.857 60.5314 162.857 60.5314H188.801C190.696 60.5314 192.232 59.0579 192.232 57.2406V42.3113C192.231 40.4935 190.695 39.0205 188.801 39.0205Z" fill="white"/>
<path d="M177.236 49.8672C177.236 51.0564 176.231 52.0204 174.991 52.0204C173.751 52.0204 172.747 51.0564 172.747 49.8672C172.747 48.6781 173.751 47.7141 174.991 47.7141C176.231 47.7141 177.236 48.6781 177.236 49.8672Z" fill="#1F3E56"/>
<path d="M184.594 49.8672C184.594 51.0564 183.589 52.0204 182.349 52.0204C181.11 52.0204 180.105 51.0564 180.105 49.8672C180.105 48.6781 181.11 47.7141 182.349 47.7141C183.589 47.7141 184.594 48.6781 184.594 49.8672Z" fill="#1F3E56"/>
<path d="M167.633 52.0204C168.873 52.0204 169.878 51.0564 169.878 49.8672C169.878 48.6781 168.873 47.7141 167.633 47.7141C166.394 47.7141 165.389 48.6781 165.389 49.8672C165.389 51.0564 166.394 52.0204 167.633 52.0204Z" fill="#1F3E56"/>
</svg>
