<svg width="1440" height="755" viewBox="0 0 1440 755" fill="none" xmlns="http://www.w3.org/2000/svg">
<g opacity="0.35" filter="url(#filter0_f_1433_270)">
<ellipse cx="207.5" cy="497.5" rx="324.5" ry="326.5" fill="#FFE133" fill-opacity="0.82"/>
</g>
<g opacity="0.35" filter="url(#filter1_f_1433_270)">
<path d="M1460.5 210.11C1460.5 347.905 1338.72 459.61 1188.5 459.61C1038.28 459.61 916.5 347.905 916.5 210.11C916.5 72.3153 1038.28 -39.3896 1188.5 -39.3896C1338.72 -39.3896 1460.5 72.3153 1460.5 210.11Z" fill="#FFE133"/>
</g>
<path d="M1312.93 567.788C1314.22 566.351 1316.43 566.235 1317.87 567.528C1319.31 568.822 1319.42 571.035 1318.13 572.471L1122.07 790.213C1120.78 791.649 1118.57 791.765 1117.13 790.472C1115.69 789.178 1115.58 786.965 1116.87 785.529L1312.93 567.788Z" fill="url(#paint0_linear_1433_270)" fill-opacity="0.7"/>
<path d="M1150.45 101.601C1151.75 100.165 1153.96 100.049 1155.4 101.342C1156.83 102.635 1156.95 104.848 1155.66 106.285L1034.54 240.794C1033.25 242.231 1031.04 242.347 1029.6 241.053C1028.16 239.76 1028.05 237.547 1029.34 236.11L1150.45 101.601Z" fill="url(#paint1_linear_1433_270)" fill-opacity="0.3"/>
<path d="M1463 131.264C1463 279.055 1355.44 -33 1295.97 -33C1236.51 -33 1438.15 260.508 1438.15 112.718C1438.15 -35.0725 1311.05 -14.4528 1370.51 -14.4528C1429.98 -14.4528 1463 -16.5261 1463 131.264Z" fill="url(#paint2_linear_1433_270)" fill-opacity="0.3"/>
<path d="M119.586 568.215C251.303 567.417 -25.6525 760.799 -25.0104 866.777C-24.3683 972.754 235.042 611.799 103.325 612.597C-28.3928 613.395 -8.64314 839.807 -9.28522 733.829C-9.92731 627.851 -12.1317 569.013 119.586 568.215Z" fill="url(#paint3_linear_1433_270)" fill-opacity="0.2"/>
<path opacity="0.21" d="M1112.1 751.574C1151.64 750.487 1183.59 744.261 1183.45 737.667C1183.32 731.073 1151.15 726.609 1111.6 727.695C1072.06 728.782 1040.11 735.008 1040.25 741.602C1040.38 748.196 1072.55 752.661 1112.1 751.574Z" fill="#8E8A8A"/>
<path opacity="0.21" d="M1369.41 743.558C1408.4 742.489 1439.89 736.278 1439.75 729.684C1439.62 723.09 1407.9 718.611 1368.92 719.679C1329.93 720.748 1298.44 726.96 1298.58 733.554C1298.72 740.147 1330.43 744.626 1369.41 743.558Z" fill="#8E8A8A"/>
<path fill-rule="evenodd" clip-rule="evenodd" d="M1104.24 719.24C1103.96 718.691 1107.74 724.978 1107.74 724.978C1107.74 724.978 1127.31 734.285 1127.37 737.101C1127.42 739.917 1090.74 738.68 1090.74 738.68L1091.15 724.777L1104.24 719.24Z" fill="#221815"/>
<path fill-rule="evenodd" clip-rule="evenodd" d="M1048.35 721.031C1048.62 720.467 1045.08 726.935 1045.08 726.935C1045.08 726.935 1025.94 737.324 1026 740.14C1026.06 742.937 1062.65 739.691 1062.65 739.691L1061.67 725.847L1048.35 721.031Z" fill="#221815"/>
<path fill-rule="evenodd" clip-rule="evenodd" d="M1135.26 515.908C1135.46 516.438 1139.92 531.653 1136.89 533.998C1133.87 536.343 1123.74 533.704 1123.59 532.655C1123.45 531.606 1122.7 517.839 1123.32 517.503C1124.71 513.249 1135.26 515.908 1135.26 515.908Z" fill="#F8C67C"/>
<path fill-rule="evenodd" clip-rule="evenodd" d="M1117.69 526.639C1117.68 525.577 1118.5 524.703 1119.53 524.686C1124.31 524.61 1137.02 524.407 1142.17 524.326C1142.75 524.316 1143.32 524.548 1143.73 524.972C1144.15 525.396 1144.39 525.974 1144.4 526.582C1144.44 530.835 1144.52 539.526 1144.52 539.526L1141.1 539.575C1141.19 536.353 1141.19 531.605 1141.18 529.364C1141.18 529.031 1141.05 528.713 1140.82 528.481C1140.59 528.248 1140.28 528.12 1139.96 528.125C1136.35 528.18 1125.7 528.345 1122.21 528.398C1121.59 528.408 1121.09 528.933 1121.09 529.575C1121.11 532.489 1121.14 539.881 1121.14 539.881L1117.82 539.927C1117.82 539.927 1117.73 530.73 1117.69 526.639Z" fill="#3D3938"/>
<path fill-rule="evenodd" clip-rule="evenodd" d="M1186.81 535.584L1186.34 608.603L1177.36 609.381L1088.74 609.151L1089.29 536.143C1120.71 535.718 1146.27 536.646 1177.29 535.438C1178.8 535.376 1185.26 535.666 1186.81 535.584Z" fill="#2F2C2B"/>
<path fill-rule="evenodd" clip-rule="evenodd" d="M1177.29 535.434L1177.36 609.377L1082.79 609.43L1083.35 536.421C1116.31 535.976 1144.3 536.934 1177.29 535.434Z" fill="#3D3938"/>
<mask id="mask0_1433_270" style="mask-type:luminance" maskUnits="userSpaceOnUse" x="1082" y="535" width="96" height="75">
<path d="M1177.29 535.434L1177.36 609.377L1082.79 609.43L1083.35 536.421C1116.31 535.976 1144.3 536.934 1177.29 535.434Z" fill="white"/>
</mask>
<g mask="url(#mask0_1433_270)">
<path fill-rule="evenodd" clip-rule="evenodd" d="M1137.77 510.489C1137.77 510.489 1124.96 530.678 1133.01 565.726C1141.06 600.775 1174.34 621.906 1174.34 621.906L1098.26 621.298L1100.32 515.433L1137.77 510.489Z" fill="#353130"/>
</g>
<path fill-rule="evenodd" clip-rule="evenodd" d="M1110.27 376.871C1110.76 375.549 1113.76 365.185 1116.68 365.761C1119.6 366.336 1129.17 372.683 1131.41 425.272C1133.63 477.841 1136.56 518.259 1136.56 518.259L1121.3 519.438L1110.27 376.871Z" fill="#273349"/>
<path fill-rule="evenodd" clip-rule="evenodd" d="M1037.2 499.023L1045.29 725.739L1061.86 728.439L1078.4 557.823L1091.14 724.779L1107.74 724.98L1117.02 502.829L1037.2 499.023Z" fill="#1D1E25"/>
<path fill-rule="evenodd" clip-rule="evenodd" d="M1068.8 358.064C1067.29 358.105 1034.37 369.763 1034.37 369.763C1034.37 369.763 1033.47 495.471 1042.26 505.789C1050.97 507.872 1096.83 515.148 1116.74 505.254C1121.9 470.006 1117.87 420.422 1114.88 369.144C1108.49 363.781 1098.48 365.863 1092.11 360.5C1084.34 359.682 1076.57 358.882 1068.8 358.064Z" fill="#F9D888"/>
<path fill-rule="evenodd" clip-rule="evenodd" d="M1074.72 369.275L1073.16 373.306L1070.2 499.349L1079.57 515.602L1089.46 499.616L1079.42 373.128L1074.72 369.275Z" fill="#201D1D"/>
<path fill-rule="evenodd" clip-rule="evenodd" d="M1062.22 360.11C1062.33 419.505 1075.82 465.652 1066.45 526.12C1064.17 540.86 1030.95 541.048 1031.16 539.196C1031.37 537.364 1028.88 386.981 1028.88 386.981L1032.31 370.177L1062.22 360.11Z" fill="#2A374F"/>
<path fill-rule="evenodd" clip-rule="evenodd" d="M1062.4 360.265L1066.92 456.215L1047.21 399.639L1055.68 392.6L1045.07 369.235L1052.5 363.385L1059.17 360.957L1062.4 360.265Z" fill="#31405C"/>
<path fill-rule="evenodd" clip-rule="evenodd" d="M1090.38 359.852L1100.17 523.128C1108.07 539.088 1111.36 536.504 1120.85 534.433C1122.31 493.312 1123.4 402.905 1116.68 365.759L1090.38 359.852Z" fill="#2A374F"/>
<path fill-rule="evenodd" clip-rule="evenodd" d="M1090.69 359.471L1095.68 455.288L1107.49 397.986L1098.76 391.4L1107.78 368.31L1099.39 361.907L1090.69 359.471Z" fill="#31405C"/>
<path fill-rule="evenodd" clip-rule="evenodd" d="M1156.77 399.368C1157.36 398.818 1159.77 396.212 1162.83 393.855C1165.9 391.499 1169.01 391.031 1169.5 390.981C1170.01 390.909 1179.21 384.317 1179.25 386.055C1179.29 387.79 1174.7 394.105 1174.7 394.105C1174.7 394.105 1187.62 389.589 1190.42 388.92C1193.22 388.27 1196.18 388.341 1195.32 390.104C1194.45 391.884 1178.43 399.884 1178.43 399.884C1178.43 399.884 1161.2 406.535 1160.94 406.179C1160.7 405.801 1156.77 399.368 1156.77 399.368Z" fill="#FAD6A1"/>
<path fill-rule="evenodd" clip-rule="evenodd" d="M1034.37 369.765C1025.36 369.14 1016.81 390.608 1028.48 403.407C1040.13 416.206 1076.95 439.955 1084.49 437.128C1092.03 434.3 1161.82 410.82 1161.82 410.82L1159.74 395.998L1084.59 408.902C1079.93 406.628 1043.37 370.412 1034.37 369.765Z" fill="#2A374F"/>
<path fill-rule="evenodd" clip-rule="evenodd" d="M1095.44 304.269C1097.07 305.256 1099.81 312.841 1100.56 329.571C1101.31 346.301 1087.06 352.287 1087.06 352.287C1087.34 355.714 1087.6 359.16 1087.89 362.603C1079.79 368.364 1070.41 367.25 1063.42 361.409C1063.44 352.974 1058.48 320.781 1058.86 310.232C1059.25 299.663 1071.7 294.579 1082.15 298.003C1092.59 301.451 1095.44 304.269 1095.44 304.269Z" fill="#FAD6A1"/>
<mask id="mask1_1433_270" style="mask-type:luminance" maskUnits="userSpaceOnUse" x="1058" y="296" width="43" height="71">
<path d="M1095.44 304.269C1097.07 305.256 1099.81 312.841 1100.56 329.571C1101.31 346.301 1087.06 352.287 1087.06 352.287C1087.34 355.714 1087.6 359.16 1087.89 362.603C1079.79 368.364 1070.41 367.25 1063.42 361.409C1063.44 352.974 1058.48 320.781 1058.86 310.232C1059.25 299.663 1071.7 294.579 1082.15 298.003C1092.59 301.451 1095.44 304.269 1095.44 304.269Z" fill="white"/>
</mask>
<g mask="url(#mask1_1433_270)">
<path fill-rule="evenodd" clip-rule="evenodd" d="M1101.94 344.262C1101.94 344.262 1090.54 352.161 1079.49 350.653C1060.1 348.011 1064.42 331.989 1064.42 331.989L1057.28 338.323C1057.28 338.323 1055.85 351.257 1056.2 352.681C1056.55 354.105 1066.31 368.936 1066.31 368.936C1066.31 368.936 1081.15 372.785 1085.83 367.443C1090.52 362.102 1101.55 350.778 1101.55 350.778L1101.94 344.262Z" fill="#F8C273"/>
</g>
<path fill-rule="evenodd" clip-rule="evenodd" d="M1085.15 305.585C1088.76 307.133 1094.58 307.807 1098.18 304.195C1101.8 300.582 1102.29 294.657 1100.05 293.071C1097.82 291.485 1095.66 292.358 1095.66 292.358C1095.66 292.358 1094.21 289.818 1090.77 288.265C1087.35 286.691 1082.94 290.227 1082.94 290.227C1082.94 290.227 1080.49 287.614 1076.01 288.452C1071.55 289.308 1069.71 292.97 1069.71 292.97C1069.71 292.97 1062.73 292.328 1060.39 294.774C1058.05 297.22 1057.27 303.235 1057.27 303.235C1057.27 303.235 1053.83 305.83 1052.71 309.373C1051.58 312.917 1051.53 320.618 1053.29 324.401C1055.07 328.181 1056.79 329.702 1056.79 329.702C1056.79 329.702 1052.1 334.277 1056.19 337.001C1063.41 341.785 1065.58 330.613 1066.2 327.717C1067.38 322.426 1071.94 318.154 1072.46 314.924C1073.01 311.713 1070.63 307.533 1074.48 305.779C1078.33 304.005 1085.15 305.585 1085.15 305.585Z" fill="#52372D"/>
<path fill-rule="evenodd" clip-rule="evenodd" d="M1061.8 321.322C1063.83 319.303 1067.27 320.16 1069.52 323.255C1071.76 326.329 1071.96 330.452 1069.94 332.47C1067.92 334.491 1064.45 333.614 1062.2 330.54C1059.96 327.466 1059.78 323.323 1061.8 321.322Z" fill="#FAD6A1"/>
<path fill-rule="evenodd" clip-rule="evenodd" d="M1137.09 532.384C1137.09 532.384 1135.76 525.257 1134.35 524.483C1132.93 523.708 1131.42 525.476 1131.42 525.476C1131.42 525.476 1130.17 524.38 1128.83 524.435C1127.51 524.511 1126.71 525.586 1126.71 525.586C1126.71 525.586 1125.23 524.415 1124.38 524.538C1123.52 524.641 1123.1 525.843 1123.1 525.843C1123.1 525.843 1123.08 524.752 1121.77 525.383C1120.44 526.015 1121.17 530.461 1121.93 532.942C1122.67 535.402 1123.93 535.407 1125.1 535.731C1125.84 535.93 1129.57 536.066 1132.17 535.677C1132.74 535.603 1133.29 535.527 1133.81 535.453C1134.59 535.331 1135.68 535.222 1135.98 534.977C1137.35 533.847 1137.09 532.384 1137.09 532.384Z" fill="#FAD6A1"/>
<path fill-rule="evenodd" clip-rule="evenodd" d="M1135.22 518.366L1135.4 524.891L1134.21 528.847C1133.28 531.09 1129.23 536.492 1128.8 532.239C1128.64 531.247 1131.49 525.524 1130.48 524.306C1127.71 520.945 1128.71 518.929 1128.84 518.86C1129.24 518.651 1135.22 518.366 1135.22 518.366Z" fill="#FAD6A1"/>
<path fill-rule="evenodd" clip-rule="evenodd" d="M1078.91 363.622L1073.15 363.64L1069.18 370.378L1073.29 373.281L1079.16 373.001L1082.32 369.164L1078.91 363.622Z" fill="#3D3938"/>
<path d="M1078.91 363.622L1073.15 363.64L1069.18 370.378L1073.29 373.281L1079.16 373.001L1082.32 369.164L1078.91 363.622Z" stroke="#221815" stroke-width="0.2499" stroke-miterlimit="2"/>
<path fill-rule="evenodd" clip-rule="evenodd" d="M1074.01 363.561C1073.37 364.233 1066.78 375.904 1066.78 375.507C1066.77 375.112 1059.11 361.15 1059.11 361.15L1063 354.753L1074.01 363.561Z" fill="#F5E1A6"/>
<path fill-rule="evenodd" clip-rule="evenodd" d="M1076.93 363.142C1077.57 363.778 1084.66 375.075 1084.65 374.679C1084.64 374.282 1091.65 360.455 1091.65 360.455L1087.27 354.861L1076.93 363.142Z" fill="#F5E1A6"/>
<path fill-rule="evenodd" clip-rule="evenodd" d="M1228.04 375.718C1227.34 374.224 1221.36 360.529 1221.23 360.088C1221 359.293 1214.91 358.281 1214.91 358.302C1214.25 359.167 1202.15 346.349 1199.71 348.062C1197.29 349.753 1210.42 362.029 1210.42 362.029C1210.42 362.029 1206.35 360.359 1204.99 361.843C1203.6 363.328 1205.13 365.154 1205.13 365.154C1205.13 365.154 1203.16 365.007 1202.45 366.629C1201.74 368.251 1203.78 369.685 1203.78 369.685C1203.78 369.685 1202.17 369.53 1201.89 370.983C1201.21 374.206 1209.42 377.74 1212.05 378.113C1212.05 378.113 1214.57 380.314 1216.31 381.022C1218.06 381.753 1228.04 375.718 1228.04 375.718Z" fill="#FAD6A1"/>
<path fill-rule="evenodd" clip-rule="evenodd" d="M1326.52 718.046C1326.8 717.47 1322.86 724.107 1322.86 724.107C1322.86 724.107 1301.54 734.769 1301.6 737.649C1301.66 740.51 1342.4 737.1 1342.4 737.1L1341.33 722.934L1326.52 718.046Z" fill="#221815"/>
<path fill-rule="evenodd" clip-rule="evenodd" d="M1388.76 716.593C1388.44 716.033 1392.65 722.447 1392.65 722.447C1392.65 722.447 1414.41 731.928 1414.47 734.808C1414.53 737.669 1373.69 736.515 1373.69 736.515L1374.18 722.288L1388.76 716.593Z" fill="#221815"/>
<path fill-rule="evenodd" clip-rule="evenodd" d="M1391.36 489.197L1392.38 721.241L1374.07 724.959L1348.65 542.716L1341.33 722.936L1322.86 724.109L1302.73 497.763L1391.36 489.197Z" fill="#201D1D"/>
<path fill-rule="evenodd" clip-rule="evenodd" d="M1349.95 347.071C1351.63 347.025 1388.78 357.027 1388.78 357.027C1388.78 357.027 1395.33 485.343 1386.01 496.401C1376.43 499.036 1325.74 509.169 1303.15 500.202C1295.84 464.523 1298.14 413.643 1299.19 361.091C1306.05 355.237 1317.29 356.791 1324.14 350.936C1332.75 349.641 1341.35 348.366 1349.95 347.071Z" fill="#EDEDED"/>
<path fill-rule="evenodd" clip-rule="evenodd" d="M1343.87 358.864L1345.81 361.568L1354.65 491.456L1344.96 508.601L1333.24 492.865L1339.04 362.376L1343.87 358.864Z" fill="#1D2637"/>
<path fill-rule="evenodd" clip-rule="evenodd" d="M1357.37 348.768C1359.89 409.457 1348.22 450.16 1361.33 511.363C1364.73 527.259 1395.73 529.09 1400.7 525.62C1396.29 523.535 1386.9 374.596 1392.36 374.88L1391.09 357.294L1357.37 348.768Z" fill="#2E324D"/>
<path fill-rule="evenodd" clip-rule="evenodd" d="M1357.17 348.934L1356.39 447.218L1375.82 388.28L1366.08 381.569L1376.18 357.941L1367.89 351.443L1357.17 348.934Z" fill="#444B65"/>
<path fill-rule="evenodd" clip-rule="evenodd" d="M1326.02 350.156L1328.72 516.975C1320.54 529.513 1304.16 532.731 1294.21 531.792C1294.53 491.647 1297.2 398.875 1297.04 357.734L1326.02 350.156Z" fill="#2A374F"/>
<path fill-rule="evenodd" clip-rule="evenodd" d="M1325.66 349.778L1324.34 447.941L1308.67 390.101L1318.11 382.864L1307.05 359.817L1315.06 352.871L1325.66 349.778Z" fill="#444B65"/>
<path fill-rule="evenodd" clip-rule="evenodd" d="M1317.62 291.495C1315.87 292.6 1313.47 302.686 1313.37 319.824C1313.27 336.961 1329.38 342.225 1329.38 342.225C1329.23 345.758 1329.09 349.291 1328.94 352.824C1338.19 358.237 1348.58 356.56 1356.11 350.177C1355.68 341.562 1359.79 308.394 1358.89 297.636C1357.13 276.354 1325.45 281.636 1317.62 291.495Z" fill="#FAD6A1"/>
<mask id="mask2_1433_270" style="mask-type:luminance" maskUnits="userSpaceOnUse" x="1313" y="282" width="47" height="75">
<path d="M1317.62 291.495C1315.87 292.6 1313.47 302.686 1313.37 319.824C1313.27 336.961 1329.38 342.225 1329.38 342.225C1329.23 345.758 1329.09 349.291 1328.94 352.824C1338.19 358.237 1348.58 356.56 1356.11 350.177C1355.68 341.562 1359.79 308.394 1358.89 297.636C1357.13 276.354 1325.45 281.636 1317.62 291.495Z" fill="white"/>
</mask>
<g mask="url(#mask2_1433_270)">
<path fill-rule="evenodd" clip-rule="evenodd" d="M1310.96 334.333C1310.96 334.333 1324.59 341.804 1334.99 337.349C1345.39 332.895 1350.21 321.175 1350.21 321.175L1356.09 322.642L1357.52 352.791C1357.52 352.791 1333.13 356.139 1325.6 351.932C1318.07 347.726 1310.96 334.333 1310.96 334.333Z" fill="#F8C273"/>
</g>
<path fill-rule="evenodd" clip-rule="evenodd" d="M1356.12 309.146C1353.77 307.191 1349.97 308.277 1347.6 311.556C1345.24 314.837 1345.23 319.07 1347.55 321.007C1349.9 322.943 1353.71 321.859 1356.07 318.578C1358.43 315.297 1358.45 311.082 1356.12 309.146Z" fill="#FAD6A1"/>
<path fill-rule="evenodd" clip-rule="evenodd" d="M1338.96 353.332L1345.35 353.02L1350.09 359.674L1345.64 362.874L1339.09 362.935L1335.41 359.214L1338.96 353.332Z" fill="#1D2637"/>
<path fill-rule="evenodd" clip-rule="evenodd" d="M1344.41 352.988C1345.12 353.635 1352.98 365.164 1352.97 364.77C1352.96 364.36 1360.87 349.654 1360.87 349.654L1356.7 344.063L1344.41 352.988Z" fill="white"/>
<path fill-rule="evenodd" clip-rule="evenodd" d="M1341.13 352.742C1340.44 353.428 1333.07 365.373 1333.06 364.981C1333.05 364.569 1324.64 350.841 1324.64 350.841L1329.27 344.89L1341.13 352.742Z" fill="white"/>
<path fill-rule="evenodd" clip-rule="evenodd" d="M1300.7 381.398C1298.79 379.53 1297.04 357.737 1297.04 357.737L1266.68 414.015L1226.02 370.352L1213.38 383.423C1213.38 383.423 1242.23 417.16 1256.37 437.235C1258.69 440.522 1262.52 445.893 1269.79 446.255C1276.58 446.59 1307.54 405.195 1307.54 405.195L1300.7 381.398Z" fill="#2A374F"/>
<path fill-rule="evenodd" clip-rule="evenodd" d="M1429.65 503.029C1429.65 503.029 1428.85 507.011 1429.08 511.319C1429.32 515.607 1430.91 526.894 1432.56 524.869C1434.22 522.843 1434.68 512.185 1434.68 512.185C1434.68 512.185 1437.83 515.745 1439.2 520.315C1440.59 524.886 1441.8 535.535 1444.06 532.356C1446.3 529.197 1444.43 515.348 1444.43 515.348L1439.11 499.535L1429.65 503.029Z" fill="#FAD6A1"/>
<path fill-rule="evenodd" clip-rule="evenodd" d="M1380.31 389.47C1382.68 384.484 1391.09 357.295 1391.09 357.295C1416.28 410.109 1424.84 445.908 1439.79 501.531C1439.79 501.531 1423.17 509.943 1422.54 506.331C1421.93 502.702 1380.31 389.47 1380.31 389.47Z" fill="#2E324D"/>
<path fill-rule="evenodd" clip-rule="evenodd" d="M1439.15 516.903C1439.18 517.51 1437.15 529.054 1438.08 530.086C1439.03 531.139 1440.36 529.534 1440.36 529.534C1440.36 529.534 1440.22 530.871 1441.13 531.18C1442.06 531.468 1443.03 530.5 1443.17 529.241C1443.31 527.964 1442.47 518.322 1442.47 518.322L1439.15 516.903Z" fill="#FAD6A1"/>
<path fill-rule="evenodd" clip-rule="evenodd" d="M1346.07 312.826C1346.07 312.826 1342.38 311.752 1342.12 306.327C1341.86 300.885 1342.09 297.76 1342.09 297.76L1334.78 293.942C1334.78 293.942 1326.41 297.407 1317.07 293.642C1307.72 289.88 1306.66 284.085 1310.14 281.265C1313.62 278.443 1319.65 279.965 1319.65 279.965C1319.65 279.965 1336.14 276.983 1344.58 276.615C1353.01 276.267 1357.12 283.918 1357.12 283.918C1357.12 283.918 1360.64 282.664 1364.07 290.1C1367.47 297.515 1365.21 312.636 1361.98 321.663C1358.77 330.692 1356.88 334.567 1356.88 334.567L1346.07 312.826Z" fill="#52372D"/>
<path fill-rule="evenodd" clip-rule="evenodd" d="M1348.68 306.78C1351.41 305.48 1354.43 307.547 1355.4 311.406C1356.36 315.264 1354.9 319.47 1352.16 320.765C1349.42 322.084 1346.4 320.016 1345.44 316.158C1344.48 312.279 1345.93 308.093 1348.68 306.78Z" fill="#FAD6A1"/>
<path d="M1248.48 155.349C1253.21 155.743 1257.96 156.004 1262.66 156.772C1270.64 158.075 1278.33 160.204 1284.83 165.351C1288.94 168.598 1291.63 173.027 1293.56 177.875C1298.32 189.829 1299.08 202.399 1298.78 215.158C1298.64 221.158 1298.06 227.076 1296.92 232.946C1295.14 242.036 1289.57 248.263 1282.3 253.318C1275.95 257.743 1268.91 260.8 1262.12 264.347C1257.77 266.619 1253.84 269.519 1250.63 273.3C1246.91 277.69 1245.46 282.916 1245.66 288.661C1245.77 291.965 1245.75 291.961 1242.48 292.049C1233.2 292.3 1223.93 292.556 1214.65 292.812C1213.45 292.845 1212.27 292.895 1212.33 291.113C1212.64 283.08 1212.45 275.046 1213.94 267.052C1215.31 259.727 1219.54 254.887 1225.36 251.008C1233.14 245.827 1241.7 242.254 1250.07 238.308C1255.45 235.77 1260.57 233.014 1263.94 227.74C1266.63 223.525 1267.86 218.807 1268.16 213.922C1268.5 208.54 1268.1 203.159 1267.07 197.84C1265.54 189.954 1260.7 186.003 1253.09 185.026C1245.11 184.002 1237.13 183.975 1229.13 184.67C1224.51 185.072 1219.94 185.688 1215.49 187.242C1210.2 189.089 1207.3 192.941 1205.86 198.212C1204.98 201.429 1204.72 204.732 1204.69 208.048C1204.67 210.71 1204.7 213.38 1204.86 216.036C1204.97 217.741 1204.38 218.317 1202.72 218.352C1193.32 218.551 1183.91 218.812 1174.51 219.124C1172.88 219.177 1172.22 218.678 1172.24 216.95C1172.31 208.381 1172.13 199.791 1173.63 191.308C1175.07 183.133 1177.72 175.366 1183.51 169.28C1186.42 166.213 1190.23 164.153 1194.17 162.544C1203.55 158.712 1213.37 157.084 1223.35 156.295C1223.98 156.246 1224.6 156.092 1225.22 155.988C1232.97 155.774 1240.73 155.561 1248.48 155.349Z" fill="#FFC245"/>
<path d="M1215.86 355.933C1214.68 355.965 1213.7 355.013 1213.67 353.805C1213.43 343.185 1213.2 332.567 1212.94 321.948C1212.91 320.509 1213.51 320.014 1214.87 319.981C1224.57 319.746 1234.28 319.468 1243.99 319.198C1245.02 319.169 1245.91 319.265 1245.93 320.663C1246.11 331.412 1246.29 342.16 1246.48 352.909C1246.5 354.116 1245.56 355.119 1244.38 355.151L1215.86 355.933Z" fill="#FFC245"/>
<path d="M123.523 385.537C124.766 384.056 126.974 383.863 128.454 385.105C129.935 386.348 130.128 388.555 128.886 390.036L-48.5236 601.464C-49.7661 602.945 -51.9737 603.138 -53.4545 601.896C-54.9352 600.653 -55.1284 598.446 -53.8859 596.965L123.523 385.537Z" fill="url(#paint4_linear_1433_270)" fill-opacity="0.81"/>
<path d="M654.021 712.872C655.314 711.436 657.527 711.32 658.964 712.613C660.4 713.907 660.516 716.12 659.223 717.556L592.979 791.128C591.686 792.564 589.473 792.68 588.036 791.387C586.6 790.093 586.484 787.88 587.777 786.444L654.021 712.872Z" fill="url(#paint5_linear_1433_270)"/>
<path d="M838.021 -17.1275C839.314 -18.564 841.527 -18.68 842.964 -17.3866C844.4 -16.0931 844.516 -13.8801 843.223 -12.4436L776.979 61.1277C775.686 62.5642 773.473 62.6802 772.036 61.3868C770.6 60.0934 770.484 57.8803 771.777 56.4438L838.021 -17.1275Z" fill="url(#paint6_linear_1433_270)"/>
<path d="M350.397 -39.399C351.691 -40.8355 353.904 -40.9515 355.34 -39.658C356.777 -38.3646 356.893 -36.1516 355.599 -34.7151L159.544 183.026C158.251 184.463 156.038 184.579 154.601 183.285C153.165 181.992 153.049 179.779 154.342 178.342L350.397 -39.399Z" fill="url(#paint7_linear_1433_270)" fill-opacity="0.5"/>
<path d="M220.717 589.474C221.725 586.349 219.98 583.036 216.818 582.075C213.657 581.114 210.277 582.868 209.269 585.993C208.26 589.118 210.006 592.431 213.167 593.392C216.329 594.353 219.709 592.599 220.717 589.474Z" fill="#D3DFFF"/>
<path d="M222.178 600.852C222.745 599.094 221.753 597.228 219.963 596.683C218.172 596.139 216.261 597.122 215.694 598.88C215.127 600.638 216.118 602.504 217.909 603.048C219.7 603.593 221.611 602.609 222.178 600.852Z" fill="#D3DFFF"/>
<path d="M218.542 574.712C228.848 566.696 230.693 552.032 222.662 541.959C214.632 531.887 199.768 530.221 189.462 538.237C179.157 546.254 177.312 560.918 185.342 570.99C193.373 581.063 208.237 582.729 218.542 574.712Z" fill="#D3DFFF"/>
<path d="M194.623 558.381C196.257 558.564 197.745 557.407 197.948 555.795C198.151 554.183 196.991 552.729 195.357 552.545C193.724 552.362 192.235 553.52 192.032 555.132C191.83 556.743 192.99 558.198 194.623 558.381Z" fill="white"/>
<path d="M203.638 559.394C205.271 559.577 206.76 558.419 206.962 556.808C207.165 555.196 206.005 553.741 204.372 553.558C202.738 553.375 201.25 554.533 201.047 556.145C200.844 557.756 202.004 559.211 203.638 559.394Z" fill="white"/>
<path d="M212.652 560.403C214.285 560.586 215.774 559.428 215.977 557.816C216.179 556.205 215.02 554.75 213.386 554.567C211.753 554.384 210.264 555.542 210.061 557.153C209.859 558.765 211.018 560.22 212.652 560.403Z" fill="white"/>
<path d="M163.342 744.155L164.486 752.743C164.784 754.983 166.732 756.692 169.11 756.798C176.363 757.122 191.525 757.059 200.886 751.784L199.961 739.488C188.251 737.509 177.141 736.92 167.193 739.02C164.703 739.546 163.022 741.756 163.342 744.155Z" fill="#102048"/>
<path d="M176.251 752.337C176.126 752.323 176.022 752.229 176.002 752.1L174.365 741.367C174.342 741.212 174.45 741.067 174.607 741.042C174.765 741.018 174.91 741.123 174.934 741.277L176.57 752.011C176.594 752.165 176.486 752.31 176.329 752.335C176.302 752.339 176.276 752.34 176.251 752.337Z" fill="white"/>
<path d="M182.793 751.644C182.668 751.63 182.564 751.536 182.544 751.407L180.907 740.674C180.884 740.519 180.992 740.374 181.149 740.349C181.307 740.324 181.452 740.43 181.476 740.584L183.112 751.318C183.136 751.472 183.028 751.617 182.871 751.642C182.844 751.646 182.818 751.646 182.793 751.644Z" fill="white"/>
<path d="M196.517 702.142L168.099 707.094L184.993 736.889L213.926 742.458L256.346 730.163L243.89 705.709L196.517 702.142Z" fill="#FBC343"/>
<path d="M229.825 709.752C292.225 698.921 295.297 752.485 200.184 751.51C197.33 747.456 194.258 740.632 193.39 735.119L245.827 718.069L229.825 709.752Z" fill="#FBC343"/>
<path d="M227.651 747.65C224.948 746.446 222.471 744.386 222.471 744.386L212.421 746.295L213.332 756.925L223.128 760.066C226.884 754.885 227.633 750.37 227.651 747.65Z" fill="#F9B384"/>
<path d="M193.559 735.506L193.221 734.728C204.314 729.956 232.607 718.676 255.715 717.005L255.769 717.852C232.795 719.514 204.611 730.751 193.559 735.506Z" fill="#E49B31"/>
<path d="M196.516 702.143C141.814 685.354 120.623 736.844 213.332 756.925C217.112 753.614 220.26 749.555 222.471 744.386C209.243 733.246 194.253 722.388 177.66 711.784L196.516 702.143Z" fill="#FBC343"/>
<path d="M222.197 744.714C219.742 742.742 217.188 740.662 214.483 738.46C200.907 727.405 185.52 714.875 172.072 707.206L172.51 706.47C186.019 714.174 201.435 726.727 215.036 737.803C217.739 740.004 220.293 742.084 222.745 744.054L222.197 744.714Z" fill="#E49B31"/>
<path d="M152.099 723.872L151.402 723.38C153.977 719.86 157.664 717.704 162.36 716.973L162.486 717.811C157.965 718.516 154.567 720.498 152.099 723.872Z" fill="#E49B31"/>
<path d="M269.432 733.783C267.869 729.957 265.058 727.279 260.837 725.594L261.168 724.807C265.552 726.556 268.601 729.467 270.232 733.459L269.432 733.783Z" fill="#E49B31"/>
<path d="M208.145 755.87L207.592 755.224C212.669 750.992 216.05 746.302 217.929 740.886L218.744 741.153C216.813 746.72 213.346 751.534 208.145 755.87Z" fill="#E49B31"/>
<path d="M255.98 747.691C249.353 742.511 234.487 748.511 230.946 748.501C229.913 748.499 228.763 748.147 227.65 747.651C227.633 750.37 226.884 754.885 223.128 760.066L224.792 760.6C224.792 760.6 236.055 766.19 248.885 765.109C260.727 764.111 261.191 751.763 255.98 747.691Z" fill="#102048"/>
<path d="M244.396 760.903C244.368 760.9 244.34 760.893 244.312 760.881C244.168 760.817 244.105 760.65 244.171 760.507C245.358 757.939 246.39 752.74 244.362 748.943C244.289 748.805 244.343 748.634 244.484 748.56C244.624 748.486 244.798 748.538 244.871 748.676C246.994 752.651 245.928 758.067 244.693 760.737C244.639 760.853 244.517 760.917 244.396 760.903Z" fill="white"/>
<path d="M238.635 761.326C238.606 761.323 238.578 761.315 238.551 761.303C238.406 761.24 238.343 761.072 238.409 760.93C239.597 758.361 240.628 753.162 238.601 749.366C238.527 749.228 238.582 749.057 238.722 748.983C238.862 748.909 239.036 748.96 239.11 749.098C241.233 753.074 240.166 758.49 238.931 761.16C238.878 761.275 238.756 761.34 238.635 761.326Z" fill="white"/>
<path d="M195.22 632.545C195.22 632.545 210.818 622.291 210.579 619.983C210.407 618.333 206.114 620.242 206.114 620.242C206.114 620.242 212.545 614.31 212.36 613.481C212.03 612.001 207.819 614.22 207.819 614.22C207.819 614.22 210.907 610.793 209.731 610.046C208.555 609.299 205.535 611.286 205.535 611.286C205.535 611.286 207.391 609.399 206.709 608.773C206.027 608.147 202.513 610.013 202.513 610.013C202.513 610.013 204.001 607.538 201.412 608.249C198.822 608.961 179.565 622.674 179.565 622.674L195.22 632.545Z" fill="#F9B384"/>
<path d="M202.758 619.156C202.69 619.148 202.624 619.116 202.575 619.061C200.428 616.606 199.427 615.957 196.857 614.846C196.712 614.784 196.648 614.617 196.713 614.474C196.778 614.33 196.947 614.264 197.092 614.327C199.755 615.478 200.792 616.15 203.013 618.689C203.116 618.807 203.101 618.985 202.981 619.088C202.917 619.142 202.836 619.165 202.758 619.156Z" fill="#E28B6D"/>
<path d="M197.7 625.097C197.687 625.096 197.674 625.093 197.661 625.09C197.507 625.051 197.416 624.897 197.458 624.745C197.981 622.819 198.76 621.666 199.837 621.22C200.759 620.839 201.873 621.014 203.15 621.739C203.287 621.817 203.333 621.99 203.252 622.126C203.172 622.261 202.996 622.309 202.859 622.23C201.745 621.597 200.802 621.433 200.055 621.742C199.167 622.109 198.48 623.167 198.012 624.886C197.975 625.025 197.84 625.113 197.7 625.097Z" fill="#E28B6D"/>
<path d="M198.523 613.19C198.447 613.182 198.375 613.144 198.327 613.079C198.233 612.953 198.261 612.776 198.388 612.683L202.343 609.787C202.471 609.693 202.651 609.719 202.744 609.844C202.838 609.97 202.81 610.147 202.683 610.24L198.728 613.136C198.667 613.181 198.593 613.198 198.523 613.19Z" fill="#E28B6D"/>
<path d="M201.659 614.682C201.588 614.674 201.52 614.64 201.471 614.581C201.371 614.461 201.39 614.283 201.513 614.183L205.354 611.069C205.477 610.968 205.658 610.985 205.758 611.106C205.858 611.226 205.839 611.404 205.716 611.504L201.876 614.619C201.812 614.67 201.734 614.69 201.659 614.682Z" fill="#E28B6D"/>
<path d="M204.76 617.026C204.691 617.019 204.624 616.986 204.576 616.929C204.474 616.81 204.49 616.631 204.612 616.53L207.635 614.005C207.757 613.904 207.937 613.918 208.04 614.037C208.141 614.155 208.125 614.334 208.004 614.436L204.98 616.96C204.917 617.013 204.837 617.035 204.76 617.026Z" fill="#E28B6D"/>
<path d="M238.56 717.69L186.725 713.875L186.861 666.842C186.861 666.842 206.164 652.618 213.557 647.412L224.845 648.102C257.683 667.609 249.533 686.461 238.56 717.69Z" fill="#3A6BEA"/>
<path d="M224.845 648.103C224.845 648.103 264.238 655.925 273.405 684.244C282.374 711.954 230.721 715.672 230.721 715.672L224.845 648.103Z" fill="#3A6BEA"/>
<path d="M178.608 648.767L197.545 630.859L183.317 619.936C176.345 623.619 162.68 632.199 150.741 642.312C148.106 644.544 145.927 647.252 144.61 650.355C143.486 653.003 143.005 655.689 143.11 658.384C143.384 665.408 148.213 671.346 155.446 673.016C161.623 674.443 185.799 675.278 205.887 671.828L214.318 650.762C211.595 648.794 189.861 646.069 178.608 648.767Z" fill="#3A6BEA"/>
<g opacity="0.8">
<path d="M256.729 662.507C256.817 662.497 256.905 662.488 256.993 662.478C256.827 662.352 256.659 662.23 256.492 662.107C253.49 662.442 250.394 662.782 247.383 662.802C245.572 662.814 239.565 662.535 238.316 658.423C237.695 656.377 238.623 654.283 239.794 652.872C239.656 652.815 239.52 652.76 239.382 652.704C238.176 654.202 237.248 656.391 237.903 658.548C239.236 662.94 245.496 663.24 247.381 663.227C250.48 663.206 253.656 662.851 256.729 662.507Z" fill="white"/>
<path d="M271.492 694.942C269.681 694.003 267.81 693.034 265.72 692.994C262.054 692.926 258.509 696.113 257.817 700.099C257.344 702.817 258.042 705.799 259.743 708.544C259.874 708.483 260.004 708.421 260.134 708.359C258.47 705.69 257.785 702.796 258.241 700.167C258.899 696.381 262.248 693.354 265.707 693.418C267.694 693.459 269.44 694.36 271.288 695.318C271.948 695.659 272.619 696.004 273.306 696.311C273.36 696.179 273.413 696.047 273.463 695.913C272.794 695.614 272.137 695.276 271.492 694.942Z" fill="white"/>
<path d="M172.684 670.261C170.453 667.954 166.659 666.979 162.276 667.586C158.37 668.128 154.882 669.676 152.333 671.958C152.473 672.021 152.61 672.09 152.753 672.149C155.226 669.991 158.58 668.526 162.331 668.006C166.576 667.417 170.235 668.348 172.371 670.555C173.386 671.605 174.035 672.892 174.453 674.25C174.602 674.25 174.752 674.25 174.901 674.249C174.468 672.791 173.783 671.397 172.684 670.261Z" fill="white"/>
<path d="M153.721 639.848C158.522 639.228 163.269 638.134 167.761 636.221C169.458 635.499 171.391 634.552 172.861 633.008C174.425 631.365 175.138 629.28 174.769 627.432C174.624 626.707 174.289 626.046 173.836 625.497C173.716 625.573 173.595 625.649 173.474 625.726C173.898 626.231 174.212 626.844 174.346 627.518C174.688 629.232 174.016 631.177 172.549 632.719C171.134 634.205 169.25 635.127 167.594 635.832C163.357 637.636 158.884 638.711 154.35 639.341C154.14 639.509 153.93 639.678 153.721 639.848Z" fill="white"/>
</g>
<path d="M229.786 638.195L229.688 638.915L228.166 650.088L227.999 651.298C227.739 653.192 226.735 654.822 225.306 655.927C223.885 657.026 222.046 657.608 220.114 657.406C216.224 656.991 213.431 653.555 213.879 649.708L215.48 635.868L229.786 638.195Z" fill="#F9B384"/>
<path d="M229.688 638.916L228.166 650.089C222.182 646.851 220.434 639.83 220.434 639.83L229.688 638.916Z" fill="#102048"/>
<path d="M234.637 619.674C236.559 622.601 241.248 638.49 233.913 642.91C225.659 647.883 215.413 637.04 215.413 637.04L216.097 619.222L226.359 617.752L234.637 619.674Z" fill="#F9B384"/>
<path d="M211.359 616.078C211.359 616.078 187.891 624.948 201.751 659.653C203.531 664.111 208.413 666.517 213.044 664.958C218.012 663.287 220.5 657.831 218.514 653.081C216.223 647.599 214.22 640.647 216.052 635.846L211.359 616.078Z" fill="#102048"/>
<path d="M216.455 626.311C219.072 624.275 219.541 620.551 217.501 617.993C215.462 615.435 211.687 615.012 209.07 617.048C206.452 619.084 205.984 622.808 208.023 625.366C210.063 627.924 213.838 628.347 216.455 626.311Z" fill="#FBC343"/>
<path d="M219.211 629.57C219.028 625.828 218.952 623.268 222.95 621.798C222.95 621.798 235.9 625.66 239.05 621.012C242.199 616.364 239.324 608.149 230.574 612.651C210.418 606.354 205.249 625.116 210.712 632.175L217.012 631.932C218.279 631.883 219.271 630.817 219.211 629.57Z" fill="#102048"/>
<path d="M229.358 631.6C229.845 631.655 230.288 631.31 230.348 630.83C230.409 630.35 230.063 629.917 229.577 629.862C229.09 629.808 228.647 630.153 228.587 630.633C228.526 631.113 228.872 631.546 229.358 631.6Z" fill="#102048"/>
<path d="M235.685 629.372C236.171 629.426 236.615 629.081 236.675 628.602C236.735 628.122 236.39 627.688 235.904 627.634C235.417 627.579 234.974 627.924 234.913 628.404C234.853 628.884 235.199 629.317 235.685 629.372Z" fill="#102048"/>
<path d="M234.484 634.004C234.422 633.997 234.363 633.968 234.321 633.917C234.232 633.813 234.248 633.656 234.355 633.569C234.755 633.241 235.207 632.769 235.091 632.377C234.971 631.97 234.278 631.722 233.951 631.685C233.248 631.606 233.066 630.335 233.037 630.081C233.021 629.945 233.12 629.822 233.258 629.805C233.396 629.787 233.52 629.884 233.536 630.02C233.599 630.555 233.816 631.171 234.013 631.193C234.349 631.231 235.358 631.503 235.574 632.234C235.728 632.756 235.425 633.333 234.674 633.948C234.619 633.993 234.55 634.012 234.484 634.004Z" fill="#102048"/>
<path d="M234.114 637.308C234.066 637.303 234.019 637.284 233.98 637.25C232.46 635.96 230.669 636.698 230.651 636.706C230.524 636.76 230.376 636.703 230.322 636.577C230.268 636.452 230.328 636.306 230.456 636.252C230.541 636.216 232.557 635.385 234.31 636.874C234.414 636.963 234.426 637.119 234.334 637.223C234.277 637.288 234.194 637.317 234.114 637.308Z" fill="#102048"/>
<path d="M229.555 626.924C229.939 627.911 229.043 628 227.952 628.421C226.861 628.843 225.789 628.922 225.606 628.451C225.423 627.98 226.158 627.257 227.249 626.836C228.339 626.414 229.258 626.161 229.555 626.924Z" fill="#102048"/>
<path d="M233.498 625.662C233.614 626.517 234.287 626.223 235.23 626.09C236.173 625.957 236.967 625.587 236.912 625.179C236.857 624.771 236.048 624.548 235.105 624.682C234.162 624.815 233.408 625 233.498 625.662Z" fill="#102048"/>
<path opacity="0.4" d="M226.426 636.409C227.601 635.568 227.871 633.954 227.029 632.805C226.188 631.656 224.553 631.406 223.378 632.247C222.203 633.089 221.932 634.702 222.774 635.851C223.616 637.001 225.251 637.25 226.426 636.409Z" fill="#EB5D60"/>
<path d="M217.892 635.983C219.269 634.599 219.105 632.239 217.525 630.713C215.944 629.186 213.546 629.071 212.169 630.455C210.791 631.84 210.955 634.199 212.536 635.726C214.116 637.252 216.514 637.367 217.892 635.983Z" fill="#F9B384"/>
<path d="M216.412 634.692C216.274 634.676 216.176 634.554 216.193 634.417C216.285 633.691 216.01 632.979 215.46 632.514C214.988 632.115 214.386 631.966 213.848 632.115C213.714 632.151 213.576 632.075 213.539 631.943C213.503 631.812 213.582 631.675 213.717 631.638C214.416 631.445 215.191 631.631 215.789 632.136C216.467 632.709 216.804 633.583 216.692 634.473C216.675 634.609 216.55 634.707 216.412 634.692Z" fill="#102048"/>
<path d="M178.42 648.544L168.213 657.14L168.584 657.568L178.791 648.973L178.42 648.544Z" fill="#102048"/>
<path d="M236.631 696.933L236.532 696.376C243.331 695.141 249.986 693.497 256.642 687.035L257.043 687.436C250.27 694.012 243.522 695.681 236.631 696.933Z" fill="#102048"/>
<path d="M243.353 675.6L187.623 669.352C185.619 669.127 183.776 670.679 183.507 672.818L178.57 712.072C178.3 714.211 179.707 716.127 181.711 716.352L237.441 722.6C239.446 722.824 241.289 721.272 241.558 719.134L246.495 679.88C246.764 677.741 245.357 675.824 243.353 675.6Z" fill="#D3DFFF"/>
<path d="M215.787 693.825C215.999 693.849 216.147 694.051 216.119 694.277L215.597 698.421C215.569 698.647 215.374 698.811 215.163 698.787L209.279 698.128C209.067 698.104 208.919 697.902 208.947 697.676L209.468 693.532C209.497 693.306 209.691 693.142 209.903 693.166L215.787 693.825ZM215.928 692.701L210.044 692.041C209.205 691.947 208.435 692.558 208.328 693.404L207.807 697.548C207.701 698.394 208.298 699.158 209.137 699.252L215.021 699.912C215.861 700.006 216.631 699.395 216.737 698.549L217.259 694.405C217.365 693.559 216.768 692.795 215.928 692.701Z" fill="#1F3C88"/>
<defs>
<filter id="filter0_f_1433_270" x="-651.2" y="-363.2" width="1717.4" height="1721.4" filterUnits="userSpaceOnUse" color-interpolation-filters="sRGB">
<feFlood flood-opacity="0" result="BackgroundImageFix"/>
<feBlend mode="normal" in="SourceGraphic" in2="BackgroundImageFix" result="shape"/>
<feGaussianBlur stdDeviation="267.1" result="effect1_foregroundBlur_1433_270"/>
</filter>
<filter id="filter1_f_1433_270" x="382.3" y="-573.59" width="1612.4" height="1567.4" filterUnits="userSpaceOnUse" color-interpolation-filters="sRGB">
<feFlood flood-opacity="0" result="BackgroundImageFix"/>
<feBlend mode="normal" in="SourceGraphic" in2="BackgroundImageFix" result="shape"/>
<feGaussianBlur stdDeviation="267.1" result="effect1_foregroundBlur_1433_270"/>
</filter>
<linearGradient id="paint0_linear_1433_270" x1="1317.87" y1="567.528" x2="1117.13" y2="790.472" gradientUnits="userSpaceOnUse">
<stop stop-color="#A1953E"/>
<stop offset="1" stop-color="#3B648B"/>
</linearGradient>
<linearGradient id="paint1_linear_1433_270" x1="1155.4" y1="101.342" x2="1029.6" y2="241.053" gradientUnits="userSpaceOnUse">
<stop stop-color="#A1953E"/>
<stop offset="1" stop-color="#3B648B"/>
</linearGradient>
<linearGradient id="paint2_linear_1433_270" x1="1306.68" y1="-12.9344" x2="1430.95" y2="34.5815" gradientUnits="userSpaceOnUse">
<stop stop-color="#55A3F3"/>
<stop offset="1" stop-color="#FFE133"/>
</linearGradient>
<linearGradient id="paint3_linear_1433_270" x1="-7.24273" y1="847.581" x2="114.274" y2="686.633" gradientUnits="userSpaceOnUse">
<stop stop-color="#55A3F3"/>
<stop offset="1" stop-color="#FFE133"/>
</linearGradient>
<linearGradient id="paint4_linear_1433_270" x1="128.454" y1="385.105" x2="-53.4545" y2="601.896" gradientUnits="userSpaceOnUse">
<stop stop-color="#A1953E"/>
<stop offset="1" stop-color="#3B648B"/>
</linearGradient>
<linearGradient id="paint5_linear_1433_270" x1="658.964" y1="712.613" x2="588.036" y2="791.387" gradientUnits="userSpaceOnUse">
<stop stop-color="#A1953E"/>
<stop offset="1" stop-color="#3B648B"/>
</linearGradient>
<linearGradient id="paint6_linear_1433_270" x1="842.964" y1="-17.3866" x2="772.036" y2="61.3868" gradientUnits="userSpaceOnUse">
<stop stop-color="#A1953E"/>
<stop offset="1" stop-color="#3B648B"/>
</linearGradient>
<linearGradient id="paint7_linear_1433_270" x1="355.34" y1="-39.658" x2="154.601" y2="183.285" gradientUnits="userSpaceOnUse">
<stop stop-color="#A1953E"/>
<stop offset="1" stop-color="#3B648B"/>
</linearGradient>
</defs>
</svg>
