<svg width="188" height="198" viewBox="0 0 188 198" fill="none" xmlns="http://www.w3.org/2000/svg">
<g opacity="0.3">
<path d="M54.4904 188.417C62.5647 187.912 70.2027 184.909 78.0652 183.083C87.4755 180.899 97.3201 180.404 106.901 181.635C117.06 182.939 126.936 186.159 137.196 186.382C154.335 186.755 167.593 178.202 176.543 164.477C185.494 150.753 185.944 132.588 177.681 118.604C174.868 113.845 171.149 109.576 168.6 104.687C160.239 88.6502 171.401 61.5136 159.176 47.8288C152.512 40.3694 141.77 36.81 131.335 36.7634C120.9 36.7168 110.811 42.0245 101.274 46.0448C92.0764 49.9224 79.9309 58.3649 69.9924 56.9508C63.0733 55.9661 57.0696 52.0144 50.3209 50.2988C35.9583 46.6477 19.927 54.3037 12.2513 66.2996C4.57641 78.2954 4.39522 93.5321 9.08527 106.726C11.9046 114.657 16.4019 122.255 16.8603 130.615C17.161 136.103 15.686 141.535 15.0217 147.001C12.4461 168.191 30.7435 189.901 54.4904 188.417Z" stroke="#2C54AC" stroke-width="1.0454" stroke-miterlimit="10" stroke-dasharray="4.32 4.32"/>
</g>
<path opacity="0.3" d="M44.9476 182.851C53.0171 183.317 60.9975 181.251 69.0384 180.381C78.6626 179.34 88.4845 180.029 97.8093 182.398C107.696 184.91 117.04 189.29 127.175 190.741C144.106 193.164 158.216 183.011 168.968 170.46C179.72 157.909 182.659 139.932 176.391 125.061C174.257 119.999 171.158 115.316 169.304 110.157C163.22 93.2368 177.281 74.6244 168.688 58.6063C164.012 49.8905 154.994 44.5006 144.661 43.2042C134.328 41.9074 120.38 43.95 110.378 46.7983C100.732 49.5453 88.0044 56.8033 78.351 54.2088C71.6303 52.4025 66.2241 47.7601 59.7728 45.2486C46.0431 39.9032 29.1073 45.5826 19.8559 56.5702C10.6046 67.5581 8.33384 82.6608 11.1703 96.3204C12.8752 104.531 16.2884 112.611 15.5955 120.965C15.1403 126.449 12.9334 131.664 11.5251 137.01C6.06438 157.736 21.2146 181.479 44.9476 182.851Z" fill="#9DDCF9"/>
<path d="M66.7517 50.2098C68.5381 34.205 56.5601 19.8783 39.9981 18.2102C23.4361 16.5421 8.56182 28.1643 6.77542 44.1691C4.98903 60.174 16.967 74.5007 33.529 76.1688C50.091 77.8369 64.9653 66.2147 66.7517 50.2098Z" fill="#2C54AC"/>
<path d="M38.1699 76.29C56.3336 75.3487 70.3832 61.5592 69.5505 45.4903C68.7178 29.4214 53.3181 17.1581 35.1543 18.0994C16.9905 19.0407 2.94095 32.8301 3.77368 48.899C4.6064 64.9679 20.0061 77.2313 38.1699 76.29Z" stroke="#2C54AC" stroke-miterlimit="10"/>
<path d="M26.3614 72.6629L34.6271 86.2982L34.043 71.0068L26.3614 72.6629Z" fill="#2C54AC"/>
<path d="M35.4198 57.16L34.7633 54.3049C34.3505 52.5091 34.2375 50.9595 34.4268 49.6541C34.6151 48.3499 34.9733 47.1875 35.5009 46.1675C36.0284 45.1475 36.5853 44.2155 37.1729 43.3708C37.9714 42.2545 38.6599 41.1711 39.2391 40.1206C39.8183 39.0707 39.9428 37.8271 39.6125 36.3901C39.4309 35.6007 39.073 34.9805 38.5404 34.5305C38.007 34.0809 37.4167 33.7667 36.7703 33.5866C36.1229 33.4076 35.5208 33.3778 34.9626 33.4993C33.8827 33.7344 33.037 34.1732 32.423 34.8163C31.809 35.4593 31.3556 36.2086 31.0643 37.064C30.7718 37.9198 30.5543 38.7971 30.4093 39.696L28.8889 40.027L23.3218 38.1848C23.3964 37.4896 23.5974 36.5787 23.9244 35.4512C24.2515 34.3249 24.8104 33.1469 25.603 31.9175C26.395 30.6896 27.4847 29.5659 28.8721 28.5465C30.2588 27.5286 32.0321 26.7832 34.1907 26.3131C36.3117 25.8511 38.2986 25.7863 40.1532 26.1175C42.007 26.4491 43.6038 27.2328 44.9431 28.4688C46.282 29.7045 47.2242 31.5074 47.769 33.8782C48.2233 35.8539 48.3116 37.5131 48.0337 38.8553C47.7563 40.1983 47.3048 41.3814 46.6808 42.4027C46.0561 43.4255 45.4289 44.4386 44.8006 45.4429C44.308 46.192 43.8583 46.9969 43.451 47.8583C43.0429 48.7205 42.7836 49.6722 42.6719 50.7151C42.5599 51.7576 42.661 52.9617 42.9746 54.3265L43.2347 55.4576L35.4198 57.16ZM41.94 67.6768C40.6005 67.9687 39.4217 67.8576 38.4057 67.3438C37.3881 66.8297 36.7483 65.9987 36.4842 64.8486C36.2285 63.7356 36.4503 62.7065 37.1517 61.7615C37.8519 60.817 38.854 60.2027 40.1567 59.9189C41.4587 59.6352 42.6156 59.7794 43.6263 60.3511C44.637 60.9232 45.2702 61.7663 45.5263 62.8789C45.7908 64.029 45.5932 65.0421 44.9363 65.9209C44.2779 66.7997 43.2796 67.3849 41.94 67.6768Z" fill="#55A3F3"/>
<path d="M33.8995 57.4917L33.2434 54.6365C32.8306 52.8407 32.7177 51.2911 32.907 49.9858C33.0952 48.6816 33.4534 47.5191 33.981 46.4991C34.5086 45.4791 35.0654 44.5472 35.653 43.7025C36.4515 42.5862 37.14 41.5028 37.7192 40.4522C38.2984 39.4024 38.4229 38.1591 38.0926 36.7221C37.9111 35.9327 37.5531 35.3121 37.0205 34.8625C36.4871 34.4129 35.8972 34.0987 35.2505 33.9186C34.603 33.7396 34.0009 33.7098 33.4427 33.8313C32.3629 34.0664 31.5171 34.5052 30.9031 35.1483C30.2891 35.7913 29.8357 36.5406 29.5444 37.396C29.252 38.2518 29.0344 39.1291 28.889 40.028L21.8016 38.5168C21.8762 37.8217 22.0772 36.9107 22.4042 35.7833C22.7312 34.6569 23.2901 33.4789 24.0828 32.2495C24.8748 31.0216 25.9645 29.8979 27.3518 28.8785C28.7386 27.8606 30.5119 27.1153 32.6701 26.6451C34.7911 26.1832 36.7779 26.1184 38.6329 26.4496C40.4868 26.7812 42.0835 27.5648 43.4225 28.8009C44.7617 30.0365 45.7036 31.8394 46.2487 34.2099C46.7031 36.1856 46.7913 37.8448 46.5135 39.187C46.236 40.5299 45.7846 41.713 45.1605 42.7347C44.5358 43.7576 43.9087 44.7706 43.2804 45.7749C42.7878 46.524 42.3384 47.3289 41.9307 48.1903C41.5227 49.0525 41.2634 50.0043 41.1517 51.0471C41.0396 52.0897 41.1404 53.2937 41.4544 54.6585L41.7145 55.7897L33.8995 57.4917ZM40.4198 68.0081C39.0802 68.3 37.9014 68.1889 36.8854 67.6751C35.8678 67.161 35.2284 66.33 34.9639 65.1803C34.7082 64.0673 34.9301 63.0381 35.6314 62.0932C36.332 61.1487 37.3337 60.5343 38.6364 60.2506C39.9384 59.9669 41.0953 60.1111 42.106 60.6828C43.1167 61.2548 43.7499 62.098 44.006 63.211C44.2705 64.361 44.0729 65.3742 43.416 66.2529C42.7576 67.1314 41.7593 67.7162 40.4198 68.0081Z" fill="white"/>
<path d="M167.506 47.2504C174.024 35.2007 169.214 20.3638 156.763 14.1112C144.313 7.85868 128.936 12.5582 122.419 24.6079C115.901 36.6576 120.711 51.4945 133.161 57.747C145.612 63.9996 160.988 59.3001 167.506 47.2504Z" fill="#55A3F3"/>
<path d="M171.52 43.3585C175.47 30.3178 166.737 16.4109 152.015 12.2966C137.292 8.1822 122.155 15.4184 118.205 28.4591C114.256 41.4997 122.988 55.4066 137.711 59.521C152.433 63.6354 167.57 56.3992 171.52 43.3585Z" stroke="#55A3F3" stroke-miterlimit="10"/>
<path d="M158.072 55.6845L152.96 68.1062L151.452 55.2842L158.072 55.6845Z" fill="#55A3F3"/>
<path d="M141.021 43.5245L141.318 41.0711C141.506 39.528 141.861 38.2618 142.386 37.2713C142.91 36.2815 143.529 35.4499 144.241 34.7775C144.954 34.1051 145.665 33.511 146.375 32.9944C147.331 32.3178 148.19 31.6382 148.952 30.9552C149.714 30.2729 150.17 29.3142 150.32 28.0796C150.402 27.4013 150.296 26.8106 150.001 26.3091C149.705 25.8075 149.326 25.3987 148.863 25.082C148.399 24.7657 147.929 24.5809 147.45 24.5282C146.523 24.4265 145.724 24.5497 145.051 24.8982C144.378 25.2465 143.802 25.7228 143.324 26.3272C142.846 26.9317 142.421 27.573 142.048 28.2509L140.743 28.1078L136.842 25.147C137.101 24.6126 137.522 23.9395 138.106 23.1281C138.69 22.317 139.473 21.5271 140.456 20.7588C141.439 19.9917 142.629 19.3871 144.025 18.9458C145.421 18.5052 147.046 18.3858 148.898 18.589C150.718 18.7887 152.318 19.269 153.699 20.0304C155.078 20.7915 156.124 21.8445 156.835 23.1891C157.546 24.5333 157.777 26.224 157.53 28.261C157.325 29.9585 156.919 31.3059 156.312 32.3021C155.706 33.299 155.007 34.1216 154.217 34.7694C153.426 35.4179 152.637 36.058 151.849 36.6906C151.242 37.156 150.653 37.6777 150.081 38.2557C149.509 38.8342 149.03 39.5239 148.641 40.326C148.253 41.1277 147.987 42.115 147.845 43.2876L147.727 44.2596L141.021 43.5245ZM143.19 53.6603C142.04 53.5341 141.134 53.1299 140.473 52.4479C139.811 51.7653 139.541 50.9309 139.66 49.943C139.776 48.9866 140.249 48.225 141.078 47.6592C141.906 47.0935 142.88 46.8716 143.998 46.9947C145.115 47.1174 145.995 47.5421 146.635 48.2688C147.274 48.996 147.537 49.8381 147.42 50.7942C147.301 51.7824 146.852 52.5377 146.078 53.0628C145.302 53.5872 144.339 53.7861 143.19 53.6603Z" fill="#2C54AC"/>
<path d="M139.716 43.3809L140.014 40.9275C140.201 39.3844 140.556 38.1182 141.081 37.1277C141.605 36.138 142.224 35.3067 142.937 34.6339C143.649 33.9616 144.36 33.3674 145.07 32.8508C146.026 32.1746 146.885 31.4947 147.647 30.8116C148.41 30.1293 148.866 29.1706 149.015 27.936C149.097 27.2574 148.991 26.6667 148.696 26.1655C148.4 25.6639 148.021 25.2551 147.558 24.9384C147.095 24.6222 146.624 24.4373 146.145 24.3847C145.218 24.2829 144.419 24.4062 143.746 24.7546C143.073 25.103 142.497 25.5792 142.019 26.1836C141.541 26.7881 141.116 27.4294 140.742 28.1074L135.537 25.003C135.796 24.4687 136.217 23.7956 136.801 22.9841C137.384 22.1731 138.168 21.3832 139.151 20.6153C140.134 19.8481 141.323 19.2435 142.72 18.8022C144.116 18.3617 145.74 18.2422 147.593 18.4454C149.413 18.6452 151.013 19.1258 152.393 19.8868C153.773 20.6479 154.819 21.7009 155.53 23.0455C156.24 24.3898 156.472 26.0804 156.225 28.1174C156.019 29.8153 155.613 31.1624 155.007 32.1586C154.401 33.1555 153.702 33.9784 152.912 34.6258C152.121 35.2744 151.331 35.9144 150.543 36.547C149.936 37.0124 149.347 37.5341 148.776 38.1122C148.204 38.6907 147.724 39.3804 147.336 40.1824C146.947 40.9841 146.682 41.9718 146.54 43.144L146.422 44.116L139.716 43.3809ZM141.885 53.5167C140.736 53.3906 139.829 52.9863 139.168 52.304C138.506 51.6213 138.236 50.787 138.355 49.7991C138.471 48.8427 138.944 48.081 139.773 47.5153C140.602 46.9496 141.575 46.7277 142.693 46.8507C143.811 46.9735 144.69 47.3982 145.33 48.1249C145.97 48.852 146.232 49.6942 146.116 50.6503C145.996 51.6385 145.548 52.3937 144.773 52.9188C143.997 53.4436 143.035 53.6426 141.885 53.5167Z" fill="white"/>
<path d="M112.609 71.6618C115.385 62.0894 109.61 52.1835 99.7107 49.5365C89.8112 46.8894 79.5358 52.5035 76.7599 62.0759C73.984 71.6483 79.7588 81.5541 89.6583 84.2011C99.5578 86.8482 109.833 81.2341 112.609 71.6618Z" fill="#0A2A6B"/>
<path d="M114.181 71.7633C116.721 62.1316 109.984 52.1874 99.1332 49.5525C88.2826 46.9175 77.4272 52.5895 74.8871 62.2213C72.3469 71.853 79.0839 81.7972 89.9346 84.4322C100.785 87.0671 111.641 81.3951 114.181 71.7633Z" stroke="#0A2A6B" stroke-miterlimit="10"/>
<path d="M95.0242 84.008L90.0748 90.6152L90.3213 82.8659L95.0242 84.008Z" fill="#0A2A6B"/>
<path d="M92.8295 72.4414L92.7346 70.751C92.675 69.688 92.7624 68.7929 92.9983 68.0648C93.2336 67.3375 93.5517 66.7064 93.9524 66.1721C94.3531 65.6381 94.7618 65.1566 95.1798 64.7282C95.7447 64.164 96.2434 63.6081 96.6766 63.0614C97.1097 62.5147 97.3023 61.8164 97.2548 60.9657C97.2287 60.4982 97.0855 60.1114 96.8256 59.8058C96.5654 59.5003 96.2598 59.2669 95.9086 59.1052C95.557 58.9439 95.2165 58.872 94.8864 58.8902C94.2478 58.9258 93.7223 59.0988 93.3089 59.4099C92.8955 59.721 92.5639 60.1071 92.3138 60.569C92.0633 61.031 91.8533 61.5121 91.6823 62.0118L90.7829 62.0621L87.7886 60.5014C87.8991 60.1113 88.1031 59.6095 88.4 58.9958C88.6971 58.3824 89.1312 57.7607 89.7034 57.1316C90.2752 56.5028 91.0069 55.9609 91.8978 55.5057C92.7884 55.0514 93.8725 54.7878 95.1498 54.7164C96.4047 54.6466 97.5441 54.791 98.5692 55.1497C99.594 55.5085 100.428 56.1019 101.071 56.9298C101.713 57.7578 102.074 58.8734 102.152 60.2769C102.218 61.4464 102.106 62.4019 101.816 63.1431C101.526 63.8846 101.153 64.5188 100.697 65.045C100.241 65.572 99.7837 66.0931 99.3273 66.6091C98.9731 66.9916 98.6379 67.4102 98.3212 67.8649C98.0039 68.3201 97.7628 68.8396 97.597 69.4249C97.4308 70.0099 97.3708 70.7068 97.416 71.5147L97.4534 72.1842L92.8295 72.4414ZM95.5179 79.0419C94.7254 79.0859 94.0643 78.9149 93.5349 78.5286C93.0048 78.142 92.7217 77.6089 92.6834 76.9284C92.6466 76.2696 92.8741 75.702 93.3664 75.2267C93.8584 74.7515 94.49 74.4923 95.2609 74.4494C96.0311 74.4066 96.6771 74.5945 97.1971 75.0135C97.7175 75.4326 97.996 75.9718 98.0331 76.6307C98.0711 77.3115 97.8595 77.872 97.3985 78.3137C96.9372 78.755 96.3104 78.9978 95.5179 79.0419Z" fill="#55A3F3"/>
<path d="M91.9301 72.4909L91.8353 70.8006C91.7757 69.7376 91.8631 68.8424 92.099 68.1143C92.3342 67.387 92.6524 66.756 93.0531 66.2216C93.4538 65.6876 93.8625 65.2061 94.2805 64.7777C94.8453 64.2135 95.3441 63.6576 95.7772 63.1105C96.2103 62.5639 96.403 61.8656 96.3555 61.0149C96.3293 60.5474 96.1861 60.1606 95.9263 59.855C95.666 59.5495 95.3605 59.316 95.0093 59.1544C94.6577 58.9931 94.3172 58.9211 93.9867 58.9394C93.348 58.975 92.8226 59.148 92.4092 59.4591C91.9958 59.7701 91.6642 60.1563 91.4141 60.6182C91.1636 61.0802 90.9536 61.5613 90.7826 62.061L86.8888 60.5502C86.9994 60.1601 87.2033 59.6584 87.5003 59.0446C87.7973 58.4312 88.2311 57.8099 88.8036 57.1804C89.3754 56.5517 90.1072 56.0097 90.9981 55.5546C91.8887 55.0998 92.9728 54.8366 94.25 54.7653C95.5049 54.6955 96.6444 54.8398 97.6699 55.1985C98.6946 55.5573 99.5285 56.1507 100.171 56.9786C100.814 57.8066 101.175 58.9222 101.253 60.3253C101.319 61.4948 101.207 62.4503 100.917 63.1915C100.627 63.933 100.254 64.5673 99.7977 65.0935C99.3411 65.6204 98.8843 66.1415 98.4279 66.6575C98.0737 67.04 97.7385 67.4586 97.4215 67.9134C97.1045 68.3685 96.8631 68.8884 96.6972 69.4733C96.531 70.0583 96.471 70.7553 96.5163 71.5631L96.5536 72.2326L91.9301 72.4909ZM94.6186 79.0918C93.8261 79.1358 93.1649 78.9648 92.6356 78.5785C92.1054 78.1919 91.8224 77.6592 91.7841 76.9784C91.7473 76.3195 91.9748 75.7522 92.4671 75.2766C92.9591 74.8014 93.5907 74.5422 94.3612 74.4993C95.1314 74.4565 95.7774 74.6444 96.2974 75.0635C96.8178 75.4825 97.0963 76.0217 97.1335 76.6806C97.1718 77.3611 96.9598 77.922 96.4989 78.3636C96.0378 78.8045 95.4111 79.0474 94.6186 79.0918Z" fill="white"/>
<g opacity="0.4">
<path d="M169.348 80.619L168.953 79.1197C168.704 78.1766 168.619 77.3591 168.697 76.666C168.775 75.9736 168.945 75.3532 169.207 74.8055C169.469 74.2581 169.748 73.7565 170.044 73.3006C170.448 72.6982 170.794 72.1142 171.083 71.55C171.372 70.9859 171.416 70.3264 171.218 69.572C171.108 69.1573 170.909 68.8351 170.619 68.6056C170.33 68.3761 170.013 68.2193 169.668 68.1343C169.322 68.0498 169.003 68.0436 168.71 68.1164C168.143 68.2578 167.703 68.5027 167.389 68.8523C167.075 69.2019 166.847 69.605 166.708 70.062C166.568 70.5189 166.467 70.9863 166.405 71.4639L162.632 70.7754C162.66 70.4068 162.751 69.9219 162.905 69.3207C163.059 68.7199 163.335 68.0884 163.733 67.4261C164.131 66.7645 164.689 66.1533 165.406 65.5927C166.122 65.0328 167.047 64.6111 168.181 64.3288C169.294 64.0516 170.344 63.9862 171.331 64.1322C172.317 64.2786 173.174 64.6681 173.903 65.3007C174.632 65.9332 175.16 66.8717 175.488 68.1165C175.761 69.1541 175.836 70.0298 175.711 70.7441C175.587 71.4583 175.368 72.0908 175.055 72.6408C174.742 73.1912 174.427 73.7369 174.112 74.2774C173.864 74.6812 173.64 75.1139 173.438 75.5755C173.237 76.0379 173.116 76.5453 173.074 77.0981C173.032 77.6509 173.106 78.2862 173.294 79.0026L173.451 79.5966L169.348 80.619ZM172.972 86.0777C172.268 86.253 171.643 86.2127 171.097 85.9568C170.55 85.701 170.198 85.2714 170.039 84.6677C169.885 84.0831 169.985 83.5354 170.34 83.025C170.695 82.5147 171.214 82.1743 171.899 82.0037C172.583 81.8336 173.197 81.8917 173.741 82.1781C174.285 82.4649 174.634 82.9005 174.788 83.4851C174.947 84.0888 174.86 84.6279 174.527 85.1029C174.194 85.5776 173.676 85.9025 172.972 86.0777Z" fill="#55A3F3"/>
<path d="M16.2551 110.64L15.581 109.391C15.1572 108.606 14.9046 107.898 14.8245 107.269C14.744 106.639 14.7612 106.056 14.8755 105.517C14.9898 104.98 15.1292 104.479 15.2941 104.015C15.5222 103.4 15.7035 102.813 15.838 102.255C15.9725 101.697 15.8703 101.103 15.531 100.475C15.3447 100.129 15.0978 99.8836 14.7915 99.7387C14.4849 99.5938 14.1693 99.5183 13.8448 99.5128C13.5199 99.5072 13.2356 99.566 12.9911 99.6895C12.5181 99.9288 12.1805 100.235 11.9774 100.608C11.774 100.981 11.6596 101.384 11.6338 101.817C11.6079 102.25 11.6194 102.684 11.6678 103.12L8.16988 103.269C8.11502 102.937 8.09144 102.489 8.09833 101.925C8.10562 101.362 8.214 100.747 8.42497 100.08C8.63561 99.4134 8.99856 98.7595 9.51382 98.1183C10.0287 97.4778 10.7592 96.9179 11.7044 96.4394C12.6334 95.9694 13.551 95.7001 14.4582 95.6311C15.365 95.5625 16.2101 95.7349 16.9937 96.1484C17.7772 96.5619 18.4485 97.2874 19.0081 98.3245C19.4744 99.1887 19.7298 99.9501 19.7734 100.608C19.8174 101.266 19.7594 101.871 19.6001 102.421C19.4409 102.972 19.2792 103.519 19.1161 104.061C18.9829 104.469 18.8774 104.897 18.7985 105.347C18.7195 105.797 18.7213 106.271 18.8038 106.77C18.8859 107.268 19.0883 107.816 19.4104 108.413L19.6775 108.908L16.2551 110.64ZM20.6498 114.748C20.0631 115.044 19.4995 115.135 18.9594 115.018C18.419 114.901 18.0137 114.592 17.7421 114.089C17.4793 113.602 17.45 113.096 17.6551 112.572C17.8599 112.049 18.2474 111.643 18.8182 111.353C19.3886 111.065 19.9463 110.993 20.4908 111.137C21.0354 111.282 21.4395 111.598 21.7023 112.085C21.9739 112.588 22.0125 113.083 21.8196 113.571C21.6263 114.059 21.2365 114.451 20.6498 114.748Z" fill="#55A3F3"/>
<path d="M92.2078 24.9294L92.3528 23.5251C92.4443 22.6419 92.6343 21.915 92.9244 21.3446C93.2137 20.7741 93.5591 20.2937 93.9592 19.9025C94.3593 19.5118 94.7595 19.1658 95.1601 18.8638C95.6995 18.4684 96.1833 18.0718 96.6117 17.6748C97.0404 17.2777 97.2912 16.7258 97.3644 16.0194C97.4047 15.6311 97.3375 15.2946 97.1643 15.011C96.9903 14.7274 96.7697 14.4973 96.5021 14.3207C96.2341 14.1444 95.9632 14.0431 95.6889 14.0177C95.1584 13.9685 94.7033 14.0464 94.322 14.2515C93.9408 14.4571 93.6169 14.7345 93.3499 15.0842C93.0826 15.434 92.8464 15.8045 92.6397 16.1952L89.6345 14.471C89.7771 14.1633 90.0109 13.7749 90.3363 13.3057C90.6617 12.837 91.1009 12.3784 91.655 11.9305C92.2089 11.4829 92.8822 11.1264 93.6758 10.861C94.4686 10.5964 95.3955 10.5127 96.4562 10.6112C97.4981 10.7081 98.417 10.9674 99.2131 11.3894C100.009 11.8111 100.617 12.4029 101.037 13.1642C101.456 13.9255 101.606 14.8891 101.485 16.0551C101.385 17.0269 101.167 17.8003 100.83 18.375C100.494 18.9501 100.103 19.4267 99.6583 19.8043C99.213 20.182 98.7683 20.5553 98.3244 20.9241C97.9824 21.1959 97.651 21.4994 97.3305 21.835C97.0096 22.1707 96.7425 22.5693 96.5285 23.0312C96.3145 23.4927 96.1728 24.0595 96.1038 24.7305L96.0464 25.2867L92.2078 24.9294ZM93.549 30.6988C92.8909 30.6375 92.3693 30.4152 91.9845 30.0317C91.5994 29.6479 91.4365 29.1739 91.495 28.6085C91.5514 28.0611 91.8137 27.6217 92.2819 27.2905C92.7494 26.9594 93.3034 26.8239 93.9435 26.8832C94.5833 26.9426 95.0895 27.177 95.4627 27.5864C95.8355 27.9959 95.9938 28.4745 95.9374 29.0218C95.8789 29.5873 95.6304 30.023 95.1929 30.3302C94.755 30.6371 94.2071 30.7602 93.549 30.6988Z" fill="#55A3F3"/>
<path d="M80.3059 41.5421L80.0286 40.4302C79.8544 39.7307 79.7991 39.1256 79.8634 38.6142C79.9278 38.1032 80.0592 37.6463 80.2584 37.2435C80.4572 36.8411 80.6681 36.473 80.8922 36.1387C81.1965 35.6971 81.4579 35.2687 81.6766 34.8539C81.8958 34.4395 81.9351 33.9525 81.7959 33.3929C81.7192 33.0852 81.5748 32.8452 81.3633 32.673C81.1514 32.5008 80.9183 32.3818 80.6644 32.3157C80.4097 32.25 80.1741 32.2423 79.9566 32.2936C79.5361 32.3929 79.2085 32.5699 78.9727 32.8255C78.7374 33.0811 78.5653 33.3771 78.4577 33.7135C78.3497 34.0502 78.2707 34.3946 78.2205 34.747L75.4381 34.204C75.4624 33.9318 75.5343 33.5742 75.6539 33.1311C75.7739 32.6884 75.9836 32.2242 76.2849 31.7383C76.5859 31.2528 77.0037 30.806 77.539 30.3983C78.074 29.991 78.7619 29.6878 79.6026 29.4893C80.4288 29.2945 81.2052 29.2557 81.9331 29.3725C82.6602 29.4898 83.2905 29.7853 83.8229 30.2596C84.3557 30.7338 84.7371 31.4325 84.967 32.3556C85.1589 33.125 85.2054 33.7731 85.1065 34.2999C85.0076 34.827 84.8398 35.2924 84.603 35.696C84.3658 36.1 84.1281 36.5008 83.8898 36.8975C83.7026 37.1935 83.5328 37.5114 83.3794 37.8512C83.2259 38.1911 83.1317 38.5649 83.0954 38.9735C83.0592 39.3818 83.1071 39.8521 83.24 40.3834L83.3498 40.8238L80.3059 41.5421ZM82.9315 45.6102C82.41 45.7334 81.9482 45.6978 81.547 45.5039C81.1454 45.3096 80.8894 44.9891 80.7776 44.5412C80.6696 44.1077 80.749 43.7038 81.0162 43.3295C81.2834 42.9555 81.6705 42.7085 82.1782 42.5886C82.6851 42.4691 83.1388 42.5175 83.5382 42.7344C83.9375 42.9512 84.1911 43.2765 84.2995 43.71C84.4113 44.1579 84.3414 44.5555 84.0907 44.9032C83.8393 45.2518 83.4531 45.487 82.9315 45.6102Z" fill="#55A3F3"/>
<path d="M105.208 40.1629L105.377 39.3329C105.484 38.8108 105.64 38.3875 105.847 38.0629C106.053 37.7384 106.287 37.4707 106.549 37.2593C106.81 37.0482 107.07 36.8637 107.326 36.7054C107.671 36.4992 107.983 36.2892 108.262 36.0758C108.541 35.8624 108.723 35.5471 108.808 35.1294C108.855 34.9 108.835 34.6955 108.748 34.5164C108.661 34.3378 108.543 34.1882 108.394 34.0682C108.244 33.9482 108.089 33.8729 107.927 33.8428C107.614 33.7841 107.337 33.8058 107.098 33.9074C106.859 34.009 106.649 34.1568 106.47 34.3507C106.29 34.5447 106.127 34.7529 105.981 34.9748L104.29 33.7805C104.393 33.6048 104.556 33.3857 104.778 33.1238C104.999 32.862 105.288 32.6124 105.645 32.3755C106.001 32.1389 106.424 31.9632 106.913 31.8487C107.402 31.7341 107.959 31.7354 108.586 31.8527C109.201 31.968 109.734 32.1731 110.184 32.4688C110.634 32.7642 110.961 33.1506 111.167 33.6283C111.372 34.1055 111.404 34.689 111.264 35.378C111.146 35.9524 110.971 36.4016 110.736 36.7262C110.502 37.0508 110.241 37.3139 109.953 37.5146C109.665 37.7156 109.378 37.9137 109.092 38.1095C108.872 38.2527 108.656 38.4159 108.445 38.5982C108.234 38.781 108.051 39.0041 107.897 39.268C107.742 39.5315 107.624 39.8622 107.543 40.2588L107.476 40.5875L105.208 40.1629ZM105.667 43.6791C105.279 43.6063 104.981 43.4448 104.774 43.1949C104.567 42.9446 104.497 42.6531 104.566 42.3188C104.632 41.9952 104.814 41.7475 105.113 41.5757C105.411 41.4038 105.749 41.3532 106.128 41.4239C106.505 41.4947 106.794 41.6625 106.992 41.9272C107.19 42.1919 107.256 42.4862 107.19 42.8098C107.122 43.1441 106.948 43.3902 106.669 43.5497C106.39 43.7088 106.056 43.7518 105.667 43.6791Z" fill="#55A3F3"/>
<path d="M161.552 100.56L161.661 99.6047C161.73 99.0035 161.865 98.5097 162.067 98.123C162.268 97.7362 162.507 97.4115 162.783 97.1479C163.058 96.8844 163.333 96.6513 163.608 96.4487C163.979 96.1832 164.311 95.9163 164.606 95.6488C164.901 95.3813 165.076 95.007 165.131 94.5262C165.161 94.2618 165.118 94.0324 165.002 93.8379C164.886 93.6435 164.737 93.4853 164.556 93.3632C164.375 93.2412 164.191 93.1703 164.005 93.151C163.643 93.1135 163.333 93.1638 163.072 93.301C162.81 93.4383 162.587 93.625 162.403 93.8614C162.219 94.0978 162.055 94.3486 161.911 94.6134L159.876 93.4178C159.976 93.2093 160.138 92.9461 160.363 92.6286C160.588 92.3115 160.891 92.0021 161.272 91.7008C161.652 91.3999 162.114 91.1616 162.656 90.9863C163.198 90.8113 163.831 90.761 164.552 90.8355C165.261 90.9089 165.885 91.0921 166.424 91.3846C166.963 91.6775 167.373 92.0847 167.654 92.6065C167.934 93.128 168.029 93.7857 167.938 94.579C167.862 95.2404 167.708 95.7656 167.474 96.1551C167.241 96.5446 166.971 96.8666 166.665 97.1207C166.359 97.3752 166.053 97.6264 165.749 97.8745C165.514 98.0574 165.285 98.2616 165.065 98.4882C164.843 98.7148 164.659 98.9843 164.509 99.2974C164.36 99.6106 164.26 99.9954 164.207 100.452L164.164 100.831L161.552 100.56ZM162.423 104.5C161.975 104.454 161.622 104.299 161.362 104.035C161.103 103.771 160.996 103.447 161.04 103.062C161.082 102.689 161.264 102.392 161.585 102.17C161.907 101.947 162.285 101.859 162.72 101.904C163.156 101.949 163.499 102.112 163.75 102.393C164.001 102.675 164.105 103.002 164.063 103.375C164.019 103.759 163.846 104.055 163.546 104.261C163.245 104.467 162.871 104.547 162.423 104.5Z" fill="#55A3F3"/>
<path d="M19.5943 89.1056L19.5194 88.1594C19.4722 87.5642 19.5096 87.0615 19.632 86.651C19.7544 86.2405 19.9244 85.8829 20.142 85.5787C20.3597 85.2745 20.5826 84.9997 20.8113 84.7544C21.1206 84.4311 21.3927 84.1137 21.6285 83.8019C21.8644 83.4905 21.9634 83.0966 21.9254 82.6202C21.9046 82.3585 21.8193 82.1434 21.6696 81.9756C21.5199 81.8076 21.3453 81.6804 21.1466 81.5942C20.9475 81.5079 20.7556 81.4716 20.5708 81.486C20.213 81.5137 19.9208 81.6169 19.6933 81.7965C19.4658 81.9757 19.2845 82.1965 19.1506 82.4582C19.0163 82.72 18.9046 82.9923 18.8154 83.2744L16.6131 82.4752C16.6701 82.2553 16.7778 81.9714 16.9362 81.624C17.0945 81.2766 17.3297 80.923 17.6426 80.5635C17.955 80.2041 18.3577 79.8914 18.8514 79.6257C19.3447 79.3601 19.9491 79.1995 20.6638 79.1441C21.3661 79.0897 22.007 79.1567 22.5862 79.3455C23.1654 79.5343 23.6405 79.8566 24.0115 80.3128C24.3826 80.769 24.5991 81.3899 24.6615 82.1752C24.7133 82.83 24.6628 83.3668 24.51 83.7855C24.3573 84.2046 24.1562 84.5645 23.9076 84.8648C23.6587 85.1655 23.4091 85.4633 23.1602 85.7578C22.9667 85.9767 22.7841 86.2153 22.6124 86.4738C22.4407 86.7327 22.3122 87.0268 22.2267 87.3569C22.1412 87.6869 22.1166 88.0781 22.1526 88.5303L22.1823 88.9051L19.5943 89.1056ZM21.1872 92.772C20.7435 92.8064 20.3706 92.7185 20.069 92.5084C19.7669 92.2982 19.6011 92.0029 19.5707 91.6219C19.5413 91.253 19.6615 90.9322 19.9314 90.6598C20.2008 90.3873 20.5513 90.2344 20.9829 90.2011C21.4141 90.1677 21.7784 90.2652 22.0757 90.4936C22.3726 90.7219 22.5359 91.0207 22.5653 91.3896C22.5957 91.7706 22.484 92.0873 22.2314 92.3405C21.9789 92.594 21.6305 92.7376 21.1872 92.772Z" fill="#55A3F3"/>
</g>
<path d="M103.929 187.077L117.769 186.36L115.859 158.923C113.954 158.042 111.986 157.29 109.971 156.676L103.929 187.077Z" fill="#FF8775"/>
<path d="M109.971 156.675C111.986 157.29 113.955 158.041 115.859 158.923L114.216 135.318L109.971 156.675Z" fill="#55A3F3"/>
<path d="M151.351 118.954C150.319 118.333 149.637 117.882 149.47 117.647C148.418 116.171 147.871 100.62 147.871 100.62L132.136 111.851L132.369 119.352C132.369 119.352 130.708 120.15 128.384 121.513L135.616 135.862L151.351 118.954Z" fill="#FF8775"/>
<path d="M173.262 136.916C172.004 130.287 156.793 122.231 151.352 118.954L135.617 135.862L128.384 121.513C123.541 124.353 115.815 129.651 114.216 135.318C111.85 143.705 114.934 186.506 114.934 186.506L170.394 183.632C170.394 183.632 170.347 170.725 170.06 165.18C169.772 159.636 174.76 144.802 173.262 136.916Z" fill="#55A3F3"/>
<g opacity="0.3">
<mask id="mask0_1227_571" style="mask-type:luminance" maskUnits="userSpaceOnUse" x="113" y="118" width="61" height="69">
<path d="M173.262 136.916C172.004 130.287 156.794 122.231 151.352 118.954L135.617 135.862L128.384 121.513C123.541 124.353 115.815 129.651 114.216 135.318C111.85 143.705 114.935 186.506 114.935 186.506L170.394 183.632C170.394 183.632 170.347 170.725 170.06 165.18C169.772 159.636 174.76 144.802 173.262 136.916Z" fill="white"/>
</mask>
<g mask="url(#mask0_1227_571)">
<path d="M164.027 111.113L168.535 198.11" stroke="#2C54AC" stroke-width="0.9738" stroke-miterlimit="10"/>
<path d="M153.125 111.678L157.634 198.675" stroke="#2C54AC" stroke-width="0.9738" stroke-miterlimit="10"/>
<path d="M142.223 112.243L146.732 199.24" stroke="#2C54AC" stroke-width="0.9738" stroke-miterlimit="10"/>
<path d="M131.322 112.808L135.83 199.805" stroke="#2C54AC" stroke-width="0.9738" stroke-miterlimit="10"/>
<path d="M120.42 113.373L124.928 200.37" stroke="#2C54AC" stroke-width="0.9738" stroke-miterlimit="10"/>
<path d="M106.893 129.109L173.434 125.661" stroke="#2C54AC" stroke-width="0.9738" stroke-miterlimit="10"/>
<path d="M107.288 136.732L173.829 133.284" stroke="#2C54AC" stroke-width="0.9738" stroke-miterlimit="10"/>
<path d="M107.683 144.354L174.224 140.906" stroke="#2C54AC" stroke-width="0.9738" stroke-miterlimit="10"/>
<path d="M108.078 151.978L174.619 148.529" stroke="#2C54AC" stroke-width="0.9738" stroke-miterlimit="10"/>
<path d="M108.473 159.6L175.014 156.151" stroke="#2C54AC" stroke-width="0.9738" stroke-miterlimit="10"/>
<path d="M108.868 167.223L175.409 163.774" stroke="#2C54AC" stroke-width="0.9738" stroke-miterlimit="10"/>
<path d="M109.263 174.845L175.804 171.396" stroke="#2C54AC" stroke-width="0.9738" stroke-miterlimit="10"/>
<path d="M109.658 182.468L176.199 179.019" stroke="#2C54AC" stroke-width="0.9738" stroke-miterlimit="10"/>
<path d="M110.053 190.09L176.594 186.642" stroke="#2C54AC" stroke-width="0.9738" stroke-miterlimit="10"/>
</g>
</g>
<path d="M146.926 97.2851C146.701 96.4627 146.699 95.5993 146.726 94.7481C146.833 91.3963 147.337 88.3331 148.258 85.0967C146.653 85.1567 145.036 84.5279 143.925 83.4119C142.814 82.2958 142.426 80.5828 142.55 79.036C141.855 80.246 140.564 81.122 139.152 81.3428C138.807 81.3967 138.449 81.413 138.112 81.3281C137.183 81.0942 136.617 80.1302 136.564 79.2045C136.511 78.2788 136.832 77.3294 137.173 76.4611C135.028 79.1784 131.211 80.0583 127.685 80.2733C125.701 80.3941 123.684 80.3609 121.763 79.8753C120.704 79.6079 119.678 79.1882 118.758 78.6199C118.587 79.2293 118.433 79.8581 118.31 80.5238C116.411 90.7713 119.898 105.581 121.716 112.207C122.293 114.312 124.289 115.762 126.545 115.7C129.021 115.633 132.197 115.331 134.492 114.356C139.816 112.092 145.2 108.427 149.523 100.782C148.32 99.8325 147.319 98.7144 146.926 97.2851Z" fill="#FF8775"/>
<path d="M142.187 66.6108C133.861 65.4457 122.058 66.8224 118.758 78.6205C119.677 79.1888 120.704 79.6085 121.763 79.8759C123.684 80.3615 125.701 80.3947 127.685 80.2739C131.21 80.0589 135.027 79.1793 137.173 76.4617C136.831 77.3296 136.51 78.2791 136.564 79.2051C136.617 80.1308 137.183 81.0948 138.111 81.3287C138.449 81.4136 138.806 81.3973 139.151 81.3434C140.564 81.1226 141.854 80.2466 142.55 79.0366C142.426 80.5838 142.813 82.2968 143.925 83.4125C145.036 84.5286 146.653 85.1573 148.258 85.0973C147.337 88.3333 146.833 91.3969 146.726 94.7487C146.699 95.5999 146.7 96.4633 146.926 97.2857C147.319 98.7147 148.32 99.8331 149.522 100.783C150.975 98.2135 152.308 95.1962 153.479 91.63C158.134 77.4533 150.942 67.8358 142.187 66.6108Z" fill="#0A2A6B"/>
<path d="M155.419 95.1523C154.939 97.2553 153.599 99.3086 151.837 100.644C151.285 101.062 150.678 101.418 150.057 101.536C148.657 101.801 147.518 100.738 147.23 99.3802C146.943 98.0221 147.338 96.4569 147.896 95.0014C148.617 93.1193 149.848 91.0896 151.644 90.454C154.54 89.4287 156.013 92.5473 155.419 95.1523Z" fill="#FF8775"/>
<path d="M148.597 99.926C149.224 99.6608 149.814 99.2172 150.281 98.6622C150.374 98.5505 150.467 98.4279 150.5 98.2921C150.565 98.0325 150.399 97.8285 150.244 97.6659C149.93 97.3371 149.616 97.0086 149.302 96.6798C149.239 96.6141 149.174 96.544 149.157 96.4469C149.139 96.3395 149.181 96.2187 149.223 96.105C149.755 94.6582 150.371 93.0936 151.591 92.1368C151.92 91.8786 152.293 91.6727 152.667 91.6225C153.221 91.5479 153.707 91.8293 154.018 92.239C154.328 92.6488 154.491 93.1756 154.639 93.6991C154.639 93.6991 154.64 96.6664 152.499 98.6988C150.358 100.732 148.597 99.926 148.597 99.926Z" fill="#FF8775"/>
<path d="M154.639 93.699C154.418 93.1561 154.213 92.5797 153.801 92.1958C153.603 92.0053 153.357 91.866 153.101 91.8217C152.844 91.7766 152.587 91.8196 152.342 91.9348C151.856 92.1729 151.422 92.575 151.076 93.0176C150.722 93.4603 150.436 93.9605 150.192 94.4827C149.938 95.0017 149.727 95.5453 149.515 96.0941C149.458 96.2326 149.407 96.3714 149.415 96.4015C149.414 96.4107 149.415 96.4249 149.45 96.4676L149.592 96.6247C149.793 96.8437 149.992 97.0654 150.189 97.289C150.289 97.4043 150.382 97.5026 150.49 97.6346C150.593 97.7637 150.7 97.9373 150.701 98.1461C150.704 98.3549 150.597 98.5315 150.494 98.6539C150.389 98.7794 150.283 98.884 150.17 98.9912C149.71 99.4019 149.182 99.745 148.597 99.9259C149.127 99.6312 149.595 99.2574 149.964 98.8069C150.145 98.5887 150.364 98.3387 150.326 98.1644C150.313 97.9874 150.074 97.7964 149.86 97.5825C149.645 97.3752 149.432 97.1664 149.223 96.9544L149.058 96.7867C148.994 96.7188 148.913 96.6014 148.897 96.4632C148.877 96.1955 148.968 96.0575 149.005 95.9198C149.203 95.3614 149.415 94.8016 149.672 94.2526C150.199 93.178 150.932 92.0714 152.168 91.5392C152.479 91.4189 152.855 91.3718 153.191 91.4708C153.526 91.5661 153.807 91.77 154.01 92.0157C154.404 92.5269 154.537 93.122 154.639 93.699Z" fill="#0A2A6B"/>
<path d="M132.231 114.931C132.231 114.931 136.452 113.688 138.533 112.172C143.082 108.86 145.224 105.274 145.224 105.274C145.224 105.274 142.989 111.105 139.54 113.917C136.091 116.728 132.329 118.062 132.329 118.062L132.231 114.931Z" fill="#0A2A6B"/>
<path d="M123.216 92.3649C123.263 93.2805 122.838 94.0467 122.265 94.0764C121.693 94.106 121.191 93.388 121.143 92.4723C121.096 91.5566 121.521 90.7904 122.094 90.7607C122.666 90.7311 123.168 91.4492 123.216 92.3649Z" fill="#0A2A6B"/>
<path d="M135.474 94.149C135.521 95.0647 135.096 95.8309 134.523 95.8606C133.951 95.8902 133.448 95.1721 133.401 94.2565C133.353 93.3408 133.779 92.5746 134.351 92.5449C134.924 92.5153 135.426 93.2337 135.474 94.149Z" fill="#0A2A6B"/>
<path d="M128.045 91.5758C127.562 92.4088 127.126 93.2522 126.751 94.1164C126.377 94.9801 126.062 95.8625 125.812 96.7598C125.558 97.6562 125.382 98.5692 125.258 99.4882C125.144 100.408 125.088 101.336 125.111 102.266L124.884 101.993C126.264 102.424 127.695 102.709 129.166 102.901C127.685 103.043 126.174 102.912 124.714 102.576L124.507 102.528L124.486 102.303C124.397 101.342 124.403 100.37 124.516 99.4077C124.619 98.4446 124.837 97.4939 125.134 96.5706C125.436 95.6482 125.831 94.7551 126.316 93.9135C126.802 93.0719 127.376 92.2797 128.045 91.5758Z" fill="#0A2A6B"/>
<path d="M126.253 83.9839C122.815 84.1482 119.608 86.3176 118.323 89.407C120.099 87.2228 123.169 86.0961 125.991 86.5919C126.134 85.7625 126.219 84.8234 126.253 83.9839Z" fill="#0A2A6B"/>
<path d="M139.508 90.3383C138.696 89.1579 137.429 88.3216 136.068 87.7908C134.708 87.2599 133.247 87.0114 131.794 86.81C131.956 85.9697 132.05 85.1704 132.259 84.3395C135.357 85.3092 138.271 87.4288 139.508 90.3383Z" fill="#0A2A6B"/>
<path d="M126.826 107.151C125.496 106.993 124.366 107.267 124.301 107.763C124.248 108.172 124.938 108.604 125.928 108.831C126.699 108.198 127.679 107.803 128.685 107.727C128.273 107.462 127.602 107.243 126.826 107.151Z" fill="#0A2A6B"/>
<path d="M128.686 107.727C127.679 107.803 126.699 108.198 125.929 108.831C126.138 108.879 126.36 108.918 126.592 108.946C127.922 109.104 129.052 108.83 129.117 108.334C129.144 108.127 128.98 107.915 128.686 107.727Z" fill="#FF4648"/>
<path d="M147.594 151.015L143.162 157.365L112.232 136.015C112.232 136.015 104.042 133.789 101.683 131.944C99.3226 130.098 93.8314 120.25 91.8236 120.828C89.8158 121.406 88.8 128.019 90.2679 132.317C91.7359 136.614 93.8417 140.113 95.9305 141.098C98.0192 142.083 112.505 144.175 112.505 144.175C112.505 144.175 128.713 162.032 132.874 165.862C137.035 169.692 151.273 180.106 151.273 180.106L163.996 165.67C163.996 165.67 159.638 160.211 155.251 156.393C150.865 152.574 147.594 151.015 147.594 151.015Z" fill="#FF8775"/>
<path d="M145.36 154.218C146.466 152.05 147.63 149.911 148.852 147.804C150.066 145.692 151.332 143.609 152.644 141.55C153.311 140.526 153.98 139.504 154.695 138.503C155.407 137.504 156.188 136.522 157.07 135.648C158.815 133.882 160.802 132.364 162.942 131.109C161.958 131.857 161.003 132.631 160.1 133.459C159.19 134.277 158.32 135.134 157.507 136.033C157.102 136.483 156.716 136.948 156.343 137.42C155.977 137.898 155.628 138.386 155.29 138.892C154.603 139.889 153.942 140.91 153.288 141.935L149.361 148.092C148.054 150.147 146.721 152.189 145.36 154.218Z" fill="#0A2A6B"/>
<path d="M170.038 157.581C169.406 158.634 168.715 159.643 168.002 160.637C167.294 161.634 166.55 162.605 165.799 163.571C165.037 164.528 164.268 165.48 163.463 166.407C162.662 167.336 161.84 168.249 160.957 169.118C161.588 168.065 162.279 167.055 162.992 166.061C163.7 165.065 164.444 164.094 165.196 163.128C165.958 162.172 166.728 161.219 167.533 160.293C168.334 159.364 169.156 158.451 170.038 157.581Z" fill="#0A2A6B"/>
<path d="M141.951 156.535C142.965 157.157 143.981 157.741 145 158.335C146.02 158.924 147.035 159.537 148.014 160.217C148.985 160.908 149.917 161.672 150.709 162.568C151.502 163.457 152.163 164.481 152.505 165.599C151.874 164.611 151.117 163.745 150.277 162.961C149.434 162.182 148.52 161.474 147.566 160.81C146.619 160.135 145.63 159.499 144.67 158.808C143.71 158.123 142.764 157.392 141.951 156.535Z" fill="#0A2A6B"/>
<path d="M89.6034 127.708C89.7142 127.544 89.9344 127.48 90.1319 127.5C90.3358 127.517 90.5176 127.629 90.661 127.763C90.9441 128.041 91.1415 128.374 91.3396 128.704C91.7251 129.373 92.0118 130.086 92.3351 130.773C92.9838 132.15 93.6868 133.502 94.4872 134.799C94.8888 135.447 95.2822 136.101 95.8125 136.608C96.3364 137.116 97.023 137.434 97.7499 137.65C99.2243 138.052 100.792 138.255 102.338 138.328L102.126 138.761C101.702 138.32 101.083 138.058 100.45 137.785C100.133 137.648 99.8066 137.502 99.4914 137.318C99.1768 137.129 98.8869 136.904 98.6297 136.649C98.1207 136.135 97.7294 135.515 97.5025 134.841C97.267 134.169 97.1982 133.443 97.3026 132.736L97.3371 132.501L97.5802 132.518C98.3573 132.573 99.1048 132.784 99.8042 133.063C100.504 133.345 101.161 133.691 101.811 134.03C102.463 134.368 103.1 134.717 103.768 134.991C104.431 135.276 105.127 135.447 105.854 135.602C106.575 135.756 107.317 135.944 107.996 136.272C108.679 136.588 109.294 137.024 109.832 137.527C110.916 138.529 111.708 139.791 112.211 141.133C111.615 139.828 110.784 138.615 109.68 137.687C109.132 137.223 108.521 136.831 107.862 136.543C107.206 136.248 106.501 136.088 105.774 135.953C105.052 135.819 104.301 135.658 103.601 135.378C102.9 135.107 102.232 134.781 101.581 134.443C100.284 133.776 98.9643 133.109 97.5456 133.025L97.8232 132.808C97.738 133.43 97.8033 134.074 98.0193 134.67C98.2259 135.269 98.582 135.817 99.034 136.266C99.264 136.487 99.516 136.684 99.7881 136.852C100.065 137.017 100.367 137.158 100.681 137.297C101.3 137.574 101.994 137.857 102.521 138.411L102.971 138.882L102.309 138.844C100.717 138.752 99.1484 138.538 97.6012 138.103C96.8344 137.873 96.0609 137.507 95.4897 136.913C94.9175 136.331 94.5371 135.644 94.1517 134.984C93.3892 133.65 92.6948 132.278 92.117 130.862C91.8238 130.155 91.5729 129.436 91.2248 128.762C91.0479 128.429 90.8593 128.091 90.6095 127.81C90.4808 127.675 90.3187 127.56 90.1272 127.533C89.9414 127.504 89.7245 127.552 89.6034 127.708Z" fill="#0A2A6B"/>
<path d="M90.3062 123.043C90.9014 123.241 91.2906 123.768 91.5725 124.278C91.8532 124.802 92.0938 125.33 92.3518 125.856L93.8615 129.024C94.3851 130.076 94.8417 131.143 95.4556 132.088C95.7831 132.57 96.1109 133.049 96.4696 133.503C96.8384 133.944 97.2169 134.397 97.7449 134.662L97.7263 134.714C97.1192 134.559 96.6345 134.14 96.2031 133.729C95.7664 133.311 95.3855 132.849 95.0211 132.381C94.2551 131.412 93.8653 130.278 93.4221 129.207L92.082 125.968C91.8561 125.431 91.6522 124.878 91.4141 124.354C91.1727 123.84 90.8421 123.32 90.2856 123.093L90.3062 123.043Z" fill="#0A2A6B"/>
<path d="M92.1329 121.126C93.0922 122.056 93.7344 123.242 94.3062 124.417C94.8653 125.606 95.4094 126.782 96.1315 127.865C96.8418 128.955 97.6819 129.955 98.5045 130.968C99.3326 131.984 100.159 132.982 101.186 133.828L101.154 133.873C100.547 133.576 99.9951 133.173 99.4869 132.733C98.9746 132.295 98.5147 131.81 98.0659 131.32C97.1702 130.335 96.4108 129.234 95.7404 128.092C95.0516 126.956 94.547 125.727 94.0451 124.528C93.5448 123.33 92.9862 122.137 92.0911 121.164L92.1329 121.126Z" fill="#0A2A6B"/>
<path d="M113.328 147.21L113.526 151.56L113.687 155.911C113.796 158.811 113.866 161.711 113.996 164.609C114.076 167.508 114.228 170.403 114.37 173.301C114.436 174.75 114.512 176.199 114.597 177.647C114.664 179.097 114.757 180.544 114.852 181.993C114.629 180.557 114.48 179.112 114.318 177.668C114.177 176.223 114.052 174.776 113.933 173.329C113.701 170.434 113.552 167.531 113.427 164.63C113.345 161.726 113.267 158.824 113.251 155.92L113.248 151.565C113.272 150.113 113.279 148.661 113.328 147.21Z" fill="#0A2A6B"/>
<path d="M153.538 120.239L151.351 118.953L135.616 135.861L128.384 121.512L126.125 122.895L134.888 141.072L153.538 120.239Z" fill="#0A2A6B"/>
<g opacity="0.4">
<path d="M119.861 76.3265C120.697 76.295 121.53 76.2507 122.36 76.1673C123.19 76.0799 124.017 75.9717 124.837 75.8278C126.478 75.5493 128.094 75.1378 129.667 74.6157C131.244 74.1023 132.778 73.4607 134.244 72.7074C135.697 71.9442 137.089 71.0332 138.138 69.8052L138.718 69.1272L138.44 69.9621C138.28 70.445 138.157 70.9386 138.204 71.4192C138.25 71.8897 138.486 72.3624 138.897 72.5889C139.308 72.8224 139.845 72.7953 140.34 72.6669C140.838 72.5357 141.329 72.3204 141.805 72.1001C142.758 71.6491 143.632 71.048 144.425 70.3623C145.215 69.6701 145.897 68.8634 146.465 67.9845C145.441 69.8063 143.837 71.3373 141.917 72.3117C141.433 72.5497 140.948 72.7789 140.416 72.9339C139.895 73.0791 139.271 73.1525 138.736 72.8594C138.203 72.5662 137.929 71.9985 137.87 71.4527C137.811 70.8974 137.947 70.3606 138.107 69.8615L138.409 70.0184C137.325 71.2992 135.907 72.2666 134.417 73.0201C132.922 73.7727 131.368 74.4075 129.77 74.914C128.173 75.4226 126.528 75.7831 124.87 76.0277C123.211 76.2686 121.532 76.3651 119.861 76.3265Z" fill="#55A3F3"/>
<path d="M147.863 68.5793C147.292 70.0517 146.759 71.5455 146.535 73.0873C146.311 74.618 146.39 76.2137 146.996 77.6331C147.281 78.3467 147.712 78.9973 148.247 79.5606C148.787 80.1222 149.432 80.5826 150.121 80.972C150.813 81.3564 151.562 81.652 152.338 81.8619C153.109 82.0833 153.914 82.2299 154.727 82.1488C153.924 82.3134 153.087 82.2019 152.291 82.0361C151.492 81.858 150.713 81.5863 149.98 81.2194C148.516 80.4927 147.263 79.279 146.644 77.771C146.036 76.2658 145.956 74.6066 146.248 73.0441C146.396 72.2615 146.62 71.4962 146.895 70.7521C147.182 70.0115 147.502 69.2856 147.863 68.5793Z" fill="#55A3F3"/>
<path d="M150.446 70.8919C150.334 71.2825 150.24 71.6735 150.2 72.0706C150.147 72.465 150.131 72.8623 150.159 73.2555C150.213 74.0398 150.404 74.8134 150.769 75.5055C151.126 76.1996 151.661 76.8047 152.299 77.2856C152.618 77.5268 152.97 77.73 153.344 77.889C153.715 78.0595 154.113 78.1711 154.524 78.2485C154.104 78.2538 153.684 78.1757 153.277 78.0565C152.873 77.9258 152.488 77.7413 152.129 77.5151C151.411 77.0611 150.822 76.4154 150.43 75.671C150.046 74.9237 149.854 74.0893 149.869 73.2632C149.878 72.4379 150.068 71.6178 150.446 70.8919Z" fill="#55A3F3"/>
<path d="M136.845 66.3995C136.669 66.6212 136.49 66.8423 136.307 67.061L135.708 67.6765L135.049 68.2352L134.347 68.7444C133.384 69.3909 132.307 69.8755 131.184 70.2065C130.059 70.5291 128.885 70.699 127.714 70.673L126.84 70.6218L125.973 70.5062L125.125 70.3112C124.848 70.2261 124.573 70.1372 124.301 70.0452C124.585 70.0991 124.867 70.1557 125.147 70.2165L126.001 70.3282L126.856 70.3904L127.713 70.3904C128.853 70.3497 129.987 70.1757 131.076 69.8549C132.168 69.5421 133.213 69.083 134.189 68.5085C135.163 67.9312 136.055 67.2187 136.845 66.3995Z" fill="#55A3F3"/>
</g>
<path d="M93.8809 170.495L84.3025 143.03L78.9029 169.101L80.1726 172.793C84.833 173.335 89.6722 172.522 93.8809 170.495Z" fill="#0A2A6B"/>
<path d="M99.74 187.295L93.8813 170.495C89.6726 172.523 84.8334 173.336 80.173 172.794L85.4147 188.037L99.74 187.295Z" fill="#FF8775"/>
<path d="M63.6481 133.931L49.0786 129.747C49.0786 129.747 29.0639 141.712 27.5744 151.016C26.0854 160.321 35.8438 190.605 35.8438 190.605L91.3493 187.729C91.3493 187.729 82.1189 170.56 81.8966 166.27C81.6743 161.98 86.9058 145.883 84.0059 142.595C81.106 139.308 63.4053 130.997 63.4053 130.997L63.6481 133.931Z" fill="#0A2A6B"/>
<path d="M63.6481 133.931C58.4418 135.133 52.7677 133.477 49.0786 129.748C49.528 126.993 49.6442 124.189 49.4246 121.411C49.3219 120.11 49.1405 118.796 48.6187 117.594C48.2639 116.777 47.7595 116.03 47.2581 115.287C45.8617 113.22 44.4652 111.154 43.0688 109.087C42.3105 107.964 41.5425 106.823 41.1343 105.541C40.3244 102.998 41.0244 100.237 41.9986 97.7425C43.8856 92.9123 46.9514 88.3253 51.4922 85.5984C56.033 82.8716 62.2103 82.355 66.638 85.2196C68.3744 86.3429 70.6724 87.3824 71.229 89.3301C72.5481 93.9453 73.8706 98.5754 74.5721 103.317C75.2735 108.059 75.3408 112.943 74.1621 117.602C73.6302 119.705 72.7839 121.842 71.0944 123.267C69.953 124.229 68.5094 124.794 67.0521 125.19C65.7919 125.533 64.4564 125.763 63.1804 125.491C63.201 128.177 63.3872 131.258 63.6481 133.931Z" fill="#FF8775"/>
<path d="M38.4771 90.653C37.112 91.4132 36.0144 92.5674 35.1589 93.8463C31.8901 98.7334 32.2425 105.379 35.2142 110.419C38.1855 115.459 43.7897 119.96 49.4581 121.88C49.3395 119.276 48.8309 115.873 47.996 113.397C49.4246 112.982 50.7146 112.13 51.6349 110.994C49.9177 105.745 48.1581 100.586 46.4412 95.3365C49.7201 95.939 53.2351 95.1875 56.2673 93.824C59.299 92.4606 61.9504 90.4025 64.3207 88.1218C64.8865 89.4519 66.0864 90.4477 67.4405 91.0446C68.7945 91.6414 70.3115 91.8323 71.8016 91.7969C72.0134 92.6273 72.2071 93.4536 72.4189 94.284C74.9392 92.5774 77.1015 89.6504 76.6013 86.7236C76.4705 85.9591 76.1787 85.2275 75.8216 84.5346C74.503 81.9755 72.2447 79.8825 69.5429 78.7156C67.9371 78.0224 66.2003 77.6528 64.4587 77.4046C58.6592 76.5781 52.6578 77.0716 47.0768 78.834C45.3116 79.3913 43.5623 80.0877 42.1005 81.1965C39.2419 83.3637 37.8359 87.2061 38.4771 90.653Z" fill="#0A2A6B"/>
<path d="M42.0357 112.335C42.7303 114.378 44.2749 116.281 46.1663 117.427C46.7585 117.786 47.3989 118.078 48.0284 118.131C49.4486 118.25 50.4718 117.075 50.6173 115.694C50.7628 114.314 50.2079 112.798 49.5026 111.407C48.5907 109.61 47.157 107.718 45.3048 107.272C42.3183 106.552 41.1752 109.806 42.0357 112.335Z" fill="#FF8775"/>
<path d="M49.3143 116.379C48.6635 116.18 48.0304 115.8 47.509 115.296C47.4041 115.194 47.2999 115.082 47.2524 114.951C47.1614 114.699 47.3047 114.479 47.4426 114.301C47.7208 113.942 47.9991 113.583 48.2777 113.223C48.3333 113.151 48.3905 113.075 48.3972 112.976C48.4045 112.868 48.3498 112.752 48.2963 112.643C47.6175 111.259 46.8435 109.766 45.5315 108.941C45.1771 108.718 44.785 108.552 44.4081 108.541C43.8489 108.524 43.395 108.854 43.1282 109.294C42.8613 109.733 42.7536 110.274 42.6609 110.81C42.6609 110.81 42.9663 113.762 45.3064 115.562C47.6464 117.362 49.3143 116.379 49.3143 116.379Z" fill="#FF8775"/>
<path d="M42.6609 110.81C42.7025 110.226 42.7733 109.62 43.1128 109.071C43.2895 108.805 43.5477 108.574 43.8713 108.444C44.1947 108.311 44.5741 108.319 44.8953 108.407C46.1803 108.808 47.0237 109.833 47.6582 110.847C47.9713 111.366 48.2404 111.902 48.495 112.437C48.546 112.569 48.6511 112.698 48.6585 112.966C48.6563 113.105 48.5878 113.23 48.532 113.304L48.3853 113.488C48.1989 113.72 48.0083 113.95 47.8164 114.178C47.6252 114.413 47.4075 114.628 47.4125 114.806C47.3932 114.983 47.6371 115.209 47.839 115.407C48.2525 115.817 48.7573 116.141 49.3147 116.379C48.714 116.259 48.153 115.973 47.6538 115.612C47.5295 115.517 47.4141 115.424 47.2961 115.31C47.1812 115.199 47.0568 115.034 47.0376 114.826C47.0177 114.618 47.1059 114.434 47.1945 114.296C47.2886 114.153 47.3712 114.046 47.459 113.921C47.6315 113.678 47.806 113.437 47.9841 113.198L48.1087 113.027C48.1386 112.981 48.1382 112.967 48.1366 112.958C48.1411 112.927 48.0764 112.794 48.0054 112.662C47.738 112.139 47.4716 111.62 47.1657 111.13C46.8691 110.635 46.5324 110.168 46.1344 109.764C45.7451 109.359 45.2718 109.004 44.7641 108.817C44.5083 108.728 44.2486 108.712 43.9972 108.783C43.7466 108.854 43.5168 109.018 43.3391 109.228C42.9689 109.653 42.8245 110.247 42.6609 110.81Z" fill="#0A2A6B"/>
<path d="M66.4293 99.5439C66.7654 100.426 67.0553 101.319 67.3321 102.215C67.6066 103.111 67.8597 104.012 68.1016 104.916L68.4485 106.272C68.5681 106.71 68.6916 107.12 68.9279 107.439C69.1617 107.762 69.5053 108.02 69.8937 108.238C70.2846 108.454 70.7224 108.621 71.166 108.798L71.4564 108.914L71.343 109.17C70.8054 110.383 69.8068 111.336 68.6733 111.937C69.1451 111.505 69.585 111.054 69.9446 110.555C70.3106 110.062 70.5955 109.525 70.7908 108.966L70.9678 109.337C70.5018 109.205 70.0285 109.05 69.5666 108.827C69.1056 108.609 68.6519 108.296 68.3242 107.857C67.9897 107.416 67.8312 106.91 67.7206 106.447L67.404 105.077C67.205 104.163 67.0165 103.247 66.8502 102.326C66.6853 101.404 66.5344 100.479 66.4293 99.5439Z" fill="#0A2A6B"/>
<path d="M61.7421 104.61C61.7896 105.526 61.364 106.292 60.7916 106.321C60.2192 106.351 59.7167 105.633 59.6693 104.717C59.6218 103.802 60.0474 103.036 60.6198 103.006C61.1922 102.976 61.6947 103.694 61.7421 104.61Z" fill="#0A2A6B"/>
<path d="M72.5605 102.758C72.6079 103.674 72.1824 104.44 71.61 104.47C71.0375 104.5 70.5351 103.782 70.4876 102.866C70.4402 101.95 70.8657 101.184 71.4381 101.154C72.0106 101.125 72.513 101.843 72.5605 102.758Z" fill="#0A2A6B"/>
<path d="M54.1204 102.119C54.2874 101.285 54.5931 100.473 54.9942 99.69C55.4067 98.9142 55.9474 98.1835 56.6183 97.5548C56.954 97.2397 57.3027 96.9279 57.6872 96.6517C58.0725 96.3781 58.5099 96.1719 58.9738 96.0505C59.4378 95.9303 59.9206 95.873 60.4003 95.9036C60.8779 95.9287 61.3538 96.0311 61.7818 96.2593L61.775 96.4057L60.5739 96.921C60.2011 97.0901 59.8462 97.2535 59.4997 97.4249C59.1531 97.5952 58.8073 97.7515 58.4472 97.9024C58.0861 98.0503 57.7269 98.2246 57.4017 98.4496C56.7509 98.9018 56.1567 99.4579 55.632 100.086C55.0949 100.709 54.6566 101.419 54.2646 102.166L54.1204 102.119Z" fill="#0A2A6B"/>
<path d="M73.6845 98.8207C73.1803 98.2895 72.6285 97.828 72.0095 97.4801C71.401 97.1229 70.7518 96.8511 70.0885 96.6594C69.7559 96.5639 69.4079 96.5162 69.064 96.4815C68.7203 96.4443 68.3878 96.3859 68.0541 96.2996C67.3834 96.12 66.7108 95.9471 65.931 95.627L65.9132 95.4814C66.6176 94.9923 67.4493 94.8383 68.2586 94.8459C69.0823 94.8389 69.833 95.2284 70.5452 95.5707C71.2655 95.9163 71.9241 96.3671 72.4833 96.9057C73.0328 97.4521 73.5009 98.0655 73.8119 98.741L73.6845 98.8207Z" fill="#0A2A6B"/>
<path d="M69.2036 116.259C70.51 115.965 71.6629 116.12 71.7786 116.607C71.8739 117.008 71.232 117.509 70.2703 117.837C69.4386 117.288 68.4227 116.996 67.4138 117.024C67.7967 116.718 68.4413 116.431 69.2036 116.259Z" fill="#0A2A6B"/>
<path d="M67.4138 117.023C68.4226 116.995 69.4386 117.287 70.2702 117.836C70.067 117.906 69.8502 117.968 69.6225 118.019C68.3161 118.313 67.1632 118.158 67.0475 117.671C66.9994 117.469 67.1404 117.241 67.4138 117.023Z" fill="#FF4648"/>
<path d="M49.8153 161.802L56.2301 167.6C56.2301 167.6 59.3691 131.941 59.1219 129.113C58.8746 126.286 56.534 119.597 58.1115 119.261C59.689 118.926 63.1807 125.491 63.1807 125.491C63.1807 125.491 83.1892 120.961 84.7953 121.177C86.4014 121.393 84.1017 123.181 81.8879 124.066C79.674 124.951 77.7194 125.455 77.7194 125.455C77.7194 125.455 78.4094 126.184 78.7165 127.13C78.892 127.67 78.8066 128.868 78.8066 128.868C78.8066 128.868 79.057 130.135 78.9169 130.746C78.8052 131.233 78.3779 131.913 78.3779 131.913C78.3779 131.913 78.6193 133.205 78.3384 133.653C77.8837 134.377 77.1501 134.715 77.1501 134.715C75.1073 137.066 72.3439 135.239 72.3439 135.239L70.6788 135.286L65.6558 135.427C65.6558 135.427 66.2307 159.746 66.2684 167.081C66.306 174.415 64.632 186.195 64.632 186.195L44.5476 176.094C44.5476 176.094 45.4491 170.863 46.9582 166.924C48.4675 162.985 49.8153 161.802 49.8153 161.802Z" fill="#FF8775"/>
<path d="M58.8567 134.505C58.8009 133.18 58.776 131.855 58.7366 130.53C58.7192 129.865 58.7032 129.212 58.649 128.554C58.5941 127.898 58.5153 127.244 58.4229 126.59C58.2298 125.284 57.9921 123.983 57.7944 122.669C57.5888 121.357 57.4175 120.032 57.3504 118.694L57.3403 118.49L57.545 118.428C58.4671 118.149 59.5174 118.363 60.2302 118.995C60.5835 119.307 60.8377 119.688 61.0471 120.068C61.2523 120.449 61.4386 120.83 61.5856 121.247C61.7316 121.658 61.8203 122.115 61.7982 122.562C61.7787 123.001 61.728 123.378 61.8481 123.722C61.9643 124.073 62.1829 124.425 62.4264 124.738C62.6752 125.05 62.9611 125.337 63.2867 125.578L63.0987 125.543L67.6132 124.502C69.1231 124.174 70.6283 123.829 72.1429 123.518C70.6609 123.953 69.1695 124.351 67.6833 124.768L63.2085 125.961L63.1088 125.987L63.0204 125.925C62.2857 125.412 61.6963 124.726 61.3722 123.869C61.211 123.413 61.2745 122.938 61.2844 122.55C61.2982 122.163 61.221 121.788 61.0849 121.414C60.9502 121.044 60.7644 120.672 60.5682 120.318C60.3702 119.968 60.1421 119.643 59.8549 119.396C59.2884 118.91 58.4378 118.721 57.7063 118.936L57.9004 118.671C57.9508 119.981 58.1038 121.29 58.2928 122.598L58.5828 124.564C58.6735 125.22 58.7556 125.881 58.8286 126.542C58.9709 127.863 59.049 129.203 58.9916 130.53C58.947 131.855 58.9172 133.18 58.8567 134.505Z" fill="#0A2A6B"/>
<path d="M77.7198 125.455C77.2456 125.7 76.7569 125.893 76.2627 126.068C75.7694 126.246 75.2673 126.392 74.7637 126.533C74.2574 126.664 73.7488 126.789 73.2317 126.882C72.7156 126.979 72.194 127.057 71.6575 127.083C72.1312 126.837 72.6203 126.643 73.1145 126.469C73.6078 126.291 74.1099 126.144 74.6135 126.004C75.1203 125.873 75.6285 125.749 76.1459 125.656C76.6616 125.559 77.1833 125.481 77.7198 125.455Z" fill="#0A2A6B"/>
<path d="M72.1648 129.499C72.7069 129.333 73.2542 129.221 73.8039 129.129C74.3531 129.032 74.9055 128.968 75.4582 128.91C76.0122 128.862 76.5669 128.82 77.1248 128.811C77.6825 128.799 78.242 128.806 78.807 128.867C78.2649 129.033 77.7176 129.146 77.1682 129.238C76.619 129.334 76.0667 129.399 75.5139 129.456C74.9599 129.503 74.4052 129.544 73.8473 129.554C73.2892 129.566 72.7297 129.56 72.1648 129.499Z" fill="#0A2A6B"/>
<path d="M72.5862 132.08C73.0513 131.907 73.5333 131.805 74.0174 131.737C74.5017 131.665 74.9895 131.638 75.4758 131.626C75.9623 131.625 76.4476 131.638 76.9309 131.685C77.4144 131.729 77.8959 131.795 78.3779 131.911C77.8933 132.023 77.4085 132.077 76.9257 132.114C76.4428 132.154 75.9614 132.164 75.4815 132.175C75.0015 132.177 74.5227 132.179 74.0421 132.163C73.5618 132.151 73.0804 132.133 72.5862 132.08Z" fill="#0A2A6B"/>
<path d="M76.1937 134.881C75.817 135.02 75.4363 135.104 75.0547 135.169C74.6732 135.238 74.2899 135.279 73.9054 135.305C73.5209 135.329 73.1355 135.338 72.7483 135.319C72.3614 135.304 71.973 135.269 71.5814 135.18C71.9585 135.04 72.3388 134.956 72.7205 134.891C73.102 134.823 73.4853 134.782 73.8698 134.756C74.2543 134.733 74.6397 134.724 75.0269 134.743C75.4135 134.758 75.8018 134.793 76.1937 134.881Z" fill="#0A2A6B"/>
<path d="M56.1064 166.583C56.1732 167.213 56.1926 167.837 56.2013 168.46C56.2135 169.082 56.2008 169.704 56.19 170.324C56.1686 170.945 56.1491 171.566 56.1045 172.188C56.0638 172.809 56.0112 173.432 55.9107 174.059C55.7741 173.439 55.7029 172.815 55.6603 172.19C55.6142 171.564 55.6099 170.938 55.6212 170.312C55.6431 169.687 55.6802 169.062 55.7593 168.439C55.8347 167.817 55.9382 167.196 56.1064 166.583Z" fill="#0A2A6B"/>
<path d="M50.2195 162.244C48.8876 160.925 47.587 159.578 46.2908 158.228C44.9943 156.877 43.7228 155.505 42.4375 154.145C41.1755 152.766 39.9004 151.403 38.5114 150.155C37.1252 148.909 35.5968 147.794 33.8748 146.993C34.7683 147.32 35.6146 147.764 36.4233 148.26C37.2258 148.767 37.9833 149.338 38.7069 149.945C40.1525 151.163 41.436 152.54 42.7197 153.9C43.9814 155.28 45.2568 156.649 46.5069 158.039C47.7584 159.429 49.0044 160.823 50.2195 162.244Z" fill="#55A3F3"/>
<path d="M44.6045 175.82C44.4978 176.483 44.396 177.145 44.3233 177.81C44.2525 178.475 44.182 179.139 44.1451 179.805C44.1024 180.471 44.0944 181.138 44.0844 181.804C44.079 182.47 44.0953 183.137 44.1339 183.801L44.1543 184.15L43.854 183.952C43.0547 183.425 42.2692 182.877 41.5104 182.296C40.7488 181.719 40.0033 181.122 39.2761 180.505C37.8361 179.256 36.4713 177.924 35.2434 176.483C36.6043 177.806 38.0102 179.079 39.4874 180.27C40.2188 180.873 40.9681 181.456 41.7328 182.019C42.5007 182.578 43.2729 183.131 44.0579 183.669L43.7779 183.819C43.7488 183.146 43.7417 182.473 43.7566 181.801C43.7669 181.127 43.8234 180.456 43.8894 179.787C43.9612 179.118 44.0429 178.45 44.1679 177.789C44.2906 177.128 44.4283 176.469 44.6045 175.82Z" fill="#55A3F3"/>
<path d="M84.1489 173.058L82.9408 169.69L81.7657 166.311L81.7589 166.291L81.7595 166.266C81.7909 164.472 81.8641 162.679 81.9175 160.886C81.9682 159.092 82.0452 157.299 82.1218 155.507L82.2349 152.818L82.3734 150.13C82.4626 148.337 82.5712 146.546 82.6947 144.754C82.6851 146.549 82.661 148.343 82.6167 150.137L82.5558 152.828L82.4694 155.518C82.4134 157.311 82.3573 159.104 82.275 160.897C82.1953 162.69 82.1354 164.483 82.0341 166.275L82.0275 166.23L83.1047 169.639L84.1489 173.058Z" fill="#55A3F3"/>
<g opacity="0.47">
<path d="M38.554 88.8606C40.9399 89.4099 43.4078 89.297 45.8375 89.1954C48.2715 89.0681 50.6965 88.7438 53.049 88.1502C55.4005 87.5588 57.67 86.6468 59.7062 85.3709C60.7214 84.7317 61.6891 84.0185 62.5619 83.2068C63.4328 82.3936 64.2167 81.4936 64.8818 80.5171L65.134 80.1469L65.1908 80.5834C65.3498 81.8016 65.8486 82.963 66.541 83.995C67.2381 85.0279 68.139 85.9324 69.1579 86.684C71.196 88.1793 73.8643 88.8759 76.4414 88.5452C73.8823 88.9737 71.1344 88.3635 69.0211 86.8607C67.969 86.1138 67.0296 85.2073 66.2909 84.1563C65.5498 83.1096 65.0343 81.8976 64.8564 80.6275L65.1654 80.6937C63.8191 82.7044 61.986 84.3868 59.9094 85.6768C57.8274 86.9642 55.5142 87.8763 53.1316 88.4609C51.9411 88.7608 50.7298 88.976 49.512 89.1228C48.2943 89.2736 47.071 89.3653 45.8469 89.4074C44.6229 89.4499 43.3985 89.4546 42.1752 89.3951C40.953 89.3314 39.7288 89.187 38.554 88.8606Z" fill="#55A3F3"/>
<path d="M76.2045 85.5589C75.7045 85.5859 75.2007 85.5316 74.7055 85.4379C74.2124 85.3328 73.7313 85.1742 73.2687 84.9746C72.3421 84.5736 71.5094 83.9817 70.8021 83.279C70.1013 82.5701 69.5209 81.7558 69.0773 80.883C68.8559 80.4463 68.6602 79.999 68.4906 79.5434C68.333 79.0835 68.187 78.6211 68.0853 78.1484C68.2693 78.5967 68.4491 79.0441 68.6631 79.4757C68.8651 79.912 69.0871 80.3385 69.3346 80.7493C69.8279 81.5706 70.3958 82.3481 71.0755 83.0243C71.7478 83.7046 72.5354 84.2773 73.3966 84.7224C74.2606 85.1629 75.2119 85.4543 76.2045 85.5589Z" fill="#55A3F3"/>
<path d="M61.8522 77.2276C61.3608 78.0273 60.7046 78.7298 59.9734 79.3415C59.2335 79.9459 58.4166 80.4574 57.5694 80.907C55.867 81.7958 54.051 82.4579 52.1903 82.9633C51.2541 83.1979 50.303 83.3724 49.3449 83.4998C48.3848 83.6098 47.4172 83.6713 46.4505 83.6407C45.4843 83.5975 44.5236 83.4843 43.5804 83.2901C42.6444 83.0655 41.7289 82.7697 40.8627 82.373C41.7626 82.6927 42.6802 82.9506 43.6184 83.1138C44.5574 83.27 45.5068 83.3496 46.4575 83.3584C47.4082 83.344 48.3578 83.2937 49.3008 83.1688C50.2417 83.033 51.1752 82.8492 52.0944 82.6092C53.9349 82.1405 55.7302 81.481 57.4353 80.6584C58.2866 80.2453 59.1057 79.7686 59.8575 79.2028C60.6167 78.6462 61.2899 77.981 61.8522 77.2276Z" fill="#55A3F3"/>
<path d="M43.0144 95.8103C43.1819 96.5031 43.2614 97.216 43.2893 97.9311C43.3051 98.6469 43.2542 99.3654 43.1424 100.076C42.9143 101.498 42.403 102.878 41.674 104.138C40.9183 105.384 39.9442 106.509 38.7899 107.421C38.2114 107.875 37.595 108.282 36.9476 108.632C36.2943 108.972 35.6167 109.268 34.9124 109.481C35.5861 109.191 36.2398 108.865 36.8533 108.478C37.4724 108.101 38.0585 107.676 38.6013 107.206C39.6898 106.272 40.6367 105.181 41.3457 103.957C42.0808 102.747 42.5735 101.406 42.8567 100.028C43.1387 98.6486 43.1875 97.2216 43.0144 95.8103Z" fill="#55A3F3"/>
<path d="M38.0389 94.118C37.8655 95.6339 37.2407 97.1024 36.339 98.3694C35.4306 99.632 34.2282 100.716 32.8197 101.409C34.0617 100.472 35.1502 99.3936 36.0275 98.1616C36.9116 96.9345 37.5722 95.5706 38.0389 94.118Z" fill="#55A3F3"/>
</g>
</svg>
