<svg width="185" height="168" viewBox="0 0 185 168" fill="none" xmlns="http://www.w3.org/2000/svg">
<path d="M152.731 14.5477C142.147 8.93154 130.396 5.62365 117.914 3.79928C104.404 1.8248 90.554 1.54943 76.9377 3.05123C70.0682 3.80882 63.0593 5.07789 57.2704 8.42891C51.4815 11.7795 47.1266 17.6238 47.7948 23.6525C48.8702 33.3557 62.0123 40.9744 59.0278 50.3886C56.7884 57.4526 47.0968 59.9314 39.0941 62.0808C29.8548 64.5621 20.8213 68.2186 13.78 74.0344C6.73866 79.8502 1.8756 88.055 2.2 96.4995C2.62619 107.581 11.5449 116.937 21.162 124.096C51.1766 146.44 90.8246 155.951 129.567 162.533C139.722 164.258 151.572 165.44 159.253 159.311C166.032 153.9 166.763 144.85 165.925 136.88C164.661 124.857 160.9 113.054 154.883 102.219C151.272 95.7173 146.715 88.7722 148.58 81.7002C151.963 68.8745 172.999 65.9144 179.517 54.0375C186.624 41.0859 172.764 28.1192 162.255 20.4836C159.203 18.2651 156.023 16.295 152.731 14.5477Z" fill="#F2FFFE"/>
<path opacity="0.21" d="M47.4712 162.825C63.9522 162.432 77.2666 160.176 77.2096 157.786C77.1526 155.396 63.7459 153.778 47.2649 154.17C30.7839 154.563 17.4696 156.819 17.5265 159.209C17.5835 161.599 30.9902 163.217 47.4712 162.825Z" fill="#8E8A8A"/>
<path opacity="0.21" d="M154.711 159.918C170.959 159.53 184.083 157.279 184.026 154.889C183.969 152.5 170.752 150.876 154.505 151.264C138.258 151.651 125.133 153.902 125.19 156.292C125.247 158.682 138.464 160.305 154.711 159.918Z" fill="#8E8A8A"/>
<path fill-rule="evenodd" clip-rule="evenodd" d="M56.1391 153.021C56.0566 152.882 57.1749 154.474 57.1749 154.474C57.1749 154.474 62.9537 156.83 62.9707 157.543C62.9877 158.256 52.1515 157.947 52.1515 157.947L52.2713 154.425L56.1391 153.021Z" fill="#221815"/>
<path fill-rule="evenodd" clip-rule="evenodd" d="M39.6273 153.48C39.7085 153.338 38.6618 154.976 38.6618 154.976C38.6618 154.976 33.0074 157.61 33.0244 158.323C33.0413 159.032 43.8503 158.206 43.8503 158.206L43.5631 154.699L39.6273 153.48Z" fill="#221815"/>
<path fill-rule="evenodd" clip-rule="evenodd" d="M65.3219 101.515C65.3816 101.649 66.6978 105.503 65.8013 106.097C64.9107 106.691 61.9177 106.024 61.872 105.758C61.8317 105.492 61.6101 102.005 61.7945 101.92C62.2065 100.842 65.3219 101.515 65.3219 101.515Z" fill="#F8C67C"/>
<path fill-rule="evenodd" clip-rule="evenodd" d="M60.1313 104.235C60.1285 103.966 60.3712 103.744 60.6739 103.74C62.0855 103.72 65.8413 103.667 67.3619 103.646C67.5352 103.644 67.7018 103.703 67.8252 103.81C67.9491 103.917 68.0191 104.063 68.0209 104.218C68.0326 105.295 68.057 107.496 68.057 107.496L67.0453 107.509C67.0716 106.693 67.0719 105.49 67.0701 104.923C67.0699 104.838 67.0318 104.758 66.9643 104.699C66.8968 104.64 66.8055 104.607 66.7105 104.609C65.6436 104.623 62.496 104.666 61.4653 104.68C61.2825 104.682 61.1354 104.815 61.1361 104.978C61.1397 105.716 61.1486 107.588 61.1486 107.588L60.1676 107.6C60.1685 107.6 60.1429 105.271 60.1313 104.235Z" fill="#3D3938"/>
<path fill-rule="evenodd" clip-rule="evenodd" d="M80.5487 106.493L80.4039 124.989L77.7533 125.187L51.5705 125.137L51.7402 106.645C61.0225 106.534 68.5719 106.766 77.7363 106.457C78.1826 106.442 80.0912 106.514 80.5487 106.493Z" fill="#2F2C2B"/>
<path fill-rule="evenodd" clip-rule="evenodd" d="M77.7363 106.457L77.7532 125.186L49.8134 125.209L49.9831 106.716C59.7233 106.6 67.9907 106.84 77.7363 106.457Z" fill="#3D3938"/>
<mask id="mask0_1227_758" style="mask-type:luminance" maskUnits="userSpaceOnUse" x="49" y="106" width="29" height="20">
<path d="M77.7362 106.457L77.7531 125.186L49.8133 125.209L49.983 106.716C59.7232 106.6 67.9906 106.84 77.7362 106.457Z" fill="white"/>
</mask>
<g mask="url(#mask0_1227_758)">
<path fill-rule="evenodd" clip-rule="evenodd" d="M66.0655 100.142C66.0655 100.142 62.2793 105.257 64.6543 114.134C67.0293 123.011 76.8573 128.36 76.8573 128.36L54.3821 128.213L54.9988 101.398L66.0655 100.142Z" fill="#353130"/>
</g>
<path fill-rule="evenodd" clip-rule="evenodd" d="M57.9512 66.3001C58.0957 65.9651 58.9831 63.3397 59.8465 63.4853C60.7095 63.6305 63.5357 65.2372 64.1922 78.5577C64.8432 91.8731 65.7064 102.11 65.7064 102.11L61.198 102.411L57.9512 66.3001Z" fill="#273349"/>
<path fill-rule="evenodd" clip-rule="evenodd" d="M36.3525 97.248L38.7225 154.673L43.6186 155.356L48.5201 112.138L52.2709 154.426L57.175 154.475L59.9332 98.204L36.3525 97.248Z" fill="#1D1E25"/>
<path fill-rule="evenodd" clip-rule="evenodd" d="M45.7027 61.54C45.2562 61.5506 35.5272 64.5067 35.5272 64.5067C35.5272 64.5067 35.2515 96.3483 37.847 98.9607C40.4212 99.4876 53.9686 101.326 59.8518 98.818C61.3806 89.8892 60.1937 77.3301 59.3129 64.3421C57.4258 62.9841 54.4698 63.5124 52.5882 62.1548C50.2927 61.9484 47.9977 61.7464 45.7027 61.54Z" fill="#F9D888"/>
<path fill-rule="evenodd" clip-rule="evenodd" d="M47.4501 64.3789L46.9892 65.4001L46.1037 97.3266L48.8708 101.443L51.7939 97.3922L48.8365 65.3545L47.4501 64.3789Z" fill="#201D1D"/>
<path fill-rule="evenodd" clip-rule="evenodd" d="M43.7585 62.0589C43.7836 77.1036 47.7657 88.791 44.9926 104.108C44.3167 107.842 34.503 107.893 34.5651 107.424C34.6274 106.96 33.9063 68.8687 33.9063 68.8687L34.9187 64.612L43.7585 62.0589Z" fill="#2A374F"/>
<path fill-rule="evenodd" clip-rule="evenodd" d="M43.8106 62.0984L45.1363 86.4015L39.3206 72.0731L41.823 70.2894L38.6903 64.3721L40.8863 62.8895L42.8562 62.274L43.8106 62.0984Z" fill="#31405C"/>
<path fill-rule="evenodd" clip-rule="evenodd" d="M52.0751 61.9912L54.9546 103.348C57.2868 107.389 58.2605 106.734 61.0631 106.209C61.4992 95.7931 61.8295 72.8933 59.8469 63.4849L52.0751 61.9912Z" fill="#2A374F"/>
<path fill-rule="evenodd" clip-rule="evenodd" d="M52.1688 61.8945L53.6353 86.1641L57.1286 71.6487L54.5503 69.9814L57.2156 64.1319L54.7375 62.5108L52.1688 61.8945Z" fill="#31405C"/>
<path fill-rule="evenodd" clip-rule="evenodd" d="M71.6868 71.9936C71.8605 71.8543 72.5743 71.1939 73.4766 70.5967C74.3843 69.9997 75.3038 69.8808 75.4484 69.8681C75.5982 69.8497 78.3192 68.1791 78.3297 68.6194C78.3401 69.0589 76.9843 70.6587 76.9843 70.6587C76.9843 70.6587 80.8013 69.5136 81.6282 69.3438C82.4553 69.1789 83.3296 69.1967 83.0778 69.6432C82.8202 70.0943 78.0859 72.1223 78.0859 72.1223C78.0859 72.1223 72.9965 73.8087 72.9196 73.7184C72.8476 73.6227 71.6868 71.9936 71.6868 71.9936Z" fill="#FAD6A1"/>
<path fill-rule="evenodd" clip-rule="evenodd" d="M35.5272 64.5075C32.8658 64.35 30.3378 69.7887 33.7851 73.0294C37.2269 76.2702 48.103 82.2821 50.3308 81.5651C52.5586 80.8482 73.1766 74.8938 73.1766 74.8938L72.5658 71.1398L50.3613 74.4158C48.9844 73.8403 38.1887 64.6705 35.5272 64.5075Z" fill="#2A374F"/>
<path fill-rule="evenodd" clip-rule="evenodd" d="M53.577 47.9111C54.0578 48.1611 54.8671 50.0819 55.0871 54.3197C55.3067 58.557 51.0962 60.0748 51.0962 60.0748C51.1789 60.9427 51.2563 61.8155 51.3395 62.6878C48.9484 64.1477 46.1764 63.8666 44.1113 62.3878C44.1169 60.2512 42.6557 52.0974 42.7676 49.4252C42.8849 46.7481 46.5636 45.4591 49.6492 46.3254C52.7345 47.1977 53.577 47.9111 53.577 47.9111Z" fill="#FAD6A1"/>
<mask id="mask1_1227_758" style="mask-type:luminance" maskUnits="userSpaceOnUse" x="42" y="46" width="14" height="18">
<path d="M53.5769 47.9111C54.0576 48.1611 54.8669 50.0819 55.087 54.3197C55.3065 58.557 51.096 60.0748 51.096 60.0748C51.1787 60.9427 51.2561 61.8155 51.3394 62.6878C48.9483 64.1477 46.1762 63.8666 44.1111 62.3878C44.1167 60.2512 42.6556 52.0974 42.7675 49.4252C42.8847 46.7481 46.5634 45.4591 49.649 46.3254C52.7343 47.1977 53.5769 47.9111 53.5769 47.9111Z" fill="white"/>
</mask>
<g mask="url(#mask1_1227_758)">
<path fill-rule="evenodd" clip-rule="evenodd" d="M55.4944 58.0408C55.4944 58.0408 52.1255 60.0426 48.8591 59.6619C43.1311 58.9945 44.4097 54.9359 44.4097 54.9359L42.3 56.5408C42.3 56.5408 41.8757 59.8171 41.9784 60.1779C42.0812 60.5384 44.9659 64.2942 44.9659 64.2942C44.9659 64.2942 49.3476 65.2676 50.732 63.9141C52.1163 62.5607 55.3767 59.6912 55.3767 59.6912L55.4944 58.0408Z" fill="#F8C273"/>
</g>
<path fill-rule="evenodd" clip-rule="evenodd" d="M50.5373 48.2457C51.6039 48.6375 53.3214 48.8077 54.3854 47.8924C55.4548 46.977 55.6 45.476 54.9401 45.0745C54.2801 44.673 53.6409 44.8943 53.6409 44.8943C53.6409 44.8943 53.2128 44.2511 52.1969 43.8581C51.1863 43.4597 49.8847 44.3558 49.8847 44.3558C49.8847 44.3558 49.162 43.6943 47.8382 43.9069C46.52 44.1242 45.9768 45.052 45.9768 45.052C45.9768 45.052 43.9146 44.89 43.2224 45.5099C42.5302 46.1295 42.3009 47.6534 42.3009 47.6534C42.3009 47.6534 41.2819 48.311 40.9526 49.2084C40.6178 50.1063 40.6018 52.0568 41.1225 53.0148C41.6486 53.9723 42.1552 54.3573 42.1552 54.3573C42.1552 54.3573 40.7694 55.5165 41.9789 56.2062C44.1114 57.4171 44.7509 54.5872 44.9366 53.8537C45.2835 52.5133 46.6317 51.4307 46.7874 50.6126C46.949 49.7993 46.2449 48.7407 47.3825 48.2959C48.5205 47.8463 50.5373 48.2457 50.5373 48.2457Z" fill="#52372D"/>
<path fill-rule="evenodd" clip-rule="evenodd" d="M43.6375 52.2342C44.2359 51.7227 45.2535 51.9394 45.9166 52.7231C46.5797 53.5015 46.6385 54.5457 46.0402 55.0573C45.4418 55.5692 44.4187 55.3474 43.7552 54.569C43.0921 53.7906 43.039 52.7414 43.6375 52.2342Z" fill="#FAD6A1"/>
<path fill-rule="evenodd" clip-rule="evenodd" d="M65.8627 105.688C65.8627 105.688 65.4689 103.883 65.0515 103.687C64.6341 103.491 64.1867 103.939 64.1867 103.939C64.1867 103.939 63.818 103.661 63.4228 103.676C63.0331 103.695 62.7966 103.967 62.7966 103.967C62.7966 103.967 62.3595 103.671 62.1059 103.702C61.8522 103.728 61.7291 104.033 61.7291 104.033C61.7291 104.033 61.7225 103.756 61.3362 103.916C60.944 104.077 61.1577 105.202 61.3818 105.831C61.6003 106.454 61.9733 106.455 62.3201 106.537C62.5363 106.587 63.6397 106.621 64.4063 106.523C64.5755 106.504 64.7389 106.485 64.891 106.466C65.122 106.435 65.4436 106.407 65.5326 106.345C65.9394 106.059 65.8627 105.688 65.8627 105.688Z" fill="#FAD6A1"/>
<path fill-rule="evenodd" clip-rule="evenodd" d="M65.3091 102.137L65.3617 103.79L65.0099 104.792C64.7351 105.36 63.5394 106.729 63.4128 105.652C63.3638 105.401 64.2068 103.951 63.9098 103.642C63.0898 102.791 63.3863 102.281 63.4253 102.263C63.5421 102.21 65.3091 102.137 65.3091 102.137Z" fill="#FAD6A1"/>
<path fill-rule="evenodd" clip-rule="evenodd" d="M48.6881 62.9473L46.986 62.9525L45.8111 64.6594L47.0275 65.3945L48.7615 65.3229L49.6942 64.3508L48.6881 62.9473Z" fill="#3D3938"/>
<path d="M48.6881 62.9473L46.986 62.9525L45.8111 64.6594L47.0275 65.3945L48.7615 65.3229L49.6942 64.3508L48.6881 62.9473Z" stroke="#221815" stroke-width="0.2499" stroke-miterlimit="2"/>
<path fill-rule="evenodd" clip-rule="evenodd" d="M47.2403 62.932C47.0521 63.1023 45.104 66.0592 45.1016 65.9586C45.0992 65.8585 42.8379 62.3228 42.8379 62.3228L43.9883 60.7021L47.2403 62.932Z" fill="#F5E1A6"/>
<path fill-rule="evenodd" clip-rule="evenodd" d="M48.1027 62.8254C48.293 62.9866 50.3857 65.8472 50.3833 65.7471C50.3809 65.6465 52.4517 62.1436 52.4517 62.1436L51.157 60.7268L48.1027 62.8254Z" fill="#F5E1A6"/>
<path fill-rule="evenodd" clip-rule="evenodd" d="M119.563 66.3058C119.375 65.9349 117.782 62.5346 117.747 62.4252C117.685 62.2279 116.064 61.974 116.065 61.9792C115.891 62.1934 112.669 59.0081 112.022 59.4319C111.381 59.8503 114.874 62.9016 114.874 62.9016C114.874 62.9016 113.792 62.4856 113.431 62.8531C113.063 63.2208 113.47 63.6746 113.47 63.6746C113.47 63.6746 112.945 63.6372 112.757 64.0392C112.569 64.4412 113.113 64.7979 113.113 64.7979C113.113 64.7979 112.685 64.7586 112.611 65.1189C112.432 65.9182 114.616 66.7987 115.314 66.8923C115.314 66.8923 115.984 67.4396 116.447 67.6161C116.912 67.7981 119.563 66.3058 119.563 66.3058Z" fill="#FAD6A1"/>
<path fill-rule="evenodd" clip-rule="evenodd" d="M145.87 151.272C145.943 151.129 144.899 152.774 144.899 152.774C144.899 152.774 139.239 155.409 139.256 156.123C139.273 156.833 150.097 156.006 150.097 156.006L149.806 152.492L145.87 151.272Z" fill="#221815"/>
<path fill-rule="evenodd" clip-rule="evenodd" d="M162.408 150.941C162.322 150.802 163.444 152.395 163.444 152.395C163.444 152.395 169.229 154.757 169.246 155.472C169.263 156.181 158.411 155.876 158.411 155.876L158.534 152.347L162.408 150.941Z" fill="#221815"/>
<path fill-rule="evenodd" clip-rule="evenodd" d="M163.005 94.5316L163.371 152.095L158.507 153.009L151.678 107.788L149.806 152.492L144.899 152.774L139.457 96.6153L163.005 94.5316Z" fill="#201D1D"/>
<path fill-rule="evenodd" clip-rule="evenodd" d="M151.944 59.255C152.392 59.2443 162.267 61.7427 162.267 61.7427C162.267 61.7427 164.061 93.5772 161.587 96.3161C159.042 96.9654 145.576 99.4554 139.57 97.2203C137.614 88.3662 138.205 75.7454 138.463 62.7093C140.283 61.2601 143.269 61.6508 145.089 60.2017C147.374 59.8845 149.659 59.5721 151.944 59.255Z" fill="#EDEDED"/>
<path fill-rule="evenodd" clip-rule="evenodd" d="M150.334 62.1788L150.851 62.8504L153.252 95.076L150.683 99.3247L147.564 95.4156L149.052 63.0478L150.334 62.1788Z" fill="#1D2637"/>
<path fill-rule="evenodd" clip-rule="evenodd" d="M153.918 59.6802C154.611 74.7367 151.527 84.8283 155.035 100.017C155.946 103.962 164.183 104.431 165.504 103.572C164.33 103.053 161.776 66.1012 163.226 66.174L162.882 61.8109L153.918 59.6802Z" fill="#2E324D"/>
<path fill-rule="evenodd" clip-rule="evenodd" d="M153.864 59.7204L153.696 84.1014L158.835 69.4897L156.246 67.8201L158.919 61.9637L156.713 60.3477L153.864 59.7204Z" fill="#444B65"/>
<path fill-rule="evenodd" clip-rule="evenodd" d="M145.588 60.0101L146.372 101.394C144.205 104.501 139.853 105.291 137.207 105.054C137.277 95.0953 137.948 72.0824 137.89 61.8766L145.588 60.0101Z" fill="#2A374F"/>
<path fill-rule="evenodd" clip-rule="evenodd" d="M145.492 59.915L145.181 84.2656L140.993 69.91L143.499 68.1191L140.551 62.3965L142.676 60.6774L145.492 59.915Z" fill="#444B65"/>
<path fill-rule="evenodd" clip-rule="evenodd" d="M143.331 45.4529C142.867 45.7263 142.232 48.2271 142.213 52.4786C142.194 56.7297 146.477 58.043 146.477 58.043C146.437 58.9194 146.403 59.7957 146.364 60.6721C148.825 62.0192 151.584 61.6082 153.582 60.0281C153.466 57.8909 154.544 49.6648 154.3 46.9955C153.824 41.7154 145.407 43.0108 143.331 45.4529Z" fill="#FAD6A1"/>
<mask id="mask2_1227_758" style="mask-type:luminance" maskUnits="userSpaceOnUse" x="142" y="43" width="13" height="19">
<path d="M143.331 45.4529C142.867 45.7263 142.232 48.2271 142.213 52.4786C142.194 56.7297 146.477 58.043 146.477 58.043C146.437 58.9194 146.403 59.7957 146.364 60.6721C148.825 62.0192 151.584 61.6082 153.582 60.0281C153.466 57.8909 154.544 49.6648 154.3 46.9955C153.824 41.7154 145.407 43.0108 143.331 45.4529Z" fill="white"/>
</mask>
<g mask="url(#mask2_1227_758)">
<path fill-rule="evenodd" clip-rule="evenodd" d="M141.579 56.0767C141.579 56.0767 145.204 57.9364 147.966 56.8362C150.727 55.736 152.004 52.8308 152.004 52.8308L153.567 53.1975L153.959 60.6772C153.959 60.6772 147.478 61.4964 145.475 60.4493C143.473 59.4023 141.579 56.0767 141.579 56.0767Z" fill="#F8C273"/>
</g>
<path fill-rule="evenodd" clip-rule="evenodd" d="M153.569 49.8495C152.944 49.3635 151.933 49.631 151.307 50.4433C150.681 51.2561 150.678 52.3062 151.297 52.788C151.922 53.2692 152.933 53.002 153.559 52.1893C154.186 51.3765 154.188 50.3308 153.569 49.8495Z" fill="#FAD6A1"/>
<path fill-rule="evenodd" clip-rule="evenodd" d="M149.026 60.8035L150.726 60.7292L151.986 62.3822L150.806 63.1739L149.067 63.186L148.087 62.2611L149.026 60.8035Z" fill="#1D2637"/>
<path fill-rule="evenodd" clip-rule="evenodd" d="M150.474 60.72C150.664 60.8808 152.757 63.7446 152.755 63.6469C152.752 63.5452 154.848 59.9008 154.848 59.9008L153.737 58.5118L150.474 60.72Z" fill="white"/>
<path fill-rule="evenodd" clip-rule="evenodd" d="M149.603 60.6586C149.421 60.8283 147.467 63.7882 147.465 63.6909C147.462 63.5887 145.22 60.1793 145.22 60.1793L146.448 58.7052L149.603 60.6586Z" fill="white"/>
<path fill-rule="evenodd" clip-rule="evenodd" d="M138.873 67.7483C138.364 67.2841 137.89 61.8772 137.89 61.8772L129.846 75.8239L119.023 64.9735L115.669 68.2101C115.669 68.2101 123.349 76.5927 127.116 81.5792C127.733 82.3957 128.752 83.73 130.685 83.8232C132.489 83.9093 140.699 73.6549 140.699 73.6549L138.873 67.7483Z" fill="#2A374F"/>
<path fill-rule="evenodd" clip-rule="evenodd" d="M173.187 97.9806C173.187 97.9806 172.976 98.9681 173.04 100.037C173.103 101.101 173.531 103.902 173.968 103.4C174.41 102.898 174.527 100.254 174.527 100.254C174.527 100.254 175.364 101.139 175.73 102.273C176.102 103.408 176.428 106.05 177.027 105.263C177.621 104.48 177.118 101.044 177.118 101.044L175.7 97.1185L173.187 97.9806Z" fill="#FAD6A1"/>
<path fill-rule="evenodd" clip-rule="evenodd" d="M160.03 69.788C160.657 68.5523 162.882 61.8113 162.882 61.8113C169.596 74.9246 171.885 83.8095 175.88 97.6149C175.88 97.6149 171.469 99.6939 171.3 98.7975C171.136 97.897 160.03 69.788 160.03 69.788Z" fill="#2E324D"/>
<path fill-rule="evenodd" clip-rule="evenodd" d="M175.715 101.427C175.724 101.577 175.191 104.44 175.438 104.697C175.691 104.958 176.042 104.561 176.042 104.561C176.042 104.561 176.006 104.892 176.249 104.969C176.497 105.041 176.754 104.802 176.79 104.489C176.826 104.173 176.599 101.78 176.599 101.78L175.715 101.427Z" fill="#FAD6A1"/>
<path fill-rule="evenodd" clip-rule="evenodd" d="M150.899 50.7591C150.899 50.7591 149.919 50.4908 149.848 49.145C149.777 47.7949 149.836 47.0198 149.836 47.0198L147.893 46.0691C147.893 46.0691 145.67 46.9248 143.186 45.9866C140.701 45.0488 140.415 43.6109 141.34 42.9129C142.264 42.2146 143.865 42.5948 143.865 42.5948C143.865 42.5948 148.247 41.8628 150.488 41.7755C152.729 41.6931 153.825 43.593 153.825 43.593C153.825 43.593 154.759 43.2835 155.673 45.1297C156.581 46.9709 155.987 50.7207 155.132 52.9587C154.282 55.197 153.78 56.1573 153.78 56.1573L150.899 50.7591Z" fill="#52372D"/>
<path fill-rule="evenodd" clip-rule="evenodd" d="M151.592 49.2602C152.317 48.9391 153.119 49.4531 153.377 50.4109C153.635 51.3684 153.25 52.4111 152.521 52.7311C151.793 53.057 150.991 52.5426 150.734 51.5852C150.478 50.6225 150.86 49.5846 151.592 49.2602Z" fill="#FAD6A1"/>
<path d="M103.44 6.28595C105.414 6.4288 107.394 6.52323 109.351 6.80165C112.675 7.27402 115.882 8.04571 118.592 9.91109C120.301 11.0878 121.423 12.6929 122.227 14.45C124.211 18.7822 124.527 23.3379 124.405 27.962C124.348 30.1368 124.106 32.2813 123.628 34.409C122.888 37.7032 120.564 39.9602 117.537 41.7921C114.888 43.3958 111.957 44.5037 109.125 45.7895C107.312 46.6128 105.674 47.6637 104.338 49.0341C102.788 50.6253 102.183 52.519 102.265 54.6011C102.312 55.7986 102.302 55.7972 100.941 55.8293C97.0742 55.9202 93.2077 56.0128 89.3411 56.1058C88.8404 56.1177 88.3479 56.1359 88.3765 55.4899C88.5053 52.5787 88.4232 49.667 89.0466 46.7698C89.6179 44.1149 91.3778 42.361 93.8064 40.9549C97.0484 39.0772 100.615 37.7823 104.104 36.3522C106.346 35.4325 108.48 34.4337 109.884 32.5222C111.007 30.9947 111.516 29.2847 111.644 27.5142C111.786 25.5635 111.619 23.6134 111.188 21.6856C110.55 18.8278 108.532 17.3957 105.36 17.0416C102.037 16.6706 98.7118 16.6606 95.3777 16.9126C93.4491 17.0584 91.5453 17.2816 89.69 17.8448C87.4855 18.5142 86.2765 19.9101 85.6784 21.8206C85.3133 22.9864 85.2029 24.1835 85.1918 25.3852C85.1826 26.3502 85.1939 27.3179 85.2621 28.2803C85.3058 28.8984 85.0632 29.107 84.3702 29.1199C80.4502 29.192 76.5302 29.2863 72.6112 29.3994C71.9328 29.4188 71.6583 29.2378 71.6646 28.6117C71.696 25.5061 71.6205 22.3926 72.2446 19.3184C72.8461 16.3554 73.9503 13.5405 76.3621 11.3349C77.5775 10.2233 79.1624 9.47661 80.8045 8.89351C84.7144 7.5048 88.8063 6.9148 92.9687 6.6289C93.2295 6.61102 93.4875 6.55538 93.7463 6.51742C96.9774 6.44 100.209 6.36297 103.44 6.28595Z" fill="#FFC245"/>
<path d="M89.8462 78.9819C89.3536 78.9936 88.9453 78.6485 88.934 78.2107C88.835 74.3619 88.7383 70.5135 88.6298 66.6649C88.6151 66.1434 88.8665 65.964 89.4311 65.9522C93.477 65.867 97.5222 65.7662 101.568 65.6681C101.999 65.6578 102.368 65.6925 102.378 66.1992C102.451 70.0949 102.529 73.9904 102.606 77.886C102.614 78.3235 102.223 78.6869 101.731 78.6986L89.8462 78.9819Z" fill="#FFC245"/>
<path d="M143.197 17.8109C143.657 17.8442 144.118 17.8662 144.573 17.9309C145.347 18.0408 146.093 18.2206 146.725 18.655C147.123 18.9291 147.384 19.3027 147.571 19.7118C148.033 20.7207 148.107 21.7811 148.079 22.858C148.065 23.3645 148.009 23.8635 147.898 24.359C147.725 25.126 147.184 25.6514 146.479 26.0782C145.862 26.4518 145.18 26.7095 144.521 27.0088C144.099 27.2003 143.717 27.4452 143.406 27.7644C143.045 28.1347 142.905 28.5758 142.923 29.0606C142.935 29.3395 142.932 29.3392 142.615 29.3463C141.715 29.3674 140.815 29.3888 139.914 29.4107C139.798 29.4135 139.683 29.4178 139.69 29.2672C139.72 28.5894 139.701 27.9115 139.846 27.2369C139.979 26.6186 140.388 26.2105 140.954 25.8828C141.709 25.4456 142.54 25.1442 143.352 24.811C143.874 24.597 144.371 24.3642 144.698 23.9191C144.959 23.5633 145.078 23.1653 145.108 22.753C145.141 22.2988 145.102 21.8447 145.001 21.3961C144.853 20.7309 144.383 20.3974 143.645 20.3148C142.871 20.2282 142.097 20.2261 141.32 20.2849C140.871 20.3189 140.428 20.3709 139.996 20.5019C139.483 20.6578 139.201 20.9828 139.062 21.4274C138.977 21.699 138.951 21.9776 138.949 22.2573C138.946 22.4819 138.949 22.7071 138.965 22.9312C138.975 23.075 138.919 23.1239 138.758 23.1269C137.845 23.1434 136.932 23.1656 136.02 23.1918C135.862 23.1963 135.798 23.154 135.799 23.0083C135.806 22.2852 135.789 21.5602 135.934 20.8446C136.074 20.1549 136.331 19.4994 136.893 18.9859C137.176 18.7269 137.545 18.5531 137.927 18.4173C138.837 18.0938 139.79 17.9564 140.759 17.8899C140.82 17.8856 140.88 17.8729 140.941 17.8638C141.692 17.8467 142.445 17.8288 143.197 17.8109Z" fill="#FFC245"/>
<path d="M140.032 34.7376C139.917 34.7403 139.822 34.6601 139.819 34.558C139.796 33.6617 139.774 32.7658 139.748 31.8697C139.745 31.7482 139.803 31.7066 139.935 31.7035C140.877 31.6838 141.819 31.6602 142.761 31.6373C142.861 31.6349 142.947 31.6429 142.949 31.7612C142.966 32.6684 142.984 33.5753 143.002 34.4825C143.004 34.5842 142.913 34.6689 142.799 34.6716L140.032 34.7376Z" fill="#FFC245"/>
<path d="M123.907 46.4339C124.115 46.4486 124.323 46.459 124.528 46.4879C124.877 46.5375 125.213 46.6184 125.498 46.8144C125.677 46.938 125.795 47.1062 125.879 47.2909C126.088 47.7458 126.121 48.2238 126.108 48.7093C126.102 48.9376 126.077 49.1627 126.026 49.386C125.948 49.7318 125.705 49.9686 125.387 50.1612C125.109 50.3296 124.801 50.4459 124.504 50.581C124.314 50.6672 124.142 50.7775 124.002 50.9217C123.839 51.0885 123.775 51.2875 123.784 51.5062C123.789 51.632 123.788 51.6316 123.645 51.635C123.239 51.6447 122.833 51.6544 122.427 51.6641C122.375 51.6653 122.323 51.6674 122.326 51.5993C122.34 51.2936 122.331 50.988 122.397 50.6839C122.456 50.4053 122.641 50.221 122.896 50.0733C123.236 49.8761 123.611 49.7405 123.977 49.5901C124.212 49.4936 124.437 49.3889 124.584 49.1882C124.702 49.0277 124.755 48.8482 124.769 48.6624C124.784 48.4576 124.766 48.2529 124.721 48.0503C124.654 47.7502 124.443 47.5999 124.109 47.5628C123.76 47.5237 123.411 47.5227 123.061 47.5492C122.859 47.5645 122.659 47.5877 122.464 47.6471C122.233 47.7174 122.106 47.864 122.044 48.0643C122.005 48.1867 121.994 48.3125 121.992 48.4385C121.991 48.5399 121.993 48.6412 121.999 48.7425C122.004 48.8071 121.978 48.8295 121.906 48.8308C121.494 48.8382 121.083 48.8484 120.672 48.8602C120.6 48.8623 120.572 48.8433 120.572 48.7777C120.576 48.4517 120.568 48.1248 120.633 47.8022C120.697 47.4913 120.813 47.1956 121.065 46.9643C121.193 46.8474 121.36 46.7694 121.532 46.7082C121.942 46.5624 122.372 46.5006 122.809 46.4705C122.836 46.4686 122.863 46.4628 122.891 46.4589C123.229 46.45 123.568 46.442 123.907 46.4339Z" fill="#FFC245"/>
<path d="M122.48 54.0658C122.429 54.0671 122.386 54.0307 122.385 53.9848C122.374 53.5807 122.364 53.1766 122.353 52.773C122.351 52.7183 122.378 52.6996 122.437 52.6981C122.862 52.6892 123.286 52.6787 123.711 52.6682C123.756 52.6671 123.795 52.6706 123.796 52.7241C123.804 53.1331 123.812 53.542 123.82 53.951C123.821 53.9969 123.78 54.0349 123.728 54.0361L122.48 54.0658Z" fill="#FFC245"/>
<path d="M57.0443 10.208C57.3394 10.2292 57.6348 10.2434 57.9278 10.2851C58.4246 10.3558 58.9039 10.4711 59.3088 10.7499C59.5642 10.9257 59.732 11.1655 59.8523 11.4282C60.1488 12.0757 60.1958 12.7565 60.1778 13.4474C60.1693 13.7722 60.133 14.093 60.0619 14.4109C59.9514 14.9032 59.6042 15.2406 59.1518 15.5145C58.756 15.754 58.3178 15.9198 57.8947 16.1117C57.6238 16.2348 57.379 16.392 57.1794 16.5967C56.9474 16.8344 56.8573 17.1173 56.8697 17.4284C56.8767 17.6073 56.8753 17.6073 56.6718 17.6118C56.0941 17.6256 55.516 17.6393 54.9379 17.6531C54.8633 17.6549 54.7896 17.6575 54.7936 17.5612C54.8127 17.1262 54.8005 16.6912 54.8938 16.2581C54.979 15.8614 55.242 15.5992 55.605 15.389C56.0893 15.1083 56.6224 14.9149 57.1437 14.7013C57.4789 14.5638 57.7976 14.4146 58.0076 14.1287C58.1755 13.9006 58.2513 13.645 58.2704 13.3802C58.2915 13.0888 58.2664 12.7973 58.2021 12.5091C58.1068 12.0821 57.8053 11.868 57.331 11.815C56.8346 11.7596 56.3376 11.7582 55.8393 11.7958C55.5511 11.8176 55.2667 11.8509 54.9895 11.9351C54.6601 12.0351 54.4795 12.2438 54.3899 12.5292C54.3352 12.7035 54.3187 12.8825 54.3171 13.062C54.3155 13.2065 54.3176 13.3509 54.3274 13.4947C54.3341 13.5871 54.2977 13.6181 54.1942 13.6202C53.6083 13.6309 53.0225 13.6449 52.4368 13.6621C52.3355 13.6649 52.2946 13.6381 52.2955 13.5443C52.3003 13.0803 52.2888 12.6147 52.3824 12.1554C52.4723 11.7127 52.6374 11.292 52.9975 10.9623C53.1791 10.7962 53.4159 10.6848 53.6614 10.5973C54.2457 10.3898 54.8573 10.3016 55.479 10.2586C55.5179 10.2561 55.5566 10.2475 55.5954 10.2418C56.0785 10.2311 56.5612 10.2196 57.0443 10.208Z" fill="#FFC245"/>
<path d="M55.0128 21.0724C54.939 21.0742 54.8781 21.0225 54.8765 20.957C54.8619 20.382 54.8473 19.8066 54.8313 19.2317C54.829 19.1537 54.8668 19.127 54.9509 19.125C55.5558 19.1122 56.1601 19.0974 56.7648 19.0826C56.8295 19.081 56.8844 19.0862 56.8858 19.1618C56.8965 19.7441 56.9085 20.326 56.9197 20.9083C56.9208 20.9739 56.8623 21.028 56.7891 21.0297L55.0128 21.0724Z" fill="#FFC245"/>
<path d="M73.2939 47.2382C73.7536 47.2715 74.2144 47.2935 74.6704 47.3583C75.4442 47.4682 76.1907 47.6479 76.8221 48.0823C77.2201 48.3564 77.4811 48.73 77.6687 49.1391C78.1304 50.148 78.2041 51.2084 78.1759 52.2854C78.1627 52.7918 78.1062 53.2908 77.9949 53.7863C77.8227 54.5533 77.2817 55.0787 76.5767 55.5055C75.9597 55.8787 75.2775 56.1368 74.6179 56.4361C74.1957 56.6277 73.8146 56.8725 73.5031 57.1917C73.1422 57.562 73.0015 58.0031 73.0203 58.4879C73.0315 58.7669 73.0288 58.7665 72.7121 58.7737C71.8119 58.7947 70.9118 58.8166 70.0112 58.838C69.8945 58.8408 69.7801 58.8452 69.7865 58.6945C69.8165 58.0167 69.7976 57.3388 69.9426 56.6643C70.0759 56.0459 70.4853 55.6378 71.0509 55.3101C71.8058 54.8729 72.6364 54.5715 73.4485 54.2383C73.9707 54.0243 74.4675 53.7916 74.7946 53.3464C75.0558 52.9906 75.1744 52.5927 75.2044 52.1804C75.2375 51.7261 75.1986 51.272 75.0983 50.8234C74.9498 50.1579 74.4798 49.8247 73.7415 49.7421C72.9677 49.6555 72.1937 49.6535 71.4171 49.7122C70.9681 49.7462 70.5249 49.7983 70.0926 49.9293C69.5794 50.0851 69.298 50.4101 69.1583 50.8548C69.0734 51.1264 69.0479 51.405 69.045 51.6847C69.0427 51.9092 69.0453 52.1345 69.0615 52.3586C69.0718 52.5024 69.0155 52.5512 68.8539 52.5542C67.941 52.5712 67.0287 52.5929 66.116 52.6195C65.9581 52.6241 65.8942 52.5817 65.8957 52.4361C65.9029 51.7129 65.8852 50.9879 66.0306 50.2723C66.1707 49.5826 66.4276 48.9271 66.9892 48.4136C67.2723 48.1546 67.6411 47.9809 68.0234 47.845C68.9336 47.5216 69.8866 47.3842 70.8559 47.3176C70.9164 47.3134 70.9767 47.3007 71.0367 47.2916C71.789 47.2741 72.5412 47.2561 73.2939 47.2382Z" fill="#FFC245"/>
<path d="M70.1286 64.1649C70.0137 64.1676 69.9186 64.0874 69.9162 63.9853C69.893 63.089 69.8707 62.1932 69.8453 61.297C69.8419 61.1756 69.9002 61.1339 70.0319 61.1312C70.9737 61.1116 71.9159 61.0879 72.8577 61.0651C72.9581 61.0627 73.0438 61.0707 73.0462 61.1889C73.0633 62.0958 73.0813 63.003 73.0993 63.9098C73.1012 64.0116 73.01 64.0962 72.8956 64.0989L70.1286 64.1649Z" fill="#FFC245"/>
</svg>
