<svg width="232" height="220" viewBox="0 0 232 220" fill="none" xmlns="http://www.w3.org/2000/svg">
<path d="M209.25 165.31C206.802 156.798 201.055 149.256 193.583 144.992C185.8 140.551 176.24 140.696 167.746 138.509C160.369 136.61 155.375 132.47 151.637 125.72C148.056 119.253 144.993 112.198 138.308 108.609C133.025 105.773 126.654 105.629 120.877 107.244C110.232 110.22 101.512 118.201 94.0046 126.292C87.1505 133.679 81.2917 141.963 70.3559 140.957C59.4131 139.951 49.8003 132.215 38.6122 132.634C23.8255 133.187 10.2368 144.38 5.91812 159.113C1.87072 172.921 6.20562 187.294 15.4872 196.539L191.411 217.43C206.006 204.664 215.119 185.717 209.25 165.31Z" fill="#F7F0E3"/>
<path d="M43.8662 199.909L44.3502 199.967C48.1695 196.505 51.3585 192.134 53.6495 187.133C57.3578 179.039 58.2924 170.193 56.2813 162.225C55.2649 158.198 53.5631 154.356 51.9173 150.64C50.248 146.871 48.5222 142.974 47.5206 138.899C47.1065 137.214 46.8648 135.429 46.8055 133.63C46.6862 133.599 46.5664 133.571 46.4468 133.541C46.4999 135.403 46.7469 137.252 47.1753 138.995C48.1846 143.103 49.9175 147.015 51.5933 150.799C53.2327 154.5 54.9279 158.328 55.9363 162.323C57.9259 170.206 56.9997 178.961 53.328 186.975C51.0088 192.038 47.7594 196.447 43.8662 199.909Z" fill="white"/>
<path d="M192.465 201.296C195.994 202.534 199.401 203.673 202.725 204.529C202.797 204.419 202.867 204.309 202.938 204.199C199.586 203.342 196.147 202.194 192.582 200.943C187.154 199.04 181.279 196.98 175.294 196.269C171.589 195.829 167.841 195.907 164.131 196.859C162.726 197.219 161.353 197.726 160.027 198.366C156.994 196.559 153.96 194.62 150.974 192.532C153.504 190.985 156.054 189.479 158.623 188.035C177.687 177.316 194.739 171.981 210.626 171.779C210.609 171.655 210.59 171.532 210.572 171.408C194.642 171.623 177.551 176.972 158.456 187.708C155.833 189.183 153.229 190.722 150.647 192.303C147.291 189.94 144 187.392 140.85 184.636C135.135 179.639 128.459 172.681 122.956 163.836C148.344 163.874 174.276 163.202 196.821 151.135C197.677 150.676 198.63 150.129 199.625 149.499C199.534 149.412 199.441 149.327 199.348 149.241C198.395 149.842 197.483 150.364 196.661 150.804C174.122 162.869 148.146 163.506 122.726 163.464C118.845 157.15 115.571 149.887 113.668 141.702C110.703 128.953 112.361 116.984 118.216 108.864C118.47 108.512 118.736 108.166 119.007 107.826C118.794 107.898 118.583 107.975 118.371 108.051C118.222 108.247 118.075 108.443 117.932 108.642C112.012 116.853 110.331 128.935 113.321 141.793C115.214 149.934 118.455 157.166 122.3 163.463C120.829 163.46 119.357 163.455 117.89 163.45C112.598 163.432 107.125 163.414 101.799 163.496C99.8549 163.527 97.8733 163.596 95.8924 163.742C92.8287 154.095 89.33 144.622 84.3456 136.263C84.251 136.341 84.155 136.416 84.0596 136.492C89.0004 144.787 92.4788 154.19 95.5246 163.77C86.8796 164.45 78.3033 166.641 73.0503 173.485C68.1443 179.877 67.019 189.385 69.7058 201.744C69.7987 202.171 69.8965 202.593 69.9968 203.013L70.3757 203.058C70.2658 202.599 70.1573 202.135 70.0535 201.657C67.3921 189.415 68.4938 180.014 73.3278 173.716C78.5185 166.953 87.0447 164.8 95.6403 164.134C96.7209 167.547 97.7486 170.981 98.77 174.394L98.8812 174.765C102.428 186.616 106.19 198.093 111.727 207.968L112.169 208.021C106.573 198.122 102.791 186.576 99.2216 174.651L99.1106 174.28C98.0979 170.896 97.0787 167.491 96.0081 164.107C97.9506 163.965 99.8938 163.898 101.801 163.869C107.124 163.786 112.595 163.804 117.886 163.822C119.431 163.827 120.979 163.833 122.53 163.836C128.078 172.814 134.839 179.868 140.619 184.923C143.735 187.648 146.988 190.172 150.305 192.513C143.722 196.555 137.274 200.864 130.979 205.072C128.799 206.529 126.594 208.001 124.373 209.47L124.934 209.537C127.029 208.149 129.111 206.76 131.169 205.385C137.509 201.148 144.002 196.807 150.631 192.742C153.6 194.824 156.617 196.758 159.632 198.561C154.931 200.939 150.848 205.002 148.054 210.192C147.704 210.842 147.388 211.502 147.088 212.167L147.461 212.212C147.742 211.592 148.038 210.977 148.364 210.372C151.166 205.167 155.279 201.112 160.008 198.784C168.441 203.794 176.843 207.767 184.086 210.985L184.358 211.106C187.411 212.461 190.532 213.849 193.207 215.801C193.299 215.715 193.39 215.63 193.482 215.543C190.765 213.546 187.597 212.138 184.501 210.763L184.228 210.642C177.059 207.457 168.754 203.532 160.408 198.592C161.641 198.014 162.913 197.554 164.214 197.22C173.814 194.756 183.723 198.231 192.465 201.296Z" fill="white"/>
<path d="M21.1219 156.664C21.8907 163.533 20.3365 170.668 16.8574 176.24C14.5787 179.89 11.5353 183.078 7.94175 185.699C7.9937 185.811 8.04719 185.923 8.10021 186.035C11.751 183.38 14.8423 180.147 17.1556 176.441C20.6798 170.797 22.2545 163.571 21.4759 156.617C20.8676 151.183 18.9145 146.41 15.8662 142.763C15.7785 142.847 15.6912 142.933 15.6044 143.019C18.6015 146.61 20.5226 151.31 21.1219 156.664Z" fill="white"/>
<path d="M111.243 81.5049C113.934 85.1619 114.657 90.8701 112.351 95.78C110.118 100.534 106.024 104.205 101.378 106.326C97.6396 108.033 92.9527 108.663 89.7874 106.035C87.4221 104.071 86.4799 100.658 86.78 97.4996C87.0802 94.3415 88.4581 91.3927 90.051 88.676C92.2963 84.8466 95.1378 81.212 98.9695 79.1761C104.251 76.37 108.657 77.9898 111.243 81.5049Z" fill="#F7F0E3"/>
<path d="M77.2441 18.9518L51.7248 15.9213L53.1395 4.00781L78.6588 7.03824L77.2441 18.9518ZM52.3213 15.4298L76.7793 18.3342L78.0623 7.52976L53.6043 4.62536L52.3213 15.4298Z" fill="#E9DDCA"/>
<path d="M59.2892 28.3736L33.77 25.3432L35.1847 13.4297L60.704 16.4601L59.2892 28.3736ZM34.3665 24.8517L58.8245 27.7561L60.1075 16.9516L35.6495 14.0472L34.3665 24.8517Z" fill="#E9DDCA"/>
<path d="M219.583 60.2821C218.612 54.344 216.332 48.7272 212.744 43.4135C209.147 38.0989 203.934 33.4451 197.105 29.4431C190.276 25.441 181.312 22.781 170.211 21.4629C161.357 20.4114 152.184 20.5875 142.694 21.9914C133.194 23.4034 124.789 26.0182 117.469 29.8439L123.279 56.1741L118.081 59.6117L124.681 62.5288C131.882 59.6334 138.362 57.6795 144.119 56.6667C149.867 55.662 155.863 55.5304 162.116 56.273C168.361 57.0146 172.903 59.1495 175.741 62.6775C178.577 66.2147 179.729 70.1934 179.2 74.6423C178.563 80.0135 176.344 84.5826 172.562 88.3606C168.762 92.1367 164.618 95.9178 160.121 99.7028C156.999 102.331 153.942 105.067 150.967 107.905C147.991 110.752 145.285 113.851 142.864 117.231C140.436 120.602 138.373 124.3 136.666 128.324C134.951 132.348 133.794 136.951 133.179 142.133C132.981 143.805 132.778 145.799 132.596 148.125C132.561 148.554 132.533 148.972 132.509 149.386L126.033 148.617L132.507 154.45L166.867 158.531C166.821 157.397 166.89 156.094 167.066 154.611C167.242 153.128 167.374 152.016 167.463 151.275C167.836 148.128 168.815 145.099 170.389 142.187C171.964 139.274 173.835 136.544 175.988 133.975C178.139 131.415 180.486 129.016 183.045 126.789C185.596 124.552 188.046 122.45 190.395 120.473C193.516 117.845 196.754 115.039 200.099 112.052C203.444 109.066 206.471 105.867 209.165 102.428C211.859 98.988 214.201 95.1856 216.193 91.0021C218.184 86.8279 219.495 82.1511 220.112 76.9608C220.727 71.7793 220.545 66.2192 219.583 60.2821Z" fill="#E49B31"/>
<path d="M155.051 53.6454C148.871 52.9115 142.947 53.0245 137.271 53.9833C131.585 54.9499 125.189 56.8261 118.081 59.6117L110.877 27.953C118.1 24.2671 126.398 21.7559 135.78 20.4118C145.153 19.0754 154.215 18.9268 162.966 19.966C173.936 21.2687 182.799 23.8654 189.555 27.756C196.312 31.6466 201.473 36.1643 205.04 41.3179C208.597 46.4704 210.864 51.9134 211.837 57.6642C212.801 63.414 212.995 68.7972 212.399 73.8115C211.803 78.8346 210.518 83.3589 208.561 87.3952C206.603 91.4402 204.298 95.1156 201.645 98.439C198.991 101.762 196.009 104.851 192.711 107.735C189.414 110.618 186.221 113.327 183.143 115.863C180.828 117.772 178.413 119.801 175.897 121.961C173.374 124.11 171.061 126.427 168.942 128.9C166.821 131.381 164.979 134.02 163.43 136.836C161.882 139.651 160.922 142.581 160.561 145.627C160.476 146.344 160.348 147.421 160.177 148.856C160.007 150.291 159.942 151.552 159.99 152.65L126.033 148.617C125.895 146.781 125.924 144.744 126.106 142.494C126.28 140.242 126.475 138.313 126.668 136.694C127.263 131.68 128.395 127.226 130.08 123.335C131.756 119.443 133.786 115.868 136.177 112.611C138.56 109.345 141.226 106.351 144.159 103.602C147.092 100.862 150.106 98.2203 153.184 95.684C157.618 92.0306 161.703 88.3802 165.448 84.7338C169.176 81.0854 171.357 76.6675 171.974 71.4694C172.485 67.1638 171.338 63.3093 168.527 59.8783C165.715 56.4559 161.223 54.3783 155.051 53.6454Z" fill="#FBC343"/>
<path d="M165.08 193.664C164.311 200.138 161.712 204.895 157.283 207.943C152.853 210.997 148.111 212.218 143.05 211.616C137.981 211.015 133.657 208.718 130.065 204.71C126.48 200.711 125.068 195.478 125.837 189.004C126.604 182.538 129.203 177.78 133.626 174.725C140.447 170.013 149.725 169.885 156.499 174.564C162.511 178.717 165.977 186.112 165.08 193.664Z" fill="#E49B31"/>
<path d="M158.358 192.866C157.589 199.34 154.991 204.097 150.561 207.145C146.131 210.2 141.39 211.42 136.328 210.819C131.259 210.217 126.935 207.92 123.344 203.913C119.758 199.913 118.346 194.68 119.115 188.206C119.883 181.74 122.481 176.983 126.905 173.927C131.334 170.879 136.076 169.652 141.145 170.254C146.207 170.855 150.53 173.159 154.122 177.159C157.714 181.166 159.126 186.4 158.358 192.866Z" fill="#FBC343"/>
<path d="M67.5354 89.005C68.1611 86.9506 67.0778 84.7729 65.1158 84.1409C63.1538 83.509 61.056 84.6622 60.4303 86.7166C59.8046 88.7711 60.8879 90.9488 62.8499 91.5807C64.8119 92.2127 66.9097 91.0595 67.5354 89.005Z" fill="#D3DFFF"/>
<path d="M68.4424 96.4842C68.7943 95.3287 68.1787 94.1018 67.0673 93.7439C65.956 93.3859 64.7698 94.0325 64.4179 95.188C64.0659 96.3435 64.6816 97.5704 65.7929 97.9284C66.9042 98.2863 68.0904 97.6398 68.4424 96.4842Z" fill="#D3DFFF"/>
<path d="M66.1859 79.2994C72.5817 74.0292 73.7265 64.389 68.7428 57.7675C63.7591 51.146 54.5342 50.0505 48.1384 55.3207C41.7426 60.5909 40.5978 70.2311 45.5815 76.8526C50.5652 83.4742 59.7901 84.5696 66.1859 79.2994Z" fill="#D3DFFF"/>
<path d="M51.3412 68.5643C52.355 68.6846 53.2788 67.9234 53.4046 66.864C53.5304 65.8046 52.8106 64.8481 51.7968 64.7277C50.783 64.6074 49.8592 65.3686 49.7334 66.428C49.6076 67.4874 50.3274 68.4439 51.3412 68.5643Z" fill="white"/>
<path d="M56.9358 69.2283C57.9495 69.3487 58.8734 68.5875 58.9992 67.528C59.125 66.4686 58.4051 65.5122 57.3913 65.3918C56.3776 65.2714 55.4537 66.0327 55.3279 67.0921C55.2021 68.1515 55.922 69.1079 56.9358 69.2283Z" fill="white"/>
<path d="M62.5301 69.8924C63.5439 70.0128 64.4677 69.2515 64.5935 68.1921C64.7193 67.1327 63.9995 66.1763 62.9857 66.0559C61.9719 65.9355 61.0481 66.6967 60.9223 67.7562C60.7965 68.8156 61.5163 69.772 62.5301 69.8924Z" fill="white"/>
<path d="M31.9275 190.691L32.6376 196.337C32.8228 197.81 34.0312 198.933 35.5076 199.003C40.0088 199.216 49.4185 199.175 55.2282 195.707L54.6536 187.623C47.3865 186.322 40.4918 185.935 34.3179 187.316C32.772 187.662 31.7292 189.114 31.9275 190.691Z" fill="#102048"/>
<path d="M39.9389 196.07C39.8615 196.061 39.7968 195.999 39.7846 195.915L38.7689 188.858C38.7542 188.757 38.8214 188.662 38.9188 188.645C39.0167 188.629 39.1069 188.698 39.1216 188.799L40.1373 195.856C40.1518 195.957 40.0847 196.053 39.9874 196.069C39.9708 196.072 39.9544 196.072 39.9389 196.07Z" fill="white"/>
<path d="M43.9991 195.614C43.9217 195.605 43.857 195.543 43.8447 195.459L42.8291 188.402C42.8146 188.301 42.8816 188.206 42.9789 188.189C43.077 188.173 43.1671 188.242 43.1818 188.344L44.1974 195.4C44.2121 195.501 44.1449 195.597 44.0476 195.613C44.031 195.616 44.0148 195.616 43.9991 195.614Z" fill="white"/>
<path d="M52.5163 163.072L34.8802 166.328L45.3644 185.915L63.3206 189.576L89.6472 181.493L81.9169 165.417L52.5163 163.072Z" fill="#FBC343"/>
<path d="M73.1879 168.075C111.914 160.955 113.821 196.168 54.7925 195.527C53.0213 192.862 51.1144 188.376 50.576 184.751L83.1193 173.543L73.1879 168.075Z" fill="#FBC343"/>
<path d="M71.8384 192.989C70.161 192.197 68.624 190.843 68.624 190.843L62.3869 192.098L62.9522 199.086L69.0314 201.15C71.3625 197.745 71.8275 194.776 71.8384 192.989Z" fill="#F9B384"/>
<path d="M50.6809 185.006L50.4712 184.495C57.3551 181.358 74.9147 173.942 89.2554 172.843L89.2891 173.4C75.031 174.493 57.5395 181.88 50.6809 185.006Z" fill="#E49B31"/>
<path d="M52.5162 163.072C18.567 152.035 5.41536 185.884 62.9523 199.085C65.2984 196.909 67.2517 194.24 68.624 190.842C60.4146 183.519 51.1112 176.381 40.8135 169.41L52.5162 163.072Z" fill="#FBC343"/>
<path d="M68.4536 191.06C66.9303 189.763 65.345 188.396 63.6666 186.948C55.2412 179.68 45.6916 171.443 37.3458 166.401L37.6172 165.918C46.0011 170.982 55.5684 179.235 64.0096 186.516C65.6873 187.963 67.272 189.33 68.794 190.626L68.4536 191.06Z" fill="#E49B31"/>
<path d="M24.9499 177.356L24.5173 177.033C26.1157 174.719 28.4039 173.302 31.3184 172.821L31.3966 173.372C28.5906 173.835 26.4819 175.138 24.9499 177.356Z" fill="#E49B31"/>
<path d="M97.7688 183.873C96.7989 181.358 95.054 179.597 92.4345 178.489L92.6396 177.972C95.3606 179.122 97.2531 181.036 98.265 183.66L97.7688 183.873Z" fill="#E49B31"/>
<path d="M59.7327 198.393L59.3898 197.968C62.5408 195.186 64.6393 192.102 65.8051 188.542L66.3109 188.718C65.1126 192.377 62.9608 195.542 59.7327 198.393Z" fill="#E49B31"/>
<path d="M89.4204 193.015C85.3074 189.61 76.0812 193.554 73.8835 193.548C73.2428 193.546 72.5288 193.315 71.8384 192.989C71.8275 194.776 71.3625 197.745 69.0315 201.15L70.0641 201.501C70.0641 201.501 77.0542 205.176 85.0167 204.466C92.3663 203.81 92.654 195.692 89.4204 193.015Z" fill="#102048"/>
<path d="M82.2312 201.701C82.2135 201.699 82.196 201.694 82.1788 201.686C82.0894 201.645 82.0501 201.535 82.0911 201.441C82.8283 199.752 83.4683 196.335 82.2101 193.839C82.1645 193.748 82.1983 193.635 82.2854 193.587C82.3724 193.538 82.4803 193.572 82.5259 193.663C83.8434 196.277 83.1814 199.837 82.4151 201.592C82.3819 201.668 82.3063 201.71 82.2312 201.701Z" fill="white"/>
<path d="M78.6555 201.98C78.6378 201.977 78.6203 201.973 78.6032 201.965C78.5137 201.923 78.4744 201.813 78.5154 201.719C79.2526 200.031 79.8926 196.613 78.6344 194.117C78.5888 194.027 78.6226 193.914 78.7097 193.865C78.7967 193.817 78.9045 193.851 78.9503 193.941C80.2678 196.555 79.6058 200.115 78.8394 201.87C78.8063 201.946 78.7306 201.989 78.6555 201.98Z" fill="white"/>
<path d="M51.7115 117.319C51.7115 117.319 61.3921 110.577 61.2435 109.06C61.1372 107.976 58.4728 109.231 58.4728 109.231C58.4728 109.231 62.4636 105.331 62.3489 104.786C62.1439 103.813 59.5309 105.272 59.5309 105.272C59.5309 105.272 61.4475 103.019 60.7174 102.528C59.9873 102.037 58.1133 103.343 58.1133 103.343C58.1133 103.343 59.2649 102.103 58.8419 101.691C58.4189 101.279 56.2378 102.506 56.2378 102.506C56.2378 102.506 57.1614 100.879 55.5542 101.347C53.947 101.814 41.9962 110.829 41.9962 110.829L51.7115 117.319Z" fill="#F9B384"/>
<path d="M56.3901 108.515C56.3475 108.51 56.3067 108.489 56.2766 108.453C54.9439 106.839 54.3226 106.412 52.7276 105.682C52.6377 105.641 52.5977 105.531 52.638 105.437C52.6783 105.343 52.7838 105.3 52.8737 105.341C54.5263 106.097 55.1696 106.54 56.5478 108.208C56.6118 108.286 56.6029 108.403 56.5281 108.471C56.4883 108.506 56.4381 108.521 56.3901 108.515Z" fill="#E28B6D"/>
<path d="M53.2507 112.422C53.2425 112.421 53.2344 112.419 53.2263 112.417C53.1312 112.392 53.0748 112.29 53.1004 112.191C53.4253 110.924 53.9083 110.166 54.5773 109.873C55.1491 109.622 55.8407 109.737 56.6332 110.215C56.7181 110.266 56.7465 110.379 56.6966 110.468C56.6468 110.558 56.5375 110.589 56.4526 110.537C55.7615 110.121 55.176 110.013 54.7124 110.216C54.1612 110.458 53.7346 111.153 53.4447 112.283C53.4213 112.374 53.3376 112.432 53.2507 112.422Z" fill="#E28B6D"/>
<path d="M53.7614 104.594C53.7144 104.589 53.6698 104.563 53.6395 104.521C53.5813 104.438 53.5986 104.322 53.6779 104.26L56.1322 102.357C56.2116 102.295 56.3231 102.312 56.3814 102.394C56.4396 102.477 56.4223 102.593 56.343 102.655L53.8887 104.558C53.8505 104.588 53.805 104.599 53.7614 104.594Z" fill="#E28B6D"/>
<path d="M55.7078 105.576C55.6636 105.57 55.6216 105.548 55.5913 105.51C55.5293 105.43 55.5409 105.313 55.6173 105.248L58.0007 103.2C58.0772 103.134 58.1894 103.145 58.2516 103.225C58.3136 103.304 58.302 103.421 58.2256 103.487L55.8422 105.534C55.8028 105.568 55.7542 105.581 55.7078 105.576Z" fill="#E28B6D"/>
<path d="M57.6326 107.116C57.5894 107.111 57.548 107.089 57.5179 107.052C57.4547 106.974 57.4646 106.857 57.5401 106.79L59.4165 105.13C59.4921 105.064 59.6043 105.073 59.6676 105.151C59.7308 105.229 59.7209 105.346 59.6454 105.413L57.769 107.073C57.7294 107.107 57.68 107.122 57.6326 107.116Z" fill="#E28B6D"/>
<path d="M78.609 173.293L46.4394 170.785L46.5236 139.865C46.5236 139.865 58.5033 130.514 63.0915 127.092L70.0972 127.545C90.4772 140.369 85.419 152.763 78.609 173.293Z" fill="#3A6BEA"/>
<path d="M70.0973 127.546C70.0973 127.546 94.5451 132.688 100.234 151.305C105.801 169.521 73.7441 171.966 73.7441 171.966L70.0973 127.546Z" fill="#3A6BEA"/>
<path d="M41.4018 127.983L53.1547 116.21L44.3243 109.029C39.9975 111.45 31.5165 117.091 24.1074 123.739C22.472 125.207 21.1194 126.987 20.3022 129.027C19.605 130.768 19.3062 132.534 19.3715 134.305C19.5417 138.922 22.5386 142.826 27.0273 143.924C30.861 144.862 45.8648 145.411 58.3318 143.143L63.5639 129.294C61.8741 128 48.3857 126.209 41.4018 127.983Z" fill="#3A6BEA"/>
<g opacity="0.8">
<path d="M89.8847 137.016C89.9394 137.009 89.9943 137.003 90.049 136.996C89.9456 136.914 89.8415 136.833 89.7376 136.752C87.875 136.973 85.9537 137.196 84.0844 137.21C82.961 137.218 79.2326 137.034 78.4575 134.33C78.0719 132.986 78.648 131.609 79.375 130.682C79.2893 130.644 79.2045 130.608 79.1194 130.571C78.3708 131.556 77.7946 132.995 78.2015 134.413C79.0287 137.3 82.9133 137.497 84.0836 137.489C86.0068 137.475 87.9781 137.242 89.8847 137.016Z" fill="white"/>
<path d="M99.0471 158.338C97.9232 157.721 96.7622 157.084 95.465 157.058C93.1898 157.013 90.9894 159.108 90.56 161.729C90.267 163.515 90.7 165.476 91.7553 167.28C91.8366 167.24 91.9176 167.199 91.9984 167.158C90.9655 165.404 90.5401 163.501 90.8234 161.773C91.2315 159.284 93.3101 157.294 95.4572 157.336C96.6903 157.363 97.7737 157.956 98.9206 158.585C99.33 158.81 99.7463 159.037 100.173 159.238C100.206 159.151 100.239 159.064 100.271 158.977C99.8551 158.78 99.4477 158.558 99.0471 158.338Z" fill="white"/>
<path d="M37.7254 142.114C36.3411 140.597 33.9863 139.956 31.2661 140.355C28.8419 140.712 26.6772 141.73 25.0951 143.23C25.1824 143.271 25.2672 143.316 25.3561 143.355C26.8906 141.937 28.9725 140.974 31.3005 140.632C33.9345 140.245 36.2059 140.856 37.5311 142.308C38.161 142.997 38.5637 143.844 38.8235 144.736C38.9159 144.736 39.0086 144.736 39.1017 144.736C38.8327 143.777 38.4078 142.861 37.7254 142.114Z" fill="white"/>
<path d="M25.9567 122.119C28.9365 121.712 31.8825 120.993 34.6702 119.736C35.7235 119.261 36.9232 118.638 37.8354 117.623C38.8059 116.543 39.2485 115.172 39.0194 113.957C38.9295 113.48 38.7217 113.047 38.4405 112.685C38.366 112.735 38.2907 112.785 38.2156 112.836C38.4788 113.168 38.6735 113.571 38.757 114.014C38.9694 115.141 38.5524 116.419 37.6415 117.433C36.7633 118.41 35.5942 119.016 34.5664 119.48C31.937 120.665 29.1613 121.372 26.3471 121.786C26.2167 121.897 26.0867 122.008 25.9567 122.119Z" fill="white"/>
</g>
<path d="M73.1639 121.033L73.1032 121.506L72.1582 128.851L72.0546 129.647C71.8931 130.892 71.2701 131.963 70.3834 132.69C69.5016 133.412 68.3601 133.795 67.1614 133.662C64.7468 133.389 63.0138 131.13 63.2914 128.601L64.2855 119.503L73.1639 121.033Z" fill="#F9B384"/>
<path d="M73.1032 121.506L72.1582 128.851C68.4447 126.723 67.3601 122.107 67.3601 122.107L73.1032 121.506Z" fill="#102048"/>
<path d="M76.1745 108.857C77.3674 110.781 80.2773 121.227 75.7251 124.133C70.6025 127.402 64.2439 120.274 64.2439 120.274L64.6683 108.56L71.0371 107.594L76.1745 108.857Z" fill="#F9B384"/>
<path d="M61.7275 106.494C61.7275 106.494 47.1632 112.325 55.7647 135.14C56.8694 138.07 59.8993 139.652 62.7736 138.628C65.8569 137.529 67.4008 133.942 66.1684 130.819C64.7461 127.215 63.5031 122.645 64.6402 119.489L61.7275 106.494Z" fill="#102048"/>
<path d="M64.8904 113.22C66.5148 111.882 66.8055 109.433 65.5398 107.752C64.2741 106.07 61.9313 105.792 60.3069 107.13C58.6826 108.469 58.3918 110.917 59.6575 112.599C60.9233 114.28 63.2661 114.559 64.8904 113.22Z" fill="#FBC343"/>
<path d="M66.6006 115.362C66.4873 112.902 66.4401 111.219 68.9209 110.253C68.9209 110.253 76.9581 112.791 78.9129 109.736C80.8676 106.68 79.0832 101.28 73.6528 104.239C61.1436 100.1 57.9354 112.434 61.3262 117.075L65.2358 116.915C66.0225 116.883 66.6383 116.182 66.6006 115.362Z" fill="#102048"/>
<path d="M72.8983 116.697C73.2002 116.733 73.4753 116.506 73.5127 116.19C73.5502 115.875 73.3358 115.59 73.0339 115.554C72.732 115.518 72.4569 115.745 72.4195 116.061C72.382 116.376 72.5964 116.661 72.8983 116.697Z" fill="#102048"/>
<path d="M76.8247 115.232C77.1266 115.268 77.4017 115.041 77.4392 114.725C77.4767 114.41 77.2623 114.125 76.9604 114.089C76.6585 114.053 76.3834 114.28 76.3459 114.596C76.3085 114.911 76.5228 115.196 76.8247 115.232Z" fill="#102048"/>
<path d="M76.0792 118.278C76.0409 118.274 76.0043 118.255 75.9779 118.221C75.9233 118.152 75.9329 118.05 75.9996 117.992C76.2474 117.777 76.5278 117.466 76.4561 117.208C76.3816 116.941 75.9516 116.778 75.7487 116.754C75.3126 116.702 75.1994 115.866 75.1812 115.699C75.1714 115.61 75.2329 115.529 75.3184 115.518C75.4039 115.506 75.4813 115.57 75.4911 115.659C75.5301 116.011 75.6648 116.416 75.7871 116.43C75.9958 116.455 76.6219 116.634 76.7557 117.115C76.8513 117.458 76.6634 117.837 76.1976 118.241C76.163 118.271 76.1201 118.283 76.0792 118.278Z" fill="#102048"/>
<path d="M75.8497 120.45C75.8198 120.446 75.7909 120.433 75.7665 120.411C74.8235 119.563 73.712 120.049 73.7008 120.054C73.6216 120.089 73.5301 120.052 73.4965 119.969C73.4631 119.887 73.5003 119.791 73.5797 119.755C73.6325 119.731 74.8833 119.185 75.9714 120.164C76.0362 120.222 76.0431 120.325 75.9864 120.394C75.9511 120.436 75.8993 120.455 75.8497 120.45Z" fill="#102048"/>
<path d="M73.0205 113.623C73.2589 114.272 72.7023 114.33 72.0255 114.607C71.3487 114.884 70.6833 114.936 70.5697 114.627C70.456 114.318 70.9124 113.842 71.5892 113.565C72.266 113.288 72.836 113.121 73.0205 113.623Z" fill="#102048"/>
<path d="M75.4673 112.794C75.5392 113.356 75.9571 113.163 76.5423 113.076C77.1274 112.988 77.6205 112.745 77.5862 112.477C77.5519 112.208 77.0498 112.062 76.4646 112.15C75.8795 112.237 75.4116 112.359 75.4673 112.794Z" fill="#102048"/>
<path opacity="0.4" d="M71.0783 119.859C71.8076 119.306 71.9754 118.245 71.453 117.489C70.9307 116.734 69.916 116.57 69.1867 117.123C68.4574 117.676 68.2896 118.737 68.812 119.492C69.3343 120.248 70.349 120.412 71.0783 119.859Z" fill="#EB5D60"/>
<path d="M65.7818 119.578C66.6368 118.668 66.5349 117.117 65.5541 116.113C64.5733 115.11 63.0851 115.034 62.2302 115.944C61.3752 116.854 61.4771 118.405 62.4579 119.409C63.4387 120.412 64.9269 120.488 65.7818 119.578Z" fill="#F9B384"/>
<path d="M64.8637 118.73C64.7782 118.72 64.7175 118.639 64.7281 118.55C64.7848 118.072 64.6145 117.605 64.2726 117.298C63.9803 117.036 63.6061 116.938 63.2722 117.036C63.189 117.06 63.1034 117.01 63.081 116.923C63.0586 116.837 63.1077 116.747 63.1909 116.723C63.6252 116.596 64.1062 116.718 64.4772 117.05C64.8978 117.427 65.1072 118.001 65.0377 118.587C65.027 118.676 64.9492 118.74 64.8637 118.73Z" fill="#102048"/>
<path d="M41.2855 127.836L34.9506 133.486L35.1806 133.768L41.5154 128.118L41.2855 127.836Z" fill="#102048"/>
<path d="M77.4117 159.647L77.3505 159.281C81.5702 158.469 85.7001 157.388 89.8309 153.14L90.0797 153.403C85.8761 157.727 81.6888 158.824 77.4117 159.647Z" fill="#102048"/>
<path d="M81.5838 145.624L46.9971 141.516C45.7533 141.369 44.6095 142.389 44.4425 143.795L41.3781 169.601C41.2111 171.007 42.0841 172.267 43.328 172.414L77.9149 176.521C79.1587 176.669 80.3024 175.649 80.4694 174.243L83.5338 148.437C83.7007 147.031 82.8277 145.771 81.5838 145.624Z" fill="#D3DFFF"/>
<path d="M64.4756 157.605C64.6069 157.62 64.699 157.753 64.6814 157.902L64.3579 160.626C64.3403 160.775 64.2196 160.882 64.0882 160.867L60.4365 160.433C60.3052 160.418 60.2131 160.285 60.2307 160.136L60.5542 157.412C60.5719 157.263 60.6926 157.155 60.8239 157.171L64.4756 157.605ZM64.5634 156.865L60.9117 156.432C60.3905 156.37 59.9127 156.772 59.8467 157.328L59.5232 160.052C59.4571 160.608 59.8275 161.111 60.3487 161.172L64.0004 161.606C64.5216 161.668 64.9994 161.266 65.0654 160.71L65.389 157.986C65.455 157.43 65.0846 156.927 64.5634 156.865Z" fill="#1F3C88"/>
<path d="M208.98 219.142L0.445312 194.378L0.357511 195.117L208.892 219.881L208.98 219.142Z" fill="#102048"/>
</svg>
