<svg width="507" height="659" viewBox="0 0 507 659" fill="none" xmlns="http://www.w3.org/2000/svg">
<path d="M215.039 294.248L507 294.248C507 133.003 376.285 0.00018778 215.039 0.000213623L215.039 294.248Z" fill="#FF9B2F"/>
<path d="M156.961 294.248L-135 294.248C-135 133.003 -4.28463 0.00018778 156.961 0.000213623L156.961 294.248Z" fill="#FF9B2F"/>
<path d="M215.039 364.751L507 364.751C507 525.996 376.285 658.999 215.039 658.999L215.039 364.751Z" fill="#FF9B2F"/>
<path d="M156.961 364.751L-135 364.751C-135 525.996 -4.28463 658.999 156.961 658.999L156.961 364.751Z" fill="#FF9B2F"/>
<g opacity="0.4">
<path d="M102.458 557.398H380.621C382.175 555.527 383.645 553.601 385.068 551.706C415.547 511.102 433.832 448.562 392.269 408.721C374.665 391.847 343.756 373.082 317.735 380.742C296.205 387.082 272.487 394.786 256.393 410.542C247.573 419.176 240.799 429.601 231.624 437.891C222.974 445.707 208.269 455.039 196.27 457.013C182.335 459.305 166.372 451.28 152.332 450.387C118.041 448.209 91.9633 480.013 90.7101 510.678C90.1098 525.348 94.9866 539.7 100.633 553.356C101.196 554.714 101.781 556.082 102.458 557.398Z" fill="#09136E"/>
</g>
<g opacity="0.4">
<path d="M-78.9416 386.802C-74.3826 394.597 -68.9744 401.875 -63.5793 409.136C-62.1021 411.124 -60.6044 413.127 -58.9222 414.943H198.151C198.519 414.921 198.889 414.886 199.256 414.868C200.947 414.784 202.697 414.833 204.48 414.943H225.715C226.809 414.644 227.877 414.258 228.918 413.767C232.083 412.272 234.507 409.616 236.694 406.917C256.545 382.414 262.805 347.332 251.68 318.123C239.736 286.766 202.122 258.927 166.186 263.672C149.733 265.845 135.203 274.883 122.19 284.734C111.046 293.171 101.464 299.877 88.1069 292.536C73.5191 284.517 69.2631 271.614 61.4172 258.443C46.2116 232.916 12.7901 219.493 -17.567 224.305C-47.9242 229.115 -74.0693 250.553 -86.4566 277.433C-101.82 310.77 -97.339 355.345 -78.9416 386.802Z" fill="#09136E"/>
</g>
<path opacity="0.2" d="M98.7628 387.437L91.1014 390.456C90.8467 390.556 90.6095 390.679 90.3841 390.816C87.6639 387.12 84.3199 383.981 80.5471 381.476C80.6935 381.255 80.8282 381.026 80.9336 380.779L84.0769 373.46C85.0549 371.183 83.91 368.572 81.5236 367.637L73.8534 364.636C71.4685 363.703 68.7293 364.795 67.7513 367.074L64.6079 374.392C64.5025 374.637 64.4293 374.89 64.3708 375.145C59.964 374.422 55.4005 374.4 50.8634 375.149C50.8048 374.9 50.7302 374.653 50.6248 374.41L47.4609 367.099C46.4756 364.825 43.7364 363.738 41.3514 364.677L33.69 367.696C31.3051 368.636 30.1675 371.251 31.1528 373.525L34.3167 380.836C34.4221 381.079 34.5509 381.305 34.6944 381.52C30.8205 384.116 27.5308 387.308 24.9057 390.907C24.6744 390.767 24.4343 390.64 24.1752 390.538L16.5064 387.539C15.3572 387.089 14.0937 387.09 12.9473 387.543C12.94 387.546 12.9327 387.549 12.9268 387.551C11.7746 388.011 10.8786 388.873 10.4043 389.975L7.26095 397.294C6.28296 399.571 7.4293 402.182 9.81571 403.117L17.4859 406.116C17.745 406.218 18.01 406.285 18.275 406.34C17.5181 410.546 17.4947 414.901 18.2779 419.23C18.0173 419.286 17.7582 419.358 17.5035 419.458L9.84207 422.477C7.45713 423.417 6.31956 426.03 7.3034 428.306L10.4672 435.617C11.4525 437.891 14.1918 438.978 16.5767 438.038L24.2381 435.019C24.4928 434.918 24.73 434.795 24.9555 434.658C27.6757 438.356 31.0211 441.495 34.7939 444C34.6475 444.22 34.5128 444.447 34.406 444.695L31.2626 452.012C30.7883 453.116 30.7927 454.328 31.2758 455.428C31.7575 456.527 32.6608 457.382 33.816 457.835L41.4861 460.834C42.672 461.298 43.9443 461.262 45.0438 460.827C46.1579 460.388 47.0949 459.542 47.5883 458.396L50.7331 451.077C50.84 450.83 50.9102 450.577 50.9673 450.324C55.3756 451.047 59.9391 451.069 64.4762 450.32C64.5347 450.569 64.6109 450.816 64.7148 451.059L67.8786 458.37C68.8639 460.644 71.6032 461.731 73.9881 460.791L81.6495 457.772C84.033 456.832 85.172 454.218 84.1867 451.942L81.0229 444.632C80.9175 444.389 80.7886 444.162 80.6452 443.947C84.5205 441.351 87.8103 438.159 90.4353 434.559C90.6652 434.699 90.9038 434.827 91.1644 434.929L98.8331 437.93C100.019 438.394 101.291 438.358 102.392 437.923C103.506 437.485 104.443 436.638 104.935 435.492L108.08 428.174C109.058 425.896 107.912 423.284 105.525 422.351L97.8566 419.351C97.5989 419.251 97.3339 419.181 97.0675 419.125C97.8244 414.92 97.8478 410.567 97.0631 406.238C97.3237 406.183 97.5828 406.111 97.8376 406.01L105.499 402.991C107.882 402.051 109.021 399.437 108.036 397.161L104.872 389.851C103.887 387.583 101.146 386.498 98.7628 387.437ZM66.0544 432.113C54.8573 436.525 41.9883 431.423 37.3634 420.74C32.7399 410.057 38.0866 397.776 49.2822 393.363C60.4778 388.951 73.3483 394.053 77.9718 404.736C82.5982 415.42 77.25 427.701 66.0544 432.113Z" stroke="black" stroke-width="1.5" stroke-miterlimit="10"/>
<path d="M-59.5488 371.126C-60.0744 371.126 -60.499 370.719 -60.499 370.219V363.068C-60.499 362.566 -60.0744 362.161 -59.5488 362.161C-59.0233 362.161 -58.5987 362.568 -58.5987 363.068V370.219C-58.5987 370.719 -59.0247 371.126 -59.5488 371.126ZM-59.5488 356.823C-60.0744 356.823 -60.499 356.417 -60.499 355.916V348.765C-60.499 348.264 -60.0744 347.858 -59.5488 347.858C-59.0233 347.858 -58.5987 348.265 -58.5987 348.765V355.916C-58.5987 356.418 -59.0247 356.823 -59.5488 356.823ZM-59.5488 342.522C-60.0744 342.522 -60.499 342.115 -60.499 341.615V334.464C-60.499 333.964 -60.0744 333.557 -59.5488 333.557C-59.0233 333.557 -58.5987 333.964 -58.5987 334.464V341.615C-58.5987 342.115 -59.0247 342.522 -59.5488 342.522ZM-59.5488 328.219C-60.0744 328.219 -60.499 327.813 -60.499 327.313V320.161C-60.499 319.66 -60.0744 319.255 -59.5488 319.255C-59.0233 319.255 -58.5987 319.661 -58.5987 320.161V327.313C-58.5987 327.814 -59.0247 328.219 -59.5488 328.219ZM-59.5488 313.918C-60.0744 313.918 -60.499 313.512 -60.499 313.012V305.86C-60.499 305.359 -60.0744 304.954 -59.5488 304.954C-59.0233 304.954 -58.5987 305.36 -58.5987 305.86V313.012C-58.5987 313.512 -59.0247 313.918 -59.5488 313.918ZM-59.5488 299.617C-60.0744 299.617 -60.499 299.211 -60.499 298.71V291.561C-60.499 291.059 -60.0744 290.654 -59.5488 290.654C-59.0233 290.654 -58.5987 291.06 -58.5987 291.561V298.71C-58.5987 299.211 -59.0247 299.617 -59.5488 299.617ZM-59.5488 285.315C-60.0744 285.315 -60.499 284.908 -60.499 284.408V277.257C-60.499 276.755 -60.0744 276.35 -59.5488 276.35C-59.0233 276.35 -58.5987 276.756 -58.5987 277.257V284.408C-58.5987 284.908 -59.0247 285.315 -59.5488 285.315ZM-59.5488 271.013C-60.0744 271.013 -60.499 270.607 -60.499 270.107V262.957C-60.499 262.455 -60.0744 262.05 -59.5488 262.05C-59.0233 262.05 -58.5987 262.457 -58.5987 262.957V270.107C-58.5987 270.607 -59.0247 271.013 -59.5488 271.013ZM-59.5488 256.711C-60.0744 256.711 -60.499 256.304 -60.499 255.804V248.653C-60.499 248.153 -60.0744 247.746 -59.5488 247.746C-59.0233 247.746 -58.5987 248.153 -58.5987 248.653V255.804C-58.5987 256.304 -59.0247 256.711 -59.5488 256.711ZM-59.5166 242.41C-59.5327 242.41 -59.5474 242.41 -59.5635 242.408C-60.0876 242.384 -60.4932 241.96 -60.4683 241.46C-60.3453 238.988 -59.8914 236.551 -59.1199 234.211C-58.9618 233.733 -58.4245 233.469 -57.9281 233.618C-57.4274 233.769 -57.1478 234.278 -57.3059 234.755C-58.0292 236.946 -58.4537 239.23 -58.5694 241.545C-58.5914 242.032 -59.0115 242.41 -59.5166 242.41ZM-55.0703 228.923C-55.2431 228.923 -55.4187 228.878 -55.5769 228.783C-56.0205 228.516 -56.1537 227.956 -55.8726 227.532C-54.4964 225.451 -52.842 223.543 -50.9548 221.86C-50.5727 221.519 -49.971 221.537 -49.6123 221.903C-49.2536 222.269 -49.2741 222.843 -49.6577 223.185C-51.4263 224.763 -52.9767 226.552 -54.2651 228.501C-54.4466 228.773 -54.7555 228.923 -55.0703 228.923ZM-44.2407 219.264C-44.5789 219.264 -44.9068 219.092 -45.0781 218.789C-45.3285 218.349 -45.1557 217.799 -44.6945 217.56C-42.4209 216.388 -39.9964 215.5 -37.4885 214.922C-36.9805 214.806 -36.4651 215.104 -36.3421 215.591C-36.2191 216.077 -36.5324 216.568 -37.0434 216.685C-39.3932 217.226 -41.6625 218.057 -43.7912 219.155C-43.9332 219.229 -44.0884 219.264 -44.2407 219.264ZM157.515 215.936H150.02C149.495 215.936 149.07 215.53 149.07 215.03C149.07 214.528 149.495 214.123 150.02 214.123H157.515C158.04 214.123 158.465 214.53 158.465 215.03C158.465 215.531 158.04 215.936 157.515 215.936ZM142.527 215.936H135.033C134.507 215.936 134.083 215.53 134.083 215.03C134.083 214.528 134.507 214.123 135.033 214.123H142.527C143.053 214.123 143.477 214.53 143.477 215.03C143.477 215.531 143.053 215.936 142.527 215.936ZM172.48 215.936H164.986C164.46 215.936 164.036 215.53 164.036 215.03C164.036 214.528 164.46 214.123 164.986 214.123H172.48C173.006 214.123 173.431 214.53 173.431 215.03C173.431 215.531 173.006 215.936 172.48 215.936ZM127.538 215.936H120.044C119.518 215.936 119.094 215.53 119.094 215.03C119.094 214.528 119.518 214.123 120.044 214.123H127.538C128.064 214.123 128.488 214.53 128.488 215.03C128.488 215.531 128.064 215.936 127.538 215.936ZM112.551 215.936H105.056C104.531 215.936 104.106 215.53 104.106 215.03C104.106 214.528 104.531 214.123 105.056 214.123H112.551C113.076 214.123 113.501 214.53 113.501 215.03C113.501 215.531 113.076 215.936 112.551 215.936ZM97.5617 215.936H90.0687C89.5431 215.936 89.1185 215.53 89.1185 215.03C89.1185 214.528 89.5431 214.123 90.0687 214.123H97.5617C98.0873 214.123 98.5119 214.53 98.5119 215.03C98.5119 215.531 98.0873 215.936 97.5617 215.936ZM82.5742 215.936H75.0797C74.5541 215.936 74.1295 215.53 74.1295 215.03C74.1295 214.528 74.5541 214.123 75.0797 214.123H82.5742C83.0998 214.123 83.5244 214.53 83.5244 215.03C83.5244 215.531 83.0998 215.936 82.5742 215.936ZM67.5852 215.936H60.0922C59.5666 215.936 59.142 215.53 59.142 215.03C59.142 214.528 59.5666 214.123 60.0922 214.123H67.5852C68.1108 214.123 68.5354 214.53 68.5354 215.03C68.5369 215.531 68.1108 215.936 67.5852 215.936ZM52.5977 215.936H45.1032C44.5776 215.936 44.1531 215.53 44.1531 215.03C44.1531 214.528 44.5776 214.123 45.1032 214.123H52.5977C53.1233 214.123 53.5479 214.53 53.5479 215.03C53.5479 215.531 53.1233 215.936 52.5977 215.936ZM37.6087 215.936H30.1157C29.5901 215.936 29.1655 215.53 29.1655 215.03C29.1655 214.528 29.5901 214.123 30.1157 214.123H37.6087C38.1343 214.123 38.5589 214.53 38.5589 215.03C38.5603 215.531 38.1343 215.936 37.6087 215.936ZM22.6212 215.936H15.1267C14.6011 215.936 14.1765 215.53 14.1765 215.03C14.1765 214.528 14.6011 214.123 15.1267 214.123H22.6212C23.1468 214.123 23.5714 214.53 23.5714 215.03C23.5714 215.531 23.1468 215.936 22.6212 215.936ZM7.63367 215.936H0.139183C-0.38641 215.936 -0.810989 215.53 -0.810989 215.03C-0.810989 214.528 -0.38641 214.123 0.139183 214.123H7.63367C8.15926 214.123 8.58385 214.53 8.58385 215.03C8.58385 215.531 8.15926 215.936 7.63367 215.936ZM-7.35531 215.936H-14.8498C-15.3754 215.936 -15.8 215.53 -15.8 215.03C-15.8 214.528 -15.3754 214.123 -14.8498 214.123H-7.35531C-6.82972 214.123 -6.40514 214.53 -6.40514 215.03C-6.40368 215.531 -6.82972 215.936 -7.35531 215.936ZM-22.3428 215.936H-29.8373C-30.3629 215.936 -30.7875 215.53 -30.7875 215.03C-30.7875 214.528 -30.3629 214.123 -29.8373 214.123H-22.3428C-21.8172 214.123 -21.3927 214.53 -21.3927 215.03C-21.3927 215.531 -21.8172 215.936 -22.3428 215.936Z" fill="#DED7FF"/>
<path d="M450.353 469.142C449.828 469.142 449.403 468.736 449.403 468.236V460.888C449.403 460.386 449.828 459.981 450.353 459.981C450.879 459.981 451.303 460.387 451.303 460.888V468.236C451.305 468.737 450.879 469.142 450.353 469.142ZM450.353 454.447C449.828 454.447 449.403 454.041 449.403 453.541V446.192C449.403 445.692 449.828 445.286 450.353 445.286C450.879 445.286 451.303 445.692 451.303 446.192V453.541C451.305 454.041 450.879 454.447 450.353 454.447ZM450.353 439.752C449.828 439.752 449.403 439.346 449.403 438.846V431.497C449.403 430.996 449.828 430.591 450.353 430.591C450.879 430.591 451.303 430.997 451.303 431.497V438.846C451.305 439.346 450.879 439.752 450.353 439.752ZM450.353 425.057C449.828 425.057 449.403 424.651 449.403 424.15V416.802C449.403 416.301 449.828 415.896 450.353 415.896C450.879 415.896 451.303 416.302 451.303 416.802V424.15C451.305 424.651 450.879 425.057 450.353 425.057ZM450.353 395.665C449.828 395.665 449.403 395.259 449.403 394.759V387.411C449.403 386.909 449.828 386.504 450.353 386.504C450.879 386.504 451.303 386.91 451.303 387.411V394.759C451.305 395.259 450.879 395.665 450.353 395.665ZM450.353 380.969C449.828 380.969 449.403 380.562 449.403 380.062V372.714C449.403 372.213 449.828 371.807 450.353 371.807C450.879 371.807 451.303 372.214 451.303 372.714V380.062C451.305 380.564 450.879 380.969 450.353 380.969ZM450.353 366.274C449.828 366.274 449.403 365.867 449.403 365.367V358.019C449.403 357.517 449.828 357.112 450.353 357.112C450.879 357.112 451.303 357.519 451.303 358.019V365.367C451.305 365.867 450.879 366.274 450.353 366.274ZM450.353 351.579C449.828 351.579 449.403 351.172 449.403 350.672V343.324C449.403 342.824 449.828 342.417 450.353 342.417C450.879 342.417 451.303 342.824 451.303 343.324V350.672C451.305 351.172 450.879 351.579 450.353 351.579ZM450.353 336.884C449.828 336.884 449.403 336.477 449.403 335.977V328.629C449.403 328.127 449.828 327.722 450.353 327.722C450.879 327.722 451.303 328.129 451.303 328.629V335.977C451.305 336.477 450.879 336.884 450.353 336.884ZM450.353 322.187C449.828 322.187 449.403 321.781 449.403 321.28V313.932C449.403 313.431 449.828 313.026 450.353 313.026C450.879 313.026 451.303 313.432 451.303 313.932V321.28C451.305 321.782 450.879 322.187 450.353 322.187ZM450.353 307.492C449.828 307.492 449.403 307.085 449.403 306.585V303.814C449.403 302.334 449.277 300.852 449.027 299.408C448.942 298.913 449.292 298.446 449.809 298.365C450.337 298.287 450.817 298.618 450.901 299.113C451.167 300.655 451.303 302.236 451.303 303.814V306.585C451.305 307.085 450.879 307.492 450.353 307.492ZM447.725 293.16C447.364 293.16 447.02 292.963 446.86 292.631C445.826 290.478 444.497 288.459 442.904 286.632C442.569 286.248 442.623 285.675 443.027 285.355C443.433 285.034 444.031 285.088 444.365 285.472C446.065 287.423 447.485 289.577 448.588 291.875C448.806 292.33 448.596 292.868 448.119 293.076C447.992 293.134 447.857 293.16 447.725 293.16ZM437.998 281.987C437.809 281.987 437.617 281.932 437.451 281.821C435.418 280.452 433.206 279.345 430.875 278.533C430.382 278.362 430.129 277.842 430.309 277.371C430.489 276.9 431.035 276.659 431.527 276.83C434.016 277.697 436.377 278.877 438.549 280.34C438.978 280.629 439.08 281.195 438.777 281.604C438.59 281.853 438.297 281.987 437.998 281.987ZM423.707 277.014C423.681 277.014 423.653 277.012 423.627 277.011C422.828 276.946 422.015 276.913 421.213 276.913H416.011C415.485 276.913 415.061 276.506 415.061 276.006C415.061 275.505 415.485 275.1 416.011 275.1H421.213C422.069 275.1 422.934 275.135 423.787 275.203C424.311 275.245 424.699 275.685 424.653 276.184C424.611 276.656 424.196 277.014 423.707 277.014ZM408.309 276.913H400.608C400.082 276.913 399.657 276.506 399.657 276.006C399.657 275.505 400.082 275.1 400.608 275.1H408.309C408.834 275.1 409.259 275.506 409.259 276.006C409.26 276.506 408.834 276.913 408.309 276.913ZM392.907 276.913H385.206C384.68 276.913 384.256 276.506 384.256 276.006C384.256 275.505 384.68 275.1 385.206 275.1H392.907C393.432 275.1 393.857 275.506 393.857 276.006C393.858 276.506 393.432 276.913 392.907 276.913Z" fill="#DED7FF"/>
<path d="M284.258 598.914H282.452C281.926 598.914 281.501 598.508 281.501 598.007C281.501 597.507 281.926 597.101 282.452 597.101H284.258C286.131 597.101 288.003 596.925 289.82 596.577C290.336 596.479 290.836 596.796 290.939 597.288C291.041 597.78 290.707 598.258 290.194 598.355C288.254 598.724 286.257 598.913 284.258 598.914ZM274.858 598.914H267.264C266.738 598.914 266.313 598.508 266.313 598.007C266.313 597.507 266.738 597.101 267.264 597.101H274.858C275.383 597.101 275.808 597.507 275.808 598.007C275.808 598.508 275.383 598.914 274.858 598.914ZM259.669 598.914H252.075C251.55 598.914 251.125 598.508 251.125 598.007C251.125 597.507 251.55 597.101 252.075 597.101H259.669C260.195 597.101 260.62 597.507 260.62 598.007C260.62 598.508 260.194 598.914 259.669 598.914ZM244.48 598.914H236.886C236.36 598.914 235.936 598.508 235.936 598.007C235.936 597.507 236.36 597.101 236.886 597.101H244.48C245.006 597.101 245.43 597.507 245.43 598.007C245.432 598.508 245.006 598.914 244.48 598.914ZM229.292 598.914H221.698C221.172 598.914 220.748 598.508 220.748 598.007C220.748 597.507 221.172 597.101 221.698 597.101H229.292C229.817 597.101 230.242 597.507 230.242 598.007C230.242 598.508 229.816 598.914 229.292 598.914ZM214.104 598.914H206.51C205.984 598.914 205.56 598.508 205.56 598.007C205.56 597.507 205.984 597.101 206.51 597.101H214.104C214.629 597.101 215.054 597.507 215.054 598.007C215.054 598.508 214.628 598.914 214.104 598.914ZM198.914 598.914H191.32C190.795 598.914 190.37 598.508 190.37 598.007C190.37 597.507 190.795 597.101 191.32 597.101H198.914C199.44 597.101 199.864 597.507 199.864 598.007C199.864 598.508 199.44 598.914 198.914 598.914ZM183.726 598.914H176.132C175.606 598.914 175.182 598.508 175.182 598.007C175.182 597.507 175.606 597.101 176.132 597.101H183.726C184.252 597.101 184.676 597.507 184.676 598.007C184.676 598.508 184.252 598.914 183.726 598.914ZM168.536 598.914H160.942C160.417 598.914 159.992 598.508 159.992 598.007C159.992 597.507 160.417 597.101 160.942 597.101H168.536C169.062 597.101 169.487 597.507 169.487 598.007C169.487 598.508 169.062 598.914 168.536 598.914ZM153.348 598.914H145.754C145.229 598.914 144.804 598.508 144.804 598.007C144.804 597.507 145.229 597.101 145.754 597.101H153.348C153.874 597.101 154.299 597.507 154.299 598.007C154.299 598.508 153.874 598.914 153.348 598.914ZM138.16 598.914H130.566C130.041 598.914 129.616 598.508 129.616 598.007C129.616 597.507 130.041 597.101 130.566 597.101H138.16C138.686 597.101 139.11 597.507 139.11 598.007C139.11 598.508 138.686 598.914 138.16 598.914ZM122.971 598.914H115.377C114.851 598.914 114.427 598.508 114.427 598.007C114.427 597.507 114.851 597.101 115.377 597.101H122.971C123.496 597.101 123.921 597.507 123.921 598.007C123.921 598.508 123.496 598.914 122.971 598.914ZM107.783 598.914H100.189C99.663 598.914 99.2384 598.508 99.2384 598.007C99.2384 597.507 99.663 597.101 100.189 597.101H107.783C108.308 597.101 108.733 597.507 108.733 598.007C108.733 598.508 108.308 598.914 107.783 598.914ZM92.5931 598.914H84.999C84.4734 598.914 84.0489 598.508 84.0489 598.007C84.0489 597.507 84.4734 597.101 84.999 597.101H92.5931C93.1187 597.101 93.5433 597.507 93.5433 598.007C93.5447 598.508 93.1187 598.914 92.5931 598.914ZM77.405 598.914H69.8109C69.2853 598.914 68.8608 598.508 68.8608 598.007C68.8608 597.507 69.2853 597.101 69.8109 597.101H77.405C77.9306 597.101 78.3552 597.507 78.3552 598.007C78.3566 598.508 77.9306 598.914 77.405 598.914ZM62.2169 598.914H54.6228C54.0972 598.914 53.6727 598.508 53.6727 598.007C53.6727 597.507 54.0972 597.101 54.6228 597.101H62.2169C62.7425 597.101 63.1671 597.507 63.1671 598.007C63.1671 598.508 62.741 598.914 62.2169 598.914ZM47.0288 598.914H39.4347C38.9091 598.914 38.4846 598.508 38.4846 598.007C38.4846 597.507 38.9091 597.101 39.4347 597.101H47.0288C47.5544 597.101 47.979 597.507 47.979 598.007C47.979 598.508 47.5529 598.914 47.0288 598.914ZM31.8392 598.914H24.2452C23.7196 598.914 23.295 598.508 23.295 598.007C23.295 597.507 23.7196 597.101 24.2452 597.101H31.8392C32.3648 597.101 32.7894 597.507 32.7894 598.007C32.7894 598.508 32.3648 598.914 31.8392 598.914ZM16.6511 598.914H13.0188C11.6558 598.914 10.284 598.826 8.94289 598.653C8.42168 598.586 8.05713 598.129 8.1274 597.633C8.19914 597.136 8.6896 596.791 9.19617 596.856C10.4553 597.018 11.7392 597.101 13.0173 597.101H16.6497C17.1753 597.101 17.5998 597.507 17.5998 598.007C17.6013 598.508 17.1767 598.914 16.6511 598.914ZM1.76315 596.764C1.64017 596.764 1.51573 596.74 1.39568 596.693C-1.01269 595.73 -3.2849 594.467 -5.36093 592.938C-5.77526 592.632 -5.85285 592.062 -5.53222 591.665C-5.21159 591.27 -4.61719 591.194 -4.19847 591.502C-2.25567 592.934 -0.125475 594.117 2.13063 595.019C2.61377 595.213 2.84216 595.744 2.63866 596.207C2.48786 596.555 2.13503 596.764 1.76315 596.764ZM297.173 596.042C296.823 596.042 296.486 595.856 296.319 595.538C296.086 595.089 296.28 594.544 296.75 594.322C298.941 593.287 300.989 591.979 302.834 590.434C303.227 590.105 303.828 590.141 304.175 590.518C304.521 590.895 304.481 591.468 304.087 591.798C302.118 593.446 299.932 594.842 297.591 595.947C297.458 596.011 297.313 596.042 297.173 596.042ZM-10.125 588.009C-10.4104 588.009 -10.693 587.888 -10.8804 587.654C-12.4748 585.669 -13.7895 583.497 -14.7909 581.196C-14.9929 580.734 -14.7616 580.203 -14.277 580.01C-13.788 579.818 -13.2361 580.038 -13.034 580.5C-12.097 582.656 -10.8643 584.691 -9.37097 586.551C-9.05181 586.949 -9.13087 587.517 -9.54666 587.822C-9.71942 587.949 -9.92292 588.009 -10.125 588.009ZM308.463 586.598C308.282 586.598 308.097 586.548 307.935 586.444C307.5 586.165 307.383 585.602 307.676 585.186C309.045 583.241 310.141 581.134 310.935 578.927C311.105 578.454 311.643 578.199 312.143 578.363C312.639 578.525 312.904 579.04 312.734 579.514C311.886 581.872 310.717 584.12 309.254 586.196C309.07 586.457 308.769 586.598 308.463 586.598ZM313.333 573.047C313.311 573.047 313.289 573.046 313.266 573.044C312.741 573.009 312.346 572.576 312.383 572.078C312.428 571.46 312.45 570.827 312.45 570.199V564.897C312.45 564.396 312.875 563.99 313.4 563.99C313.926 563.99 314.35 564.397 314.35 564.897V570.199C314.35 570.869 314.326 571.544 314.279 572.203C314.245 572.68 313.828 573.047 313.333 573.047ZM313.402 558.557C312.876 558.557 312.452 558.151 312.452 557.651V550.404C312.452 549.903 312.876 549.498 313.402 549.498C313.927 549.498 314.352 549.904 314.352 550.404V557.651C314.352 558.151 313.927 558.557 313.402 558.557ZM313.402 544.063C312.876 544.063 312.452 543.657 312.452 543.157V535.911C312.452 535.409 312.876 535.004 313.402 535.004C313.927 535.004 314.352 535.41 314.352 535.911V543.157C314.352 543.657 313.927 544.063 313.402 544.063Z" fill="#DED7FF"/>
<g opacity="0.2">
<path d="M353.175 314.89C393.644 276.274 393.644 213.665 353.175 175.05C312.706 136.434 247.092 136.434 206.623 175.05C166.154 213.665 166.154 276.274 206.623 314.89C247.092 353.506 312.706 353.506 353.175 314.89Z" fill="#040404"/>
<path d="M363.93 176.966C363.422 176.276 362.908 175.593 362.384 174.911C343.363 150.006 313.506 133.928 280.001 133.928C246.494 133.928 216.639 150.006 197.616 174.911C197.092 175.593 196.576 176.276 196.07 176.966C183.453 194.34 176 215.758 176 238.898C176 262.038 183.453 283.456 196.07 300.83C196.578 301.521 197.084 302.203 197.609 302.877C216.639 327.792 246.495 343.87 280.001 343.87C313.506 343.87 343.363 327.792 362.393 302.877C362.916 302.204 363.424 301.521 363.93 300.83C376.547 283.456 384 262.038 384 238.898C384 215.758 376.548 194.34 363.93 176.966ZM381.449 237.618H337.321C337.211 220.373 334.853 203.783 330.5 189.011C341.537 186.214 351.948 182.529 361.574 178.077C373.835 194.776 381.186 215.347 381.449 237.618ZM281.267 195.169C297.619 195.074 313.337 193.13 328.016 189.616C332.232 203.895 334.675 220.244 334.784 237.618H281.267V195.169ZM281.267 192.609V136.52C300.863 137.347 317.951 157.511 327.272 187.176C312.831 190.613 297.358 192.516 281.267 192.609ZM278.733 192.609C262.642 192.516 247.169 190.613 232.728 187.176C242.049 157.511 259.135 137.348 278.733 136.52V192.609ZM278.733 195.169V237.618H225.216C225.325 220.244 227.768 203.893 231.985 189.616C246.663 193.13 262.381 195.074 278.733 195.169ZM278.733 240.177V282.628C262.381 282.722 246.663 284.666 231.985 288.18C227.768 273.902 225.325 257.551 225.216 240.177H278.733ZM278.733 285.186V341.275C259.135 340.448 242.049 320.284 232.728 290.619C247.169 287.182 262.642 285.28 278.733 285.186ZM281.267 285.186C297.358 285.28 312.829 287.182 327.272 290.619C317.951 320.284 300.865 340.447 281.267 341.275V285.186ZM281.267 282.628V240.177H334.784C334.675 257.551 332.232 273.903 328.016 288.181C313.337 284.666 297.619 282.722 281.267 282.628ZM360.026 176.011C350.647 180.31 340.497 183.866 329.756 186.571C327.313 178.775 324.298 171.516 320.757 164.966C313.598 151.737 304.852 142.44 295.278 137.646C321.476 141.656 344.419 155.815 360.026 176.011ZM264.722 137.646C255.148 142.44 246.402 151.737 239.244 164.966C235.703 171.507 232.687 178.775 230.244 186.571C219.504 183.868 209.355 180.31 199.974 176.011C215.581 155.815 238.525 141.656 264.722 137.646ZM198.428 178.075C208.053 182.527 218.464 186.212 229.501 189.01C225.148 203.783 222.791 220.371 222.681 237.617H178.552C178.814 215.347 186.165 194.776 198.428 178.075ZM178.551 240.178C178.551 240.177 178.551 240.177 178.551 240.178L222.679 240.177C222.789 257.422 225.147 274.014 229.5 288.787C218.463 291.584 208.052 295.26 198.426 299.721C186.165 283.02 178.814 262.447 178.551 240.178ZM199.974 301.776C209.353 297.486 219.503 293.93 230.244 291.225C232.687 299.021 235.704 306.28 239.244 312.83C246.402 326.059 255.148 335.356 264.722 340.15C238.517 336.14 215.574 321.982 199.974 301.776ZM295.279 340.15C304.853 335.356 313.6 326.059 320.758 312.83C324.299 306.28 327.315 299.021 329.757 291.225C340.497 293.93 350.647 297.486 360.028 301.776C344.427 321.982 321.483 336.14 295.279 340.15ZM361.572 299.721C351.947 295.26 341.536 291.584 330.499 288.787C334.85 274.014 337.208 257.424 337.319 240.178L381.448 240.177C381.186 262.446 373.835 283.02 361.572 299.721Z" fill="white"/>
</g>
<g opacity="0.2">
<path d="M125.042 193.89C125.042 197.795 121.726 200.959 117.634 200.959C113.542 200.959 110.226 197.795 110.226 193.89C110.226 189.987 113.542 186.821 117.634 186.821C121.726 186.821 125.042 189.987 125.042 193.89Z" fill="black"/>
<path d="M133.242 187.142C132.646 187.142 132.068 186.843 131.755 186.312C128.888 181.45 123.478 178.43 117.634 178.43C111.789 178.43 106.38 181.45 103.513 186.312C103.052 187.096 102.014 187.374 101.193 186.932C100.373 186.492 100.081 185.5 100.543 184.718C104.011 178.834 110.561 175.178 117.635 175.178C124.71 175.178 131.258 178.834 134.727 184.718C135.188 185.5 134.897 186.492 134.077 186.932C133.812 187.073 133.525 187.142 133.242 187.142Z" fill="black"/>
<path d="M93.7508 181.902C93.4683 181.902 93.1813 181.835 92.9163 181.692C92.0964 181.252 91.8051 180.26 92.2663 179.476C97.4139 170.742 107.135 165.316 117.634 165.316C128.133 165.316 137.854 170.742 143.003 179.476C143.464 180.259 143.173 181.251 142.353 181.691C141.532 182.131 140.494 181.854 140.033 181.07C135.487 173.359 126.904 168.569 117.635 168.569C108.366 168.569 99.7842 173.359 95.2398 181.07C94.9235 181.603 94.3452 181.902 93.7508 181.902Z" fill="black"/>
<path d="M147.462 175.237C146.867 175.237 146.287 174.938 145.974 174.407C140.222 164.649 129.361 158.587 117.633 158.587C105.904 158.587 95.0455 164.649 89.2932 174.407C88.8321 175.191 87.794 175.469 86.9727 175.027C86.1528 174.587 85.8615 173.595 86.3227 172.813C92.6767 162.032 104.675 155.335 117.633 155.335C130.591 155.335 142.589 162.032 148.945 172.813C149.406 173.595 149.114 174.587 148.295 175.027C148.031 175.17 147.744 175.237 147.462 175.237Z" fill="black"/>
<path d="M152.9 168.571C152.304 168.571 151.726 168.272 151.413 167.741C144.557 156.111 131.613 148.886 117.633 148.886C103.654 148.886 90.7102 156.111 83.854 167.741C83.3914 168.525 82.3548 168.802 81.5335 168.362C80.7136 167.922 80.4223 166.93 80.8835 166.147C88.3428 153.493 102.424 145.634 117.633 145.634C132.843 145.634 146.925 153.493 154.383 166.147C154.845 166.93 154.553 167.922 153.733 168.362C153.47 168.504 153.183 168.571 152.9 168.571Z" fill="black"/>
</g>
<path d="M19.7187 232.282C17.6149 236.644 16.3602 241.413 13.6722 245.506C11.0618 249.481 7.1264 251.864 2.78109 253.838C-5.05307 257.396 -12.6544 262.005 -16.9749 269.473C-22.0332 278.213 -18.6571 287.45 -17.1696 296.61C-16.2882 302.031 -17.0407 307.162 -18.0378 312.512C-18.8972 317.118 -19.5706 321.691 -18.8313 326.36C-18.1285 330.796 -16.581 335.476 -12.915 338.512C-8.83617 341.89 -2.93897 343.199 2.3287 343.413C3.03583 343.441 3.03437 342.393 2.3287 342.365C-2.78232 342.157 -8.72052 340.869 -12.5534 337.411C-15.9134 334.38 -17.2399 329.858 -17.8387 325.616C-19.1739 316.171 -14.5899 307.063 -15.9222 297.569C-17.2501 288.105 -21.2294 278.512 -15.7451 269.531C-13.4787 265.82 -10.186 262.734 -6.62692 260.146C-3.24349 257.684 0.498631 256.08 4.292 254.306C8.26837 252.445 11.8114 250.089 14.2959 246.519C17.2123 242.33 18.4831 237.341 20.6674 232.812C20.9603 232.203 20.013 231.669 19.7187 232.282Z" fill="#5D3317"/>
<path d="M89.2069 235.79C89.3196 241.979 90.7705 247.996 93.1979 253.723C95.7058 259.644 99.2766 265.141 101.217 271.281C103.057 277.109 102.918 283.067 99.6719 288.415C96.7219 293.275 91.829 296.889 86.0753 298.154C85.3872 298.305 85.6785 299.316 86.3666 299.164C94.7893 297.311 101.606 290.467 103.216 282.365C105.25 272.133 98.4099 262.991 94.4994 254.011C91.9696 248.201 90.4191 242.096 90.3034 235.788C90.2917 235.117 89.1937 235.115 89.2069 235.79Z" fill="#5F361A"/>
<path d="M91.8449 386.849C88.1628 376.542 85.6343 365.943 86.5728 355.303C87.5303 344.436 86.0399 332.611 84.4543 321.835C83.0649 312.401 83.062 302.914 81.8951 293.372C81.8337 292.868 81.8688 292.206 82.3739 292.052C82.7077 291.95 83.0532 292.148 83.3387 292.343C91.5652 297.907 95.9925 307.24 100.159 315.733C104.604 324.792 108.212 334.201 111.536 343.68C115.148 357.252 120.448 370.937 125.514 384.077C126.705 387.17 141.35 411.5 137.069 411.697C126.079 412.203 115.088 412.709 104.096 413.214C103.749 413.23 103.386 413.244 103.07 413.104C102.569 412.883 102.323 412.351 102.121 411.862C98.7845 403.825 94.9135 395.439 91.8449 386.849Z" fill="#2B0048"/>
<path d="M-5.21132 262.354C-13.1567 266.757 -17.5796 276.393 -15.4231 284.942C-13.6823 291.848 -11.0178 297.438 -13.1567 304.481C-15.3718 311.773 -19.3848 319.046 -18.1814 326.862C-17.1946 333.263 -12.6238 338.839 -6.86862 342.26C-1.11342 345.68 5.71932 347.138 12.4862 347.549C22.8312 348.176 34.0268 346.107 41.2695 339.03C50.7141 329.802 51.2646 314.439 61.1806 305.671C70.0045 297.87 83.8984 299.655 91.8848 291.269C97.4701 285.405 99.3559 276.141 97.3164 268.685C96.069 264.128 93.9198 259.846 92.3094 255.394C90.2055 249.58 90.4353 244.409 90.7135 238.422C90.8672 235.091 91.0225 231.761 91.1762 228.431C91.1996 227.916 91.2201 227.386 91.0166 226.909C90.3168 225.273 87.721 225.44 86.4443 224.336C82.2659 220.722 72.2913 219.1 66.8816 218.749C59.5789 218.277 52.6511 215.581 45.2708 215.082C38.2858 214.61 26.4035 217.289 22.7536 223.717C21.9264 225.174 21.5033 226.804 21.0655 228.408C19.6835 233.474 18.2253 238.576 15.9384 243.323C13.9927 247.363 12.6911 252.557 9.17302 255.701C5.52313 258.963 0.189583 259.701 -4.267 261.865C-4.58763 262.019 -4.9024 262.182 -5.21132 262.354Z" fill="#4E2001"/>
<path d="M79.3789 295.813C79.417 298.281 78.2194 300.431 77.8007 302.824C76.404 310.768 76.3849 318.804 74.5593 326.749C74.4831 327.084 74.3792 327.456 74.0556 327.611C73.552 327.855 73.0103 327.375 72.6677 326.948C67.0311 320.001 60.1017 315.893 52.7741 310.886C46.3674 306.514 38.4308 305.045 31.6639 301.055C29.8002 299.957 28.6802 298.279 27.0258 296.974C26.1225 296.266 24.0025 295.468 24.6497 294.416C24.7829 294.198 25.0303 293.972 25.4285 293.728C26.4168 293.13 26.9599 293.31 27.6627 292.24C28.3186 291.251 28.6509 290.118 29.5059 289.256C31.6639 287.097 35.4178 287.677 38.0985 286.472C39.3341 285.918 40.4087 285.266 41.6912 284.766C43.2021 284.186 44.4949 283.205 45.265 281.818C45.9121 280.629 46.1493 279.278 46.3294 277.954C46.4904 276.767 46.6149 275.578 46.6998 274.381C46.8608 272.349 46.9282 270.298 46.9369 268.259C46.956 265.628 46.8989 263.008 46.8315 260.387C48.7699 260.885 49.969 262.119 52.0026 262.41C54.1123 262.718 56.2513 262.6 58.38 262.654C63.3885 262.771 68.4264 262.681 73.3968 263.389C73.7204 263.443 74.0717 263.498 74.3001 263.724C74.8228 264.223 74.8697 265.321 74.776 266.337C74.7189 266.971 74.6134 267.579 74.5388 267.968C74.2533 269.483 74.1684 270.817 74.1962 272.386C74.3016 277.483 73.4363 283.215 75.7261 288.075C75.8872 288.411 76.0585 288.728 76.2298 289.028C77.5738 291.315 79.3409 292.821 79.3789 295.813Z" fill="#FFC19D"/>
<path d="M76.2329 289.029C74.4745 289.039 72.6884 288.775 70.9579 288.421C66.1675 287.468 61.4913 285.909 57.2807 283.541C54.3145 281.872 51.5782 279.786 49.2869 277.329C48.5081 276.495 47.3573 275.425 46.7014 274.381C46.8625 272.35 46.9298 270.299 46.9386 268.26C48.0879 266.645 50.0468 265.411 52.0613 264.668C54.6278 263.725 57.3846 263.325 60.14 263.19C63.724 263.008 67.3826 263.263 70.7661 264.414C72.173 264.894 73.5419 265.538 74.7776 266.336C74.7205 266.97 74.6151 267.578 74.5404 267.968C74.2549 269.482 74.17 270.816 74.1978 272.385C74.3032 277.483 73.438 283.215 75.7278 288.075C75.8917 288.413 76.0616 288.73 76.2329 289.029Z" fill="#A67258"/>
<path d="M86.248 238.487C86.2085 238.754 86.1704 239.021 86.1338 239.286C85.6697 242.677 86.2231 246.019 85.6507 249.373C85.0929 252.638 84.6668 255.799 83.5878 258.967C81.5132 265.06 78.0215 270.927 72.8548 275.109C70.6295 276.909 67.9166 278.626 65.0133 279.198C62.5332 279.685 60.6095 278.534 58.3168 277.735C52.9027 275.848 48.3612 272.449 44.7626 268.179C40.672 263.328 38.2812 257.77 35.2579 252.333C32.403 247.2 34.0896 241.082 32.8891 235.459C30.6505 224.977 32.3137 215.011 41.8564 208.439C47.0274 204.878 53.3097 203.023 59.6227 202.169C64.4863 201.511 69.5973 201.442 74.1461 203.213C78.2089 204.794 81.5981 207.805 83.7562 211.45C87.2684 217.38 86.8439 224.183 87.0327 230.742C87.103 233.249 86.6257 235.908 86.248 238.487Z" fill="#FFC19D"/>
<path d="M46.6237 272.157C50.5489 275.725 55.0728 279.142 60.4927 280.258C63.1661 280.809 65.7809 280.715 68.3064 279.667C70.8377 278.618 72.9752 276.892 75.0513 275.19C76.1244 274.31 74.5652 272.833 73.4979 273.708C71.7045 275.179 69.8685 276.658 67.7164 277.636C65.3153 278.727 62.7664 278.691 60.238 278.044C55.5369 276.841 51.6366 273.82 48.1771 270.675C47.1522 269.746 45.5974 271.225 46.6237 272.157Z" fill="#D67F5C"/>
<path d="M24.9322 234.386C24.8605 234.494 24.7931 234.604 24.7272 234.717C23.3217 237.152 23.2837 240.417 24.1533 243.232C25.023 246.046 26.7008 248.468 28.5513 250.6C30.6845 253.057 34.4544 254.452 34.9083 250.207C35.2099 247.387 34.7326 244.325 34.2421 241.533C33.5423 237.552 31.8118 233.425 27.7944 233.084C27.0756 233.023 26.3231 233.107 25.7199 233.534C25.411 233.752 25.1547 234.054 24.9322 234.386Z" fill="#FFC19D"/>
<path d="M15.379 408.314C15.5664 408.367 15.7728 408.391 15.9675 408.408C22.891 409.006 29.857 408.327 36.8083 408.254C54.4736 408.068 71.9588 412.905 89.6504 410.573C89.8803 407.599 89.5787 404.602 89.6812 401.611C89.813 397.778 90.6738 394.005 91.1453 390.205C93.0295 374.783 97.5622 359.895 99.5972 344.503C99.8681 342.455 100.038 340.403 100.032 338.344C100.007 330.497 97.407 322.858 94.1846 315.638C92.9709 312.92 91.7162 310.198 90.3195 307.561C89.2756 305.591 88.5919 303.432 87.4309 301.477C85.7795 298.694 83.6141 296.287 81.8031 293.616C81.1179 292.607 80.6085 292.043 79.5617 291.305C78.8531 290.806 75.9996 289.335 75.8049 288.549C76.5164 291.417 76.1636 294.046 75.941 296.914C75.7083 299.918 75.4081 302.917 74.9762 305.901C74.1974 311.289 74.0832 316.793 73.4156 322.219C73.4273 322.123 72.9822 321.737 72.9134 321.662C67.3368 315.472 61.7617 309.283 56.1851 303.093C50.8896 297.214 45.8664 291.604 42.1653 284.636C40.489 284.865 38.6823 285.154 37.4964 286.308C37.2314 286.566 37.0074 286.86 36.7849 287.152C35.479 288.863 34.3619 290.801 32.4381 291.964C28.9815 294.053 25.2716 295.76 21.4021 297.03C19.5881 297.625 17.6512 298.178 16.3409 299.514C14.2692 301.626 15.805 305.609 16.0158 308.185C16.3438 312.189 16.5575 316.204 16.7215 320.216C17.0539 328.359 17.108 336.512 16.9821 344.66C16.6629 365.427 15.7289 386.268 14.6616 406.963C14.6425 407.338 14.6367 407.751 14.8929 408.035C15.0203 408.176 15.1916 408.26 15.379 408.314Z" fill="white"/>
<path d="M78.818 202.551C78.291 202.472 77.7668 202.52 77.2939 202.764C70.5315 195.261 59.1572 195.057 49.3715 196.102C39.3354 197.173 30.1426 203.928 24.506 211.336C20.4462 216.674 18.7801 224.625 17.3863 230.942C15.7612 238.304 14.9648 245.787 14.1786 253.249C14.1244 253.768 14.0746 254.318 14.325 254.783C14.5636 255.226 15.0336 255.519 15.4904 255.782C17.8358 257.129 20.3086 257.943 22.8326 258.928C24.8969 259.734 27.4078 260.114 29.3154 261.207C31.7531 262.602 34.5919 263.811 36.6533 265.662C38.2374 267.084 39.6385 268.257 42.0176 268.429C42.0059 266.887 41.0864 265.345 40.4452 263.946C37.905 258.404 37.0676 252.897 36.9593 246.964C36.8846 242.946 37.2403 239.411 40.0499 236.207C40.8302 235.317 42.3572 234.471 42.9487 233.528C42.4612 234.305 41.9736 235.081 41.4876 235.858C42.0922 236.304 42.9707 236.189 43.7334 236.04C49.0816 234.983 54.3244 233.183 59.3915 231.362C59.0547 232.255 58.5936 233.127 58.1851 234C61.6827 232.836 65.1218 231.221 67.5477 228.63C69.6867 226.346 70.855 223.493 71.7086 220.631C72.4421 218.172 72.4465 215.363 74.0891 213.245C74.7011 212.455 75.6264 211.769 76.6805 211.775C77.3335 211.778 77.9498 212.045 78.5047 212.356C81.1298 213.826 83.4034 216.558 83.6187 219.431C83.8456 222.451 84.4327 225.146 85.0973 228.135C85.9245 231.863 86.4619 235.646 86.702 239.447C86.8264 241.404 86.8718 243.367 86.8381 245.33C86.8162 246.636 86.6244 247.76 86.4955 249.03C86.3916 250.047 87.7195 253.234 87.3125 253.902C91.4821 247.068 93.3429 239.109 92.747 231.334C92.4776 227.82 91.7647 224.182 91.1219 220.748C90.3958 216.874 88.5906 212.975 86.5043 209.573C85.0446 207.193 83.2746 204.895 80.8179 203.352C80.2264 202.978 79.5208 202.654 78.818 202.551Z" fill="#4E2001"/>
<path d="M15.271 395.248C15.1934 398.977 14.6239 402.272 14.9752 405.98C15.2432 408.807 15.0689 408.978 18.2577 409.428C20.9164 409.803 23.5839 410.133 26.2543 410.429C34.9581 411.396 43.7132 411.967 52.4741 412.135C55.3509 412.189 58.891 413.415 61.6625 412.775C64.5935 412.099 64.2948 410.653 64.248 408.161C63.964 393.227 64.2158 378.182 64.4691 363.245C64.5071 361.026 64.5423 358.786 64.0972 356.605C63.7268 354.792 63.0284 353.057 62.352 351.326C58.4591 341.364 55.0171 331.246 51.8343 321.059C48.6675 310.92 44.9415 300.919 41.4673 290.845C40.8407 289.052 40.0384 287.259 39.8715 285.371C39.8642 285.284 31.9949 286.504 31.2848 286.636C28.7198 287.113 26.1943 287.427 23.6293 287.982C16.8434 289.831 9.772 290.689 4.25983 295.314C4.02851 295.509 3.79134 295.724 3.70935 296.007C3.65079 296.211 3.68007 296.428 3.70935 296.637C4.6156 303.026 5.03578 309.279 5.42375 315.715C5.72095 320.653 6.01816 325.593 6.31536 330.532C6.81168 338.782 9.47772 346.2 11.2756 354.279C14.2857 367.794 15.5565 381.513 15.271 395.248Z" fill="#2B0048"/>
<path d="M100.523 413.215C97.0968 394.08 98.3968 374.689 101.697 355.708C102.997 348.234 103.836 340.567 102.476 333.043C101.319 326.639 98.6223 320.596 95.9489 314.621C92.8495 307.693 90.3899 295.487 82.7739 292.041C81.4695 291.45 80.1225 290.946 78.84 290.309C78.0231 289.902 75.8533 288.982 75.5415 288.079C76.0949 289.676 76.7084 291.253 77.3804 292.807C77.9865 294.206 78.9615 295.654 79.2924 297.129C79.9337 299.987 80.3846 302.995 80.8311 305.904C83.0828 320.579 82.6744 335.703 80.0684 350.312C76.3599 371.095 78.7331 393.571 82.0229 414.325C83.1253 414.213 100.488 413.018 100.523 413.215Z" fill="#2B0048"/>
<path d="M63.2777 252.721C62.676 252.614 62.1064 252.462 61.613 252.265C63.8809 251.632 65.6714 249.779 66.2995 247.615C66.9817 245.259 65.932 242.435 65.3786 240.141C66.4532 241.804 67.4605 243.509 68.396 245.247C69.1485 246.644 70.5628 248.407 70.2993 250.057C70.0899 251.373 68.8089 252.346 67.4561 252.672C66.2526 252.962 64.6773 252.968 63.2777 252.721Z" fill="#A67258"/>
<path d="M61.3123 229.197C62.018 229.054 62.3488 228.41 62.2464 227.734C62.1336 226.996 61.2142 226.665 60.5481 226.514C58.5643 226.065 56.4897 226.403 54.4825 226.742C51.8179 227.192 49.5105 227.807 47.3189 229.364C47.0875 229.528 46.8372 229.73 46.8211 230.004C46.805 230.278 47.0436 230.517 47.3159 230.606C47.5868 230.696 47.884 230.67 48.1695 230.643C50.5735 230.416 52.976 230.19 55.38 229.965C57.3667 229.779 59.3592 229.592 61.3123 229.197Z" fill="#4E2001"/>
<path d="M57.8401 235.377C56.9309 233.756 54.6235 233.232 52.9721 234.291C52.3001 234.722 51.8565 235.422 51.6061 236.156C51.0059 237.912 51.3074 239.812 52.4187 241.342C53.0365 242.193 53.9955 242.925 55.0803 242.902C56.0437 242.883 56.8987 242.271 57.4755 241.535C58.8371 239.796 58.9132 237.289 57.8401 235.377Z" fill="#4E2001"/>
<path d="M70.8713 229.197C70.1656 229.054 69.8347 228.41 69.9387 227.734C70.0514 226.996 70.9693 226.665 71.6369 226.514C73.6207 226.065 75.6953 226.403 77.7025 226.742C80.3671 227.192 82.6745 227.807 84.8662 229.364C85.0975 229.528 85.3478 229.73 85.3639 230.004C85.38 230.278 85.1414 230.517 84.8691 230.606C84.5982 230.696 84.301 230.67 84.0155 230.643C81.6116 230.416 79.209 230.19 76.8051 229.965C74.8169 229.779 72.8258 229.592 70.8713 229.197Z" fill="#4E2001"/>
<path d="M74.3442 235.377C75.2534 233.756 77.5607 233.232 79.2122 234.291C79.8842 234.722 80.3263 235.422 80.5781 236.156C81.1784 237.912 80.8768 239.812 79.7656 241.342C79.1463 242.193 78.1888 242.925 77.1039 242.902C76.1406 242.883 75.2856 242.271 74.7087 241.535C73.3472 239.796 73.271 237.289 74.3442 235.377Z" fill="#4E2001"/>
<path d="M69.6854 260.714C68.6152 262.476 65.7193 262.621 63.6989 262.368C60.5512 261.974 57.8398 260.285 55.7066 258.109C54.2558 256.628 51.9294 258.855 53.3773 260.331C56.121 263.131 59.6406 265.062 63.655 265.504C66.8964 265.862 70.7615 265.21 72.5301 262.301C73.5959 260.547 70.7498 258.962 69.6854 260.714Z" fill="#A67258"/>
<path d="M22.2763 309.962C21.903 301.929 19.4551 294.6 10.9768 292.418C8.19653 291.703 5.18789 292.984 3.18213 294.957C-1.96255 300.019 -4.57295 307.013 -6.7339 313.611C-9.04418 320.667 -10.6795 328.113 -12.4832 335.354C-15.5504 347.661 -17.4215 360.24 -18.0642 372.876C-18.6118 383.629 -19.5868 396.381 -10.9035 404.732C-6.03555 409.413 1.56875 411.312 8.21556 409.507C8.83339 409.339 9.47171 409.124 9.89629 408.665C10.4482 408.067 10.5127 407.205 10.5566 406.408C10.7835 402.34 10.7528 397.753 11.8332 393.798C12.6926 390.65 13.5989 387.872 14.0615 384.556C15.2328 376.163 16.3293 367.76 17.4772 359.364C18.7919 349.377 20.6893 339.418 21.1519 329.404C21.3876 324.28 22.597 316.862 22.2763 309.962Z" fill="#2B0048"/>
<path d="M44.3656 204.748C43.2588 209.038 39.4391 214.566 34.697 215.738C29.4235 217.043 24.5584 218.884 19.9349 215.249C14.3788 210.882 12.2208 202.992 14.8298 196.589C17.4387 190.188 24.617 185.762 31.8055 186.124C33.6238 186.215 35.4436 186.589 37.0643 187.381C38.8607 188.257 40.3614 189.621 41.5531 191.174C44.5003 195.018 45.5588 200.125 44.3656 204.748Z" fill="#4E2001"/>
<path d="M54.919 327.103C56.1898 324.832 57.7505 322.721 59.5878 320.833C60.4868 319.91 61.4472 319.04 62.4603 318.232C63.5174 317.39 64.6388 316.536 65.9638 316.123C66.6329 315.915 66.3459 314.902 65.6725 315.113C64.3109 315.537 63.1704 316.341 62.0665 317.191C60.9626 318.044 59.9187 318.968 58.9466 319.956C56.9891 321.941 55.3157 324.174 53.9703 326.577C53.6379 327.169 54.5852 327.698 54.919 327.103Z" fill="#DDDDDD"/>
<path d="M75.418 315.069C77.7269 316.234 79.7692 317.807 81.4529 319.712C81.6447 319.928 82.0326 319.9 82.2288 319.712C82.4528 319.498 82.4206 319.188 82.2288 318.971C80.491 317.006 78.3549 315.367 75.9714 314.164C75.3492 313.85 74.7929 314.754 75.418 315.069Z" fill="#DDDDDD"/>
<path d="M36.1067 285.96C34.3952 288.751 33.8667 292.118 32.8184 295.165C31.6647 298.519 30.287 301.803 28.6897 304.989C28.2095 305.945 27.151 307.291 27.558 308.427C28.0031 309.664 29.8771 309.614 30.9737 309.79C34.8285 310.406 38.6834 311.022 42.5368 311.64C43.4342 311.784 43.8208 310.473 42.916 310.328C39.679 309.81 36.4405 309.293 33.2034 308.774C32.3558 308.639 31.5081 308.503 30.6589 308.368C30.3163 308.313 29.82 308.327 29.5023 308.183C28.9416 307.929 28.965 307.784 29.1407 307.193C29.3281 306.556 29.8127 305.897 30.1114 305.296C30.4569 304.596 30.7936 303.89 31.1201 303.182C32.3294 300.55 33.4055 297.862 34.3308 295.127C35.278 292.323 35.767 289.212 37.3379 286.649C37.802 285.89 36.5708 285.204 36.1067 285.96Z" fill="black"/>
<path d="M41.8476 311.728C38.2929 314.499 34.7396 317.267 31.1849 320.038C30.9038 320.256 30.9111 320.781 31.1849 321C43.8958 331.127 55.4296 343.066 63.479 356.951C63.9226 357.716 65.1553 357.032 64.7103 356.264C56.6053 342.284 44.9895 330.234 32.1936 320.038C32.1936 320.359 32.1936 320.679 32.1936 321C35.7483 318.23 39.3016 315.461 42.8563 312.691C43.5679 312.136 42.5533 311.178 41.8476 311.728Z" fill="black"/>
<path d="M80.6171 354.937C83.0021 346.401 85.6067 337.922 88.4367 329.511C89.1438 327.409 89.8656 325.31 90.6005 323.216C90.9431 322.238 91.2901 321.263 91.6385 320.288C91.9855 319.317 92.5272 318.279 92.6326 317.251C92.8069 315.561 90.8055 314.489 89.6577 313.503C87.9125 312.005 86.1674 310.508 84.4222 309.01C83.7414 308.426 82.7298 309.384 83.4135 309.972C85.0415 311.371 86.671 312.768 88.2991 314.165C89.0882 314.842 90.0559 315.486 90.7425 316.262C91.539 317.161 90.9138 318.114 90.5625 319.089C89.1584 322.988 87.8027 326.903 86.4968 330.831C83.8835 338.689 81.4663 346.608 79.2409 354.573C79.0052 355.421 80.38 355.783 80.6171 354.937Z" fill="black"/>
<path d="M84.6402 309.451C85.6753 308.048 86.7119 306.646 87.7469 305.243C88.1774 304.659 88.58 304.128 88.4951 303.387C88.4087 302.639 88.0017 301.883 87.7104 301.193C86.4454 298.204 84.8701 295.351 83.0005 292.666C82.4954 291.94 81.2597 292.62 81.7692 293.353C83.4441 295.759 84.8994 298.302 86.0779 300.964C86.3824 301.652 86.6855 302.347 86.9373 303.054C87.217 303.836 86.6943 304.316 86.2331 304.94C85.2917 306.216 84.3503 307.49 83.409 308.765C82.8804 309.482 84.1161 310.162 84.6402 309.451Z" fill="black"/>
<path d="M72.0056 325.418C78.6143 346.768 74.1622 369.12 74.1285 390.93C74.1182 397.043 74.4769 403.147 75.4476 409.192C75.5545 409.857 76.613 409.575 76.5061 408.914C72.9894 387.006 78.0888 364.947 76.3656 342.971C75.8912 336.933 74.8634 330.95 73.0641 325.14C72.865 324.494 71.805 324.768 72.0056 325.418Z" fill="#DDDDDD"/>
<g opacity="0.1">
<path d="M-8.34104 291.778C-10.1111 286.016 -8.54454 279.635 -4.03965 275.384C-1.77329 273.245 1.01281 271.724 3.65982 270.064C6.14139 268.509 8.08126 266.591 10.0885 264.522C12.0284 262.521 14.1439 260.736 15.8803 258.557C17.6679 256.313 19.148 253.86 20.3178 251.274C22.7599 245.875 23.3733 240.327 24.0087 234.544C24.7978 227.362 27.4009 220.933 32.9043 215.833C33.4123 215.363 32.6349 214.622 32.1283 215.093C27.7757 219.126 24.7685 224.294 23.5885 229.982C22.2811 236.279 22.4993 242.656 20.1846 248.774C19.0646 251.732 17.5405 254.554 15.6329 257.122C13.731 259.681 11.3168 261.707 9.10463 263.999C6.7314 266.458 4.32888 268.418 1.37735 270.226C-1.12033 271.756 -3.64581 273.33 -5.63107 275.465C-9.80655 279.953 -11.1564 286.332 -9.39809 292.058C-9.20044 292.702 -8.14047 292.427 -8.34104 291.778Z" fill="white"/>
<path d="M-4.67227 300.722C-0.79545 292.556 6.78835 287.036 13.3092 280.885C20.2811 274.308 25.0612 266.624 27.1841 257.439C28.4022 252.167 28.7887 246.756 28.6072 241.368C28.5852 240.696 27.4857 240.692 27.5091 241.368C27.9278 253.765 25.1373 266.518 16.4862 276.135C9.20696 284.227 -0.878906 290.207 -5.61951 300.194C-5.9094 300.803 -4.96361 301.337 -4.67227 300.722Z" fill="white"/>
<path d="M88.7606 260.475C90.8176 265.016 92.5745 269.66 91.7283 274.681C90.9377 279.371 88.8499 283.921 86.4298 288.038C86.0843 288.626 87.0316 289.155 87.3785 288.567C89.9436 284.203 92.1865 279.315 92.8863 274.318C93.5993 269.225 91.7941 264.55 89.7093 259.947C89.4282 259.329 88.4824 259.861 88.7606 260.475Z" fill="white"/>
<path d="M71.8318 206.901C70.482 212.571 68.8305 218.544 64.3959 222.783C63.8966 223.26 64.6726 224.001 65.1718 223.523C69.7455 219.153 71.498 213.03 72.8903 207.179C73.0455 206.523 71.987 206.242 71.8318 206.901Z" fill="white"/>
<path d="M65.2832 202.717C54.253 204.148 45.3647 211.798 40.0268 220.778C37.2524 225.444 35.3228 230.606 34.5893 235.935C33.7416 242.097 34.5703 248.337 34.2921 254.526C33.9612 261.92 32.4035 269.206 29.7872 276.167C29.5486 276.803 30.6085 277.076 30.8457 276.445C32.9144 270.941 34.3199 265.24 34.9948 259.427C35.6961 253.386 35.2335 247.379 35.3213 241.324C35.4824 230.254 40.2581 219.381 48.7408 211.74C53.4024 207.54 59.1825 204.556 65.5731 203.727C66.2729 203.637 65.9757 202.627 65.2832 202.717Z" fill="white"/>
</g>
<path d="M120.889 408.844C120.889 412.959 111.263 411.782 99.388 411.782C87.5131 411.782 77.887 412.959 77.887 408.844C77.887 404.73 87.5131 396.882 99.388 396.882C111.263 396.882 120.889 404.729 120.889 408.844Z" fill="black"/>
<path d="M127.185 408.229C127.974 409.829 125.877 410.459 124.287 410.506C119.591 410.643 114.75 408.901 110.311 407.624C104.861 406.056 98.5345 404.788 93.2464 407.52C91.5642 408.389 90.0694 409.575 88.1661 409.974C85.5191 410.529 83.1927 410.045 80.5911 409.555C76.7084 408.823 72.7013 409.186 68.7498 408.963C68.5638 408.952 68.3501 408.925 68.2506 408.774C68.1759 408.661 68.1949 408.516 68.2169 408.383C68.9796 403.734 69.3252 398.844 70.8566 394.363C71.0088 393.918 71.1962 393.442 71.6135 393.199C71.9385 393.01 72.3411 393.002 72.7218 392.999C78.7566 392.961 84.7226 393.379 90.775 392.892C93.892 392.64 97.0397 392.252 100.13 392.709C104.956 393.424 109.639 396.622 113.762 399.04C116.093 400.407 118.38 401.844 120.617 403.347C122.422 404.559 125.561 406.05 126.863 407.726C127.002 407.905 127.107 408.071 127.185 408.229Z" fill="#FFC19D"/>
<path d="M74.9389 409.402C74.9228 409.813 74.895 410.254 74.627 410.575C74.2801 410.992 73.6578 411.064 73.1015 411.106C70.6023 411.291 68.1032 411.475 65.6041 411.66C65.3142 411.68 64.995 411.694 64.7622 411.528C64.4723 411.32 64.4387 410.925 64.4328 410.578C64.3743 407.098 64.5617 403.616 64.9906 400.161C65.3962 396.895 65.4562 393.647 65.544 390.366C65.547 390.246 65.5558 390.115 65.6407 390.028C65.749 389.918 65.9306 389.925 66.0887 389.94C69.3623 390.252 72.6374 390.562 75.911 390.873C75.9198 392.29 75.7368 393.681 75.7353 395.088C75.7339 396.703 75.6285 398.324 75.5304 399.936C75.3386 403.089 75.0633 406.242 74.9389 409.402Z" fill="white"/>
<path d="M69.7112 399.016C69.9235 395.658 69.7814 392.336 69.9308 389.014C68.3408 388.859 66.767 388.719 65.3219 388.507C61.164 387.896 57.0105 387.267 52.857 386.635C44.5514 385.37 36.2487 384.091 27.93 382.905C20.2247 381.805 12.5106 380.787 4.77889 379.935C3.68524 379.814 2.52278 379.703 1.52284 380.115C0.259356 380.636 -0.419973 381.847 -1.00413 382.972C-2.89862 386.618 -5.0127 390.154 -6.97746 393.764C-8.60988 396.763 -9.4078 399.674 -11.4267 402.475C-11.5497 402.646 -11.6786 402.836 -11.661 403.042C-11.6434 403.239 -11.497 403.4 -11.3565 403.544C-6.50605 408.491 -0.422898 409.339 6.31029 410.312C14.1166 411.44 22.1528 411.071 29.7791 412.731C33.8887 413.625 38.5942 413.315 42.796 413.456C47.3477 413.609 51.901 413.71 56.4556 413.757C59.6341 413.791 62.814 413.799 65.9925 413.781C66.5898 413.777 67.2926 413.818 68.0319 413.859C68.6717 408.922 69.3993 403.964 69.7112 399.016Z" fill="#2B0048"/>
<path d="M227.367 388.538H84.5294C82.6041 388.538 81.0435 387.048 81.0435 385.211L95.1101 288.826C95.1101 286.989 96.6708 285.5 98.596 285.5H241.434C243.359 285.5 244.919 286.989 244.919 288.826L230.853 385.211C230.853 387.048 229.292 388.538 227.367 388.538Z" fill="#B34D0D"/>
<path d="M233.342 388.538H90.5042C88.579 388.538 87.0183 387.048 87.0183 385.211L101.085 288.826C101.085 286.989 102.646 285.5 104.571 285.5H247.408C249.334 285.5 250.894 286.989 250.894 288.826L236.828 385.211C236.828 387.048 235.267 388.538 233.342 388.538Z" fill="black"/>
<path d="M180.57 370.21H154.264V411.75H193.766L180.57 370.21Z" fill="#B34D0D"/>
<path d="M195.808 412.972H152.221C150.885 412.972 149.803 411.938 149.803 410.664V410.529C149.803 409.254 150.886 408.221 152.221 408.221H195.808C197.144 408.221 198.226 409.254 198.226 410.529V410.664C198.226 411.938 197.144 412.972 195.808 412.972Z" fill="black"/>
<path d="M20.9471 324.325C20.3659 340.408 18.0776 356.414 14.0866 372.051C12.9549 376.484 11.6855 380.883 10.2903 385.246C10.0224 386.085 11.3971 386.444 11.665 385.608C16.6018 370.171 19.8872 354.269 21.4537 338.199C21.9032 333.585 22.2048 328.958 22.3731 324.327C22.4039 323.449 20.9793 323.451 20.9471 324.325Z" fill="#101010"/>
<path d="M12.6719 381.142C31.4923 384.055 50.3025 387.031 69.1009 390.072C69.9984 390.217 70.3834 388.907 69.4801 388.76C50.6816 385.719 31.8715 382.743 13.0511 379.831C12.1536 379.692 11.7671 381.003 12.6719 381.142Z" fill="#252627"/>
<path d="M68.8825 389.427C68.925 393.466 68.9689 397.506 69.0099 401.546C69.0465 405.237 69.0377 408.964 67.5575 412.437C67.212 413.248 68.5912 413.601 68.9323 412.799C70.4022 409.351 70.471 405.617 70.4402 401.949C70.4036 397.774 70.3524 393.602 70.3085 389.429C70.2982 388.553 68.8723 388.55 68.8825 389.427Z" fill="#16191C"/>
<path d="M259.318 414.333H-72.6827C-73.4703 414.333 -74.1086 413.724 -74.1086 412.972C-74.1086 412.22 -73.4703 411.611 -72.6827 411.611H259.318C260.106 411.611 260.744 412.22 260.744 412.972C260.744 413.724 260.104 414.333 259.318 414.333Z" fill="white"/>
<path d="M70.6122 390.809C71.5843 390.976 72.555 391.15 73.5228 391.34C73.7746 391.389 74.7262 391.437 74.8755 391.614C75.1376 391.924 74.9707 392.869 74.9722 393.243C74.9751 395.121 74.9487 396.997 74.8916 398.873C74.7731 402.759 74.5198 406.642 74.1479 410.514C74.0835 411.185 75.1815 411.18 75.2459 410.514C75.6705 406.108 75.937 401.689 76.0321 397.265C76.0555 396.192 76.0673 395.121 76.0717 394.048C76.0746 393.235 76.3352 391.938 75.978 391.18C75.6822 390.551 74.8214 390.53 74.2035 390.407C73.107 390.189 72.0074 389.988 70.905 389.801C70.214 389.682 69.9168 390.691 70.6122 390.809Z" fill="#DDDDDD"/>
<path d="M278.42 528.43C282.234 517.755 284.851 506.779 283.879 495.761C282.886 484.505 284.431 472.26 286.074 461.1C286.876 455.651 287.233 450.156 287.601 444.668C287.781 441.987 287.668 439.061 288.219 436.424C288.716 434.045 289.832 431.728 290.403 429.336C283.936 433.932 275.723 434.456 270.85 441.231C268.608 444.351 267.177 447.925 265.775 451.463C260.074 465.845 254.503 480.279 249.439 494.879C242.656 514.436 239.224 534.857 234.934 555.047C239.201 555.891 244.852 555.032 249.301 555.166C254.778 555.331 260.257 555.481 265.731 555.733C266.091 555.75 266.466 555.764 266.794 555.62C267.312 555.392 267.567 554.84 267.776 554.335C271.233 546.011 275.241 537.326 278.42 528.43Z" fill="#2B0048"/>
<path d="M344.548 441.407C346.479 440.269 347.634 438.531 349.355 437.18C350.284 436.451 352.482 435.626 351.816 434.53C351.679 434.305 351.422 434.069 351.007 433.819C349.978 433.198 349.423 433.39 348.687 432.276C347.706 430.797 347.271 429.227 345.568 428.313C344.32 427.642 342.806 427.574 341.52 426.971C338.352 425.479 338.242 420.396 338.074 417.483C337.67 410.458 337.264 403.434 336.86 396.408C335.603 397.455 334.979 398.321 333.26 398.372C331.683 398.42 330.032 398.12 328.602 398.937C327.624 399.496 326.9 400.447 325.807 400.84C323.127 401.801 319.706 401.563 316.879 401.633C311.693 401.763 306.472 401.667 301.326 402.403C300.989 402.452 300.628 402.513 300.386 402.744C299.506 403.582 299.938 406.098 300.14 407.144C300.442 408.713 300.527 410.089 300.495 411.714C300.389 416.995 301.287 422.926 298.915 427.962C297.862 430.198 295.659 431.579 295.308 434.034C294.816 437.472 294.655 441.161 295.413 444.57C296.37 448.862 299.247 453.034 303.616 454.408C308.761 456.025 313.548 453.603 318.186 451.833C327.042 448.456 336.379 446.223 344.548 441.407Z" fill="#A67258"/>
<path d="M374.406 436.419C374.627 435.49 374.58 434.597 373.835 433.844C373.194 433.196 372.29 432.855 371.416 432.543C367.295 431.072 363.105 429.786 358.885 428.594C356.733 427.986 354.574 427.404 352.411 426.834C350.782 426.405 348.672 426.187 347.338 425.109C346.721 424.61 346.684 423.607 346.155 422.978C345.362 422.032 344.293 421.214 343.39 420.36C342.784 419.787 337.825 415.818 337.993 415.257C336.854 419.034 332.961 422.461 329.89 424.913C327.764 426.61 325.52 428.167 323.398 429.871C321.485 431.408 319.694 432.437 317.521 433.623C316.879 433.974 308.878 438.627 308.49 438.078C304.849 432.922 299.07 425.874 300.374 419.325C297.344 422.597 293.534 425.062 290.286 428.118C289.199 429.139 289.47 430.252 288.785 431.419C287.986 432.777 286.874 433.945 286.154 435.349C285.081 437.439 284.858 439.738 283.607 441.733C282.28 443.849 281.837 446.723 281.235 449.11C279.882 454.476 278.927 459.925 278.065 465.38C275.871 479.259 274.311 493.221 272.77 507.178C271.891 515.139 271.016 523.099 270.148 531.06C269.272 539.078 267.496 547.548 267.597 555.579C273.383 556.377 278.752 556.25 284.526 557.637C291.307 559.266 298.279 557.874 305.174 557.845C310.167 557.827 363.131 557.824 363.276 559.795C363.162 558.243 363.055 556.688 362.944 555.134C363.718 555.128 364.491 555.114 365.266 555.113C365.541 555.113 365.79 555.149 366.024 555.203C366.067 552.784 366.151 550.361 366.266 547.942C366.408 544.912 366.589 541.884 366.772 538.863C366.885 536.989 366.998 535.116 367.11 533.241C368.137 516.207 369.162 499.174 370.188 482.14L371.727 456.59C371.978 453.018 372.169 449.443 372.482 445.874C372.642 444.053 372.825 442.233 373.037 440.418C373.176 439.22 374.081 437.779 374.406 436.419Z" fill="#2B0048"/>
<path d="M357.264 451.902C356.963 443.579 358.865 435.823 367.431 432.911C370.241 431.956 373.456 433.046 375.696 434.926C381.439 439.753 384.732 446.77 387.526 453.415C390.514 460.522 392.837 468.081 395.319 475.417C399.535 487.885 402.542 500.726 404.285 513.723C405.768 524.781 407.863 537.871 399.611 547.168C394.986 552.379 387.297 554.932 380.28 553.583C379.628 553.458 378.951 553.286 378.473 552.844C377.853 552.27 377.712 551.385 377.599 550.567C377.258 547.963 376.924 545.355 376.441 542.771C376.22 541.59 376.118 540.127 375.617 539.024C375.238 538.187 374.545 537.448 374.053 536.645C371.537 532.538 369.831 528.018 368.614 523.417C368.32 522.304 368.054 521.187 367.809 520.065C366.963 516.18 365.884 511.911 365.773 507.936C365.667 504.162 364.606 500.353 363.926 496.607C362.436 488.399 361.156 480.157 360.088 471.889C359.404 466.616 357.521 459.051 357.264 451.902Z" fill="#2B0048"/>
<path d="M342.428 383.194C341.776 387.112 340.902 390.995 339.807 394.822C338.052 400.956 332.447 406.364 327.572 410.591C325.995 411.959 324.192 413.941 321.998 414.112C319.47 414.309 316.542 413.347 314.188 412.587C310.936 411.537 307.728 410.301 304.815 408.57C298.698 404.935 294.157 399.275 290.729 393.225C286.582 385.902 283.801 377.407 284.874 369.012C285.074 367.454 285.144 365.532 286.267 364.389C287.454 363.179 290.186 362.478 291.772 361.9C295.249 360.634 298.893 359.698 302.56 359.093C310.03 357.862 316.865 354.381 324.413 353.117C328.124 352.495 332.03 352.653 335.728 353.282C337.687 353.614 339.693 353.969 341.57 354.616C343.858 355.405 343.46 356.783 343.609 358.979C343.921 363.554 343.927 368.147 343.633 372.722C343.406 376.229 343.005 379.724 342.428 383.194Z" fill="#1C2F36"/>
<path d="M327.186 345.923C321.461 342.781 314.782 341.51 308.184 341.274C303.099 341.091 297.827 341.539 293.34 343.826C289.331 345.869 286.176 349.315 284.361 353.29C281.406 359.756 282.602 366.72 283.143 373.496C283.349 376.086 284.138 378.778 284.816 381.396C284.886 381.667 284.955 381.938 285.022 382.208C286.812 389.399 288.482 396.656 291.294 403.562C293.845 409.828 297.22 414.16 303.443 417.503C306.692 419.248 310.067 421.079 314.002 420.44C317.672 419.843 320.488 418.547 323.502 416.401C327.471 413.575 330.685 409.874 333.409 405.955C334.802 403.953 336.095 401.861 336.888 399.581C337.581 397.587 337.878 395.488 338.04 393.394C338.528 387.086 337.818 380.762 338.207 374.452C338.582 368.386 336.537 362.58 336.307 356.571C336.125 351.869 331.253 348.156 327.186 345.923Z" fill="#FFC19D"/>
<path d="M295.868 398.671C296.312 398.807 296.773 398.882 297.253 398.886C298.12 398.892 298.966 398.65 299.796 398.411C305.027 396.908 310.376 395.433 315.837 395.578C317.814 395.631 319.804 395.897 321.764 395.642C324.303 395.313 326.529 394.097 328.294 392.362C329.889 390.795 330.833 388.743 331.722 386.731C333.153 383.487 334.552 380.101 334.431 376.583C334.453 377.209 335.935 378.591 336.324 379.194C337.002 380.243 337.237 381.387 337.481 382.594C337.768 384.014 338.48 385.113 339.026 386.457C339.731 388.192 340.402 390.388 340.234 392.27C339.254 403.257 329.653 414.544 320.246 420.266C318.274 421.466 315.964 422.275 313.629 422.141C311.029 421.99 307.979 420.675 305.568 419.748C302.549 418.587 299.909 416.019 297.436 414.067C295.581 412.603 293.712 411.093 292.41 409.16C291.254 407.44 290.599 405.462 289.978 403.506C289.113 400.778 288.284 398.04 287.494 395.29C287.005 393.592 286.068 391.809 285.92 390.047C285.778 388.374 285.498 386.76 285.257 385.08C286.806 388.824 288.961 392.34 291.623 395.462C292.775 396.809 294.188 398.158 295.868 398.671Z" fill="#0B0B21"/>
<path d="M343.223 348.078C340.811 343.376 337.147 339.731 331.567 337.179C327.358 335.252 322.749 334.019 318.061 333.983C313.138 333.943 308.222 334.441 303.434 335.544C299.068 336.552 294.673 338.202 290.198 338.72C286.852 339.107 283.318 338.725 280.418 337.09C279.857 339.231 280.836 341.661 282.756 342.893C279.412 343.213 275.942 341.883 273.759 339.446C272.5 350.277 278.842 360.597 290.275 363.061C296.547 364.412 303.075 363.144 309.365 361.875C313.378 361.066 317.39 360.257 321.402 359.447C325.232 358.675 328.994 359.669 331.03 363.008C334.479 368.665 334.004 375.632 334.696 382.143C334.862 383.694 335.453 384.67 336.015 386.034C336.664 387.609 336.772 389.501 337.188 391.158C337.28 391.524 337.465 391.968 337.858 391.99C338.142 392.007 338.374 391.78 338.533 391.555C339.533 390.142 339.346 388.286 339.207 386.587C338.869 382.446 338.197 375.94 341.005 372.389C342.609 370.503 343.931 371.049 345.975 370.749C347.388 370.541 347.107 370.203 347.17 368.637C347.218 367.428 347.227 366.219 347.184 365.01C347.067 361.649 346.59 358.3 345.767 355.03C345.13 352.5 344.303 350.184 343.223 348.078Z" fill="#0B0B21"/>
<path d="M283.29 357.667C282.592 356.955 282.001 356.308 281.762 356.432C280.938 356.857 281.686 361.706 281.758 362.521C281.951 364.707 282.223 366.895 282.116 369.092C281.927 372.991 282.648 377.188 283.324 381.053C284.339 386.858 286.418 392.757 290.849 396.848C289.331 395.447 288.546 392.552 287.839 390.711C287.107 388.805 286.176 387.303 285.727 385.251C284.674 380.454 284.301 375.5 284.842 370.618C285.26 366.853 285.236 363.067 285.63 359.321C284.939 359.302 284.052 358.444 283.29 357.667Z" fill="#0B0B21"/>
<path d="M310.069 393.719C310.677 393.549 311.246 393.334 311.732 393.082C309.325 392.66 307.273 390.933 306.385 388.768C305.419 386.411 306.185 383.394 306.498 380.976C305.577 382.799 304.731 384.657 303.961 386.543C303.343 388.057 302.083 390.018 302.538 391.692C302.901 393.026 304.329 393.899 305.759 394.096C307.031 394.271 308.655 394.116 310.069 393.719Z" fill="#A67258"/>
<path d="M309.38 369.31C308.945 368.916 309.094 368.281 309.462 367.666C309.993 366.78 310.952 366.174 311.942 365.777C315.188 364.475 319.965 364.657 322.474 367.16C322.836 367.522 323.102 368.11 322.745 368.479C322.583 368.647 322.331 368.717 322.091 368.756C321.283 368.888 320.455 368.777 319.64 368.71C317.06 368.496 314.434 368.735 311.943 369.407C311.346 369.569 310.722 369.756 310.115 369.636C309.779 369.567 309.539 369.456 309.38 369.31Z" fill="black"/>
<path d="M313.683 374.846C314.438 373.084 316.757 372.31 318.577 373.232C319.318 373.608 319.852 374.283 320.192 375.014C321.006 376.761 320.908 378.749 319.934 380.438C319.393 381.378 318.486 382.229 317.366 382.317C316.372 382.395 315.422 381.852 314.746 381.152C313.149 379.499 312.791 376.926 313.683 374.846Z" fill="black"/>
<path d="M299.973 370.241C300.314 369.77 300.032 369.177 299.54 368.649C298.83 367.886 297.761 367.479 296.705 367.285C293.25 366.645 288.612 367.757 286.694 370.698C286.417 371.123 286.283 371.75 286.712 372.042C286.906 372.175 287.167 372.193 287.412 372.184C288.231 372.157 289.016 371.885 289.801 371.661C292.281 370.948 294.902 370.667 297.483 370.838C298.102 370.878 298.754 370.941 299.322 370.704C299.636 370.572 299.847 370.414 299.973 370.241Z" fill="black"/>
<path d="M296.95 376.501C295.833 374.925 293.396 374.62 291.814 375.879C291.169 376.392 290.792 377.157 290.615 377.938C290.193 379.809 290.716 381.735 292.03 383.196C292.762 384.011 293.831 384.666 294.947 384.533C295.936 384.416 296.749 383.698 297.261 382.881C298.471 380.951 298.269 378.363 296.95 376.501Z" fill="black"/>
<path d="M302.038 404.099C304.146 406.864 308.002 407.008 311.226 406.32C315.147 405.485 318.353 403.064 320.742 400.056C321.596 398.982 319.69 397.937 318.847 398.999C316.891 401.46 314.211 403.442 311.043 404.209C308.85 404.739 305.464 405.048 303.935 403.042C303.111 401.962 301.205 403.005 302.038 404.099Z" fill="#A67258"/>
<path d="M347.52 370.931C347.607 371.035 347.689 371.142 347.768 371.251C349.488 373.616 349.892 376.976 349.311 379.964C348.73 382.951 347.271 385.617 345.604 388.001C343.68 390.751 339.954 392.571 339.011 388.243C338.385 385.368 338.534 382.165 338.727 379.239C339.002 375.066 340.324 370.639 344.424 369.879C345.157 369.744 345.942 369.754 346.611 370.132C346.955 370.326 347.254 370.61 347.52 370.931Z" fill="#FFC19D"/>
<path d="M343.71 376.445C343.697 376.447 343.582 376.438 343.598 376.428C343.639 376.401 343.844 376.682 343.87 376.719C344.046 376.963 344.158 377.244 344.246 377.526C344.448 378.181 344.479 378.885 344.381 379.563C344.169 381.024 343.412 382.362 342.685 383.639C342.012 384.825 343.907 385.884 344.581 384.697C345.615 382.878 346.612 380.946 346.624 378.829C346.634 377.04 345.624 373.85 343.125 374.425C341.753 374.739 342.336 376.76 343.71 376.445Z" fill="#A67258"/>
<path d="M346.052 379.325C345.441 378.705 344.507 378.451 343.639 378.561C342.787 378.67 342.046 379.082 341.433 379.648C341.02 380.029 341.001 380.752 341.433 381.13C341.876 381.52 342.544 381.538 342.986 381.13C343.093 381.031 343.204 380.939 343.321 380.851C343.246 380.905 343.173 380.96 343.099 381.014C343.296 380.872 343.506 380.75 343.733 380.654C343.645 380.689 343.558 380.724 343.471 380.76C343.665 380.683 343.866 380.627 344.077 380.599C343.98 380.612 343.882 380.625 343.785 380.637C343.954 380.619 344.119 380.62 344.286 380.64C344.189 380.627 344.091 380.615 343.995 380.602C344.145 380.623 344.29 380.659 344.432 380.713C344.345 380.678 344.258 380.643 344.17 380.606C344.295 380.657 344.412 380.718 344.522 380.795C344.447 380.741 344.374 380.686 344.299 380.632C344.371 380.685 344.437 380.742 344.498 380.805C344.892 381.206 345.659 381.213 346.052 380.805C346.464 380.377 346.472 379.753 346.052 379.325Z" fill="#A67258"/>
<g opacity="0.2">
<path d="M284.328 351.498C287.669 353.994 291.824 354.56 295.966 354.418C301.455 354.23 306.869 353.127 312.334 352.684C317.586 352.258 323.042 352.37 328.014 354.216C332.8 355.995 336.675 359.395 339.106 363.689C339.441 364.283 340.39 363.755 340.055 363.16C335.381 354.902 326.436 351.413 316.93 351.429C311.35 351.439 305.848 352.439 300.32 353.029C295.212 353.574 289.401 353.966 285.106 350.757C284.554 350.347 283.772 351.083 284.328 351.498Z" fill="#2B0048"/>
</g>
<g opacity="0.2">
<path d="M300.382 344.364C309.005 343.283 318.016 342.13 326.526 344.484C330.17 345.491 333.683 347.116 336.567 349.492C339.676 352.053 341.513 355.342 343.211 358.844C343.509 359.456 344.454 358.923 344.16 358.316C342.465 354.818 340.619 351.508 337.553 348.924C334.764 346.573 331.417 344.895 327.891 343.791C318.993 341.007 309.468 342.178 300.382 343.316C299.691 343.403 299.682 344.452 300.382 344.364Z" fill="#2B0048"/>
</g>
<g opacity="0.2">
<path d="M286.188 343.378C290.58 348.058 297.255 349.314 303.505 349.965C304.206 350.038 304.2 348.99 303.505 348.917C297.537 348.296 291.155 347.103 286.964 342.636C286.492 342.135 285.718 342.878 286.188 343.378Z" fill="#2B0048"/>
</g>
<path d="M252.144 553.039C252.144 557.3 262.113 556.082 274.411 556.082C286.709 556.082 296.679 557.3 296.679 553.039C296.679 548.778 286.711 540.65 274.411 540.65C262.114 540.65 252.144 548.778 252.144 553.039Z" fill="black"/>
<path d="M245.518 552.562C244.778 554.251 246.979 554.811 248.624 554.789C253.489 554.722 258.413 552.707 262.944 551.189C267.846 549.546 273.158 548.226 278.189 549.459C282.249 550.454 285.038 553.627 289.091 554.314C293.903 555.13 298.853 555.395 303.736 555.225C304.947 555.183 306.336 555.018 307.004 554.054C307.514 553.318 307.419 552.34 307.146 551.498C305.462 546.309 305.152 540.88 303.119 535.724C302.941 535.271 302.724 534.787 302.281 534.553C301.935 534.372 301.518 534.381 301.124 534.395C294.878 534.623 288.726 535.319 282.441 535.081C279.204 534.958 275.928 534.696 272.753 535.306C267.796 536.259 263.105 539.775 258.958 542.459C256.612 543.976 254.317 545.564 252.075 547.219C250.267 548.553 247.09 550.233 245.827 552.027C245.692 552.218 245.589 552.396 245.518 552.562Z" fill="#FFC19D"/>
<path d="M300.353 533.08C303.411 532.541 306.798 532.404 309.692 531.979C313.998 531.346 318.299 530.695 322.601 530.042C331.202 528.733 339.8 527.408 348.416 526.179C356.397 525.04 364.386 523.984 372.392 523.103C373.525 522.978 374.728 522.862 375.763 523.288C377.072 523.828 377.775 525.082 378.38 526.247C382.079 533.369 386.671 540.245 389.389 547.724C389.745 548.703 390.072 549.749 389.789 550.748C389.158 552.993 386.038 553.719 383.458 554.021C375.103 555.001 366.721 555.807 358.322 556.438C345.2 557.426 332.038 557.99 318.87 558.13C315.577 558.165 312.285 558.173 308.994 558.154C307.128 558.142 304.309 558.541 302.212 558.148C301.357 549.805 300.537 541.462 300.353 533.08Z" fill="#2B0048"/>
<path d="M308.459 438.932C305.46 463.21 303.264 487.583 302.32 512.014C302.052 518.932 301.89 525.854 301.828 532.778C301.822 533.452 302.92 533.452 302.926 532.778C303.143 508.322 304.702 483.894 307.211 459.558C307.922 452.675 308.709 445.8 309.557 438.932C309.64 438.265 308.541 438.27 308.459 438.932Z" fill="#DDDDDD"/>
<path d="M308.989 439.971C313.838 440.865 317.582 446.203 319.47 450.194C319.549 450.362 319.765 450.447 319.945 450.454C320.381 450.47 320.908 449.972 321.229 449.757C322.134 449.151 323.024 448.525 323.915 447.901C326.053 446.403 328.183 444.894 330.294 443.363C333.254 441.214 336.064 438.858 338.792 436.448C342.25 433.393 345.879 430.2 347.94 426.085C348.243 425.48 347.298 424.948 346.992 425.555C344.286 430.953 338.857 435.128 334.191 438.958C331.514 441.157 328.739 443.191 325.905 445.2C324.526 446.179 323.144 447.155 321.751 448.116C321.281 448.44 320.814 448.769 320.336 449.078C320.205 449.162 320.079 449.254 319.946 449.33C319.421 449.63 320.195 449.263 320.173 449.145C319.964 448.05 318.735 446.589 318.078 445.696C317.364 444.728 316.575 443.807 315.717 442.95C313.957 441.191 311.85 439.433 309.282 438.96C308.591 438.834 308.295 439.844 308.989 439.971Z" fill="#DDDDDD"/>
<path d="M289.404 432.007C292.158 437.44 295.862 442.388 300.348 446.644C300.602 446.885 301.027 446.825 301.21 446.537C303.097 443.581 305.712 441.156 308.86 439.435C309.473 439.1 308.92 438.194 308.305 438.53C304.999 440.339 302.244 442.904 300.261 446.008C300.548 445.973 300.837 445.937 301.124 445.902C296.701 441.705 293.067 436.835 290.353 431.478C290.044 430.871 289.096 431.402 289.404 432.007Z" fill="#DDDDDD"/>
<path d="M358.472 441.607C355.994 455.028 357.944 468.592 360.156 481.915C362.456 495.768 364.466 509.724 367.879 523.378C368.043 524.033 369.101 523.757 368.937 523.1C365.634 509.879 363.675 496.375 361.437 482.964C359.173 469.408 357.007 455.558 359.531 441.887C359.652 441.226 358.594 440.944 358.472 441.607Z" fill="#DDDDDD"/>
<path d="M284.647 436.283C273.401 461.158 269.367 488.331 266.965 515.13C266.278 522.787 265.732 530.454 265.205 538.122C265.158 538.795 266.257 538.793 266.303 538.122C268.145 511.327 270.166 484.238 277.736 458.258C279.863 450.954 282.447 443.774 285.595 436.813C285.873 436.198 284.927 435.664 284.647 436.283Z" fill="#DDDDDD"/>
<path d="M377.674 522.757C371.125 522.479 364.612 523.482 358.136 524.281C351.819 525.061 345.503 525.854 339.19 526.668C326.179 528.344 313.179 530.107 300.206 532.031C299.975 532.066 299.799 532.325 299.804 532.536C299.816 533.166 299.827 533.796 299.839 534.427C299.852 535.1 300.95 535.103 300.937 534.427C300.925 533.796 300.914 533.166 300.902 532.536C300.767 532.705 300.632 532.873 300.499 533.042C313.239 531.153 326.005 529.418 338.781 527.768C345.23 526.936 351.683 526.125 358.136 525.329C364.612 524.53 371.124 523.527 377.674 523.805C378.381 523.834 378.38 522.787 377.674 522.757Z" fill="#DDDDDD"/>
<path d="M321.71 495.543C321.482 485.911 321.652 476.276 322.22 466.656C322.037 466.83 321.854 467.005 321.671 467.18C326.297 466.647 330.945 466.329 335.606 466.252C337.834 466.214 340.062 466.232 342.289 466.302C343.504 466.34 344.718 466.395 345.93 466.464C346.51 466.498 347.138 466.429 347.643 466.758C348.155 466.809 348.328 467.075 348.164 467.557C348.174 467.847 348.185 468.138 348.195 468.43C348.495 477.253 348.622 486.081 348.589 494.909C348.723 494.74 348.857 494.572 348.991 494.403C339.905 495.733 330.572 495.94 321.436 494.954C320.735 494.878 320.741 495.926 321.436 496.001C330.676 496.999 340.096 496.757 349.283 495.413C349.517 495.378 349.685 495.118 349.685 494.907C349.704 490.057 349.675 485.207 349.595 480.356C349.552 477.835 349.496 475.313 349.426 472.791C349.394 471.628 349.359 470.464 349.321 469.3C349.294 468.473 349.475 467.185 349.155 466.406C348.586 465.018 345.948 465.41 344.718 465.35C342.189 465.227 339.658 465.171 337.125 465.185C331.959 465.214 326.801 465.54 321.672 466.129C321.363 466.164 321.142 466.341 321.123 466.653C320.555 476.273 320.385 485.908 320.614 495.54C320.628 496.215 321.726 496.218 321.71 495.543Z" fill="#DDDDDD"/>
<path d="M322.249 473.032C330.901 472.715 339.56 472.637 348.214 472.401C348.919 472.381 348.922 471.333 348.214 471.353C339.56 471.589 330.9 471.667 322.249 471.984C321.544 472.009 321.54 473.057 322.249 473.032Z" fill="#DDDDDD"/>
<path d="M147.959 532.963H290.797C292.722 532.963 294.283 531.474 294.283 529.637L280.216 433.252C280.216 431.415 278.655 429.926 276.73 429.926H133.893C131.967 429.926 130.407 431.415 130.407 433.252L144.473 529.637C144.473 531.474 146.034 532.963 147.959 532.963Z" fill="#B34D0D"/>
<path d="M141.983 532.963H284.82C286.745 532.963 288.306 531.474 288.306 529.637L274.239 433.252C274.239 431.415 272.679 429.926 270.754 429.926H127.916C125.991 429.926 124.43 431.415 124.43 433.252L138.497 529.637C138.498 531.474 140.057 532.963 141.983 532.963Z" fill="black"/>
<path d="M194.756 514.634H221.06V556.174H181.559L194.756 514.634Z" fill="#B34D0D"/>
<path d="M179.517 557.399H223.103C224.438 557.399 225.522 556.365 225.522 555.091V554.955C225.522 553.68 224.438 552.647 223.103 552.647H179.517C178.18 552.647 177.098 553.681 177.098 554.955V555.091C177.098 556.365 178.182 557.399 179.517 557.399Z" fill="black"/>
<path d="M427.791 559.214H95.7917C94.742 559.214 93.8914 558.402 93.8914 557.4C93.8914 556.399 94.742 555.587 95.7917 555.587H427.792C428.842 555.587 429.693 556.399 429.693 557.4C429.693 558.402 428.841 559.214 427.791 559.214Z" fill="#2B0048"/>
<path d="M419.982 349.543C419.982 335.993 408.47 325.009 394.27 325.009C380.07 325.009 368.558 335.993 368.558 349.543C368.558 354.136 369.905 358.42 372.208 362.097H372.171L392.645 393.037C392.981 393.553 393.579 393.899 394.267 393.899C394.955 393.899 395.554 393.552 395.889 393.036V393.049L416.371 362.095H416.332C418.635 358.421 419.982 354.138 419.982 349.543ZM394.27 359.05C388.343 359.05 383.538 354.465 383.538 348.81C383.538 343.155 388.343 338.57 394.27 338.57C400.196 338.57 405.001 343.155 405.001 348.81C405.001 354.465 400.198 359.05 394.27 359.05Z" fill="#FFC655"/>
<path d="M22.5057 552.485C35.0687 552.485 45.2908 542.731 45.2908 530.744C45.2908 518.756 35.0687 509.002 22.5057 509.002C21.3198 509.002 20.3579 509.92 20.3579 511.051C20.3579 512.183 21.3198 513.101 22.5057 513.101C32.7013 513.101 40.9938 521.015 40.9938 530.742C40.9938 540.47 32.6999 548.384 22.5057 548.384C21.3198 548.384 20.3579 549.301 20.3579 550.433C20.3579 551.567 21.3198 552.485 22.5057 552.485Z" fill="white"/>
<path d="M20.4864 485.473H-70.9526C-72.9247 485.473 -74.5234 483.947 -74.5234 482.066V461.957C-74.5234 460.075 -72.9247 458.55 -70.9526 458.55H20.4864C22.4584 458.55 24.0572 460.075 24.0572 461.957V482.066C24.0572 483.947 22.4584 485.473 20.4864 485.473Z" fill="black"/>
<path d="M1.68652 480.32V463.784C1.68652 462.683 2.62204 461.789 3.77718 461.789C4.93086 461.789 5.86785 462.682 5.86785 463.784V480.32C5.86785 481.421 4.93232 482.314 3.77718 482.314C2.62204 482.315 1.68652 481.421 1.68652 480.32Z" fill="#FFC655"/>
<path d="M11.0913 480.32V463.784C11.0913 462.683 12.0268 461.789 13.1805 461.789C14.3342 461.789 15.2712 462.682 15.2712 463.784V480.32C15.2712 481.421 14.3357 482.314 13.1805 482.314C12.0268 482.315 11.0913 481.421 11.0913 480.32Z" fill="#FFC655"/>
<path d="M20.4864 524.46H-70.9526C-72.9247 524.46 -74.5234 522.935 -74.5234 521.053V500.944C-74.5234 499.063 -72.9247 497.537 -70.9526 497.537H20.4864C22.4584 497.537 24.0572 499.063 24.0572 500.944V521.053C24.0572 522.935 22.4584 524.46 20.4864 524.46Z" fill="black"/>
<path d="M1.68652 519.31V502.773C1.68652 501.672 2.62204 500.778 3.77718 500.778C4.93086 500.778 5.86785 501.671 5.86785 502.773V519.31C5.86785 520.412 4.93232 521.305 3.77718 521.305C2.62204 521.305 1.68652 520.412 1.68652 519.31Z" fill="#FFC655"/>
<path d="M11.0913 519.31V502.773C11.0913 501.672 12.0268 500.778 13.1805 500.778C14.3342 500.778 15.2712 501.671 15.2712 502.773V519.31C15.2712 520.412 14.3357 521.305 13.1805 521.305C12.0268 521.305 11.0913 520.412 11.0913 519.31Z" fill="#FFC655"/>
<path d="M20.4864 563.349H-70.9526C-72.9247 563.349 -74.5234 561.823 -74.5234 559.942V539.833C-74.5234 537.951 -72.9247 536.426 -70.9526 536.426H20.4864C22.4584 536.426 24.0572 537.951 24.0572 539.833V559.942C24.0572 561.822 22.4584 563.349 20.4864 563.349Z" fill="black"/>
<path d="M1.68628 558.195V541.659C1.68628 540.558 2.6218 539.664 3.77694 539.664C4.93061 539.664 5.86761 540.557 5.86761 541.659V558.195C5.86761 559.296 4.93208 560.19 3.77694 560.19C2.6218 560.189 1.68628 559.296 1.68628 558.195Z" fill="#FFC655"/>
<path d="M11.0913 558.195V541.659C11.0913 540.558 12.0268 539.664 13.1805 539.664C14.3342 539.664 15.2712 540.557 15.2712 541.659V558.195C15.2712 559.296 14.3357 560.19 13.1805 560.19C12.0268 560.189 11.0913 559.296 11.0913 558.195Z" fill="#FFC655"/>
<path d="M430.346 552.779L423.943 552.857C423.73 552.86 423.523 552.883 423.32 552.92C422.475 549.525 421.014 546.361 419.058 543.533C419.229 543.414 419.395 543.286 419.544 543.138L423.992 538.743C425.375 537.375 425.336 535.189 423.902 533.867L419.297 529.623C417.863 528.303 415.572 528.341 414.187 529.708L409.739 534.103C409.59 534.251 409.461 534.412 409.344 534.58C406.397 532.86 403.129 531.6 399.649 530.9C399.681 530.706 399.702 530.507 399.699 530.305L399.617 524.196C399.592 522.294 397.951 520.768 395.958 520.791L389.556 520.87C387.563 520.893 385.963 522.461 385.989 524.362L386.071 530.471C386.074 530.674 386.099 530.872 386.137 531.065C382.58 531.871 379.263 533.265 376.3 535.132C376.176 534.968 376.041 534.812 375.886 534.668L371.28 530.424C370.59 529.788 369.683 529.444 368.724 529.456C368.718 529.456 368.712 529.456 368.706 529.456C367.741 529.472 366.84 529.845 366.17 530.507L361.723 534.902C360.339 536.27 360.379 538.456 361.812 539.778L366.418 544.022C366.574 544.166 366.743 544.286 366.917 544.398C365.113 547.21 363.793 550.328 363.059 553.65C362.856 553.62 362.648 553.6 362.436 553.603L356.033 553.681C354.041 553.705 352.441 555.271 352.467 557.172L352.549 563.281C352.574 565.183 354.215 566.709 356.208 566.684L362.61 566.606C362.822 566.603 363.03 566.58 363.232 566.543C364.078 569.939 365.538 573.104 367.495 575.931C367.326 576.048 367.16 576.174 367.008 576.324L362.56 580.719C361.89 581.381 361.529 582.254 361.545 583.175C361.563 584.095 361.954 584.954 362.648 585.594L367.254 589.838C367.967 590.495 368.891 590.815 369.81 590.804C370.741 590.792 371.666 590.44 372.363 589.753L376.811 585.358C376.962 585.209 377.088 585.047 377.205 584.882C380.152 586.603 383.421 587.863 386.901 588.563C386.869 588.757 386.849 588.955 386.852 589.159L386.934 595.268C386.959 597.17 388.6 598.697 390.592 598.672L396.995 598.593C398.987 598.57 400.587 597.004 400.561 595.102L400.479 588.993C400.476 588.789 400.451 588.592 400.413 588.398C403.972 587.592 407.288 586.198 410.252 584.33C410.375 584.492 410.508 584.651 410.663 584.795L415.269 589.039C415.982 589.696 416.906 590.016 417.825 590.005C418.756 589.993 419.682 589.641 420.379 588.954L424.826 584.559C426.21 583.191 426.17 581.005 424.737 579.683L420.131 575.439C419.976 575.297 419.808 575.174 419.632 575.061C421.434 572.249 422.755 569.13 423.488 565.81C423.692 565.841 423.9 565.86 424.113 565.857L430.516 565.779C432.508 565.755 434.108 564.189 434.082 562.288L434 556.179C433.98 554.282 432.338 552.755 430.346 552.779ZM394.424 576.902C385.562 578.24 377.211 572.451 375.808 563.996C374.406 555.54 380.473 547.572 389.333 546.234C398.195 544.894 406.545 550.684 407.949 559.139C409.351 567.595 403.284 575.564 394.424 576.902Z" fill="#F8EDFF"/>
<path d="M474.743 490.439L469.853 492.366C469.691 492.43 469.538 492.508 469.395 492.596C467.659 490.237 465.524 488.233 463.116 486.634C463.209 486.493 463.294 486.346 463.361 486.189L465.369 481.518C465.992 480.065 465.262 478.397 463.739 477.802L458.843 475.886C457.321 475.291 455.573 475.988 454.949 477.441L452.942 482.113C452.874 482.269 452.828 482.431 452.791 482.593C449.979 482.132 447.065 482.119 444.169 482.596C444.133 482.438 444.084 482.279 444.017 482.124L441.998 477.458C441.37 476.007 439.62 475.312 438.099 475.912L433.209 477.838C431.688 478.437 430.961 480.107 431.59 481.56L433.61 486.226C433.678 486.381 433.76 486.526 433.851 486.663C431.378 488.32 429.278 490.357 427.602 492.655C427.454 492.565 427.3 492.484 427.136 492.42L422.241 490.505C421.507 490.218 420.7 490.218 419.968 490.508C419.964 490.509 419.96 490.512 419.955 490.513C419.219 490.806 418.648 491.357 418.345 492.061L416.338 496.733C415.714 498.185 416.444 499.854 417.968 500.449L422.864 502.364C423.03 502.428 423.198 502.471 423.368 502.506C422.885 505.191 422.87 507.97 423.371 510.735C423.204 510.77 423.039 510.816 422.876 510.88L417.986 512.807C416.465 513.406 415.737 515.075 416.367 516.527L418.386 521.193C419.014 522.644 420.763 523.339 422.285 522.739L427.175 520.811C427.337 520.747 427.489 520.669 427.633 520.582C429.369 522.942 431.505 524.947 433.914 526.545C433.82 526.684 433.733 526.83 433.666 526.989L431.659 531.661C431.356 532.365 431.359 533.14 431.668 533.841C431.975 534.544 432.552 535.089 433.29 535.378L438.186 537.293C438.943 537.589 439.755 537.566 440.456 537.289C441.168 537.008 441.765 536.469 442.08 535.737L444.087 531.065C444.155 530.908 444.2 530.745 444.237 530.585C447.05 531.046 449.962 531.06 452.86 530.582C452.896 530.741 452.946 530.899 453.012 531.054L455.031 535.72C455.659 537.172 457.409 537.866 458.93 537.267L463.82 535.339C465.342 534.74 466.069 533.07 465.44 531.619L463.422 526.953C463.354 526.798 463.272 526.652 463.18 526.515C465.653 524.859 467.754 522.82 469.429 520.524C469.575 520.613 469.727 520.695 469.894 520.76L474.79 522.675C475.547 522.971 476.359 522.947 477.062 522.671C477.774 522.39 478.372 521.851 478.686 521.12L480.693 516.449C481.317 514.996 480.586 513.328 479.063 512.733L474.168 510.817C474.004 510.753 473.834 510.708 473.664 510.672C474.147 507.988 474.162 505.21 473.661 502.445C473.828 502.41 473.993 502.364 474.156 502.3L479.046 500.373C480.567 499.774 481.295 498.104 480.665 496.653L478.646 491.987C478.014 490.533 476.264 489.838 474.743 490.439ZM453.866 518.956C446.72 521.773 438.503 518.516 435.552 511.697C432.6 504.879 436.013 497.039 443.16 494.222C450.307 491.406 458.521 494.662 461.474 501.482C464.424 508.3 461.012 516.14 453.866 518.956Z" fill="black"/>
<path d="M133.623 581.714L139.382 578.109C140.735 577.262 141.111 575.53 140.224 574.239L117.954 545.089C117.067 543.798 115.252 543.439 113.899 544.286L111.319 545.901C109.967 546.747 109.59 548.479 110.478 549.77L129.569 580.91C130.456 582.202 132.271 582.561 133.623 581.714Z" fill="#FFC655"/>
<path d="M116.675 544.19L110.122 548.293C108.308 549.429 105.872 548.945 104.681 547.215C103.491 545.484 103.998 543.159 105.812 542.023L112.365 537.92C114.179 536.785 116.615 537.268 117.805 538.999C118.996 540.73 118.489 543.054 116.675 544.19Z" fill="#F8EDFF"/>
<path d="M120.844 524.444C124.293 510.45 115.199 496.437 100.533 493.146C85.8667 489.855 71.1815 498.532 67.7327 512.527C64.2839 526.521 73.3773 540.534 88.0435 543.825C102.71 547.116 117.395 538.439 120.844 524.444Z" fill="#FFC655"/>
<path d="M111.854 507.509C118.208 516.752 115.508 529.159 105.822 535.222C96.1357 541.285 83.1335 538.709 76.778 529.466C70.424 520.224 73.1237 507.817 82.8099 501.754C92.4961 495.691 105.498 498.267 111.854 507.509Z" fill="#F8EDFF"/>
<path d="M113.295 521.41C114.989 511.413 107.869 501.999 97.3925 500.383C86.9158 498.766 77.0497 505.56 75.3559 515.557C73.6621 525.554 80.7821 534.968 91.2588 536.585C101.736 538.201 111.602 531.407 113.295 521.41Z" fill="white"/>
<path d="M428.759 408.095H425.373V416.22H428.759V408.095Z" fill="black"/>
<path d="M425.373 422.203V423.481V462.243H428.759V423.481V422.203H425.373Z" fill="black"/>
<path d="M451.899 408.094H448.513V462.247H451.899V408.094Z" fill="black"/>
<path d="M473.671 408.095H470.285V432.643H473.671V408.095Z" fill="black"/>
<path d="M473.671 438.626H470.285V462.242H473.671V438.626Z" fill="black"/>
<path d="M456.009 451.053H444.405C442.929 451.053 441.734 449.912 441.734 448.505V446.348C441.734 444.94 442.93 443.8 444.405 443.8H456.009C457.484 443.8 458.679 444.941 458.679 446.348V448.505C458.679 449.913 457.483 451.053 456.009 451.053Z" fill="#F8EDFF"/>
<path d="M433.153 414.944H420.978C419.306 414.944 417.948 416.287 417.948 417.923V420.517C417.948 422.153 419.306 423.483 420.978 423.483H433.153C434.839 423.483 436.197 422.153 436.197 420.517V417.923C436.197 416.285 434.839 414.944 433.153 414.944ZM434.891 420.517C434.891 421.45 434.121 422.205 433.153 422.205H420.978C420.025 422.205 419.254 421.45 419.254 420.517V417.923C419.254 416.99 420.024 416.223 420.978 416.223H433.153C434.121 416.223 434.891 416.99 434.891 417.923V420.517Z" fill="#FFC655"/>
<path d="M478.069 431.366H465.894C464.209 431.366 462.851 432.709 462.851 434.345V436.939C462.851 438.575 464.209 439.905 465.894 439.905H478.069C479.741 439.905 481.1 438.575 481.1 436.939V434.345C481.1 432.709 479.74 431.366 478.069 431.366ZM479.793 436.939C479.793 437.872 479.023 438.626 478.068 438.626H465.893C464.94 438.626 464.155 437.872 464.155 436.939V434.345C464.155 433.411 464.938 432.644 465.893 432.644H478.068C479.021 432.644 479.793 433.411 479.793 434.345V436.939Z" fill="black"/>
<path d="M0.0449123 156.823L-9.32504 148.899C-9.76279 148.531 -10.4319 148.57 -10.8154 148.986C-11.0028 149.187 -11.0965 149.447 -11.0804 149.715C-11.0629 149.984 -10.9384 150.231 -10.7261 150.41L-2.2844 157.548L-10.6968 164.139C-10.915 164.31 -11.0512 164.552 -11.0775 164.82C-11.1039 165.088 -11.0204 165.351 -10.8418 165.559C-10.6412 165.793 -10.3425 165.928 -10.0248 165.928C-9.78182 165.928 -9.54464 165.847 -9.35431 165.698L0.0141621 158.357C0.252803 158.17 0.393352 157.893 0.400672 157.596C0.406528 157.301 0.276234 157.019 0.0449123 156.823Z" fill="#F8EDFF"/>
<path d="M471.045 344.598L479.349 335.657C479.734 335.24 479.693 334.601 479.258 334.235C479.047 334.056 478.775 333.967 478.494 333.982C478.211 333.999 477.954 334.118 477.766 334.32L470.285 342.375L463.378 334.348C463.199 334.14 462.946 334.01 462.665 333.985C462.384 333.96 462.108 334.038 461.89 334.21C461.644 334.401 461.504 334.686 461.504 334.99C461.504 335.221 461.589 335.448 461.744 335.629L469.437 344.569C469.634 344.797 469.923 344.931 470.235 344.938C470.544 344.943 470.84 344.819 471.045 344.598Z" fill="#F8EDFF"/>
<path d="M471.045 360.298L479.349 351.357C479.734 350.94 479.693 350.301 479.258 349.935C479.047 349.756 478.775 349.667 478.494 349.684C478.211 349.7 477.954 349.819 477.766 350.022L470.285 358.077L463.378 350.05C463.199 349.841 462.946 349.712 462.665 349.686C462.384 349.661 462.108 349.74 461.89 349.911C461.644 350.103 461.504 350.388 461.504 350.691C461.504 350.923 461.589 351.15 461.744 351.331L469.437 360.27C469.634 360.498 469.923 360.632 470.235 360.639C470.544 360.642 470.84 360.517 471.045 360.298Z" fill="#F8EDFF"/>
<path d="M471.045 375.997L479.349 367.056C479.734 366.639 479.693 366 479.258 365.634C479.047 365.456 478.775 365.366 478.494 365.383C478.211 365.4 477.954 365.518 477.766 365.721L470.285 373.776L463.378 365.749C463.199 365.541 462.946 365.411 462.665 365.386C462.384 365.36 462.108 365.439 461.89 365.611C461.644 365.802 461.504 366.087 461.504 366.39C461.504 366.622 461.589 366.85 461.744 367.03L469.437 375.969C469.634 376.197 469.923 376.331 470.235 376.338C470.544 376.341 470.84 376.218 471.045 375.997Z" fill="#F8EDFF"/>
<path d="M216.626 575.186L225.995 583.11C226.433 583.478 227.102 583.438 227.486 583.024C227.673 582.822 227.767 582.563 227.751 582.294C227.733 582.025 227.609 581.779 227.397 581.6L218.955 574.461L227.367 567.87C227.585 567.7 227.722 567.458 227.748 567.19C227.774 566.922 227.692 566.659 227.512 566.451C227.312 566.216 227.013 566.082 226.695 566.082C226.452 566.082 226.215 566.163 226.025 566.311L216.656 573.652C216.418 573.84 216.277 574.116 216.27 574.414C216.264 574.707 216.394 574.989 216.626 575.186Z" fill="#F8EDFF"/>
<path d="M200.171 575.186L209.541 583.11C209.979 583.478 210.648 583.438 211.032 583.024C211.219 582.822 211.313 582.563 211.295 582.294C211.278 582.025 211.153 581.779 210.941 581.6L202.499 574.461L210.912 567.87C211.13 567.7 211.266 567.458 211.292 567.19C211.319 566.922 211.235 566.659 211.057 566.451C210.856 566.216 210.557 566.082 210.24 566.082C209.997 566.082 209.758 566.163 209.569 566.311L200.201 573.652C199.962 573.84 199.821 574.116 199.814 574.414C199.811 574.707 199.94 574.989 200.171 575.186Z" fill="#F8EDFF"/>
<path d="M183.718 575.186L193.088 583.11C193.526 583.478 194.195 583.438 194.578 583.024C194.766 582.822 194.86 582.563 194.842 582.294C194.824 582.025 194.7 581.779 194.488 581.6L186.046 574.461L194.458 567.87C194.677 567.7 194.813 567.458 194.839 567.19C194.865 566.922 194.783 566.659 194.603 566.451C194.403 566.216 194.104 566.082 193.786 566.082C193.543 566.082 193.305 566.163 193.116 566.311L183.747 573.652C183.509 573.84 183.368 574.116 183.361 574.414C183.358 574.707 183.487 574.989 183.718 575.186Z" fill="#F8EDFF"/>
</svg>
